<svg width="120" height="121" viewBox="0 0 120 121" fill="none" xmlns="http://www.w3.org/2000/svg">
<path d="M71.9252 15.8544C75.9022 18.5945 78.2674 22.5878 79.6314 27.1461C79.6942 27.3515 79.757 27.5569 79.8217 27.7685C80.2226 29.2132 80.3345 30.6487 80.3984 32.1433C80.5239 32.1748 80.6493 32.2062 80.7785 32.2386C86.6388 33.7666 91.662 36.7617 96.1224 40.7923C96.2757 40.9295 96.4289 41.0668 96.5868 41.2082C98.2226 42.758 99.8587 44.7488 100.916 46.7505C100.916 46.8773 100.916 47.0042 100.916 47.1348C101.913 46.5731 102.886 45.9807 103.853 45.369C104.123 45.1979 104.394 45.027 104.665 44.8562C104.783 44.7816 104.901 44.707 105.023 44.6301C105.671 44.233 106.096 44.1767 106.861 44.2519C107.412 44.5402 107.412 44.5402 107.82 45.0207C107.931 45.6604 107.981 45.9598 107.82 46.5583C107.431 47.0029 107.161 47.2142 106.669 47.5192C106.476 47.6402 106.283 47.7611 106.085 47.8856C105.651 48.154 105.216 48.4203 104.78 48.6845C104.106 49.1004 103.469 49.5443 102.834 50.0178C102.909 50.2359 102.984 50.4539 103.062 50.6785C103.367 51.5982 103.648 52.5246 103.925 53.4534C103.968 53.5975 104.011 53.7415 104.056 53.8899C104.229 54.4753 104.368 54.9778 104.368 55.5916C104.505 55.5522 104.641 55.5128 104.782 55.4722C108.56 54.4071 108.56 54.4071 110.229 55.1111C110.792 55.6903 110.825 55.9658 110.83 56.7448C110.616 57.3587 110.283 57.5575 109.737 57.898C109.208 58.0604 108.678 58.1443 108.131 58.2223C107.991 58.2448 107.851 58.2672 107.707 58.2903C107.298 58.3552 106.888 58.4158 106.477 58.4746C106.239 58.5087 106.001 58.5429 105.755 58.5781C105.448 58.622 105.448 58.622 105.135 58.6668C105.139 58.8591 105.143 59.0514 105.147 59.2495C105.218 62.9757 105.233 66.5506 104.368 70.1988C104.303 70.493 104.238 70.7873 104.173 71.0817C103.08 75.8428 100.66 80.7714 97.6565 84.6137C97.4985 84.8237 97.4985 84.8237 97.3374 85.0379C97.0029 85.4788 96.6603 85.9118 96.3142 86.3435C96.174 86.5199 96.0339 86.6963 95.8895 86.878C93.699 89.5574 91.233 92.1557 88.4522 94.2237C88.3311 94.3151 88.21 94.4065 88.0852 94.5007C80.4787 100.226 71.4741 104.46 61.9899 105.756C61.7674 105.791 61.5449 105.826 61.3157 105.863C51.7124 107.291 40.8928 105.041 33.0347 99.2208C31.1875 97.8246 29.4963 96.2654 27.8573 94.6321C27.7491 94.5245 27.6408 94.4169 27.5293 94.3061C27.0746 93.8485 26.6818 93.4174 26.3232 92.8783C25.4286 92.9813 24.7911 93.3847 24.0581 93.8753C23.9392 93.9527 23.8203 94.0301 23.6977 94.1099C23.0481 94.5371 22.4391 94.9867 21.8409 95.485C21.3328 95.8773 20.9747 96.0369 20.3308 96.0736C19.6118 95.9535 19.6118 95.9535 19.1324 95.6531C18.7278 94.9941 18.7249 94.5999 18.8447 93.8393C20.2716 92.2348 22.1672 91.0442 24.0222 89.9953C23.9569 89.8783 23.8916 89.7614 23.8244 89.6409C23.2087 88.5249 22.6178 87.3979 22.0447 86.2594C21.9777 86.1276 21.9107 85.9958 21.8417 85.86C21.5402 85.2569 21.2923 84.6948 21.1458 84.0371C20.5144 84.1603 19.8833 84.2848 19.2522 84.4095C19.0725 84.4445 18.8928 84.4796 18.7077 84.5157C18.5359 84.5498 18.3641 84.5839 18.1871 84.6189C18.0284 84.6502 17.8698 84.6814 17.7063 84.7135C17.3016 84.7918 17.3016 84.7918 16.9272 84.9981C16.5998 85.0115 16.272 85.0143 15.9444 85.0101C15.7699 85.0084 15.5954 85.0066 15.4156 85.0049C15.2816 85.0026 15.1477 85.0004 15.0096 84.9981C14.8831 84.7444 14.7565 84.4907 14.6261 84.2293C14.4995 84.2293 14.373 84.2293 14.2426 84.2293C14.1823 83.58 14.2005 83.1646 14.4823 82.5716C15.9528 81.2987 18.125 81.1218 19.9953 81.1541C19.9488 81.0228 19.9023 80.8915 19.8545 80.7562C19.3878 79.3495 19.0711 77.9508 18.8088 76.4933C18.7768 76.3161 18.7449 76.1389 18.712 75.9564C18.6232 75.4473 18.5403 74.9378 18.4612 74.4271C18.4301 74.2311 18.4301 74.2311 18.3984 74.0311C18.189 72.4813 18.2319 70.9067 18.2335 69.3459C18.2334 69.1913 18.2334 69.0367 18.2333 68.8775C18.2343 67.157 18.2399 65.4463 18.4492 63.7361C18.4653 63.603 18.4814 63.47 18.498 63.333C18.567 62.8127 18.6551 62.3106 18.7886 61.8028C19.1015 60.4285 18.435 59.5529 17.7287 58.4228C17.6394 58.2811 17.5502 58.1394 17.4583 57.9934C14.9074 53.9256 13.0408 48.8173 14.0875 43.9913C14.8963 41.3403 16.6484 39.2775 19.0365 37.9093C22.3978 36.2125 25.98 35.5296 29.72 35.5525C30.1329 35.5549 30.5457 35.5539 30.9585 35.5529C32.4517 35.5556 33.8951 35.6411 35.3774 35.8394C37.3086 36.1389 37.3086 36.1389 39.0463 35.4243C39.443 35.0799 39.8157 34.7136 40.191 34.3461C40.8039 33.8119 41.5153 33.4418 42.227 33.0563C42.448 32.9359 42.448 32.9359 42.6734 32.8131C44.8284 31.6612 47.2689 30.3871 49.722 30.132C50.5434 30.0285 51.3177 29.9198 52.0185 29.4525C52.7147 28.55 53.0015 27.3952 53.3591 26.3278C53.6949 25.413 54.1409 24.5589 54.5953 23.6986C54.6853 23.5279 54.7753 23.3573 54.8681 23.1815C55.5942 21.8354 56.397 20.6271 57.3877 19.4582C57.5318 19.2872 57.6759 19.1163 57.8244 18.9401C58.2428 18.4598 58.6722 17.9954 59.1135 17.5362C59.2262 17.416 59.3389 17.2958 59.4551 17.172C60.2669 16.3816 61.1803 15.8713 62.1816 15.3619C62.3091 15.297 62.4365 15.232 62.5678 15.1651C65.7078 13.6369 68.9923 14.0782 71.9252 15.8544Z" fill="#010000"/>
<path d="M69.0847 0.814891C69.3662 0.861806 69.6479 0.908367 69.9296 0.954536C73.8492 1.62051 78.0217 2.62213 81.6522 4.26547C82.1393 4.47319 82.6201 4.61662 83.1308 4.75498C83.8974 4.97381 84.4722 5.28096 85.13 5.72498C85.7021 6.08351 86.3009 6.37958 86.906 6.67697C89.5633 7.9885 89.5633 7.9885 90.3891 8.61773C90.771 8.90053 91.0569 8.99655 91.5201 9.07946C91.5201 9.20631 91.5201 9.33316 91.5201 9.46386C91.6311 9.48417 91.7421 9.50449 91.8564 9.52542C92.3498 9.67506 92.6401 9.88781 93.0422 10.2086C93.6037 10.6456 94.164 11.0284 94.78 11.3858C95.1712 11.63 95.5566 11.8845 95.9305 12.1546C95.9305 12.2815 95.9305 12.4083 95.9305 12.539C96.0301 12.5819 96.1297 12.6248 96.2324 12.6689C96.8741 13.02 97.4325 13.4669 98.0039 13.9205C98.1843 14.0631 98.1843 14.0631 98.3684 14.2086C99.0971 14.7913 99.7786 15.3916 100.42 16.0707C100.891 16.5537 101.403 16.9865 101.914 17.4251C102.478 17.9217 102.976 18.4584 103.469 19.0258C103.586 19.1608 103.704 19.2958 103.825 19.4349C104.23 19.9048 104.63 20.3782 105.028 20.8539C105.264 21.1176 105.512 21.3696 105.765 21.6167C106.385 22.2513 106.941 22.9224 107.496 23.6145C107.654 23.807 107.654 23.807 107.815 24.0034C107.915 24.1273 108.014 24.2512 108.117 24.3788C108.207 24.4905 108.297 24.6021 108.39 24.7171C108.586 25.032 108.586 25.032 108.586 25.6086C108.713 25.6086 108.84 25.6086 108.97 25.6086C109.199 25.9317 109.412 26.2664 109.617 26.6056C109.961 27.1725 110.295 27.7015 110.716 28.2138C111.081 28.6859 111.259 29.0716 111.451 29.6328C111.68 30.2428 111.891 30.7202 112.326 31.2064C113.086 32.0827 113.572 32.893 113.572 34.0654C113.699 34.0654 113.825 34.0654 113.956 34.0654C114.052 34.3133 114.148 34.5616 114.243 34.8101C114.323 35.0175 114.323 35.0175 114.405 35.2291C114.531 35.603 114.531 35.603 114.531 35.9874C114.657 35.9874 114.784 35.9874 114.914 35.9874C115.421 37.3833 115.923 38.7807 116.421 40.1797C116.552 40.5454 116.683 40.9109 116.816 41.2758C117.786 43.938 118.395 46.6637 118.941 49.4413C118.982 49.6385 119.024 49.8358 119.066 50.039C120.339 56.301 120.261 63.5302 119.133 69.8144C119.099 70.0122 119.065 70.21 119.03 70.4137C118.487 73.5251 117.82 76.6782 116.64 79.6166C116.561 79.9232 116.489 80.2316 116.424 80.5415C116.376 80.7693 116.376 80.7693 116.327 81.0018C116.304 81.1155 116.281 81.2292 116.257 81.3464C116.13 81.3464 116.004 81.3464 115.873 81.3464C115.848 81.4871 115.823 81.6278 115.797 81.7728C115.045 85.2379 112.904 88.6891 111.064 91.6906C110.79 92.1454 110.537 92.5907 110.312 93.0705C110.186 93.0705 110.059 93.0705 109.929 93.0705C109.882 93.2063 109.835 93.3421 109.787 93.4819C109.51 94.1112 109.16 94.5915 108.742 95.1367C108.665 95.2377 108.588 95.3388 108.509 95.4429C108.28 95.7421 108.05 96.04 107.819 96.3379C107.703 96.4898 107.588 96.6417 107.468 96.7981C106.309 98.308 105.143 99.8001 103.793 101.143C103.515 101.454 103.239 101.766 102.966 102.08C102.309 102.817 101.63 103.479 100.876 104.114C100.559 104.388 100.27 104.672 99.9814 104.975C99.5739 105.371 99.5739 105.371 99.1904 105.371C99.1904 105.498 99.1904 105.625 99.1904 105.756C98.119 106.758 96.921 107.617 95.7118 108.443C95.1439 108.845 94.594 109.264 94.0429 109.688C92.7403 110.687 91.454 111.55 89.9861 112.29C89.3305 112.654 88.6754 113.018 88.0206 113.382C87.4932 113.636 87.4932 113.636 86.918 113.636C86.918 113.763 86.918 113.89 86.918 114.02C84.3899 115.146 84.3899 115.146 83.9282 115.352C83.62 115.489 83.3118 115.627 83.0037 115.765C72.9829 120.244 61.4815 121.344 50.6761 119.786C50.6761 119.659 50.6761 119.533 50.6761 119.402C50.5223 119.413 50.3686 119.424 50.2102 119.436C48.3096 119.511 46.7451 119.128 44.9448 118.566C44.3779 118.391 43.8057 118.237 43.2335 118.08C42.0742 117.747 40.9275 117.378 39.7819 116.999C39.6148 116.945 39.4476 116.89 39.2753 116.833C38.186 116.469 37.1429 116.045 36.1026 115.558C35.9722 115.497 35.8418 115.436 35.7074 115.374C35.2092 115.141 34.712 114.906 34.215 114.67C33.6978 114.426 33.1938 114.202 32.651 114.02C32.651 113.893 32.651 113.767 32.651 113.636C32.5197 113.618 32.3885 113.601 32.2533 113.583C31.5579 113.41 31.0114 113.107 30.3859 112.759C30.214 112.664 30.214 112.664 30.0387 112.567C29.7583 112.412 29.4788 112.255 29.1994 112.098C29.1994 111.971 29.1994 111.845 29.1994 111.714C29.0689 111.666 28.9384 111.619 28.8039 111.57C27.6685 111.085 26.7134 110.447 25.7463 109.689C25.3631 109.396 25.3631 109.396 24.9186 109.145C24.2841 108.756 23.7054 108.308 23.1231 107.846C23.0053 107.753 22.8875 107.66 22.7661 107.564C21.8883 106.864 21.047 106.132 20.2213 105.371C19.8451 105.025 19.4622 104.692 19.0723 104.362C18.3583 103.752 17.6973 103.123 17.1188 102.38C16.7545 101.9 16.7545 101.9 16.2851 101.561C15.754 101.124 15.3546 100.67 14.9255 100.134C14.7767 99.9483 14.6279 99.7627 14.4746 99.5715C14.0208 98.9904 13.5806 98.4008 13.1443 97.8064C12.8864 97.4599 12.8864 97.4599 12.4807 97.0707C12.1331 96.7223 12.1331 96.7223 11.8455 96.2298C11.5891 95.7457 11.5891 95.7457 11.1623 95.473C10.7908 95.1847 10.7908 95.1847 10.638 94.7823C10.3224 94.0181 9.87009 93.3718 9.41256 92.6861C8.51239 91.3129 7.70915 89.9177 6.95568 88.4577C6.80027 88.167 6.64444 87.8764 6.48828 87.5861C5.28141 85.3337 4.12327 83.0911 3.43441 80.6166C3.2873 80.1064 3.09454 79.6169 2.90558 79.1211C1.90903 76.3687 0.99845 73.4201 0.871922 70.4789C0.831186 69.9793 0.831186 69.9793 0.637751 69.4119C0.401614 68.5964 0.304431 67.7855 0.223247 66.9419C0.207122 66.7759 0.190997 66.6099 0.174383 66.4389C0.00850049 64.5665 -0.00530544 62.6965 0.00246519 60.8179C0.00451887 60.2303 0.00247184 59.6427 3.07886e-05 59.055C-0.0031488 55.3816 0.239202 51.7985 1.07117 48.216C1.13151 47.949 1.1918 47.6819 1.25202 47.4149C1.66128 45.6213 2.13412 43.8751 2.73705 42.1377C2.83349 41.8436 2.92933 41.5493 3.02468 41.2548C3.67309 39.2595 4.39226 37.322 5.25235 35.4077C5.44889 34.9649 5.6306 34.5173 5.80515 34.0654C5.93171 34.0654 6.05826 34.0654 6.18866 34.0654C6.23117 33.916 6.27369 33.7666 6.31749 33.6126C6.65885 32.6737 7.11397 31.8128 7.57889 30.9301C7.66812 30.7573 7.75736 30.5845 7.8493 30.4064C8.37384 29.4049 8.93699 28.4562 9.58166 27.5274C9.842 27.1498 9.842 27.1498 10.033 26.7248C10.2155 26.3774 10.2155 26.3774 10.599 26.1852C10.7374 25.8693 10.8663 25.5489 10.9826 25.2242C11.1091 25.2242 11.2357 25.2242 11.3661 25.2242C11.3661 25.0973 11.3661 24.9705 11.3661 24.8398C11.4926 24.8398 11.6192 24.8398 11.7496 24.8398C11.9613 24.4305 12.1431 24.0408 12.2889 23.6025C12.5168 23.1095 12.7718 22.8214 13.1638 22.4531C13.5787 22.0482 13.9627 21.6192 14.3503 21.188C14.4929 21.0294 14.6355 20.8709 14.7825 20.7075C15.6172 19.7865 15.6172 19.7865 16.16 18.6894C16.4603 18.4281 16.4603 18.4281 16.8431 18.1609C17.868 17.419 18.8135 16.6064 19.7075 15.7103C20.1251 15.2917 20.55 14.892 20.9898 14.4971C21.1191 14.3809 21.2484 14.2647 21.3816 14.145C21.7209 13.8844 21.7209 13.8844 22.1044 13.8844C22.1044 13.7576 22.1044 13.6307 22.1044 13.5C22.5012 13.1591 22.8978 12.8411 23.3149 12.527C23.4289 12.4387 23.543 12.3504 23.6606 12.2594C24.1603 11.8782 24.5727 11.5862 25.1725 11.3858C25.2358 11.259 25.2991 11.1321 25.3643 11.0014C25.5541 10.938 25.7439 10.8746 25.9395 10.8093C26.1345 10.6203 26.3259 10.4276 26.5148 10.2327C26.7894 10.0255 27.0695 9.82556 27.3537 9.63203C27.4976 9.53243 27.6415 9.43283 27.7897 9.33022C28.2651 9.06582 28.6641 8.96499 29.1994 8.88726C29.2627 8.69698 29.3259 8.5067 29.3911 8.31066C29.8675 8.04939 29.8675 8.04939 30.4937 7.78211C31.4213 7.37245 32.3126 6.93804 33.2023 6.44873C34.0309 5.99506 34.8405 5.5808 35.7191 5.23547C35.8513 5.18221 35.9836 5.12894 36.1198 5.07406C36.7132 4.84067 37.1854 4.65888 37.8284 4.65888C37.8284 4.53202 37.8284 4.40517 37.8284 4.27448C41.5326 2.83322 45.4172 1.83703 49.3208 1.11614C49.7092 1.04413 50.0972 0.969479 50.4846 0.892033C56.4382 -0.278639 63.1158 -0.289485 69.0847 0.814891ZM56.8812 19.998C55.3041 22.1362 54.1769 24.5006 53.0505 26.8992C52.9689 27.0718 52.8873 27.2445 52.8032 27.4224C52.6107 27.8749 52.4917 28.3057 52.3704 28.7806C52.0184 29.4526 52.0184 29.4526 51.62 29.6545C51.0846 29.813 50.5534 29.9253 50.0049 30.0292C46.6445 30.7884 42.4348 32.1531 39.9048 34.6284C38.5653 35.9333 38.5653 35.9333 37.5676 36.0322C36.6238 36.0128 35.6973 35.8827 34.7626 35.7584C33.2313 35.5593 31.7119 35.5393 30.1702 35.5429C30.0331 35.5431 29.896 35.5434 29.7547 35.5436C27.7225 35.5527 25.8 35.6509 23.8302 36.1796C23.7034 36.2125 23.5765 36.2455 23.4458 36.2795C20.0085 37.1909 16.8737 38.6681 14.9855 41.8134C13.4727 44.578 13.4951 47.9533 14.3608 50.9301C15.3301 54.0108 16.6324 57.2347 18.5195 59.8726C18.8622 60.425 18.9287 60.591 18.8206 61.2135C18.7966 61.3835 18.7726 61.5534 18.7479 61.7285C18.7165 61.9233 18.6851 62.118 18.6528 62.3186C17.9345 66.9368 17.8843 71.9616 18.8446 76.5414C18.91 76.8772 18.9751 77.213 19.0401 77.5489C19.3828 79.3909 19.3828 79.3909 19.9951 81.1542C19.7744 81.1472 19.5536 81.1403 19.3262 81.1331C18.4761 81.1339 17.7117 81.2796 16.891 81.4905C16.7597 81.5207 16.6283 81.551 16.4929 81.5821C15.642 81.7955 15.0679 82.0841 14.4342 82.6918C14.1745 83.2124 14.2299 83.6546 14.2424 84.2294C14.369 84.2294 14.4955 84.2294 14.6259 84.2294C14.7525 84.4831 14.879 84.7368 15.0094 84.9982C16.3018 85.0755 17.409 84.917 18.6558 84.5755C19.478 84.3543 20.3099 84.1969 21.1456 84.0372C21.1759 84.1413 21.2062 84.2454 21.2373 84.3526C21.5945 85.508 22.0885 86.5122 22.6917 87.5568C22.8618 87.8563 23.0319 88.1559 23.2018 88.4555C23.2764 88.5854 23.3511 88.7153 23.428 88.8491C23.6381 89.2259 23.8324 89.6078 24.022 89.9953C23.7954 90.1284 23.7954 90.1284 23.5643 90.2641C22.3764 90.9771 21.2373 91.7199 20.1389 92.566C19.9777 92.6895 19.9777 92.6895 19.8133 92.8155C19.2425 93.2522 19.2425 93.2522 18.8446 93.8393C18.7771 94.5694 18.7435 95.0201 19.1322 95.6532C19.7953 96.0686 20.3928 96.085 21.1456 95.9535C21.6809 95.6872 22.1225 95.3346 22.5838 94.9565C22.8348 94.7622 23.0859 94.5683 23.3373 94.3746C23.4557 94.2817 23.574 94.1889 23.696 94.0932C25.2828 92.8576 25.2828 92.8576 26.0407 92.9151C26.5815 93.0924 26.7355 93.237 27.0781 93.6832C32.7219 100.496 41.0503 104.534 49.7173 105.756C49.866 105.778 50.0147 105.8 50.1679 105.823C63.1299 107.712 76.7929 102.906 87.1457 95.1967C90.646 92.5341 94.0747 89.5113 96.6975 85.9592C96.7732 85.8575 96.8488 85.7559 96.9267 85.6512C99.4556 82.2389 101.54 78.6028 103.025 74.6194C103.128 74.3715 103.128 74.3715 103.232 74.1186C103.713 72.9148 104.007 71.676 104.296 70.415C104.335 70.2426 104.375 70.0701 104.416 69.8924C104.535 69.3551 104.645 68.8168 104.751 68.2768C104.789 68.0921 104.826 67.9074 104.864 67.7172C105.201 65.8335 105.178 63.9722 105.159 62.0664C105.157 61.7352 105.155 61.4039 105.154 61.0727C105.149 60.2707 105.143 59.4688 105.135 58.6669C106.478 58.4139 107.814 58.2009 109.172 58.0437C109.85 57.8689 110.205 57.6259 110.696 57.1293C110.883 56.5931 110.849 56.1361 110.696 55.5917C110.091 54.9701 109.575 54.7779 108.73 54.7508C107.244 54.8209 105.802 55.219 104.368 55.5917C104.353 55.4747 104.339 55.3578 104.324 55.2373C104.123 53.8897 103.724 52.7025 103.19 51.4564C102.801 50.5038 102.801 50.5038 102.96 50.0103C103.276 49.5472 103.581 49.3581 104.067 49.0809C104.235 48.9828 104.403 48.8847 104.577 48.7836C104.753 48.6835 104.929 48.5834 105.111 48.4803C105.459 48.2812 105.806 48.081 106.152 47.8797C106.383 47.7481 106.383 47.7481 106.619 47.6139C107.193 47.234 107.735 46.8554 107.928 46.1739C107.927 45.4322 107.907 45.1242 107.412 44.5402C106.745 44.1913 106.458 44.1647 105.71 44.2519C105.132 44.507 104.604 44.8308 104.068 45.1649C103.926 45.2501 103.784 45.3353 103.637 45.4231C102.876 45.8852 102.186 46.3838 101.491 46.9427C101.302 47.0061 101.112 47.0696 100.916 47.1349C100.87 47.0021 100.824 46.8693 100.777 46.7325C100.488 46.0723 100.112 45.5069 99.6937 44.9246C99.6098 44.8076 99.5259 44.6906 99.4394 44.5701C94.9803 38.4873 87.7836 33.7733 80.3983 32.1434C80.3955 31.9915 80.3928 31.8396 80.39 31.6831C80.1792 26.6868 78.0573 22.0704 74.8373 18.305C74.738 18.1868 74.6386 18.0687 74.5362 17.9469C72.6811 15.9146 69.9583 14.5153 67.2435 14.1847C62.8095 14.0271 59.5115 16.711 56.8812 19.998Z" fill="#FED589"/>
<path d="M83.9808 51.0449C86.1062 52.5681 87.3639 54.9686 87.8766 57.5136C88.0984 59.8638 87.715 62.3163 86.2826 64.2526C86.0542 64.5115 85.8186 64.7642 85.5755 65.0094C85.4568 65.131 85.3382 65.2527 85.2159 65.378C83.3737 67.124 81.4724 67.5746 78.9906 67.5485C76.5385 67.4068 74.3471 66.4511 72.6724 64.6355C70.9355 62.5448 70.3815 60.1977 70.5757 57.5226C70.8562 54.9437 72.1988 53.0318 74.1158 51.3722C77.1696 49.1037 80.7882 49.0017 83.9808 51.0449Z" fill="#020101"/>
<path d="M50.676 68.8534C52.035 69.6994 52.9862 70.7132 53.7441 72.1207C53.8232 72.2578 53.9023 72.3948 53.9838 72.5359C54.8923 74.3793 54.7919 76.8204 54.1995 78.7516C53.2048 81.2754 51.6295 83.2616 49.1419 84.4215C46.7119 85.2961 44.4263 85.2203 42.0469 84.2293C39.8414 83.1254 38.1185 81.3742 37.253 79.0399C36.6546 77.0053 36.4359 74.4883 37.3961 72.5367C37.4754 72.3994 37.5548 72.2622 37.6365 72.1207C37.7179 71.9716 37.7992 71.8225 37.883 71.6688C39.0449 69.7289 40.9496 68.595 43.0469 67.8721C45.6795 67.2485 48.2968 67.6052 50.676 68.8534Z" fill="#020101"/>
<path d="M51.4108 66.1423C54.1917 67.9948 56.339 70.7206 57.1204 74.0091C57.7204 77.3411 56.8221 80.4364 55.0863 83.2683C54.562 83.9715 53.9941 84.5855 53.3605 85.1903C53.2342 85.3162 53.1079 85.442 52.9778 85.5717C52.0541 86.4435 51.0723 87.0009 49.9089 87.4967C49.7443 87.5725 49.5797 87.6483 49.4101 87.7264C46.8539 88.7585 43.7876 88.562 41.2799 87.4967C41.0241 87.3889 41.0241 87.3889 40.7631 87.279C37.637 85.8321 35.6863 83.2562 34.3018 80.1766C33.3836 77.6556 33.4623 74.4964 34.4621 72.0074C36.3049 68.3262 38.9117 66.2455 42.6222 64.625C45.5665 63.7603 48.8396 64.6701 51.4108 66.1423ZM39.5541 69.8144C39.388 69.9254 39.2219 70.0364 39.0507 70.1507C37.8168 71.3224 36.8816 73.1664 36.7931 74.8821C36.7907 75.1709 36.7923 75.4598 36.7976 75.7485C36.7994 75.9004 36.8012 76.0522 36.8031 76.2087C36.8326 77.356 36.9726 78.3685 37.4448 79.4243C37.5078 79.5668 37.5708 79.7092 37.6358 79.856C38.8442 82.2743 40.7492 83.8176 43.2694 84.6858C45.5977 85.3354 47.9365 85.1071 50.0745 83.926C50.5553 83.6013 50.9996 83.258 51.443 82.8839C51.5646 82.7878 51.6862 82.6917 51.8115 82.5926C53.2683 81.3134 54.3531 79.0175 54.5527 77.1032C54.5761 76.6707 54.5839 76.2417 54.583 75.8086C54.5827 75.6563 54.5824 75.504 54.582 75.347C54.5418 73.4153 53.8461 71.9093 52.5336 70.4871C52.3635 70.3285 52.1935 70.1699 52.0182 70.0066C51.9352 69.9156 51.8521 69.8247 51.7666 69.731C50.1776 68.1342 47.8457 67.588 45.6663 67.568C43.3209 67.6074 41.3445 68.2567 39.5541 69.8144Z" fill="#F8D289"/>
<path d="M85.5756 48.6725C88.0583 50.4214 90.0929 52.7174 90.8009 55.7358C91.4139 59.2742 90.5054 62.6493 88.4879 65.574C86.7203 67.8474 84.2686 69.7701 81.3569 70.1988C77.8183 70.4943 74.3753 70.0904 71.5182 67.7866C69.5347 66.0825 68.3684 64.2237 67.5505 61.742C67.503 61.6035 67.4556 61.465 67.4067 61.3224C66.5397 58.4197 67.4763 55.3909 68.7535 52.7875C70.4785 49.6244 73.4151 47.9061 76.7375 46.8233C79.8465 46.2583 82.9441 46.9978 85.5756 48.6725ZM72.2545 53.2597C70.7189 55.4035 70.3355 57.8209 70.6186 60.3966C71.1629 62.8275 72.4492 64.7057 74.4537 66.1626C76.636 67.5167 79.2529 67.8969 81.7764 67.3879C83.8354 66.7515 85.5633 65.4769 86.6782 63.628C87.8036 61.3949 88.3166 58.9882 87.6609 56.5286C86.7569 53.9698 85.4287 51.761 82.9898 50.4376C78.9519 48.5333 75.0125 49.9346 72.2545 53.2597Z" fill="#F9D38A"/>
<path d="M34.3925 44.8517C35.1972 45.3711 35.7649 45.9544 36.2943 46.7504C36.6556 48.923 34.8699 51.0039 33.6727 52.6936C31.1577 56.0264 31.1577 56.0264 29.5829 56.5526C28.7194 56.6714 28.1983 56.5938 27.4975 56.0961C25.1295 54.1258 22.9665 51.134 22.601 47.9975C22.5416 46.5601 22.6504 45.5246 23.6384 44.444C26.3996 41.6765 31.3754 43.2945 34.3925 44.8517Z" fill="#FB9B89"/>
<path d="M68.9991 24.0718C70.8262 25.1539 71.728 27.309 72.2657 29.2934C72.384 30.1109 72.3875 30.922 72.3923 31.747C72.3963 31.9163 72.4002 32.0856 72.4043 32.2601C72.4102 33.2533 72.3722 34.0023 71.7691 34.8342C70.8547 35.4768 70.0172 35.502 68.9407 35.4828C68.7823 35.481 68.6239 35.4792 68.4606 35.4773C66.1855 35.423 63.4966 35.2784 61.606 33.8732C61.0477 33.2602 60.865 32.9135 60.7551 32.0953C61.0879 29.236 62.6883 26.3378 64.8951 24.4952C66.1421 23.6883 67.6094 23.5244 68.9991 24.0718Z" fill="#FB9B89"/>
<path d="M43.0058 10.2326C43.717 10.546 44.3482 10.8905 44.7705 11.5585C45.0383 12.2664 45.0303 12.9481 44.9233 13.6922C44.5758 14.3409 44.5758 14.3409 44.1563 14.8454C44.074 14.9492 43.9917 15.053 43.9069 15.16C43.3306 15.6234 42.6944 15.5097 41.9848 15.4918C41.3057 15.3994 40.9555 15.1732 40.5129 14.6532C40.5129 14.5264 40.5129 14.3995 40.5129 14.2688C40.3231 14.2054 40.1333 14.142 39.9377 14.0766C39.9325 13.7002 39.9288 13.3239 39.9257 12.9475C39.9235 12.7378 39.9212 12.5282 39.9189 12.3123C39.9377 11.7702 39.9377 11.7702 40.1294 11.3858C40.256 11.3858 40.3825 11.3858 40.5129 11.3858C40.5644 11.2669 40.6158 11.148 40.6687 11.0255C41.1881 10.0939 42.0486 10.0639 43.0058 10.2326Z" fill="#FDFDFA"/>
<path d="M34.7911 23.3052C35.4553 23.7064 35.8576 23.9909 36.2944 24.6476C36.3319 25.1664 36.3319 25.1664 36.3184 25.7407C36.3149 25.9318 36.3115 26.1228 36.3079 26.3196C36.3034 26.4655 36.299 26.6114 36.2944 26.7618C36.1678 26.7618 36.0413 26.7618 35.9109 26.7618C35.8595 26.8768 35.8081 26.9917 35.7551 27.1102C35.519 27.5461 35.3378 27.7983 34.9521 28.1072C34.0176 28.2548 32.8741 28.2641 32.0758 27.7228C31.4204 26.8528 31.1708 26.1541 31.2211 25.0605C31.4012 24.2122 31.9402 23.735 32.6271 23.2301C33.3975 23.003 34.0499 22.9559 34.7911 23.3052Z" fill="#FDFDFA"/>
<path d="M10.7907 65.0095C10.7907 65.1363 10.7907 65.2632 10.7907 65.3939C10.9628 65.4712 10.9628 65.4712 11.1383 65.55C11.5757 65.7881 11.8243 65.9648 12.133 66.3549C12.289 67.1851 12.3203 68.0766 11.951 68.8505C11.4687 69.4666 10.97 69.8308 10.2154 70.0067C9.31769 70.1082 8.71517 70.1057 7.92635 69.6463C7.37016 69.196 7.2241 68.8252 7.12337 68.1207C7.09859 67.1959 7.18572 66.3599 7.72261 65.5861C8.7232 64.9442 9.62574 64.938 10.7907 65.0095Z" fill="#FDFDF8"/>
<path d="M96.314 26.5696C96.961 26.881 97.519 27.2554 97.8481 27.915C97.9539 28.882 97.9437 29.6346 97.5245 30.5217C97.0423 31.031 96.8113 31.144 96.1222 31.1824C96.1222 31.3092 96.1222 31.4361 96.1222 31.5668C94.4277 31.6531 94.4277 31.6531 93.6294 30.9902C92.9438 30.2319 92.948 29.4079 92.9718 28.4278C93.1009 27.6239 93.4171 27.3021 94.0129 26.7618C94.729 26.4029 95.5344 26.4623 96.314 26.5696Z" fill="#FDFDF9"/>
<path d="M24.0221 11.9624C24.1486 12.0258 24.2752 12.0893 24.4056 12.1546C23.4287 13.4432 23.4287 13.4432 22.7037 13.6802C22.5693 13.6841 22.4348 13.6881 22.2963 13.6922C22.2963 13.819 22.2963 13.9459 22.2963 14.0766C21.2462 15.0376 21.2462 15.0376 20.7622 15.0376C20.6989 15.2279 20.6356 15.4181 20.5704 15.6142C20.3234 15.8788 20.0665 16.1344 19.8034 16.383C19.6808 16.5059 19.5582 16.6288 19.4319 16.7554C19.3014 16.8862 19.1709 17.017 19.0364 17.1518C18.805 17.3896 18.805 17.3896 18.569 17.6323C18.0776 18.1128 18.0776 18.1128 17.5862 18.4852C17.0854 18.8716 17.0854 18.8716 16.7353 19.4702C16.3343 20.0605 16.0389 20.3218 15.393 20.6114C15.2665 20.5479 15.1399 20.4845 15.0095 20.4192C15.253 20.1376 15.4964 19.8561 15.7398 19.5745C16.0083 19.2454 16.0083 19.2454 16.1601 18.6894C16.4604 18.4281 16.4604 18.4281 16.8432 18.1608C17.868 17.4189 18.8136 16.6063 19.7075 15.7103C20.1252 15.2917 20.5501 14.8919 20.9899 14.497C21.1838 14.3227 21.1838 14.3227 21.3817 14.1449C21.721 13.8844 21.721 13.8844 22.1045 13.8844C22.1045 13.7575 22.1045 13.6307 22.1045 13.5C22.4141 13.224 22.7358 12.9616 23.0633 12.7072C23.3302 12.4983 23.3302 12.4983 23.6026 12.2852C23.741 12.1787 23.8794 12.0722 24.0221 11.9624Z" fill="#F6DBA1"/>
<path d="M47.2244 64.625C50.0877 65.168 52.7994 66.5796 54.5544 68.9832C54.7371 69.2567 54.9125 69.5351 55.0864 69.8144C54.1789 69.4438 53.6135 68.7374 52.9531 68.0365C52.5974 67.6571 52.5974 67.6571 52.0183 67.508C52.0183 67.3811 52.0183 67.2543 52.0183 67.1236C51.8917 67.1236 51.7651 67.1236 51.6348 67.1236C51.6348 66.9967 51.6348 66.8699 51.6348 66.7392C51.5319 66.7154 51.4291 66.6916 51.3232 66.6671C50.7788 66.5235 50.2498 66.3446 49.7172 66.1626C49.7172 66.0357 49.7172 65.9089 49.7172 65.7782C49.5076 65.7901 49.298 65.802 49.082 65.8142C48.3749 65.7782 48.3749 65.7782 48.0393 65.5019C47.9602 65.4028 47.8811 65.3037 47.7996 65.2016C47.6098 65.1382 47.42 65.0747 47.2244 65.0094C47.2244 64.8825 47.2244 64.7557 47.2244 64.625Z" fill="#EBCE93"/>
<path d="M52.2102 119.978C55.7259 120.103 59.2414 120.231 62.7568 120.363C62.6302 120.553 62.5037 120.743 62.3733 120.939C61.8721 121.005 61.8721 121.005 61.2452 120.996C61.0215 120.994 60.7978 120.992 60.5673 120.99C60.3327 120.985 60.0982 120.98 59.8565 120.975C59.5024 120.972 59.5024 120.972 59.1411 120.968C58.5566 120.961 57.9721 120.951 57.3876 120.939C57.3876 120.813 57.3876 120.686 57.3876 120.555C54.9197 120.46 54.9197 120.46 52.402 120.363C52.3387 120.236 52.2754 120.109 52.2102 119.978Z" fill="#FEF9E5"/>
<path d="M87.3015 66.547C86.778 67.9002 85.1855 68.77 83.9308 69.3782C82.2551 70.0504 82.2551 70.0504 81.5488 69.8144C81.6635 69.7589 81.7782 69.7034 81.8964 69.6462C82.6297 69.3014 82.6297 69.3014 83.023 68.6372C83.0526 68.4588 83.0526 68.4588 83.0829 68.2768C83.5258 68.3402 83.9688 68.4036 84.4252 68.469C84.5517 68.2787 84.6783 68.0884 84.8087 67.8924C85.3908 67.5229 85.6176 67.508 86.3427 67.508C86.3665 67.3851 86.3902 67.2622 86.4146 67.1356C86.474 66.9394 86.474 66.9394 86.5345 66.7392C86.918 66.547 86.918 66.547 87.3015 66.547Z" fill="#EDCF91"/>
<path d="M67.5505 0.814893C68.5803 0.792058 69.5066 0.857338 70.5228 1.05514C70.7183 1.09321 70.7183 1.09321 70.9179 1.13205C72.3656 1.42136 73.7922 1.78879 75.2208 2.16029C75.7319 2.28936 76.2433 2.41709 76.7548 2.54469C76.7548 2.60811 76.7548 2.67154 76.7548 2.73688C76.4994 2.75289 76.2436 2.76383 75.9878 2.77292C75.7742 2.78296 75.7742 2.78296 75.5564 2.79319C74.9677 2.73034 74.494 2.52555 73.9474 2.30796C73.0557 2.0169 72.1223 1.94251 71.1939 1.83595C70.9905 1.81105 70.787 1.78615 70.5774 1.7605C70.08 1.69986 69.5824 1.64097 69.0846 1.58369C69.0846 1.45684 69.0846 1.32999 69.0846 1.19929C68.5783 1.19929 68.0721 1.19929 67.5505 1.19929C67.5505 1.07244 67.5505 0.945588 67.5505 0.814893Z" fill="#F5D99D"/>
<path d="M51.443 68.6613C51.6328 68.6613 51.8227 68.6613 52.0182 68.6613C52.0182 68.9784 52.0182 69.2955 52.0182 69.6223C52.1448 69.6223 52.2714 69.6223 52.4018 69.6223C52.4018 69.432 52.4018 69.2417 52.4018 69.0457C52.5916 68.9822 52.7814 68.9188 52.977 68.8535C53.0403 69.0437 53.1036 69.234 53.1688 69.4301C53.2953 69.4301 53.4219 69.4301 53.5523 69.4301C53.768 70.1508 53.768 70.1508 53.5523 70.5832C53.4257 70.5832 53.2992 70.5832 53.1688 70.5832C53.2321 70.7101 53.2953 70.837 53.3605 70.9676C53.5504 71.0311 53.7402 71.0945 53.9358 71.1598C53.8725 71.477 53.8092 71.7941 53.7441 72.1208C53.0159 71.245 53.0159 71.245 52.7853 70.7394C52.5384 70.291 52.2794 70.2267 51.8265 70.0066C51.4789 69.6343 51.4789 69.6343 51.2512 69.2379C51.3145 69.0476 51.3778 68.8573 51.443 68.6613Z" fill="#EFCC88"/>
<path d="M60.0722 0.214218C60.5017 0.216151 60.9311 0.217904 61.3606 0.219474C62.4013 0.223662 63.4419 0.230056 64.4826 0.238243C64.4826 0.301669 64.4826 0.365095 64.4826 0.430442C64.2338 0.435258 63.985 0.440074 63.7287 0.445036C62.8092 0.463081 61.8897 0.482352 60.9703 0.502001C60.5717 0.510346 60.173 0.518355 59.7744 0.526026C59.2028 0.537084 58.6311 0.549335 58.0595 0.561829C57.7905 0.566647 57.7905 0.566647 57.516 0.571562C57.3509 0.575396 57.1858 0.579229 57.0158 0.583179C56.7967 0.58766 56.7967 0.58766 56.5732 0.592232C56.2318 0.586853 56.2318 0.586853 56.0453 0.814841C55.7599 0.831503 55.4736 0.835413 55.1877 0.83361C55.0153 0.832991 54.8428 0.832371 54.6652 0.831733C54.4839 0.830123 54.3026 0.828512 54.1158 0.826853C53.9337 0.825986 53.7517 0.825119 53.5641 0.824225C53.1128 0.821952 52.6615 0.818785 52.2102 0.814841C52.2102 0.751415 52.2102 0.687989 52.2102 0.622642C54.833 0.188246 57.4202 0.193279 60.0722 0.214218Z" fill="#FBE1AE"/>
<path d="M102.067 102.873C102.13 103 102.193 103.126 102.259 103.257C100.616 105.163 100.616 105.163 100.149 105.563C99.9593 105.563 99.7695 105.563 99.5739 105.563C99.5304 105.674 99.4869 105.785 99.4421 105.9C99.1174 106.458 98.7721 106.753 98.2316 107.101C97.8167 107.025 97.8167 107.025 97.4646 106.909C97.6793 106.716 97.8953 106.524 98.1118 106.332C98.2319 106.225 98.352 106.118 98.4758 106.008C98.8069 105.756 98.8069 105.756 99.1904 105.756C99.1904 105.629 99.1904 105.502 99.1904 105.371C99.8542 104.795 99.8542 104.795 100.341 104.795C100.392 104.672 100.444 104.549 100.497 104.422C100.724 104.026 100.724 104.026 101.3 103.834C101.363 103.643 101.426 103.453 101.491 103.257C101.681 103.13 101.871 103.003 102.067 102.873Z" fill="#FEF6E0"/>
<path d="M26.0137 92.6973C26.6849 92.9397 26.9788 93.3091 27.4376 93.8513C27.6649 94.1163 27.6649 94.1163 27.8968 94.3866C28.0103 94.5231 28.1237 94.6596 28.2406 94.8003C27.6653 94.9925 27.6653 94.9925 27.2818 94.9925C27.1553 95.1193 27.0287 95.2462 26.8983 95.3769C26.6459 94.6812 26.5148 94.2053 26.5148 93.4549C25.6922 93.5817 24.8695 93.7086 24.022 93.8393C25.463 92.6838 25.463 92.6838 26.0137 92.6973Z" fill="#E8CA8F"/>
<path d="M96.314 26.5695C96.8438 26.8373 97.2037 27.136 97.6563 27.5305C97.5931 27.6574 97.5298 27.7842 97.4646 27.9149C97.2747 27.8515 97.0849 27.7881 96.8893 27.7227C96.826 27.5959 96.7627 27.469 96.6976 27.3383C96.1404 27.1301 95.7446 26.9891 95.1635 26.9539C94.3087 27.3581 93.8193 27.8182 93.4377 28.6837C93.2998 29.3939 93.2998 29.3939 93.2459 30.0291C93.1827 30.0291 93.1194 30.0291 93.0542 30.0291C92.8891 27.9623 92.8891 27.9623 93.5096 27.2182C94.3763 26.4322 95.176 26.4097 96.314 26.5695Z" fill="#FEF8E1"/>
<path d="M34.3769 23.11C35.1988 23.4989 35.7874 23.8852 36.2945 24.6476C36.3319 25.1664 36.3319 25.1664 36.3184 25.7408C36.315 25.9318 36.3115 26.1228 36.3079 26.3196C36.3035 26.4655 36.299 26.6115 36.2945 26.7618C36.1679 26.7618 36.0413 26.7618 35.9109 26.7618C35.7844 27.0155 35.6578 27.2692 35.5274 27.5306C35.4642 27.3403 35.4009 27.1501 35.3357 26.954C35.4622 26.8272 35.5888 26.7003 35.7192 26.5696C35.7658 26.0565 35.7658 26.0565 35.7432 25.4885C35.7397 25.2957 35.7362 25.103 35.7327 24.9044C35.7282 24.7562 35.7238 24.6081 35.7192 24.4554C35.5926 24.4554 35.4661 24.4554 35.3357 24.4554C35.3357 24.3286 35.3357 24.2017 35.3357 24.071C34.669 23.6591 34.1444 23.6457 33.3702 23.6626C33.0602 23.6678 33.0602 23.6678 32.744 23.6731C32.5868 23.6776 32.4296 23.682 32.2676 23.6866C33.0066 23.0811 33.4097 22.9808 34.3769 23.11Z" fill="#FEF6D9"/>
<path d="M93.054 27.5305C93.3629 28.1498 93.2382 28.8047 93.215 29.4863C93.2481 30.0715 93.3652 30.4691 93.6292 30.9901C94.3965 31.4425 95.2514 31.478 96.1221 31.5667C96.1221 31.4398 96.1221 31.313 96.1221 31.1823C96.565 30.992 97.008 30.8017 97.4644 30.6057C97.4284 30.9661 97.4284 30.9661 97.2726 31.3745C96.4853 31.7985 95.7932 31.7994 94.9116 31.7829C94.6711 31.7795 94.4306 31.776 94.1828 31.7724C94.0001 31.768 93.8175 31.7635 93.6292 31.7589C93.544 31.5842 93.544 31.5842 93.457 31.406C93.2418 30.9681 93.2418 30.9681 92.9341 30.4856C92.5873 29.6324 92.5444 28.8274 92.6705 27.9149C92.797 27.7881 92.9236 27.6612 93.054 27.5305Z" fill="#F6DAA4"/>
<path d="M14.0505 84.0371C14.6258 84.2293 14.6258 84.2293 15.0093 84.8059C16.0869 84.9866 17.0648 84.7991 18.0774 84.4215C18.6287 84.3975 18.6287 84.3975 19.0362 84.4215C19.0362 84.5484 19.0362 84.6752 19.0362 84.8059C18.9183 84.8292 18.8004 84.8525 18.6789 84.8765C18.5239 84.9087 18.3689 84.9409 18.2092 84.9741C18.0557 85.0053 17.9022 85.0365 17.7441 85.0687C17.2619 85.1797 17.2619 85.1797 16.7351 85.5747C16.3014 85.6543 16.3014 85.6543 15.8363 85.6948C15.6813 85.7092 15.5263 85.7236 15.3666 85.7384C15.1898 85.7525 15.1898 85.7525 15.0093 85.7669C15.0726 85.6401 15.1359 85.5132 15.2011 85.3825C15.0824 85.3627 14.9638 85.3429 14.8415 85.3224C14.434 85.1903 14.434 85.1903 14.0505 84.6137C14.0505 84.4234 14.0505 84.2332 14.0505 84.0371Z" fill="#E7C98C"/>
<path d="M21.1456 84.0371C21.3942 84.5252 21.6418 85.0137 21.8886 85.5027C21.9936 85.7082 21.9936 85.7082 22.1006 85.9178C22.4879 86.6871 22.8154 87.437 23.0631 88.2655C22.8733 88.2021 22.6835 88.1387 22.4879 88.0733C22.4246 87.883 22.3613 87.6928 22.2961 87.4967C22.1696 87.4333 22.043 87.3699 21.9126 87.3045C21.9126 86.9874 21.9126 86.6703 21.9126 86.3435C21.7228 86.2801 21.5329 86.2167 21.3373 86.1513C21.0658 85.592 20.8965 85.0276 20.7621 84.4215C20.2558 84.4215 19.7496 84.4215 19.228 84.4215C19.228 84.3581 19.228 84.2947 19.228 84.2293C19.8829 84.0793 20.4752 84.0281 21.1456 84.0371Z" fill="#DDC28A"/>
<path d="M18.0777 65.3938C18.1409 65.3938 18.2042 65.3938 18.2694 65.3938C18.2789 66.2353 18.2859 67.0768 18.2905 67.9183C18.2924 68.2047 18.295 68.491 18.2983 68.7774C18.303 69.1886 18.3052 69.5998 18.3069 70.0111C18.3089 70.2587 18.3109 70.5063 18.313 70.7614C18.2694 71.352 18.2694 71.352 17.8859 71.7364C17.8489 70.9568 17.8147 70.1771 17.7829 69.3972C17.7717 69.1321 17.7598 68.867 17.7471 68.602C17.729 68.2204 17.7138 67.8387 17.6986 67.4569C17.6886 67.2275 17.6786 66.998 17.6682 66.7615C17.6934 66.1805 17.771 65.8784 18.0777 65.3938Z" fill="#EED095"/>
<path d="M90.5613 56.1682C91.3288 57.3222 91.0124 59.0103 90.801 60.3365C90.5917 61.3701 90.2225 62.319 89.7942 63.2796C89.5057 62.412 89.7764 61.779 90.0819 60.9492C90.5608 59.413 90.5139 57.7643 90.5613 56.1682Z" fill="#E2C791"/>
<path d="M102.834 45.0208C103.34 45.0208 103.846 45.0208 104.368 45.0208C103.888 45.549 103.349 45.9108 102.75 46.2941C102.568 46.4115 102.386 46.5289 102.199 46.6499C101.754 46.9026 101.415 47.0475 100.916 47.1349C100.726 46.7544 100.536 46.3738 100.341 45.9817C100.847 46.1086 101.353 46.2355 101.875 46.3661C101.938 46.049 102.001 45.7319 102.067 45.4052C102.32 45.4052 102.573 45.4052 102.834 45.4052C102.834 45.2783 102.834 45.1514 102.834 45.0208Z" fill="#EDCE8E"/>
<path d="M13.8588 43.2909C13.9854 43.3543 14.112 43.4177 14.2424 43.4831C14.2216 43.6585 14.2216 43.6585 14.2004 43.8375C13.979 45.9335 13.8246 48.1287 14.3502 50.1883C14.446 50.6522 14.4473 51.083 14.4341 51.5555C14.0662 51.2458 13.8785 51.0586 13.7616 50.5849C13.6677 49.2897 13.6383 48.001 13.6431 46.7024C13.6424 46.5008 13.6416 46.2991 13.6409 46.0913C13.6421 45.1372 13.6557 44.2281 13.8588 43.2909Z" fill="#E9CF92"/>
<path d="M39.9377 11.7703C40.001 11.7703 40.0643 11.7703 40.1295 11.7703C40.1295 12.4045 40.1295 13.0388 40.1295 13.6923C40.3193 13.7557 40.5092 13.8191 40.7048 13.8845C40.776 14.047 40.8471 14.2095 40.9205 14.377C41.2243 14.8797 41.2243 14.8797 41.6733 14.922C42.3208 14.9327 42.8249 14.9397 43.4081 14.636C43.7729 14.4611 43.7729 14.4611 44.3481 14.6533C44.0965 15.0377 44.0965 15.0377 43.5811 15.422C42.5742 15.5835 41.7479 15.5848 40.8606 15.0617C40.513 14.6533 40.513 14.6533 40.513 14.2689C40.3232 14.2054 40.1333 14.142 39.9377 14.0767C39.9377 13.3155 39.9377 12.5544 39.9377 11.7703Z" fill="#FEF5D9"/>
<path d="M52.0184 82.1151C52.3147 82.709 52.1304 83.2052 52.0184 83.8449C51.9551 84.0352 51.8918 84.2255 51.8266 84.4215C51.7001 84.3581 51.5735 84.2947 51.4431 84.2293C50.9944 84.2836 50.5467 84.347 50.1008 84.4215C50.1008 84.1678 50.1008 83.9141 50.1008 83.6527C50.4229 83.3389 50.4229 83.3389 50.8439 83.0521C51.275 82.7532 51.6468 82.4876 52.0184 82.1151Z" fill="#F3D18E"/>
<path d="M43.0057 10.2327C43.5663 10.4893 44.0757 10.7854 44.5398 11.1937C44.5398 11.3205 44.5398 11.4474 44.5398 11.5781C43.581 11.1937 43.581 11.1937 43.1136 10.9654C42.4792 10.7638 42.1074 10.8117 41.4717 11.0015C41.2086 11.2501 40.9517 11.5056 40.7047 11.7703C40.5148 11.7703 40.325 11.7703 40.1294 11.7703C40.1294 11.6434 40.1294 11.5166 40.1294 11.3859C40.256 11.3859 40.3825 11.3859 40.5129 11.3859C40.5643 11.2669 40.6157 11.148 40.6687 11.0255C41.1872 10.0955 42.0495 10.0613 43.0057 10.2327Z" fill="#FDF2D8"/>
<path d="M17.3106 81.7307C16.8044 81.921 16.2981 82.1113 15.7766 82.3073C15.7766 82.4341 15.7766 82.561 15.7766 82.6917C15.5867 82.7551 15.3969 82.8185 15.2013 82.8839C14.8737 83.4605 14.8737 83.4605 14.626 84.0371C14.7526 84.1005 14.8791 84.1639 15.0095 84.2293C14.9462 84.4196 14.883 84.6098 14.8178 84.8059C14.7545 84.6156 14.6912 84.4253 14.626 84.2293C14.4995 84.2293 14.3729 84.2293 14.2425 84.2293C14.1792 83.5468 14.1932 83.1645 14.5301 82.5596C15.3835 81.7684 16.1752 81.4462 17.3106 81.7307Z" fill="#2B1D0E"/>
<path d="M95.5231 26.1372C95.819 26.1357 95.819 26.1357 96.1209 26.1342C96.7046 26.1858 97.1278 26.3233 97.6564 26.5696C97.7197 27.0136 97.783 27.4576 97.8482 27.915C97.7597 27.8318 97.6712 27.7485 97.58 27.6627C96.6548 26.871 96.0335 26.6394 94.8183 26.7025C94.3638 26.7534 94.3638 26.7534 93.8213 26.954C93.8213 26.8272 93.8213 26.7003 93.8213 26.5696C94.4808 26.1289 94.7466 26.1333 95.5231 26.1372Z" fill="#F8D9A2"/>
<path d="M14.4341 21.188C14.5899 21.5123 14.5899 21.5123 14.6259 21.9568C14.1824 22.4853 14.1824 22.4853 13.6671 22.9178C13.5405 22.9178 13.414 22.9178 13.2836 22.9178C13.2717 23.0605 13.2598 23.2032 13.2476 23.3502C13.0454 24.0361 12.7085 24.2483 12.133 24.6476C12.0065 24.5841 11.8799 24.5207 11.7495 24.4554C12.4121 23.2053 13.4212 22.1627 14.4341 21.188Z" fill="#F6DA9F"/>
<path d="M43.8619 10.2282C44.8526 10.8136 44.8526 10.8136 45.0589 11.3619C45.1203 11.8081 45.1337 12.2328 45.1271 12.6832C45.1253 12.8368 45.1236 12.9905 45.1218 13.1487C45.1196 13.2647 45.1174 13.3806 45.1151 13.5001C45.0518 13.5001 44.9885 13.5001 44.9233 13.5001C44.9068 13.338 44.8902 13.176 44.8731 13.0091C44.8462 12.7985 44.8193 12.5879 44.7915 12.3709C44.767 12.1613 44.7426 11.9517 44.7173 11.7358C44.5968 11.1556 44.5968 11.1556 44.0807 10.9519C43.8333 10.8813 43.8333 10.8813 43.581 10.8093C43.3912 10.6824 43.2014 10.5556 43.0058 10.4249C41.9652 10.3408 41.3743 10.354 40.5129 11.0015C40.5729 10.6291 40.5729 10.6291 40.7047 10.2327C41.7234 9.89235 42.8518 9.82707 43.8619 10.2282Z" fill="#F6D99E"/>
<path d="M32.0756 23.6865C32.3387 24.3986 32.16 24.7326 31.8839 25.4163C31.788 26.001 31.788 26.001 31.8839 26.5695C32.2554 26.99 32.2554 26.99 32.6509 27.3383C32.6509 27.5286 32.6509 27.7189 32.6509 27.9149C32.0879 27.7203 31.8886 27.5375 31.5483 27.038C31.25 26.2159 31.1579 25.5127 31.3086 24.6475C31.6921 24.0589 31.6921 24.0589 32.0756 23.6865Z" fill="#FEF5DA"/>
<path d="M58.9215 16.3831C59.1372 16.7194 59.1372 16.7194 59.305 17.1519C59.0445 17.873 58.5467 18.3724 58.0346 18.9297C57.8779 19.1011 57.7212 19.2726 57.5597 19.4492C57.4396 19.5791 57.3195 19.7089 57.1957 19.8426C56.9729 19.1727 57.0275 19.0792 57.3275 18.4732C57.4235 18.2703 57.4235 18.2703 57.5215 18.0633C57.8341 17.6437 58.044 17.6513 58.538 17.5363C58.7881 16.9604 58.7881 16.9604 58.9215 16.3831Z" fill="#EFCF8E"/>
<path d="M117.982 74.6194C118.046 74.6194 118.109 74.6194 118.174 74.6194C118.209 75.6343 118.15 76.3503 117.791 77.3102C117.733 77.562 117.677 77.8143 117.623 78.067C117.43 78.8743 117.078 79.4915 116.64 80.1932C116.409 79.4992 116.504 79.3632 116.772 78.7036C117.285 77.3692 117.632 76.0033 117.982 74.6194Z" fill="#FEF5D9"/>
<path d="M73.6867 118.825C73.6867 118.952 73.6867 119.079 73.6867 119.21C72.8251 119.537 72.0645 119.656 71.146 119.702C70.2757 119.718 70.2757 119.718 69.4681 119.978C69.1408 119.992 68.8129 119.995 68.4853 119.99C68.3108 119.989 68.1363 119.987 67.9565 119.985C67.8225 119.983 67.6886 119.981 67.5505 119.978C67.5505 119.915 67.5505 119.852 67.5505 119.786C67.7536 119.753 67.7536 119.753 67.9608 119.719C68.5752 119.617 69.1894 119.516 69.8037 119.414C70.1233 119.361 70.1233 119.361 70.4494 119.308C70.7571 119.256 70.7571 119.256 71.0711 119.204C71.3542 119.158 71.3542 119.158 71.6431 119.11C72.1377 119.027 72.1377 119.027 72.5559 118.91C72.9197 118.825 72.9197 118.825 73.6867 118.825Z" fill="#FEF5DE"/>
<path d="M52.2102 0.814836C51.618 1.154 51.3984 1.19923 50.6761 1.19923C50.6761 1.32609 50.6761 1.45294 50.6761 1.58363C50.1969 1.64892 49.7175 1.71277 49.238 1.77583C49.1045 1.79417 48.971 1.8125 48.8335 1.83139C47.9058 1.95192 47.0094 1.98493 46.074 1.96803C46.6605 1.63999 47.1865 1.49211 47.847 1.37792C48.0392 1.34447 48.2313 1.31103 48.4294 1.27656C48.629 1.24312 48.8286 1.20967 49.0342 1.17521C49.2331 1.14028 49.4319 1.10534 49.6368 1.06935C50.5065 0.920424 51.3256 0.79423 52.2102 0.814836Z" fill="#F5D89A"/>
<path d="M36.8697 77.5023C37.158 78.0597 37.3983 78.6229 37.6248 79.2081C37.9145 79.9434 38.2283 80.6469 38.5955 81.3463C38.2791 81.4097 37.9627 81.4732 37.6367 81.5385C36.7561 78.9537 36.7561 78.9537 36.8697 77.5023Z" fill="#E4C78C"/>
<path d="M33.418 22.9177C35.2043 22.857 35.2043 22.857 35.9108 23.3021C36.4565 24.1857 36.5511 24.8426 36.522 25.8728C36.5168 26.1121 36.5116 26.3515 36.5063 26.598C36.4996 26.7789 36.4929 26.9598 36.4861 27.1461C36.2962 27.1461 36.1064 27.1461 35.9108 27.1461C35.9108 27.0193 35.9108 26.8924 35.9108 26.7617C36.0374 26.7617 36.1639 26.7617 36.2943 26.7617C36.2775 26.4252 36.2568 26.0889 36.2344 25.7527C36.2233 25.5654 36.2121 25.3781 36.2007 25.1851C36.0916 24.5876 35.9384 24.3183 35.5273 23.8787C34.8346 23.4712 34.2122 23.227 33.418 23.1099C33.418 23.0465 33.418 22.9831 33.418 22.9177Z" fill="#F8DAA4"/>
<path d="M48.9862 0.995107C49.159 0.996842 49.3318 0.998576 49.5098 1.00036C49.6415 1.00259 49.7733 1.00482 49.909 1.00712C49.3672 1.30285 48.88 1.47219 48.2754 1.59047C48.1109 1.62305 47.9464 1.65563 47.7769 1.6892C47.5212 1.73807 47.5212 1.73807 47.2604 1.78793C47.0081 1.83791 47.0081 1.83791 46.7507 1.88891C45.8245 2.07013 44.9001 2.22843 43.9646 2.35251C44.478 1.65469 45.1755 1.59842 45.978 1.46359C48.6154 0.990281 48.6154 0.990281 48.9862 0.995107Z" fill="#FEF4DB"/>
<path d="M75.2208 50.5945C75.3473 50.6579 75.4739 50.7213 75.6043 50.7867C75.2944 51.179 74.9743 51.5633 74.6455 51.9399C74.519 51.9399 74.3924 51.9399 74.262 51.9399C73.9844 52.2182 73.709 52.4988 73.4351 52.7807C72.9644 53.2415 72.4813 53.6517 71.9609 54.0541C72.5006 52.4726 73.8748 51.4939 75.2208 50.5945Z" fill="#25170A"/>
<path d="M7.53087 65.2017C7.78399 65.2651 8.0371 65.3285 8.29789 65.3939C8.10805 65.4573 7.91821 65.5207 7.72262 65.5861C7.37155 66.6417 7.29967 67.5544 7.33911 68.6612C7.14927 68.6612 6.95943 68.6612 6.76384 68.6612C6.75868 68.2849 6.75495 67.9085 6.75186 67.5321C6.74963 67.3225 6.74741 67.1129 6.74512 66.8969C6.76384 66.3549 6.76384 66.3549 6.9556 65.9705C7.08216 65.9705 7.20872 65.9705 7.33911 65.9705C7.40239 65.7168 7.46567 65.4631 7.53087 65.2017Z" fill="#F5DA9B"/>
<path d="M11.1743 65.5861C11.6537 65.8383 11.6537 65.8383 12.1331 66.3549C12.299 67.1863 12.3753 68.0773 11.9159 68.8204C11.6537 69.0817 11.6537 69.0817 11.1743 69.43C11.2376 69.0495 11.3009 68.6689 11.3661 68.2768C11.4926 68.2768 11.6192 68.2768 11.7496 68.2768C11.7081 68.1148 11.6665 67.9528 11.6237 67.7858C11.5704 67.5752 11.517 67.3647 11.462 67.1477C11.4086 66.9381 11.3552 66.7285 11.3002 66.5125C11.1743 65.9705 11.1743 65.9705 11.1743 65.5861Z" fill="#FEF7E0"/>
<path d="M103.025 49.6334C103.089 49.6334 103.152 49.6334 103.217 49.6334C103.3 49.9069 103.3 49.9069 103.385 50.186C103.556 50.7966 103.556 50.7966 103.984 51.171C104.036 51.6877 104.001 52.188 103.984 52.7086C103.858 52.772 103.731 52.8355 103.601 52.9008C103.429 52.5019 103.262 52.1011 103.097 51.6996C103.004 51.4766 102.91 51.2536 102.814 51.0239C102.642 50.4022 102.642 50.4022 102.805 49.9367C102.878 49.8366 102.951 49.7365 103.025 49.6334Z" fill="#E9CD93"/>
<path d="M103.217 73.4662C103.281 73.4662 103.344 73.4662 103.409 73.4662C103.479 74.4493 103.238 75.195 102.858 76.0849C102.806 76.2108 102.754 76.3366 102.701 76.4663C102.447 77.0795 102.182 77.6828 101.875 78.2712C101.748 78.2712 101.622 78.2712 101.491 78.2712C102.012 76.6487 102.615 75.0593 103.217 73.4662Z" fill="#DCC28B"/>
<path d="M38.212 67.1237C38.212 67.3139 38.212 67.5042 38.212 67.7003C38.0854 67.8271 37.9589 67.954 37.8285 68.0847C38.0183 68.2749 38.2082 68.4652 38.4038 68.6613C38.3405 68.8515 38.2772 69.0418 38.212 69.2378C38.0222 69.2378 37.8323 69.2378 37.6367 69.2378C37.6367 69.111 37.6367 68.9841 37.6367 68.8535C37.0098 68.9618 36.7114 69.1417 36.2944 69.6222C36.2944 68.849 36.5484 68.6531 37.0615 68.0847C37.4353 67.7493 37.819 67.437 38.212 67.1237Z" fill="#F7D494"/>
<path d="M61.0309 30.4136C61.2208 30.4136 61.4106 30.4136 61.6062 30.4136C61.5647 30.6157 61.5647 30.6157 61.5223 30.822C61.4116 31.3891 61.3153 31.9575 61.2227 32.5278C61.3492 32.5912 61.4758 32.6546 61.6062 32.72C61.6062 32.8468 61.6062 32.9737 61.6062 33.1044C61.7327 33.1678 61.8593 33.2312 61.9897 33.2966C61.9897 33.4234 61.9897 33.5503 61.9897 33.681C62.1163 33.7444 62.2428 33.8078 62.3732 33.8732C62.1834 33.9366 61.9935 34 61.7979 34.0654C60.9937 33.0772 60.7955 32.6648 60.8392 31.3746C60.8938 31.0525 60.9541 30.7311 61.0309 30.4136Z" fill="#DF958A"/>
<path d="M43.1976 32.72C43.1976 32.8468 43.1976 32.9737 43.1976 33.1044C42.8788 33.298 42.559 33.4898 42.2388 33.681C42.0211 33.879 41.8054 34.0794 41.5916 34.2816C40.9192 34.88 40.4432 34.99 39.5542 35.0264C40.3579 34.077 41.9199 32.72 43.1976 32.72Z" fill="#1D1208"/>
<path d="M28.2405 94.9924C29.2053 95.8185 30.1633 96.6519 31.1168 97.491C30.5416 97.6832 30.5416 97.6832 29.9663 97.491C29.8397 97.3007 29.7132 97.1105 29.5828 96.9144C29.3929 96.851 29.2031 96.7876 29.0075 96.7222C29.0075 96.5319 29.0075 96.3417 29.0075 96.1456C28.8809 96.1456 28.7544 96.1456 28.624 96.1456C28.4974 95.7651 28.3709 95.3845 28.2405 94.9924Z" fill="#E8CE90"/>
<path d="M71.5775 34.0653C71.7673 34.1287 71.9572 34.1922 72.1528 34.2575C71.5642 34.8896 71.0802 35.3629 70.1972 35.4543C70.0486 35.4523 69.8999 35.4503 69.7468 35.4482C69.504 35.4464 69.504 35.4464 69.2562 35.4445C69.0888 35.4413 68.9215 35.438 68.7491 35.4347C68.4936 35.4321 68.4936 35.4321 68.233 35.4295C67.8137 35.425 67.3946 35.4186 66.9753 35.4107C66.9753 35.3473 66.9753 35.2839 66.9753 35.2185C68.4941 35.1234 68.4941 35.1234 70.0434 35.0263C70.0434 34.9629 70.0434 34.8995 70.0434 34.8341C70.2254 34.7786 70.4073 34.7231 70.5947 34.6659C71.204 34.4942 71.204 34.4942 71.5775 34.0653Z" fill="#C08479"/>
<path d="M107.414 54.4429C107.684 54.4578 107.684 54.4578 107.959 54.4729C108.146 54.4853 108.334 54.4977 108.527 54.5105C108.716 54.5214 108.905 54.5323 109.101 54.5435C109.569 54.5707 110.036 54.5998 110.504 54.6306C110.567 54.7575 110.631 54.8843 110.696 55.015C109.977 55.2312 109.977 55.2312 109.545 55.015C108.387 54.9315 107.242 55.0611 106.094 55.2072C106.03 55.0804 105.967 54.9535 105.902 54.8228C106.538 54.3974 106.683 54.3985 107.414 54.4429Z" fill="#E9CD90"/>
<path d="M22.4878 105.371C22.6777 105.371 22.8675 105.371 23.0631 105.371C23.0631 105.625 23.0631 105.879 23.0631 106.14C22.8733 106.235 22.8733 106.235 22.6796 106.332C22.6149 106.933 22.6149 106.933 23.0631 107.329C23.1897 107.444 23.3162 107.559 23.4466 107.678C22.7584 107.678 22.6588 107.55 22.1642 107.101C22.0449 106.994 21.9255 106.887 21.8025 106.777C21.7122 106.693 21.622 106.61 21.5291 106.524C21.7189 106.398 21.9087 106.271 22.1043 106.14C22.333 105.746 22.333 105.746 22.4878 105.371Z" fill="#FDD292"/>
<path d="M79.5114 100.146C79.6142 100.221 79.7171 100.296 79.823 100.374C79.6965 100.628 79.5699 100.881 79.4395 101.143C78.6801 101.143 77.9208 101.143 77.1384 101.143C78.7926 99.8993 78.7926 99.8993 79.5114 100.146Z" fill="#E6C986"/>
<path d="M88.8354 35.4108C89.423 35.3617 89.7237 35.3687 90.2377 35.675C90.3444 35.7781 90.4512 35.8812 90.5613 35.9874C90.5613 36.1142 90.5613 36.2411 90.5613 36.3718C90.8144 36.3718 91.0675 36.3718 91.3283 36.3718C91.7358 36.7321 91.7358 36.7321 92.0953 37.1406C92.2219 37.2674 92.3484 37.3943 92.4788 37.5249C91.7237 37.5249 91.2745 37.1839 90.6571 36.7922C90.5457 36.7237 90.4342 36.6552 90.3193 36.5846C89.7667 36.2392 89.2681 35.9017 88.8354 35.4108Z" fill="#E5CB94"/>
<path d="M64.8661 105.179C64.9294 105.369 64.9926 105.56 65.0578 105.756C64.7386 105.822 64.4189 105.885 64.0991 105.948C63.9092 105.991 63.7194 106.035 63.5238 106.08C62.8855 106.147 62.5569 106.04 61.9897 105.756C61.9897 105.692 61.9897 105.629 61.9897 105.563C62.3612 105.499 62.7327 105.435 63.1043 105.371C63.4147 105.318 63.4147 105.318 63.7313 105.263C64.2908 105.179 64.2908 105.179 64.8661 105.179Z" fill="#E8C989"/>
<path d="M106.477 97.8755C106.477 98.517 106.371 98.6945 106.034 99.2209C105.951 99.3517 105.869 99.4825 105.784 99.6173C105.527 99.9774 105.278 100.278 104.943 100.566C104.816 100.566 104.69 100.566 104.56 100.566C104.496 100.757 104.433 100.947 104.368 101.143C104.178 101.079 103.988 101.016 103.792 100.951C103.982 100.887 104.172 100.824 104.368 100.758C104.501 100.505 104.628 100.248 104.751 99.9897C105.04 99.6158 105.336 99.2477 105.638 98.8845C105.795 98.6952 105.952 98.506 106.113 98.3109C106.233 98.1672 106.353 98.0235 106.477 97.8755Z" fill="#FEF4DC"/>
<path d="M23.8302 93.8394C24.02 93.9662 24.2098 94.0931 24.4054 94.2238C24.4054 94.3506 24.4054 94.4775 24.4054 94.6082C24.1351 94.743 23.8631 94.8745 23.5905 95.0046C23.4392 95.0781 23.2879 95.1517 23.132 95.2275C22.6796 95.3769 22.6796 95.3769 21.9126 95.1847C22.5454 94.7408 23.1782 94.2968 23.8302 93.8394Z" fill="#EACC8B"/>
<path d="M104.943 65.7782C105.006 65.7782 105.07 65.7782 105.135 65.7782C105.418 67.2634 105.296 68.5875 104.751 70.0066C104.625 70.0066 104.498 70.0066 104.368 70.0066C104.558 68.6112 104.747 67.2158 104.943 65.7782Z" fill="#DDC48A"/>
<path d="M73.8786 68.0846C73.8786 68.2749 73.8786 68.4651 73.8786 68.6612C74.0566 68.681 74.2345 68.7008 74.4179 68.7213C75.0354 68.8547 75.2258 68.9451 75.6044 69.43C75.1151 69.6088 74.8872 69.6386 74.385 69.4728C74.2337 69.3992 74.0824 69.3256 73.9265 69.2498C73.7733 69.1767 73.62 69.1036 73.4621 69.0283C73.3464 68.9706 73.2308 68.9129 73.1116 68.8534C73.1116 68.6631 73.1116 68.4728 73.1116 68.2768C73.4951 68.0846 73.4951 68.0846 73.8786 68.0846Z" fill="#E9CB8E"/>
<path d="M20.9539 14.0767C21.1437 14.1401 21.3335 14.2035 21.5291 14.2689C21.2505 14.5263 20.9707 14.7823 20.6902 15.0377C20.4566 15.2517 20.4566 15.2517 20.2183 15.4701C19.8033 15.8065 19.8033 15.8065 19.4198 15.8065C19.2933 16.0602 19.1667 16.3139 19.0363 16.5753C18.9098 16.5753 18.7832 16.5753 18.6528 16.5753C18.5262 16.829 18.3997 17.0827 18.2693 17.344C18.2693 16.7674 18.2693 16.7674 18.6528 16.1909C18.7794 16.1909 18.9059 16.1909 19.0363 16.1909C19.0363 16.0006 19.0363 15.8103 19.0363 15.6143C19.2261 15.5508 19.416 15.4874 19.6116 15.4221C19.7421 15.2912 19.8726 15.1604 20.0071 15.0256C20.1297 14.9028 20.2523 14.7799 20.3786 14.6533C20.5052 14.6533 20.6317 14.6533 20.7621 14.6533C20.8254 14.463 20.8887 14.2727 20.9539 14.0767Z" fill="#FEF7DB"/>
<path d="M37.2532 78.6555C37.8284 78.8477 37.8284 78.8477 38.152 79.4964C38.4037 80.1931 38.4037 80.1931 38.4037 80.7697C38.5935 80.8331 38.7834 80.8966 38.979 80.9619C39.3026 81.2622 39.3026 81.2622 39.5542 81.5385C39.491 81.7288 39.4277 81.9191 39.3625 82.1151C38.3732 81.2693 37.8016 80.2131 37.2532 79.0399C37.2532 78.9131 37.2532 78.7862 37.2532 78.6555Z" fill="#211408"/>
<path d="M85.7673 52.9009C86.3368 52.996 86.3368 52.996 86.9179 53.0931C87.1077 53.7908 87.2975 54.4884 87.4931 55.2073C87.3666 55.3341 87.24 55.461 87.1096 55.5917C86.6622 54.6947 86.2148 53.7978 85.7673 52.9009Z" fill="#EBCC8D"/>
<path d="M52.9771 69.6222C53.2302 69.749 53.4834 69.8759 53.7441 70.0066C53.6809 70.1969 53.6176 70.3871 53.5524 70.5832C53.4258 70.5832 53.2993 70.5832 53.1689 70.5832C53.2322 70.71 53.2954 70.8369 53.3606 70.9676C53.5505 71.031 53.7403 71.0944 53.9359 71.1598C53.8726 71.4769 53.8093 71.794 53.7441 72.1208C53.2865 71.5513 52.8361 70.9786 52.4019 70.391C52.5936 70.0066 52.5936 70.0066 52.9771 69.6222Z" fill="#F0D292"/>
<path d="M110.12 57.7058C110.12 57.8327 110.12 57.9595 110.12 58.0902C108.628 58.4476 107.247 58.7465 105.71 58.6668C106.461 58.2037 107.276 58.1111 108.131 57.9701C108.28 57.9443 108.428 57.9186 108.582 57.892C109.674 57.7058 109.674 57.7058 110.12 57.7058Z" fill="#CDB37F"/>
<path d="M25.3643 53.4774C25.4908 53.4774 25.6174 53.4774 25.7478 53.4774C25.7478 53.6043 25.7478 53.7311 25.7478 53.8618C25.9376 53.9252 26.1274 53.9887 26.323 54.054C26.323 54.1809 26.323 54.3077 26.323 54.4384C26.4496 54.4384 26.5762 54.4384 26.7066 54.4384C26.7066 54.6287 26.7066 54.819 26.7066 55.015C27.0229 55.0784 27.3393 55.1419 27.6653 55.2072C27.6021 55.4609 27.5388 55.7146 27.4736 55.976C26.6854 55.3303 25.9498 54.7069 25.3643 53.8618C25.3643 53.735 25.3643 53.6081 25.3643 53.4774Z" fill="#EA9A8F"/>
<path d="M69.0847 24.2632C70.2579 24.8792 70.8078 25.7765 71.3858 26.954C71.5139 27.3984 71.5139 27.3984 71.5775 27.7228C71.3877 27.7862 71.1979 27.8496 71.0023 27.915C70.9533 27.7169 70.9533 27.7169 70.9034 27.5148C70.8569 27.3416 70.8105 27.1684 70.7626 26.99C70.7181 26.8183 70.6736 26.6466 70.6278 26.4697C70.3945 25.9157 70.1367 25.7609 69.66 25.4164C69.66 25.2261 69.66 25.0358 69.66 24.8398C69.4701 24.7764 69.2803 24.7129 69.0847 24.6476C69.0847 24.5207 69.0847 24.3939 69.0847 24.2632Z" fill="#D8958B"/>
<path d="M32.8428 6.58081C32.9694 6.64424 33.0959 6.70766 33.2263 6.77301C32.5138 7.58105 31.9048 7.94123 30.8893 8.28658C30.6533 8.36933 30.4172 8.45208 30.174 8.53734C29.583 8.695 29.583 8.695 29.1995 8.5028C29.4143 8.39627 29.6291 8.28973 29.8504 8.17997C30.1328 8.03934 30.4152 7.8987 30.6976 7.75803C30.8391 7.68792 30.9806 7.6178 31.1264 7.54556C31.263 7.47743 31.3995 7.40929 31.5402 7.3391C31.6658 7.27669 31.7913 7.21429 31.9206 7.14999C32.3148 6.94742 32.3148 6.94742 32.8428 6.58081Z" fill="#F8DAA3"/>
<path d="M91.52 91.3407C91.5833 91.5944 91.6466 91.8481 91.7118 92.1095C91.5852 92.1095 91.4586 92.1095 91.3282 92.1095C91.2808 92.2284 91.2333 92.3473 91.1844 92.4699C90.9052 92.9457 90.6805 93.0611 90.1777 93.2627C90.1777 93.3895 90.1777 93.5164 90.1777 93.6471C90.0511 93.5837 89.9246 93.5202 89.7942 93.4549C89.8971 92.7147 90.1999 92.4328 90.765 91.9653C90.9056 91.8474 91.0463 91.7295 91.1912 91.608C91.2997 91.5198 91.4082 91.4316 91.52 91.3407Z" fill="#EDD08F"/>
<path d="M88.2602 113.251C88.2602 113.378 88.2602 113.505 88.2602 113.636C87.9873 113.66 87.9873 113.66 87.7089 113.684C87.4123 113.755 87.4123 113.755 87.1097 113.828C86.9786 114.083 86.8509 114.339 86.7262 114.597C85.9955 114.931 85.5689 115.018 84.8086 114.789C85.0515 114.66 85.2954 114.532 85.5397 114.405C85.6754 114.333 85.8111 114.262 85.9509 114.188C86.3426 114.02 86.3426 114.02 86.9179 114.02C86.9179 113.893 86.9179 113.767 86.9179 113.636C87.8288 113.251 87.8288 113.251 88.2602 113.251Z" fill="#FDF3D6"/>
<path d="M111.271 90.3798C111.398 90.4432 111.524 90.5066 111.655 90.572C111.212 91.3965 110.769 92.221 110.312 93.0705C110.186 93.0705 110.059 93.0705 109.929 93.0705C109.802 93.3877 109.676 93.7048 109.545 94.0315C109.354 93.4549 109.354 93.4549 109.605 92.9384C109.712 92.7917 109.819 92.6451 109.929 92.494C110.055 92.494 110.182 92.494 110.312 92.494C110.312 92.2402 110.312 91.9865 110.312 91.7252C110.439 91.7252 110.565 91.7252 110.696 91.7252C110.755 91.5745 110.814 91.4239 110.876 91.2687C111.079 90.7642 111.079 90.7642 111.271 90.3798Z" fill="#F4D89D"/>
<path d="M118.941 50.9789C119.561 52.1411 119.539 53.3426 119.516 54.6307C119.133 54.4385 119.133 54.4385 118.941 53.8619C118.928 53.3674 118.923 52.8785 118.929 52.3843C118.93 52.2494 118.931 52.1145 118.932 51.9755C118.934 51.6433 118.937 51.3111 118.941 50.9789Z" fill="#F6DB9E"/>
<path d="M98.2314 14.0767C98.4846 14.1401 98.7377 14.2035 98.9985 14.2689C98.9985 14.3957 98.9985 14.5226 98.9985 14.6533C99.2516 14.7167 99.5047 14.7801 99.7655 14.8455C99.7655 14.9723 99.7655 15.0992 99.7655 15.2299C99.8921 15.2299 100.019 15.2299 100.149 15.2299C100.149 15.3567 100.149 15.4836 100.149 15.6143C100.339 15.6143 100.529 15.6143 100.724 15.6143C100.788 15.868 100.851 16.1217 100.916 16.3831C101.043 16.3831 101.169 16.3831 101.3 16.3831C101.236 16.5099 101.173 16.6368 101.108 16.7674C101.013 16.6837 100.917 16.6 100.819 16.5137C100.689 16.3992 100.559 16.2848 100.425 16.1668C100.286 16.0449 100.147 15.923 100.004 15.7974C99.6083 15.4522 99.2082 15.1124 98.8067 14.7734C98.6169 14.6069 98.427 14.4404 98.2314 14.2689C98.2314 14.2054 98.2314 14.142 98.2314 14.0767Z" fill="#FEF7DC"/>
<path d="M24.022 11.9624C24.1485 12.0258 24.2751 12.0893 24.4055 12.1546C23.4287 13.4432 23.4287 13.4432 22.7037 13.6802C22.5692 13.6841 22.4347 13.6881 22.2962 13.6922C22.2962 13.819 22.2962 13.9459 22.2962 14.0766C21.9798 14.2034 21.6634 14.3303 21.3374 14.461C21.464 14.2707 21.5905 14.0804 21.7209 13.8844C21.8475 13.8844 21.974 13.8844 22.1044 13.8844C22.1044 13.7575 22.1044 13.6307 22.1044 13.5C22.414 13.224 22.7357 12.9616 23.0632 12.7072C23.2412 12.5679 23.4192 12.4287 23.6025 12.2852C23.7409 12.1787 23.8794 12.0722 24.022 11.9624Z" fill="#F6DDA8"/>
<path d="M46.074 118.633C47.1744 118.594 48.1076 118.581 49.1421 119.017C49.1421 119.144 49.1421 119.271 49.1421 119.402C48.037 119.489 47.1084 119.169 46.074 118.825C46.074 118.762 46.074 118.698 46.074 118.633Z" fill="#F7DDA5"/>
<path d="M113.572 86.7279C113.704 87.0522 113.704 87.0522 113.764 87.4967C113.5 87.9772 113.5 87.9772 113.188 88.4577C113.161 88.5806 113.133 88.7035 113.105 88.8301C112.939 89.4375 112.603 89.8805 112.23 90.3797C112.103 90.3797 111.977 90.3797 111.846 90.3797C112.102 89.7158 112.388 89.0804 112.709 88.4457C112.79 88.2849 112.871 88.1241 112.955 87.9584C113.032 87.8061 113.109 87.6537 113.188 87.4967C113.316 87.2405 113.444 86.9843 113.572 86.7279Z" fill="#FEF3DC"/>
<path d="M43.5811 84.8059C44.6568 84.8693 45.7326 84.9328 46.8409 84.9981C46.8409 85.0615 46.8409 85.125 46.8409 85.1903C46.0816 85.1903 45.3222 85.1903 44.5398 85.1903C44.6031 85.444 44.6664 85.6977 44.7316 85.9591C44.3519 85.9591 43.9722 85.9591 43.5811 85.9591C43.5811 85.8323 43.5811 85.7054 43.5811 85.5747C43.7076 85.5113 43.8342 85.4479 43.9646 85.3825C43.838 85.1922 43.7114 85.002 43.5811 84.8059Z" fill="#FAD896"/>
<path d="M9.97582 64.9974C10.1291 64.9991 10.2823 65.0008 10.4402 65.0026C10.5559 65.0048 10.6716 65.0071 10.7908 65.0094C10.7908 65.1362 10.7908 65.2631 10.7908 65.3938C10.9173 65.4572 11.0439 65.5206 11.1743 65.586C10.1618 65.586 9.14935 65.586 8.1062 65.586C8.29796 65.2016 8.29796 65.2016 8.63653 65.0822C9.09212 65.0048 9.51404 64.9906 9.97582 64.9974Z" fill="#FFF8E0"/>
<path d="M14.4341 51.7477C14.5606 51.7477 14.6872 51.7477 14.8176 51.7477C14.989 52.1466 15.1559 52.5474 15.321 52.9489C15.4144 53.1719 15.5078 53.3949 15.6041 53.6246C15.7764 54.2463 15.7764 54.2463 15.6131 54.7118C15.5404 54.8118 15.4677 54.9119 15.3929 55.0151C15.3414 54.8525 15.29 54.69 15.2371 54.5226C15.0154 53.8479 15.0154 53.8479 14.6977 53.1651C14.4341 52.5165 14.4341 52.5165 14.4341 51.7477Z" fill="#E0C48D"/>
<path d="M42.2387 2.92908C42.2387 3.05593 42.2387 3.18278 42.2387 3.31348C42.0212 3.40465 41.8037 3.49582 41.5796 3.58976C40.9429 3.82016 40.9429 3.82016 40.7047 4.08227C40.3814 4.09612 40.0575 4.09839 39.7339 4.09428C39.5577 4.09255 39.3814 4.09082 39.1998 4.08903C39.0636 4.0868 38.9274 4.08457 38.7871 4.08227C39.3986 3.67366 39.9193 3.50157 40.6208 3.28945C40.8425 3.22157 41.0642 3.15368 41.2927 3.08374C41.8552 2.92908 41.8552 2.92908 42.2387 2.92908Z" fill="#F6DBA3"/>
<path d="M26.5149 93.6471C27.5022 93.8945 27.6395 94.2057 28.2407 94.9925C28.0904 94.9846 27.9401 94.9766 27.7853 94.9685C27.251 94.9373 27.251 94.9373 26.8984 95.3769C26.7718 94.8061 26.6453 94.2352 26.5149 93.6471Z" fill="#ECCB8C"/>
<path d="M42.8139 68.0846C42.6233 68.5892 42.5265 68.8085 42.0289 69.0411C41.8767 69.0822 41.7244 69.1233 41.5675 69.1657C40.8714 69.354 40.8714 69.354 40.3211 69.8144C40.1313 69.751 39.9414 69.6875 39.7458 69.6222C40.0127 69.4369 40.2806 69.253 40.5488 69.0696C40.6979 68.967 40.8469 68.8645 41.0005 68.7588C41.5763 68.4046 42.1272 68.0846 42.8139 68.0846Z" fill="#23150A"/>
<path d="M62.5648 28.2993C62.4477 29.5439 62.4477 29.5439 62.0974 30.0171C61.7978 30.2213 61.7978 30.2213 61.4143 30.2213C61.4774 29.526 61.5345 29.1533 61.9896 28.6116C62.3731 28.2993 62.3731 28.2993 62.5648 28.2993Z" fill="#EC9C8C"/>
<path d="M33.2263 114.02C33.7958 114.084 34.3653 114.147 34.9521 114.212C35.0154 114.403 35.0787 114.593 35.1439 114.789C35.2942 114.817 35.4445 114.845 35.5993 114.873C36.1027 114.981 36.1027 114.981 36.4862 115.173C36.4862 115.3 36.4862 115.427 36.4862 115.558C35.3358 115.206 34.2907 114.775 33.2263 114.212C33.2263 114.149 33.2263 114.086 33.2263 114.02Z" fill="#F4DAA0"/>
<path d="M34.7603 49.4413C35.0134 49.4413 35.2665 49.4413 35.5273 49.4413C35.2731 50.1376 34.9629 50.7165 34.5446 51.3272C34.4412 51.4791 34.3379 51.631 34.2315 51.7875C34.1136 51.958 34.1136 51.958 33.9933 52.1321C33.93 51.9418 33.8667 51.7515 33.8015 51.5555C34.0533 51.1685 34.3094 50.7843 34.5685 50.4023C34.7185 49.8779 34.7185 49.8779 34.7603 49.4413Z" fill="#E7998E"/>
<path d="M83.6582 47.9037C84.5021 48.0004 84.9453 48.3049 85.5758 48.8647C85.4492 48.8647 85.3226 48.8647 85.1923 48.8647C85.129 48.9915 85.0657 49.1184 85.0005 49.2491C84.5575 49.0588 84.1146 48.8685 83.6582 48.6725C83.6582 48.4188 83.6582 48.1651 83.6582 47.9037Z" fill="#E9CE88"/>
<path d="M1.97004 44.4441C2.03332 44.4441 2.0966 44.4441 2.1618 44.4441C2.22508 45.0149 2.28836 45.5858 2.35356 46.1739C2.16372 46.2373 1.97388 46.3007 1.77829 46.3661C1.77829 46.8101 1.77829 47.254 1.77829 47.7115C1.65173 47.7749 1.52517 47.8383 1.39478 47.9037C1.47714 46.7022 1.58922 45.5892 1.97004 44.4441Z" fill="#F9D99D"/>
<path d="M85.3839 114.212C85.5738 114.276 85.7636 114.339 85.9592 114.405C85.5207 114.635 85.0812 114.863 84.6409 115.089C84.5161 115.155 84.3912 115.221 84.2626 115.289C83.939 115.454 83.6072 115.603 83.2746 115.75C83.1481 115.687 83.0215 115.623 82.8911 115.558C83.0289 115.188 83.0289 115.188 83.2746 114.789C83.6761 114.637 83.6761 114.637 84.1375 114.561C84.7818 114.452 84.7818 114.452 85.3839 114.212Z" fill="#F6D798"/>
<path d="M12.9001 97.2988C13.2837 97.2988 13.2837 97.2988 13.5833 97.5511C13.8589 97.8754 13.8589 97.8754 14.0507 98.452C14.2128 98.6146 14.375 98.7771 14.5421 98.9445C14.6963 99.0991 14.8505 99.2537 15.0095 99.413C15.0095 99.5399 15.0095 99.6667 15.0095 99.7974C15.136 99.7974 15.2626 99.7974 15.393 99.7974C15.3297 99.9877 15.2664 100.178 15.2012 100.374C14.2961 99.403 13.5047 98.4855 12.9001 97.2988Z" fill="#F3D99D"/>
<path d="M11.1743 65.3938C12.0672 65.6764 12.0672 65.6764 12.3548 66.1206C12.5364 66.5992 12.5555 66.95 12.5406 67.4599C12.5371 67.6135 12.5337 67.7672 12.5301 67.9254C12.5234 68.0993 12.5234 68.0993 12.5166 68.2768C12.3901 68.2768 12.2635 68.2768 12.1331 68.2768C12.1331 67.6425 12.1331 67.0083 12.1331 66.3548C11.9433 66.2914 11.7534 66.2279 11.5578 66.1626C11.3301 65.7662 11.3301 65.7662 11.1743 65.3938Z" fill="#F7DAA2"/>
<path d="M32.6509 27.9149C33.5368 27.9149 34.4227 27.9149 35.3355 27.9149C35.0507 28.2955 35.0507 28.2955 34.7602 28.6837C33.9451 28.7728 33.349 28.7472 32.6509 28.2993C32.6509 28.1725 32.6509 28.0456 32.6509 27.9149Z" fill="#F9D8A0"/>
<path d="M52.977 24.6476C53.1036 24.6476 53.2301 24.6476 53.3605 24.6476C53.4238 24.8379 53.4871 25.0281 53.5523 25.2242C53.6788 25.2876 53.8054 25.351 53.9358 25.4164C53.746 25.7969 53.5561 26.1775 53.3605 26.5696C53.2973 26.3793 53.234 26.189 53.1688 25.993C52.9789 26.0564 52.7891 26.1198 52.5935 26.1852C52.7613 24.8638 52.7613 24.8638 52.977 24.6476Z" fill="#F2CF85"/>
<path d="M70.6187 60.3966C70.9832 60.9447 71.1868 61.4147 71.4097 62.0303C71.4774 62.2146 71.5451 62.399 71.6149 62.5889C71.7692 63.0874 71.7692 63.0874 71.7692 63.664C71.213 63.1898 71.0079 62.7132 70.7625 62.0303C70.6943 61.846 70.626 61.6616 70.5557 61.4717C70.4269 60.9732 70.4269 60.9732 70.6187 60.3966Z" fill="#DDC48D"/>
<path d="M68.7012 53.093C68.9658 53.6234 68.8209 53.8656 68.6533 54.4264C68.5806 54.6787 68.5806 54.6787 68.5065 54.9362C68.3141 55.4083 68.126 55.6488 67.7424 55.976C67.8252 54.7936 68.0596 54.0888 68.7012 53.093Z" fill="#EBD194"/>
<path d="M34.1851 35.6029C35.5772 35.6029 36.9694 35.6029 38.4037 35.6029C38.2139 35.8883 38.2139 35.8883 38.0202 36.1795C36.7546 36.0527 35.489 35.9258 34.1851 35.7951C34.1851 35.7317 34.1851 35.6683 34.1851 35.6029Z" fill="#EBCE97"/>
<path d="M69.2764 14.6532C71.2233 14.7205 71.2233 14.7205 71.901 15.2418C71.9841 15.3647 72.0671 15.4876 72.1527 15.6142C71.3886 15.8695 71.1171 15.6588 70.3909 15.3379C70.1826 15.247 69.9742 15.1561 69.7595 15.0624C69.6001 14.9908 69.4406 14.9192 69.2764 14.8454C69.2764 14.782 69.2764 14.7185 69.2764 14.6532Z" fill="#E5C88D"/>
<path d="M61.6061 14.6532C62.3022 14.6532 62.9983 14.6532 63.7155 14.6532C63.1435 15.0354 62.5694 15.333 61.9537 15.6382C61.6411 15.7936 61.6411 15.7936 61.3222 15.952C61.1628 16.0308 61.0034 16.1096 60.8391 16.1908C60.8391 16.0005 60.8391 15.8102 60.8391 15.6142C61.0922 15.4873 61.3453 15.3605 61.6061 15.2298C61.6061 15.0395 61.6061 14.8492 61.6061 14.6532Z" fill="#E5C991"/>
<path d="M115.49 82.3074C115.797 83.0773 115.581 83.6693 115.298 84.4216C115.108 84.485 114.918 84.5484 114.723 84.6138C114.659 84.9309 114.596 85.248 114.531 85.5748C114.339 85.1904 114.339 85.1904 114.475 84.7662C114.545 84.6009 114.615 84.4357 114.687 84.2654C114.755 84.1016 114.824 83.9379 114.894 83.7691C114.964 83.6039 115.034 83.4386 115.106 83.2684C115.235 82.9483 115.363 82.6281 115.49 82.3074Z" fill="#FEF4D8"/>
<path d="M114.722 83.2683C114.849 83.2683 114.976 83.2683 115.106 83.2683C114.986 84.0274 114.748 84.6519 114.423 85.3465C114.336 85.534 114.248 85.7216 114.158 85.9148C114.091 86.0563 114.024 86.1977 113.955 86.3435C113.836 85.9951 113.836 85.9951 113.764 85.5747C113.89 85.3844 114.017 85.1941 114.147 84.9981C114.267 84.6112 114.267 84.6112 114.351 84.2053C114.531 83.4605 114.531 83.4605 114.722 83.2683Z" fill="#F6D897"/>
<path d="M1.58643 74.0427C1.71298 74.0427 1.83954 74.0427 1.96994 74.0427C1.99317 74.1609 2.01641 74.2791 2.04035 74.4008C2.07248 74.5562 2.10462 74.7115 2.13772 74.8716C2.16887 75.0254 2.20002 75.1793 2.2321 75.3378C2.34286 75.8211 2.34286 75.8211 2.73696 76.3491C2.78636 76.867 2.75403 77.365 2.73696 77.8867C2.19187 77.3404 2.11786 76.6947 1.94597 75.9647C1.89369 75.7521 1.89369 75.7521 1.84035 75.5353C1.58643 74.4866 1.58643 74.4866 1.58643 74.0427Z" fill="#F5D9A0"/>
<path d="M8.1062 69.4299C9.11867 69.4299 10.1311 69.4299 11.1743 69.4299C10.643 69.9625 10.1725 70.0381 9.44849 70.0546C9.31798 70.0595 9.18747 70.0645 9.053 70.0696C8.68147 70.0065 8.68147 70.0065 8.1062 69.4299Z" fill="#FEF5D9"/>
<path d="M82.8911 4.85107C84.0327 5.11887 84.9539 5.59784 85.9592 6.19647C85.1584 6.46403 84.849 6.18754 84.1016 5.82408C83.8754 5.71532 83.6492 5.60655 83.4162 5.49449C83.2429 5.40901 83.0696 5.32354 82.8911 5.23547C82.8911 5.10862 82.8911 4.98177 82.8911 4.85107Z" fill="#F7DBA6"/>
<path d="M18.4611 81.1541C18.4611 81.2175 18.4611 81.281 18.4611 81.3463C17.3221 81.6 16.1831 81.8537 15.0095 82.1151C15.0095 81.9883 15.0095 81.8614 15.0095 81.7307C16.1752 81.1076 17.1541 81.0902 18.4611 81.1541Z" fill="#E7CC92"/>
<path d="M8.1061 29.8369C8.16938 29.8369 8.23266 29.8369 8.29786 29.8369C8.29786 30.2175 8.29786 30.598 8.29786 30.9901C8.1713 30.9901 8.04474 30.9901 7.91435 30.9901C7.91435 31.2438 7.91435 31.4975 7.91435 31.7589C7.78779 31.7589 7.66123 31.7589 7.53083 31.7589C7.40428 32.0126 7.27772 32.2663 7.14732 32.5277C7.08404 32.4009 7.02076 32.274 6.95557 32.1433C7.18852 31.6012 7.18852 31.6012 7.51885 30.9661C7.62736 30.7555 7.73588 30.5449 7.84768 30.3279C7.93296 30.1659 8.01824 30.0039 8.1061 29.8369Z" fill="#F6D898"/>
<path d="M14.8177 82.1151C14.731 82.4238 14.6428 82.732 14.554 83.0401C14.5051 83.2118 14.4561 83.3835 14.4057 83.5604C14.2424 84.0371 14.2424 84.0371 13.8589 84.6137C13.8433 84.3055 13.8322 83.9972 13.823 83.6887C13.8163 83.517 13.8096 83.3454 13.8027 83.1685C13.8589 82.6917 13.8589 82.6917 14.1248 82.3411C14.4342 82.1151 14.4342 82.1151 14.8177 82.1151Z" fill="#F1D394"/>
<path d="M10.7908 69.6222C10.9174 69.6856 11.0439 69.749 11.1743 69.8144C11.1111 69.9412 11.0478 70.0681 10.9826 70.1988C10.2363 70.4481 9.66055 70.416 8.87326 70.391C8.7467 70.3276 8.62014 70.2641 8.48975 70.1988C8.55303 70.0719 8.61631 69.9451 8.6815 69.8144C9.25265 69.8238 9.25265 69.8238 9.8238 69.8332C10.2545 69.8303 10.2545 69.8303 10.7908 69.6222Z" fill="#F5D99B"/>
<path d="M30.5416 56.1682C29.7514 56.5522 29.1126 56.5869 28.2405 56.5526C28.2405 56.3623 28.2405 56.1721 28.2405 55.976C28.367 55.976 28.4936 55.976 28.624 55.976C28.624 56.1029 28.624 56.2297 28.624 56.3604C28.7505 56.3604 28.8771 56.3604 29.0075 56.3604C29.0075 56.2336 29.0075 56.1067 29.0075 55.976C29.66 55.7425 29.9533 55.8103 30.5416 56.1682Z" fill="#E0978C"/>
<path d="M105.135 48.2881C105.198 48.4149 105.261 48.5418 105.327 48.6725C105.2 48.6725 105.073 48.6725 104.943 48.6725C104.943 48.7993 104.943 48.9262 104.943 49.0569C104.817 49.0569 104.69 49.0569 104.56 49.0569C104.504 49.1798 104.449 49.3027 104.392 49.4293C104.176 49.8257 104.176 49.8257 103.793 50.0179C103.793 49.891 103.793 49.7642 103.793 49.6335C103.603 49.5701 103.413 49.5066 103.217 49.4413C103.85 49.0607 104.483 48.6802 105.135 48.2881Z" fill="#E8C98E"/>
<path d="M16.16 40.4079C15.6854 41.0739 15.6854 41.0739 15.2012 41.7533C15.0114 41.563 14.8216 41.3727 14.626 41.1767C14.8177 40.6001 14.8177 40.6001 15.2851 40.3598C15.7765 40.2157 15.7765 40.2157 16.16 40.4079Z" fill="#F2D191"/>
<path d="M73.3032 16.7675C73.9432 16.9928 74.4105 17.1881 74.8373 17.7285C74.8373 17.8553 74.8373 17.9822 74.8373 18.1129C75.0271 18.1763 75.2169 18.2397 75.4125 18.305C75.3493 18.4953 75.286 18.6856 75.2208 18.8816C74.9006 18.5659 74.5812 18.2494 74.262 17.9327C74.084 17.7565 73.9061 17.5804 73.7227 17.3989C73.3032 16.9597 73.3032 16.9597 73.3032 16.7675Z" fill="#F1D59D"/>
<path d="M42.6222 10.4249C42.468 10.4903 42.468 10.4903 42.3106 10.557C41.9029 10.7829 41.6145 11.008 41.2679 11.3138C40.7047 11.7703 40.7047 11.7703 40.1294 11.7703C40.1294 11.6434 40.1294 11.5166 40.1294 11.3859C40.256 11.3859 40.3825 11.3859 40.5129 11.3859C40.5604 11.263 40.6078 11.1401 40.6567 11.0135C40.8964 10.6171 40.8964 10.6171 41.244 10.4729C41.7072 10.4199 42.1564 10.4119 42.6222 10.4249Z" fill="#FEF8E2"/>
<path d="M10.7908 94.8003C11.33 94.8686 11.5244 94.9547 11.8911 95.3694C11.9907 95.5225 12.0904 95.6756 12.193 95.8334C12.2951 95.9855 12.3972 96.1376 12.5023 96.2943C12.7083 96.7223 12.7083 96.7223 12.5166 97.2989C12.4563 97.1946 12.3959 97.0903 12.3338 96.9828C11.8863 96.233 11.5274 95.6769 10.7908 95.1847C10.7908 95.0578 10.7908 94.931 10.7908 94.8003Z" fill="#F9DBA9"/>
<path d="M117.407 43.6753C117.809 44.2799 117.89 44.6391 118.006 45.345C118.038 45.536 118.071 45.7271 118.104 45.9239C118.127 46.0698 118.15 46.2157 118.174 46.3661C118.048 46.3661 117.921 46.3661 117.791 46.3661C117.361 45.366 117.109 44.7626 117.407 43.6753Z" fill="#F5DA9F"/>
<path d="M102.258 17.9207C102.385 17.9207 102.511 17.9207 102.642 17.9207C102.685 18.0277 102.729 18.1347 102.774 18.245C103.094 18.8104 103.521 19.1985 103.984 19.6504C104.047 19.7773 104.111 19.9042 104.176 20.0348C103.649 19.9387 103.649 19.9387 103.025 19.6504C102.699 19.1743 102.258 18.5179 102.258 17.9207Z" fill="#F4D99D"/>
<path d="M88.5599 112.663C88.7913 112.669 88.7913 112.669 89.0273 112.675C87.8071 113.636 87.8071 113.636 86.918 113.636C86.918 113.763 86.918 113.89 86.918 114.02C86.6016 114.084 86.2852 114.147 85.9592 114.212C86.0225 114.086 86.0858 113.959 86.151 113.828C86.3408 113.828 86.5307 113.828 86.7263 113.828C86.7263 113.701 86.7263 113.574 86.7263 113.444C87.0051 113.307 87.0051 113.307 87.2895 113.167C88.2619 112.67 88.2619 112.67 88.5599 112.663Z" fill="#F4D79A"/>
<path d="M54.5112 71.9286C54.7011 72.0554 54.8909 72.1823 55.0865 72.313C54.9761 72.7715 54.8521 73.2099 54.703 73.6584C54.5764 73.6584 54.4499 73.6584 54.3195 73.6584C54.1642 73.0982 54.0858 72.801 54.3075 72.2529C54.3747 72.1459 54.442 72.0389 54.5112 71.9286Z" fill="#FAD691"/>
<path d="M87.4932 60.781C87.6198 60.781 87.7464 60.781 87.8767 60.781C87.8548 61.0575 87.8303 61.3337 87.8048 61.6099C87.7915 61.7637 87.7781 61.9176 87.7644 62.0761C87.685 62.5108 87.685 62.5108 87.3015 63.0874C87.1749 63.0874 87.0484 63.0874 86.918 63.0874C87.1078 62.3263 87.2976 61.5652 87.4932 60.781Z" fill="#DAC288"/>
<path d="M71.194 49.8257C71.3838 49.8891 71.5737 49.9525 71.7693 50.0179C71.706 50.2082 71.6427 50.3984 71.5775 50.5945C71.4549 50.6183 71.3323 50.642 71.206 50.6666C71.0102 50.726 71.0102 50.726 70.8105 50.7867C70.5618 51.2653 70.5618 51.2653 70.427 51.7477C70.3004 51.6208 70.1739 51.494 70.0435 51.3633C70.3763 50.7755 70.6925 50.2805 71.194 49.8257Z" fill="#F9D89D"/>
<path d="M77.7137 49.4413C77.7137 49.5681 77.7137 49.695 77.7137 49.8257C76.9543 50.0794 76.195 50.3331 75.4126 50.5945C75.4126 50.4042 75.4126 50.2139 75.4126 50.0179C75.6222 49.9584 75.8318 49.899 76.0478 49.8377C77.4204 49.4413 77.4204 49.4413 77.7137 49.4413Z" fill="#EDCD95"/>
<path d="M26.1314 43.0987C26.0211 43.152 25.9109 43.2052 25.7973 43.2601C25.3729 43.4787 24.9756 43.7188 24.5733 43.9756C24.2013 44.2128 23.8412 44.4386 23.4468 44.6363C23.5733 44.3192 23.6999 44.002 23.8303 43.6753C24.0201 43.6753 24.21 43.6753 24.4056 43.6753C24.4056 43.5485 24.4056 43.4216 24.4056 43.2909C24.9725 43.0068 25.5067 43.0871 26.1314 43.0987Z" fill="#1A0402"/>
<path d="M72.3444 30.9901C72.4077 30.9901 72.471 30.9901 72.5362 30.9901C72.5362 32.1318 72.5362 33.2734 72.5362 34.4497C72.3464 34.5131 72.1565 34.5765 71.9609 34.6419C71.9904 34.5123 72.0198 34.3827 72.0501 34.2492C72.169 33.5908 72.217 32.9431 72.2606 32.2754C72.2766 32.0344 72.2927 31.7933 72.3092 31.5449C72.3209 31.3618 72.3325 31.1788 72.3444 30.9901Z" fill="#583029"/>
<path d="M29.9663 112.29C30.2827 112.29 30.5991 112.29 30.9251 112.29C30.9251 112.417 30.9251 112.544 30.9251 112.675C31.2415 112.675 31.5579 112.675 31.8839 112.675C31.9471 112.929 32.0104 113.182 32.0756 113.444C31.2112 113.202 30.6391 112.885 29.9663 112.29Z" fill="#F7DAA1"/>
<path d="M98.2315 105.948C98.3581 106.011 98.4846 106.075 98.615 106.14C97.9822 106.711 97.3494 107.282 96.6975 107.87C96.5709 107.806 96.4444 107.743 96.314 107.678C96.5776 107.293 96.5776 107.293 96.8892 106.909C97.0158 106.909 97.1424 106.909 97.2727 106.909C97.2727 106.782 97.2727 106.655 97.2727 106.524C97.7282 106.2 97.7282 106.2 98.2315 105.948Z" fill="#F6D89E"/>
<path d="M42.814 88.0734C44.0163 88.1368 45.2186 88.2002 46.4573 88.2656C46.4573 88.329 46.4573 88.3924 46.4573 88.4578C45.994 88.5005 45.5308 88.5401 45.0671 88.5779C44.9363 88.5903 44.8056 88.6027 44.6709 88.6154C43.941 88.6722 43.4318 88.6837 42.814 88.2656C42.814 88.2021 42.814 88.1387 42.814 88.0734Z" fill="#1D1106"/>
<path d="M38.979 70.1987C39.1056 70.2622 39.2321 70.3256 39.3625 70.3909C39.1258 71.1027 38.7425 71.4101 38.212 71.9285C38.1487 72.0554 38.0854 72.1822 38.0202 72.3129C37.8937 72.2495 37.7671 72.1861 37.6367 72.1207C37.8242 71.8362 38.012 71.552 38.2 71.2678C38.3046 71.1095 38.4091 70.9512 38.5168 70.7881C38.7873 70.3909 38.7873 70.3909 38.979 70.1987Z" fill="#27170C"/>
<path d="M38.979 102.104C39.352 102.15 39.352 102.15 39.77 102.272C39.9089 102.311 40.0478 102.35 40.1909 102.391C40.2972 102.423 40.4035 102.455 40.513 102.488C40.4497 102.679 40.3865 102.869 40.3213 103.065C39.7517 102.875 39.1822 102.684 38.5955 102.488C38.722 102.361 38.8486 102.235 38.979 102.104Z" fill="#241910"/>
<path d="M82.3159 98.2599C82.3159 98.9359 82.1578 99.1 81.7406 99.6053C81.1711 99.5101 81.1711 99.5101 80.5901 99.4131C81.1425 98.9517 81.657 98.5534 82.3159 98.2599Z" fill="#E8CB90"/>
<path d="M108.203 95.5691C108.347 95.8934 108.347 95.8934 108.395 96.3379C107.985 96.9677 107.771 97.2508 107.052 97.4911C107.369 96.8033 107.778 96.1941 108.203 95.5691Z" fill="#FEF3DA"/>
<path d="M36.1025 83.2683C36.8344 83.5672 37.2899 84.044 37.8283 84.6137C37.7018 84.7406 37.5752 84.8674 37.4448 84.9981C37.2205 84.7463 36.997 84.494 36.7737 84.2413C36.6491 84.1008 36.5245 83.9604 36.3962 83.8156C36.1025 83.4605 36.1025 83.4605 36.1025 83.2683Z" fill="#E3C98A"/>
<path d="M1.96999 75.9647C2.54234 76.8252 2.73701 77.625 2.73701 78.6555C2.61045 78.6555 2.48389 78.6555 2.3535 78.6555C2.09734 77.7248 1.92142 76.9383 1.96999 75.9647Z" fill="#FEF6DD"/>
<path d="M87.8767 65.9705C88.0033 66.0973 88.1298 66.2242 88.2602 66.3549C87.9956 66.9959 87.7138 67.3516 87.1097 67.7003C86.9199 67.6368 86.73 67.5734 86.5344 67.5081C86.9774 67.0006 87.4203 66.4932 87.8767 65.9705Z" fill="#100A04"/>
<path d="M8.6815 64.625C9.3143 64.625 9.94709 64.625 10.5991 64.625C10.5991 64.7519 10.5991 64.8787 10.5991 65.0094C9.90299 65.0728 9.20691 65.1362 8.48975 65.2016C8.55303 65.0113 8.61631 64.821 8.6815 64.625Z" fill="#F8D9A6"/>
<path d="M17.3105 57.7058C18.1167 57.9944 18.4402 58.5078 18.8446 59.2434C18.7813 59.4337 18.718 59.624 18.6528 59.82C18.0857 59.1536 17.679 58.4998 17.3105 57.7058Z" fill="#22140A"/>
<path d="M33.0346 52.5165C33.2244 52.5799 33.4143 52.6433 33.6099 52.7087C33.4229 52.9655 33.2349 53.2216 33.0466 53.4775C32.942 53.6202 32.8375 53.7629 32.7297 53.9099C32.5959 54.0764 32.5959 54.0764 32.4593 54.2463C32.3961 54.2463 32.3328 54.2463 32.2676 54.2463C32.2676 53.8657 32.2676 53.4852 32.2676 53.0931C32.4574 53.0931 32.6473 53.0931 32.8428 53.0931C32.9061 52.9028 32.9694 52.7125 33.0346 52.5165Z" fill="#E79A90"/>
<path d="M75.2208 50.5945C75.3474 50.6579 75.474 50.7213 75.6044 50.7867C74.9115 51.6876 74.9115 51.6876 74.6456 51.9399C74.4557 51.9399 74.2659 51.9399 74.0703 51.9399C74.3375 51.2927 74.6415 50.9816 75.2208 50.5945Z" fill="#180D05"/>
<path d="M93.0541 10.4248C93.8134 10.8054 93.8134 10.8054 94.5881 11.1936C94.1105 11.433 93.9341 11.3429 93.4376 11.1936C93.3743 11.3839 93.311 11.5742 93.2458 11.7702C93.1193 11.7702 92.9927 11.7702 92.8623 11.7702C92.9256 11.3262 92.9889 10.8822 93.0541 10.4248Z" fill="#FBD797"/>
<path d="M33.418 112.675C33.5445 112.675 33.6711 112.675 33.8015 112.675C33.8015 112.929 33.8015 113.182 33.8015 113.444C33.5484 113.507 33.2953 113.57 33.0345 113.636C33.0345 113.763 33.0345 113.89 33.0345 114.02C32.9079 114.02 32.7813 114.02 32.651 114.02C32.651 113.893 32.651 113.766 32.651 113.636C32.4611 113.572 32.2713 113.509 32.0757 113.444C32.3011 113.414 32.3011 113.414 32.5311 113.384C33.0978 113.294 33.0978 113.294 33.418 112.675Z" fill="#FBD69A"/>
<path d="M20.1868 92.4939C20.1868 92.6842 20.1868 92.8745 20.1868 93.0705C19.997 93.1339 19.8071 93.1973 19.6115 93.2627C19.2132 93.8616 19.1321 94.4803 19.0363 95.1847C18.973 95.1847 18.9097 95.1847 18.8445 95.1847C18.7846 94.5721 18.7846 94.5721 18.8445 93.8393C19.2999 93.2987 19.2999 93.2987 19.8033 92.8783C19.9298 92.7514 20.0564 92.6246 20.1868 92.4939Z" fill="#332310"/>
<path d="M53.3607 80.1931C53.4873 80.3834 53.6139 80.5737 53.7443 80.7697C53.6572 80.8807 53.5702 80.9917 53.4806 81.1061C53.1994 81.4962 52.9871 81.8721 52.7855 82.3073C52.5956 82.1805 52.4058 82.0536 52.2102 81.9229C52.5899 81.3521 52.9696 80.7812 53.3607 80.1931Z" fill="#E1C68F"/>
<path d="M100.341 45.9817C100.784 46.1085 101.227 46.2354 101.683 46.3661C101.683 46.5564 101.683 46.7466 101.683 46.9427C101.43 47.0061 101.177 47.0695 100.916 47.1349C100.726 46.7543 100.536 46.3738 100.341 45.9817Z" fill="#DBC589"/>
<path d="M107.244 44.4441C107.814 44.5392 107.814 44.5392 108.395 44.6363C108.268 45.334 108.142 46.0317 108.011 46.7505C107.885 46.6871 107.758 46.6236 107.628 46.5583C107.64 46.1766 107.653 45.795 107.665 45.4133C107.653 44.9604 107.653 44.9604 107.244 44.4441Z" fill="#DBC084"/>
<path d="M61.4144 28.6837C61.5409 28.6837 61.6675 28.6837 61.7979 28.6837C61.7586 28.7974 61.7193 28.9112 61.6788 29.0283C61.4144 29.8055 61.1617 30.5612 61.0309 31.3745C60.9676 31.3745 60.9043 31.3745 60.8391 31.3745C60.5789 30.1414 60.5789 30.1414 60.911 29.5967C61.0653 29.4302 61.0653 29.4302 61.2226 29.2603C61.2859 29.07 61.3492 28.8798 61.4144 28.6837Z" fill="#200805"/>
<path d="M111.079 29.0681C111.269 29.1315 111.459 29.195 111.654 29.2603C111.718 29.5774 111.781 29.8946 111.846 30.2213C111.973 30.2213 112.099 30.2213 112.23 30.2213C112.293 30.5384 112.356 30.8556 112.421 31.1823C111.688 30.5242 111.324 30.0277 111.079 29.0681Z" fill="#FDEECB"/>
<path d="M31.1169 25.032C31.1802 25.032 31.2435 25.032 31.3087 25.032C31.3342 25.1479 31.3596 25.2639 31.3859 25.3833C31.4366 25.6138 31.4366 25.6138 31.4885 25.8488C31.5218 26.0005 31.5552 26.1521 31.5896 26.3083C31.6822 26.7173 31.7807 27.1241 31.884 27.5306C31.6308 27.4671 31.3777 27.4037 31.1169 27.3384C31.1169 26.5773 31.1169 25.8162 31.1169 25.032Z" fill="#F7D79E"/>
<path d="M64.4826 24.8397C64.6091 24.9031 64.7357 24.9666 64.8661 25.0319C64.5625 25.8534 64.0021 26.2361 63.332 26.7617C63.332 26.0719 63.4594 25.972 63.9073 25.4764C64.0141 25.3567 64.1209 25.237 64.2309 25.1138C64.3139 25.0233 64.397 24.9329 64.4826 24.8397Z" fill="#D39085"/>
<path d="M99.9573 15.8064C100.182 15.957 100.406 16.1095 100.628 16.2629C100.815 16.39 100.815 16.39 101.006 16.5196C101.103 16.6014 101.2 16.6832 101.3 16.7674C101.3 16.8942 101.3 17.0211 101.3 17.1518C100.389 17.0076 100.389 17.0076 99.9573 16.5752C99.9573 16.3215 99.9573 16.0678 99.9573 15.8064Z" fill="#F5D89A"/>
<path d="M49.1421 119.402C49.6483 119.402 50.1546 119.402 50.6761 119.402C50.6761 119.529 50.6761 119.656 50.6761 119.786C51.1824 119.786 51.6886 119.786 52.2102 119.786C52.2102 119.85 52.2102 119.913 52.2102 119.978C51.1098 120.018 50.1765 120.031 49.1421 119.594C49.1421 119.531 49.1421 119.467 49.1421 119.402Z" fill="#FDEED5"/>
<path d="M18.6527 76.3491C18.8426 76.4443 18.8426 76.4443 19.0363 76.5413C19.1157 76.9805 19.1157 76.9805 19.1561 77.5143C19.1704 77.691 19.1848 77.8676 19.1995 78.0496C19.2136 78.2544 19.2136 78.2544 19.228 78.4633C19.1014 78.4633 18.9749 78.4633 18.8445 78.4633C18.619 77.7572 18.6386 77.0854 18.6527 76.3491Z" fill="#D5B987"/>
<path d="M80.832 66.9171C80.9855 66.9416 81.139 66.9662 81.2971 66.9914C81.4521 67.0145 81.6071 67.0375 81.7668 67.0613C81.8847 67.0818 82.0026 67.1024 82.1241 67.1236C82.1241 67.187 82.1241 67.2504 82.1241 67.3158C80.985 67.4109 80.985 67.4109 79.823 67.508C80.3983 66.9314 80.3983 66.9314 80.832 66.9171Z" fill="#25160C"/>
<path d="M69.0847 65.0094C69.2746 65.0094 69.4644 65.0094 69.66 65.0094C70.1873 65.55 70.1873 65.55 70.6188 66.1626C70.5555 66.3529 70.4922 66.5431 70.427 66.7392C70.2027 66.4874 69.9791 66.2351 69.7559 65.9824C69.6313 65.8419 69.5067 65.7015 69.3783 65.5567C69.0847 65.2016 69.0847 65.2016 69.0847 65.0094Z" fill="#E5CC95"/>
<path d="M98.6151 43.0988C98.6784 43.2256 98.7417 43.3525 98.8069 43.4832C98.9967 43.5466 99.1865 43.61 99.3821 43.6754C99.572 43.9608 99.572 43.9608 99.7656 44.252C99.7024 44.5057 99.6391 44.7594 99.5739 45.0207C99.1942 44.4499 98.8145 43.8791 98.4233 43.291C98.4866 43.2275 98.5499 43.1641 98.6151 43.0988Z" fill="#E2C88D"/>
<path d="M20.1869 37.3328C20.3768 37.3962 20.5666 37.4596 20.7622 37.525C20.4386 37.9214 20.4386 37.9214 19.9952 38.2938C19.4678 38.2457 19.4678 38.2457 19.0364 38.1016C19.413 37.8122 19.7617 37.5459 20.1869 37.3328Z" fill="#21150B"/>
<path d="M45.4986 31.5668C45.3068 32.1434 45.3068 32.1434 44.9728 32.3326C44.8378 32.3811 44.7028 32.4297 44.5638 32.4797C44.4298 32.5303 44.2958 32.5808 44.1578 32.6329C43.7728 32.72 43.7728 32.72 43.1975 32.5278C43.5086 32.3667 43.8203 32.2067 44.1323 32.0473C44.3058 31.9581 44.4794 31.8689 44.6582 31.777C45.1151 31.5668 45.1151 31.5668 45.4986 31.5668Z" fill="#291B0D"/>
<path d="M80.3983 27.9149C80.4616 27.9149 80.5249 27.9149 80.5901 27.9149C80.5268 28.676 80.4635 29.4371 80.3983 30.2213C80.0152 29.4533 79.9427 29.1299 80.0148 28.2993C80.1414 28.1725 80.2679 28.0456 80.3983 27.9149Z" fill="#F7D790"/>
<path d="M77.522 21.7646C78.0972 21.9568 78.0972 21.9568 78.325 22.3893C78.4806 22.9174 78.5119 23.3319 78.4808 23.8788C77.522 22.6558 77.522 22.6558 77.522 21.7646Z" fill="#F0D394"/>
<path d="M76.3713 19.6504C76.4979 19.7138 76.6244 19.7772 76.7548 19.8426C76.7548 19.9694 76.7548 20.0963 76.7548 20.227C76.8814 20.227 77.0079 20.227 77.1383 20.227C77.1383 20.6075 77.1383 20.9881 77.1383 21.3802C76.7317 20.8776 76.3462 20.3814 75.9878 19.8426C76.1144 19.7792 76.2409 19.7157 76.3713 19.6504Z" fill="#EECE95"/>
<path d="M23.0632 88.4578C23.998 89.3467 23.998 89.3467 24.2138 89.9954C24.0239 89.9954 23.8341 89.9954 23.6385 89.9954C23.1011 89.4368 23.0632 89.2673 23.0632 88.4578Z" fill="#E3C793"/>
<path d="M52.0184 82.1151C52.0816 82.242 52.1449 82.3688 52.2101 82.4995C52.061 82.8314 52.061 82.8314 51.8386 83.1962C51.7081 83.4103 51.5776 83.6244 51.4431 83.8449C51.3165 83.7815 51.19 83.7181 51.0596 83.6527C51.1636 82.9231 51.4817 82.601 52.0184 82.1151Z" fill="#E2C68B"/>
<path d="M32.0758 54.4385C32.1391 54.6288 32.2024 54.819 32.2676 55.0151C31.8246 55.3956 31.3816 55.7762 30.9253 56.1683C30.7987 56.1048 30.6721 56.0414 30.5417 55.9761C31.048 55.4687 31.5542 54.9613 32.0758 54.4385Z" fill="#371B18"/>
<path d="M103.792 45.4052C103.919 45.4686 104.045 45.532 104.176 45.5974C103.585 46.3032 103.169 46.4753 102.258 46.5583C102.73 46.0519 103.136 45.6463 103.792 45.4052Z" fill="#23160A"/>
<path d="M21.5291 106.332C21.7822 106.396 22.0353 106.459 22.2961 106.524C22.2961 106.651 22.2961 106.778 22.2961 106.909C22.4741 106.933 22.4741 106.933 22.6556 106.957C23.0631 107.101 23.0631 107.101 23.3028 107.497C23.3503 107.62 23.3977 107.743 23.4466 107.87C22.6896 107.549 22.1392 107.067 21.5291 106.524C21.5291 106.461 21.5291 106.398 21.5291 106.332Z" fill="#F6DBA7"/>
<path d="M105.71 97.6832C106.026 97.6832 106.343 97.6832 106.669 97.6832C106.194 98.3492 106.194 98.3492 105.71 99.0286C105.454 98.5161 105.581 98.2278 105.71 97.6832Z" fill="#F8D697"/>
<path d="M28.2405 94.9924C28.4609 95.1758 28.6804 95.3602 28.8996 95.545C29.022 95.6476 29.1444 95.7501 29.2704 95.8558C29.5828 96.1456 29.5828 96.1456 29.7745 96.53C29.5847 96.53 29.3949 96.53 29.1993 96.53C29.1993 96.4032 29.1993 96.2763 29.1993 96.1456C29.0094 96.1456 28.8196 96.1456 28.624 96.1456C28.4974 95.7651 28.3709 95.3845 28.2405 94.9924Z" fill="#D2B886"/>
<path d="M22.1045 91.1486C22.2311 91.212 22.3576 91.2754 22.488 91.3408C21.6337 92.0067 21.6337 92.0067 20.7622 92.6862C20.7622 92.4959 20.7622 92.3056 20.7622 92.1096C21.0558 91.843 21.0558 91.843 21.4334 91.593C21.5579 91.509 21.6825 91.425 21.8109 91.3385C21.9078 91.2758 22.0047 91.2131 22.1045 91.1486Z" fill="#28180C"/>
<path d="M30.5416 56.3605C30.0525 56.813 29.8301 56.9339 29.1514 56.9731C28.9773 56.9612 28.8033 56.9493 28.624 56.9371C28.624 56.8102 28.624 56.6834 28.624 56.5527C28.8712 56.4829 29.119 56.4153 29.3671 56.3485C29.505 56.3105 29.6429 56.2726 29.785 56.2336C30.1581 56.1683 30.1581 56.1683 30.5416 56.3605Z" fill="#270B09"/>
<path d="M96.1223 40.7924C96.6918 40.8875 96.6918 40.8875 97.2729 40.9846C97.3361 41.2383 97.3994 41.492 97.4646 41.7534C97.2748 41.7534 97.0849 41.7534 96.8893 41.7534C96.4699 41.2729 96.4699 41.2729 96.1223 40.7924Z" fill="#EBD18B"/>
<path d="M39.1708 35.0264C39.2973 35.0898 39.4239 35.1532 39.5543 35.2186C38.7047 36.3304 38.7047 36.3304 38.1521 36.5399C37.9919 36.5518 37.9919 36.5518 37.8285 36.564C37.7652 36.4371 37.7019 36.3103 37.6367 36.1796C38.143 35.799 38.6492 35.4185 39.1708 35.0264Z" fill="#231608"/>
<path d="M64.4826 24.4553C64.6724 24.5187 64.8622 24.5822 65.0578 24.6475C64.9155 24.7585 64.7731 24.8695 64.6264 24.9839C64.1641 25.363 63.7461 25.7547 63.332 26.1851C63.4225 25.3686 63.9009 24.9935 64.4826 24.4553Z" fill="#220B0A"/>
<path d="M55.47 22.149C55.6618 22.7256 55.6618 22.7256 55.4221 23.4224C55.0865 24.071 55.0865 24.071 54.5112 24.2632C54.7462 23.4843 55.0287 22.8326 55.47 22.149Z" fill="#211508"/>
<path d="M59.1134 16.1908C59.4931 16.2859 59.4931 16.2859 59.8804 16.383C59.8804 16.5733 59.8804 16.7635 59.8804 16.9596C59.7539 17.0864 59.6273 17.2133 59.4969 17.344C59.3071 17.2806 59.1172 17.2171 58.9216 17.1518C59.0482 17.1518 59.1747 17.1518 59.3051 17.1518C59.2419 16.8347 59.1786 16.5175 59.1134 16.1908Z" fill="#F9D49A"/>
<path d="M43.7728 14.4611C43.9626 14.5245 44.1525 14.5879 44.3481 14.6533C43.4888 15.2992 42.8897 15.2826 41.8552 15.2299C41.8552 15.1664 41.8552 15.103 41.8552 15.0377C42.4357 14.8969 42.4357 14.8969 43.0162 14.7561C43.4005 14.6632 43.4005 14.6632 43.7728 14.4611Z" fill="#FEFCE7"/>
<path d="M46.0738 1.96802C46.0738 2.09487 46.0738 2.22172 46.0738 2.35242C45.6941 2.35242 45.3144 2.35242 44.9232 2.35242C44.9232 2.47927 44.9232 2.60612 44.9232 2.73681C44.3537 2.64168 44.3537 2.64168 43.7727 2.54462C44.5771 2.11267 45.1549 1.96802 46.0738 1.96802Z" fill="#F5DA9E"/>
<path d="M41.0881 87.1123C41.8013 87.2098 42.3795 87.3268 43.0057 87.6889C42.6941 87.821 42.6941 87.821 42.2387 87.8811C41.6155 87.6048 41.6155 87.6048 41.0881 87.3045C41.0881 87.2411 41.0881 87.1777 41.0881 87.1123Z" fill="#DEC48B"/>
<path d="M48.9501 84.4215C48.9501 84.5484 48.9501 84.6752 48.9501 84.8059C48.4889 85.0371 48.1927 85.0175 47.6798 85.0101C47.4447 85.0075 47.4447 85.0075 47.2049 85.0049C47.0247 85.0015 47.0247 85.0015 46.8408 84.9981C47.5679 84.6239 48.1257 84.4215 48.9501 84.4215Z" fill="#D7BD8A"/>
<path d="M116.257 80.1931C116.472 80.9139 116.472 80.9139 116.257 81.3463C116.13 81.3463 116.004 81.3463 115.873 81.3463C115.81 81.6634 115.747 81.9806 115.681 82.3073C115.441 81.5834 115.61 81.2748 115.873 80.5775C116 80.5775 116.126 80.5775 116.257 80.5775C116.257 80.4507 116.257 80.3238 116.257 80.1931Z" fill="#F8DEAE"/>
<path d="M55.8535 71.1598C56.2665 71.6637 56.5056 72.0524 56.6205 72.6974C56.4939 72.6974 56.3674 72.6974 56.237 72.6974C56.1104 72.5705 55.9839 72.4437 55.8535 72.313C55.7269 72.313 55.6004 72.313 55.47 72.313C55.47 72.1861 55.47 72.0593 55.47 71.9286C55.5965 71.9286 55.7231 71.9286 55.8535 71.9286C55.8535 71.6749 55.8535 71.4212 55.8535 71.1598Z" fill="#E4C991"/>
<path d="M37.0615 68.0846C37.188 68.0846 37.3146 68.0846 37.445 68.0846C37.5082 68.3383 37.5715 68.592 37.6367 68.8534C37.522 68.8732 37.4073 68.893 37.2892 68.9135C36.8155 69.0627 36.6161 69.2514 36.2944 69.6222C36.2944 68.8665 36.5618 68.6296 37.0615 68.0846Z" fill="#E6C890"/>
<path d="M103.601 48.2881C103.854 48.4149 104.107 48.5418 104.368 48.6725C104.115 48.9262 103.862 49.1799 103.601 49.4413C103.474 49.3779 103.348 49.3144 103.217 49.2491C103.344 48.932 103.47 48.6148 103.601 48.2881Z" fill="#161009"/>
<path d="M21.5291 35.9873C22.1762 36.0925 22.5036 36.1901 23.0631 36.5639C21.9605 36.7801 21.9605 36.7801 21.5291 36.5639C21.5291 36.3736 21.5291 36.1833 21.5291 35.9873Z" fill="#EACF83"/>
<path d="M48.9501 30.2213C48.2431 30.6938 47.6659 30.8003 46.8408 30.9901C46.9041 30.7998 46.9674 30.6096 47.0326 30.4135C47.6531 30.1601 48.289 30.2062 48.9501 30.2213Z" fill="#E8CE94"/>
<path d="M70.6187 25.9929C71.2142 26.5898 71.3499 26.9332 71.5774 27.7227C71.3876 27.7861 71.1978 27.8496 71.0022 27.9149C70.8756 27.2807 70.749 26.6464 70.6187 25.9929Z" fill="#E5998F"/>
<path d="M44.7316 13.6923C44.8582 13.8825 44.9847 14.0728 45.1151 14.2689C44.9886 14.5226 44.862 14.7763 44.7316 15.0377C44.4785 14.9742 44.2254 14.9108 43.9646 14.8455C44.2177 14.4649 44.4708 14.0843 44.7316 13.6923Z" fill="#F7DAA3"/>
<path d="M13.6672 98.6443C14.1749 99.1397 14.6153 99.5892 15.0095 100.182C14.4607 99.9353 14.046 99.6955 13.6672 99.2209C13.6672 99.0306 13.6672 98.8403 13.6672 98.6443Z" fill="#FFF7DF"/>
<path d="M86.9179 95.1847C86.9812 95.375 87.0444 95.5652 87.1096 95.7613C86.9198 95.9516 86.7299 96.1418 86.5344 96.3379C86.2812 96.211 86.0281 96.0842 85.7673 95.9535C86.147 95.6998 86.5267 95.4461 86.9179 95.1847Z" fill="#E9CD8F"/>
<path d="M25.5559 92.686C26.0113 92.7341 26.0113 92.7341 26.5147 92.8782C26.7664 93.2746 26.7664 93.2746 26.8982 93.647C26.7716 93.647 26.6451 93.647 26.5147 93.647C26.5147 93.5202 26.5147 93.3933 26.5147 93.2626C26.1983 93.2626 25.8819 93.2626 25.5559 93.2626C25.5559 93.0724 25.5559 92.8821 25.5559 92.686Z" fill="#DDC28F"/>
<path d="M94.3964 87.689C94.523 87.8792 94.6495 88.0695 94.7799 88.2656C94.4635 88.5193 94.1471 88.773 93.8212 89.0344C93.7579 88.9075 93.6946 88.7807 93.6294 88.65C93.8825 88.3328 94.1356 88.0157 94.3964 87.689Z" fill="#1C0F07"/>
<path d="M6.76399 86.5358C6.82727 86.5358 6.89055 86.5358 6.95575 86.5358C6.95575 87.1066 6.95575 87.6774 6.95575 88.2656C6.59292 87.807 6.37589 87.483 6.18872 86.9202C6.37856 86.9202 6.5684 86.9202 6.76399 86.9202C6.76399 86.7933 6.76399 86.6665 6.76399 86.5358Z" fill="#F7D799"/>
<path d="M56.4286 78.8478C56.5552 78.9746 56.6817 79.1015 56.8121 79.2322C56.7444 79.8937 56.6116 80.2064 56.2368 80.7698C55.9555 80.0366 56.1537 79.5608 56.4286 78.8478Z" fill="#DEC38C"/>
<path d="M86.5345 62.8953C86.661 62.8953 86.7876 62.8953 86.918 62.8953C86.6906 63.5439 86.4816 63.9807 85.9592 64.4329C85.8326 64.306 85.7061 64.1792 85.5757 64.0485C85.7022 64.0485 85.8288 64.0485 85.9592 64.0485C86.0185 63.8939 86.0778 63.7393 86.139 63.58C86.3427 63.0875 86.3427 63.0875 86.5345 62.8953Z" fill="#1F1408"/>
<path d="M71.5775 48.0959C71.8306 48.2228 72.0837 48.3497 72.3445 48.4803C72.3445 48.6706 72.3445 48.8609 72.3445 49.0569C72.1547 49.1521 72.1547 49.1521 71.961 49.2491C71.7712 49.0589 71.5813 48.8686 71.3857 48.6725C71.449 48.4823 71.5123 48.292 71.5775 48.0959Z" fill="#130C0D"/>
<path d="M107.436 46.7505C107.562 47.0042 107.689 47.2579 107.819 47.5193C107.44 47.6461 107.06 47.773 106.669 47.9037C106.542 47.7768 106.416 47.65 106.285 47.5193C106.665 47.2656 107.045 47.0119 107.436 46.7505Z" fill="#DBBE83"/>
<path d="M14.4343 41.3689C14.6241 41.5592 14.814 41.7495 15.0096 41.9455C14.8197 42.3895 14.6299 42.8335 14.4343 43.2909C14.1969 42.6035 14.2906 42.0729 14.4343 41.3689Z" fill="#F2D498"/>
<path d="M9.06488 28.2993C9.19143 28.2993 9.31799 28.2993 9.44839 28.2993C9.33347 28.9443 9.09436 29.333 8.68136 29.8369C8.5548 29.7735 8.42825 29.7101 8.29785 29.6447C8.55097 29.2007 8.80409 28.7568 9.06488 28.2993Z" fill="#F6D8A1"/>
<path d="M53.7441 25.4164C53.9461 26.0239 53.9771 26.1869 53.7441 26.7618C53.3486 27.0981 53.3486 27.0981 52.9771 27.3384C53.1898 26.6682 53.4111 26.0363 53.7441 25.4164Z" fill="#291B0D"/>
<path d="M105.518 21.3802C106.453 22.2692 106.453 22.2692 106.669 22.9178C106.542 22.9178 106.416 22.9178 106.285 22.9178C106.285 22.791 106.285 22.6641 106.285 22.5334C106.032 22.47 105.779 22.4066 105.518 22.3412C105.518 22.0241 105.518 21.707 105.518 21.3802Z" fill="#F8D9A3"/>
<path d="M81.9323 98.6442C80.638 99.413 80.638 99.413 80.2065 99.413C80.3983 98.8364 80.3983 98.8364 80.8537 98.5962C81.3571 98.452 81.3571 98.452 81.9323 98.6442Z" fill="#211307"/>
<path d="M96.6975 84.9982C96.8873 85.0616 97.0772 85.125 97.2727 85.1904C96.9563 85.5075 96.64 85.8246 96.314 86.1514C96.314 85.3826 96.314 85.3826 96.6975 84.9982Z" fill="#221409"/>
<path d="M3.88745 81.1542C4.17509 81.3584 4.17509 81.3584 4.46272 81.7308C4.49867 82.4395 4.49867 82.4395 4.46272 83.0762C4.02238 82.4141 3.97563 81.9349 3.88745 81.1542Z" fill="#F7DBA5"/>
<path d="M85.7675 64.625C85.9592 65.0094 85.9592 65.0094 85.8394 65.4058C85.5757 65.7782 85.5757 65.7782 85.0724 65.9223C84.8469 65.9461 84.8469 65.9461 84.6169 65.9704C84.9966 65.5264 85.3763 65.0824 85.7675 64.625Z" fill="#DBC38C"/>
<path d="M68.701 52.3242C68.8276 52.3876 68.9541 52.4511 69.0845 52.5164C68.8947 52.897 68.7048 53.2775 68.5092 53.6696C68.3827 53.6062 68.2561 53.5428 68.1257 53.4774C68.1257 53.1603 68.1257 52.8432 68.1257 52.5164C68.3156 52.453 68.5054 52.3896 68.701 52.3242Z" fill="#21140A"/>
<path d="M106.669 47.9037C106.422 48.1681 106.165 48.4241 105.902 48.6725C105.775 48.6725 105.649 48.6725 105.518 48.6725C105.455 48.4822 105.392 48.2919 105.327 48.0959C106.022 47.6874 106.022 47.6874 106.669 47.9037Z" fill="#EAC98E"/>
<path d="M107.244 43.8676C107.244 44.0579 107.244 44.2481 107.244 44.4442C106.801 44.3807 106.358 44.3173 105.902 44.252C105.902 44.1251 105.902 43.9983 105.902 43.8676C106.413 43.6113 106.701 43.7386 107.244 43.8676Z" fill="#F2D292"/>
<path d="M94.0129 30.9901C94.3293 30.9901 94.6457 30.9901 94.9717 30.9901C94.9717 31.117 94.9717 31.2438 94.9717 31.3745C95.3514 31.3745 95.7311 31.3745 96.1223 31.3745C96.1223 31.4379 96.1223 31.5014 96.1223 31.5667C94.6826 31.6377 94.6826 31.6377 94.2047 31.2784C94.1414 31.1833 94.0781 31.0881 94.0129 30.9901Z" fill="#FDEFCF"/>
<path d="M35.9107 25.2241C35.974 25.2241 36.0373 25.2241 36.1025 25.2241C36.1969 26.6434 36.1969 26.6434 35.719 27.2422C35.5924 27.3374 35.4658 27.4325 35.3354 27.5305C35.5032 26.7857 35.5032 26.7857 35.719 26.5695C35.7895 26.122 35.8537 25.6735 35.9107 25.2241Z" fill="#FFFAE9"/>
<path d="M77.3302 22.149C77.8096 22.5669 77.9891 22.866 78.0972 23.4944C77.7257 23.3503 77.7257 23.3503 77.3302 23.11C77.1744 22.7136 77.1744 22.7136 77.1384 22.3412C77.2017 22.2778 77.265 22.2144 77.3302 22.149Z" fill="#22140A"/>
</svg>
