<svg width="120" height="120" viewBox="0 0 120 120" fill="none" xmlns="http://www.w3.org/2000/svg">
<path d="M75.6007 2.1559C75.8005 2.20624 75.8005 2.20624 76.0043 2.2576C79.4184 3.11943 82.7608 4.46138 85.9288 5.9919C86.0946 6.07188 86.2604 6.15187 86.4312 6.23427C89.4286 7.69974 92.1914 9.44131 94.9181 11.3623C95.0436 11.4506 95.169 11.5389 95.2983 11.6299C96.7982 12.6966 98.1844 13.8979 99.5684 15.1091C100.02 15.5027 100.476 15.8916 100.932 16.2804C101.692 16.9448 102.323 17.6717 102.951 18.4589C103.376 18.8964 103.809 19.323 104.248 19.7453C105.309 20.7821 106.238 21.8997 107.159 23.0621C107.269 23.1954 107.378 23.3287 107.491 23.466C108.654 24.9053 109.621 26.4824 110.602 28.0489C110.695 28.1961 110.788 28.3433 110.884 28.495C113.032 31.9082 114.91 35.5306 116.206 39.3602C116.351 39.7828 116.504 40.202 116.658 40.6216C118.927 46.9688 119.822 53.6371 119.83 60.3553C119.83 60.5042 119.831 60.6531 119.831 60.8066C119.831 63.4749 119.62 66.0728 119.208 68.7106C119.165 69.0066 119.165 69.0066 119.122 69.3086C118.564 73.1059 117.674 76.8127 116.339 80.4104C116.283 80.5646 116.226 80.7188 116.168 80.8776C115.418 82.897 114.548 84.8537 113.626 86.7998C113.53 87.0023 113.435 87.2049 113.337 87.4136C112.82 88.4858 112.268 89.4311 111.558 90.384C111.388 90.6921 111.224 91.0037 111.068 91.319C109.459 94.3389 107.189 97.2103 104.88 99.7171C104.494 100.151 104.146 100.599 103.8 101.065C103.169 101.895 102.461 102.626 101.612 103.235C101.486 103.235 101.36 103.235 101.23 103.235C101.184 103.345 101.139 103.455 101.092 103.568C97.4172 110.092 85.4221 114.726 78.8522 117.044C78.6991 117.1 78.546 117.155 78.3882 117.212C76.4267 117.916 74.4377 118.39 72.3971 118.806C72.0631 118.875 72.0631 118.875 71.7224 118.945C68.1013 119.651 64.5347 120.018 60.8447 119.996C60.2296 119.993 59.6149 119.996 58.9998 120C55.2832 120.004 51.6081 119.626 47.9635 118.89C47.7574 118.85 47.5513 118.809 47.3389 118.767C45.7637 118.446 44.2271 118.052 42.6998 117.551C42.3168 117.426 41.932 117.309 41.5465 117.193C36.1829 115.532 31.0211 113.019 26.4466 109.756C26.2523 109.617 26.058 109.479 25.8579 109.336C25.3497 108.969 24.8456 108.596 24.3427 108.221C24.2167 108.13 24.0907 108.039 23.9609 107.945C22.3083 106.736 20.7106 105.402 19.2915 103.923C18.9659 103.597 18.6229 103.304 18.2702 103.007C17.3023 102.17 16.4625 101.216 15.6118 100.262C15.3686 99.991 15.1228 99.7221 14.8768 99.4533C14.7303 99.2929 14.5839 99.1324 14.433 98.9671C14.3055 98.8276 14.1781 98.6882 14.0467 98.5445C13.4939 97.8932 12.9915 97.2091 12.4845 96.5216C12.3436 96.3342 12.3436 96.3342 12.1999 96.1429C9.76687 92.9041 7.69801 89.4521 5.98164 85.7808C5.86436 85.5329 5.86436 85.5329 5.74471 85.2801C4.78228 83.2394 3.89448 81.2498 3.30398 79.0678C3.21443 78.7994 3.12288 78.5316 3.02905 78.2646C2.25633 75.9612 1.65366 73.5899 1.20011 71.204C1.17598 71.0797 1.15185 70.9554 1.12699 70.8273C-1.14259 58.9608 0.429496 46.0685 5.59912 35.1455C5.70687 34.8996 5.81394 34.6533 5.92038 34.4068C7.48238 30.8519 9.57919 27.5014 11.9107 24.4047C12.0044 24.2727 12.0981 24.1407 12.1946 24.0046C13.0328 22.8329 14.0013 21.7648 14.9478 20.6811C15.3275 20.2461 15.7012 19.8073 16.0684 19.3617C16.5057 18.8369 16.9689 18.3604 17.4573 17.8835C17.5638 17.7688 17.6703 17.6541 17.7801 17.5359C18.0311 17.3081 18.0311 17.3081 18.4136 17.3081C18.4649 17.1855 18.5162 17.0629 18.569 16.9365C18.7961 16.5409 18.7961 16.5409 19.3699 16.3491C19.3699 16.2225 19.3699 16.0959 19.3699 15.9655C19.6622 15.6978 19.9679 15.4446 20.2784 15.1983C20.4729 15.0428 20.6675 14.8873 20.8679 14.7271C21.0201 14.6056 21.0201 14.6056 21.1754 14.4816C21.6307 14.1119 22.0703 13.7241 22.5138 13.3403C24.864 11.3732 27.4441 9.65656 30.0806 8.1017C30.2669 7.9855 30.4533 7.8693 30.6454 7.74957C36.0098 4.50332 42.3128 2.3924 48.4416 1.19689C48.5956 1.16494 48.7496 1.13298 48.9082 1.10006C57.6639 -0.711704 66.9971 -0.0941383 75.6007 2.1559Z" fill="#41CBE8"/>
<path d="M35.2633 25.9347C37.5833 27.1863 38.4864 29.6337 39.2185 32.0251C39.5603 33.1945 39.8349 34.307 39.8349 35.5292C39.9583 35.5025 40.0818 35.4758 40.209 35.4482C44.532 34.5783 49.5727 35.0169 53.7932 36.3279C55.3292 36.7543 56.2296 36.1877 57.5744 35.4693C65.2599 31.4972 74.0273 28.135 82.785 28.1808C82.9174 28.1811 83.0499 28.1813 83.1863 28.1815C86.1784 28.1914 89.1987 28.4141 92.0492 29.3916C92.2839 29.4702 92.5186 29.5488 92.7604 29.6298C95.5929 30.6149 97.9675 32.0886 100.273 33.9948C100.441 34.1327 100.608 34.2707 100.78 34.4129C104.875 37.9493 107.827 43.0994 109.519 48.1957C109.653 48.5941 109.793 48.9896 109.934 49.3853C114.307 61.8255 114.307 61.8255 112.61 65.7257C112.452 65.8879 112.294 66.0501 112.132 66.2172C112.04 66.3154 111.949 66.4135 111.854 66.5147C105.241 72.9974 92.6981 75.7862 84.2218 78.7288C83.5999 78.9451 82.9795 79.1649 82.3605 79.3893C81.1195 79.8384 79.8915 80.2607 78.6131 80.594C76.1128 81.1606 76.1128 81.1606 74.1827 82.7001C73.8045 83.3761 73.5333 84.0861 73.2723 84.8144C72.5106 86.6997 70.6862 88.357 69.2891 89.8087C69.1873 89.9155 69.0856 90.0223 68.9807 90.1323C68.1803 90.9564 67.3339 91.6795 66.4202 92.374C66.2785 92.4817 66.1369 92.5894 65.991 92.7004C63.6772 94.4334 61.2131 95.7337 58.5785 96.9053C58.3711 96.9982 58.1638 97.0912 57.9502 97.187C55.8403 98.1013 53.7083 98.6713 51.466 99.1469C51.2728 99.1881 51.0797 99.2293 50.8808 99.2717C43.0649 100.878 34.7047 99.2601 27.9931 94.9436C20.3018 89.7842 14.3567 82.3737 12.4337 73.1647C11.7571 69.6293 11.649 66.121 12.2933 62.573C12.3169 62.4355 12.3405 62.298 12.3649 62.1564C13.2562 57.0524 15.416 52.2703 18.6049 48.188C18.2845 47.3594 17.6705 46.8204 17.0628 46.1981C15.1356 44.1676 13.2856 41.7536 13.13 38.8617C13.1645 37.8128 13.3716 37.1858 14.0729 36.4073C15.2627 35.2966 16.7126 34.7289 18.3419 34.726C18.5549 34.7379 18.7679 34.7498 18.9874 34.762C18.9948 34.5495 18.9948 34.5495 19.0023 34.3327C19.1186 32.2483 19.5921 30.2335 21.175 28.7682C22.1392 28.1078 22.9877 27.8951 24.1515 28.049C25.6643 28.4253 27.1174 28.9735 28.5505 29.5834C28.5976 29.4135 28.6446 29.2437 28.6932 29.0687C29.2467 27.6005 30.5504 26.3896 31.9446 25.7039C33.0771 25.3142 34.1774 25.4646 35.2633 25.9347Z" fill="#765C81"/>
<path d="M82.9688 31.249C83.4421 31.2496 83.9152 31.2451 84.3885 31.2403C86.2586 31.2327 87.9411 31.3876 89.7543 31.885C89.9138 31.928 90.0733 31.971 90.2376 32.0154C96.3398 33.7673 100.905 37.8826 104.027 43.345C106.881 48.5248 108.363 54.1134 109.454 59.8878C109.511 60.185 109.511 60.185 109.569 60.4882C109.662 60.9748 109.751 61.4618 109.837 61.9496C109.873 62.1481 109.873 62.1481 109.909 62.3505C110.121 63.6503 110.121 63.6503 109.837 64.2992C103.051 70.6735 90.1222 73.5778 81.4617 76.5273C80.7093 76.7853 79.9586 77.0476 79.208 77.3109C78.8234 77.4454 78.4388 77.5799 78.0542 77.7143C77.8075 77.8008 77.5608 77.8875 77.3143 77.9745C76.9741 78.0945 76.6334 78.2133 76.2928 78.3321C76.0987 78.4002 75.9047 78.4684 75.7047 78.5386C75.2184 78.6842 75.2184 78.6842 74.6447 78.6842C74.6065 78.5453 74.5684 78.4064 74.5291 78.2632C70.9122 65.1907 66.122 51.4893 58.2238 40.3466C57.9142 39.8953 57.6523 39.4796 57.4312 38.9816C63.5026 35.5923 70.2501 32.8544 77.1311 31.6932C77.3257 31.6583 77.5204 31.6234 77.721 31.5875C79.4753 31.3003 81.1961 31.2443 82.9688 31.249Z" fill="#FED489"/>
<path d="M35.2633 25.9347C37.5833 27.1863 38.4864 29.6337 39.2185 32.0251C39.5603 33.1945 39.8349 34.307 39.8349 35.5292C39.9583 35.5025 40.0818 35.4758 40.209 35.4482C44.532 34.5783 49.5727 35.0169 53.7932 36.3279C55.3292 36.7543 56.2296 36.1877 57.5744 35.4693C65.2599 31.4972 74.0273 28.135 82.785 28.1808C82.9174 28.1811 83.0499 28.1813 83.1863 28.1815C86.1784 28.1914 89.1987 28.4141 92.0492 29.3916C92.2839 29.4702 92.5186 29.5488 92.7604 29.6298C95.5929 30.6149 97.9675 32.0886 100.273 33.9948C100.441 34.1327 100.608 34.2707 100.78 34.4129C104.875 37.9493 107.827 43.0994 109.519 48.1957C109.653 48.5941 109.793 48.9896 109.934 49.3853C114.307 61.8255 114.307 61.8255 112.61 65.7257C112.452 65.8879 112.294 66.0501 112.132 66.2172C112.04 66.3154 111.949 66.4135 111.854 66.5147C105.241 72.9974 92.6981 75.7862 84.2218 78.7288C83.5999 78.9451 82.9795 79.1649 82.3605 79.3893C81.1195 79.8384 79.8915 80.2607 78.6131 80.594C76.1128 81.1606 76.1128 81.1606 74.1827 82.7001C73.8045 83.3761 73.5333 84.0861 73.2723 84.8144C72.5106 86.6997 70.6862 88.357 69.2891 89.8087C69.1873 89.9155 69.0856 90.0223 68.9807 90.1323C68.1803 90.9564 67.3339 91.6795 66.4202 92.374C66.2785 92.4817 66.1369 92.5894 65.991 92.7004C63.6772 94.4334 61.2131 95.7337 58.5785 96.9053C58.3711 96.9982 58.1638 97.0912 57.9502 97.187C55.8403 98.1013 53.7083 98.6713 51.466 99.1469C51.2728 99.1881 51.0797 99.2293 50.8808 99.2717C43.0649 100.878 34.7047 99.2601 27.9931 94.9436C20.3018 89.7842 14.3567 82.3737 12.4337 73.1647C11.7571 69.6293 11.649 66.121 12.2933 62.573C12.3169 62.4355 12.3405 62.298 12.3649 62.1564C13.2562 57.0524 15.416 52.2703 18.6049 48.188C18.2845 47.3594 17.6705 46.8204 17.0628 46.1981C15.1356 44.1676 13.2856 41.7536 13.13 38.8617C13.1645 37.8128 13.3716 37.1858 14.0729 36.4073C15.2627 35.2966 16.7126 34.7289 18.3419 34.726C18.5549 34.7379 18.7679 34.7498 18.9874 34.762C18.9948 34.5495 18.9948 34.5495 19.0023 34.3327C19.1186 32.2483 19.5921 30.2335 21.175 28.7682C22.1392 28.1078 22.9877 27.8951 24.1515 28.049C25.6643 28.4253 27.1174 28.9735 28.5505 29.5834C28.5976 29.4135 28.6446 29.2437 28.6932 29.0687C29.2467 27.6005 30.5504 26.3896 31.9446 25.7039C33.0771 25.3142 34.1774 25.4646 35.2633 25.9347ZM75.2182 32.0768C75.043 32.1158 74.8678 32.1549 74.6873 32.1952C68.6865 33.5522 62.7735 35.9303 57.4309 38.9816C57.7346 39.6472 58.1292 40.21 58.5546 40.8037C60.8603 44.1025 62.7085 47.6624 64.5076 51.2568C64.601 51.4424 64.6945 51.628 64.7907 51.8193C66.4172 55.0689 67.7779 58.4225 69.0978 61.8058C69.1814 62.0192 69.2649 62.2326 69.3509 62.4525C70.4717 65.3398 71.4498 68.2717 72.4091 71.216C72.4659 71.3899 72.5227 71.5638 72.5812 71.743C73.3299 74.0414 74.0198 76.3489 74.6444 78.6843C75.5443 78.534 76.3868 78.2492 77.2496 77.9605C77.411 77.9069 77.5723 77.8534 77.7385 77.7982C78.2654 77.6228 78.7919 77.4464 79.3184 77.2697C79.5893 77.179 79.5893 77.179 79.8656 77.0865C82.8219 76.0955 85.756 75.059 88.674 73.9593C89.2794 73.732 89.8857 73.5073 90.4925 73.284C100.089 69.9646 100.089 69.9646 108.88 65.0664C109.081 64.9297 109.282 64.793 109.489 64.6522C110.094 64.1576 110.094 64.1576 110.077 63.4563C110.012 63.0895 110.012 63.0895 109.946 62.7154C109.912 62.5144 109.912 62.5144 109.878 62.3093C109.807 61.8845 109.726 61.4618 109.645 61.0386C109.599 60.7726 109.553 60.5064 109.508 60.2401C109.367 59.4249 109.21 58.6133 109.048 57.802C109.019 57.6574 108.99 57.5128 108.96 57.3639C107.519 50.2138 104.994 43.1789 99.8909 37.8308C99.7484 37.6735 99.6059 37.5163 99.4591 37.3543C96.2037 33.8851 91.0835 31.4919 86.3301 31.2756C86.0591 31.2706 85.7882 31.2667 85.5172 31.2639C85.3702 31.262 85.2232 31.2601 85.0717 31.2582C81.7132 31.2242 78.5051 31.3069 75.2182 32.0768ZM27.4029 43.7766C27.2468 43.8965 27.0908 44.0164 26.93 44.14C24.7649 45.8413 22.7072 47.6833 21.0315 49.8782C20.9251 50.0176 20.8188 50.1569 20.7092 50.3004C19.5873 51.8068 18.6935 53.4226 17.8398 55.0928C17.7742 55.2181 17.7085 55.3433 17.6408 55.4724C14.5116 61.5452 14.0082 68.8552 16.0669 75.342C17.4317 79.4165 19.4689 82.9567 22.3972 86.1015C22.6802 86.4057 22.957 86.7157 23.228 87.0306C24.2642 88.2318 25.3847 89.2237 26.6379 90.1923C26.9134 90.4089 26.9134 90.4089 27.1945 90.6298C30.4138 93.1138 33.8552 94.7848 37.731 95.9463C37.8701 95.9883 38.0093 96.0303 38.1527 96.0736C42.5106 97.3206 47.9304 97.2064 52.2669 95.9463C52.3985 95.9104 52.5301 95.8745 52.6657 95.8375C56.9518 94.6616 60.9912 92.7254 64.5076 90.0005C64.6945 89.8561 64.8813 89.7117 65.0739 89.5629C67.9553 87.2642 70.0418 84.6047 71.7755 81.3695C71.8566 81.2409 71.9377 81.1123 72.0213 80.9799C72.3558 80.056 71.8451 78.9672 71.5723 78.0609C71.5315 77.924 71.4907 77.7871 71.4486 77.646C71.356 77.3364 71.2629 77.0269 71.1695 76.7176C71.0563 76.3426 70.9436 75.9675 70.8312 75.5922C69.8779 72.3846 69.8779 72.3846 68.7295 69.2441C68.5081 68.6692 68.3286 68.0906 68.1535 67.4999C66.7778 62.9121 64.7399 58.4952 62.7862 54.1338C62.7175 53.9798 62.6487 53.8258 62.5779 53.6671C60.5928 49.2447 58.1928 44.849 55.1944 41.0305C55.0224 40.8084 54.8581 40.5802 54.7006 40.3476C53.8967 39.2476 53.018 39.0513 51.717 38.8138C51.4429 38.7567 51.4429 38.7567 51.1634 38.6984C42.9832 37.033 34.0835 38.6098 27.4029 43.7766Z" fill="#040406"/>
<path d="M47.6767 52.4076C47.906 52.487 48.1353 52.5663 48.3716 52.6481C52.4091 54.1147 55.8822 57.176 57.8136 61.0386C59.5806 65.0329 59.6358 69.0683 58.0923 73.1512C57.4436 74.7786 56.635 76.1755 55.5185 77.5334C55.4009 77.6825 55.2832 77.8316 55.1621 77.9852C52.7109 80.9421 49.1502 82.6409 45.3816 83.0956C41.0212 83.2909 36.9771 82.2095 33.6788 79.2117C30.6413 76.3339 28.4743 72.544 28.2951 68.2768C28.2285 64.276 29.1431 60.856 31.8021 57.778C31.9155 57.6368 32.0289 57.4957 32.1457 57.3502C35.8241 52.9222 42.1027 50.4004 47.6767 52.4076Z" fill="#FBFBFB"/>
<path d="M70.6282 33.4194C70.9025 33.7964 71.147 34.1748 71.3932 34.5702C71.5652 34.8339 71.5652 34.8339 71.7406 35.1029C72.7321 36.6314 72.7321 36.6314 72.7321 37.0636C72.8583 37.0636 72.9845 37.0636 73.1146 37.0636C73.5051 37.6209 73.6884 37.9078 73.6884 38.598C73.8146 38.598 73.9408 38.598 74.0709 38.598C74.1611 38.7683 74.1611 38.7683 74.2532 38.9419C74.6241 39.6288 74.9732 40.2584 75.4695 40.8637C75.7922 41.2832 75.7922 41.2832 75.7922 42.0504C75.9185 42.0504 76.0447 42.0504 76.1748 42.0504C76.2465 42.1827 76.3182 42.315 76.3922 42.4513C77.4629 44.452 77.4629 44.452 78.6014 46.4139C78.8639 46.8652 79.0417 47.32 79.2349 47.8045C79.3375 47.9706 79.4401 48.1368 79.5457 48.3079C79.8087 48.7635 79.8087 48.7635 79.8087 49.3389C79.9349 49.3389 80.0612 49.3389 80.1912 49.3389C80.3262 49.6545 80.3262 49.6545 80.4639 49.9764C80.5842 50.2554 80.7045 50.5344 80.8248 50.8133C80.8838 50.9517 80.9429 51.09 81.0037 51.2325C81.327 51.9798 81.6766 52.6721 82.1039 53.3667C82.6529 54.4903 83.1343 55.6417 83.5891 56.8063C83.7852 57.2949 83.9871 57.7798 84.1928 58.2643C84.2599 58.4226 84.327 58.5808 84.3961 58.7438C84.5301 59.059 84.6646 59.3739 84.7997 59.6886C85.1172 60.4366 85.4076 61.18 85.6534 61.955C85.863 62.6093 86.1404 63.1386 86.5029 63.7239C86.6383 64.0994 86.7612 64.4796 86.8734 64.8627C86.9388 65.0832 87.0041 65.3038 87.0714 65.531C87.2591 66.1866 87.443 66.8432 87.6265 67.5C87.9748 68.7432 88.3806 69.9626 88.8114 71.1795C89.0678 71.9237 89.222 72.5169 89.1805 73.3139C89.2436 73.4405 89.3068 73.5671 89.3718 73.6975C81.7247 76.4519 81.7247 76.4519 78.208 77.6719C77.945 77.7632 77.6822 77.8548 77.4194 77.9467C77.0569 78.0733 76.6939 78.1987 76.3309 78.3239C76.1286 78.394 75.9263 78.4641 75.7179 78.5363C75.2184 78.6843 75.2184 78.6843 74.6447 78.6843C74.6065 78.5454 74.5684 78.4064 74.5291 78.2633C70.9122 65.1908 66.122 51.4894 58.2238 40.3467C57.9142 39.8954 57.6523 39.4796 57.4312 38.9816C67.3954 33.4194 67.3954 33.4194 70.6282 33.4194Z" fill="#FBA972"/>
<path d="M50.7636 58.999C52.8154 60.5484 54.3252 62.6598 54.884 65.2043C55.3061 68.2556 54.4379 71.3254 52.6972 73.8413C51.016 76.0274 48.8313 77.4483 46.1465 78.1089C45.459 78.1897 44.7822 78.2005 44.0905 78.1928C43.9055 78.1912 43.7205 78.1896 43.5299 78.188C41.1201 78.1311 39.2822 77.4371 37.3485 75.9991C37.1991 75.8891 37.0497 75.779 36.8958 75.6657C34.6914 73.8797 33.2033 71.0958 32.9025 68.2692C32.7907 66.5796 32.8215 64.9058 33.5233 63.3403C33.598 63.1699 33.6727 62.9996 33.7497 62.824C35.0437 60.1809 37.2503 58.6129 39.8999 57.5128C43.414 56.3368 47.7196 56.8398 50.7636 58.999Z" fill="#010101"/>
<path d="M54.0198 52.1656C58.3744 55.6482 61.5328 59.9725 62.2127 65.6418C62.5913 71.1034 60.7403 76.1035 57.1703 80.2256C56.2632 81.2375 55.2798 82.1056 54.1797 82.9038C54.0152 83.0235 53.8508 83.1432 53.6814 83.2664C49.7651 85.9349 44.988 86.7299 40.385 85.8647C38.6189 85.4969 37.0384 84.8752 35.4361 84.0546C35.2623 83.9661 35.0884 83.8776 34.9094 83.7864C33.4716 82.9857 32.2571 81.8881 31.0371 80.794C30.8926 80.6677 30.7481 80.5413 30.5993 80.4112C27.2735 77.3218 25.5795 72.4668 25.2499 68.0498C25.0858 62.9709 27.069 58.3919 30.461 54.6762C31.1052 54.0075 31.1052 54.0075 31.4196 53.7502C31.5458 53.7502 31.6721 53.7502 31.8021 53.7502C31.8021 53.6236 31.8021 53.497 31.8021 53.3666C32.2412 53.0187 32.679 52.6985 33.1409 52.3836C33.278 52.2898 33.4151 52.196 33.5564 52.0993C35.4158 50.8544 37.4642 49.7028 39.6438 49.147C39.852 49.0888 39.852 49.0888 40.0645 49.0294C44.7128 47.8967 50.1938 49.4304 54.0198 52.1656ZM33.906 55.6682C33.6948 55.8384 33.6948 55.8384 33.4794 56.0121C30.8153 58.2422 28.8237 61.5933 28.3594 65.0664C27.9479 69.7826 29.1792 74.0475 32.1846 77.7252C34.5211 80.473 38.2085 82.6849 41.8359 83.0642C46.008 83.3345 49.9149 82.5125 53.2234 79.835C53.3679 79.7213 53.5123 79.6076 53.6612 79.4904C56.7342 76.9276 58.4538 73.1685 59.1525 69.286C59.5272 64.265 57.9556 60.4954 54.7318 56.7306C53.1009 54.975 51.0567 53.7089 48.8602 52.7912C48.6685 52.711 48.6685 52.711 48.4729 52.6293C43.2412 50.5751 38.0354 52.151 33.906 55.6682Z" fill="#040305"/>
<path d="M33.4397 28.5045C34.4607 28.767 34.9305 29.6379 35.448 30.4944C36.3229 32.1609 36.8516 34.2197 36.7749 36.1046C36.6282 36.1538 36.4815 36.203 36.3303 36.2537C30.926 38.1232 25.5729 40.7187 21.6413 45.0023C21.4599 45.1675 21.2784 45.3327 21.0914 45.5028C20.3959 45.4225 20.1299 45.1623 19.6928 44.6277C19.5772 44.4883 19.4616 44.3488 19.3425 44.2052C19.2253 44.0637 19.1082 43.9223 18.9876 43.7766C18.7646 43.5327 18.5415 43.289 18.3182 43.0454C17.1645 41.7131 16.1528 40.4104 16.1187 38.598C17.1965 37.875 18.04 37.7015 19.3223 37.627C19.6442 37.6072 19.966 37.585 20.2875 37.5603C20.4283 37.5522 20.569 37.544 20.714 37.5356C21.1944 37.4231 21.3699 37.2644 21.6652 36.8718C21.7544 36.3484 21.8152 35.8525 21.8565 35.3254C22.0012 33.8346 22.1586 32.3896 23.0041 31.1178C24.4246 31.1977 25.4881 31.5831 26.7695 32.1847C28.2611 32.946 28.2611 32.946 29.8895 33.0358C30.3611 32.5037 30.6132 31.9727 30.916 31.3298C32.1016 28.8318 32.1016 28.8318 33.4397 28.5045Z" fill="#FBD389"/>
<path d="M46.7203 12.597C47.4731 12.7386 47.7205 12.9084 48.2504 13.4721C48.5225 14.1618 48.6773 14.8708 48.8362 15.5939C48.9076 15.9006 48.9076 15.9006 48.9804 16.2135C49.1234 16.8333 49.261 17.4542 49.398 18.0753C49.4788 18.4287 49.5597 18.7821 49.6408 19.1355C49.7117 19.4533 49.7822 19.7712 49.8522 20.0892C49.8843 20.2322 49.9164 20.3751 49.9494 20.5223C50.1445 21.4502 50.1907 22.3056 50.163 23.2539C50.0368 23.2539 49.9106 23.2539 49.7805 23.2539C49.7174 23.4438 49.6543 23.6337 49.5892 23.8293C48.9744 24.1376 48.3583 24.0322 47.6766 24.0212C47.0498 23.0267 46.7348 22.1576 46.5089 21.0085C46.4765 20.8538 46.444 20.6991 46.4106 20.5397C46.3085 20.0503 46.2095 19.5604 46.1107 19.0703C46.0092 18.5769 45.9071 18.0837 45.8046 17.5906C45.7412 17.2849 45.6786 16.979 45.6168 16.673C45.4691 15.9144 45.4691 15.9144 45.1902 15.1983C45.0581 13.851 45.0581 13.851 45.5967 13.0885C46.1465 12.7049 46.1465 12.7049 46.7203 12.597Z" fill="#F3FCFC"/>
<path d="M66.6117 13.2804C67.1735 13.58 67.1735 13.58 67.568 14.0476C67.7191 15.3548 67.3001 16.5635 66.9464 17.8116C66.8889 18.0262 66.8315 18.2409 66.7723 18.462C66.6854 18.7727 66.6854 18.7727 66.5967 19.0898C66.5446 19.2771 66.4925 19.4644 66.4389 19.6574C66.1536 20.3751 65.7844 20.9836 65.0816 21.336C64.4115 21.409 64.0559 21.4132 63.4798 21.0483C63.0003 20.3085 63.0914 19.4987 63.2326 18.6528C63.3177 18.2735 63.4135 17.8991 63.5156 17.5239C63.5506 17.3911 63.5856 17.2583 63.6217 17.1214C63.6919 16.8572 63.763 16.5932 63.8351 16.3295C63.922 16.0098 64.0042 15.6888 64.0857 15.3677C64.4846 13.8778 64.8991 13.0393 66.6117 13.2804Z" fill="#F5FDFC"/>
<path d="M26.6382 34.3784C27.1881 34.6661 27.1881 34.6661 27.5945 35.1456C27.7349 35.8539 27.6692 36.4713 27.4271 37.1475C27.212 37.4472 27.212 37.4472 26.8295 37.639C26.1639 37.6884 25.6564 37.709 25.0364 37.4472C24.5635 36.8635 24.5194 36.2687 24.5343 35.5292C24.8674 34.4715 25.5979 34.2532 26.6382 34.3784Z" fill="#EB7941"/>
<path d="M21.6652 38.7898C22.1195 39.0895 22.1195 39.0895 22.4303 39.557C22.5454 40.3507 22.5078 40.759 22.1195 41.463C21.6652 41.8586 21.6652 41.8586 21.1153 41.9785C20.294 41.8137 19.926 41.5234 19.3701 40.8996C19.2623 40.2028 19.21 39.7863 19.6211 39.1974C20.2822 38.7554 20.8921 38.7107 21.6652 38.7898Z" fill="#EF743E"/>
<path d="M1.00899 49.3387C1.18439 49.9124 1.20249 50.3228 1.10014 50.9121C1.07457 51.0667 1.04901 51.2213 1.02267 51.3806C0.994488 51.5454 0.966304 51.7103 0.937267 51.8801C0.0690951 57.3857 -0.0963563 63.7695 1.1218 69.235C1.24167 69.899 1.22511 70.5309 1.20025 71.204C0.755395 70.5069 0.786618 69.9053 0.817728 69.0942C0.691496 69.0942 0.565264 69.0942 0.435206 69.0942C0.0544353 66.2886 -0.00673474 63.5123 0.00281354 60.6832C0.00486854 59.9595 0.00281972 59.2359 0.000385415 58.5122C-0.00234624 53.6066 -0.00234622 53.6066 0.435206 51.2567C0.498322 51.1935 0.561438 51.1302 0.626467 51.0649C0.665875 50.8103 0.696525 50.5542 0.722098 50.2977C0.796477 49.5519 0.796477 49.5519 1.00899 49.3387Z" fill="#E1FDFE"/>
<path d="M16.6923 34.3783C17.8743 34.4738 17.8743 34.4738 18.9874 34.1865C18.9874 34.3764 18.9874 34.5663 18.9874 34.7619C18.8417 34.7807 18.696 34.7995 18.5459 34.8189C16.2955 35.1457 14.6482 35.7689 13.2496 37.6389C13.3127 37.1326 13.3758 36.6262 13.4409 36.1045C13.6302 36.0412 13.8196 35.9779 14.0147 35.9127C13.8312 35.8831 13.8312 35.8831 13.6441 35.8528C13.5139 35.8093 13.3837 35.7658 13.2496 35.7209C13.1865 35.531 13.1234 35.3412 13.0583 35.1455C13.2122 35.0545 13.366 34.9636 13.5245 34.8698C13.9855 34.6144 13.9855 34.6144 14.2059 34.3783C15.1276 34.2243 15.781 34.1825 16.6923 34.3783Z" fill="#3FCDE8"/>
<path d="M109.454 47.9962C109.58 47.9962 109.707 47.9962 109.837 47.9962C109.887 48.1651 109.938 48.3339 109.991 48.5079C110.092 48.8421 110.092 48.8421 110.195 49.183C110.262 49.4033 110.328 49.6236 110.397 49.8505C110.656 50.8156 110.656 50.8156 111.175 51.6404C111.22 51.995 111.254 52.351 111.283 52.7073C111.299 52.9014 111.315 53.0955 111.332 53.2954C111.343 53.4455 111.355 53.5956 111.367 53.7502C111.493 53.7502 111.619 53.7502 111.749 53.7502C111.749 54.4465 111.749 55.1427 111.749 55.86C111.875 55.86 112.002 55.86 112.132 55.86C112.63 57.2324 112.78 58.4306 112.706 59.8878C112.516 59.9828 112.516 59.9828 112.323 60.0796C112.283 59.8501 112.283 59.8501 112.242 59.616C111.626 56.1454 110.866 52.8053 109.789 49.4451C109.648 48.9649 109.544 48.4884 109.454 47.9962Z" fill="#50BFD2"/>
<path d="M119.208 52.024C119.685 52.3785 119.778 52.5716 119.879 53.1681C119.89 53.4054 119.901 53.6428 119.912 53.8874C119.919 54.0205 119.925 54.1537 119.931 54.2909C120.005 56.057 120.002 57.8258 119.998 59.5932C119.997 60.1873 119.998 60.7813 120 61.3754C120.002 66.1864 120.002 66.1864 119.782 67.5599C119.593 67.6548 119.593 67.6548 119.4 67.7517C119.394 67.4001 119.391 67.0484 119.388 66.6968C119.386 66.501 119.383 66.3051 119.381 66.1034C119.4 65.4501 119.4 65.4501 119.495 64.7391C119.597 63.9467 119.619 63.1615 119.616 62.3633C119.617 62.1476 119.617 62.1476 119.617 61.9275C119.617 61.6245 119.617 61.3215 119.616 61.0184C119.615 60.5656 119.616 60.1129 119.617 59.6601C119.618 57.1037 119.495 54.5658 119.208 52.024Z" fill="#D5FAFC"/>
<path d="M4.64294 37.2554C4.88783 38.002 4.71403 38.411 4.41806 39.1322C4.25624 39.5682 4.15889 39.988 4.06916 40.4441C3.95611 41.0061 3.84116 41.3526 3.5671 41.8706C3.21781 42.6189 3.26183 43.1485 3.30411 43.9684C3.17788 43.9684 3.05165 43.9684 2.92159 43.9684C2.89792 44.0675 2.87426 44.1667 2.84987 44.2688C2.63519 45.1071 2.38565 45.9358 2.14459 46.7667C1.99743 47.3035 1.87344 47.8325 1.77402 48.3798C1.71091 48.3798 1.64779 48.3798 1.58276 48.3798C1.67082 46.9558 1.88635 45.6391 2.27609 44.2681C2.32595 44.0886 2.37581 43.9091 2.42719 43.7242C3.04899 41.5331 3.78006 39.3635 4.64294 37.2554Z" fill="#5AC7DE"/>
<path d="M71.5844 87.1234C71.6475 87.3133 71.7106 87.5032 71.7757 87.6988C71.5863 87.7621 71.397 87.8254 71.2019 87.8906C71.1822 88.0251 71.1624 88.1596 71.1421 88.2982C70.9927 88.9247 70.7389 89.4341 70.4368 90.0004C70.0581 90.0004 69.6794 90.0004 69.2893 90.0004C69.2262 90.1903 69.163 90.3802 69.098 90.5758C68.9718 90.6391 68.8455 90.7024 68.7155 90.7676C68.6524 90.9575 68.5893 91.1474 68.5242 91.343C68.6505 91.343 68.7767 91.343 68.9068 91.343C68.8436 91.5329 68.7805 91.7228 68.7155 91.9184C68.5893 91.9184 68.463 91.9184 68.333 91.9184C68.333 91.7918 68.333 91.6652 68.333 91.5348C68.2186 91.6021 68.1042 91.6693 67.9863 91.7386C67.5679 91.9184 67.5679 91.9184 66.9941 91.7266C67.2268 91.5175 67.2268 91.5175 67.4641 91.3041C68.9228 89.98 70.2808 88.6009 71.5844 87.1234Z" fill="#47C4DC"/>
<path d="M0.817782 51.2568C0.880898 51.2568 0.944014 51.2568 1.00904 51.2568C1.01376 52.0182 1.01724 52.7795 1.01955 53.5408C1.02051 53.8 1.02182 54.0591 1.02347 54.3183C1.02578 54.6901 1.02677 55.0619 1.02772 55.4337C1.02872 55.6577 1.02972 55.8817 1.03076 56.1125C1.00904 56.6272 1.00904 56.6272 0.817782 56.819C0.626381 58.1939 0.569763 59.5685 0.518936 60.9547C0.510677 61.1665 0.502417 61.3783 0.493908 61.5964C0.473809 62.1138 0.454272 62.6311 0.435259 63.1485C0.372143 63.1485 0.309027 63.1485 0.243998 63.1485C0.14227 54.9307 0.14227 54.9307 0.817782 51.2568Z" fill="#67CCE2"/>
<path d="M74.8359 2.15588C76.7584 2.3701 78.5751 2.99827 80.3825 3.66631C80.5652 3.73331 80.748 3.80032 80.9362 3.86935C82.1818 4.33123 83.4004 4.82275 84.5903 5.41649C83.9171 5.64152 83.8252 5.57628 83.2059 5.29137C83.0489 5.22152 82.892 5.15168 82.7303 5.07971C82.4025 4.9296 82.0747 4.77926 81.7471 4.62868C80.8757 4.24129 80.2106 3.97014 79.2349 4.07389C79.2349 3.9473 79.2349 3.82071 79.2349 3.69029C79.0417 3.64677 78.8484 3.60326 78.6492 3.55842C77.3544 3.23676 76.0974 2.77924 74.8359 2.34768C74.8359 2.28439 74.8359 2.2211 74.8359 2.15588Z" fill="#5BC7DC"/>
<path d="M63.5514 16.541C63.6146 16.541 63.6777 16.541 63.7427 16.541C63.572 17.9837 63.572 17.9837 63.4439 18.5549C63.3042 19.3552 63.1649 20.2207 63.5754 20.9524C64.1247 21.2462 64.4681 21.2426 65.0815 21.1442C66.1177 20.4193 66.332 19.4414 66.6116 18.2672C66.6747 18.2672 66.7379 18.2672 66.8029 18.2672C66.7914 18.643 66.7745 19.0186 66.7551 19.394C66.7418 19.7078 66.7418 19.7078 66.7282 20.0279C66.6116 20.5688 66.6116 20.5688 66.2201 20.834C66.0969 20.8731 65.9736 20.9122 65.8466 20.9524C65.8466 21.079 65.8466 21.2056 65.8466 21.336C65.394 21.5629 65.1068 21.5534 64.6034 21.5518C64.4515 21.5523 64.2996 21.5528 64.1432 21.5533C63.7427 21.5278 63.7427 21.5278 63.3602 21.336C63.3602 21.2094 63.3602 21.0828 63.3602 20.9524C63.234 20.9524 63.1077 20.9524 62.9777 20.9524C62.6923 19.4355 62.7931 17.9143 63.5514 16.541Z" fill="#5EC8DC"/>
<path d="M43.0864 2.92319C42.6411 3.11738 42.195 3.30908 41.7476 3.49859C41.5955 3.56312 41.4434 3.62766 41.2866 3.69414C40.5224 4.0104 39.781 4.29512 38.9743 4.48157C38.2988 4.58978 38.2988 4.58978 37.9224 5.033C37.5772 5.14088 37.5772 5.14088 37.1813 5.2248C36.6106 5.3552 36.1479 5.52949 35.6273 5.8002C35.4379 5.8002 35.2486 5.8002 35.0535 5.8002C35.0535 5.92679 35.0535 6.05337 35.0535 6.1838C34.7379 6.1838 34.4223 6.1838 34.0972 6.1838C34.6508 5.73581 35.1846 5.44099 35.8402 5.16636C36.0303 5.08645 36.2205 5.00655 36.4164 4.92422C36.6175 4.84144 36.8186 4.75866 37.0259 4.67337C37.2312 4.58849 37.4365 4.50361 37.648 4.41615C42.1603 2.56926 42.1603 2.56926 43.0864 2.92319Z" fill="#5EC8DE"/>
<path d="M41.0092 99.1019C41.8472 99.221 42.665 99.2502 43.5101 99.2675C43.6737 99.2715 43.8374 99.2755 44.006 99.2796C44.5243 99.2921 45.0426 99.3034 45.5609 99.3147C45.9142 99.323 46.2674 99.3314 46.6207 99.3398C47.4827 99.3603 48.3448 99.3797 49.2068 99.3987C49.2068 99.462 49.2068 99.5252 49.2068 99.5905C47.7621 99.7667 46.3342 99.8191 44.8795 99.8182C44.6625 99.8183 44.4454 99.8185 44.2218 99.8186C42.5413 99.8081 40.9182 99.6798 39.2612 99.3987C39.2612 99.3354 39.2612 99.2721 39.2612 99.2069C39.8851 99.0695 40.3736 99.01 41.0092 99.1019Z" fill="#04232C"/>
<path d="M102.951 35.5292C103.425 35.7191 103.425 35.7191 103.908 35.9128C103.864 36.0196 103.821 36.1264 103.776 36.2364C103.673 36.7033 103.673 36.7033 103.943 37.1835C104.245 37.6562 104.245 37.6562 104.673 37.8068C105.303 38.1621 105.412 38.7003 105.629 39.3652C105.547 39.7922 105.547 39.7922 105.438 40.1324C105.372 40.0444 105.307 39.9565 105.239 39.8659C104.939 39.4631 104.638 39.0605 104.338 38.6579C104.235 38.5196 104.132 38.3813 104.026 38.2387C103.487 37.5179 102.944 36.8036 102.377 36.1046C102.567 35.9147 102.756 35.7248 102.951 35.5292Z" fill="#48C4D9"/>
<path d="M98.5523 73.3138C98.5523 73.4404 98.5523 73.567 98.5523 73.6974C98.3629 73.6974 98.1736 73.6974 97.9785 73.6974C97.9785 73.824 97.9785 73.9506 97.9785 74.081C98.0416 74.1443 98.1047 74.2076 98.1698 74.2728C98.1151 74.5942 98.0516 74.9142 97.9785 75.2318C96.4723 75.064 96.4723 75.064 96.2571 74.8482C95.8256 74.9325 95.4053 75.0472 94.9803 75.1599C94.5049 75.2369 94.2278 75.1694 93.7708 75.04C94.4955 74.7513 95.2209 74.464 95.9463 74.1769C96.153 74.0946 96.3596 74.0123 96.5724 73.9275C96.7697 73.8496 96.9669 73.7717 97.1701 73.6914C97.3524 73.6191 97.5347 73.5468 97.7225 73.4723C98.1698 73.3138 98.1698 73.3138 98.5523 73.3138Z" fill="#42BCD0"/>
<path d="M49.7805 34.9537C49.6543 34.9537 49.5281 34.9537 49.398 34.9537C49.398 35.0803 49.398 35.2069 49.398 35.3373C49.8398 35.4006 50.2817 35.4639 50.7369 35.5291C50.068 35.7554 49.6061 35.6768 48.9199 35.5411C47.4721 35.3147 46.0445 35.2998 44.5806 35.3014C44.3536 35.3013 44.1265 35.3012 43.8925 35.3011C42.5304 35.3093 41.1889 35.3792 39.835 35.5291C39.835 35.4026 39.835 35.276 39.835 35.1455C40.9068 34.9677 41.9563 34.9111 43.0416 34.8863C43.2166 34.8819 43.3917 34.8774 43.572 34.8729C43.9398 34.8638 44.3075 34.8551 44.6753 34.8468C45.239 34.8339 45.8026 34.819 46.3662 34.8039C46.7243 34.7953 47.0825 34.7868 47.4406 34.7784C47.6091 34.7738 47.7777 34.7693 47.9513 34.7645C48.1078 34.7613 48.2643 34.7581 48.4255 34.7547C48.5629 34.7515 48.7003 34.7482 48.8418 34.7449C49.2068 34.7619 49.2068 34.7619 49.7805 34.9537Z" fill="#57C2D6"/>
<path d="M57.6224 34.9537C57.938 34.9537 58.2536 34.9537 58.5787 34.9537C57.4767 35.8252 56.0693 36.8326 54.61 36.6799C54.3372 36.6244 54.066 36.5604 53.7972 36.4881C53.5764 36.4373 53.5764 36.4373 53.3512 36.3855C52.9879 36.2994 52.6272 36.203 52.2671 36.1045C52.2671 36.0412 52.2671 35.9779 52.2671 35.9127C52.479 35.9194 52.479 35.9194 52.6952 35.9262C54.069 35.9507 55.3252 35.8202 56.6661 35.5291C56.9848 35.4649 57.3035 35.4008 57.6224 35.3373C57.6224 35.2107 57.6224 35.0842 57.6224 34.9537Z" fill="#4BC0D7"/>
<path d="M6.74693 86.3562C6.81004 86.6094 6.87316 86.8626 6.93819 87.1234C7.06442 87.1234 7.19065 87.1234 7.32071 87.1234C7.51285 87.5306 7.70391 87.9382 7.89449 88.3461C8.001 88.5731 8.10751 88.8001 8.21725 89.0339C8.46828 89.6168 8.46828 89.6168 8.46828 90.0004C8.65762 89.9371 8.84697 89.8738 9.04206 89.8086C9.07904 89.9288 9.11602 90.0489 9.15413 90.1727C9.20393 90.3295 9.25373 90.4862 9.30504 90.6477C9.35386 90.8035 9.40268 90.9593 9.45297 91.1197C9.59644 91.5664 9.59644 91.5664 9.99837 91.9184C9.92664 92.326 9.92664 92.326 9.80711 92.6856C9.44328 92.087 9.08116 91.4873 8.71931 90.8875C8.61785 90.7206 8.5164 90.5537 8.41187 90.3818C6.89907 87.8688 6.89907 87.8688 6.55566 86.9316C6.61878 86.7417 6.6819 86.5518 6.74693 86.3562Z" fill="#52C7DC"/>
<path d="M19.7527 30.926C19.8158 30.926 19.8789 30.926 19.9439 30.926C19.9439 31.4324 19.9439 31.9387 19.9439 32.4604C19.7546 32.5237 19.5652 32.587 19.3701 32.6522C19.3701 33.4751 19.3701 34.2979 19.3701 35.1456C18.8494 35.1872 18.8494 35.1872 18.3182 35.2295C17.3896 35.3068 16.4683 35.4046 15.5449 35.5292C16.7132 34.8984 17.6777 34.7167 18.9876 34.762C18.9948 34.6137 19.0019 34.4653 19.0093 34.3125C19.0875 33.0699 19.2501 32.0655 19.7527 30.926Z" fill="#0A2D3A"/>
<path d="M73.8794 75.2318C74.0056 75.2318 74.1319 75.2318 74.2619 75.2318C74.3881 75.3584 74.5144 75.485 74.6444 75.6154C74.7707 75.6154 74.8969 75.6154 75.027 75.6154C75.0029 75.8164 75.0029 75.8164 74.9784 76.0215C74.9589 76.196 74.9394 76.3706 74.9194 76.5504C74.8994 76.724 74.8794 76.8976 74.8589 77.0764C74.7981 77.5366 74.7981 77.5366 75.027 77.917C75.5103 78.0428 75.5103 78.0428 75.9833 78.1088C75.9833 77.9822 75.9833 77.8556 75.9833 77.7252C76.362 77.7252 76.7407 77.7252 77.1308 77.7252C76.7385 78.1186 76.5054 78.2318 75.9952 78.4205C75.8633 78.4704 75.7314 78.5204 75.5955 78.5718C75.2182 78.6842 75.2182 78.6842 74.6444 78.6842C74.5157 78.253 74.3885 77.8214 74.2619 77.3896C74.1909 77.1492 74.1199 76.9089 74.0467 76.6613C73.8794 75.999 73.8794 75.999 73.8794 75.2318Z" fill="#EA9F71"/>
<path d="M57.4312 0.0461297C58.7246 0.0364066 60.018 0.0296865 61.3115 0.0250579C61.7515 0.0231284 62.1916 0.0205104 62.6316 0.0171911C63.264 0.0125402 63.8963 0.0103622 64.5287 0.00866871C64.824 0.0056989 64.824 0.0056989 65.1253 0.0026691C65.309 0.00264012 65.4928 0.00261115 65.6821 0.0025813C65.8435 0.00172947 66.0049 0.00087764 66.1712 0C66.651 0.0502437 66.9623 0.188207 67.3767 0.42973C67.3767 0.493024 67.3767 0.556318 67.3767 0.621531C67.2128 0.608937 67.0488 0.596343 66.8799 0.583367C64.8507 0.43664 62.8238 0.370679 60.7902 0.321843C60.4623 0.31353 60.1345 0.305164 59.8066 0.296744C59.0148 0.276522 58.223 0.257019 57.4312 0.23793C57.4312 0.174636 57.4312 0.111342 57.4312 0.0461297Z" fill="#CAF4F9"/>
<path d="M23.0041 31.1178C23.2792 31.1398 23.5541 31.1642 23.8289 31.1897C24.0585 31.2097 24.0585 31.2097 24.2928 31.2302C24.7254 31.3096 24.7254 31.3096 25.2992 31.6932C25.1099 31.8198 24.9205 31.9464 24.7254 32.0768C24.615 32.0135 24.5045 31.9502 24.3907 31.885C23.9223 31.6413 23.9223 31.6413 23.1953 31.6932C23.1953 31.9464 23.1953 32.1996 23.1953 32.4604C23.006 32.7452 23.006 32.7452 22.8128 33.0358C22.7382 33.4174 22.6728 33.8011 22.6215 34.1866C22.5584 34.1866 22.4953 34.1866 22.4303 34.1866C22.3672 34.5031 22.3041 34.8195 22.239 35.1456C22.1759 35.1456 22.1128 35.1456 22.0478 35.1456C21.9672 33.692 22.1871 32.3467 23.0041 31.1178Z" fill="#E1C68C"/>
<path d="M51.8846 0.813295C51.4529 1.24621 51.3152 1.26558 50.7318 1.35348C50.5803 1.37734 50.4288 1.4012 50.2727 1.42578C50.1143 1.44915 49.9559 1.47251 49.7927 1.49658C49.4801 1.54438 49.1675 1.59256 48.855 1.64118C48.7162 1.66184 48.5775 1.6825 48.4345 1.70379C48.0205 1.77026 48.0205 1.77026 47.4856 1.9641C47.0394 1.97168 46.5929 1.97254 46.1467 1.9641C46.1467 2.09068 46.1467 2.21727 46.1467 2.3477C45.5156 2.3477 44.8844 2.3477 44.2341 2.3477C45.3195 1.80349 46.4468 1.61704 47.629 1.36472C47.9877 1.28498 47.9877 1.28498 48.3537 1.20364C49.5533 0.945502 50.6572 0.742165 51.8846 0.813295Z" fill="#5DC8DF"/>
<path d="M117.87 45.5028C118.373 46.4245 118.531 47.4067 118.742 48.4278C118.785 48.6326 118.828 48.8374 118.872 49.0485C119.199 50.684 119.373 52.2744 119.4 53.942C118.888 53.4286 118.95 53.1107 118.91 52.3956C118.929 51.6695 118.929 51.6695 118.635 51.065C118.567 50.6466 118.509 50.2267 118.455 49.8063C118.351 49.0329 118.246 48.2808 118.037 47.5287C117.86 46.8064 117.839 46.2403 117.87 45.5028Z" fill="#5EC6DA"/>
<path d="M114.045 34.5702C114.516 35.0427 114.639 35.4537 114.869 36.0806C115.271 37.1603 115.705 38.2203 116.164 39.2768C116.34 39.7488 116.34 39.7488 116.34 40.3242C116.213 40.3242 116.087 40.3242 115.957 40.3242C115.925 40.2058 115.892 40.0873 115.859 39.9653C115.537 38.8381 115.194 37.7067 114.618 36.68C114.492 36.6167 114.366 36.5534 114.236 36.4882C114.173 36.6781 114.11 36.868 114.045 37.0636C113.852 36.4642 113.881 36.1288 114.045 35.5292C114.052 35.2096 114.053 34.8897 114.045 34.5702Z" fill="#5BC9DE"/>
<path d="M99.3171 33.2275C99.7594 33.1916 99.7594 33.1916 100.273 33.2275C100.356 33.3185 100.439 33.4095 100.524 33.5032C100.918 33.8688 101.111 33.8603 101.636 33.9108C101.881 33.9385 102.125 33.9662 102.377 33.9947C102.44 34.1213 102.504 34.2479 102.569 34.3783C102.442 34.3783 102.316 34.3783 102.186 34.3783C102.123 34.7581 102.06 35.1379 101.995 35.5291C101.605 35.2848 101.222 35.0284 100.847 34.7619C100.847 34.6353 100.847 34.5088 100.847 34.3783C100.737 34.3309 100.626 34.2834 100.513 34.2345C100.025 33.9627 99.6962 33.6349 99.3171 33.2275Z" fill="#45C6DD"/>
<path d="M15.7361 34.1865C15.8544 34.2182 15.9728 34.2498 16.0947 34.2824C16.9935 34.4266 18.1535 34.6047 18.9875 34.1865C18.9875 34.3764 18.9875 34.5663 18.9875 34.7619C18.844 34.7807 18.7006 34.7995 18.5527 34.8189C17.2007 35.0169 16.0229 35.3446 14.7798 35.9127C14.8429 35.6595 14.906 35.4064 14.971 35.1455C15.1604 35.1455 15.3497 35.1455 15.5448 35.1455C15.6079 34.8291 15.6711 34.5126 15.7361 34.1865Z" fill="#4EC1DA"/>
<path d="M0.243942 63.1484C0.307058 63.1484 0.370174 63.1484 0.435203 63.1484C0.444787 63.2778 0.454372 63.4072 0.464247 63.5406C0.509136 64.1372 0.555836 64.7337 0.602556 65.3302C0.617596 65.5336 0.632635 65.7371 0.64813 65.9468C0.737377 67.0689 0.871275 68.1506 1.1218 69.2486C1.24449 69.9071 1.22492 70.536 1.20025 71.2041C0.755392 70.507 0.786615 69.9054 0.817725 69.0942C0.691493 69.0942 0.56526 69.0942 0.435203 69.0942C0.239213 67.1078 0.223856 65.1425 0.243942 63.1484Z" fill="#D1F8FD"/>
<path d="M45.1905 15.1984C45.6921 15.7014 45.7194 16.0869 45.8681 16.7807C45.9195 17.02 45.9709 17.2594 46.0239 17.506C46.0629 17.6932 46.0629 17.6932 46.1027 17.8843C46.1825 18.2661 46.2651 18.6472 46.3482 19.0284C46.7451 20.9033 46.7451 20.9033 46.5293 21.336C46.0638 20.3827 45.8893 19.7352 45.9556 18.6508C45.8293 18.5875 45.7031 18.5242 45.573 18.459C45.1963 17.3934 45.15 16.3167 45.1905 15.1984Z" fill="#5FC9DF"/>
<path d="M107.35 23.6376C108.28 24.4851 108.95 25.47 109.645 26.5146C109.774 26.7059 109.903 26.8973 110.035 27.0945C110.159 27.2829 110.283 27.4713 110.41 27.6654C110.525 27.8394 110.639 28.0135 110.757 28.1928C110.832 28.3352 110.907 28.4777 110.984 28.6244C110.921 28.751 110.858 28.8776 110.793 29.008C110.165 28.4725 109.834 27.8127 109.454 27.09C109.454 26.9634 109.454 26.8368 109.454 26.7064C109.328 26.7064 109.202 26.7064 109.071 26.7064C108.995 26.5224 108.995 26.5224 108.916 26.3348C108.711 25.8756 108.711 25.8756 108.115 25.7474C107.912 25.2199 107.912 25.2199 107.733 24.5966C107.608 24.276 107.481 23.9559 107.35 23.6376Z" fill="#5FC7DA"/>
<path d="M25.1079 28.2408C25.4465 28.2305 25.7853 28.223 26.124 28.2169C26.3126 28.2124 26.5012 28.208 26.6955 28.2034C27.2118 28.2408 27.2118 28.2408 27.7856 28.6244C27.7856 28.751 27.7856 28.8776 27.7856 29.008C27.9118 28.8814 28.038 28.7549 28.1681 28.6244C28.5745 28.6964 28.5745 28.6964 28.9331 28.8162C28.8069 29.0694 28.6807 29.3226 28.5506 29.5834C27.752 29.4522 27.0433 29.1972 26.2913 28.9001C26.0692 28.8129 25.8471 28.7256 25.6182 28.6357C25.3656 28.5352 25.3656 28.5352 25.1079 28.4326C25.1079 28.3693 25.1079 28.306 25.1079 28.2408Z" fill="#4FB6CB"/>
<path d="M117.678 74.8483C117.939 75.6331 117.688 76.1973 117.451 76.9581C117.407 77.1032 117.364 77.2483 117.319 77.3978C116.968 78.5445 116.58 79.6752 116.148 80.7941C116.085 80.7941 116.022 80.7941 115.957 80.7941C115.888 79.83 116.106 79.3442 116.531 78.4925C116.633 78.1147 116.728 77.7348 116.818 77.3537C117.027 76.4621 117.286 75.6737 117.678 74.8483Z" fill="#54CADB"/>
<path d="M112.706 65.0664C113.088 65.6418 113.088 65.6418 113.088 66.0254C112.984 66.4857 112.855 66.9194 112.706 67.368C112.568 67.3324 112.429 67.2968 112.287 67.2601C111.725 67.1724 111.34 67.227 110.793 67.368C110.935 67.2296 111.077 67.0911 111.223 66.9484C111.789 66.368 112.341 65.7969 112.706 65.0664Z" fill="#48C4E1"/>
<path d="M111.94 30.3506C112.067 30.3506 112.193 30.3506 112.323 30.3506C112.605 30.7364 112.605 30.7364 112.909 31.2496C113.01 31.4165 113.11 31.5834 113.214 31.7554C113.464 32.256 113.582 32.6764 113.662 33.2276C113.851 33.2276 114.04 33.2276 114.236 33.2276C114.483 34.0177 114.668 34.6984 114.618 35.5292C114.182 34.8732 113.842 34.1846 113.494 33.4793C113.397 33.283 113.397 33.283 113.298 33.0826C113.167 32.8185 113.036 32.5543 112.906 32.29C112.586 31.6428 112.263 30.9967 111.94 30.3506Z" fill="#DAFCFE"/>
<path d="M12.8672 23.0621C12.9303 23.1887 12.9934 23.3153 13.0584 23.4457C12.6759 24.0211 12.2934 24.5965 11.9109 25.1719C11.9109 25.4251 11.9109 25.6783 11.9109 25.9391C11.7215 25.9391 11.5322 25.9391 11.3371 25.9391C10.9694 26.3656 10.9694 26.3656 10.6318 26.8981C10.5127 27.0762 10.3936 27.2542 10.2709 27.4376C10.181 27.576 10.091 27.7145 9.99825 27.8571C9.87201 27.7938 9.74578 27.7306 9.61572 27.6653C10.6868 26.1218 11.7754 24.591 12.8672 23.0621Z" fill="#5CC6DC"/>
<path d="M67.9504 0.621582C68.5243 0.648846 69.098 0.676939 69.6718 0.705495C69.8323 0.713036 69.9928 0.720576 70.1582 0.728346C73.0597 0.874961 73.0597 0.874961 73.8795 1.38878C73.8795 1.51537 73.8795 1.64196 73.8795 1.77238C72.636 1.60241 71.3995 1.39344 70.1619 1.185C69.949 1.14927 69.7361 1.11354 69.5168 1.07673C68.9946 0.989091 68.4725 0.901304 67.9504 0.813382C67.9504 0.750088 67.9504 0.686794 67.9504 0.621582Z" fill="#C9F8FC"/>
<path d="M76.5572 81.3694C76.4941 81.5593 76.431 81.7491 76.366 81.9448C76.149 81.9923 75.9321 82.0397 75.7085 82.0886C75.4837 82.1678 75.2588 82.2469 75.0272 82.3284C74.7766 82.9999 74.7766 82.9999 74.6446 83.671C74.4553 83.7343 74.2659 83.7976 74.0709 83.8628C74.0077 84.0527 73.9446 84.2426 73.8796 84.4382C73.7534 84.3749 73.6271 84.3116 73.4971 84.2464C73.6918 83.8361 73.8915 83.4297 74.0948 83.0237C74.2612 82.6832 74.2612 82.6832 74.431 82.3359C75.0101 81.5022 75.5705 81.3694 76.5572 81.3694Z" fill="#4FBCCF"/>
<path d="M106.777 97.2888C106.84 97.4787 106.903 97.6686 106.968 97.8642C106.783 98.1602 106.783 98.1602 106.49 98.4756C106.384 98.592 106.279 98.7085 106.17 98.8285C106.055 98.9533 105.939 99.0782 105.82 99.2068C105.58 99.4778 105.341 99.7495 105.103 100.022C104.994 100.146 104.884 100.269 104.771 100.397C104.449 100.767 104.449 100.767 104.099 101.317C103.973 101.317 103.846 101.317 103.716 101.317C103.653 101.507 103.59 101.696 103.525 101.892C103.399 101.892 103.273 101.892 103.143 101.892C103.444 101.176 103.893 100.693 104.422 100.13C105.262 99.2199 106.038 98.2827 106.777 97.2888Z" fill="#DBFCFE"/>
<path d="M86.1202 78.3006C85.7377 78.6842 85.7377 78.6842 85.3432 78.7801C85.221 78.8118 85.0987 78.8434 84.9727 78.876C84.9096 79.0026 84.8464 79.1292 84.7814 79.2596C84.1921 79.4713 83.6334 79.4716 83.0123 79.4634C82.8416 79.4617 82.671 79.46 82.4952 79.4582C82.3661 79.4559 82.2369 79.4537 82.1038 79.4514C82.7438 79.0236 83.3895 78.7946 84.112 78.5524C84.2414 78.5068 84.3709 78.4611 84.5042 78.4141C85.4777 78.0858 85.4777 78.0858 86.1202 78.3006Z" fill="#47B6CA"/>
<path d="M98.361 69.286C98.8659 69.286 99.3708 69.286 99.891 69.286C99.5782 69.9134 98.9108 70.0348 98.2892 70.281C98.0925 70.3631 98.0925 70.3631 97.8918 70.4469C96.9014 70.844 96.9014 70.844 96.2571 70.6286C96.8557 69.9129 97.2614 69.7911 98.1697 69.6696C98.2328 69.543 98.2959 69.4164 98.361 69.286Z" fill="#F2D396"/>
<path d="M111.941 55.86C112.636 57.2404 112.755 58.3528 112.706 59.8878C112.579 59.9511 112.453 60.0144 112.323 60.0796C112.05 58.6581 111.883 57.3083 111.941 55.86Z" fill="#46C4D8"/>
<path d="M74.8358 28.2407C74.8358 28.4306 74.8358 28.6205 74.8358 28.8161C74.9561 28.7884 75.0764 28.7607 75.2004 28.7322C76.2522 28.5035 77.203 28.3926 78.2785 28.4325C78.2785 28.4958 78.2785 28.5591 78.2785 28.6243C77.7926 28.7215 77.3065 28.8172 76.8201 28.912C76.6838 28.9395 76.5475 28.9669 76.407 28.9952C74.4261 29.3779 74.4261 29.3779 73.6882 29.0079C73.6882 28.8813 73.6882 28.7547 73.6882 28.6243C74.262 28.2407 74.262 28.2407 74.8358 28.2407Z" fill="#4CC2DB"/>
<path d="M18.2224 85.7809C19.0357 86.5717 19.7786 87.4136 20.5175 88.2743C20.2665 88.562 20.2665 88.562 19.9438 88.8497C19.7544 88.8497 19.5651 88.8497 19.37 88.8497C19.37 88.7231 19.37 88.5965 19.37 88.4661C19.1806 88.5294 18.9913 88.5927 18.7962 88.6579C18.7962 88.5313 18.7962 88.4047 18.7962 88.2743C18.9224 88.2743 19.0487 88.2743 19.1787 88.2743C19.0767 87.4046 18.7119 86.877 18.2224 86.1645C18.2224 86.0379 18.2224 85.9113 18.2224 85.7809Z" fill="#4ABDD4"/>
<path d="M21.6652 38.7898C21.7915 38.9797 21.9177 39.1695 22.0477 39.3652C21.8387 39.3612 21.6296 39.3573 21.4142 39.3532C20.7197 39.3296 20.7197 39.3296 20.1351 39.557C20.072 40.1266 20.0089 40.6963 19.9439 41.2832C19.7545 41.1566 19.5652 41.03 19.3701 40.8996C19.2437 39.738 19.2437 39.738 19.6211 39.1974C20.2814 38.7559 20.8928 38.7239 21.6652 38.7898Z" fill="#E68146"/>
<path d="M59.9174 96.3298C59.9174 96.4564 59.9174 96.583 59.9174 96.7134C59.7281 96.7134 59.5387 96.7134 59.3436 96.7134C59.4067 96.9033 59.4699 97.0932 59.5349 97.2888C59.2824 97.542 59.03 97.7952 58.7698 98.056C58.7698 97.8662 58.7698 97.6763 58.7698 97.4806C58.6436 97.4173 58.5174 97.354 58.3873 97.2888C58.3873 97.4787 58.3873 97.6686 58.3873 97.8642C58.1348 97.8642 57.8824 97.8642 57.6223 97.8642C57.6223 97.7376 57.6223 97.6111 57.6223 97.4806C57.496 97.4173 57.3698 97.354 57.2397 97.2888C57.6139 97.1282 57.9886 96.9685 58.3634 96.8093C58.6763 96.6758 58.6763 96.6758 58.9955 96.5396C59.5349 96.3298 59.5349 96.3298 59.9174 96.3298Z" fill="#45C6DD"/>
<path d="M26.6381 34.7619C27.0206 35.1455 27.0206 35.1455 27.0206 35.9127C26.8944 35.9127 26.7682 35.9127 26.6381 35.9127C26.6381 35.7861 26.6381 35.6596 26.6381 35.5291C26.1332 35.6557 25.6282 35.7823 25.108 35.9127C25.0449 35.6596 24.9818 35.4064 24.9167 35.1455C25.5771 34.7041 25.863 34.6958 26.6381 34.7619Z" fill="#F5703D"/>
<path d="M63.5514 32.844C61.4685 33.7934 61.4685 33.7934 59.3436 34.762C59.2805 34.6354 59.2174 34.5088 59.1523 34.3784C59.4264 34.217 59.7016 34.0575 59.9772 33.8989C60.1303 33.8098 60.2834 33.7208 60.4411 33.6291C60.8737 33.4194 60.8737 33.4194 61.4475 33.4194C61.5106 33.2295 61.5737 33.0396 61.6387 32.844C62.3932 32.6892 62.7863 32.6522 63.5514 32.844Z" fill="#4EC0D9"/>
<path d="M110.984 29.0079C111.55 29.509 111.887 30.0946 112.263 30.7461C112.382 30.9501 112.501 31.1541 112.624 31.3642C112.897 31.8849 112.897 31.8849 112.897 32.2685C112.644 32.2685 112.392 32.2685 112.132 32.2685C112.069 31.8255 112.005 31.3824 111.94 30.9259C111.751 30.8626 111.562 30.7993 111.367 30.7341C111.227 30.3378 111.227 30.3378 111.14 29.859C111.109 29.7006 111.079 29.5421 111.048 29.3788C111.016 29.1952 111.016 29.1952 110.984 29.0079Z" fill="#59CBDD"/>
<path d="M63.3601 18.0753C63.4232 18.0753 63.4864 18.0753 63.5514 18.0753C63.6145 18.9614 63.6776 19.8476 63.7426 20.7605C64.3107 20.8238 64.8787 20.8871 65.464 20.9523C65.0815 21.3359 65.0815 21.3359 64.5316 21.4078C63.9339 21.3359 63.9339 21.3359 63.4797 21.0482C62.9486 20.2288 63.1117 19.3784 63.2645 18.4589C63.2961 18.3323 63.3276 18.2057 63.3601 18.0753Z" fill="#CDF8FC"/>
<path d="M35.2446 114.551C36.5025 114.48 36.5025 114.48 36.8823 114.815C36.973 114.917 37.0638 115.02 37.1572 115.126C37.5378 115.26 37.9209 115.386 38.3048 115.51C39.0113 115.818 39.7103 116.142 40.4087 116.469C40.0262 116.661 40.0262 116.661 39.5438 116.506C39.3455 116.425 39.1472 116.344 38.9428 116.26C38.7283 116.173 38.5139 116.086 38.2929 115.996C38.068 115.903 37.8432 115.81 37.6115 115.714C37.3852 115.621 37.1588 115.529 36.9256 115.434C36.3647 115.205 35.8045 114.974 35.2446 114.743C35.2446 114.679 35.2446 114.616 35.2446 114.551Z" fill="#5CC8DB"/>
<path d="M21.4738 49.3387C21.6651 49.9141 21.6651 49.9141 21.6651 50.2977C21.5389 50.2977 21.4126 50.2977 21.2826 50.2977C21.2826 50.4243 21.2826 50.5509 21.2826 50.6813C21.1564 50.6813 21.0301 50.6813 20.9001 50.6813C20.8806 50.7931 20.8611 50.9049 20.841 51.02C20.6868 51.5199 20.4713 51.7814 20.1231 52.1678C20.0183 52.2855 19.9135 52.4032 19.8055 52.5244C19.7249 52.6124 19.6443 52.7005 19.5612 52.7911C19.435 52.7279 19.3088 52.6646 19.1787 52.5993C19.4535 52.1996 19.7284 51.8001 20.0035 51.4006C20.0808 51.2881 20.1581 51.1756 20.2377 51.0597C20.639 50.4774 21.045 49.901 21.4738 49.3387Z" fill="#67566F"/>
<path d="M94.7269 108.03C95.0425 108.03 95.358 108.03 95.6832 108.03C94.8285 109.005 93.7709 109.734 92.623 110.331C92.4968 110.268 92.3705 110.205 92.2405 110.139C92.4298 110.013 92.6192 109.886 92.8143 109.756C93.0423 109.363 93.0423 109.363 93.1968 108.989C93.5755 108.989 93.9542 108.989 94.3444 108.989C94.4706 108.672 94.5968 108.356 94.7269 108.03Z" fill="#57C9DC"/>
<path d="M33.7146 52.024C33.7777 52.1506 33.8409 52.2772 33.9059 52.4076C33.7723 52.514 33.6386 52.6203 33.501 52.7298C33.3269 52.8688 33.1528 53.0077 32.9735 53.1509C32.8004 53.2888 32.6273 53.4268 32.449 53.5689C31.9928 53.9297 31.9928 53.9297 31.6108 54.3257C31.3809 54.5269 31.1497 54.7266 30.9174 54.925C30.7966 55.0284 30.6758 55.1317 30.5513 55.2382C30.4591 55.3168 30.3669 55.3954 30.2719 55.4765C30.1457 55.4132 30.0195 55.3499 29.8894 55.2847C30.1353 55.0278 30.3826 54.7723 30.6305 54.5175C30.7681 54.375 30.9057 54.2326 31.0474 54.0859C31.4195 53.7503 31.4195 53.7503 31.802 53.7503C31.802 53.6237 31.802 53.4971 31.802 53.3666C32.2204 53.0355 32.2204 53.0355 32.7583 52.6714C32.9358 52.5502 33.1134 52.4291 33.2962 52.3043C33.4343 52.2118 33.5724 52.1193 33.7146 52.024Z" fill="#170E1B"/>
<path d="M17.2661 46.4618C17.4915 46.6347 17.7141 46.8113 17.9355 46.9892C18.0598 47.0872 18.184 47.1851 18.3121 47.2859C18.6049 47.6126 18.6049 47.6126 18.6049 48.3798C18.3181 48.7154 18.3181 48.7154 18.0312 48.9552C17.4574 48.0441 17.4574 48.0441 17.4574 47.6126C17.5836 47.5493 17.7098 47.486 17.8399 47.4208C17.6505 47.2942 17.4612 47.1676 17.2661 47.0372C17.2661 46.8473 17.2661 46.6574 17.2661 46.4618Z" fill="#52C5DD"/>
<path d="M25.873 10.787C25.9992 10.8503 26.1255 10.9136 26.2555 10.9788C26.0662 11.232 25.8768 11.4851 25.6818 11.746C25.808 11.746 25.9342 11.746 26.0643 11.746C26.0643 11.8726 26.0643 11.9992 26.0643 12.1296C25.4962 12.0346 25.4962 12.0346 24.9167 11.9378C24.8536 12.2543 24.7905 12.5707 24.7254 12.8968C24.5992 12.8968 24.473 12.8968 24.3429 12.8968C24.3429 12.7702 24.3429 12.6436 24.3429 12.5132C24.0905 12.5765 23.838 12.6398 23.5779 12.705C24.2857 11.9521 25.0218 11.3728 25.873 10.787Z" fill="#54C8E0"/>
<path d="M34.0973 6.18372C34.0973 6.3103 34.0973 6.43689 34.0973 6.56732C33.7186 6.63061 33.3399 6.6939 32.9497 6.75912C32.9497 6.8857 32.9497 7.01229 32.9497 7.14272C32.5165 7.37285 32.0821 7.60015 31.6467 7.82601C31.5238 7.89165 31.4009 7.95729 31.2743 8.02492C30.9473 8.19311 30.6099 8.34054 30.272 8.48532C30.0827 8.42203 29.8933 8.35873 29.6982 8.29352C30.1879 8.01307 30.6781 7.73349 31.1686 7.45439C31.3065 7.37528 31.4444 7.29616 31.5866 7.21464C33.4022 6.18372 33.4022 6.18372 34.0973 6.18372Z" fill="#60C9DC"/>
<path d="M66.0379 30.926C66.5428 30.9893 67.0478 31.0526 67.568 31.1178C66.7537 31.8634 65.6027 32.2686 64.5078 32.2686C64.5078 32.0787 64.5078 31.8889 64.5078 31.6932C64.8234 31.5666 65.139 31.4401 65.4641 31.3096C65.5272 31.3729 65.5904 31.4362 65.6554 31.5014C65.8447 31.4381 66.0341 31.3748 66.2292 31.3096C66.166 31.183 66.1029 31.0564 66.0379 30.926Z" fill="#4CC0DA"/>
<path d="M66.0378 92.4939C66.1009 92.6838 66.1641 92.8737 66.2291 93.0693C66.1107 93.1207 65.9924 93.1722 65.8705 93.2251C65.4067 93.4444 65.4067 93.4444 65.0815 94.0283C64.3276 94.3992 63.6174 94.6692 62.7864 94.7955C63.4811 94.2216 64.1987 93.7099 64.95 93.2131C65.2566 93.0099 65.2566 93.0099 65.5694 92.8026C65.724 92.7007 65.8785 92.5988 66.0378 92.4939Z" fill="#50BCD1"/>
<path d="M47.4854 12.8967C47.804 12.8885 48.123 12.8889 48.4417 12.8967C48.8377 13.2939 48.832 14.0309 48.9318 14.575C48.9583 14.7125 48.9848 14.8499 49.0121 14.9916C49.1457 15.7097 49.2399 16.3821 49.2067 17.1163C48.6865 16.3338 48.5582 15.4917 48.3628 14.5855C48.1453 13.6076 48.1453 13.6076 47.4854 12.8967Z" fill="#5BC7DD"/>
<path d="M70.6279 87.6989C70.7542 87.7621 70.8804 87.8254 71.0105 87.8907C70.2983 88.7386 69.6152 89.536 68.7153 90.1923C68.7153 89.8758 68.7153 89.5593 68.7153 89.2333C68.9047 89.17 69.094 89.1067 69.2891 89.0415C69.5481 88.725 69.803 88.4052 70.0542 88.0825C70.2435 87.9559 70.4329 87.8293 70.6279 87.6989Z" fill="#010F16"/>
<path d="M50.1631 21.7196C50.2262 21.7196 50.2893 21.7196 50.3544 21.7196C50.3648 21.9912 50.3722 22.263 50.3783 22.5348C50.3827 22.6861 50.3872 22.8374 50.3917 22.9933C50.3544 23.4458 50.3544 23.4458 49.9718 24.213C49.1513 24.213 48.3308 24.213 47.4855 24.213C47.4223 23.9598 47.3592 23.7067 47.2942 23.4458C47.4835 23.5407 47.4835 23.5407 47.6767 23.6376C47.6767 23.7642 47.6767 23.8908 47.6767 24.0212C47.9918 23.9673 48.3066 23.9109 48.6211 23.8534C48.884 23.8067 48.884 23.8067 49.1523 23.759C49.2965 23.7189 49.4407 23.6789 49.5893 23.6376C49.6524 23.511 49.7156 23.3844 49.7806 23.254C49.9068 23.254 50.0331 23.254 50.1631 23.254C50.1631 22.7477 50.1631 22.2413 50.1631 21.7196Z" fill="#5FCBDA"/>
<path d="M46.5291 20.5687C46.7184 20.632 46.9078 20.6953 47.1028 20.7605C47.11 20.8785 47.1171 20.9964 47.1245 21.1179C47.1371 21.2729 47.1497 21.4279 47.1626 21.5877C47.1737 21.7412 47.1848 21.8947 47.1962 22.0529C47.3117 22.5648 47.4897 22.7141 47.8679 23.0621C47.931 23.252 47.9941 23.4419 48.0591 23.6375C48.4378 23.7008 48.8165 23.7641 49.2067 23.8293C49.2067 23.8926 49.2067 23.9559 49.2067 24.0211C48.7018 24.0211 48.1969 24.0211 47.6766 24.0211C46.937 22.9086 46.7096 21.886 46.5291 20.5687Z" fill="#D2F9FD"/>
<path d="M83.8252 5.03296C84.1408 5.03296 84.4564 5.03296 84.7815 5.03296C84.7815 5.15955 84.7815 5.28614 84.7815 5.41656C85.0971 5.41656 85.4127 5.41656 85.7378 5.41656C85.7378 5.54315 85.7378 5.66974 85.7378 5.80016C85.939 5.82983 85.939 5.82983 86.1442 5.8601C86.769 6.00991 87.2769 6.26443 87.8417 6.56736C87.8417 6.69395 87.8417 6.82054 87.8417 6.95096C86.9154 6.66449 86.0604 6.28919 85.1879 5.87209C85.0563 5.80978 84.9246 5.74747 84.789 5.68328C84.4674 5.53102 84.1463 5.37797 83.8252 5.22476C83.8252 5.16147 83.8252 5.09817 83.8252 5.03296Z" fill="#D7F9FC"/>
<path d="M110.602 90.9595C110.791 91.0228 110.98 91.0861 111.175 91.1513C110.862 91.6634 110.547 92.1746 110.231 92.6857C110.141 92.832 110.052 92.9784 109.959 93.1292C109.874 93.2677 109.788 93.4061 109.7 93.5488C109.621 93.6773 109.542 93.8059 109.46 93.9384C109.362 94.0778 109.362 94.0778 109.263 94.2201C109.2 94.2201 109.137 94.2201 109.071 94.2201C108.994 93.5444 109.046 93.2995 109.43 92.7216C109.564 92.5832 109.698 92.4447 109.837 92.3021C109.963 92.3021 110.089 92.3021 110.219 92.3021C110.247 92.1874 110.274 92.0726 110.303 91.9544C110.389 91.619 110.492 91.2881 110.602 90.9595Z" fill="#59C7DC"/>
<path d="M89.5629 76.9581C89.3736 77.0214 89.1842 77.0846 88.9891 77.1499C88.926 77.3397 88.8629 77.5296 88.7979 77.7253C87.8932 78.0824 86.8924 78.1584 85.929 78.1089C86.5446 77.6973 87.1628 77.4571 87.8535 77.2098C87.9754 77.1642 88.0974 77.1186 88.223 77.0716C89.1343 76.7432 89.1343 76.7432 89.5629 76.9581Z" fill="#49AAB8"/>
<path d="M65.0815 52.024C65.6553 52.2158 65.6553 52.2158 65.9071 52.7043C65.9858 52.9071 66.0644 53.1098 66.1454 53.3187C66.2246 53.5195 66.3037 53.7202 66.3853 53.9271C66.46 54.1219 66.5347 54.3167 66.6116 54.5175C66.7388 54.8373 66.8661 55.157 66.9942 55.4765C66.8679 55.5397 66.7417 55.603 66.6116 55.6683C66.3554 55.1334 66.1009 54.5977 65.8466 54.0619C65.7736 53.9096 65.7006 53.7573 65.6254 53.6004C65.5564 53.4545 65.4874 53.3087 65.4163 53.1584C65.3521 53.0238 65.288 52.8892 65.222 52.7505C65.0815 52.4076 65.0815 52.4076 65.0815 52.024Z" fill="#E2A77E"/>
<path d="M53.2232 39.3652C53.948 39.4413 54.2466 39.7685 54.7055 40.3122C54.8816 40.5166 54.8816 40.5166 55.0611 40.7251C55.3271 41.0914 55.3271 41.0914 55.3271 41.475C54.4587 41.2161 54.2313 40.9088 53.797 40.1324C53.4012 39.7904 53.4012 39.7904 53.032 39.557C53.0951 39.4937 53.1582 39.4304 53.2232 39.3652Z" fill="#6A5971"/>
<path d="M2.73022 76.7662C2.91957 76.8612 2.91957 76.8612 3.11275 76.958C3.23378 77.3963 3.23378 77.3963 3.32792 77.929C3.35997 78.1053 3.39202 78.2816 3.42504 78.4632C3.44822 78.5994 3.47139 78.7357 3.49527 78.876C3.6215 78.876 3.74773 78.876 3.87779 78.876C4.09296 79.5114 4.09296 79.5114 4.26031 80.2186C4.13408 80.4085 4.00785 80.5984 3.87779 80.794C3.28737 79.469 2.9371 78.2021 2.73022 76.7662Z" fill="#57C4DD"/>
<path d="M59.1523 41.475C59.3417 41.475 59.531 41.475 59.7261 41.475C59.8524 41.7282 59.9786 41.9813 60.1086 42.2422C60.2349 42.0523 60.3611 41.8624 60.4912 41.6668C60.6174 41.6668 60.7436 41.6668 60.8737 41.6668C60.8737 41.9832 60.8737 42.2997 60.8737 42.6258C60.7475 42.6258 60.6212 42.6258 60.4912 42.6258C60.5543 43.0055 60.6174 43.3853 60.6824 43.7766C60.0668 43.049 59.6082 42.3077 59.1523 41.475Z" fill="#F4AB78"/>
<path d="M49.7806 34.9538C49.6544 34.9538 49.5281 34.9538 49.3981 34.9538C49.3981 35.0804 49.3981 35.207 49.3981 35.3374C49.8399 35.4007 50.2817 35.464 50.7369 35.5292C49.9928 35.7987 49.3539 35.6625 48.5852 35.5412C48.2228 35.4852 48.2228 35.4852 47.853 35.4281C47.6686 35.3981 47.4842 35.3682 47.2942 35.3374C47.2942 35.2108 47.2942 35.0842 47.2942 34.9538C47.6008 34.9163 47.9077 34.8807 48.2146 34.8459C48.3855 34.8259 48.5563 34.8059 48.7324 34.7852C49.2068 34.762 49.2068 34.762 49.7806 34.9538Z" fill="#45AEC2"/>
<path d="M71.967 33.0358C72.0301 33.2889 72.0932 33.5421 72.1583 33.803C71.9689 33.803 71.7796 33.803 71.5845 33.803C71.5845 34.0561 71.5845 34.3093 71.5845 34.5702C71.2139 34.4263 71.2139 34.4263 70.8194 34.1866C70.676 33.779 70.676 33.779 70.6282 33.4194C71.1345 33.1392 71.373 33.0358 71.967 33.0358Z" fill="#EFC989"/>
<path d="M16.6923 49.3387C17.0079 49.402 17.3235 49.4653 17.6486 49.5305C17.2699 50.2268 16.8912 50.923 16.501 51.6403C16.3117 51.4505 16.1223 51.2606 15.9272 51.0649C16.0535 51.0649 16.1797 51.0649 16.3098 51.0649C16.436 50.4953 16.5622 49.9257 16.6923 49.3387Z" fill="#49C5DA"/>
<path d="M53.7971 98.4397C53.1077 98.8443 52.3845 98.986 51.6095 99.1349C51.4841 99.1607 51.3588 99.1864 51.2296 99.2129C50.546 99.3476 49.9033 99.4283 49.2068 99.3987C49.2068 99.2088 49.2068 99.0189 49.2068 98.8233C49.5204 98.8351 49.5204 98.8351 49.8403 98.8472C50.6992 98.8503 51.5022 98.6988 52.3409 98.5236C52.8365 98.4404 53.2957 98.4252 53.7971 98.4397Z" fill="#01131F"/>
<path d="M11.7197 95.5626C12.3873 96.2143 12.9969 96.8877 13.5845 97.6125C13.7334 97.7952 13.8824 97.9779 14.0358 98.1662C14.3974 98.6314 14.3974 98.6314 14.5886 99.015C13.8564 98.7239 13.4921 98.2874 13.0107 97.6724C12.8756 97.5023 12.7405 97.3322 12.6013 97.157C12.2935 96.7134 12.2935 96.7134 12.2935 96.3298C12.1042 96.3298 11.9148 96.3298 11.7197 96.3298C11.7197 96.0766 11.7197 95.8235 11.7197 95.5626Z" fill="#D2F9FD"/>
<path d="M33.2963 25.3397C33.5225 25.3423 33.5225 25.3423 33.7532 25.345C34.1229 25.3495 34.4926 25.3564 34.8623 25.3637C34.8623 25.427 34.8623 25.4903 34.8623 25.5555C34.6983 25.5627 34.5344 25.5699 34.3655 25.5772C33.1155 25.6493 32.159 25.7727 31.0371 26.3227C30.9108 26.2594 30.7846 26.1961 30.6545 26.1309C30.6545 26.0043 30.6545 25.8777 30.6545 25.7473C31.5397 25.2955 32.3291 25.3186 33.2963 25.3397Z" fill="#4EC5D6"/>
<path d="M17.2662 18.0753C17.3293 18.2652 17.3924 18.4551 17.4574 18.6507C16.9693 19.1403 16.481 19.6294 15.9871 20.1132C15.5233 20.5631 15.5233 20.5631 15.1623 21.1441C15.0361 21.1441 14.9098 21.1441 14.7798 21.1441C15.0488 20.5459 15.3722 20.098 15.8078 19.6097C15.9259 19.4772 16.044 19.3447 16.1657 19.2081C16.5223 18.8195 16.8862 18.4411 17.2662 18.0753Z" fill="#5CC9D9"/>
<path d="M94.7271 11.1705C95.8809 11.4806 96.6303 11.778 97.4047 12.7049C97.3416 12.8948 97.2785 13.0847 97.2134 13.2803C96.7985 12.9654 96.3842 12.6496 95.9702 12.3333C95.8517 12.2434 95.7331 12.1536 95.6109 12.061C95.3128 11.8326 95.0195 11.598 94.7271 11.3623C94.7271 11.299 94.7271 11.2357 94.7271 11.1705Z" fill="#D9FBFE"/>
<path d="M112.514 87.8906C112.641 87.8906 112.767 87.8906 112.897 87.8906C112.629 88.8915 112.169 89.5732 111.558 90.384C111.432 90.5739 111.306 90.7638 111.176 90.9594C111.343 89.8566 111.343 89.8566 111.558 89.425C111.684 89.425 111.811 89.425 111.941 89.425C112.004 89.0453 112.067 88.6655 112.132 88.2742C112.258 88.2742 112.384 88.2742 112.514 88.2742C112.514 88.1476 112.514 88.021 112.514 87.8906Z" fill="#57CADB"/>
<path d="M71.2018 77.3417C71.5016 77.9076 71.7183 78.4678 71.907 79.0799C71.9591 79.2443 72.0111 79.4087 72.0647 79.5781C72.1581 80.0269 72.1581 80.0269 71.9668 80.6023C71.9668 80.4757 71.9668 80.3491 71.9668 80.2187C71.7775 80.2187 71.5881 80.2187 71.393 80.2187C71.3494 79.8378 71.3059 79.457 71.2623 79.0761C71.2072 78.6471 71.2072 78.6471 71.0105 78.1089C71.0942 77.6893 71.0942 77.6893 71.2018 77.3417Z" fill="#63536A"/>
<path d="M59.9175 49.9142C60.1699 49.9142 60.4224 49.9142 60.6825 49.9142C61.2553 50.7927 61.2553 50.7927 61.4476 51.2568C61.3041 51.7243 61.3041 51.7243 61.065 52.024C61.065 51.8341 61.065 51.6442 61.065 51.4486C60.8757 51.3853 60.6864 51.322 60.4913 51.2568C59.9175 50.4257 59.9175 50.4257 59.9175 49.9142Z" fill="#6B5973"/>
<path d="M16.5012 40.1324C17.3187 40.4361 17.6995 40.9966 18.2226 41.6668C18.0963 41.92 17.9701 42.1732 17.84 42.434C17.652 42.1589 17.4649 41.8831 17.2782 41.6069C17.1739 41.4534 17.0696 41.2998 16.9622 41.1416C16.6925 40.7078 16.6925 40.7078 16.5012 40.1324Z" fill="#E7CE8B"/>
<path d="M74.0708 1.77234C74.9544 1.77234 75.8381 1.77234 76.7485 1.77234C76.7485 1.89893 76.7485 2.02552 76.7485 2.15594C77.1272 2.28253 77.5059 2.40912 77.896 2.53954C77.0548 2.80297 76.3803 2.58616 75.5531 2.35973C75.4106 2.32227 75.2681 2.28481 75.1212 2.24622C74.7707 2.15382 74.4207 2.0592 74.0708 1.96414C74.0708 1.90085 74.0708 1.83755 74.0708 1.77234Z" fill="#CEF6FA"/>
<path d="M13.0584 38.2144C13.1215 38.2144 13.1847 38.2144 13.2497 38.2144C13.2729 38.3948 13.296 38.5753 13.3199 38.7613C13.352 39.0001 13.384 39.239 13.417 39.485C13.4481 39.7209 13.4792 39.9568 13.5112 40.1998C13.6236 40.8496 13.789 41.4322 14.0147 42.0504C13.8254 42.0504 13.636 42.0504 13.4409 42.0504C13.0373 41.2297 13.0123 40.4894 13.0345 39.5929C13.0362 39.46 13.038 39.3271 13.0397 39.1902C13.0442 38.8649 13.0511 38.5396 13.0584 38.2144Z" fill="#42AAC2"/>
<path d="M25.6816 108.989C26.9727 109.3 26.9727 109.3 27.403 109.948C27.6456 110.043 27.6456 110.043 27.8931 110.139C28.1239 110.234 28.1239 110.234 28.3593 110.331C28.4224 110.521 28.4855 110.711 28.5506 110.907C27.8114 110.641 27.2178 110.295 26.5782 109.84C26.4093 109.721 26.2404 109.602 26.0664 109.479C25.9394 109.381 25.8125 109.282 25.6816 109.18C25.6816 109.117 25.6816 109.054 25.6816 108.989Z" fill="#5CC7DC"/>
<path d="M114.236 85.0137C114.299 85.0137 114.362 85.0137 114.427 85.0137C114.451 86.5001 114.451 86.5001 114.236 86.9317C114.109 86.9317 113.983 86.9317 113.853 86.9317C113.727 87.1849 113.601 87.438 113.471 87.6989C113.221 86.9478 113.409 86.7324 113.746 86.0326C113.836 85.842 113.927 85.6514 114.02 85.455C114.091 85.3093 114.162 85.1637 114.236 85.0137Z" fill="#DDFBFD"/>
<path d="M118.635 71.204C118.698 71.204 118.761 71.204 118.826 71.204C118.866 72.4327 118.856 73.4921 118.443 74.6564C118.317 74.6564 118.191 74.6564 118.061 74.6564C118.19 73.4898 118.393 72.3523 118.635 71.204Z" fill="#D1F9FB"/>
<path d="M79.8086 75.999C80.6922 75.999 81.5758 75.999 82.4863 75.999C81.9878 76.3323 81.7074 76.4689 81.1474 76.6104C80.9522 76.6619 80.9522 76.6619 80.7529 76.7145C80.3824 76.7662 80.3824 76.7662 79.8086 76.5744C79.8086 76.3845 79.8086 76.1947 79.8086 75.999Z" fill="#E7A679"/>
<path d="M109.645 67.368C109.835 67.4946 110.024 67.6212 110.219 67.7516C109.921 67.9364 109.622 68.1199 109.322 68.3031C109.156 68.4054 108.99 68.5078 108.818 68.6132C108.338 68.8845 107.866 69.094 107.35 69.286C107.35 69.1595 107.35 69.0329 107.35 68.9024C107.468 68.8399 107.585 68.7773 107.706 68.7129C107.938 68.5872 107.938 68.5872 108.175 68.4589C108.328 68.3766 108.481 68.2942 108.639 68.2094C109.04 67.9625 109.331 67.7163 109.645 67.368Z" fill="#021522"/>
<path d="M116.913 42.0504C117.287 42.6122 117.44 43.025 117.619 43.6687C117.671 43.8505 117.723 44.0322 117.776 44.2194C117.869 44.7335 117.849 45.0162 117.678 45.5028C117.185 44.3415 116.988 43.3085 116.913 42.0504Z" fill="#5EC8DE"/>
<path d="M39.0699 30.926C39.1962 30.926 39.3224 30.926 39.4524 30.926C39.6875 32.0899 39.8877 33.1891 39.835 34.3784C39.4637 33.7199 39.298 33.0636 39.1297 32.3286C39.0777 32.1063 39.0256 31.884 38.9721 31.655C38.9412 31.4777 38.9104 31.3005 38.8787 31.1178C38.9418 31.0545 39.0049 30.9912 39.0699 30.926Z" fill="#50C5DB"/>
<path d="M74.6445 77.5334C74.7708 77.66 74.897 77.7866 75.0271 77.917C75.5187 78.0413 75.5187 78.0413 75.9834 78.1088C75.9834 77.9823 75.9834 77.8557 75.9834 77.7252C76.3621 77.7252 76.7408 77.7252 77.1309 77.7252C76.7386 78.1187 76.5055 78.2319 75.9953 78.4205C75.8634 78.4705 75.7315 78.5204 75.5956 78.5719C75.2183 78.6842 75.2183 78.6842 74.6445 78.6842C74.6445 78.3045 74.6445 77.9247 74.6445 77.5334Z" fill="#E5A980"/>
<path d="M70.2456 64.491C70.435 64.5543 70.6243 64.6176 70.8194 64.6828C70.9614 65.1259 71.0893 65.5738 71.2019 66.0254C71.265 66.0887 71.3281 66.152 71.3932 66.2172C71.4202 66.7294 71.4013 67.2384 71.3932 67.7516C71.0785 67.1517 70.8353 66.5422 70.6042 65.9055C70.5367 65.7211 70.4691 65.5366 70.3995 65.3466C70.2456 64.8746 70.2456 64.8746 70.2456 64.491Z" fill="#E1A77F"/>
<path d="M17.6486 49.5306C17.7118 49.7838 17.7749 50.037 17.8399 50.2978C17.6506 50.3611 17.4612 50.4244 17.2661 50.4896C17.2503 50.6321 17.2346 50.7745 17.2183 50.9212C17.0481 51.5469 16.7908 51.7957 16.3098 52.2158C16.3098 51.4711 16.5735 51.1672 16.9792 50.5496C17.1035 50.359 17.2277 50.1683 17.3558 49.9719C17.5007 49.7535 17.5007 49.7535 17.6486 49.5306Z" fill="#041E29"/>
<path d="M50.5457 38.7898C50.8208 38.8118 51.0957 38.8362 51.3705 38.8617C51.6001 38.8817 51.6001 38.8817 51.8344 38.9022C52.267 38.9816 52.267 38.9816 52.8408 39.3652C52.5091 39.5795 52.5091 39.5795 52.0757 39.7488C51.6663 39.6184 51.6663 39.6184 51.2629 39.3892C51.1278 39.3145 50.9927 39.2398 50.8535 39.1629C50.7519 39.1031 50.6503 39.0432 50.5457 38.9816C50.5457 38.9183 50.5457 38.855 50.5457 38.7898ZM51.3107 39.7488C52.0757 39.9406 52.0757 39.9406 52.0757 39.9406L51.3107 39.7488Z" fill="#6D5877"/>
<path d="M38.4961 30.3506C38.8484 30.8805 39.0168 31.2726 39.2014 31.873C39.2534 32.0369 39.3054 32.2008 39.359 32.3697C39.4564 32.8641 39.4235 33.1402 39.2612 33.6112C39.0699 33.4194 39.0699 33.4194 39.0579 32.832C39.0619 32.6461 39.0658 32.4601 39.0699 32.2686C38.9437 32.2686 38.8174 32.2686 38.6874 32.2686C38.38 31.652 38.4851 31.0341 38.4961 30.3506Z" fill="#082833"/>
<path d="M35.436 98.2478C35.9664 98.2967 36.4961 98.3491 37.0259 98.4036C37.1762 98.4171 37.3264 98.4306 37.4813 98.4445C37.6261 98.4599 37.771 98.4754 37.9202 98.4913C38.12 98.5109 38.12 98.5109 38.3239 98.5309C38.7715 98.6546 38.9626 98.8581 39.2613 99.2068C37.9491 99.0803 36.709 98.7779 35.436 98.4396C35.436 98.3763 35.436 98.313 35.436 98.2478Z" fill="#05232F"/>
<path d="M100.656 72.3549C100.782 72.4182 100.908 72.4814 101.039 72.5467C100.912 72.8631 100.786 73.1796 100.656 73.5057C100.482 73.474 100.309 73.4424 100.13 73.4098C99.4872 73.2944 99.4872 73.2944 98.7434 73.3139C99.3621 72.9002 99.962 72.6206 100.656 72.3549Z" fill="#4ABCD4"/>
<path d="M109.645 61.9976C109.708 61.9976 109.772 61.9976 109.837 61.9976C109.884 62.3367 109.927 62.6765 109.968 63.0165C109.992 63.2056 110.017 63.3948 110.042 63.5897C110.028 64.1074 110.028 64.1074 109.769 64.4632C109.454 64.6828 109.454 64.6828 109.072 64.6828C109.135 64.303 109.198 63.9232 109.263 63.532C109.389 63.532 109.515 63.532 109.645 63.532C109.645 63.0256 109.645 62.5193 109.645 61.9976Z" fill="#CBB180"/>
<path d="M59.1525 38.2144C59.1525 38.3409 59.1525 38.4675 59.1525 38.598C58.9 38.6613 58.6476 38.7245 58.3875 38.7898C58.3243 39.1695 58.2612 39.5493 58.1962 39.9406C57.9437 39.7507 57.6913 39.5608 57.4312 39.3652C57.6224 38.7898 57.6224 38.7898 58.1842 38.4661C58.77 38.2144 58.77 38.2144 59.1525 38.2144Z" fill="#DCA17A"/>
<path d="M34.0972 25.5556C34.0972 25.6189 34.0972 25.6822 34.0972 25.7474C33.9819 25.7729 33.8665 25.7984 33.7476 25.8246C33.5947 25.8585 33.4419 25.8923 33.2844 25.9272C33.1335 25.9606 32.9826 25.994 32.8271 26.0284C32.6782 26.0623 32.5293 26.0961 32.3759 26.131C32.2349 26.159 32.0938 26.1869 31.9485 26.2157C31.8371 26.251 31.7257 26.2864 31.6108 26.3228C31.5477 26.4494 31.4846 26.576 31.4196 26.7064C31.1671 26.6431 30.9147 26.5798 30.6545 26.5146C31.8518 25.7199 32.6592 25.4412 34.0972 25.5556Z" fill="#062936"/>
<path d="M93.7708 109.372C93.897 109.436 94.0232 109.499 94.1533 109.564C93.9639 109.849 93.9639 109.849 93.7708 110.14C93.5814 110.14 93.3921 110.14 93.197 110.14C93.1339 110.329 93.0708 110.519 93.0057 110.715C92.627 110.778 92.2483 110.842 91.8582 110.907C92.4363 110.282 93.0549 109.829 93.7708 109.372Z" fill="#CFF7FC"/>
<path d="M98.9347 105.728C98.8716 105.918 98.8085 106.108 98.7434 106.303C98.6172 106.303 98.491 106.303 98.3609 106.303C98.2781 106.481 98.2781 106.481 98.1935 106.663C97.9784 107.071 97.9784 107.071 97.5959 107.454C97.1894 107.382 97.1894 107.382 96.8308 107.262C97.1087 107.006 97.3879 106.75 97.6676 106.495C97.8229 106.353 97.9782 106.21 98.1383 106.064C98.5522 105.728 98.5522 105.728 98.9347 105.728Z" fill="#DBFAFD"/>
<path d="M16.6924 45.5028C16.8817 45.5028 17.0711 45.5028 17.2662 45.5028C17.3293 45.6927 17.3924 45.8826 17.4574 46.0782C17.6468 46.1415 17.8361 46.2048 18.0312 46.27C18.0312 46.3966 18.0312 46.5232 18.0312 46.6536C18.1574 46.6536 18.2837 46.6536 18.4137 46.6536C18.4769 46.9701 18.54 47.2866 18.605 47.6126C17.8133 46.9796 17.154 46.4286 16.6924 45.5028Z" fill="#061E2E"/>
<path d="M103.143 42.2422C103.664 42.6934 103.872 43.1293 104.099 43.7766C103.91 43.8399 103.72 43.9032 103.525 43.9684C103.462 43.8418 103.399 43.7152 103.334 43.5848C103.144 43.6797 103.144 43.6797 102.951 43.7766C102.943 43.3291 102.943 42.8815 102.951 42.434C103.014 42.3707 103.078 42.3074 103.143 42.2422Z" fill="#ECCC89"/>
<path d="M91.4756 110.523C91.6649 110.586 91.8543 110.65 92.0494 110.715C91.7074 110.94 91.3646 111.163 91.0214 111.386C90.8305 111.511 90.6397 111.635 90.4431 111.764C89.9455 112.057 89.9455 112.057 89.563 112.057C89.563 111.804 89.563 111.551 89.563 111.29C89.7701 111.261 89.7701 111.261 89.9814 111.23C90.5364 111.124 90.5364 111.124 91.0214 110.787C91.1713 110.7 91.3212 110.613 91.4756 110.523Z" fill="#52C9D8"/>
<path d="M108.689 94.2201C108.815 94.2834 108.941 94.3467 109.072 94.4119C108.567 95.1081 108.062 95.8044 107.541 96.5217C107.415 96.2685 107.289 96.0153 107.159 95.7545C107.281 95.707 107.404 95.6596 107.53 95.6106C107.96 95.4063 107.96 95.4063 108.067 94.9633C108.083 94.8446 108.099 94.726 108.115 94.6037C108.305 94.6037 108.494 94.6037 108.689 94.6037C108.689 94.4771 108.689 94.3505 108.689 94.2201Z" fill="#57C5D9"/>
<path d="M79.9999 80.2186C79.9999 80.3452 79.9999 80.4718 79.9999 80.6022C80.1261 80.7288 80.2523 80.8554 80.3824 80.9858C80.1911 81.1776 80.1911 81.1776 79.6054 81.1896C79.42 81.1857 79.2346 81.1817 79.0436 81.1776C78.9804 80.9245 78.9173 80.6713 78.8523 80.4104C79.4261 80.2186 79.4261 80.2186 79.9999 80.2186Z" fill="#48C0DF"/>
<path d="M84.3988 75.4236C84.3988 75.5502 84.3988 75.6768 84.3988 75.8072C83.871 76.1601 83.5769 76.2835 82.9763 76.4185C82.8306 76.4529 82.6849 76.4873 82.5348 76.5227C82.0789 76.5774 81.7726 76.5224 81.3386 76.3826C81.7767 76.222 82.215 76.0623 82.6535 75.9031C82.7781 75.8573 82.9026 75.8116 83.0308 75.7645C83.9729 75.4236 83.9729 75.4236 84.3988 75.4236Z" fill="#2B150B"/>
<path d="M36.5835 59.3124C36.7097 59.3757 36.836 59.439 36.966 59.5042C35.6054 61.1596 35.6054 61.1596 34.6709 61.614C34.9534 60.9519 35.3284 60.5304 35.8424 60.0316C35.9809 59.8961 36.1195 59.7607 36.2623 59.6211C36.3683 59.5192 36.4743 59.4173 36.5835 59.3124Z" fill="#171717"/>
<path d="M13.8235 56.6272C14.103 57.5973 14.0002 58.4039 13.5247 59.3004C13.434 59.431 13.3432 59.5615 13.2498 59.696C12.9632 58.9514 13.1673 58.4619 13.4291 57.73C13.5018 57.5234 13.5745 57.3167 13.6495 57.1037C13.7356 56.8678 13.7356 56.8678 13.8235 56.6272Z" fill="#092B37"/>
<path d="M34.2885 36.1046C34.8566 36.1996 34.8566 36.1996 35.4361 36.2964C35.4361 36.423 35.4361 36.5496 35.4361 36.68C35.13 36.782 34.823 36.8814 34.5157 36.9797C34.3448 37.0353 34.1739 37.091 33.9979 37.1483C33.5235 37.2554 33.5235 37.2554 32.9497 37.0636C33.456 36.7835 33.6946 36.68 34.2885 36.68C34.2885 36.4901 34.2885 36.3003 34.2885 36.1046Z" fill="#EACE92"/>
<path d="M15.1623 35.5292C15.2885 35.5925 15.4147 35.6558 15.5448 35.721C15.0427 36.4642 15.0427 36.4642 14.3972 36.68C14.071 36.9919 13.7512 37.311 13.4409 37.639C13.7088 36.624 14.3695 36.1478 15.1623 35.5292Z" fill="#041C24"/>
<path d="M24.534 87.6989C25.0857 87.9468 25.4659 88.2089 25.8729 88.6579C25.8097 88.8477 25.7466 89.0376 25.6816 89.2333C25.2398 88.9168 24.798 88.6003 24.3428 88.2743C24.4059 88.0844 24.469 87.8945 24.534 87.6989Z" fill="#6C5A75"/>
<path d="M73.3057 84.63C73.3688 84.7566 73.432 84.8832 73.497 85.0136C73.3199 85.3597 73.3199 85.3597 73.0547 85.7568C72.7189 86.2644 72.4201 86.7652 72.1582 87.3152C72.0319 87.2519 71.9057 87.1886 71.7756 87.1234C72.0564 86.5274 72.3877 85.9909 72.7558 85.4452C72.8589 85.2919 72.962 85.1386 73.0681 84.9806C73.1857 84.8071 73.1857 84.8071 73.3057 84.63Z" fill="#4FB9CC"/>
<path d="M63.3602 48.9552C63.8429 49.5546 64.2012 50.1661 64.5078 50.8732C64.4447 50.9998 64.3815 51.1264 64.3165 51.2568C63.6533 50.6804 63.3734 50.1961 63.1689 49.3388C63.2321 49.2122 63.2952 49.0856 63.3602 48.9552Z" fill="#1B0701"/>
<path d="M98.1698 36.4882C98.7838 36.7532 99.1355 37.049 99.5564 37.567C99.656 37.6882 99.7556 37.8093 99.8583 37.9342C99.9692 38.0729 99.9692 38.0729 100.082 38.2144C99.15 37.8787 99.15 37.8787 98.9348 37.4472C98.6209 37.2475 98.3023 37.0549 97.9785 36.8718C98.0416 36.7452 98.1047 36.6186 98.1698 36.4882Z" fill="#F5D999"/>
<path d="M25.1079 28.2408C25.4465 28.2252 25.7852 28.2141 26.124 28.2048C26.3126 28.1981 26.5012 28.1914 26.6955 28.1846C27.2118 28.2408 27.2118 28.2408 27.5667 28.5307C27.6389 28.6249 27.7111 28.7191 27.7856 28.8162C26.7872 28.8507 26.0503 28.8106 25.1079 28.4326C25.1079 28.3693 25.1079 28.306 25.1079 28.2408Z" fill="#49C0D9"/>
<path d="M36.2011 25.3638C36.4852 25.5537 36.4852 25.5537 36.7749 25.7474C36.7118 25.9373 36.6487 26.1271 36.5837 26.3228C36.4574 26.0063 36.3312 25.6898 36.2011 25.3638ZM34.8623 25.7474C35.3672 25.8107 35.8722 25.874 36.3924 25.9392C36.4555 26.2556 36.5186 26.5721 36.5837 26.8982C36.0156 26.5817 35.4476 26.2652 34.8623 25.9392C34.8623 25.8759 34.8623 25.8126 34.8623 25.7474Z" fill="#47C1D8"/>
<path d="M96.6397 107.454C96.6397 107.644 96.6397 107.834 96.6397 108.03C96.0356 108.618 95.5648 108.893 94.7271 108.989C95.3219 108.358 95.8777 107.869 96.6397 107.454Z" fill="#D9FBFD"/>
<path d="M109.071 94.2201C109.135 94.41 109.198 94.5999 109.263 94.7955C108.94 95.251 108.94 95.251 108.498 95.7545C108.356 95.9325 108.214 96.1105 108.067 96.2939C107.957 96.4324 107.846 96.5708 107.733 96.7135C107.606 96.6502 107.48 96.5869 107.35 96.5217C107.918 95.7622 108.486 95.0026 109.071 94.2201Z" fill="#CFF9FC"/>
<path d="M69.098 84.8219C69.1611 85.0118 69.2242 85.2017 69.2893 85.3973C69.0569 85.7472 69.0569 85.7472 68.7274 86.1046C68.6192 86.224 68.511 86.3434 68.3995 86.4664C68.3144 86.5567 68.2293 86.6469 68.1417 86.7399C68.0786 86.55 68.0155 86.3601 67.9504 86.1645C68.5754 85.0839 68.5754 85.0839 69.098 84.8219Z" fill="#6E5C76"/>
<path d="M106.011 48.188C106.394 48.3798 106.394 48.3798 106.557 48.8181C106.606 48.9939 106.655 49.1697 106.705 49.3508C106.755 49.5271 106.804 49.7033 106.856 49.885C106.893 50.0212 106.93 50.1574 106.968 50.2978C106.842 50.4244 106.715 50.551 106.585 50.6814C106.522 50.2383 106.459 49.7953 106.394 49.3388C106.268 49.3388 106.142 49.3388 106.011 49.3388C106.011 48.959 106.011 48.5793 106.011 48.188Z" fill="#E2C78C"/>
<path d="M59.1524 38.2144C58.395 38.5941 58.395 38.5941 57.6223 38.9816C57.7485 39.298 57.8747 39.6145 58.0048 39.9406C57.7523 39.814 57.4999 39.6874 57.2397 39.557C57.2397 39.2405 57.2397 38.924 57.2397 38.598C58.5069 37.9986 58.5069 37.9986 59.1524 38.2144Z" fill="#240B02"/>
<path d="M27.7855 32.0768C27.7855 32.2034 27.7855 32.33 27.7855 32.4604C28.1011 32.5237 28.4167 32.587 28.7418 32.6522C28.7418 32.7788 28.7418 32.9054 28.7418 33.0358C28.4624 32.9493 28.1836 32.8611 27.905 32.7721C27.7497 32.7231 27.5944 32.6742 27.4344 32.6237C27.0205 32.4604 27.0205 32.4604 26.6379 32.0768C27.1144 31.8379 27.2903 31.9278 27.7855 32.0768Z" fill="#2B1B0F"/>
<path d="M30.272 26.3228C30.4613 26.386 30.6507 26.4493 30.8458 26.5146C30.404 26.9576 29.9621 27.4007 29.5069 27.8572C29.4438 27.604 29.3807 27.3508 29.3157 27.09C29.758 26.6944 29.758 26.6944 30.272 26.3228Z" fill="#4AC2D0"/>
<path d="M10.7632 93.8364C11.1457 93.8364 11.1457 93.8364 11.5521 94.1721C11.9108 94.6036 11.9108 94.6036 11.9108 95.3708C12.037 95.3708 12.1632 95.3708 12.2933 95.3708C12.3564 95.624 12.4195 95.8772 12.4845 96.138C11.7176 95.4331 11.2503 94.759 10.7632 93.8364Z" fill="#57C5DC"/>
<path d="M106.968 69.4778C107.031 69.6677 107.094 69.8575 107.159 70.0532C107.411 69.9899 107.664 69.9266 107.924 69.8614C107.924 70.0513 107.924 70.2411 107.924 70.4368C107.207 70.6526 107.207 70.6526 106.776 70.4368C106.776 70.3102 106.776 70.1836 106.776 70.0532C106.587 69.9899 106.398 69.9266 106.203 69.8614C106.455 69.7348 106.708 69.6082 106.968 69.4778Z" fill="#4AC4E4"/>
<path d="M14.5884 21.1442C14.5884 21.7872 14.5206 22.1191 14.2059 22.6786C13.6082 22.9303 13.6082 22.9303 13.0583 23.0622C13.2413 22.8141 13.4246 22.5665 13.6082 22.3189C13.7103 22.181 13.8124 22.043 13.9175 21.9009C14.2059 21.5278 14.2059 21.5278 14.5884 21.1442Z" fill="#56C7D8"/>
<path d="M67.3766 13.8557C67.5028 13.8557 67.629 13.8557 67.7591 13.8557C67.7643 14.2273 67.768 14.5989 67.771 14.9706C67.7733 15.1775 67.7755 15.3844 67.7778 15.5976C67.7591 16.1573 67.7591 16.1573 67.5678 16.7327C67.4416 16.7327 67.3154 16.7327 67.1853 16.7327C67.1991 16.5411 67.2129 16.3495 67.2271 16.1521C67.2449 15.9046 67.2626 15.6571 67.2809 15.4021C67.2987 15.1551 67.3164 14.9081 67.3347 14.6536C67.3648 14.255 67.3648 14.255 67.3766 13.8557Z" fill="#5FCAE0"/>
<path d="M18.0313 54.7092C18.2873 55.4796 18.1251 55.8785 17.84 56.6272C17.4336 56.9029 17.4336 56.9029 17.075 57.0108C17.3256 56.1987 17.6379 55.4622 18.0313 54.7092Z" fill="#675770"/>
<path d="M2.15672 44.3521C2.4508 44.9419 2.22672 45.3776 2.07304 46.0063C2.01806 46.2343 1.96308 46.4622 1.90644 46.6971C1.8628 46.8727 1.81916 47.0482 1.7742 47.2291C1.71108 47.2291 1.64796 47.2291 1.58294 47.2291C1.47707 45.204 1.47707 45.204 2.15672 44.3521Z" fill="#D0F9FD"/>
<path d="M107.542 43.9684C107.924 44.4569 108.279 44.9183 108.498 45.5028C108.411 45.9104 108.411 45.9104 108.307 46.27C108.177 46.0313 108.05 45.7913 107.924 45.5507C107.853 45.4172 107.782 45.2837 107.709 45.1462C107.542 44.7356 107.542 44.7356 107.542 43.9684Z" fill="#042125"/>
<path d="M101.804 40.3242C102.736 41.2113 102.736 41.2113 102.951 41.8586C102.762 41.9536 102.762 41.9536 102.569 42.0504C102.442 41.734 102.316 41.4175 102.186 41.0914C101.934 41.0914 101.681 41.0914 101.421 41.0914C101.421 40.9648 101.421 40.8382 101.421 40.7078C101.547 40.7078 101.674 40.7078 101.804 40.7078C101.804 40.5812 101.804 40.4546 101.804 40.3242Z" fill="#EDD091"/>
<path d="M27.403 40.1324C27.5293 40.1957 27.6555 40.259 27.7856 40.3242C27.6593 40.6407 27.5331 40.9572 27.403 41.2832C27.2137 41.22 27.0243 41.1567 26.8293 41.0914C26.4195 41.1661 26.4195 41.1661 26.0642 41.2832C26.496 40.8353 26.8829 40.4802 27.403 40.1324Z" fill="#140B05"/>
<path d="M100.082 38.2144C100.835 38.8014 101.36 39.2676 101.804 40.1324C101.23 40.1324 101.23 40.1324 100.835 39.8207C100.416 39.3048 100.256 38.8524 100.082 38.2144Z" fill="#E6CD97"/>
<path d="M14.5884 36.1045C14.0203 36.8641 14.0203 36.8641 13.4408 37.6389C13.2023 36.6824 13.2023 36.6824 13.4408 36.1045C14.0146 35.9127 14.0146 35.9127 14.5884 36.1045Z" fill="#4FBFD3"/>
<path d="M8.0857 29.5834C8.21193 29.5834 8.33817 29.5834 8.46822 29.5834C8.16863 30.4096 7.76374 31.1296 7.32066 31.885C7.18916 31.5613 7.18916 31.5613 7.12939 31.1178C7.38042 30.5903 7.38042 30.5903 7.70318 30.1588C7.82941 30.1588 7.95564 30.1588 8.0857 30.1588C8.0857 29.9689 8.0857 29.779 8.0857 29.5834Z" fill="#DBFBFD"/>
<path d="M63.9338 14.4312C64.06 14.4312 64.1863 14.4312 64.3163 14.4312C64.3539 15.2403 64.2785 15.8064 63.9338 16.541C63.8707 16.541 63.8076 16.541 63.7426 16.541C63.7374 16.2613 63.7337 15.9815 63.7306 15.7018C63.7284 15.5461 63.7262 15.3903 63.7239 15.2298C63.7426 14.8148 63.7426 14.8148 63.9338 14.4312Z" fill="#59C9DC"/>
<path d="M91.8582 9.25256C92.9579 9.39641 92.9579 9.39641 93.3882 9.82796C93.5216 10.0807 93.6502 10.3361 93.7708 10.5952C93.4872 10.4446 93.2044 10.2925 92.922 10.1396C92.7645 10.0551 92.607 9.97053 92.4446 9.88341C92.0494 9.63616 92.0494 9.63616 91.8582 9.25256Z" fill="#D3F8FC"/>
<path d="M28.168 9.44431C27.3159 10.014 27.3159 10.014 26.4466 10.5951C26.3835 10.4052 26.3204 10.2153 26.2554 10.0197C27.5225 9.22854 27.5225 9.22854 28.168 9.44431Z" fill="#DFFBFC"/>
<path d="M15.5449 99.9741C16.2024 100.13 16.2024 100.13 16.8838 100.358C16.9469 100.548 17.01 100.737 17.075 100.933C16.9488 101.06 16.8225 101.186 16.6925 101.317C16.3138 100.874 15.9351 100.431 15.5449 99.9741Z" fill="#48C7D9"/>
<path d="M58.5786 96.7135C58.7048 96.7768 58.831 96.8401 58.9611 96.9053C58.722 97.3848 58.722 97.3848 58.3873 97.8643C58.1348 97.8643 57.8824 97.8643 57.6223 97.8643C57.6223 97.7377 57.6223 97.6111 57.6223 97.4807C57.496 97.4174 57.3698 97.3541 57.2397 97.2889C57.6804 97.0843 58.1272 96.893 58.5786 96.7135Z" fill="#48B7CC"/>
<path d="M21.0914 83.671C21.5739 84.0497 21.6638 84.2402 21.7967 84.8578C21.8164 85.0358 21.8361 85.2138 21.8565 85.3972C21.3783 84.9537 21.3783 84.9537 20.9001 84.4382C20.9001 83.8628 20.9001 83.8628 21.0914 83.671Z" fill="#68576F"/>
<path d="M77.7047 77.9171C77.5824 77.9725 77.4601 78.0279 77.3341 78.0849C76.9106 78.2677 76.9106 78.2677 76.7484 78.6843C76.3697 78.6843 75.991 78.6843 75.6008 78.6843C75.6008 78.5577 75.6008 78.4311 75.6008 78.3007C75.8791 78.199 76.1582 78.0996 76.4376 78.001C76.5929 77.9454 76.7482 77.8897 76.9083 77.8324C77.3222 77.7253 77.3222 77.7253 77.7047 77.9171Z" fill="#391C11"/>
<path d="M60.3 75.2318C60.4975 75.7666 60.4998 75.9736 60.3119 76.5265C60.2448 76.6689 60.1778 76.8113 60.1087 76.958C59.9193 76.958 59.73 76.958 59.5349 76.958C59.7642 76.3667 60.0087 75.7952 60.3 75.2318Z" fill="#6A5973"/>
<path d="M26.6381 39.9406C26.8906 40.0671 27.143 40.1937 27.4031 40.3242C26.8982 40.6406 26.3933 40.9571 25.873 41.2832C25.9362 41.03 25.9993 40.7768 26.0643 40.516C26.1905 40.516 26.3168 40.516 26.4468 40.516C26.5099 40.3261 26.5731 40.1362 26.6381 39.9406Z" fill="#E2C68B"/>
<path d="M35.6273 35.5292C35.8166 35.6558 36.0059 35.7824 36.201 35.9128C36.3273 35.9128 36.4535 35.9128 36.5836 35.9128C36.6467 35.7862 36.7098 35.6596 36.7748 35.5292C36.7748 35.7191 36.7748 35.9089 36.7748 36.1046C36.333 36.2312 35.8912 36.3578 35.436 36.4882C35.3098 36.3616 35.1835 36.235 35.0535 36.1046C35.2428 35.9147 35.4322 35.7248 35.6273 35.5292Z" fill="#F6D798"/>
<path d="M33.9059 28.6244C33.7954 28.6718 33.685 28.7193 33.5712 28.7682C33.0834 29.04 32.7549 29.3678 32.3758 29.7752C32.1864 29.7119 31.9971 29.6486 31.802 29.5834C32.9769 28.4874 32.9769 28.4874 33.9059 28.6244Z" fill="#E4CA92"/>
<path d="M29.5068 27.6654C29.57 27.792 29.6331 27.9186 29.6981 28.049C29.459 28.7323 29.459 28.7323 29.1243 29.3916C28.935 29.4549 28.7456 29.5182 28.5505 29.5834C28.7716 28.8331 29.001 28.2649 29.5068 27.6654Z" fill="#051E2F"/>
<path d="M96.2571 12.5132C97.019 12.928 97.5748 13.417 98.1697 14.0476C97.8541 13.9843 97.5385 13.921 97.2134 13.8558C97.1503 13.6659 97.0872 13.476 97.0221 13.2804C96.8959 13.2804 96.7697 13.2804 96.6396 13.2804C96.6396 13.1538 96.6396 13.0272 96.6396 12.8968C96.5134 12.8968 96.3871 12.8968 96.2571 12.8968C96.2571 12.7702 96.2571 12.6436 96.2571 12.5132Z" fill="#5EC7DB"/>
<path d="M93.1968 108.989C93.4492 109.115 93.7017 109.242 93.9618 109.372C93.52 109.689 93.0782 110.005 92.623 110.331C92.4968 110.268 92.3705 110.205 92.2405 110.139C92.4298 110.013 92.6192 109.886 92.8143 109.756C93.0423 109.363 93.0423 109.363 93.1968 108.989Z" fill="#4EC4E1"/>
<path d="M28.9331 95.3708C29.5643 95.6873 30.1954 96.0038 30.8457 96.3299C30.0027 96.5412 29.7188 96.4425 28.9331 96.1381C28.9331 95.8849 28.9331 95.6317 28.9331 95.3708Z" fill="#51C0D2"/>
<path d="M4.2605 81.9448C4.82673 82.5901 5.0108 83.2283 5.2168 84.0546C5.02746 83.9913 4.83811 83.928 4.64302 83.8628C4.64302 83.6097 4.64302 83.3565 4.64302 83.0956C4.51679 83.0956 4.39056 83.0956 4.2605 83.0956C4.2605 82.7159 4.2605 82.3361 4.2605 81.9448Z" fill="#D2F8FC"/>
<path d="M116.722 78.6842C116.949 79.342 116.876 79.7157 116.638 80.3625C116.556 80.5924 116.556 80.5924 116.472 80.827C116.428 80.9427 116.385 81.0584 116.34 81.1776C116.213 81.1776 116.087 81.1776 115.957 81.1776C116.049 80.8699 116.14 80.5622 116.232 80.2546C116.283 80.0832 116.334 79.9119 116.387 79.7354C116.493 79.3834 116.606 79.0332 116.722 78.6842Z" fill="#CFF7FB"/>
<path d="M66.4202 55.2847C66.8464 55.712 66.9352 55.9862 67.1136 56.5553C67.1883 56.7905 67.1883 56.7905 67.2645 57.0304C67.3015 57.1505 67.3385 57.2707 67.3766 57.3945C66.8028 57.2027 66.8028 57.2027 66.5756 56.7711C66.4204 56.2441 66.3891 55.8304 66.4202 55.2847Z" fill="#2E160D"/>
<path d="M107.924 44.3521C108.113 44.4153 108.303 44.4786 108.498 44.5439C108.821 45.2732 108.918 45.7048 108.689 46.4619C108.561 46.1825 108.433 45.9027 108.307 45.6227C108.236 45.467 108.165 45.3112 108.091 45.1507C107.924 44.7357 107.924 44.7357 107.924 44.3521Z" fill="#4DBED0"/>
<path d="M96.6396 35.1456C97.1178 35.3854 97.1178 35.3854 97.596 35.721C97.596 35.9742 97.596 36.2274 97.596 36.4882C97.3435 36.4249 97.091 36.3616 96.8309 36.2964C96.894 36.0433 96.9571 35.7901 97.0222 35.5292C96.8959 35.5292 96.7697 35.5292 96.6396 35.5292C96.6396 35.4026 96.6396 35.2761 96.6396 35.1456Z" fill="#F2D48E"/>
<path d="M114.618 35.7209C115.192 35.9127 115.192 35.9127 115.515 36.5361C115.735 37.1674 115.825 37.5598 115.766 38.2144C115.11 37.494 114.893 36.6349 114.618 35.7209Z" fill="#D5FBFD"/>
<path d="M99.3171 33.2275C100.188 33.1567 100.188 33.1567 100.62 33.5153C100.695 33.6102 100.77 33.7051 100.847 33.803C100.784 33.9928 100.721 34.1827 100.656 34.3784C100.432 34.2233 100.209 34.0673 99.9866 33.9108C99.8623 33.8241 99.738 33.7373 99.61 33.6479C99.5134 33.5725 99.4167 33.497 99.3171 33.4194C99.3171 33.3561 99.3171 33.2928 99.3171 33.2275Z" fill="#46BACD"/>
<path d="M105.438 19.8015C105.793 20.4028 105.859 20.8324 105.82 21.5277C104.888 20.6167 104.888 20.6167 104.673 20.1851C104.925 20.2484 105.178 20.3117 105.438 20.3769C105.438 20.187 105.438 19.9971 105.438 19.8015Z" fill="#E2FCFB"/>
<path d="M102.76 18.2672C103.86 18.6029 103.86 18.6029 104.29 19.0344C104.218 19.442 104.218 19.442 104.099 19.8016C103.984 19.6552 103.87 19.5089 103.752 19.3581C103.435 18.9676 103.123 18.6129 102.76 18.2672Z" fill="#CBF6F9"/>
<path d="M99.6997 15.3901C99.9558 15.5724 100.211 15.7566 100.465 15.9416C100.678 16.0951 100.678 16.0951 100.895 16.2517C101.006 16.3472 101.116 16.4426 101.23 16.5409C101.23 16.6675 101.23 16.7941 101.23 16.9245C100.977 16.9245 100.725 16.9245 100.465 16.9245C100.402 16.7347 100.339 16.5448 100.273 16.3491C100.175 16.2502 100.076 16.1513 99.9746 16.0495C99.8839 15.9585 99.7932 15.8675 99.6997 15.7737C99.6997 15.6471 99.6997 15.5206 99.6997 15.3901Z" fill="#59C4DE"/>
<path d="M65.2728 13.2804C65.9064 13.2444 65.9064 13.2444 66.6116 13.2804C66.801 13.4703 66.9903 13.6602 67.1854 13.8558C66.4911 13.7925 65.7969 13.7292 65.0815 13.664C65.1447 13.5374 65.2078 13.4108 65.2728 13.2804Z" fill="#E0FAFE"/>
<path d="M73.8796 1.3887C73.8796 1.51528 73.8796 1.64187 73.8796 1.7723C72.5885 1.62845 72.5885 1.62845 72.1582 1.1969C72.881 0.995561 73.2387 0.984042 73.8796 1.3887Z" fill="#DBF8FC"/>
<path d="M41.7476 99.2069C41.0874 99.6483 40.9377 99.617 40.1817 99.5186C39.9232 99.4867 39.9232 99.4867 39.6594 99.4542C39.528 99.4359 39.3966 99.4176 39.2612 99.3987C39.2612 99.3354 39.2612 99.2721 39.2612 99.2069C40.1466 99.012 40.8572 99.0462 41.7476 99.2069Z" fill="#0A2932"/>
<path d="M20.709 88.8496C21.0877 89.1661 21.4664 89.4826 21.8566 89.8086C21.7303 89.9352 21.6041 90.0618 21.474 90.1922C21.2847 90.1289 21.0953 90.0656 20.9002 90.0004C20.7577 89.5976 20.709 89.2765 20.709 88.8496Z" fill="#4EC4DC"/>
<path d="M1.96529 74.8483C2.43546 75.5555 2.54145 76.1328 2.73034 76.9581C2.54099 76.8948 2.35164 76.8315 2.15655 76.7663C1.93512 76.1001 1.95216 75.5463 1.96529 74.8483Z" fill="#CBF6FC"/>
<path d="M23.0039 47.6125C23.067 47.7391 23.1301 47.8657 23.1952 47.9961C23.0164 48.3858 22.8256 48.7701 22.6214 49.147C22.432 49.0837 22.2427 49.0204 22.0476 48.9552C22.3387 48.4509 22.5915 48.0261 23.0039 47.6125Z" fill="#65556C"/>
<path d="M61.4476 37.0636C60.4062 37.5383 60.4062 37.5383 59.3438 38.0226C59.3438 37.8327 59.3438 37.6428 59.3438 37.4472C59.5859 37.3451 59.8292 37.2457 60.0729 37.1475C60.2083 37.0919 60.3436 37.0362 60.4831 36.9789C60.8738 36.8718 60.8738 36.8718 61.4476 37.0636Z" fill="#1B0801"/>
<path d="M19.7526 30.926C19.8158 30.926 19.8789 30.926 19.9439 30.926C19.9439 31.4324 19.9439 31.9387 19.9439 32.4604C19.7546 32.5237 19.5652 32.587 19.3701 32.6522C19.5375 31.1418 19.5375 31.1418 19.7526 30.926Z" fill="#051926"/>
<path d="M23.7692 30.926C23.5902 30.9935 23.5902 30.9935 23.4076 31.0624C22.8889 31.3802 22.834 31.6192 22.6694 32.1967C22.6231 32.3534 22.5767 32.5102 22.529 32.6717C22.4964 32.7918 22.4639 32.912 22.4304 33.0358C22.3673 33.0358 22.3041 33.0358 22.2391 33.0358C22.1696 31.6188 22.1696 31.6188 22.4662 31.1178C22.92 30.8667 23.2592 30.8845 23.7692 30.926Z" fill="#261709"/>
<path d="M20.709 28.2407C21.0294 28.2956 21.3485 28.3592 21.6653 28.4325C21.3506 28.7562 21.0316 29.0758 20.709 29.3915C20.6458 29.3915 20.5827 29.3915 20.5177 29.3915C20.5095 29.072 20.5099 28.7521 20.5177 28.4325C20.5808 28.3692 20.6439 28.3059 20.709 28.2407Z" fill="#4DC2D6"/>
<path d="M61.8301 95.3708C61.6388 95.9463 61.6388 95.9463 61.1965 96.186C60.6508 96.3387 60.4438 96.2956 59.9175 96.1381C60.164 96.0092 60.4112 95.8816 60.6586 95.7545C60.7962 95.6832 60.9338 95.612 61.0755 95.5387C61.4476 95.3708 61.4476 95.3708 61.8301 95.3708Z" fill="#48B0C5"/>
<path d="M24.7253 92.4939C25.9549 93.2885 25.9549 93.2885 26.4467 93.8365C25.8786 93.7416 25.8786 93.7416 25.2991 93.6447C25.2991 93.4548 25.2991 93.2649 25.2991 93.0693C25.1098 93.006 24.9204 92.9427 24.7253 92.8775C24.7253 92.7509 24.7253 92.6243 24.7253 92.4939Z" fill="#4FBED2"/>
<path d="M22.8127 90.7677C23.1283 91.0842 23.4439 91.4006 23.769 91.7267C23.3272 91.79 22.8854 91.8533 22.4302 91.9185C22.4302 91.7919 22.4302 91.6653 22.4302 91.5349C22.6195 91.5349 22.8089 91.5349 23.004 91.5349C22.9408 91.2817 22.8777 91.0285 22.8127 90.7677Z" fill="#49BAD5"/>
<path d="M69.6717 89.2333C69.6717 89.8087 69.6717 89.8087 69.2294 90.3241C68.7154 90.7677 68.7154 90.7677 68.1416 90.7677C68.6465 90.2613 69.1515 89.755 69.6717 89.2333Z" fill="#4EBCC8"/>
<path d="M71.5844 87.1234C71.6476 87.3133 71.7107 87.5032 71.7757 87.6988C71.5863 87.7621 71.397 87.8254 71.2019 87.8906C70.9707 88.2742 70.9707 88.2742 70.8194 88.6578C70.63 88.6578 70.4407 88.6578 70.2456 88.6578C70.6874 88.1515 71.1292 87.6451 71.5844 87.1234Z" fill="#52B8CA"/>
<path d="M89.563 76.9581C89.3737 77.0214 89.1844 77.0847 88.9893 77.1499C88.9261 77.3398 88.863 77.5297 88.798 77.7253C88.5455 77.7253 88.2931 77.7253 88.033 77.7253C88.2242 77.1499 88.2242 77.1499 88.6904 76.9102C89.1805 76.7663 89.1805 76.7663 89.563 76.9581Z" fill="#48B4C9"/>
<path d="M117.679 74.8483C117.9 75.5155 117.827 75.6811 117.595 76.3227C117.54 76.4778 117.485 76.6328 117.428 76.7925C117.363 76.9694 117.363 76.9694 117.296 77.1499C117.233 77.1499 117.17 77.1499 117.105 77.1499C117.022 76.2384 117.299 75.6573 117.679 74.8483Z" fill="#61C8DE"/>
<path d="M21.0915 44.5438C21.2808 44.5438 21.4702 44.5438 21.6652 44.5438C21.5218 44.9154 21.5218 44.9154 21.2827 45.311C20.8763 45.4549 20.8763 45.4549 20.5177 45.5028C20.4546 45.3129 20.3914 45.1231 20.3264 44.9274C20.5158 44.9274 20.7051 44.9274 20.9002 44.9274C20.9633 44.8008 21.0264 44.6742 21.0915 44.5438Z" fill="#E8CC92"/>
<path d="M14.5886 43.0094C14.9942 43.511 15.3787 44.0061 15.7362 44.5438C15.4206 44.4805 15.105 44.4172 14.7799 44.352C14.7168 43.9089 14.6537 43.4659 14.5886 43.0094Z" fill="#52BCCF"/>
<path d="M29.6981 42.434C29.4975 42.9368 29.3826 43.1616 28.9091 43.4409C28.7908 43.4884 28.6724 43.5359 28.5505 43.5848C28.4243 43.4582 28.298 43.3316 28.168 43.2012C29.2677 42.434 29.2677 42.434 29.6981 42.434Z" fill="#6A5971"/>
<path d="M103.143 37.0636C103.621 37.5071 103.621 37.5071 104.099 38.0226C104.099 38.2125 104.099 38.4024 104.099 38.598C103.621 38.2624 103.621 38.2624 103.143 37.8308C103.143 37.5776 103.143 37.3244 103.143 37.0636Z" fill="#051F28"/>
<path d="M69.5523 33.9708C69.6548 34.042 69.7574 34.1132 69.8631 34.1865C69.5475 34.1865 69.2319 34.1865 68.9067 34.1865C68.8436 34.3764 68.7805 34.5663 68.7155 34.7619C68.5893 34.7619 68.463 34.7619 68.333 34.7619C68.333 34.6354 68.333 34.5088 68.333 34.3783C68.2067 34.315 68.0805 34.2518 67.9504 34.1865C68.9862 33.7616 68.9862 33.7616 69.5523 33.9708Z" fill="#DA9D72"/>
<path d="M11.9109 23.6376C12.1003 23.7009 12.2896 23.7642 12.4847 23.8294C12.0114 24.494 12.0114 24.494 11.5284 25.172C11.4653 24.9821 11.4022 24.7922 11.3372 24.5966C11.6121 24.0811 11.6121 24.0811 11.9109 23.6376Z" fill="#DDFDFF"/>
<path d="M91.4754 110.907C91.6017 110.97 91.7279 111.033 91.858 111.099C91.7317 111.352 91.6055 111.605 91.4754 111.866C91.0968 111.866 90.7181 111.866 90.3279 111.866C90.6975 111.477 91.0225 111.21 91.4754 110.907Z" fill="#DFF7FC"/>
<path d="M13.4409 97.4807C14.1668 97.7667 14.514 98.2013 14.971 98.8233C14.9079 98.9499 14.8448 99.0765 14.7797 99.2069C14.556 98.9557 14.333 98.7038 14.1103 98.4517C13.9861 98.3115 13.8618 98.1713 13.7338 98.0269C13.4409 97.6725 13.4409 97.6725 13.4409 97.4807Z" fill="#58C4D5"/>
<path d="M110.219 92.4939C110.282 92.6838 110.345 92.8737 110.411 93.0693C110.064 93.6807 110.064 93.6807 109.645 94.2201C109.519 94.2201 109.393 94.2201 109.263 94.2201C109.502 93.5566 109.775 93.0411 110.219 92.4939Z" fill="#D2F9FC"/>
<path d="M21.2826 88.2743C21.6651 88.8497 21.6651 88.8497 21.5934 89.2693C21.554 89.384 21.5145 89.4987 21.4739 89.6169C21.1583 89.2371 20.8427 88.8574 20.5176 88.4661C20.77 88.4028 21.0225 88.3395 21.2826 88.2743Z" fill="#06282E"/>
<path d="M51.1194 84.8218C50.8684 85.2054 50.8684 85.2054 50.5457 85.589C50.3563 85.589 50.167 85.589 49.9719 85.589C49.9719 85.4624 49.9719 85.3358 49.9719 85.2054C49.8456 85.1421 49.7194 85.0788 49.5894 85.0136C50.6891 84.606 50.6891 84.606 51.1194 84.8218Z" fill="#695672"/>
<path d="M82.6775 79.2596C81.4104 79.835 81.4104 79.835 80.7649 79.835C80.828 79.6452 80.8911 79.4553 80.9562 79.2596C81.6023 79.0977 82.0415 79.047 82.6775 79.2596Z" fill="#041C29"/>
<path d="M73.8794 75.2318C74.0056 75.2318 74.1319 75.2318 74.2619 75.2318C74.5447 75.7989 74.4647 76.3332 74.4532 76.958C73.9249 76.4282 73.96 75.9593 73.8794 75.2318Z" fill="#EAAA83"/>
<path d="M105.055 70.8205C104.493 71.3005 104.065 71.4859 103.334 71.5877C103.334 71.4611 103.334 71.3345 103.334 71.2041C104.41 70.6047 104.41 70.6047 105.055 70.8205Z" fill="#4DB7CD"/>
<path d="M110.793 52.7913C111.284 53.5295 111.281 54.0255 111.367 54.9011C111.303 54.7112 111.24 54.5213 111.175 54.3257C110.986 54.2624 110.797 54.1991 110.602 54.1339C110.665 53.6908 110.728 53.2477 110.793 52.7913Z" fill="#0B313F"/>
<path d="M13.2498 41.6667C13.716 41.8226 13.716 41.8226 14.2061 42.0503C14.2692 42.2402 14.3323 42.4301 14.3973 42.6257C14.2711 42.7523 14.1449 42.8789 14.0148 43.0094C14.0148 42.8828 14.0148 42.7562 14.0148 42.6257C13.7623 42.4992 13.5099 42.3726 13.2498 42.2421C13.2498 42.0523 13.2498 41.8624 13.2498 41.6667Z" fill="#48C1DE"/>
<path d="M99.126 37.0636C99.4416 37.0636 99.7571 37.0636 100.082 37.0636C100.145 37.4434 100.209 37.8231 100.274 38.2144C99.8871 37.8995 99.5046 37.5797 99.126 37.2554C99.126 37.1921 99.126 37.1288 99.126 37.0636Z" fill="#312315"/>
<path d="M31.4195 30.1588C31.4826 30.1588 31.5457 30.1588 31.6107 30.1588C31.6107 30.6019 31.6107 31.0449 31.6107 31.5014C31.3583 31.5647 31.1058 31.628 30.8457 31.6932C31.2043 30.5904 31.2043 30.5904 31.4195 30.1588Z" fill="#E3C68D"/>
<path d="M12.8673 23.0621C12.9304 23.1887 12.9935 23.3153 13.0586 23.4457C12.7119 24.0211 12.7119 24.0211 12.2935 24.5965C12.1042 24.5965 11.9148 24.5965 11.7197 24.5965C12.0984 24.0902 12.4771 23.5838 12.8673 23.0621Z" fill="#73D1E1"/>
<path d="M49.9718 21.7196C50.0349 21.7196 50.0981 21.7196 50.1631 21.7196C50.1631 22.226 50.1631 22.7323 50.1631 23.254C50.0369 23.254 49.9106 23.254 49.7806 23.254C49.7175 23.4439 49.6543 23.6338 49.5893 23.8294C49.4631 23.8294 49.3368 23.8294 49.2068 23.8294C49.2068 23.6395 49.2068 23.4496 49.2068 23.254C49.4593 23.1907 49.7117 23.1274 49.9718 23.0622C49.9718 22.6191 49.9718 22.1761 49.9718 21.7196Z" fill="#C0F5FB"/>
<path d="M92.0493 9.63611C92.8023 9.8878 93.2403 10.196 93.7707 10.7869C92.4995 10.5036 92.4995 10.5036 92.1569 9.99573C92.1214 9.87706 92.0859 9.75838 92.0493 9.63611Z" fill="#58C6DC"/>
<path d="M36.3922 98.6315C36.834 98.6948 37.2758 98.7581 37.731 98.8233C37.3485 99.2069 37.3485 99.2069 36.7508 99.2308C36.4786 99.219 36.4786 99.219 36.2009 99.2069C36.264 99.017 36.3272 98.8271 36.3922 98.6315Z" fill="#49B5CC"/>
<path d="M60.3001 96.1381C59.6689 96.3913 59.0377 96.6444 58.3875 96.9053C58.3875 96.7787 58.3875 96.6521 58.3875 96.5217C59.6546 95.9223 59.6546 95.9223 60.3001 96.1381Z" fill="#00121D"/>
<path d="M29.1245 94.7955C29.1245 94.9854 29.1245 95.1753 29.1245 95.3709C28.5669 95.1649 28.2106 95.0299 27.7856 94.6037C28.4523 94.3732 28.4895 94.371 29.1245 94.7955Z" fill="#061D29"/>
<path d="M70.6281 87.6989C70.7543 87.7621 70.8805 87.8254 71.0106 87.8907C70.6966 88.2782 70.3777 88.6618 70.0543 89.0415C69.9912 89.0415 69.9281 89.0415 69.863 89.0415C69.863 88.725 69.863 88.4085 69.863 88.0825C70.2217 87.8787 70.2217 87.8787 70.6281 87.6989Z" fill="#021921"/>
<path d="M60.1088 75.04C60.235 75.1033 60.3613 75.1666 60.4913 75.2318C60.302 75.6116 60.1126 75.9914 59.9175 76.3826C59.7282 76.3826 59.5388 76.3826 59.3438 76.3826C59.574 75.9044 59.8132 75.4847 60.1088 75.04Z" fill="#0F0811"/>
<path d="M101.421 68.9025C101.295 69.1556 101.169 69.4088 101.039 69.6697C100.597 69.6697 100.155 69.6697 99.6997 69.6697C100.19 69.1776 100.716 68.9025 101.421 68.9025Z" fill="#211508"/>
<path d="M71.7756 68.9025C71.965 68.9658 72.1543 69.0291 72.3494 69.0943C72.4125 69.7272 72.4757 70.3601 72.5407 71.0123C72.0705 70.305 71.9645 69.7278 71.7756 68.9025Z" fill="#E2A37E"/>
<path d="M112.132 66.0254C112.195 66.152 112.258 66.2786 112.323 66.409C111.997 66.9429 111.849 67.1482 111.235 67.32C111.016 67.3438 111.016 67.3438 110.793 67.368C111.239 66.9205 111.686 66.4729 112.132 66.0254Z" fill="#47B6C9"/>
<path d="M63.3602 55.86C63.6591 56.2076 63.6591 56.2076 63.934 56.6272C63.8709 56.8171 63.8078 57.007 63.7427 57.2026C63.5534 57.1393 63.364 57.076 63.1689 57.0108C63.2321 56.631 63.2952 56.2513 63.3602 55.86Z" fill="#6A5873"/>
<path d="M15.3535 52.2158C15.5428 52.2791 15.7322 52.3424 15.9273 52.4076C15.6432 53.0722 15.6432 53.0722 15.3535 53.7502C15.2272 53.497 15.101 53.2439 14.9709 52.983C15.0972 52.983 15.2234 52.983 15.3535 52.983C15.3535 52.7298 15.3535 52.4767 15.3535 52.2158Z" fill="#4CBDD2"/>
<path d="M57.4312 44.5438C57.8611 44.9375 58.0054 45.1205 58.1962 45.6946C58.07 45.8212 57.9437 45.9478 57.8137 46.0782C57.8137 45.9516 57.8137 45.825 57.8137 45.6946C57.6874 45.6946 57.5612 45.6946 57.4312 45.6946C57.4312 45.3149 57.4312 44.9351 57.4312 44.5438Z" fill="#6A5872"/>
<path d="M18.9875 43.7766C19.3701 44.0403 19.3701 44.0403 19.7526 44.352C19.7526 44.4786 19.7526 44.6052 19.7526 44.7356C19.9419 44.7989 20.1313 44.8622 20.3264 44.9274C19.9439 45.1192 19.9439 45.1192 19.5494 44.9993C19.1788 44.7356 19.1788 44.7356 19.0354 44.2321C19.0196 44.0818 19.0038 43.9315 18.9875 43.7766Z" fill="#312014"/>
<path d="M59.1523 41.475C59.3417 41.475 59.531 41.475 59.7261 41.475C60.0608 41.9065 60.0608 41.9065 60.2999 42.434C60.2368 42.6872 60.1737 42.9403 60.1086 43.2012C59.7931 42.6315 59.4775 42.0619 59.1523 41.475Z" fill="#E4A77A"/>
<path d="M24.4505 11.5421C24.6813 11.548 24.6813 11.548 24.9167 11.5541C24.4648 12.0386 24.2158 12.2999 23.5779 12.5131C23.7929 11.5582 23.7929 11.5582 24.4505 11.5421Z" fill="#D6FAFE"/>
</svg>
