<svg width="120" height="120" viewBox="0 0 120 120" fill="none" xmlns="http://www.w3.org/2000/svg">
<path d="M69.6162 0.799449C69.9053 0.841772 70.1945 0.883759 70.4837 0.92535C72.7959 1.2768 75.0501 1.90223 77.3009 2.52609C77.5019 2.58146 77.5019 2.58146 77.7069 2.63794C78.9751 2.99186 80.1517 3.43084 81.3391 3.99718C81.8749 4.23632 82.4158 4.43803 82.9691 4.63278C84.9628 5.33749 86.786 6.30602 88.6358 7.32232C88.8493 7.43855 89.0628 7.55479 89.2827 7.67454C89.6249 7.86102 89.9667 8.04827 90.3079 8.2366C90.7337 8.46512 91.165 8.67421 91.6016 8.88109C92.2067 9.17835 92.5827 9.52272 93.0545 10.0082C93.8396 10.577 94.6509 11.0945 95.504 11.555C96.1496 11.9393 96.5655 12.3507 97.089 12.8859C97.3506 13.093 97.6151 13.2965 97.8815 13.4975C98.7826 14.1828 99.6039 14.9396 100.435 15.7075C100.844 16.0703 101.246 16.3838 101.7 16.687C102.293 17.1188 102.505 17.4354 102.853 18.0659C103.169 18.389 103.49 18.7081 103.813 19.0251C104.242 19.4687 104.664 19.918 105.086 20.3681C105.196 20.4838 105.306 20.5995 105.419 20.7188C105.999 21.3381 106.465 21.93 106.887 22.6703C107.049 22.8246 107.212 22.9789 107.379 23.1379C107.888 23.6723 108.051 24.0737 108.232 24.7806C108.359 24.7806 108.485 24.7806 108.616 24.7806C108.804 25.046 108.99 25.3132 109.163 25.5885C109.471 26.066 109.817 26.5137 110.162 26.9651C110.345 27.2746 110.345 27.2746 110.345 27.8502C110.472 27.8502 110.599 27.8502 110.729 27.8502C111.047 28.2552 111.335 28.6569 111.618 29.0852C111.703 29.2131 111.788 29.341 111.876 29.4727C112.728 30.7886 113.378 32.1782 114.013 33.6076C114.195 34.005 114.388 34.3947 114.586 34.7845C114.892 35.3893 115.168 35.9995 115.424 36.6273C115.67 37.229 115.918 37.8291 116.178 38.4251C116.262 38.6193 116.346 38.8134 116.433 39.0134C116.547 39.2727 116.547 39.2727 116.663 39.5372C116.888 40.1579 117.021 40.766 117.157 41.4104C117.322 42.1136 117.571 42.7827 117.814 43.4619C118.435 45.2648 118.844 47.0793 119.183 48.9536C119.211 49.1073 119.238 49.261 119.267 49.4193C119.35 49.8832 119.429 50.3474 119.507 50.8121C119.53 50.9462 119.553 51.0802 119.576 51.2183C120.025 54.0661 119.996 56.978 119.999 59.853C119.999 60.0422 120 60.2315 120 60.4264C120 63.4816 119.841 66.4578 119.375 69.4815C119.344 69.6907 119.314 69.9 119.283 70.1156C119.11 71.2867 118.906 72.4251 118.606 73.5702C118.543 73.8148 118.479 74.0594 118.414 74.3114C118.351 74.5535 118.287 74.7956 118.222 75.0451C118.159 75.3006 118.097 75.5561 118.034 75.8117C117.844 76.5727 117.619 77.3194 117.381 78.0667C117.318 78.2662 117.318 78.2662 117.254 78.4697C117.129 78.8631 117.003 79.2563 116.877 79.6495C116.811 79.8572 116.745 80.0649 116.677 80.279C115.312 84.4912 113.148 88.7013 110.581 92.3182C110.328 92.6927 110.328 92.6927 110.183 93.1418C109.887 93.8257 109.443 94.3639 108.976 94.9374C108.882 95.0553 108.787 95.1731 108.69 95.2946C108.499 95.5325 108.308 95.7701 108.117 96.0072C107.748 96.4638 107.384 96.924 107.019 97.3835C106.123 98.4972 105.209 99.5507 104.197 100.561C103.759 101.057 103.322 101.555 102.888 102.056C102.495 102.452 102.197 102.633 101.7 102.863C101.569 103.117 101.44 103.373 101.316 103.631C101.125 103.694 100.935 103.757 100.739 103.822C100.676 104.012 100.612 104.202 100.547 104.398C100.42 104.398 100.294 104.398 100.163 104.398C100.163 104.525 100.163 104.651 100.163 104.782C99.7494 105.132 99.3342 105.463 98.9021 105.789C98.6528 105.98 98.4036 106.172 98.1547 106.364C98.0354 106.455 97.9162 106.547 97.7933 106.642C97.4312 106.925 97.0839 107.222 96.7408 107.528C96.1602 108.034 95.5388 108.451 94.8924 108.87C94.3223 109.245 93.7677 109.639 93.2106 110.034C92.1172 110.799 90.9832 111.466 89.8171 112.115C89.3347 112.387 88.8706 112.668 88.4077 112.971C87.406 113.608 86.1903 114.374 84.9856 114.374C84.9856 114.501 84.9856 114.627 84.9856 114.758C84.7098 114.855 84.4335 114.951 84.1571 115.046C84.0033 115.099 83.8495 115.152 83.6911 115.207C83.2565 115.333 83.2565 115.333 82.6802 115.333C82.6802 115.46 82.6802 115.587 82.6802 115.717C81.9089 115.977 81.1373 116.236 80.3655 116.495C80.1043 116.582 79.8431 116.67 79.582 116.758C77.1882 117.565 74.7959 118.334 72.3058 118.787C72.0948 118.83 71.8838 118.873 71.6665 118.917C71.0056 119.049 70.3446 119.171 69.6805 119.285C69.3837 119.336 69.0871 119.389 68.7909 119.444C65.8433 119.977 62.9003 119.994 59.9143 119.998C59.7147 119.998 59.5152 119.999 59.3096 120C57.1757 120.004 55.0862 119.959 52.973 119.649C52.3019 119.551 51.632 119.484 50.9568 119.422C47.2486 118.957 43.5341 117.958 40.0301 116.676C39.7615 116.581 39.4929 116.486 39.2241 116.392C38.5951 116.17 37.9674 115.945 37.3404 115.717C37.3404 115.59 37.3404 115.464 37.3404 115.333C37.1542 115.322 36.968 115.31 36.7761 115.297C35.9798 115.186 35.4043 114.838 34.7198 114.433C34.2825 114.191 33.8593 114.017 33.39 113.847C31.3979 113.084 29.5172 111.89 27.7346 110.729C27.5629 110.623 27.5629 110.623 27.3879 110.515C27.1122 110.341 26.8458 110.153 26.5819 109.962C26.5819 109.835 26.5819 109.708 26.5819 109.578C26.4214 109.548 26.4214 109.548 26.2577 109.518C25.3281 109.242 24.6366 108.641 23.8922 108.043C23.6069 107.859 23.6069 107.859 23.3159 107.671C22.7256 107.266 22.2819 106.825 21.7789 106.316C21.4248 105.986 21.0686 105.659 20.7103 105.333C20.5317 105.171 20.3532 105.008 20.1692 104.84C19.6872 104.402 19.6872 104.402 19.2161 104.076C19.1109 103.992 19.0056 103.909 18.8972 103.822C18.8972 103.696 18.8972 103.569 18.8972 103.439C18.7884 103.393 18.6797 103.348 18.5677 103.301C18.0324 103.001 17.6766 102.633 17.2522 102.192C16.7846 101.707 16.3862 101.319 15.8233 100.945C15.6921 100.69 15.5638 100.435 15.439 100.177C15.3122 100.114 15.1854 100.051 15.0548 99.9855C15.0548 99.8588 15.0548 99.7322 15.0548 99.6018C14.928 99.6018 14.8012 99.6018 14.6706 99.6018C14.4107 99.2709 14.1647 98.9291 13.9261 98.5826C13.4516 97.8935 13.0415 97.4027 12.3652 96.9159C12.1697 96.5339 11.9779 96.15 11.7888 95.7648C11.6221 95.5526 11.4498 95.3447 11.2725 95.1413C10.8282 94.6137 10.8282 94.6137 10.8282 94.23C10.7014 94.23 10.5746 94.23 10.444 94.23C10.3947 94.1387 10.3454 94.0475 10.2946 93.9535C9.76619 92.9886 9.21115 92.0422 8.64289 91.1004C8.5683 90.9765 8.49371 90.8525 8.41686 90.7247C8.07219 90.1519 7.7264 89.5799 7.37761 89.0096C6.70236 87.8877 6.15074 86.769 5.66506 85.5533C5.13985 84.228 5.13985 84.228 4.29623 83.1027C4.09374 82.5082 3.91617 81.9113 3.74276 81.3079C3.49834 80.487 3.20284 79.7125 2.85985 78.927C2.36402 77.7589 2.05539 76.5945 1.78669 75.3568C1.73859 75.1412 1.69048 74.9255 1.64091 74.7033C1.33728 73.3224 1.05141 71.9381 0.790082 70.5486C0.761091 70.3973 0.7321 70.246 0.702231 70.0901C0.141308 66.964 0.00260887 63.8453 0.00899444 60.6747C0.00960029 60.0489 0.00507837 59.4233 0.000223445 58.7975C-0.00826218 55.9872 0.225263 53.2659 0.645994 50.4884C0.665653 50.3539 0.685312 50.2195 0.705567 50.081C1.29033 46.0952 2.38852 42.3187 3.91199 38.5937C4.04041 38.2719 4.16849 37.9499 4.29623 37.6277C4.42431 37.3062 4.55238 36.9847 4.68046 36.6632C4.74386 36.5034 4.80726 36.3435 4.87258 36.1788C5.29603 35.1175 5.74492 34.0705 6.2174 33.0301C6.3442 33.0301 6.471 33.0301 6.60164 33.0301C6.6321 32.9255 6.66256 32.8209 6.69394 32.7131C7.25169 30.913 8.22538 29.4185 9.23125 27.8382C9.32498 27.6894 9.41872 27.5407 9.5153 27.3874C9.60457 27.2491 9.69385 27.1107 9.78584 26.9681C9.86625 26.8425 9.94666 26.7168 10.0295 26.5874C10.1029 26.4976 10.1763 26.4079 10.2519 26.3154C10.3787 26.3154 10.5055 26.3154 10.6361 26.3154C10.6829 26.1487 10.7297 25.982 10.7779 25.8103C11.0409 25.1096 11.3684 24.6287 11.8248 24.0372C11.9021 23.9368 11.9794 23.8364 12.059 23.733C12.7054 22.9007 13.3867 22.1077 14.0942 21.3273C14.2441 21.1557 14.3939 20.984 14.5483 20.8072C14.7035 20.6306 14.8588 20.4541 15.0188 20.2721C15.1627 20.1079 15.3066 19.9437 15.4548 19.7745C15.8233 19.4088 15.8233 19.4088 16.2075 19.4088C16.2246 19.2982 16.2418 19.1875 16.2594 19.0735C16.4368 18.5269 16.6989 18.2711 17.1058 17.8665C17.2491 17.7236 17.3923 17.5806 17.54 17.4334C17.6907 17.286 17.8413 17.1386 17.9966 16.9867C18.1451 16.8378 18.2935 16.689 18.4465 16.5356C19.0868 15.9022 19.6197 15.3875 20.4341 14.9963C20.8788 14.5738 21.3008 14.1378 21.7189 13.6893C21.971 13.4615 21.971 13.4615 22.3553 13.4615C22.3553 13.3349 22.3553 13.2083 22.3553 13.0778C22.7357 12.9512 23.1161 12.8246 23.508 12.6941C23.508 12.5675 23.508 12.4409 23.508 12.3104C23.6348 12.3104 23.7616 12.3104 23.8922 12.3104C23.8922 12.1838 23.8922 12.0572 23.8922 11.9267C24.019 11.9267 24.1458 11.9267 24.2765 11.9267C24.2765 11.8001 24.2765 11.6735 24.2765 11.543C24.427 11.4757 24.5776 11.4085 24.7327 11.3392C25.5264 10.9486 26.221 10.4184 26.9331 9.89804C27.3503 9.62451 27.3503 9.62451 27.7346 9.62451C27.7346 9.49789 27.7346 9.37127 27.7346 9.24081C27.851 9.18492 27.9674 9.12903 28.0873 9.07144C29.2907 8.48352 30.4363 7.83111 31.5769 7.13047C33.4561 5.97938 33.4561 5.97938 34.4587 5.97938C34.4587 5.85276 34.4587 5.72613 34.4587 5.59568C35.1672 5.32188 35.8763 5.04956 36.5858 4.77835C36.9389 4.64306 37.2917 4.50675 37.6444 4.37039C38.437 4.06786 39.2325 3.77461 40.0301 3.48534C40.1942 3.42515 40.3584 3.36496 40.5275 3.30295C43.6982 2.15202 46.8875 1.36613 50.2123 0.799449C50.4117 0.765042 50.611 0.730636 50.8164 0.695187C56.8817 -0.293661 63.561 -0.199613 69.6162 0.799449Z" fill="#FED489"/>
<path d="M47.4146 14.8883C47.5645 14.8888 47.7145 14.8893 47.869 14.8898C53.6214 15.0674 58.6231 20.2969 62.3157 24.205C62.9252 24.8861 63.4896 25.5898 64.0448 26.3154C64.2392 26.5618 64.4338 26.8081 64.6286 27.0543C67.8452 31.149 70.5453 35.6538 72.7932 40.346C72.8729 40.5109 72.9525 40.6758 73.0345 40.8457C73.1029 40.9902 73.1713 41.1347 73.2418 41.2836C73.5615 41.8437 73.8157 42.1694 74.4419 42.3679C74.5983 42.3953 74.7547 42.4227 74.9159 42.4509C75.0927 42.4844 75.2695 42.5179 75.4517 42.5523C75.6419 42.5874 75.8321 42.6224 76.0281 42.6585C79.4173 43.3408 82.5305 44.6251 85.5619 46.2677C85.7667 46.378 85.9715 46.4883 86.1826 46.6019C88.3609 47.8232 90.2871 49.3479 92.0939 51.0639C92.1923 51.1569 92.2907 51.2499 92.392 51.3458C93.8667 52.7488 95.1543 54.19 96.3205 55.8601C96.3998 55.7461 96.479 55.6321 96.5607 55.5147C96.7962 55.1771 97.0327 54.8401 97.2698 54.5037C97.5296 54.1345 97.7874 53.7638 98.0428 53.3916C98.9586 52.0841 99.9743 50.7155 101.508 50.1047C102.621 49.9395 103.693 49.9058 104.654 50.5483C106.191 51.9083 106.923 54.043 107.14 56.0377C107.17 56.6114 107.179 57.1802 107.175 57.7546C107.174 57.9566 107.173 58.1586 107.172 58.3667C107.135 59.9616 106.898 61.1639 106.118 62.5749C106.01 62.7794 105.901 62.9839 105.789 63.1946C104.858 64.8646 103.593 66.9085 101.647 67.5052C101.537 67.5243 101.428 67.5433 101.316 67.5629C101.343 67.6851 101.371 67.8073 101.4 67.9331C102.007 71.1086 101.927 74.563 101.316 77.7309C101.283 77.9622 101.25 78.1934 101.216 78.4316C100.344 84.0565 97.3293 89.0555 93.6309 93.2707C93.4579 93.4862 93.285 93.7018 93.1123 93.9175C92.9664 94.0839 92.8206 94.2503 92.6703 94.4218C92.5435 94.4218 92.4167 94.4218 92.286 94.4218C92.2353 94.5366 92.1845 94.6513 92.1322 94.7695C91.7174 95.5251 91.0235 95.9901 90.3649 96.5322C90.2705 96.6123 90.1762 96.6925 90.079 96.7751C85.5535 100.619 80.3488 103.311 74.8033 105.357C74.5339 105.46 74.2645 105.562 73.9951 105.664C69.8502 107.212 65.5129 107.935 61.1051 108.08C60.7571 108.095 60.7571 108.095 60.402 108.11C60.1964 108.116 59.9907 108.122 59.7789 108.128C59.1125 108.261 58.8767 108.463 58.4733 109.002C58.4091 109.706 58.4091 109.706 58.4733 110.345C58.1612 110.35 57.849 110.354 57.5368 110.357C57.276 110.361 57.276 110.361 57.0099 110.364C56.5522 110.345 56.5522 110.345 56.1679 110.153C56.1019 109.735 56.1019 109.735 56.0719 109.218C56.0304 108.507 56.0003 108.272 55.5916 107.659C55.0173 107.465 54.466 107.414 53.8625 107.468C53.2085 108.023 52.9983 108.544 52.9019 109.386C51.8649 109.165 50.8444 108.921 49.8281 108.619C49.8206 108.442 49.8206 108.442 49.813 108.261C49.8022 108.106 49.7913 107.951 49.78 107.791C49.7711 107.638 49.7622 107.484 49.753 107.326C49.6694 106.874 49.6694 106.874 49.326 106.578C48.7479 106.248 48.1656 106.05 47.5347 105.837C43.4093 104.356 39.6057 101.99 36.4778 98.9246C36.168 98.6234 35.8525 98.3292 35.5363 98.0347C32.0052 94.6931 29.46 90.5145 27.7036 86.0081C27.5631 85.6495 27.416 85.2935 27.2678 84.938C26.0254 81.7903 25.5343 78.3342 25.3922 74.9713C25.3484 73.9256 25.3484 73.9256 24.8895 73.0104C24.4378 72.6922 24.4378 72.6922 23.7001 72.551C23.7001 71.9179 23.7001 71.2848 23.7001 70.6325C23.914 70.5771 24.128 70.5217 24.3485 70.4646C25.0455 70.3078 25.0455 70.3078 25.4291 69.8651C25.5372 68.9255 25.5595 68.5288 25.0344 67.7293C24.8571 67.5349 24.6763 67.3437 24.4926 67.1553C24.2963 66.9392 24.101 66.7223 23.9064 66.5048C23.8072 66.3946 23.708 66.2844 23.6058 66.1709C22.7887 65.2279 22.0991 64.1782 21.3947 63.1504C21.2747 62.976 21.2747 62.976 21.1523 62.7981C16.4617 55.954 12.1636 48.1154 12.125 39.6249C12.121 39.4115 12.1171 39.198 12.113 38.9782C12.1008 36.359 12.6889 33.8863 14.4904 31.915C16.0561 30.467 17.7053 30.0218 19.7901 30.0653C26.6534 30.3857 32.7692 35.232 37.7246 39.553C37.9524 39.7481 37.9524 39.7481 38.1847 39.9471C38.9893 40.6507 39.7455 41.3781 40.4863 42.1482C40.6382 42.3046 40.7901 42.461 40.9466 42.6221C41.2516 42.9375 41.5541 43.2554 41.8538 43.5758C42.7105 44.5011 42.7105 44.5011 43.8529 44.9412C44.4381 44.956 44.4381 44.956 44.917 44.7569C45.4005 44.1003 45.3083 43.3992 45.2172 42.6225C45.001 41.8265 44.7106 41.0651 44.4127 40.2964C44.2527 39.8668 44.0929 39.4371 43.9332 39.0074C43.7849 38.6137 43.6365 38.22 43.4882 37.8263C42.6629 35.6134 42.1346 33.3775 41.6731 31.0644C41.5789 30.5955 41.4793 30.1282 41.3786 29.6607C40.5626 25.6502 40.4225 20.9816 42.5854 17.3637C43.8091 15.6809 45.3549 14.8816 47.4146 14.8883Z" fill="#FEFEFD"/>
<path d="M57.5561 15.7862C58.484 16.4831 59.3732 17.2235 60.2465 17.9872C60.5805 18.2774 60.9205 18.5609 61.2686 18.834C63.2024 20.4078 64.8035 22.4552 66.35 24.3969C66.4954 24.5769 66.6407 24.757 66.7905 24.9425C69.7679 28.7063 72.1937 32.8384 74.4767 37.0462C74.5669 37.2104 74.6571 37.3747 74.75 37.5439C74.9953 38.0182 74.9953 38.0182 75.1768 38.4707C75.4799 39.2392 75.4799 39.2392 76.1099 39.7313C76.5388 39.8506 76.9559 39.9232 77.3967 39.9846C77.7118 40.042 78.0268 40.1002 78.3416 40.1592C78.494 40.1862 78.6464 40.2132 78.8034 40.241C84.4657 41.3146 89.8719 44.9151 94.0149 48.7617C94.3602 49.0598 94.708 49.3543 95.058 49.6468C95.4311 49.9758 95.779 50.3262 96.1282 50.6802C96.2307 50.5573 96.3333 50.4344 96.4389 50.3078C97.9383 48.5696 99.6109 47.0264 101.989 46.7968C103.767 46.748 105.062 47.1548 106.503 48.1862C106.615 48.2601 106.728 48.3341 106.844 48.4103C108.608 49.7087 109.666 52.2062 110.066 54.3006C110.221 55.4606 110.204 56.6345 110.213 57.8026C110.218 58.041 110.224 58.2794 110.23 58.5251C110.257 62.5962 108.3 65.8653 105.542 68.714C105.339 68.8231 105.339 68.8231 105.131 68.9345C104.657 69.4049 104.681 69.794 104.672 70.4412C104.673 70.5958 104.675 70.7505 104.677 70.9098C104.675 71.0716 104.673 71.2334 104.671 71.4001C104.666 71.9197 104.665 72.4391 104.665 72.9587C104.654 81.4432 101.496 89.0583 95.7717 95.3106C95.4086 95.7108 95.0594 96.119 94.7113 96.5322C89.5159 102.458 81.4173 106.48 74.0347 108.811C73.6944 108.918 73.6944 108.918 73.3473 109.029C69.37 110.219 65.4423 110.928 61.2949 111.005C61.0849 111.011 60.875 111.018 60.6586 111.025C59.1823 111.033 59.1823 111.033 58.5249 110.479C58.1905 109.769 58.252 109.364 58.4732 108.619C59.0777 108.018 59.5672 107.965 60.4018 107.937C60.6337 107.926 60.8656 107.916 61.1046 107.905C61.4781 107.89 61.4781 107.89 61.8592 107.875C66.9906 107.613 72.2322 106.559 76.9165 104.398C77.2059 104.272 77.4956 104.147 77.7855 104.023C82.9482 101.782 88.0138 98.8521 91.9331 94.7546C92.2859 94.4218 92.2859 94.4218 92.6701 94.4218C92.7384 94.2608 92.7384 94.2608 92.8082 94.0966C93.1108 93.5529 93.4873 93.1679 93.9189 92.7192C96.8847 89.538 98.7376 85.834 100.163 81.7598C100.242 81.5366 100.242 81.5366 100.323 81.3089C100.645 80.381 100.875 79.4767 101.051 78.5103C101.097 78.2633 101.143 78.0162 101.191 77.7617C101.475 76.0362 101.539 74.3339 101.532 72.587C101.531 72.3678 101.531 72.1486 101.53 71.9227C101.523 70.4614 101.48 69.0161 101.315 67.5629C101.415 67.5026 101.515 67.4423 101.618 67.3801C101.819 67.2569 101.819 67.2569 102.024 67.1313C102.155 67.0512 102.287 66.971 102.422 66.8885C104.589 65.4533 106.355 62.6388 106.887 60.0808C107.061 57.6727 107.135 55.2144 106.118 52.9824C106.011 52.7357 106.011 52.7357 105.901 52.4841C105.419 51.5043 104.861 50.6968 103.813 50.2965C102.627 50.0818 101.619 50.1307 100.583 50.7761C98.7648 52.1883 97.6845 54.1115 96.5124 56.052C95.8967 55.4541 95.3443 54.8474 94.8194 54.1695C92.8111 51.705 90.5348 49.5384 87.8671 47.8025C87.7422 47.721 87.6173 47.6395 87.4886 47.5555C84.2791 45.4972 80.4947 43.7188 76.7303 43.0107C76.566 42.9795 76.4018 42.9483 76.2325 42.9162C75.9126 42.8579 75.5918 42.8041 75.2702 42.7557C74.387 42.5998 73.8379 42.4176 73.2916 41.6499C72.8265 40.8582 72.4347 40.0342 72.0415 39.2052C69.7611 34.5322 66.959 30.1435 63.6603 26.1235C63.572 26.0153 63.4838 25.9071 63.3928 25.7957C59.8082 21.4295 55.7497 17.6234 50.4042 15.5718C50.2227 15.4999 50.0412 15.4279 49.8541 15.3537C48.2673 14.9176 46.1945 14.887 44.6887 15.5838C43.8625 16.0885 43.2554 16.6877 42.7195 17.4903C42.614 17.6483 42.614 17.6483 42.5064 17.8096C40.2838 21.6851 40.9512 26.816 41.8403 30.9714C41.9463 31.4729 42.0416 31.9753 42.1349 32.4793C42.7936 35.8428 43.8674 39.5434 45.4092 42.6226C45.4886 43.2094 45.4997 43.7633 45.4092 44.3492C45.0129 44.8528 45.0129 44.8528 44.4486 45.1166C43.4837 45.0917 42.9553 44.9072 42.2733 44.216C42.1818 44.1175 42.0903 44.019 41.9961 43.9175C41.8465 43.7644 41.8465 43.7644 41.694 43.6082C41.3766 43.2823 41.0633 42.9527 40.7503 42.6226C40.3386 42.1934 39.9252 41.7659 39.5106 41.3396C39.4095 41.2354 39.3085 41.1313 39.2043 41.024C38.2621 40.0652 37.2477 39.2291 36.1875 38.4019C35.895 38.1625 35.6027 37.9228 35.311 37.6824C32.0016 35.0616 28.5991 32.8591 24.6605 31.3035C24.5176 31.2429 24.3747 31.1823 24.2275 31.1198C21.9147 30.1727 18.8567 29.8369 16.4835 30.7279C14.6912 31.6032 13.6629 32.9292 12.9413 34.7567C12.4429 36.3282 12.2654 37.8136 12.2809 39.457C12.2821 39.673 12.2832 39.889 12.2845 40.1115C12.3212 42.1037 12.639 43.9596 13.1334 45.884C13.1844 46.1033 13.2354 46.3227 13.288 46.5487C15.0443 53.4389 18.9452 59.912 23.3156 65.4526C23.5422 65.7401 23.5422 65.7401 23.7734 66.0334C24.2638 66.6486 24.7559 67.2599 25.2721 67.8537C25.8138 68.5935 25.7497 68.966 25.6211 69.8651C25.1334 70.438 24.8465 70.6107 24.0991 70.6985C23.3529 70.6153 23.1923 70.4331 22.7153 69.8651C22.4939 69.6018 22.4939 69.6018 22.268 69.3331C22.104 69.1274 21.941 68.921 21.7787 68.714C21.6455 68.5444 21.6455 68.5444 21.5097 68.3714C17.3837 63.068 13.7008 57.2575 11.3763 50.9321C11.2217 50.5139 11.0595 50.0992 10.8963 49.6842C8.93482 44.5005 7.97813 37.9112 10.3242 32.7041C11.5465 30.1841 13.3694 28.5695 15.9912 27.5864C19.9704 26.2223 24.3219 27.4738 27.9884 29.2129C32.5524 31.4613 36.4228 34.4754 40.222 37.8263C40.1679 37.6555 40.1679 37.6555 40.1128 37.4813C39.735 36.26 39.4323 35.0352 39.1653 33.7855C39.127 33.611 39.0886 33.4366 39.049 33.2568C38.9223 32.6706 38.8029 32.0833 38.6851 31.4953C38.6338 31.2483 38.5825 31.0012 38.5297 30.7467C38.1613 28.8954 38.0122 27.1028 38.023 25.2162C38.0246 24.7805 38.0191 24.3454 38.013 23.9098C37.9951 20.2048 38.8564 16.8085 41.4948 14.067C46.2059 9.79582 53.0975 12.5431 57.5561 15.7862Z" fill="#060504"/>
<path d="M67.9435 67.0188C68.7097 67.5378 69.1777 68.0976 69.6163 68.9059C69.6809 69.0241 69.7455 69.1423 69.8121 69.2641C70.4068 70.571 70.4204 72.182 70.0005 73.5462C69.4751 74.7348 68.5361 75.7203 67.4429 76.4C66.9266 76.5798 66.9266 76.5798 66.3503 76.5798C66.5405 76.8054 66.5405 76.8054 66.7345 77.0355C67.1187 77.5391 67.1187 77.5391 67.1187 77.9228C67.404 78.0177 67.404 78.0177 67.6951 78.1146C69.7359 81.0309 70.6618 84.3198 70.1086 87.8615C69.3973 90.6405 67.6213 92.5072 65.2659 93.9834C64.8133 94.2299 64.8133 94.2299 64.4291 94.2299C64.4291 94.3566 64.4291 94.4832 64.4291 94.6136C64.1204 94.7557 64.1204 94.7557 63.8055 94.9007C63.537 95.0248 63.2686 95.149 63.0002 95.2731C62.8644 95.3356 62.7285 95.398 62.5886 95.4624C61.9263 95.7351 61.9263 95.7351 61.3552 96.1484C60.5382 96.1954 59.72 96.1923 58.9017 96.1945C58.4931 96.1964 58.0847 96.2023 57.6761 96.2084C56.1951 96.2199 54.8707 96.1271 53.4784 95.5729C53.3257 95.5133 53.1729 95.4538 53.0155 95.3924C50.4798 94.3675 47.8804 92.425 46.5622 90.0093C46.4433 89.7916 46.3244 89.574 46.2019 89.3498C45.9858 88.8582 45.9858 88.8582 45.9858 88.4745C45.859 88.4745 45.7322 88.4745 45.6016 88.4745C44.1707 84.5642 44.7402 80.6844 46.375 76.8898C47.4199 74.7362 49.1312 73.5065 51.173 72.3591C51.2914 72.2887 51.4097 72.2182 51.5317 72.1456C53.5775 71.2962 56.79 71.4731 58.8217 72.2632C59.1572 72.4161 59.491 72.5731 59.8183 72.7428C59.8024 72.5015 59.7866 72.2601 59.7702 72.0114C59.7782 70.3364 60.4084 68.906 61.5601 67.7016C63.5391 65.9409 65.6119 65.7456 67.9435 67.0188Z" fill="#FBCDAF"/>
<path d="M24.4686 72.551C25.0255 72.9452 25.3734 73.2628 25.5267 73.9434C25.5774 74.4869 25.6024 75.0271 25.6213 75.5727C26.0521 82.508 28.419 88.8441 32.5375 94.4219C32.6685 94.5999 32.7995 94.778 32.9345 94.9614C37.0317 100.214 42.383 103.604 48.4837 106.09C49.0205 106.311 49.413 106.478 49.8281 106.892C49.9318 107.973 49.6986 108.759 49.2878 109.734C49.2376 109.862 49.1875 109.99 49.1358 110.122C48.8611 110.793 48.7175 111.085 48.099 111.496C47.4386 111.58 47.4386 111.58 46.7542 111.496C46.2263 111.077 46.0147 110.777 45.9332 110.103C45.9146 108.953 45.9146 108.953 46.1778 108.427C46.0755 108.396 45.9731 108.366 45.8676 108.335C44.6845 107.964 43.6102 107.47 42.5156 106.892C42.3403 106.8 42.165 106.707 41.9844 106.612C37.7192 104.321 33.7598 101.144 30.8084 97.2996C30.6596 97.1178 30.5108 96.936 30.3574 96.7488C26.7524 92.2702 24.2756 86.8125 23.1237 81.1843C23.098 81.0657 23.0723 80.9472 23.0458 80.8251C22.6584 79.0052 22.4861 77.2178 22.4633 75.3568C22.4591 75.1663 22.4548 74.9758 22.4504 74.7796C22.4545 73.4508 22.4545 73.4508 22.9016 72.8141C23.4799 72.4469 23.7955 72.4276 24.4686 72.551Z" fill="#070504"/>
<path d="M67.9433 67.0188C68.7096 67.5377 69.1776 68.0976 69.6161 68.9058C69.6807 69.024 69.7454 69.1423 69.812 69.264C70.4066 70.571 70.4203 72.182 70.0003 73.5462C69.3686 74.9417 68.3597 75.95 66.9745 76.5918C65.5515 77.1085 64.0632 77.2865 62.6398 76.6757C61.4868 75.9945 60.4993 74.8851 60.095 73.5979C59.7946 71.9278 59.7676 70.2463 60.6481 68.7559C62.5804 66.2071 65.0986 65.4653 67.9433 67.0188Z" fill="#040303"/>
<path d="M83.7444 53.2777C84.8455 53.9304 85.6612 54.836 86.3425 55.9081C86.7303 57.4571 86.7603 58.8366 86.0063 60.2727C85.1251 61.6892 84.151 62.4161 82.6803 63.1504C79.4522 63.3908 79.4522 63.3908 78.2616 62.383C77.0796 61.1594 76.512 59.8657 76.4604 58.1743C76.5125 56.522 76.9 55.3055 78.0544 54.0945C79.7763 52.6078 81.6781 52.3599 83.7444 53.2777Z" fill="#040404"/>
<path d="M24.5766 36.6512C25.3719 36.9112 25.5648 37.1251 26.0054 37.8263C26.0858 38.3357 26.1147 38.7452 26.1015 39.2532C26.0997 39.3983 26.098 39.5434 26.0962 39.693C26.0307 41.9145 25.6645 44.1223 25.3385 46.3174C25.2676 46.8183 25.2029 47.317 25.146 47.8194C25.1307 47.9486 25.1155 48.0778 25.0998 48.2109C25.0578 48.5703 25.0182 48.9299 24.9787 49.2895C24.7882 50.2319 24.501 50.7226 23.7 51.2558C23.1477 51.3517 23.1477 51.3517 22.5473 51.2558C22.0694 50.8511 21.8465 50.6472 21.5867 50.1047C21.5028 48.7444 21.7055 47.474 21.935 46.1358C22.1738 44.6991 22.3788 43.2687 22.5008 41.8177C22.5177 41.6223 22.5177 41.6223 22.535 41.423C22.5894 40.7863 22.6387 40.1501 22.6811 39.5124C22.8395 37.5843 22.8395 37.5843 23.3878 36.9922C23.8921 36.6752 23.8921 36.6752 24.5766 36.6512Z" fill="#080808"/>
<path d="M52.9019 20.7517C53.4782 21.1234 53.4782 21.1234 53.8624 21.7109C53.843 23.2951 53.2584 24.6256 52.6617 26.0755C52.4765 26.5341 52.2914 26.9928 52.1064 27.4514C51.9691 27.787 51.9691 27.787 51.8291 28.1293C51.4737 29.0176 51.1467 29.9158 50.824 30.8165C50.5965 31.3034 50.5965 31.3034 50.0201 31.6871C49.3597 31.771 49.3597 31.771 48.6753 31.6871C48.0859 31.1891 47.9276 30.8792 47.8228 30.1163C48.0049 28.5309 48.6232 27.051 49.2276 25.5839C49.3641 25.2495 49.5005 24.915 49.6366 24.5804C49.7023 24.4191 49.7679 24.2578 49.8356 24.0915C50.0013 23.6765 50.1598 23.2599 50.3135 22.8403C50.4357 22.5068 50.4357 22.5068 50.5604 22.1666C50.629 21.9742 50.6976 21.7818 50.7683 21.5835C51.2226 20.6249 51.9446 20.6363 52.9019 20.7517Z" fill="#060606"/>
<path d="M31.9612 45.1166C32.5255 45.4884 32.5255 45.4884 32.9217 46.0759C33.1037 47.3483 32.8008 48.6342 32.5495 49.8769C32.3199 51.0487 32.1169 52.182 32.0692 53.3782C32.0217 54.1097 31.9726 54.308 31.5529 54.9489C30.8581 55.3712 30.4559 55.403 29.6557 55.2847C29.1532 54.9333 29.0852 54.7264 28.8873 54.1336C28.7344 52.1142 29.0344 50.1845 29.3922 48.2045C29.4533 47.8608 29.5076 47.5159 29.5604 47.1708C29.6759 46.4676 29.7836 45.9839 30.1721 45.3804C30.8183 44.9967 31.2227 45.0002 31.9612 45.1166Z" fill="#070707"/>
<path d="M56.1867 30.2048C56.811 30.2371 57.2627 30.3095 57.8009 30.632C58.2026 31.3006 58.203 31.8943 58.0891 32.6464C57.8474 33.2726 57.5241 33.8407 57.1885 34.421C57.0106 34.7413 56.8335 35.0621 56.6572 35.3833C56.5721 35.538 56.4871 35.6926 56.3994 35.852C56.0059 36.599 55.7019 37.3716 55.4062 38.1621C55.1958 38.6187 55.0361 38.8718 54.631 39.1693C54.0448 39.287 53.4909 39.2657 52.9019 39.1693C52.3709 38.7676 52.3401 38.4874 52.2295 37.8383C52.3158 36.1427 53.3185 34.4496 54.0546 32.9462C54.116 32.8192 54.1774 32.6922 54.2407 32.5614C55.2663 30.5232 55.2663 30.5232 56.1867 30.2048Z" fill="#060606"/>
<path d="M82.2959 20.5599C82.9203 20.8836 82.9203 20.8836 83.4486 21.3273C83.6309 21.4578 83.8132 21.5884 84.001 21.723C84.5387 22.4652 84.544 22.9994 84.5053 23.8992C84.3665 24.6182 84.0204 24.9211 83.4486 25.3561C83.3218 25.546 83.195 25.736 83.0644 25.9316C82.1751 26.2276 81.3024 26.2456 80.3747 26.1235C79.7164 25.6405 79.3374 25.1506 79.0299 24.3969C78.9031 24.3969 78.7763 24.3969 78.6457 24.3969C78.4413 22.6344 78.4413 22.6344 78.9249 21.8114C79.9199 20.6633 80.7893 20.3741 82.2959 20.5599Z" fill="#FEFEFC"/>
<path d="M12.365 76.0043C13.1383 76.5298 13.7937 77.0229 14.0941 77.9228C14.2016 78.8464 14.1861 79.481 13.7339 80.3089C13.3256 80.8005 13.3256 80.8005 12.9414 81.1842C12.7512 81.1842 12.561 81.1842 12.365 81.1842C12.365 81.3108 12.365 81.4375 12.365 81.5679C11.2117 81.6384 10.3092 81.6103 9.29115 80.9924C8.46566 79.9567 8.37733 79.0325 8.52268 77.7309C8.58608 77.6043 8.64948 77.4777 8.7148 77.3472C8.84159 77.3472 8.96839 77.3472 9.09903 77.3472C9.13469 77.2008 9.17035 77.0544 9.2071 76.9036C9.52348 76.3129 9.81714 76.123 10.4461 75.8994C11.1344 75.7427 11.713 75.7576 12.365 76.0043Z" fill="#FDFDFB"/>
<path d="M95.36 28.8094C96.3133 29.2004 97.1274 29.6324 97.6654 30.5361C97.838 31.4629 97.7821 32.3688 97.3412 33.21C96.6592 34.112 96.6592 34.112 95.9364 34.373C94.914 34.4979 94.0931 34.4982 93.1507 34.0613C92.3239 33.277 92.0621 32.6067 92.022 31.4833C92.0504 30.6931 92.1313 30.1869 92.6704 29.5768C93.51 28.8553 94.2687 28.5784 95.36 28.8094Z" fill="#FDFDFB"/>
<path d="M58.8216 83.978C59.4834 83.9961 59.6292 84.0642 60.2024 84.4696C60.6693 85.1399 60.6737 85.3688 60.5866 86.1723C60.3897 86.7076 60.1334 87.2037 59.8662 87.7071C59.7993 87.8387 59.7325 87.9702 59.6636 88.1058C58.5368 90.2895 58.5368 90.2895 57.9037 90.5459C57.0867 90.5265 56.8102 90.4481 56.1559 89.9014C55.7837 89.2419 55.7837 89.2419 55.7837 88.5704C55.9749 87.9022 56.2348 87.3649 56.5522 86.7478C56.6495 86.549 56.7468 86.3502 56.8471 86.1453C56.9439 85.9485 57.0408 85.7516 57.1405 85.5488C57.2865 85.2505 57.2865 85.2505 57.4355 84.9463C57.8408 84.193 57.9458 84.0784 58.8216 83.978Z" fill="#E88970"/>
<path d="M55.203 107.342C55.5917 107.468 55.5917 107.468 55.9759 108.043C56.0984 109.458 56.1112 110.93 55.5917 112.264C55.1714 112.755 55.1714 112.755 54.6311 113.031C53.9347 113.043 53.9347 113.043 53.2863 112.839C52.684 112.257 52.6701 111.673 52.6499 110.873C52.6868 109.685 52.7771 108.575 53.3944 107.54C54.0319 107.18 54.491 107.256 55.203 107.342Z" fill="#090707"/>
<path d="M53.9052 80.1418C54.5255 80.2386 54.8973 80.4281 55.3994 80.8006C55.6728 81.3468 55.6478 81.7291 55.5915 82.3354C55.2823 82.8472 55.2823 82.8472 54.871 83.3306C54.7373 83.4916 54.6036 83.6526 54.4658 83.8185C53.5658 84.7713 53.5658 84.7713 52.853 84.9193C52.4039 84.9254 51.998 84.917 51.557 84.8294C51.0407 84.3138 50.9917 83.9581 50.9019 83.2407C51.0073 82.2857 51.3817 81.9316 52.0613 81.2922C52.1616 81.1884 52.2619 81.0847 52.3653 80.9778C52.8722 80.4835 53.1959 80.2371 53.9052 80.1418Z" fill="#E9876F"/>
<path d="M34.6509 114.374C35.5581 114.669 36.4488 114.996 37.3405 115.333C37.3405 115.46 37.3405 115.587 37.3405 115.717C37.5743 115.761 37.8081 115.804 38.049 115.849C38.7894 116.012 39.461 116.246 40.1623 116.532C43.0766 117.685 46.1911 118.337 49.2518 118.979C49.2518 119.042 49.2518 119.105 49.2518 119.17C48.9917 119.181 48.7315 119.188 48.4713 119.194C48.254 119.201 48.254 119.201 48.0323 119.208C47.3782 119.16 46.8054 118.976 46.1779 118.787C45.674 118.661 45.1698 118.537 44.665 118.415C43.6891 118.175 42.7341 117.916 41.7862 117.58C41.2982 117.418 40.8048 117.294 40.3063 117.168C39.5043 116.956 38.8324 116.67 38.1067 116.275C37.5376 116.015 36.9533 115.915 36.3387 115.812C36.2255 115.78 36.1123 115.749 35.9957 115.717C35.9323 115.59 35.8689 115.464 35.8036 115.333C35.6451 115.274 35.4866 115.215 35.3233 115.154C35.1648 115.086 35.0063 115.019 34.843 114.95C34.7796 114.76 34.7162 114.57 34.6509 114.374Z" fill="#FEF7DD"/>
<path d="M82.2958 20.56C82.9202 20.8837 82.9202 20.8837 83.4486 21.3274C83.6308 21.4579 83.8131 21.5885 84.0009 21.723C84.5386 22.4653 84.544 22.9995 84.5052 23.8993C84.3664 24.6183 84.0203 24.9211 83.4486 25.3562C83.3218 25.5461 83.195 25.736 83.0643 25.9317C82.472 26.1289 82.0401 26.1554 81.4193 26.1596C81.1396 26.1636 81.1396 26.1636 80.8542 26.1678C80.3747 26.1236 80.3747 26.1236 79.9904 25.7399C80.9414 25.7399 81.8924 25.7399 82.8722 25.7399C82.9356 25.4233 82.999 25.1068 83.0643 24.7806C83.3179 24.7806 83.5715 24.7806 83.8328 24.7806C84.0045 23.1808 84.0045 23.1808 83.3885 21.771C82.662 21.1468 82.1655 21.1123 81.2392 21.1235C80.9628 21.1261 80.9628 21.1261 80.6809 21.1288C80.4342 21.1321 80.4342 21.1321 80.1826 21.1355C79.9924 21.1355 79.8022 21.1355 79.6062 21.1355C80.461 20.4746 81.254 20.3942 82.2958 20.56Z" fill="#FEF6DD"/>
<path d="M115.724 81.1842C115.851 81.1842 115.978 81.1842 116.109 81.1842C115.979 81.9576 115.744 82.6482 115.46 83.3785C115.38 83.5879 115.299 83.7974 115.216 84.0132C114.963 84.6209 114.682 85.204 114.38 85.7886C114.316 85.7886 114.253 85.7886 114.187 85.7886C114.182 85.4089 114.179 85.0292 114.175 84.6495C114.173 84.438 114.171 84.2266 114.169 84.0087C114.187 83.4864 114.187 83.4864 114.38 83.2945C114.403 83.0769 114.427 82.8593 114.452 82.6351C114.491 82.4095 114.531 82.184 114.572 81.9516C114.762 81.825 114.952 81.6984 115.148 81.5679C115.338 81.6312 115.528 81.6945 115.724 81.7598C115.724 81.5698 115.724 81.3799 115.724 81.1842Z" fill="#F9D897"/>
<path d="M119.183 68.1385C119.246 68.1385 119.309 68.1385 119.375 68.1385C119.484 70.4933 118.813 72.7883 118.222 75.0451C118.093 75.5564 117.965 76.0681 117.838 76.5799C117.71 77.0915 117.582 77.6031 117.454 78.1147C117.39 78.1147 117.327 78.1147 117.261 78.1147C117.251 77.7391 117.244 77.3633 117.237 76.9876C117.233 76.7784 117.228 76.5692 117.224 76.3536C117.261 75.8125 117.261 75.8125 117.646 75.4288C117.763 75.0085 117.763 75.0085 117.838 74.5295C117.937 73.9628 118.054 73.4259 118.215 72.8726C118.427 72.1217 118.577 71.3756 118.714 70.6086C119.02 68.9318 119.02 68.9318 119.183 68.1385Z" fill="#F5D8A1"/>
<path d="M12.3651 76.0044C12.7494 76.3041 12.7494 76.3041 12.9415 76.5799C12.6879 76.5799 12.4343 76.5799 12.173 76.5799C12.173 76.4533 12.173 76.3267 12.173 76.1962C11.3678 76.167 10.7051 76.2071 10.0297 76.6751C9.31177 77.4052 9.01803 77.9445 9.01508 78.978C9.03639 79.2664 9.06207 79.5546 9.09914 79.8413C9.22593 79.9046 9.35273 79.968 9.48337 80.0332C9.48337 80.2864 9.48337 80.5397 9.48337 80.8006C9.67357 80.8639 9.86376 80.9272 10.0597 80.9924C9.86953 81.0557 9.67933 81.119 9.48337 81.1843C8.69043 80.1719 8.41834 79.4222 8.47025 78.1342C8.52278 77.731 8.52278 77.731 8.7149 77.3473C8.8417 77.3473 8.9685 77.3473 9.09914 77.3473C9.1348 77.2009 9.17046 77.0545 9.2072 76.9036C9.52314 76.3138 9.81741 76.1263 10.4425 75.8964C11.1414 75.7444 11.6677 75.8419 12.3651 76.0044Z" fill="#FEF5DA"/>
<path d="M83.4486 20.5599C83.7968 21.1234 83.7968 21.1234 84.025 21.711C83.9616 21.8376 83.8982 21.9642 83.8328 22.0947C83.7219 21.9443 83.6109 21.7939 83.4966 21.639C82.9979 21.0579 82.6385 20.7988 81.8764 20.694C80.6745 20.6878 80.0825 20.9045 79.174 21.711C78.6754 22.5646 78.6798 23.4236 78.6457 24.3968C78.7725 24.3968 78.8993 24.3968 79.0299 24.3968C79.2776 24.6906 79.2776 24.6906 79.5342 25.0683C79.6199 25.193 79.7056 25.3176 79.7939 25.446C79.8588 25.543 79.9236 25.6399 79.9905 25.7398C79.4782 25.484 78.9659 25.2282 78.4536 24.9724C78.4379 24.5166 78.4265 24.0614 78.4175 23.6055C78.4127 23.4779 78.4079 23.3502 78.4029 23.2188C78.3895 22.3117 78.5422 21.7082 79.0299 20.9436C80.2463 20.1682 82.0894 20.0418 83.4486 20.5599Z" fill="#F7DCA1"/>
<path d="M39.0694 34.1812C39.4536 34.373 39.4536 34.373 39.708 35.043C39.7969 35.3228 39.8841 35.6031 39.9699 35.8838C40.0156 36.0245 40.0613 36.1652 40.1084 36.3102C40.4382 37.3707 40.4382 37.3707 40.2221 38.0181C39.8497 37.6786 39.4775 37.3388 39.1054 36.9989C39.0003 36.9031 38.8952 36.8073 38.7868 36.7085C38.2949 36.259 37.8054 35.8097 37.3403 35.3322C37.7207 35.2689 38.1011 35.2056 38.493 35.1404C38.493 35.3303 38.493 35.5203 38.493 35.7159C38.6832 35.7793 38.8734 35.8426 39.0694 35.9078C39.0694 35.338 39.0694 34.7682 39.0694 34.1812Z" fill="#F3D591"/>
<path d="M95.3599 28.8095C95.5501 28.9361 95.7403 29.0627 95.9362 29.1932C95.8109 29.1959 95.6856 29.1986 95.5565 29.2014C94.309 29.2694 93.7532 29.4769 92.8623 30.3443C92.7355 30.3443 92.6088 30.3443 92.4781 30.3443C92.5001 30.7121 92.5246 31.0798 92.5502 31.4474C92.5635 31.6522 92.5769 31.8569 92.5907 32.0679C92.665 32.6085 92.7772 32.9502 93.0545 33.4139C93.1813 33.4139 93.3081 33.4139 93.4387 33.4139C93.4387 33.6038 93.4387 33.7937 93.4387 33.9894C92.8824 33.7978 92.6755 33.6132 92.334 33.1261C91.956 32.0691 91.8966 31.0395 92.31 29.9846C93.2474 28.9237 93.9949 28.6754 95.3599 28.8095Z" fill="#FEF6DC"/>
<path d="M73.4585 35.1405C73.5853 35.1405 73.7121 35.1405 73.8427 35.1405C73.8427 35.2671 73.8427 35.3937 73.8427 35.5242C73.9616 35.4569 74.0805 35.3897 74.203 35.3204C74.405 35.2313 74.405 35.2313 74.6112 35.1405C74.738 35.2038 74.8648 35.2671 74.9954 35.3324C74.8674 35.7161 74.7393 36.0997 74.6112 36.4834C74.686 36.8945 74.686 36.8945 74.8033 37.2508C74.9301 37.2508 75.0569 37.2508 75.1876 37.2508C75.1876 37.5674 75.1876 37.8839 75.1876 38.2101C75.3144 38.2101 75.4411 38.2101 75.5718 38.2101C75.6352 38.4 75.6986 38.59 75.7639 38.7856C75.9541 38.7856 76.1443 38.7856 76.3403 38.7856C76.3403 38.9756 76.3403 39.1655 76.3403 39.3612C76.7207 39.4245 77.101 39.4878 77.493 39.553C77.4296 39.6797 77.3662 39.8063 77.3008 39.9367C76.6696 39.9689 76.3357 39.9809 75.7639 39.7449C75.2258 39.1089 74.8804 38.3914 74.5151 37.6465C74.4121 37.4493 74.3091 37.2521 74.203 37.0489C73.4585 35.6047 73.4585 35.6047 73.4585 35.1405Z" fill="#EBCE92"/>
<path d="M49.6358 108.235C49.7626 108.362 49.8894 108.488 50.0201 108.619C50.3966 108.732 50.7777 108.83 51.1608 108.918C51.7524 109.057 52.3251 109.194 52.9018 109.386C52.9018 109.513 52.9018 109.639 52.9018 109.77C52.0776 109.643 51.2534 109.517 50.4043 109.386C50.4043 109.576 50.4043 109.766 50.4043 109.962C50.2973 110.001 50.1903 110.041 50.0801 110.082C49.4581 110.451 49.1205 110.928 48.6752 111.496C48.485 111.433 48.2948 111.37 48.0989 111.305C48.1833 111.236 48.2678 111.168 48.3548 111.097C48.7926 110.594 48.9627 110.07 49.1915 109.446C49.2755 109.22 49.3595 108.993 49.446 108.76C49.5086 108.587 49.5713 108.414 49.6358 108.235Z" fill="#EFD197"/>
<path d="M19.6655 15.38C19.7923 15.4433 19.9191 15.5066 20.0498 15.5719C19.9249 15.6846 19.9249 15.6846 19.7976 15.7997C19.4575 16.1355 19.4575 16.1355 19.2475 16.5626C18.7754 17.2956 18.1931 17.8728 17.5763 18.4856C17.4586 18.6061 17.341 18.7267 17.2198 18.8509C16.6042 19.4663 16.1085 19.9358 15.2468 20.1762C15.511 19.7925 15.511 19.7925 15.8232 19.4088C15.95 19.4088 16.0768 19.4088 16.2074 19.4088C16.224 19.2985 16.2406 19.1881 16.2576 19.0744C16.4398 18.5186 16.715 18.2609 17.1327 17.8531C17.2795 17.7084 17.4262 17.5637 17.5774 17.4147C17.7315 17.2655 17.8857 17.1164 18.0445 16.9628C18.1994 16.8107 18.3544 16.6586 18.514 16.5019C18.8965 16.1266 19.2804 15.7527 19.6655 15.38Z" fill="#FADBA1"/>
<path d="M45.9856 78.1146C46.049 78.1146 46.1124 78.1146 46.1777 78.1146C46.2521 78.9683 46.1883 79.4815 45.8055 80.2489C45.3567 81.282 45.3029 82.2799 45.2532 83.3905C45.2454 83.5589 45.2376 83.7274 45.2296 83.9009C45.1924 85.0561 45.267 86.1769 45.4093 87.3234C44.2105 85.0889 44.7159 82.2171 45.4093 79.9012C45.5939 79.303 45.7845 78.7075 45.9856 78.1146Z" fill="#F4D5C2"/>
<path d="M97.281 30.1523C97.4712 30.2157 97.6614 30.279 97.8574 30.3442C98.0613 32.6458 98.0613 32.6458 97.5849 33.5434C97.0283 34.1918 96.6072 34.6206 95.7441 34.7567C94.589 34.8324 93.8956 34.6971 92.8623 34.1812C92.8623 33.9912 92.8623 33.8013 92.8623 33.6056C92.9772 33.7006 93.0921 33.7956 93.2105 33.8934C94.114 34.318 94.9537 34.2876 95.9362 34.1812C96.619 33.9255 96.8266 33.7047 97.245 33.114C97.5452 32.2461 97.5584 31.4467 97.4731 30.536C97.4097 30.4094 97.3463 30.2828 97.281 30.1523Z" fill="#F7D9A3"/>
<path d="M22.3553 73.5103C22.4187 73.5103 22.4821 73.5103 22.5474 73.5103C22.5854 74.3175 22.6207 75.1249 22.6555 75.9323C22.6662 76.1606 22.677 76.3889 22.6881 76.6241C22.702 76.9561 22.702 76.9561 22.7163 77.2948C22.7253 77.4977 22.7344 77.7007 22.7437 77.9098C22.7394 78.51 22.6621 79.061 22.5474 79.6494C22.3572 79.5861 22.167 79.5228 21.971 79.4576C21.8989 77.4533 22.1222 75.4968 22.3553 73.5103Z" fill="#E3C580"/>
<path d="M15.0548 20.1763C15.1182 20.3029 15.1816 20.4295 15.2469 20.56C14.6632 21.4693 14.108 22.3018 13.3257 23.054C13.2623 23.2439 13.1989 23.4339 13.1336 23.6296C12.7614 24.0492 12.7614 24.0492 12.3651 24.397C12.2383 24.397 12.1115 24.397 11.9809 24.397C11.9809 24.5236 11.9809 24.6502 11.9809 24.7806C11.7907 24.844 11.6005 24.9073 11.4045 24.9725C12.0962 23.4753 13.1901 22.1449 14.3929 21.0276C14.7162 20.7248 14.7162 20.7248 15.0548 20.1763Z" fill="#F8DDAC"/>
<path d="M67.887 110.537C67.7602 110.854 67.6334 111.17 67.5028 111.496C66.4567 111.591 66.4567 111.591 65.3895 111.688C65.3895 111.498 65.3895 111.308 65.3895 111.113C64.8823 111.049 64.3751 110.986 63.8525 110.921C63.8525 110.858 63.8525 110.794 63.8525 110.729C64.3807 110.659 64.909 110.592 65.4375 110.525C65.5868 110.505 65.7362 110.485 65.89 110.465C66.0349 110.447 66.1798 110.429 66.3291 110.411C66.4619 110.393 66.5947 110.376 66.7315 110.359C67.152 110.344 67.4855 110.417 67.887 110.537Z" fill="#F6D282"/>
<path d="M32.9218 6.55493C32.9218 6.68155 32.9218 6.80817 32.9218 6.93863C32.7316 6.93863 32.5414 6.93863 32.3454 6.93863C32.3019 7.05734 32.2583 7.17604 32.2134 7.29835C31.8828 7.83282 31.5829 7.87336 31.0006 8.08972C30.85 8.21239 30.6995 8.33505 30.5443 8.46143C29.7052 9.11986 28.7857 9.46549 27.7346 9.62452C27.7346 9.4979 27.7346 9.37128 27.7346 9.24082C27.851 9.18493 27.9674 9.12904 28.0873 9.07145C29.4726 8.3947 30.7852 7.62829 32.0895 6.80823C32.5376 6.55493 32.5376 6.55493 32.9218 6.55493Z" fill="#F8D9A0"/>
<path d="M89.9806 44.541C90.1708 44.6043 90.361 44.6676 90.557 44.7329C90.6891 45.1286 90.6891 45.1286 90.7491 45.5003C91.1295 45.3736 91.5099 45.247 91.9018 45.1166C92.0219 45.6561 92.0219 45.6561 92.0939 46.2677C91.9037 46.5526 91.9037 46.5526 91.7097 46.8432C91.401 46.6321 91.0929 46.4201 90.7851 46.2077C90.6135 46.0897 90.4419 45.9718 90.2651 45.8502C89.8728 45.5622 89.5417 45.28 89.2122 44.9247C89.4024 44.8614 89.5926 44.7981 89.7885 44.7329C89.8519 44.6696 89.9153 44.6062 89.9806 44.541Z" fill="#F4D18B"/>
<path d="M101.315 103.439C101.379 103.692 101.442 103.945 101.508 104.206C101.317 104.206 101.127 104.206 100.931 104.206C100.866 104.372 100.866 104.372 100.799 104.542C100.479 105.09 100.095 105.363 99.5864 105.741C99.4279 105.871 99.2694 106.002 99.1061 106.137C97.8821 107.084 97.8821 107.084 97.0889 107.084C97.5997 106.635 98.1123 106.187 98.6258 105.741C98.7397 105.641 98.8536 105.541 98.971 105.438C99.7342 104.782 99.7342 104.782 100.163 104.782C100.163 104.655 100.163 104.528 100.163 104.398C100.539 104.069 100.923 103.749 101.315 103.439Z" fill="#FDF4DA"/>
<path d="M90.7491 100.177C90.7491 100.304 90.7491 100.431 90.7491 100.561C90.6223 100.561 90.4955 100.561 90.3649 100.561C90.3213 100.672 90.2777 100.783 90.2328 100.897C89.6679 101.864 88.6289 102.34 87.6752 102.863C87.485 102.737 87.2948 102.61 87.0989 102.48C87.2542 102.378 87.4094 102.276 87.5694 102.171C87.7747 102.035 87.98 101.9 88.1915 101.76C88.3944 101.627 88.5972 101.493 88.8062 101.355C89.4051 100.956 89.4051 100.956 89.9364 100.51C90.3649 100.177 90.3649 100.177 90.7491 100.177Z" fill="#ECD093"/>
<path d="M51.5571 72.3591C51.5571 72.4858 51.5571 72.6124 51.5571 72.7428C51.1571 73.0321 51.1571 73.0321 50.6325 73.3424C50.4609 73.4457 50.2893 73.5491 50.1125 73.6556C49.6359 73.8939 49.6359 73.8939 49.0596 73.8939C49.016 73.9968 48.9724 74.0997 48.9275 74.2057C48.4517 75.0655 47.8926 75.8461 46.9463 76.1961C47.6035 74.7194 49.7894 72.3591 51.5571 72.3591Z" fill="#F3D4C0"/>
<path d="M38.1087 28.2339C38.1721 28.2339 38.2355 28.2339 38.3008 28.2339C38.4312 28.9049 38.5584 29.5765 38.6851 30.2483C38.7217 30.4367 38.7584 30.6252 38.7961 30.8194C38.9975 31.8963 39.1111 32.894 39.0693 33.9894C38.5216 33.4424 38.4968 32.819 38.3729 32.0829C38.3475 31.9368 38.3222 31.7908 38.2961 31.6404C38.1094 30.4994 38.0412 29.3901 38.1087 28.2339Z" fill="#DBC18B"/>
<path d="M111.498 29.385C112.218 30.0223 112.621 30.7158 113.059 31.5553C113.125 31.6778 113.192 31.8004 113.261 31.9266C113.685 32.7276 113.967 33.4942 114.187 34.3731C114.061 34.3731 113.934 34.3731 113.803 34.3731C113.748 34.1871 113.692 34.0011 113.635 33.8095C113.488 33.2015 113.488 33.2015 113.035 33.0301C112.896 32.7148 112.767 32.395 112.651 32.0709C112.587 32.0709 112.524 32.0709 112.458 32.0709C112.458 31.691 112.458 31.3112 112.458 30.9198C112.332 30.9198 112.205 30.9198 112.074 30.9198C111.547 30.3529 111.498 30.1956 111.498 29.385Z" fill="#F6DCA5"/>
<path d="M51.5571 81.9517C51.8165 82.7287 51.6764 83.2547 51.5571 84.062C52.1277 84.2519 52.6983 84.4419 53.2861 84.6375C53.2861 84.7009 53.2861 84.7642 53.2861 84.8294C52.7 84.8846 52.1416 84.9101 51.5571 84.8294C51.0178 84.2908 50.9868 83.9289 50.9087 83.1747C50.9807 82.5272 50.9807 82.5272 51.2689 82.1555C51.364 82.0882 51.4591 82.021 51.5571 81.9517Z" fill="#E4937A"/>
<path d="M70.0004 27.4664C70.1272 27.5297 70.254 27.5931 70.3846 27.6583C70.2578 27.9115 70.131 28.1648 70.0004 28.4257C70.1272 28.489 70.254 28.5523 70.3846 28.6175C70.5062 29.0559 70.5062 29.0559 70.6008 29.5888C70.6329 29.7651 70.6651 29.9414 70.6983 30.1231C70.7216 30.2594 70.7449 30.3956 70.7689 30.536C69.9554 29.844 69.526 28.9732 69.0398 28.042C69.4961 27.7422 69.4961 27.7422 70.0004 27.4664Z" fill="#F2D193"/>
<path d="M65.3895 93.4626C65.5163 93.526 65.6431 93.5893 65.7737 93.6545C64.8612 94.23 64.8612 94.23 64.4289 94.23C64.4289 94.3567 64.4289 94.4833 64.4289 94.6137C63.0975 95.1835 63.0975 95.1835 61.7393 95.7648C61.7393 95.5749 61.7393 95.385 61.7393 95.1893C61.9961 95.061 62.253 94.9328 62.51 94.8048C62.799 94.6602 63.0876 94.5147 63.376 94.3687C63.5452 94.2834 63.7143 94.198 63.8886 94.1101C64.0498 94.0285 64.211 93.9469 64.3771 93.8628C64.8131 93.6545 64.8131 93.6545 65.3895 93.4626Z" fill="#F3D1BC"/>
<path d="M69.0397 80.8005C69.5526 81.3127 69.6584 81.8685 69.8322 82.5512C69.8666 82.6857 69.9009 82.8202 69.9364 82.9588C70.2771 84.4157 70.2637 85.837 70.1924 87.3234C70.129 87.3234 70.0656 87.3234 70.0003 87.3234C70.0003 86.4371 70.0003 85.5507 70.0003 84.6375C69.8735 84.6375 69.7467 84.6375 69.6161 84.6375C69.6067 84.4941 69.5973 84.3506 69.5876 84.2029C69.5732 84.0139 69.5588 83.825 69.544 83.6303C69.5307 83.4433 69.5173 83.2564 69.5035 83.0638C69.4262 82.5419 69.2855 82.2189 69.0397 81.7598C69.0157 81.2322 69.0157 81.2322 69.0397 80.8005Z" fill="#F7D9C6"/>
<path d="M23.1238 27.4664C24.7158 27.3317 25.8985 27.7982 27.3504 28.4257C26.9186 28.6924 26.688 28.8256 26.1772 28.7473C26.0364 28.697 25.8955 28.6468 25.7504 28.595C25.5968 28.5419 25.4433 28.4887 25.2851 28.4339C25.0474 28.3467 25.0474 28.3467 24.8048 28.2578C24.6433 28.2012 24.4819 28.1445 24.3155 28.0862C23.9173 27.9461 23.5202 27.8034 23.1238 27.6583C23.1238 27.595 23.1238 27.5316 23.1238 27.4664Z" fill="#E1C78D"/>
<path d="M28.311 93.8463C28.8199 94.4596 29.26 95.0732 29.6558 95.7648C29.1486 95.8281 28.6414 95.8914 28.1189 95.9567C28.0555 95.5768 27.9921 95.1969 27.9268 94.8056C28.0536 94.8056 28.1804 94.8056 28.311 94.8056C28.3744 94.6789 28.4378 94.5523 28.5031 94.4219C28.3763 94.4219 28.2495 94.4219 28.1189 94.4219C28.1823 94.2319 28.2457 94.042 28.311 93.8463Z" fill="#F1CD8D"/>
<path d="M50.7886 94.0381C51.437 94.0021 51.437 94.0021 52.1334 94.0381C52.2602 94.228 52.387 94.4179 52.5176 94.6136C52.7435 94.6769 52.9693 94.7403 53.2021 94.8055C53.42 94.8688 53.6379 94.9321 53.8625 94.9973C53.9259 95.1873 53.9893 95.3772 54.0546 95.5729C54.2448 95.6362 54.435 95.6995 54.6309 95.7647C53.1687 95.615 51.8772 95.02 50.7886 94.0381Z" fill="#F6D3C0"/>
<path d="M4.29609 81.1842C4.48629 81.2475 4.67649 81.3108 4.87245 81.3761C4.74565 81.8192 4.61885 82.2624 4.48821 82.719C4.74181 82.719 4.9954 82.719 5.25668 82.719C5.64092 83.2945 5.64092 83.2945 5.64092 84.0619C5.45072 84.1253 5.26052 84.1886 5.06456 84.2538C4.06628 82.6678 4.06628 82.6678 4.17602 81.6998C4.21565 81.5297 4.25527 81.3595 4.29609 81.1842Z" fill="#F9D792"/>
<path d="M75.5718 118.211C74.6842 118.73 74.091 118.806 73.0743 118.787C72.8841 118.913 72.6939 119.04 72.4979 119.17C72.1327 119.232 72.1327 119.232 71.7272 119.25C71.509 119.261 71.509 119.261 71.2863 119.272C71.1354 119.278 70.9844 119.284 70.8289 119.29C70.6757 119.298 70.5226 119.305 70.3648 119.313C69.9872 119.331 69.6096 119.347 69.2319 119.362C69.8607 118.944 70.198 118.893 70.937 118.799C72.0712 118.641 73.1622 118.401 74.2698 118.113C74.7917 118.021 75.0791 118.035 75.5718 118.211Z" fill="#FEF2D5"/>
<path d="M79.4143 21.3273C79.4143 21.8481 79.3617 22.3229 79.2942 22.8381C79.2152 23.6027 79.2221 24.0938 79.6064 24.7806C79.6778 24.927 79.7491 25.0734 79.8226 25.2242C79.878 25.331 79.9335 25.4379 79.9907 25.548C79.6626 25.3023 79.3425 25.0458 79.0301 24.7806C79.0301 24.6539 79.0301 24.5273 79.0301 24.3969C78.9033 24.3969 78.7765 24.3969 78.6458 24.3969C78.5248 22.4792 78.5248 22.4792 79.0301 21.675C79.1569 21.5602 79.2837 21.4455 79.4143 21.3273Z" fill="#FEF3D5"/>
<path d="M79.9904 106.508C79.9904 106.698 79.9904 106.888 79.9904 107.084C79.3501 107.563 79.0811 107.659 78.2614 107.659C78.2614 107.786 78.2614 107.913 78.2614 108.043C77.9444 107.98 77.6274 107.916 77.3008 107.851C77.3008 107.725 77.3008 107.598 77.3008 107.468C77.6767 107.307 78.053 107.147 78.4295 106.988C78.7437 106.854 78.7437 106.854 79.0644 106.718C79.6062 106.508 79.6062 106.508 79.9904 106.508Z" fill="#E7CB8C"/>
<path d="M13.3256 76.9636C13.902 77.3473 13.902 77.3473 14.0941 77.9229C14.2021 78.8511 14.1819 79.4858 13.7339 80.321C13.3256 80.8006 13.3256 80.8006 12.9414 80.9925C12.878 80.8025 12.8146 80.6126 12.7493 80.4169C13.0029 80.3536 13.2565 80.2903 13.5177 80.2251C13.5379 79.115 13.5163 78.0585 13.3256 76.9636Z" fill="#FEF8DE"/>
<path d="M2.18278 43.5818C2.20655 43.7045 2.23033 43.8271 2.25482 43.9535C2.31426 44.1494 2.31426 44.1494 2.37489 44.3492C2.50169 44.4125 2.62849 44.4758 2.75913 44.541C2.64496 44.8495 2.52843 45.1571 2.41092 45.4643C2.34628 45.6357 2.28164 45.8071 2.21505 45.9836C1.99796 46.444 1.7965 46.7059 1.41431 47.0351C1.51245 45.8002 1.74656 44.7407 2.18278 43.5818Z" fill="#F8D894"/>
<path d="M12.5572 75.6207C12.6206 75.8106 12.684 76.0005 12.7493 76.1962C12.6262 76.1757 12.5031 76.1552 12.3763 76.134C11.2173 75.9736 10.4963 75.9688 9.48329 76.5799C9.19859 76.9704 9.19859 76.9704 9.09906 77.3473C8.97226 77.3473 8.84546 77.3473 8.71482 77.3473C8.65142 77.4739 8.58803 77.6005 8.52271 77.731C8.6374 76.7002 8.6374 76.7002 8.93095 76.2442C10.0399 75.5059 11.2767 75.5743 12.5572 75.6207Z" fill="#F5D99F"/>
<path d="M96.3206 29.385C96.9728 29.6545 97.294 29.9368 97.6654 30.5361C97.7352 31.0037 97.7352 31.0037 97.7254 31.4954C97.7247 31.6576 97.7239 31.8198 97.7232 31.987C97.6626 32.4767 97.5278 32.798 97.2811 33.222C97.0943 32.6621 97.0884 32.391 97.125 31.8191C97.141 30.929 96.8725 30.4749 96.3206 29.7687C96.3206 29.6421 96.3206 29.5155 96.3206 29.385Z" fill="#FEF6DC"/>
<path d="M31.9612 113.031C32.9735 113.161 33.8849 113.464 34.8429 113.799C35.0688 113.874 35.2947 113.949 35.5274 114.026C35.6819 114.078 35.8364 114.129 35.9957 114.182C35.9323 114.372 35.8689 114.562 35.8035 114.758C34.4404 114.441 33.2191 113.824 31.9612 113.223C31.9612 113.16 31.9612 113.096 31.9612 113.031Z" fill="#F8D8A0"/>
<path d="M40.6064 105.741C41.1112 105.988 41.6154 106.236 42.1193 106.484C42.2627 106.554 42.4061 106.624 42.5538 106.696C42.6913 106.764 42.8287 106.832 42.9703 106.903C43.0971 106.965 43.2239 107.027 43.3545 107.091C43.6803 107.276 43.6803 107.276 44.0645 107.659C43.8743 107.723 43.6841 107.786 43.4882 107.851C43.4882 107.725 43.4882 107.598 43.4882 107.468C43.294 107.416 43.0998 107.365 42.8998 107.312C42.1677 107.104 41.4923 106.819 40.7985 106.508C40.7985 106.635 40.7985 106.762 40.7985 106.892C40.6083 106.829 40.4181 106.765 40.2222 106.7C40.349 106.384 40.4758 106.067 40.6064 105.741Z" fill="#EBCE91"/>
<path d="M53.9226 80.0931C54.4824 80.2361 54.6367 80.3871 55.0153 80.8006C54.9038 80.8033 54.7924 80.806 54.6776 80.8088C53.5057 80.8803 52.9635 81.1229 52.1335 81.9517C52.0067 81.8884 51.8799 81.8251 51.7493 81.7598C53.0596 80.272 53.0596 80.272 53.9226 80.0931Z" fill="#E39176"/>
<path d="M118.222 74.4695C118.285 74.4695 118.349 74.4695 118.414 74.4695C118.483 75.6185 118.397 76.3184 117.838 77.3472C117.806 77.5846 117.774 77.822 117.742 78.0667C117.71 78.2724 117.678 78.4782 117.645 78.6902C117.455 78.8168 117.265 78.9434 117.069 79.0739C117.253 78.0699 117.449 77.1421 117.838 76.1961C117.98 75.6235 118.103 75.0475 118.222 74.4695Z" fill="#FEF9E3"/>
<path d="M105.35 47.4188C106.623 47.5627 106.623 47.5627 107.271 47.9944C107.271 48.1843 107.271 48.3742 107.271 48.5699C107.398 48.5699 107.525 48.5699 107.656 48.5699C107.656 48.6965 107.656 48.8232 107.656 48.9536C107.846 49.0169 108.036 49.0802 108.232 49.1455C108.168 49.3987 108.105 49.6519 108.04 49.9129C107.917 49.7467 107.794 49.5805 107.668 49.4093C107.108 48.7296 106.438 48.302 105.695 47.8407C105.581 47.7648 105.467 47.6889 105.35 47.6107C105.35 47.5474 105.35 47.4841 105.35 47.4188Z" fill="#E4C88E"/>
<path d="M87.0989 113.607C86.8555 113.736 86.6112 113.864 86.3665 113.99C86.2305 114.062 86.0946 114.133 85.9545 114.206C85.562 114.374 85.562 114.374 84.9856 114.374C84.9856 114.501 84.9856 114.627 84.9856 114.758C84.0346 115.043 84.0346 115.043 83.0645 115.333C83.0645 115.207 83.0645 115.08 83.0645 114.95C83.4284 114.765 83.7927 114.582 84.1571 114.398C84.3599 114.296 84.5628 114.193 84.7717 114.088C86.3439 113.328 86.3439 113.328 87.0989 113.607Z" fill="#F6D7A0"/>
<path d="M58.0891 16.1473C58.5574 16.2193 58.5574 16.2193 59.0497 16.3392C59.1131 16.4658 59.1765 16.5924 59.2418 16.7229C59.5576 16.8613 59.8778 16.9902 60.2024 17.1066C60.2024 17.2965 60.2024 17.4864 60.2024 17.6821C60.456 17.7454 60.7096 17.8088 60.9709 17.874C60.9075 17.9373 60.8441 18.0006 60.7788 18.0658C60.9056 18.1925 61.0324 18.3191 61.163 18.4495C60.3226 18.4495 59.9051 17.9331 59.3019 17.4063C59.1853 17.3073 59.0688 17.2083 58.9488 17.1062C58.6575 16.8559 58.3727 16.5981 58.0891 16.3392C58.0891 16.2759 58.0891 16.2126 58.0891 16.1473Z" fill="#E5CA8F"/>
<path d="M52.9432 119.215C53.5708 119.388 54.1774 119.481 54.8231 119.554C54.8231 119.617 54.8231 119.681 54.8231 119.746C53.5361 119.777 52.334 119.665 51.0648 119.458C50.8016 119.417 50.8016 119.417 50.5331 119.375C50.1058 119.308 49.6787 119.24 49.2517 119.17C49.2517 119.107 49.2517 119.044 49.2517 118.979C50.5921 118.733 51.6356 118.846 52.9432 119.215Z" fill="#F6DCA5"/>
<path d="M4.10414 38.2101C4.16754 38.2101 4.23094 38.2101 4.29626 38.2101C4.34429 39.6729 4.34429 39.6729 3.91202 40.3204C3.79043 40.7258 3.79043 40.7258 3.71991 41.0878C3.52971 41.0245 3.33951 40.9612 3.14355 40.896C3.36361 39.9156 3.61516 39.0979 4.10414 38.2101Z" fill="#F9DB9F"/>
<path d="M49.2756 0.691503C49.4505 0.711041 49.6253 0.730578 49.8055 0.750707C49.9397 0.766782 50.0739 0.782857 50.2122 0.799419C50.2122 0.862729 50.2122 0.926039 50.2122 0.991268C49.7201 1.08828 49.2278 1.18402 48.7353 1.27904C48.5275 1.32022 48.5275 1.32022 48.3154 1.36223C47.592 1.50077 46.9184 1.60183 46.1777 1.56682C46.6945 1.05073 47.2091 0.986032 47.9068 0.799419C48.4107 0.547794 48.7195 0.627426 49.2756 0.691503Z" fill="#FEF8E4"/>
<path d="M39.6459 15.38C39.7727 15.4433 39.8995 15.5066 40.0301 15.5719C39.9218 16.3294 39.6953 16.8589 39.2617 17.4903C39.1983 17.4903 39.1349 17.4903 39.0696 17.4903C39.0062 16.9206 38.9428 16.3508 38.8774 15.7637C39.0042 15.7004 39.131 15.6371 39.2617 15.5719C39.3885 15.6352 39.5153 15.6985 39.6459 15.7637C39.6459 15.6371 39.6459 15.5105 39.6459 15.38Z" fill="#EFD091"/>
<path d="M15.6311 100.177C15.8213 100.241 16.0115 100.304 16.2075 100.369C16.2075 100.496 16.2075 100.622 16.2075 100.753C16.3343 100.753 16.4611 100.753 16.5917 100.753C16.8533 101.068 17.1084 101.389 17.3602 101.712C17.5345 101.878 17.7089 102.045 17.8885 102.216C18.3207 102.671 18.3207 102.671 18.3207 103.247C18.1888 103.113 18.0568 102.979 17.9208 102.841C17.7476 102.666 17.5745 102.492 17.3962 102.312C17.2246 102.138 17.0529 101.964 16.8761 101.786C16.408 101.31 16.408 101.31 15.8232 100.945C15.6911 100.537 15.6911 100.537 15.6311 100.177Z" fill="#F3DBA6"/>
<path d="M9.09918 28.2339C9.28729 28.8239 9.32009 28.941 9.03914 29.5289C8.93215 29.6713 8.82517 29.8138 8.71494 29.9605C8.58814 29.9605 8.46134 29.9605 8.3307 29.9605C8.14051 30.4037 7.95031 30.8469 7.75435 31.3035C7.62755 31.3035 7.50076 31.3035 7.37012 31.3035C7.65515 30.1017 8.37712 29.2094 9.09918 28.2339Z" fill="#F7DFA6"/>
<path d="M50.4043 12.3103C51.2038 12.2947 51.9311 12.3137 52.7097 12.5022C52.7097 12.6288 52.7097 12.7554 52.7097 12.8859C53.0267 12.8859 53.3437 12.8859 53.6703 12.8859C53.6703 13.0758 53.6703 13.2658 53.6703 13.4614C52.9189 13.3292 52.2188 13.1195 51.497 12.8739C51.2917 12.8044 51.0864 12.7349 50.8748 12.6633C50.7196 12.6101 50.5643 12.557 50.4043 12.5022C50.4043 12.4389 50.4043 12.3756 50.4043 12.3103Z" fill="#DBC089"/>
<path d="M28.1189 9.24078C27.9921 9.24078 27.8653 9.24078 27.7346 9.24078C27.7346 9.36741 27.7346 9.49403 27.7346 9.62448C27.3919 9.87006 27.0375 10.0996 26.678 10.3199C26.3838 10.5017 26.3838 10.5017 26.0836 10.6871C25.9311 10.7796 25.7785 10.8721 25.6213 10.9674C25.6213 10.7775 25.6213 10.5876 25.6213 10.3919C25.7481 10.3919 25.8749 10.3919 26.0056 10.3919C26.0452 10.2771 26.0848 10.1624 26.1256 10.0442C26.6058 9.28126 27.2635 8.95606 28.1189 9.24078Z" fill="#FFFAE7"/>
<path d="M92.4782 110.537C92.0787 110.79 91.6784 111.042 91.2774 111.293C91.1647 111.364 91.0521 111.436 90.936 111.51C90.3727 111.86 89.874 112.161 89.2122 112.264C89.2122 112.137 89.2122 112.011 89.2122 111.88C90.3168 111.305 90.3168 111.305 90.7491 111.305C90.7491 111.178 90.7491 111.051 90.7491 110.921C90.9393 110.921 91.1295 110.921 91.3255 110.921C91.3255 110.794 91.3255 110.668 91.3255 110.537C91.804 110.298 91.9807 110.388 92.4782 110.537Z" fill="#F5D89F"/>
<path d="M68.8476 90.3931C68.911 90.5197 68.9744 90.6463 69.0397 90.7768C68.6664 91.5338 68.1654 92.075 67.5628 92.6593C67.4075 92.8109 67.2523 92.9625 67.0923 93.1187C66.9742 93.2322 66.856 93.3457 66.7343 93.4627C66.5441 93.3993 66.3539 93.336 66.158 93.2708C66.2877 93.1595 66.4175 93.0482 66.5512 92.9336C67.452 92.1458 68.2567 91.4391 68.8476 90.3931Z" fill="#FEF2E6"/>
<path d="M99.3945 47.6106C99.5213 47.6739 99.6481 47.7372 99.7787 47.8024C99.2531 48.5412 98.8881 48.8314 98.0497 49.1454C97.6132 49.533 97.6132 49.533 97.2812 49.9128C97.1544 49.8495 97.0276 49.7862 96.897 49.7209C97.676 48.9016 98.4268 48.1998 99.3945 47.6106Z" fill="#221508"/>
<path d="M71.3452 31.6871C72.092 31.9357 72.1997 32.2365 72.606 32.8982C72.7211 33.0834 72.8363 33.2686 72.9549 33.4595C73.2057 33.8861 73.4374 34.3107 73.6506 34.7567C73.4604 34.7567 73.2702 34.7567 73.0743 34.7567C72.7456 34.2857 72.4568 33.827 72.1737 33.3298C72.0939 33.1942 72.014 33.0585 71.9317 32.9188C71.3452 31.9138 71.3452 31.9138 71.3452 31.6871Z" fill="#EBD099"/>
<path d="M92.286 29.5768C92.4128 29.6401 92.5396 29.7034 92.6702 29.7686C92.5788 29.9274 92.5788 29.9274 92.4856 30.0894C92.2615 30.5907 92.209 30.9976 92.1659 31.5432C92.1515 31.7144 92.1372 31.8855 92.1224 32.0618C92.113 32.1914 92.1035 32.321 92.0938 32.4545C91.8079 32.211 91.8079 32.211 91.5175 31.879C91.4815 31.1715 91.4815 31.1715 91.5175 30.536C91.6443 30.4727 91.7711 30.4094 91.9017 30.3442C92.1195 29.9573 92.1195 29.9573 92.286 29.5768Z" fill="#F8D89D"/>
<path d="M93.2466 10.2001C94.0843 10.6594 94.8063 11.135 95.552 11.7349C95.7422 11.7982 95.9324 11.8615 96.1283 11.9267C96.1917 12.1166 96.2551 12.3066 96.3205 12.5023C95.4235 12.1944 94.5736 11.7397 93.8229 11.1593C93.8229 11.0327 93.8229 10.9061 93.8229 10.7756C93.6327 10.7123 93.4425 10.649 93.2466 10.5838C93.2466 10.4572 93.2466 10.3305 93.2466 10.2001Z" fill="#F4D89D"/>
<path d="M7.17807 31.3035C7.48407 31.9146 7.3244 32.3782 7.17807 33.0301C6.79384 33.4618 6.79384 33.4618 6.4096 33.7975C6.34621 33.9874 6.28281 34.1774 6.21749 34.3731C6.09069 34.3731 5.96389 34.3731 5.83325 34.3731C5.96005 33.9299 6.08685 33.4867 6.21749 33.0301C6.34428 33.0301 6.47108 33.0301 6.60172 33.0301C6.79192 32.4603 6.98211 31.8905 7.17807 31.3035Z" fill="#F7DAA7"/>
<path d="M11.2124 24.9724C11.2758 25.099 11.3392 25.2257 11.4046 25.3561C11.0425 26.3984 10.406 27.2315 9.67549 28.042C9.5487 27.9787 9.4219 27.9154 9.29126 27.8501C9.44165 27.5933 9.59414 27.3378 9.74754 27.0828C9.83224 26.9403 9.91693 26.7979 10.0042 26.6511C10.0859 26.5403 10.1676 26.4295 10.2518 26.3154C10.3786 26.3154 10.5054 26.3154 10.6361 26.3154C10.6955 26.1294 10.755 25.9434 10.8162 25.7518C11.0203 25.1643 11.0203 25.1643 11.2124 24.9724Z" fill="#F7D99F"/>
<path d="M28.5029 111.113C28.9799 111.359 29.4561 111.607 29.9318 111.856C30.0676 111.926 30.2035 111.996 30.3434 112.068C31.3629 112.604 31.3629 112.604 31.5768 113.031C30.5654 112.858 29.7839 112.648 29.0793 111.88C28.8891 111.753 28.6989 111.627 28.5029 111.496C28.5029 111.37 28.5029 111.243 28.5029 111.113Z" fill="#FEF9E2"/>
<path d="M29.6558 95.7648C30.2874 96.3615 30.7772 96.919 31.1927 97.6833C31.0659 97.8099 30.9391 97.9365 30.8085 98.067C30.6817 97.9403 30.5549 97.8137 30.4242 97.6833C30.234 97.5566 30.0438 97.43 29.8479 97.2996C29.9113 97.0463 29.9747 96.7931 30.04 96.5322C29.9132 96.5322 29.7864 96.5322 29.6558 96.5322C29.6558 96.2789 29.6558 96.0257 29.6558 95.7648Z" fill="#E3C68A"/>
<path d="M14.0943 77.9229C14.1577 77.9229 14.2211 77.9229 14.2864 77.9229C14.3882 79.1719 14.4365 80.1427 13.6035 81.1386C13.2133 81.4724 12.8731 81.5535 12.3652 81.568C12.3652 81.4414 12.3652 81.3147 12.3652 81.1843C12.5118 81.1012 12.6585 81.0181 12.8095 80.9325C13.4213 80.5489 13.6146 80.3099 13.9022 79.6495C14.0017 79.0755 14.0575 78.504 14.0943 77.9229Z" fill="#F8DAA2"/>
<path d="M6.40954 32.0708C6.53634 32.0708 6.66314 32.0708 6.79378 32.0708C6.73038 32.3874 6.66698 32.7039 6.60166 33.03C6.47486 33.03 6.34806 33.03 6.21742 33.03C6.19761 33.1646 6.1778 33.2991 6.15739 33.4377C6.00733 34.0644 5.75239 34.5739 5.44895 35.1404C5.38555 35.1404 5.32216 35.1404 5.25684 35.1404C5.25684 34.7605 5.25684 34.3807 5.25684 33.9893C5.44703 33.926 5.63723 33.8627 5.83319 33.7974C6.02969 33.3951 6.02969 33.3951 6.15739 32.9221C6.20568 32.7636 6.25397 32.6051 6.30373 32.4418C6.33865 32.3193 6.37356 32.1969 6.40954 32.0708Z" fill="#FEF9E3"/>
<path d="M87.291 6.55493C88.4701 6.6169 89.4355 7.20638 90.3649 7.89788C90.3649 8.0245 90.3649 8.15112 90.3649 8.28157C89.6367 8.00771 88.968 7.67488 88.2876 7.29835C88.1002 7.19497 87.9127 7.0916 87.7195 6.98509C87.5781 6.90645 87.4367 6.82781 87.291 6.74678C87.291 6.68347 87.291 6.62016 87.291 6.55493Z" fill="#FEF4DA"/>
<path d="M67.5028 110.537C67.3126 110.822 67.3126 110.822 67.1185 111.113C66.5489 111.124 66.0257 111.104 65.4615 111.053C65.3075 111.041 65.1534 111.029 64.9947 111.017C64.6138 110.988 64.2331 110.955 63.8525 110.921C63.8525 110.858 63.8525 110.794 63.8525 110.729C65.077 110.545 66.2654 110.517 67.5028 110.537Z" fill="#D5BC83"/>
<path d="M12.5572 29.7687C12.05 30.4018 11.5428 31.0349 11.0202 31.6872C10.8281 30.9198 10.8281 30.9198 11.0563 30.4162C11.4868 29.8529 11.8584 29.4198 12.5572 29.7687Z" fill="#EBCE96"/>
<path d="M28.8872 29.385C29.0774 29.385 29.2676 29.385 29.4635 29.385C29.4635 29.5116 29.4635 29.6383 29.4635 29.7687C29.8439 29.7687 30.2243 29.7687 30.6162 29.7687C30.6796 29.9586 30.743 30.1486 30.8084 30.3443C30.9352 30.4076 31.062 30.4709 31.1926 30.5361C31.1926 30.6627 31.1926 30.7893 31.1926 30.9198C30.3285 30.5962 29.5156 30.1876 28.6951 29.7687C28.7585 29.6421 28.8219 29.5155 28.8872 29.385Z" fill="#E6CA89"/>
<path d="M84.0249 22.0947C84.1517 22.158 84.2785 22.2213 84.4091 22.2866C84.4247 22.6262 84.4359 22.966 84.4451 23.3058C84.4552 23.5896 84.4552 23.5896 84.4654 23.8791C84.4091 24.3969 84.4091 24.3969 83.8328 24.9725C83.8962 24.0228 83.9596 23.0732 84.0249 22.0947Z" fill="#FDEECC"/>
<path d="M92.2861 9.43262C92.9345 9.48058 92.9345 9.48058 93.631 9.62447C93.9071 10.0202 93.9071 10.0202 94.0152 10.3919C94.142 10.3919 94.2688 10.3919 94.3994 10.3919C94.4628 10.5818 94.5262 10.7717 94.5915 10.9674C94.0439 10.7026 93.5236 10.4124 93.0066 10.0921C92.8709 10.0088 92.7351 9.92541 92.5953 9.83955C92.4933 9.76857 92.3913 9.69759 92.2861 9.62447C92.2861 9.56116 92.2861 9.49785 92.2861 9.43262Z" fill="#FEF6DD"/>
<path d="M112.843 88.2827C113.001 88.7369 113.056 88.9815 112.912 89.4473C112.846 89.5774 112.779 89.7075 112.711 89.8415C112.646 89.9726 112.582 90.1036 112.516 90.2387C112.223 90.6453 111.957 90.7812 111.498 90.9686C111.837 90.0147 112.342 89.1586 112.843 88.2827Z" fill="#FEF3DA"/>
<path d="M21.0105 67.563C21.7011 68.2016 22.2062 68.904 22.7396 69.6733C22.486 69.7366 22.2324 69.7999 21.9711 69.8652C21.8839 69.6832 21.7967 69.5011 21.7069 69.3136C21.4327 68.7135 21.4327 68.7135 21.0105 68.3304C21.0105 68.0771 21.0105 67.8239 21.0105 67.563Z" fill="#E5CA91"/>
<path d="M109.961 59.6971C110.024 59.6971 110.088 59.6971 110.153 59.6971C110.041 60.9065 109.761 61.9968 109.385 63.1504C109.321 63.1504 109.258 63.1504 109.192 63.1504C109.123 62.0479 109.344 61.2831 109.769 60.2727C109.832 60.0828 109.896 59.8928 109.961 59.6971Z" fill="#26190B"/>
<path d="M100.163 46.6514C101.494 46.6514 102.826 46.6514 104.197 46.6514C104.197 46.7147 104.197 46.778 104.197 46.8432C104.014 46.8548 103.831 46.8665 103.643 46.8784C103.402 46.8945 103.161 46.9106 102.913 46.9272C102.674 46.9427 102.436 46.9583 102.19 46.9744C101.527 47.0197 101.527 47.0197 100.964 47.1497C100.547 47.2269 100.547 47.2269 100.163 47.0351C100.163 46.9084 100.163 46.7818 100.163 46.6514Z" fill="#F4D69A"/>
<path d="M89.9806 44.541C90.1708 44.6043 90.361 44.6676 90.557 44.7329C90.7851 45.3204 90.7851 45.3204 90.9412 45.884C90.1729 45.884 89.8265 45.5529 89.2122 45.1166C89.4024 44.9899 89.5926 44.8633 89.7885 44.7329C89.8519 44.6696 89.9153 44.6062 89.9806 44.541Z" fill="#E8C986"/>
<path d="M15.0547 20.1763C15.1181 20.3029 15.1815 20.4295 15.2468 20.56C14.1007 22.4007 14.1007 22.4007 13.1335 23.054C13.624 21.9928 14.3136 21.0749 15.0547 20.1763Z" fill="#F5D89A"/>
<path d="M23.8921 11.9268C24.0189 11.9901 24.1457 12.0534 24.2764 12.1186C24.213 12.2452 24.1496 12.3718 24.0842 12.5023C23.9574 12.5023 23.8306 12.5023 23.7 12.5023C23.6525 12.6171 23.6049 12.7318 23.5559 12.85C23.2843 13.3247 22.9987 13.5448 22.5473 13.8452C22.3571 13.7186 22.1669 13.592 21.9709 13.4616C22.0977 13.4616 22.2245 13.4616 22.3552 13.4616C22.3552 13.3349 22.3552 13.2083 22.3552 13.0779C22.7356 12.9512 23.116 12.8246 23.5079 12.6942C23.5079 12.5675 23.5079 12.4409 23.5079 12.3105C23.6347 12.3105 23.7615 12.3105 23.8921 12.3105C23.8921 12.1838 23.8921 12.0572 23.8921 11.9268Z" fill="#F8DCA0"/>
<path d="M33.8822 6.1712C33.4424 6.39596 33.0021 6.61962 32.5614 6.84267C32.4364 6.90672 32.3113 6.97077 32.1824 7.03677C31.2361 7.51414 31.2361 7.51414 30.8083 7.51414C30.8083 7.38752 30.8083 7.2609 30.8083 7.13044C31.1751 6.93179 31.5437 6.7366 31.913 6.54291C32.2206 6.37931 32.2206 6.37931 32.5344 6.21242C33.1187 5.97734 33.3153 5.93072 33.8822 6.1712Z" fill="#FEF7E0"/>
<path d="M36.9562 4.63643C36.1447 5.29671 35.5152 5.59567 34.4587 5.59567C34.4587 5.72229 34.4587 5.84891 34.4587 5.97937C34.2685 5.97937 34.0783 5.97937 33.8823 5.97937C33.8823 5.85275 33.8823 5.72613 33.8823 5.59567C34.2134 5.43354 34.5459 5.2742 34.8789 5.11605C35.1564 4.98251 35.1564 4.98251 35.4395 4.84626C35.9935 4.63721 36.3709 4.59369 36.9562 4.63643Z" fill="#FEF5DC"/>
<path d="M90.749 111.688C90.5502 112.23 90.4226 112.424 89.9085 112.707C89.3722 112.848 89.1528 112.8 88.6357 112.647C88.9153 112.487 89.1957 112.327 89.4763 112.168C89.6323 112.079 89.7883 111.99 89.949 111.898C90.3648 111.688 90.3648 111.688 90.749 111.688Z" fill="#FEF8E0"/>
<path d="M17.7444 102.671C18.6421 103.213 19.216 103.761 19.8577 104.59C19.4139 104.463 18.9701 104.337 18.5129 104.206C18.4495 103.953 18.3861 103.7 18.3207 103.439C18.1305 103.439 17.9403 103.439 17.7444 103.439C17.7444 103.186 17.7444 102.932 17.7444 102.671Z" fill="#FEF7DC"/>
<path d="M9.09912 41.2797C9.16252 41.2797 9.22592 41.2797 9.29124 41.2797C9.41804 42.4192 9.54483 43.5588 9.67547 44.7329C9.61207 44.6063 9.54868 44.4797 9.48336 44.3492C9.35656 44.3492 9.22976 44.3492 9.09912 44.3492C9.09912 43.3363 9.09912 42.3233 9.09912 41.2797Z" fill="#C3AA77"/>
<path d="M35.6113 33.0302C35.6945 33.1528 35.7777 33.2755 35.8634 33.4019C36.1708 33.8489 36.1708 33.8489 36.764 33.9894C36.764 34.2426 36.764 34.4959 36.764 34.7568C36.0307 34.4585 35.5744 33.9825 35.0349 33.4138C35.2251 33.4138 35.4153 33.4138 35.6113 33.4138C35.6113 33.2872 35.6113 33.1606 35.6113 33.0302Z" fill="#F0D290"/>
<path d="M11.4047 30.9198C11.5949 30.9198 11.7851 30.9198 11.981 30.9198C11.981 31.0464 11.981 31.173 11.981 31.3035C11.8661 31.4143 11.7512 31.5251 11.6328 31.6392C11.1591 32.1257 10.9159 32.6076 10.6362 33.222C10.5094 33.222 10.3826 33.222 10.252 33.222C10.5045 32.3392 10.8347 31.6442 11.4047 30.9198Z" fill="#291B0E"/>
<path d="M99.2023 90.7767C99.3944 91.1604 99.3944 91.1604 99.3944 91.9278C99.0101 92.3595 99.0101 92.3595 98.6259 92.6952C98.4357 92.6319 98.2455 92.5686 98.0496 92.5034C98.43 91.9336 98.8103 91.3638 99.2023 90.7767Z" fill="#EACE93"/>
<path d="M102.276 83.8701C102.403 83.8701 102.53 83.8701 102.66 83.8701C102.578 84.1744 102.494 84.4781 102.408 84.7814C102.361 84.9506 102.315 85.1197 102.266 85.294C102.08 85.7997 101.851 86.1443 101.508 86.556C101.611 85.5435 101.848 84.7802 102.276 83.8701Z" fill="#170A03"/>
<path d="M59.8181 71.0162C59.8815 71.0162 59.9449 71.0162 60.0102 71.0162C60.137 72.0925 60.2638 73.1688 60.3945 74.2777C60.2677 74.341 60.1409 74.4043 60.0102 74.4695C59.6581 73.2402 59.6172 72.28 59.8181 71.0162Z" fill="#D8C3B7"/>
<path d="M22.5474 69.2896C23.4599 69.6493 23.4599 69.6493 23.8922 69.8651C23.8922 70.055 23.8922 70.245 23.8922 70.4406C24.1458 70.504 24.3994 70.5673 24.6607 70.6325C24.1443 70.6924 24.1443 70.6924 23.508 70.6325C22.9556 70.1769 22.9556 70.1769 22.5474 69.6732C22.5474 69.5466 22.5474 69.42 22.5474 69.2896Z" fill="#261A11"/>
<path d="M12.7493 54.1335C12.9395 54.1335 13.1297 54.1335 13.3256 54.1335C13.6881 54.9563 14.0138 55.7696 14.2862 56.6276C14.1594 56.6276 14.0326 56.6276 13.902 56.6276C13.5216 55.8046 13.1412 54.9815 12.7493 54.1335Z" fill="#190B03"/>
<path d="M119.375 51.2557C119.438 51.2557 119.502 51.2557 119.567 51.2557C119.73 52.2305 119.776 53.1451 119.759 54.1335C119.569 54.1335 119.379 54.1335 119.183 54.1335C119.246 53.1838 119.309 52.2342 119.375 51.2557Z" fill="#F8DDAB"/>
<path d="M99.2022 47.2269C99.4558 47.2902 99.7094 47.3535 99.9707 47.4188C98.9246 48.1785 98.9246 48.1785 97.8574 48.9536C97.794 48.7636 97.7306 48.5737 97.6653 48.378C97.8119 48.2949 97.9585 48.2118 98.1096 48.1262C98.6218 47.8383 98.6218 47.8383 98.9261 47.4667C99.0628 47.348 99.0628 47.348 99.2022 47.2269Z" fill="#EACE94"/>
<path d="M83.6408 24.9724C83.7042 25.2257 83.7676 25.4789 83.8329 25.7398C82.8006 26.3909 81.9368 26.3781 80.759 26.3154C80.759 26.252 80.759 26.1887 80.759 26.1235C80.921 26.1186 81.083 26.1136 81.2498 26.1085C81.4603 26.0976 81.6708 26.0868 81.8877 26.0755C82.0972 26.0666 82.3068 26.0577 82.5226 26.0486C83.0879 25.9924 83.0879 25.9924 83.3181 25.551C83.3612 25.4233 83.4043 25.2957 83.4487 25.1643C83.5121 25.101 83.5755 25.0376 83.6408 24.9724Z" fill="#F9DEAA"/>
<path d="M43.296 12.3104C43.4862 12.3104 43.6764 12.3104 43.8723 12.3104C43.8723 12.437 43.8723 12.5637 43.8723 12.6941C43.3018 13.0107 42.7312 13.3272 42.1433 13.6534C42.0799 13.4634 42.0165 13.2735 41.9512 13.0778C42.0146 12.9512 42.078 12.8246 42.1433 12.6941C42.5237 12.6941 42.9041 12.6941 43.296 12.6941C43.296 12.5675 43.296 12.4409 43.296 12.3104Z" fill="#EDCF93"/>
<path d="M108.424 64.6852C108.551 64.7485 108.678 64.8118 108.808 64.877C108.64 65.7883 108.64 65.7883 108.424 66.22C108.107 66.2833 107.79 66.3466 107.463 66.4118C107.78 65.842 108.097 65.2722 108.424 64.6852Z" fill="#E8CB89"/>
<path d="M92.6702 47.2269C93.0016 47.4205 93.3331 47.6141 93.6645 47.8077C94.0415 48.021 94.0415 48.021 94.5913 48.1862C94.5913 48.3128 94.5913 48.4394 94.5913 48.5699C94.4645 48.5699 94.3377 48.5699 94.2071 48.5699C94.1437 48.6965 94.0803 48.8231 94.015 48.9536C93.7897 48.7389 93.5658 48.5228 93.3426 48.3061C93.2178 48.1859 93.0929 48.0657 92.9643 47.9419C92.6702 47.6106 92.6702 47.6106 92.6702 47.2269Z" fill="#E7CA8A"/>
<path d="M39.838 36.2915C40.1547 36.8607 40.3073 37.3767 40.4144 38.0181C40.1615 37.8352 39.9095 37.6512 39.6579 37.4666C39.5175 37.3642 39.3771 37.2618 39.2324 37.1563C38.8774 36.8671 38.8774 36.8671 38.6853 36.4834C39.1608 36.5783 39.1608 36.5783 39.6459 36.6752C39.7093 36.5486 39.7727 36.422 39.838 36.2915Z" fill="#C4AF81"/>
<path d="M45.4094 2.14241C45.0436 2.50769 44.7688 2.70553 44.2477 2.75618C43.8663 2.75415 43.485 2.73698 43.104 2.71796C43.7541 2.06876 44.5325 1.80562 45.4094 2.14241Z" fill="#F5D99E"/>
<path d="M49.0595 109.578C49.3131 109.641 49.5667 109.705 49.8279 109.77C49.5346 110.429 49.1365 110.944 48.6752 111.496C48.485 111.433 48.2948 111.37 48.0989 111.305C48.1861 111.233 48.2732 111.162 48.363 111.089C48.7656 110.625 48.8904 110.162 49.0595 109.578Z" fill="#E4C88F"/>
<path d="M101.315 103.439C101.379 103.692 101.442 103.945 101.508 104.206C101.317 104.206 101.127 104.206 100.931 104.206C100.804 104.459 100.678 104.713 100.547 104.974C100.484 104.847 100.42 104.72 100.355 104.59C100.588 103.969 100.742 103.821 101.315 103.439ZM99.9707 104.974C100.097 105.037 100.224 105.1 100.355 105.165C99.9745 105.355 99.9745 105.355 99.5864 105.549C99.7132 105.359 99.84 105.169 99.9707 104.974Z" fill="#FEFAE7"/>
<path d="M96.8968 93.8463C96.9602 94.0362 97.0236 94.2262 97.0889 94.4219C96.7287 94.9135 96.7287 94.9135 96.3204 95.3811C96.257 95.5077 96.1936 95.6343 96.1283 95.7648C95.636 95.8847 95.636 95.8847 95.1677 95.9567C95.2442 95.8686 95.3208 95.7806 95.3996 95.6899C95.9192 95.089 96.4318 94.4912 96.8968 93.8463Z" fill="#D8C18B"/>
<path d="M24.8528 87.3234C25.237 87.5152 25.237 87.5152 25.4006 87.9117C25.4497 88.0697 25.4987 88.2277 25.5492 88.3905C25.5992 88.549 25.6493 88.7076 25.7008 88.8709C25.7379 88.9933 25.7751 89.1157 25.8134 89.2419C25.3379 89.0519 25.3379 89.0519 24.8528 88.8582C24.8528 88.3517 24.8528 87.8452 24.8528 87.3234Z" fill="#E7CB8D"/>
<path d="M9.29115 27.2747C9.41795 27.338 9.54475 27.4013 9.67539 27.4665C9.48813 27.7868 9.29982 28.1064 9.11104 28.4258C8.95391 28.6928 8.95391 28.6928 8.7936 28.9653C8.7042 29.1038 8.6148 29.2423 8.52268 29.385C8.45929 29.385 8.39589 29.385 8.33057 29.385C8.39397 28.9418 8.45736 28.4987 8.52268 28.0421C8.71288 27.9787 8.90308 27.9154 9.09904 27.8502C9.16244 27.6603 9.22583 27.4703 9.29115 27.2747Z" fill="#FFF9E4"/>
<path d="M55.9758 110.537C56.372 110.621 56.372 110.621 56.7443 110.729C56.6175 110.729 56.4907 110.729 56.36 110.729C56.2966 111.172 56.2332 111.615 56.1679 112.072C55.9777 112.135 55.7875 112.199 55.5916 112.264C55.7597 110.753 55.7597 110.753 55.9758 110.537Z" fill="#DEC482"/>
<path d="M105.35 99.218C105.413 99.3446 105.477 99.4713 105.542 99.6017C105.033 100.298 104.578 100.733 103.813 101.137C104.112 100.403 104.588 99.9497 105.158 99.4099C105.221 99.3466 105.285 99.2832 105.35 99.218Z" fill="#FCEFD3"/>
<path d="M110.921 91.1604C110.985 91.287 111.048 91.4136 111.114 91.5441C110.935 91.7993 110.935 91.7993 110.753 92.0597C110.34 92.6599 110.34 92.6599 110.129 93.2348C109.961 93.6544 109.961 93.6544 109.577 93.8463C110.097 91.7853 110.097 91.7853 110.921 91.1604Z" fill="#F6DAA8"/>
<path d="M8.13843 90.3931C8.80763 90.9722 9.05897 91.4615 9.29113 92.3116C9.10094 92.3116 8.91074 92.3116 8.71478 92.3116C8.61795 92.0641 8.52207 91.8162 8.4266 91.5681C8.37311 91.4301 8.31962 91.2921 8.2645 91.15C8.13843 90.7768 8.13843 90.7768 8.13843 90.3931Z" fill="#FEF7DF"/>
<path d="M26.1975 90.3931C26.7214 90.8548 26.989 91.3379 27.2902 91.9638C27.3741 92.1367 27.4581 92.3096 27.5446 92.4877C27.6072 92.6195 27.6699 92.7513 27.7345 92.8871C27.2332 92.6936 27.0049 92.5677 26.7228 92.1017C26.6604 91.9494 26.598 91.797 26.5337 91.6401C26.4693 91.4877 26.4049 91.3354 26.3386 91.1784C26.1975 90.7768 26.1975 90.7768 26.1975 90.3931Z" fill="#E9CD94"/>
<path d="M35.9956 114.95C36.2679 114.972 36.5401 114.996 36.8121 115.022C36.9637 115.035 37.1152 115.048 37.2714 115.062C37.7412 115.144 38.0798 115.292 38.4931 115.525C38.4297 115.652 38.3663 115.778 38.301 115.909C37.984 115.846 37.667 115.782 37.3404 115.717C37.3404 115.59 37.3404 115.464 37.3404 115.333C36.8966 115.27 36.4528 115.207 35.9956 115.142C35.9956 115.078 35.9956 115.015 35.9956 114.95Z" fill="#F5D9A0"/>
<path d="M45.4094 108.811C45.5996 108.811 45.7898 108.811 45.9857 108.811C45.9223 109.444 45.8589 110.077 45.7936 110.729C45.6668 110.666 45.54 110.602 45.4094 110.537C45.1624 109.304 45.1624 109.304 45.4094 108.811Z" fill="#F7D79A"/>
<path d="M104.389 100.561C104.516 100.624 104.643 100.688 104.774 100.753C104.013 101.418 104.013 101.418 103.237 102.096C103.11 102.033 102.983 101.969 102.853 101.904C103.36 101.461 103.867 101.018 104.389 100.561Z" fill="#FEF9EC"/>
<path d="M116.301 80.6086C116.648 81.7613 116.068 82.6566 115.532 83.6782C115.34 83.2945 115.34 83.2945 115.532 82.6695C115.622 82.4217 115.715 82.1744 115.809 81.9276C115.855 81.8012 115.902 81.6749 115.95 81.5447C116.066 81.2322 116.183 80.9203 116.301 80.6086Z" fill="#FEF8E1"/>
<path d="M10.8281 49.3373C11.3004 50.0447 11.4069 50.6221 11.5966 51.4476C11.4064 51.5426 11.4064 51.5426 11.2123 51.6395C11.1106 51.3283 11.0109 51.0164 10.9122 50.7042C10.8564 50.5306 10.8007 50.357 10.7433 50.1781C10.636 49.721 10.636 49.721 10.8281 49.3373Z" fill="#D8BD85"/>
<path d="M38.1089 36.0997C38.3667 36.2773 38.6225 36.4577 38.8774 36.6393C39.0913 36.7895 39.0913 36.7895 39.3096 36.9428C39.4206 37.0445 39.5315 37.1461 39.6458 37.2508C39.6458 37.4408 39.6458 37.6307 39.6458 37.8264C39.0935 37.6105 39.0935 37.6105 38.4931 37.2508C38.229 36.6393 38.229 36.6393 38.1089 36.0997Z" fill="#140705"/>
<path d="M110.729 27.8502C110.983 27.8502 111.236 27.8502 111.498 27.8502C111.625 28.42 111.751 28.9898 111.882 29.5769C111.29 29.0449 110.981 28.6055 110.729 27.8502Z" fill="#FEF8DF"/>
<path d="M38.1088 20.1763C38.1722 20.1763 38.2356 20.1763 38.3009 20.1763C38.2375 20.936 38.1741 21.6957 38.1088 22.4785C37.7245 22.0948 37.7245 22.0948 37.6765 21.4353C37.7245 20.7518 37.7245 20.7518 38.1088 20.1763Z" fill="#EDCE92"/>
<path d="M104.389 19.7925C104.71 20.1122 105.03 20.432 105.35 20.7517C105.528 20.9219 105.707 21.092 105.89 21.2673C106.311 21.711 106.311 21.711 106.311 22.0947C105.62 21.8649 105.461 21.6212 105.026 21.0515C104.906 20.8974 104.787 20.7433 104.663 20.5846C104.389 20.1762 104.389 20.1762 104.389 19.7925Z" fill="#F3D999"/>
<path d="M87.8674 112.264C88.1844 112.327 88.5014 112.39 88.828 112.456C88.3423 112.993 88.0203 113.311 87.291 113.415C87.4812 113.035 87.6714 112.655 87.8674 112.264Z" fill="#FAD99E"/>
<path d="M37.5325 103.823C38.1809 104.05 38.6174 104.259 39.0694 104.782C38.689 104.908 38.3086 105.035 37.9167 105.165C37.889 105.051 37.8612 104.936 37.8327 104.818C37.7463 104.482 37.6422 104.151 37.5325 103.823Z" fill="#EAC98F"/>
<path d="M60.5866 74.6614C61.0669 75.105 61.0669 75.105 61.5472 75.6206C61.5472 75.8106 61.5472 76.0005 61.5472 76.1962C60.9709 76.0043 60.9709 76.0043 60.5866 75.4288C60.3964 75.5237 60.3964 75.5237 60.2024 75.6206C60.2024 75.4307 60.2024 75.2408 60.2024 75.0451C60.3292 75.0451 60.456 75.0451 60.5866 75.0451C60.5866 74.9185 60.5866 74.7918 60.5866 74.6614Z" fill="#E1C0AA"/>
<path d="M100.547 88.4745C100.737 88.5378 100.927 88.6011 101.123 88.6663C101.013 89.124 100.889 89.5617 100.739 90.0093C100.486 89.8827 100.232 89.756 99.9707 89.6256C100.161 89.2457 100.351 88.8659 100.547 88.4745Z" fill="#EDCF8E"/>
<path d="M4.29621 81.1842C4.48641 81.2475 4.67661 81.3108 4.87257 81.3761C4.70446 82.8629 4.70446 82.8629 4.48833 83.2945C4.09702 82.513 4.09915 82.0304 4.29621 81.1842Z" fill="#FBDEA6"/>
<path d="M108.424 63.9178C108.551 63.9178 108.678 63.9178 108.808 63.9178C108.567 64.7827 108.25 65.355 107.656 66.0282C107.753 65.1926 107.921 64.6004 108.424 63.9178Z" fill="#1E1107"/>
<path d="M52.9019 111.88C53.3773 112.07 53.3773 112.07 53.8624 112.264C53.8624 112.454 53.8624 112.644 53.8624 112.839C54.116 112.903 54.3696 112.966 54.6309 113.031C54.1871 112.968 53.7433 112.905 53.2861 112.839C53.1593 112.523 53.0325 112.206 52.9019 111.88Z" fill="#372613"/>
<path d="M72.1138 109.386C72.1138 109.513 72.1138 109.639 72.1138 109.77C71.8384 109.845 71.562 109.916 71.2853 109.986C71.0546 110.046 71.0546 110.046 70.8192 110.107C70.3847 110.154 70.3847 110.154 69.8083 109.77C70.0461 109.706 70.2838 109.643 70.5288 109.578C70.6625 109.542 70.7963 109.507 70.934 109.47C71.3453 109.386 71.3453 109.386 72.1138 109.386Z" fill="#CBAF7B"/>
<path d="M12.7493 76.1962C13.878 76.5559 13.878 76.5559 14.0941 76.7717C14.1019 77.1553 14.1023 77.5392 14.0941 77.9228C13.6356 77.3544 13.1843 76.7827 12.7493 76.1962Z" fill="#F8DAA5"/>
<path d="M24.4685 72.5511C24.4685 72.6144 24.4685 72.6777 24.4685 72.7429C24.1515 72.7429 23.8346 72.7429 23.508 72.7429C23.4564 72.8616 23.4049 72.9803 23.3519 73.1026C23.1237 73.5103 23.1237 73.5103 22.5474 73.894C22.6226 73.4584 22.7179 73.1584 22.9676 72.7909C23.467 72.4469 23.8775 72.5117 24.4685 72.5511Z" fill="#2F2319"/>
<path d="M1.79854 44.7329C1.86194 44.7329 1.92534 44.7329 1.99066 44.7329C2.00628 45.0085 2.01743 45.2844 2.02668 45.5603C2.03671 45.7906 2.03671 45.7906 2.04694 46.0256C1.97875 46.5514 1.81897 46.7074 1.41431 47.0351C1.44153 46.7592 1.46973 46.4835 1.49836 46.2078C1.51396 46.0542 1.52956 45.9006 1.54564 45.7424C1.60642 45.3085 1.60642 45.3085 1.79854 44.7329Z" fill="#F9E1B2"/>
<path d="M9.48338 32.8383C9.67357 32.9016 9.86377 32.9649 10.0597 33.0301C9.91564 34.3251 9.91564 34.3251 9.48338 34.7567C9.3633 34.3011 9.3633 34.3011 9.29126 33.7975C9.41806 33.6709 9.54485 33.5443 9.67549 33.4138C9.6121 33.2239 9.5487 33.0339 9.48338 32.8383Z" fill="#F7D795"/>
<path d="M12.9414 28.4258C13.3218 28.4258 13.7022 28.4258 14.0941 28.4258C13.7771 28.7423 13.4601 29.0589 13.1335 29.385C13.0067 29.3217 12.8799 29.2584 12.7493 29.1932C12.8127 28.9399 12.8761 28.6867 12.9414 28.4258Z" fill="#E8CA8E"/>
<path d="M58.0891 16.1473C58.5574 16.2193 58.5574 16.2193 59.0497 16.3392C59.1131 16.4658 59.1765 16.5924 59.2418 16.7229C59.432 16.8495 59.6222 16.9761 59.8182 17.1066C59.6914 17.2332 59.5646 17.3598 59.4339 17.4903C59.2092 17.3031 58.9852 17.1151 58.7615 16.9267C58.6367 16.8221 58.5119 16.7175 58.3833 16.6097C58.2862 16.5204 58.1891 16.4312 58.0891 16.3392C58.0891 16.2759 58.0891 16.2126 58.0891 16.1473Z" fill="#DCC189"/>
<path d="M80.759 3.67712C81.5885 3.77458 82.3023 3.90673 83.0644 4.25267C83.0644 4.37929 83.0644 4.50591 83.0644 4.63637C81.4177 4.25267 81.4177 4.25267 80.759 3.86897C80.759 3.80566 80.759 3.74235 80.759 3.67712Z" fill="#FDEFD2"/>
<path d="M84.2171 115.142C84.0269 115.426 84.0269 115.426 83.8329 115.717C83.2325 115.753 83.2325 115.753 82.6802 115.717C82.6802 115.59 82.6802 115.464 82.6802 115.333C83.7849 114.926 83.7849 114.926 84.2171 115.142Z" fill="#FDF4D7"/>
<path d="M102.66 102.096C102.724 102.222 102.787 102.349 102.852 102.48C102.576 102.983 102.576 102.983 102.276 103.439C102.022 103.375 101.769 103.312 101.508 103.247C101.892 102.863 102.276 102.48 102.66 102.096Z" fill="#FEF6D8"/>
<path d="M102.576 101.7C102.808 101.706 102.808 101.706 103.045 101.712C102.729 102.1 102.409 102.483 102.084 102.863C102.021 102.863 101.957 102.863 101.892 102.863C101.884 102.544 101.884 102.224 101.892 101.904C102.084 101.712 102.084 101.712 102.576 101.7Z" fill="#F6D797"/>
<path d="M90.9411 99.7936C91.2581 99.7936 91.5751 99.7936 91.9017 99.7936C91.9017 99.9835 91.9017 100.173 91.9017 100.369C91.5213 100.496 91.1409 100.622 90.749 100.753C90.8124 100.436 90.8758 100.12 90.9411 99.7936Z" fill="#F8DA93"/>
<path d="M106.887 96.5322C107.14 96.5955 107.394 96.6588 107.655 96.7241C106.99 97.2939 106.99 97.2939 106.311 97.8752C106.311 97.6852 106.311 97.4953 106.311 97.2996C106.437 97.2996 106.564 97.2996 106.695 97.2996C106.758 97.0464 106.822 96.7931 106.887 96.5322Z" fill="#F5D99A"/>
<path d="M67.5028 92.3115C67.1858 92.5647 66.8688 92.8179 66.5422 93.0788C66.4154 93.0155 66.2886 92.9522 66.158 92.887C66.2214 92.6971 66.2848 92.5071 66.3501 92.3115C66.8286 92.0725 67.0054 92.1624 67.5028 92.3115Z" fill="#F3D1BC"/>
<path d="M23.7 70.6326C23.9535 70.6326 24.2071 70.6326 24.4684 70.6326C24.4684 70.7592 24.4684 70.8858 24.4684 71.0163C24.3416 71.0163 24.2148 71.0163 24.0842 71.0163C24.0208 71.5227 23.9574 72.0292 23.8921 72.5511C23.8287 72.5511 23.7653 72.5511 23.7 72.5511C23.7 71.918 23.7 71.2849 23.7 70.6326Z" fill="#FCF8DF"/>
<path d="M56.3601 71.4C56.3601 71.4633 56.3601 71.5266 56.3601 71.5918C55.5993 71.5918 54.8385 71.5918 54.0547 71.5918C55.0086 70.9568 55.264 71.0554 56.3601 71.4Z" fill="#FFFBEE"/>
<path d="M109.192 63.1504C109.319 63.1504 109.446 63.1504 109.577 63.1504C109.471 63.7978 109.374 64.1254 109 64.6852C108.873 64.6852 108.747 64.6852 108.616 64.6852C108.976 63.5821 108.976 63.5821 109.192 63.1504Z" fill="#E4C88C"/>
<path d="M11.7888 52.4069C11.9156 52.4702 12.0424 52.5335 12.173 52.5987C12.173 52.852 12.173 53.1052 12.173 53.3661C11.9194 53.4294 11.6658 53.4927 11.4045 53.558C11.3411 53.368 11.2777 53.1781 11.2124 52.9824C11.3392 52.9824 11.466 52.9824 11.5966 52.9824C11.66 52.7925 11.7234 52.6025 11.7888 52.4069Z" fill="#F9D495"/>
<path d="M4.10413 38.2101C4.16753 38.2101 4.23093 38.2101 4.29625 38.2101C4.35254 39.3717 4.35254 39.3717 4.29625 39.7449C4.10605 39.8715 3.91586 39.9981 3.7199 40.1286C3.68543 39.3713 3.70193 38.8627 4.10413 38.2101Z" fill="#F4D795"/>
<path d="M38.3009 35.1405C38.6852 35.5242 38.6852 35.5242 38.6852 35.9079C38.6218 36.0978 38.5584 36.2878 38.493 36.4834C38.1126 36.1669 37.7323 35.8503 37.3403 35.5242C37.4632 35.4965 37.586 35.4688 37.7126 35.4403C38.1041 35.3688 38.1041 35.3688 38.3009 35.1405Z" fill="#DFC38A"/>
<path d="M33.6903 31.3034C33.5001 31.3984 33.5001 31.3984 33.306 31.4953C33.306 31.6852 33.306 31.8751 33.306 32.0708C32.9891 32.0075 32.6721 31.9442 32.3455 31.879C32.3455 31.7524 32.3455 31.6257 32.3455 31.4953C33.0419 31.0876 33.0419 31.0876 33.6903 31.3034Z" fill="#F3D191"/>
<path d="M16.2075 27.6583C15.9278 27.787 15.6475 27.9147 15.367 28.042C15.133 28.1488 15.133 28.1488 14.8942 28.2578C14.4785 28.4257 14.4785 28.4257 14.0942 28.4257C14.0942 28.2357 14.0942 28.0458 14.0942 27.8501C15.4322 27.4133 15.4322 27.4133 16.2075 27.6583Z" fill="#E7CD95"/>
<path d="M39.8381 16.1473C40.0282 16.3373 40.2184 16.5272 40.4144 16.7229C40.2242 16.8495 40.034 16.9761 39.8381 17.1066C39.6361 17.4202 39.4423 17.7395 39.2617 18.0658C39.1983 17.9392 39.1349 17.8126 39.0696 17.6821C39.2189 17.3089 39.2189 17.3089 39.4418 16.8908C39.5514 16.6823 39.5514 16.6823 39.6632 16.4696C39.7209 16.3632 39.7786 16.2569 39.8381 16.1473Z" fill="#1E1206"/>
<path d="M24.6606 108.427C25.213 108.463 25.213 108.463 25.8133 108.619C26.0775 109.11 26.0775 109.11 26.1976 109.578C25.0929 109.074 25.0929 109.074 24.6606 108.427Z" fill="#F9DDAB"/>
<path d="M31.769 98.4507C32.0226 98.7039 32.2762 98.9572 32.5374 99.2181C32.2205 99.3447 31.9035 99.4713 31.5769 99.6018C31.4501 99.4752 31.3233 99.3485 31.1926 99.2181C31.3194 99.2181 31.4462 99.2181 31.5769 99.2181C31.6403 98.9648 31.7037 98.7116 31.769 98.4507Z" fill="#E5CA85"/>
<path d="M69.6161 88.2827C69.8082 88.8583 69.8082 88.8583 69.5321 89.4698C69.3835 89.7369 69.3835 89.7369 69.2319 90.0094C69.1051 89.7561 68.9783 89.5029 68.8477 89.242C69.1013 88.9254 69.3548 88.6089 69.6161 88.2827Z" fill="#F3D3BE"/>
<path d="M81.9116 41.0878C82.6255 41.0493 82.8284 41.0587 83.4486 41.4715C83.4486 41.5981 83.4486 41.7247 83.4486 41.8552C82.9414 41.7286 82.4342 41.602 81.9116 41.4715C81.9116 41.3449 81.9116 41.2183 81.9116 41.0878Z" fill="#E2C792"/>
<path d="M9.4834 32.0708C9.73699 32.0708 9.99059 32.0708 10.2519 32.0708C10.3719 32.4185 10.3719 32.4185 10.444 32.8382C10.2538 33.1231 10.2538 33.1231 10.0598 33.4137C9.4834 32.7183 9.4834 32.7183 9.4834 32.0708Z" fill="#F1D087"/>
<path d="M13.3258 29.0012C13.4526 29.1278 13.5794 29.2545 13.71 29.3849C13.5832 29.3849 13.4564 29.3849 13.3258 29.3849C13.3258 29.5115 13.3258 29.6382 13.3258 29.7686C12.9416 30.0804 12.9416 30.0804 12.5573 30.3442C12.4305 30.2175 12.3037 30.0909 12.1731 29.9605C12.5535 29.6439 12.9339 29.3274 13.3258 29.0012Z" fill="#281A0E"/>
<path d="M67.6951 25.9316C68.1706 26.1216 68.1706 26.1216 68.6557 26.3153C68.5923 26.6319 68.5289 26.9484 68.4635 27.2746C67.6951 26.3633 67.6951 26.3633 67.6951 25.9316Z" fill="#EDD08F"/>
<path d="M29.2716 8.66528C29.2716 8.7919 29.2716 8.91852 29.2716 9.04898C28.7039 9.57537 28.5464 9.62453 27.7346 9.62453C27.7346 9.49791 27.7346 9.37129 27.7346 9.24083C28.8393 8.66528 28.8393 8.66528 29.2716 8.66528Z" fill="#F8DBA5"/>
<path d="M56.1679 111.88C56.3581 111.943 56.5483 112.007 56.7442 112.072C56.6174 112.325 56.4906 112.578 56.36 112.839C56.2966 112.713 56.2332 112.586 56.1679 112.456C56.0411 112.456 55.9143 112.456 55.7836 112.456C55.7836 112.582 55.7836 112.709 55.7836 112.839C55.6569 112.776 55.5301 112.713 55.3994 112.648C55.653 112.394 55.9066 112.141 56.1679 111.88Z" fill="#FCD993"/>
<path d="M69.8082 110.153C69.7448 110.28 69.6814 110.407 69.616 110.537C69.1089 110.474 68.6017 110.411 68.0791 110.345C68.7229 109.941 69.0822 109.952 69.8082 110.153Z" fill="#D3B981"/>
<path d="M88.2516 101.712C88.315 101.839 88.3784 101.965 88.4437 102.096C88.1901 102.349 87.9365 102.602 87.6752 102.863C87.485 102.737 87.2948 102.61 87.0989 102.48C87.4793 102.226 87.8597 101.973 88.2516 101.712Z" fill="#E5C98E"/>
<path d="M93.0544 97.8751C93.3763 97.93 93.6968 97.9936 94.015 98.067C93.9516 98.2569 93.8882 98.4468 93.8229 98.6425C93.4266 98.7744 93.4266 98.7744 93.0544 98.8344C92.9464 98.4627 92.9464 98.4627 92.8623 98.067C92.9257 98.0037 92.9891 97.9404 93.0544 97.8751Z" fill="#EECD82"/>
<path d="M94.0151 96.5322C94.2052 96.5955 94.3954 96.6588 94.5914 96.7241C93.9257 97.2939 93.9257 97.2939 93.2466 97.8752C93.31 97.6219 93.3734 97.3687 93.4387 97.1078C93.6289 97.0445 93.8191 96.9812 94.0151 96.9159C94.0151 96.7893 94.0151 96.6627 94.0151 96.5322Z" fill="#372519"/>
<path d="M12.9414 55.0928C13.0682 55.0928 13.195 55.0928 13.3256 55.0928C13.4524 55.4726 13.5792 55.8525 13.7099 56.2439C13.4563 56.2439 13.2027 56.2439 12.9414 56.2439C12.9414 55.864 12.9414 55.4841 12.9414 55.0928Z" fill="#E7C788"/>
<path d="M65.9658 24.0132C66.4413 24.1081 66.4413 24.1081 66.9264 24.205C66.9264 24.3317 66.9264 24.4583 66.9264 24.5887C67.0532 24.5887 67.18 24.5887 67.3106 24.5887C67.3106 24.7154 67.3106 24.842 67.3106 24.9724C67.1204 25.0357 66.9303 25.099 66.7343 25.1643C66.4807 24.7844 66.2271 24.4046 65.9658 24.0132Z" fill="#E8C889"/>
</svg>
