<svg width="120" height="120" viewBox="0 0 120 120" fill="none" xmlns="http://www.w3.org/2000/svg">
<path d="M59.5654 0.000185721C59.7127 0.000365139 59.86 0.000544559 60.0118 0.000729414C66.8635 0.0187075 74.138 0.852554 80.4767 3.59283C81.1425 3.87746 81.8154 4.11048 82.5 4.34637C89.071 6.73135 95.106 10.7906 100.223 15.4872C100.65 15.8761 101.082 16.2552 101.52 16.6306C102.833 17.7716 104.003 19.0247 105.134 20.3423C105.315 20.5487 105.496 20.7549 105.677 20.9611C106.851 22.3039 107.965 23.6612 108.977 25.1315C109.063 25.2559 109.149 25.3803 109.238 25.5085C116.229 35.6424 120.023 47.3208 120 59.6376C120 59.8366 120 60.0357 120 60.2407C119.972 74.1812 115.151 87.6302 106.095 98.3103C106.002 98.4208 105.908 98.5313 105.812 98.6452C105.507 99.0052 105.201 99.3643 104.894 99.7231C104.799 99.8348 104.704 99.9466 104.606 100.062C104.039 100.72 103.451 101.342 102.829 101.95C102.659 102.128 102.488 102.306 102.313 102.489C101.868 102.908 101.868 102.908 101.484 102.908C101.44 103.016 101.395 103.125 101.349 103.236C99.1821 107.044 92.8802 110.274 89.1882 112.295C88.9823 112.408 88.9823 112.408 88.7721 112.523C83.3702 115.471 77.7183 117.491 71.6779 118.697C71.2158 118.79 70.7557 118.889 70.2957 118.992C64.1326 120.293 56.9533 120.308 50.7638 119.191C50.5345 119.151 50.3053 119.111 50.0692 119.07C47.4158 118.598 44.8014 118.077 42.2638 117.154C41.5997 116.913 40.9353 116.706 40.2571 116.509C34.3144 114.691 28.8852 111.455 23.8546 107.877C23.7024 107.769 23.5501 107.662 23.3932 107.551C23.1844 107.401 23.1844 107.401 22.9713 107.247C22.8472 107.158 22.7231 107.07 22.5953 106.978C22.5076 106.899 22.4199 106.82 22.3296 106.739C22.3296 106.613 22.3296 106.486 22.3296 106.356C22.2264 106.312 22.1231 106.267 22.0167 106.221C21.4283 105.901 20.9319 105.491 20.4204 105.063C20.322 104.983 20.2235 104.903 20.1221 104.821C19.423 104.24 18.8706 103.61 18.2951 102.908C18.0774 102.705 17.8542 102.508 17.6226 102.321C7.25572 93.6923 1.46256 78.7524 0.116971 65.6704C-0.0120625 63.9408 0.00769023 62.2026 0.00782294 60.4691C0.0074036 59.8572 0.00390747 59.2453 0.00027125 58.6333C-0.00587728 56.4315 0.0911713 54.3189 0.427669 52.1425C0.481321 51.7218 0.534137 51.301 0.58602 50.8801C0.983897 47.8898 1.64223 45.0592 2.54102 42.181C2.58702 42.0284 2.63302 41.8759 2.68042 41.7187C4.27486 36.4369 6.72602 31.4084 9.84167 26.8556C9.99254 26.6325 9.99254 26.6325 10.1465 26.405C11.3499 24.6305 12.5454 22.9121 14.0338 21.3622C14.4489 20.9209 14.818 20.4645 15.1851 19.9831C15.8815 19.0723 16.6563 18.321 17.5266 17.5765C18.073 17.1065 18.5152 16.6249 18.9645 16.0604C19.5125 15.4661 20.1602 14.9846 20.7919 14.4822C21.3548 14.0319 21.9018 13.5668 22.4497 13.0986C25.1542 10.8583 28.1079 9.03255 31.1673 7.31567C31.42 7.17366 31.42 7.17366 31.6779 7.02879C34.2375 5.60598 36.8607 4.46371 39.6207 3.48432C39.7901 3.42413 39.9596 3.36394 40.1342 3.30192C44.5502 1.76185 49.1787 0.677183 53.8377 0.227672C54.0226 0.209753 54.2075 0.191835 54.398 0.173373C56.1205 0.0235446 57.8378 -0.00255108 59.5654 0.000185721Z" fill="#CC9883"/>
<path d="M86.6463 22.1703C88.3574 23.2881 89.6337 24.6551 90.1488 26.6639C90.4676 28.9501 89.5643 31.3263 88.2081 33.1436C88.0679 33.3246 87.9277 33.5056 87.7833 33.6921C87.1555 34.5031 87.1555 34.5031 86.9428 35.4761C87.0894 36.1139 87.1618 36.2208 87.6512 36.6255C88.0509 36.8609 88.456 37.0872 88.864 37.3079C95.8786 41.2135 100.692 47.3448 103.405 54.8244C103.484 55.0392 103.563 55.2541 103.645 55.4754C105.648 61.6453 105.308 68.3115 103.546 74.472C103.381 75.2424 103.358 75.8767 103.405 76.6631C103.852 77.1563 104.294 77.3139 104.942 77.4294C104.582 78.5548 104.582 78.5548 104.366 78.7703C103.787 78.7686 103.211 78.7448 102.633 78.7209C101.986 78.7767 101.737 78.8785 101.292 79.345C101.161 80.1303 101.161 80.1303 101.292 80.8776C101.839 81.3693 101.839 81.3693 102.445 81.6438C102.174 82.5017 101.833 83.0267 101.1 83.5595C100.684 83.5318 100.684 83.5318 100.211 83.4637C99.699 83.409 99.699 83.409 99.1786 83.5595C98.4545 84.2171 97.883 84.9553 97.3012 85.7379C96.9943 86.1437 96.6614 86.5221 96.3208 86.9C95.9514 87.3162 95.5997 87.7337 95.2521 88.1691C89.7234 94.4886 80.6693 97.6458 72.6657 99.0765C72.3655 99.1335 72.0653 99.1906 71.7651 99.2478C67.8136 99.9772 63.8331 100.098 59.8235 100.084C59.0838 100.082 58.3443 100.084 57.6047 100.087C54.9149 100.088 52.2795 99.9886 49.611 99.6512C49.4154 99.6292 49.2197 99.6071 49.0182 99.5844C45.5797 99.1914 42.1216 98.491 38.8521 97.3524C38.6164 97.2776 38.3806 97.2027 38.1377 97.1256C34.3543 95.8747 30.4278 94.1297 27.2805 91.651C26.7791 91.3012 26.3852 91.3641 25.7878 91.4138C25.6679 91.4619 25.5481 91.5101 25.4246 91.5597C25.0193 91.6054 25.0193 91.6054 24.566 91.2888C24.4145 91.1444 24.2629 90.9999 24.1067 90.8511C23.9532 90.7071 23.7996 90.5631 23.6414 90.4148C23.5255 90.3019 23.4096 90.1891 23.2902 90.0728C23.3874 89.6573 23.4823 89.3066 23.6745 88.9234C23.7947 87.8945 23.7947 87.8945 23.3863 87.0077C22.4961 86.6527 21.68 86.7128 20.7926 87.0077C20.6658 87.0709 20.539 87.1342 20.4084 87.1993C20.1825 86.9574 19.9588 86.7136 19.7359 86.4689C19.5487 86.2656 19.5487 86.2656 19.3577 86.0581C19.0635 85.6668 19.0635 85.6668 19.0635 85.0921C19.2537 84.9261 19.2537 84.9261 19.4478 84.7568C19.8936 84.3366 19.8936 84.3366 19.9281 83.6553C19.8745 82.9978 19.8745 82.9978 19.5798 82.5298C18.9958 82.1777 18.6797 82.1697 18.0068 82.1347C17.0096 82.0764 17.0096 82.0764 16.4458 81.6079C16.1579 81.0207 16.0181 80.5732 15.9896 79.9197C16.1164 79.7301 16.2432 79.5404 16.3738 79.345C16.4497 78.3899 16.3133 77.7115 15.9535 76.8307C12.9735 68.8788 13.5501 60.0149 17.0002 52.3177C17.6113 50.9942 18.2521 49.7171 19.0635 48.5026C19.1906 48.3123 19.1906 48.3123 19.3203 48.1182C20.3952 46.5219 21.4612 45.0019 22.906 43.7135C23.0684 43.5515 23.2309 43.3895 23.3983 43.2226C23.5528 43.0685 23.7074 42.9144 23.8666 42.7556C24.0079 42.6076 24.0079 42.6076 24.152 42.4567C24.959 41.624 25.8065 40.9352 26.7604 40.2772C26.9011 40.1788 27.0418 40.0804 27.1867 39.9791C28.305 39.2082 29.4575 38.5319 30.6562 37.8938C31.2105 37.6061 31.2105 37.6061 31.5515 37.0086C31.5784 36.3242 31.5296 35.8598 31.0637 35.3339C30.7998 35.0896 30.5353 34.846 30.2704 34.6028C29.7274 34.036 29.3171 33.4306 28.8978 32.7702C28.8262 32.6579 28.7546 32.5457 28.6809 32.43C27.5328 30.5907 27.0569 28.9615 27.3931 26.7994C27.8579 25.0419 29.3311 23.6265 30.8558 22.7016C33.423 21.416 35.9529 21.0011 38.7321 21.8628C40.7399 22.6745 42.2002 24.1167 43.0788 26.0892C43.5698 27.4925 43.7232 28.8589 43.7505 30.3396C43.8136 30.8907 43.8136 30.8907 44.1423 31.3334C45.2855 32.0849 46.9081 31.5333 48.1701 31.2975C55.4415 30.029 63.4356 29.5033 70.6339 31.4013C71.5464 31.6398 72.3065 31.7345 73.2421 31.6447C73.7437 31.375 73.7437 31.375 74.0105 30.8784C74.1241 30.2425 74.1241 30.2425 74.1186 29.5375C74.2128 27.0315 74.8401 24.8442 76.5464 22.9538C79.2714 20.4901 83.5139 20.4302 86.6463 22.1703Z" fill="#FED489"/>
<path d="M89.3804 20.3423C91.1864 21.802 92.6719 23.7534 93.0307 26.0893C93.291 29.0925 92.8296 31.4761 91.1845 34.0468C90.8701 34.5114 90.8701 34.5114 90.9174 35.093C91.3721 35.405 91.8208 35.6816 92.2982 35.955C93.837 36.8739 95.1569 37.9241 96.4889 39.1159C96.6652 39.2685 96.8416 39.4211 97.0232 39.5783C98.0199 40.4494 98.9185 41.3484 99.755 42.3725C99.8712 42.5121 99.8712 42.5121 99.9898 42.6545C103.432 46.8003 105.669 51.5574 107.056 56.7401C107.118 56.9724 107.118 56.9724 107.182 57.2095C107.816 59.6801 107.895 62.1308 107.896 64.6662C107.897 64.8971 107.897 64.8971 107.897 65.1326C107.897 67.8139 107.692 70.4496 107.092 73.0712C107.06 73.2136 107.027 73.3559 106.994 73.5026C106.702 74.7309 106.323 75.9355 105.711 77.0463C105.097 77.3521 104.457 77.3086 103.79 77.2378C103.405 77.0463 103.405 77.0463 103.213 76.6631C103.144 75.475 103.338 74.4978 103.657 73.3586C105.812 65.1376 104.868 56.3795 100.584 48.9816C98.5955 45.6523 96.1432 42.6064 93.0307 40.2653C92.931 40.1898 92.8313 40.1144 92.7285 40.0366C91.2539 38.9282 89.7254 37.9554 88.1165 37.0513C87.094 36.472 87.094 36.472 86.8828 36.0508C86.7735 35.0663 86.9016 34.5467 87.5174 33.7647C87.6051 33.6578 87.6929 33.5509 87.7834 33.4407C89.3021 31.4677 90.2112 29.1864 89.9567 26.664C89.5329 24.9034 88.4248 23.5102 86.9428 22.4854C84.6474 21.2129 81.931 20.8858 79.3667 21.4266C77.4028 22.1323 76.049 23.4631 75.1633 25.323C74.5045 26.9487 74.3668 28.4419 74.3318 30.19C74.1699 31.0536 73.9662 31.3397 73.2421 31.8363C72.1737 31.9546 71.2736 31.7616 70.2402 31.4891C62.9362 29.7469 54.9492 30.2222 47.6145 31.5929C44.9855 32.079 44.9855 32.079 44.0515 31.4659C43.523 30.6824 43.5025 30.0671 43.4631 29.1424C43.2692 26.626 42.5459 24.7162 40.5813 23.0242C38.5752 21.7264 36.1923 21.3017 33.8466 21.7604C31.4637 22.3618 29.5252 23.497 28.0933 25.5146C27.3274 26.9753 27.2885 28.7094 27.7451 30.2806C28.4447 32.1017 29.5951 33.688 30.9519 35.0803C31.529 35.6798 31.7358 35.8974 31.7797 36.7572C31.3542 37.9406 30.2184 38.3783 29.162 38.9363C27.5776 39.7987 26.2071 40.8349 24.8272 41.9894C24.6749 42.1141 24.5226 42.2388 24.3657 42.3673C23.4644 43.1245 22.6956 43.9583 21.9454 44.8629C21.825 45.0044 21.7047 45.1459 21.5807 45.2917C19.7386 47.5096 18.3655 49.9298 17.1423 52.5256C16.9882 52.8434 16.9882 52.8434 16.8309 53.1677C13.6171 60.1426 13.298 68.8912 15.8815 76.1258C16.045 76.5621 16.2134 76.9966 16.3896 77.4279C16.6413 78.2502 16.7046 79.0081 16.3738 79.812C15.8816 80.1955 15.4572 80.2037 14.8436 80.2131C14.2843 80.0675 14.0618 79.776 13.6841 79.3451C13.4649 78.8786 13.4649 78.8786 13.2931 78.3588C13.1971 78.0719 13.1971 78.0719 13.0992 77.7791C13.0024 77.4756 13.0024 77.4756 12.9036 77.166C12.8361 76.9585 12.7686 76.7509 12.699 76.5371C12.2255 75.0558 11.8358 73.5984 11.5708 72.0655C11.537 71.873 11.5033 71.6804 11.4686 71.4821C11.1713 69.6168 11.1017 67.7853 11.1025 65.8994C11.1023 65.7408 11.1022 65.5821 11.1021 65.4186C11.1233 56.2593 14.8357 47.5022 21.2452 40.9522C22.8735 39.3646 24.6405 38.0422 26.5526 36.8163C27.1263 36.4659 27.1263 36.4659 27.5169 36.0508C27.401 35.8866 27.2851 35.7224 27.1657 35.5532C26.7012 34.8925 26.2429 34.2276 25.7878 33.5604C25.7123 33.4528 25.6367 33.3452 25.5589 33.2343C24.2808 31.2618 23.9704 28.7664 24.3417 26.4904C25.0038 23.6758 26.8496 21.6592 29.246 20.1507C32.2323 18.5868 35.8653 17.9992 39.1705 18.9028C40.4809 19.3141 41.6193 19.8658 42.6946 20.7254C42.8927 20.8676 43.0909 21.0099 43.295 21.1564C45.1753 22.9498 46.4692 25.503 46.5611 28.1127C46.5532 28.2668 46.5452 28.4209 46.5371 28.5797C46.7483 28.5226 46.9596 28.4656 47.1772 28.4068C48.1516 28.1644 49.1327 28.028 50.1274 27.8972C50.3011 27.8731 50.4748 27.8491 50.6538 27.8243C53.4227 27.4526 56.1608 27.3891 58.9514 27.3842C59.5946 27.3824 60.2377 27.3764 60.881 27.3704C64.4515 27.353 67.8479 27.759 71.3209 28.5797C71.301 28.3545 71.2812 28.1293 71.2608 27.8972C71.2687 25.3894 72.6708 22.6402 74.3588 20.8451C78.534 16.9788 84.8575 17.22 89.3804 20.3423Z" fill="#070403"/>
<path d="M46.5489 50.8375C47.5794 51.4715 48.4552 52.3254 48.8423 53.4835C49.0723 56.6524 49.0723 56.6524 48.0739 57.8895C46.937 59.17 45.5128 59.5923 43.8472 59.8052C43.9004 59.9047 43.9537 60.0043 44.0085 60.1068C44.0781 60.2404 44.1477 60.374 44.2194 60.5116C44.323 60.7083 44.323 60.7083 44.4288 60.909C45.4276 63.2009 44.9267 66.5456 44.0873 68.8089C42.8457 71.7314 40.7916 73.6542 37.8914 74.9391C34.8066 75.9618 32.0192 75.6029 29.1258 74.2341C28.5417 73.9104 28.1405 73.5297 27.7089 73.0234C27.5504 72.8772 27.3919 72.731 27.2286 72.5804C26.6377 71.947 26.2181 71.2805 25.7876 70.533C25.7158 70.4192 25.644 70.3053 25.57 70.188C24.2084 67.8397 24.3011 64.1833 24.9546 61.5997C25.176 60.8349 25.4138 60.1272 25.7876 59.4221C25.9144 59.4221 26.0413 59.4221 26.1719 59.4221C26.2313 59.3035 26.2908 59.185 26.352 59.0629C26.4841 58.7995 26.6162 58.5361 26.7483 58.2727C26.8751 58.2727 27.0019 58.2727 27.1325 58.2727C27.1971 58.0597 27.1971 58.0597 27.2631 57.8424C27.9127 56.4913 29.7932 55.5549 31.1671 55.016C32.4128 54.6486 33.6204 54.5683 34.9135 54.573C35.0836 54.5699 35.2537 54.5669 35.429 54.5637C37.1178 54.5624 38.4831 55.1044 40.0047 55.7823C39.9889 55.5334 39.973 55.2845 39.9567 55.028C39.9643 53.8104 40.3014 52.8402 41.1394 51.9412C42.6707 50.5653 44.5225 50.0507 46.5489 50.8375Z" fill="#FBAA71"/>
<path d="M85.3817 47.1019C86.6819 48.0407 87.238 49.2797 87.6512 50.8016C87.6512 50.9912 87.6512 51.1809 87.6512 51.3763C87.8666 51.2726 87.8666 51.2726 88.0865 51.1667C88.2757 51.0779 88.4649 50.989 88.6598 50.8974C88.8471 50.8085 89.0343 50.7196 89.2272 50.628C89.7645 50.4184 89.7645 50.4184 90.533 50.4184C90.533 50.292 90.533 50.1656 90.533 50.0353C91.4731 49.7932 92.4029 49.8085 93.3668 49.8078C93.5313 49.8055 93.6957 49.8031 93.8651 49.8007C95.2375 49.7976 96.6926 49.8702 97.8577 50.6699C97.9818 50.7538 98.1058 50.8378 98.2337 50.9243C98.3553 51.0102 98.4769 51.0962 98.6022 51.1847C98.7257 51.2667 98.8493 51.3487 98.9767 51.4331C99.6045 51.8583 100.132 52.2432 100.523 52.9088C100.523 53.0353 100.523 53.1617 100.523 53.292C100.65 53.292 100.777 53.292 100.908 53.292C101.109 53.6718 101.297 54.0543 101.484 54.4414C101.565 54.5999 101.646 54.7584 101.729 54.9218C102.496 56.5488 102.61 58.0433 102.637 59.8052C102.646 60.0139 102.656 60.2226 102.666 60.4376C102.752 63.0875 101.836 64.9171 100.139 66.8932C99.8538 66.9881 99.8538 66.9881 99.5628 67.0848C99.5628 67.2113 99.5628 67.3377 99.5628 67.468C97.2151 69.4901 94.7436 69.9163 91.7572 69.8019C89.7628 69.648 87.3731 68.675 85.9221 67.2764C85.9221 67.15 85.9221 67.0235 85.9221 66.8932C85.7953 66.8932 85.6685 66.8932 85.5378 66.8932C85.2902 66.6134 85.2902 66.6134 85.0335 66.2467C84.9478 66.1267 84.8621 66.0067 84.7738 65.883C84.5772 65.5523 84.5772 65.5523 84.5772 65.1691C84.4504 65.1691 84.3236 65.1691 84.193 65.1691C83.199 62.4032 82.752 59.4223 83.6166 56.5486C83.7403 56.2911 83.8674 56.035 84.0009 55.7823C83.8406 55.7818 83.6804 55.7813 83.5153 55.7808C81.9804 55.7282 80.8977 55.529 79.7742 54.4414C78.6865 53.0596 78.4386 51.7753 78.6214 50.0353C79.0487 48.6079 79.8308 47.7006 81.119 46.9702C82.4836 46.3195 84.0716 46.3434 85.3817 47.1019Z" fill="#FBAA72"/>
<path d="M66.6887 51.6988C67.1068 51.6994 67.5246 51.6949 67.9427 51.6901C71.3521 51.6749 74.6473 52.3418 77.2768 54.6328C77.7326 55.1109 78.0917 55.599 78.4295 56.1653C78.5085 56.2925 78.5875 56.4197 78.6689 56.5507C79.3531 57.8279 79.4 59.1553 79.198 60.5714C78.6134 62.3796 77.6283 63.5397 76.019 64.5045C73.9667 65.522 71.5749 65.4646 69.3997 64.8577C68.4279 64.5172 67.5834 64.0553 66.7333 63.4778C66.2913 63.1916 66.2913 63.1916 65.5573 63.2533C65.12 63.513 65.12 63.513 64.6807 63.864C62.5313 65.4232 60.3315 66.1476 57.6803 65.9353C55.961 65.6563 54.5901 64.7697 53.3695 63.5527C52.3692 61.917 52.2193 60.151 52.493 58.2726C53.229 55.925 54.8088 54.5727 56.923 53.4565C57.6933 53.077 58.4792 52.7958 59.3013 52.5495C59.4224 52.5129 59.5435 52.4763 59.6682 52.4387C61.9614 51.8108 64.3248 51.6917 66.6887 51.6988Z" fill="#060404"/>
<path d="M99.7789 83.2124C100.904 83.4476 101.715 84.0444 102.637 84.709C102.78 84.8073 102.924 84.9056 103.071 85.0069C103.727 85.4977 103.952 85.7182 104.126 86.5409C103.944 87.3698 103.71 87.6646 103.021 88.1572C102.233 88.3077 101.947 88.2075 101.268 87.7741C101.086 87.6477 100.903 87.5212 100.716 87.391C100.462 87.391 100.208 87.391 99.9471 87.391C99.5427 87.801 99.1886 88.2012 98.8303 88.6481C98.6236 88.8969 98.4164 89.1453 98.2089 89.3934C98.1103 89.5124 98.0116 89.6313 97.9099 89.7538C96.8187 91.0518 95.5128 92.0923 94.1834 93.138C94.0028 93.2807 93.8223 93.4235 93.6363 93.5705C92.2712 94.6221 90.8519 95.529 89.3563 96.3806C89.0184 96.5735 88.6829 96.7705 88.3477 96.9679C82.6695 100.172 76.0968 101.706 69.6878 102.573C69.4566 102.604 69.2254 102.635 68.9873 102.667C65.6604 103.093 62.3506 103.145 59.0009 103.147C58.7799 103.148 58.5589 103.148 58.3311 103.148C54.8757 103.146 51.497 103.03 48.074 102.525C47.8798 102.497 47.6856 102.469 47.4855 102.441C39.9158 101.333 31.0249 98.9523 25.2114 93.7127C24.8272 93.138 24.8272 93.138 24.8512 92.4675C25.0193 91.797 25.0193 91.797 25.3435 91.4259C25.9316 91.1564 26.2948 91.1567 26.9405 91.2223C27.3848 91.4781 27.7692 91.7328 28.1773 92.0365C31.6189 94.4478 35.7679 96.56 39.9073 97.4348C40.3891 97.5441 40.3891 97.5441 40.8829 97.7139C45.7439 99.2872 50.9498 99.8701 56.0403 99.875C56.2776 99.8757 56.5149 99.8763 56.7594 99.877C57.2585 99.8779 57.7575 99.8784 58.2565 99.8784C59.0051 99.8788 59.7537 99.8823 60.5023 99.8859C64.5565 99.8954 68.5197 99.662 72.5096 98.9329C72.6479 98.9082 72.7863 98.8835 72.9289 98.858C75.0613 98.475 77.1371 97.9945 79.1889 97.2938C79.5681 97.1656 79.9489 97.0463 80.3318 96.9297C85.281 95.3814 89.6507 92.8171 93.607 89.4982C93.7192 89.4101 93.8314 89.3219 93.947 89.2311C94.7756 88.5793 95.4281 87.8091 96.1046 87.0078C96.2784 86.8037 96.4523 86.5997 96.6262 86.3957C96.9877 85.9711 97.3488 85.5462 97.7091 85.1206C97.7934 85.0216 97.8777 84.9225 97.9646 84.8205C98.1379 84.6132 98.308 84.4031 98.4751 84.1909C99.1164 83.3842 99.1164 83.3842 99.7789 83.2124Z" fill="#070403"/>
<path d="M70 54.7526C71.8488 54.7825 73.8484 55.5844 75.2255 56.7895C75.9571 57.5478 76.1555 58.2019 76.2079 59.2305C76.1765 60.1367 75.9779 60.6516 75.3554 61.3377C74.0221 62.3625 72.7792 62.4638 71.1287 62.2955C69.4252 61.8325 67.7702 60.8625 66.5177 59.6136C65.913 59.5184 65.563 59.4728 64.9808 59.6136C64.5581 59.9526 64.2172 60.3291 63.8543 60.7308C63.175 61.4181 62.3708 61.8453 61.5226 62.2955C61.3165 62.4141 61.1105 62.5326 60.8982 62.6547C59.6476 63.0288 58.2371 63.1453 56.9927 62.6884C56.247 62.2519 55.6697 61.7822 55.3746 60.9546C55.1887 59.7371 55.3256 58.8435 56.0531 57.8401C57.1851 56.5012 58.7993 55.6834 60.5259 55.3752C61.2387 55.3258 61.3262 55.3961 61.9548 55.8421C62.2164 56.0969 62.2164 56.0969 62.4832 56.3569C63.7791 57.012 65.358 56.9156 66.7451 56.6016C67.7935 56.2513 68.5098 55.8739 69.2075 55.016C69.3996 54.8244 69.3996 54.8244 70 54.7526Z" fill="#FAFAFA"/>
<path d="M85.3809 47.0997C86.4637 47.8868 87.178 48.918 87.4589 50.2269C87.6693 51.7788 87.3792 52.9529 86.4983 54.2498C86.042 54.7167 86.042 54.7167 85.5377 55.016C85.3515 55.1267 85.1652 55.2373 84.9734 55.3513C83.7446 55.8312 82.2042 55.8637 80.9786 55.3865C79.7854 54.6551 79.0609 53.6489 78.6213 52.3341C78.4502 50.7331 78.6077 49.4351 79.5819 48.1196C81.1472 46.5749 83.3941 45.9591 85.3809 47.0997Z" fill="#060403"/>
<path d="M46.5491 50.8374C47.5796 51.4715 48.4554 52.3254 48.8425 53.4834C49.073 56.6597 49.073 56.6597 48.074 57.8895C47.1584 58.8732 46.2882 59.3438 44.9295 59.4931C42.6717 59.5357 42.6717 59.5357 41.6604 58.7762C40.5023 57.6131 40.1701 56.4661 40.137 54.8603C40.1512 53.4933 40.301 52.8019 41.2889 51.8214C42.7575 50.502 44.6312 50.0928 46.5491 50.8374Z" fill="#030102"/>
<path d="M65.7492 62.8702C66.2114 63.0984 66.6697 63.3326 67.127 63.5707C68.3082 64.1805 69.4232 64.7404 70.7443 64.9775C70.5541 65.0407 70.3639 65.1039 70.168 65.1691C70.1769 65.2757 70.1858 65.3824 70.195 65.4923C70.2651 66.9712 69.867 67.8929 68.8952 69.0004C68.4389 69.3835 68.4389 69.3835 68.0546 69.3835C68.0546 69.51 68.0546 69.6364 68.0546 69.7667C66.8413 70.3256 65.397 70.435 64.1259 69.9822C62.6678 69.1403 62.0582 67.9364 61.6148 66.3634C61.5225 65.9353 61.5225 65.9353 61.5225 65.3606C61.731 65.2611 61.9395 65.1616 62.1544 65.059C62.4321 64.9242 62.7098 64.7892 62.9874 64.6542C63.1243 64.5891 63.2613 64.5241 63.4024 64.457C64.2958 64.0198 65.0092 63.5347 65.7492 62.8702Z" fill="#FAAA71"/>
<path d="M38.4888 27.5889C39.3938 28.1482 39.8769 29.0329 40.269 29.9925C40.4676 31.1413 40.6301 32.2737 40.0768 33.345C39.548 34.0387 39.276 34.3625 38.4678 34.7099C37.297 34.8584 36.0194 34.9864 34.9856 34.3267C34.0036 33.4588 33.5357 32.1938 33.4268 30.9159C33.4049 30.0107 33.3996 29.3244 33.7608 28.4839C35.1143 27.1344 36.7281 26.8563 38.4888 27.5889Z" fill="#F0743E"/>
<path d="M84.2771 26.1132C84.9266 26.5871 85.2043 26.8797 85.5379 27.6218C85.6288 28.6594 85.6784 29.6919 85.3458 30.6869C85.219 30.6869 85.0922 30.6869 84.9615 30.6869C84.9135 30.8027 84.8655 30.9186 84.816 31.0379C84.5412 31.516 84.3035 31.6873 83.8328 31.968C83.7026 32.0478 83.5723 32.1276 83.4381 32.2097C82.7067 32.5799 82.0774 32.6253 81.2632 32.6146C81.0918 32.6128 80.9204 32.6111 80.7439 32.6093C80.6141 32.6071 80.4843 32.6049 80.3506 32.6026C80.3506 32.4762 80.3506 32.3497 80.3506 32.2195C80.2357 32.172 80.1208 32.1246 80.0024 32.0758C79.4972 31.7879 79.3019 31.5709 79.0057 31.0701C78.9292 30.449 78.9292 30.449 78.9337 29.753C78.9322 29.5244 78.9307 29.2957 78.9292 29.0601C79.0489 28.0094 79.4327 27.2708 80.2545 26.6041C80.3675 26.5101 80.4804 26.416 80.5968 26.319C81.6232 25.6049 83.1432 25.7432 84.2771 26.1132Z" fill="#F0733D"/>
<path d="M52.486 10.8417C53.0998 11.0202 53.2997 11.3913 53.6455 11.9133C54.2323 13.3205 54.4993 14.7893 54.7014 16.2924C54.7971 16.8868 54.9404 17.4422 55.1104 18.0195C55.4095 19.0527 55.5307 19.8751 55.1825 20.9169C55.0557 20.9169 54.9289 20.9169 54.7982 20.9169C54.7982 21.0434 54.7982 21.1698 54.7982 21.3001C53.9994 21.5072 53.5921 21.5594 52.841 21.1923C51.5594 19.9621 51.4577 17.5802 51.232 15.9145C51.1616 15.4516 51.065 15.0305 50.9318 14.5832C50.6684 13.5999 50.6247 12.536 50.7637 11.5301C51.2251 10.8711 51.7007 10.8779 52.486 10.8417Z" fill="#AE6A54"/>
<path d="M64.2124 8.84828C64.7089 9.21137 64.7816 9.40158 64.9809 9.99769C65.0592 11.1879 64.9463 12.382 64.8248 13.5656C64.8113 13.7202 64.7978 13.8748 64.7839 14.0341C64.6827 15.0278 64.4918 15.8167 64.0202 16.7025C63.3119 17.1734 62.936 17.1453 62.099 17.0857C61.5226 16.7025 61.5226 16.7025 61.3305 16.1278C61.2205 14.6808 61.3686 13.2333 61.5106 11.7936C61.5273 11.6233 61.544 11.4529 61.5612 11.2773C61.69 10.047 61.69 10.047 61.9069 9.61455C62.0337 9.61455 62.1605 9.61455 62.2911 9.61455C62.3268 9.43082 62.3268 9.43082 62.3632 9.24339C62.4028 9.113 62.4424 8.98262 62.4833 8.84828C63.0884 8.54656 63.5659 8.71259 64.2124 8.84828Z" fill="#AF6A54"/>
<path d="M48.8423 107.505C49.1182 107.485 49.3945 107.47 49.6709 107.458C49.9016 107.444 49.9016 107.444 50.1369 107.431C50.5714 107.505 50.5714 107.505 50.9106 107.838C51.633 109.16 51.0767 110.961 50.8116 112.367C50.7815 112.533 50.7514 112.699 50.7204 112.871C50.5279 113.819 50.323 114.466 49.6108 115.168C49.0168 115.464 48.536 115.416 47.8817 115.36C47.4134 115.096 47.4134 115.096 47.1132 114.593C46.9263 113.109 47.2841 111.699 47.6536 110.271C47.7037 110.062 47.7539 109.853 47.8055 109.638C47.8557 109.44 47.9058 109.241 47.9575 109.037C48.0028 108.858 48.0481 108.678 48.0947 108.494C48.1795 108.289 48.1795 108.289 48.266 108.08C48.4562 108.017 48.6464 107.954 48.8423 107.889C48.8423 107.762 48.8423 107.636 48.8423 107.505Z" fill="#AE6A53"/>
<path d="M104.75 30.1122C105.218 30.3996 105.218 30.3996 105.519 30.8785C105.58 31.4069 105.554 31.8757 105.519 32.4111C105.392 32.4111 105.265 32.4111 105.134 32.4111C105.091 32.5187 105.047 32.6264 105.002 32.7373C104.679 33.3011 104.275 33.6563 103.789 34.0873C103.619 34.2404 103.449 34.3935 103.273 34.5512C102.829 34.9014 102.829 34.9014 102.445 34.9014C102.445 35.0279 102.445 35.1543 102.445 35.2846C101.658 36.0936 101.028 36.1694 99.947 36.2424C99.947 36.116 99.947 35.9895 99.947 35.8593C99.7568 35.7961 99.5666 35.7328 99.3706 35.6677C99.0505 35.0292 99.0083 34.4333 99.1785 33.752C99.6216 33.1582 100.123 32.6654 100.715 32.2195C100.842 32.2195 100.969 32.2195 101.1 32.2195C101.1 32.0931 101.1 31.9666 101.1 31.8364C101.401 31.5649 101.716 31.3074 102.036 31.0581C102.21 30.9216 102.384 30.785 102.563 30.6443C103.323 30.0793 103.797 30.0303 104.75 30.1122Z" fill="#AE6A54"/>
<path d="M61.2583 107.673C61.4034 107.689 61.5485 107.704 61.6981 107.72C62.0988 107.889 62.0988 107.889 62.4365 108.254C62.7889 109.129 62.7436 109.949 62.7232 110.882C62.7222 111.065 62.7212 111.247 62.7202 111.436C62.7 113.228 62.7 113.228 62.0628 113.863C61.4378 114.265 61.0985 114.278 60.3697 114.21C60.2429 113.958 60.1161 113.705 59.9855 113.444C59.8587 113.444 59.7319 113.444 59.6012 113.444C59.309 112.57 59.3501 111.702 59.337 110.786C59.3299 110.596 59.3227 110.405 59.3153 110.209C59.3042 109.294 59.3001 108.81 59.8384 108.044C60.3985 107.678 60.6064 107.582 61.2583 107.673Z" fill="#AF6B55"/>
<path d="M22.9061 86.6247C23.4824 86.9121 23.4824 86.9121 23.8667 87.391C24.0311 88.2107 24.0522 88.6241 23.6108 89.3366C22.7361 90.3917 21.8604 91.1048 20.4805 91.3421C19.7668 91.2103 19.4609 91.01 19.0456 90.4112C18.7061 89.7516 18.6861 89.459 18.8715 88.7319C19.9925 87.4918 21.1445 86.3582 22.9061 86.6247Z" fill="#090504"/>
<path d="M19.0636 82.027C19.6519 82.4222 19.6519 82.4222 20.0242 82.9849C20.1443 83.6554 20.1443 83.6554 20.0242 84.3259C19.2795 85.3558 18.1414 85.8816 16.9149 86.1375C16.5179 86.1697 16.5179 86.1697 15.7975 86.05C15.1129 85.4669 14.8725 85.103 14.7168 84.2181C14.8722 83.3656 15.1055 83.1193 15.7975 82.6017C16.8101 82.0552 17.9216 81.7998 19.0636 82.027Z" fill="#0B0604"/>
<path d="M92.8386 100.226C94.035 101.07 94.8325 102.62 95.084 104.033C94.9078 104.832 94.6606 105.121 93.9913 105.59C93.3309 105.757 93.3309 105.757 92.6464 105.59C92.1709 105.066 91.8433 104.477 91.4937 103.866C91.2738 103.575 91.2738 103.575 91.0494 103.279C90.6099 102.516 90.519 102.069 90.5331 101.184C91.1634 100.241 91.726 100.028 92.8386 100.226Z" fill="#AE6A54"/>
<path d="M9.84154 37.5834C11.2898 37.4688 12.1058 37.7297 13.2997 38.5412C13.4201 38.6193 13.5405 38.6973 13.6645 38.7777C14.2195 39.1778 14.4368 39.4034 14.5485 40.0857C14.4575 40.6189 14.3794 40.9738 14.0682 41.4147C13.1885 41.7071 12.4541 41.7236 11.5827 41.3908C9.60987 40.1864 9.60987 40.1864 9.26518 39.4991C9.22084 38.4381 9.22084 38.4381 9.4573 37.9665C9.5841 37.9665 9.7109 37.9665 9.84154 37.9665C9.84154 37.8401 9.84154 37.7136 9.84154 37.5834Z" fill="#AE6A54"/>
<path d="M103.898 78.7322C105.418 79.3035 105.418 79.3035 105.903 79.9197C106.026 80.747 105.989 81.1282 105.531 81.8354C104.818 82.2997 104.494 82.2945 103.678 82.1527C102.734 81.8974 101.799 81.5742 101.1 80.8776C101.035 80.3014 100.994 79.9009 101.1 79.345C101.891 78.389 102.756 78.3768 103.898 78.7322Z" fill="#0B0604"/>
<path d="M102.637 53.2919C103.251 53.9048 103.384 54.7021 103.633 55.5188C103.688 55.687 103.743 55.8552 103.8 56.0284C104.175 57.2533 104.311 58.2507 103.801 59.4699C103.734 59.5806 103.667 59.6912 103.597 59.8052C103.526 59.9474 103.455 60.0896 103.381 60.2362C103.298 60.4021 103.298 60.4021 103.213 60.5714C103.023 60.5082 102.833 60.445 102.637 60.3799C102.396 59.659 102.424 58.9868 102.433 58.2367C102.433 58.0931 102.434 57.9495 102.435 57.8016C102.437 57.4477 102.441 57.0939 102.445 56.7401C102.571 56.7401 102.698 56.7401 102.829 56.7401C102.797 56.5978 102.765 56.4556 102.733 56.3091C102.598 55.3025 102.622 54.3057 102.637 53.2919Z" fill="#F2CD86"/>
<path d="M69.3995 118.425C69.5897 118.488 69.7799 118.551 69.9758 118.616C69.9758 118.743 69.9758 118.869 69.9758 119C68.6267 119.298 67.2945 119.49 65.9172 119.598C65.608 119.623 65.608 119.623 65.2926 119.647C61.994 119.874 58.6787 119.798 55.3745 119.766C55.3745 119.639 55.3745 119.513 55.3745 119.383C58.7981 119.383 62.2218 119.383 65.7491 119.383C65.8125 119.193 65.8759 119.003 65.9412 118.808C66.1235 118.812 66.3058 118.816 66.4936 118.82C67.401 118.82 68.3105 118.755 69.2073 118.616C69.2707 118.553 69.3341 118.49 69.3995 118.425Z" fill="#CAA495"/>
<path d="M79.5821 54.4413C80.0881 54.6287 80.5233 54.811 80.969 55.1178C81.6353 55.4686 82.1586 55.4959 82.9082 55.5308C83.1492 55.5434 83.3902 55.556 83.6385 55.569C83.913 55.5797 83.913 55.5797 84.1931 55.5907C83.8088 55.9738 83.8088 55.9738 83.3916 56.0247C82.4174 56.0188 81.6565 55.9326 80.7349 55.5907C80.2222 55.5265 80.2222 55.5265 79.7743 55.5907C79.3341 55.9444 79.3341 55.9444 79.3616 56.4884C79.3698 56.7026 79.3779 56.9168 79.3863 57.1374C79.3918 57.3722 79.3974 57.6069 79.4031 57.8487C79.4183 58.3432 79.4358 58.8376 79.4557 59.3319C79.4853 60.7803 79.4519 61.6112 78.4294 62.6787C78.3026 62.6155 78.1758 62.5523 78.0451 62.4871C78.1145 62.3799 78.1838 62.2728 78.2553 62.1624C79.0741 60.7516 79.215 59.5004 79.0058 57.8895C78.8154 57.2672 78.5608 56.7282 78.2373 56.1654C78.1081 55.9105 77.9797 55.6552 77.853 55.3991C78.0432 55.3991 78.2334 55.3991 78.4294 55.3991C78.4294 55.5256 78.4294 55.652 78.4294 55.7823C78.6196 55.719 78.8098 55.6558 79.0058 55.5907C79.0692 55.401 79.1326 55.2114 79.1979 55.016C79.3247 55.0792 79.4515 55.1424 79.5821 55.2076C79.5821 54.9547 79.5821 54.7018 79.5821 54.4413Z" fill="#EFD090"/>
<path d="M65.7493 62.8702C66.902 63.4449 68.0547 64.0196 69.2075 64.5943C69.0173 64.7208 68.8271 64.8472 68.6311 64.9775C68.5083 64.8906 68.3854 64.8036 68.2589 64.7141C67.3535 64.2351 66.4826 63.9187 65.4521 64.1109C65.0177 64.2475 64.6153 64.3826 64.2123 64.5943C64.1489 64.7208 64.0855 64.8472 64.0202 64.9775C63.6398 64.9775 63.2594 64.9775 62.8674 64.9775C63.4867 64.5114 64.1128 64.0552 64.7406 63.6006C64.9298 63.4635 65.119 63.3265 65.314 63.1853C65.4576 63.0813 65.6013 62.9774 65.7493 62.8702Z" fill="#E8A77C"/>
<path d="M16.7579 18.8097C16.6929 19.4151 16.5762 19.5672 16.0975 19.9711C15.935 20.0936 15.7726 20.216 15.6052 20.3422C15.415 20.6267 15.415 20.6267 15.2209 20.9169C15.0941 20.9169 14.9673 20.9169 14.8367 20.9169C14.8367 21.0434 14.8367 21.1698 14.8367 21.3001C14.7099 21.3001 14.5831 21.3001 14.4525 21.3001C14.4009 21.4067 14.3494 21.5134 14.2964 21.6233C13.5921 22.9909 13.5921 22.9909 12.9155 23.2157C12.9155 23.3422 12.9155 23.4686 12.9155 23.5989C12.7253 23.5989 12.5351 23.5989 12.3391 23.5989C12.6303 22.9275 13.0285 22.4669 13.5279 21.9346C14.2362 21.1669 14.8859 20.3786 15.5076 19.54C15.8721 19.1032 16.1664 18.8097 16.7579 18.8097Z" fill="#C5A291"/>
<path d="M78.045 116.892C77.543 117.226 77.2698 117.356 76.7084 117.502C76.5592 117.541 76.41 117.58 76.2563 117.621C76.0976 117.661 75.939 117.701 75.7756 117.742C75.6131 117.784 75.4506 117.826 75.2832 117.869C71.1887 118.907 71.1887 118.907 70.3601 118.616C70.3601 118.553 70.3601 118.49 70.3601 118.425C70.6421 118.369 70.6421 118.369 70.9297 118.313C71.58 118.184 72.23 118.054 72.8797 117.923C73.1857 117.861 73.4919 117.801 73.798 117.74C74.4828 117.599 74.9589 117.475 75.5474 117.084C76.3794 116.847 77.187 116.878 78.045 116.892Z" fill="#C6A090"/>
<path d="M28.0933 31.2616C28.6696 31.4532 28.6696 31.4532 28.9938 32.0398C29.077 32.2255 29.1603 32.4112 29.246 32.6026C29.6264 32.4761 30.0068 32.3497 30.3987 32.2194C30.2719 32.662 30.1451 33.1045 30.0145 33.5604C30.1413 33.6473 30.2681 33.7343 30.3987 33.8238C30.5255 33.9265 30.6523 34.0293 30.783 34.1351C30.783 34.2615 30.783 34.388 30.783 34.5182C31.2585 34.7079 31.2585 34.7079 31.7436 34.9014C31.7436 35.2807 31.7436 35.66 31.7436 36.0508C30.3029 34.6592 29.0301 33.2365 28.0933 31.4532C28.0933 31.3899 28.0933 31.3267 28.0933 31.2616Z" fill="#EFD094"/>
<path d="M66.7098 99.8429C66.583 100.033 66.4562 100.222 66.3255 100.418C65.8855 100.479 65.8855 100.479 65.3296 100.465C65.1219 100.461 64.9142 100.457 64.7002 100.453C64.4753 100.446 64.2503 100.439 64.0186 100.432C63.7888 100.427 63.5591 100.422 63.3224 100.416C62.5863 100.4 61.8503 100.379 61.1142 100.358C60.6162 100.346 60.1181 100.334 59.62 100.322C58.3969 100.293 57.1739 100.261 55.9509 100.226C55.9509 100.163 55.9509 100.1 55.9509 100.034C57.1744 100.007 58.3978 99.9796 59.6212 99.9526C60.0368 99.9434 60.4523 99.9341 60.8678 99.9247C61.4678 99.9112 62.0677 99.898 62.6677 99.8848C62.9428 99.8785 62.9428 99.8785 63.2235 99.8721C64.3858 99.8469 65.5472 99.8379 66.7098 99.8429Z" fill="#4D3F27"/>
<path d="M22.9058 86.2416C23.9555 86.8022 23.9555 86.8022 24.2507 87.391C24.2787 87.7094 24.2931 88.0292 24.2987 88.3488C24.3037 88.5187 24.3086 88.6886 24.3137 88.8636C24.2929 89.0098 24.2721 89.156 24.2507 89.3066C24.0605 89.4331 23.8703 89.5595 23.6743 89.6898C23.6832 89.5305 23.6921 89.3712 23.7013 89.2071C23.7083 88.9989 23.7152 88.7908 23.7223 88.5763C23.7313 88.3696 23.7402 88.1629 23.7494 87.95C23.728 87.3781 23.728 87.3781 23.3359 87.0325C22.6438 86.6845 22.1394 86.7675 21.3688 86.8163C21.1786 86.8795 20.9884 86.9427 20.7925 87.0078C20.7925 86.8182 20.7925 86.6285 20.7925 86.4331C21.4586 86.101 22.1776 86.1502 22.9058 86.2416Z" fill="#EED098"/>
<path d="M79.7741 21.3C79.8375 21.4897 79.9009 21.6794 79.9662 21.8748C79.3639 22.2306 78.9336 22.2965 78.2371 22.2579C78.2371 22.3843 78.2371 22.5108 78.2371 22.641C77.9835 22.641 77.7299 22.641 77.4686 22.641C77.3914 22.8722 77.3914 22.8722 77.3125 23.108C77.2372 23.27 77.162 23.432 77.0844 23.5989C76.8942 23.6621 76.704 23.7253 76.508 23.7904C76.3812 23.664 76.2544 23.5376 76.1238 23.4073C78.3559 21.3 78.3559 21.3 79.7741 21.3Z" fill="#EBCE8D"/>
<path d="M8.11258 29.5375C8.33324 30.1975 8.32628 30.4156 8.11258 31.07C7.79318 31.4538 7.47294 31.8369 7.15197 32.2194C7.01297 32.5988 6.88249 32.9815 6.76773 33.3688C6.64092 33.4953 6.51412 33.6217 6.38348 33.752C6.24948 34.0043 6.12035 34.2595 5.99924 34.5182C5.87243 34.455 5.74563 34.3918 5.61499 34.3267C7.26234 31.0048 7.26234 31.0048 8.11258 29.5375Z" fill="#C9A495"/>
<path d="M104.75 99.6512C104.813 99.7777 104.877 99.9041 104.942 100.034C104.69 100.537 104.69 100.537 104.366 100.992C104.239 100.992 104.112 100.992 103.981 100.992C103.936 101.1 103.891 101.208 103.845 101.318C103.538 101.863 103.157 102.234 102.709 102.668C102.552 102.822 102.395 102.975 102.233 103.132C102.113 103.248 101.992 103.364 101.868 103.483C101.741 103.419 101.615 103.356 101.484 103.291C101.484 103.165 101.484 103.038 101.484 102.908C101.744 102.653 101.744 102.653 102.096 102.369C103.09 101.546 103.936 100.648 104.75 99.6512Z" fill="#FBF0E8"/>
<path d="M35.826 21.4797C35.9692 21.4806 36.1123 21.4814 36.2598 21.4823C36.6116 21.4846 36.9633 21.488 37.315 21.4917C37.315 21.5549 37.315 21.6181 37.315 21.6833C37.1785 21.6949 37.0421 21.7065 36.9015 21.7184C36.7249 21.7345 36.5483 21.7505 36.3664 21.7671C36.1903 21.7826 36.0142 21.7982 35.8328 21.8142C35.4011 21.8289 35.4011 21.8289 35.2016 22.0664C34.8173 22.1104 34.4329 22.1541 34.0482 22.1951C33.6416 22.241 33.6416 22.241 33.2324 22.4854C33.1214 22.5368 33.0105 22.5882 32.8962 22.6411C32.4639 22.4735 32.4639 22.4735 32.1277 22.258C33.4217 21.6873 34.3957 21.4633 35.826 21.4797Z" fill="#D3B77C"/>
<path d="M109.169 94.0958C109.232 94.2223 109.296 94.3487 109.361 94.479C109.117 94.9395 108.865 95.3769 108.593 95.8199C108.501 95.9898 108.41 96.1597 108.316 96.3348C107.961 96.859 107.553 97.152 107.056 97.544C106.656 97.9785 106.277 98.4286 105.903 98.885C105.903 98.0813 106.254 97.844 106.779 97.2447C107.647 96.2399 108.429 95.1995 109.169 94.0958Z" fill="#FAEFE6"/>
<path d="M108.016 63.6365C108.08 63.6365 108.143 63.6365 108.208 63.6365C108.22 63.8605 108.232 64.0844 108.244 64.3152C108.26 64.6118 108.276 64.9084 108.293 65.2049C108.3 65.3522 108.308 65.4995 108.315 65.6513C108.358 66.4039 108.435 67.1122 108.593 67.851C108.545 68.3658 108.545 68.3658 108.401 68.8088C108.21 68.9352 108.02 69.0617 107.824 69.1919C107.792 67.3325 107.893 65.4906 108.016 63.6365Z" fill="#CA9D8E"/>
<path d="M79.5821 27.2386C79.6455 27.3651 79.7089 27.4915 79.7742 27.6218C79.7108 27.8114 79.6474 28.0011 79.5821 28.1965C79.4425 30.1073 79.4425 30.1073 80.1585 31.8363C80.2219 31.9627 80.2853 32.0891 80.3506 32.2194C79.6961 31.9494 79.3664 31.6798 79.0057 31.07C78.9292 30.4489 78.9292 30.4489 78.9337 29.753C78.9322 29.5243 78.9307 29.2956 78.9292 29.06C79.0116 28.337 79.2193 27.8646 79.5821 27.2386Z" fill="#E47F43"/>
<path d="M89.1881 112.295C88.6001 112.607 88.0116 112.918 87.423 113.229C87.1739 113.361 87.1739 113.361 86.9198 113.496C86.7582 113.581 86.5966 113.666 86.4301 113.754C86.2082 113.871 86.2082 113.871 85.9819 113.991C85.5219 114.218 85.056 114.41 84.5771 114.593C84.8099 113.897 85.1026 113.768 85.7321 113.428C86.2958 113.169 86.8564 113.017 87.459 112.869C87.459 112.743 87.459 112.617 87.459 112.486C88.7558 112.079 88.7558 112.079 89.1881 112.295Z" fill="#C6A393"/>
<path d="M1.58032 73.598C1.70712 73.598 1.83392 73.598 1.96457 73.598C2.42615 74.8692 2.72847 76.1333 2.99272 77.4593C3.06133 77.9823 3.06133 77.9823 3.30942 78.1956C3.31726 78.5787 3.3176 78.962 3.30942 79.345C2.82717 78.8642 2.76791 78.5042 2.59347 77.8484C2.53403 77.6267 2.47459 77.4049 2.41335 77.1764C2.35243 76.9438 2.29151 76.7112 2.22874 76.4715C2.16633 76.2389 2.10392 76.0063 2.03962 75.7666C1.58032 74.0387 1.58032 74.0387 1.58032 73.598Z" fill="#C49F90"/>
<path d="M16.9501 52.5256C17.1669 53.1627 17.1171 53.5068 16.878 54.13C16.6321 54.8075 16.466 55.4476 16.3737 56.1654C16.1201 56.2286 15.8665 56.2919 15.6052 56.357C15.8917 55.0064 16.397 53.7886 16.9501 52.5256Z" fill="#E2C58E"/>
<path d="M56.3353 52.9087C56.9116 53.1003 56.9116 53.1003 57.2959 53.4834C57.1384 53.5735 56.9809 53.6637 56.8186 53.7565C56.6115 53.8758 56.4045 53.9951 56.1912 54.118C55.9861 54.2358 55.7811 54.3535 55.5698 54.4749C55.0949 54.7613 54.657 55.0569 54.2219 55.3991C54.2219 55.2094 54.2219 55.0198 54.2219 54.8244C54.3487 54.8244 54.4755 54.8244 54.6062 54.8244C54.6062 54.6979 54.6062 54.5715 54.6062 54.4412C54.7964 54.4412 54.9866 54.4412 55.1825 54.4412C55.1825 54.3148 55.1825 54.1884 55.1825 54.0581C55.3093 54.0581 55.4361 54.0581 55.5668 54.0581C55.5668 53.8684 55.5668 53.6788 55.5668 53.4834C55.915 53.1482 55.915 53.1482 56.3353 52.9087Z" fill="#E5CB90"/>
<path d="M78.6213 49.0774C78.7481 49.0774 78.8749 49.0774 79.0055 49.0774C78.9587 49.2789 78.9587 49.2789 78.911 49.4845C78.8086 50.0626 78.7879 50.5979 78.7894 51.1846C78.7889 51.3782 78.7884 51.5718 78.7879 51.7713C78.7958 52.3307 78.7958 52.3307 78.935 52.8489C79.0055 53.2919 79.0055 53.2919 78.6213 53.8666C78.1824 52.2488 77.9511 50.6646 78.6213 49.0774Z" fill="#F1D194"/>
<path d="M29.6302 23.5989C29.8204 23.6621 30.0106 23.7253 30.2066 23.7904C30.0238 24.0151 29.8394 24.2383 29.6542 24.4609C29.5004 24.6476 29.5004 24.6476 29.3435 24.8381C29.2479 24.9349 29.1523 25.0317 29.0538 25.1314C28.927 25.1314 28.8002 25.1314 28.6696 25.1314C28.6062 25.4475 28.5428 25.7636 28.4775 26.0893C28.2239 26.1525 27.9703 26.2157 27.709 26.2808C28.0187 25.1828 28.8385 24.3883 29.6302 23.5989Z" fill="#EFD395"/>
<path d="M75.1633 20.1508C75.1633 20.9012 74.9278 21.04 74.4189 21.5755C73.9204 22.102 73.5348 22.5523 73.2421 23.2158C73.05 23.599 72.8579 23.9821 72.6657 24.3652C72.5389 24.3652 72.4121 24.3652 72.2815 24.3652C72.6833 22.6738 73.9136 21.3057 75.1633 20.1508Z" fill="#1E0E0A"/>
<path d="M82.536 25.8617C82.8057 25.8577 82.8057 25.8577 83.0808 25.8535C83.6476 25.9002 84.0631 26.045 84.5773 26.2808C84.5773 26.344 84.5773 26.4072 84.5773 26.4724C84.3715 26.4701 84.1657 26.4679 83.9536 26.4656C83.6852 26.4638 83.4168 26.4621 83.1484 26.4604C83.0125 26.4588 82.8767 26.4572 82.7367 26.4555C82.3896 26.4539 82.0424 26.4624 81.6954 26.4724C81.632 26.5356 81.5686 26.5988 81.5033 26.6639C81.1192 26.6718 80.7347 26.6721 80.3506 26.6639C81.0112 25.9425 81.5799 25.8683 82.536 25.8617Z" fill="#E58145"/>
<path d="M118.199 45.8208C118.965 46.967 119.277 48.6427 119.099 50.0113C119.056 50.2089 119.012 50.4064 118.967 50.61C118.904 50.61 118.84 50.61 118.775 50.61C118.678 50.0275 118.582 49.4448 118.487 48.8619C118.459 48.698 118.432 48.534 118.404 48.3651C118.265 47.5072 118.164 46.6933 118.199 45.8208Z" fill="#CAA194"/>
<path d="M85.5378 94.862C85.0373 95.3611 84.5427 95.5021 83.8808 95.748C83.6524 95.8335 83.4241 95.9189 83.1888 96.0069C83.013 96.0716 82.8371 96.1363 82.656 96.203C82.5292 95.9501 82.4024 95.6973 82.2717 95.4367C82.7804 95.1569 83.0199 95.0536 83.6166 95.0536C83.6166 95.18 83.6166 95.3065 83.6166 95.4367C83.7553 95.3419 83.894 95.2471 84.0369 95.1494C84.6057 94.8469 84.9062 94.808 85.5378 94.862Z" fill="#F0D08F"/>
<path d="M14.0683 64.4028C14.1317 64.4028 14.1951 64.4028 14.2604 64.4028C14.2698 64.6063 14.2792 64.8098 14.2889 65.0194C14.3918 67.0359 14.3918 67.0359 14.8368 69.0005C14.9002 69.0005 14.9636 69.0005 15.0289 69.0005C15.0289 69.3798 15.0289 69.7591 15.0289 70.1499C14.4349 69.6913 14.2722 69.4508 14.1403 68.7011C14.0486 67.8109 14.0468 66.9252 14.0563 66.0312C14.0572 65.8736 14.058 65.7161 14.0589 65.5537C14.0611 65.1701 14.0646 64.7865 14.0683 64.4028Z" fill="#CCB07B"/>
<path d="M86.4986 54.0581C86.6254 54.1213 86.7522 54.1845 86.8828 54.2497C86.6292 54.7554 86.3756 55.2611 86.1143 55.7822C86.0509 55.5926 85.9875 55.4029 85.9222 55.2075C85.6072 55.4031 85.6072 55.4031 85.2858 55.6026C84.9278 55.8249 84.9278 55.8249 84.5773 55.9738C84.3871 55.9106 84.1969 55.8473 84.001 55.7822C84.2687 55.2483 84.6051 55.1719 85.1417 54.9202C85.879 54.5742 85.879 54.5742 86.4986 54.0581Z" fill="#E8A578"/>
<path d="M84.7693 21.4917C86.6126 22.0101 86.6126 22.0101 87.2669 22.8327C86.9226 22.8057 86.5784 22.7775 86.2342 22.7489C86.0425 22.7333 85.8508 22.7177 85.6534 22.7017C85.1535 22.6411 85.1535 22.6411 84.7693 22.4495C84.7693 22.1335 84.7693 21.8174 84.7693 21.4917Z" fill="#EECF90"/>
<path d="M23.0981 89.6897C23.4863 90.0042 23.8705 90.3236 24.2508 90.6475C24.2508 90.7108 24.2508 90.774 24.2508 90.8391C23.8704 90.8391 23.49 90.8391 23.0981 90.8391C23.0347 91.0288 22.9713 91.2184 22.9059 91.4138C22.6523 91.2874 22.3987 91.1609 22.1375 91.0307C22.8819 89.9052 22.8819 89.9052 23.0981 89.6897Z" fill="#C69A7A"/>
<path d="M62.0989 50.993C63.0499 50.993 64.0009 50.993 64.9807 50.993C64.9173 51.1195 64.8539 51.2459 64.7886 51.3762C64.3426 51.4542 63.8939 51.5188 63.4437 51.5677C63.5705 51.6942 63.6973 51.8206 63.828 51.9509C62.7713 52.0211 62.7713 52.0211 62.315 51.6875C62.0989 51.3762 62.0989 51.3762 62.0989 50.993Z" fill="#F2CE83"/>
<path d="M75.9318 64.5944C75.9318 64.7208 75.9318 64.8472 75.9318 64.9775C76.0586 65.0407 76.1854 65.1039 76.316 65.1691C74.727 65.4739 73.3098 65.5979 71.7051 65.3606C71.7051 65.2974 71.7051 65.2342 71.7051 65.1691C71.872 65.1597 72.0389 65.1503 72.2109 65.1406C72.4323 65.1263 72.6537 65.112 72.8818 65.0972C73.2095 65.0772 73.2095 65.0772 73.5438 65.0568C74.3757 64.9567 75.0974 64.5944 75.9318 64.5944Z" fill="#DABF83"/>
<path d="M48.4583 56.9316C48.5851 56.9316 48.7119 56.9316 48.8425 56.9316C48.6225 57.9687 48.393 58.4516 47.4977 59.0389C47.3709 58.9757 47.2441 58.9124 47.1134 58.8473C47.1134 58.9738 47.1134 59.1002 47.1134 59.2305C46.7964 59.2305 46.4794 59.2305 46.1528 59.2305C46.2559 59.1554 46.3589 59.0803 46.465 59.003C47.6796 58.1488 47.6796 58.1488 48.4583 56.9316Z" fill="#DFC58A"/>
<path d="M0.811757 49.4606C0.875157 49.4606 0.938558 49.4606 1.00388 49.4606C1.01426 50.0194 1.02188 50.578 1.02789 51.1368C1.03272 51.3739 1.03272 51.3739 1.03765 51.6157C1.03889 51.7688 1.04013 51.9219 1.0414 52.0797C1.04342 52.2201 1.04543 52.3606 1.0475 52.5053C0.997354 52.9691 0.837814 53.2656 0.619634 53.6751C0.54607 54.0565 0.480145 54.4396 0.427512 54.8245C0.364111 54.8245 0.300711 54.8245 0.235389 54.8245C0.204926 53.5702 0.310278 52.4076 0.523573 51.1727C0.551063 51.0069 0.578553 50.8411 0.606876 50.6702C0.673935 50.2668 0.742669 49.8637 0.811757 49.4606Z" fill="#C5A293"/>
<path d="M39.6206 22.6411C40.1802 22.6575 40.4982 22.7521 40.9017 23.144C41.1885 23.4809 41.4658 23.8218 41.734 24.1737C41.5438 24.1737 41.3536 24.1737 41.1576 24.1737C41.1576 24.0472 41.1576 23.9208 41.1576 23.7905C40.904 23.9802 40.6504 24.1698 40.3891 24.3652C40.2623 24.302 40.1355 24.2388 40.0049 24.1737C40.0683 23.7944 40.1317 23.415 40.197 23.0242C40.0068 23.0242 39.8166 23.0242 39.6206 23.0242C39.6206 22.8978 39.6206 22.7714 39.6206 22.6411Z" fill="#F2D292"/>
<path d="M74.779 101.567C74.779 101.63 74.779 101.693 74.779 101.759C74.2508 101.855 73.7224 101.951 73.1939 102.046C73.0446 102.073 72.8953 102.101 72.7414 102.129C72.5241 102.168 72.5241 102.168 72.3024 102.207C72.1696 102.232 72.0368 102.256 71.8999 102.28C71.5129 102.333 71.5129 102.333 70.7444 102.333C70.7444 102.207 70.7444 102.08 70.7444 101.95C72.0662 101.448 73.3806 101.532 74.779 101.567Z" fill="#1C0B08"/>
<path d="M100.139 87.0078C100.393 87.1342 100.646 87.2607 100.908 87.3909C100.507 87.9899 100.361 88.0467 99.7548 88.3488C99.5646 88.6333 99.5646 88.6333 99.3706 88.9235C99.2438 88.8603 99.117 88.7971 98.9863 88.7319C99.2797 88.0737 99.6778 87.5597 100.139 87.0078Z" fill="#C19689"/>
<path d="M104.75 77.4294C104.75 78.0244 104.646 78.2633 104.366 78.7704C104.049 78.7704 103.732 78.7704 103.405 78.7704C103.469 78.644 103.532 78.5175 103.597 78.3873C103.471 78.2608 103.344 78.1344 103.213 78.0041C103.277 77.8777 103.34 77.7513 103.405 77.621C103.685 77.6269 103.685 77.6269 103.97 77.633C104.534 77.6892 104.534 77.6892 104.75 77.4294Z" fill="#F1CB88"/>
<path d="M48.6503 53.4834C48.7137 53.4834 48.7771 53.4834 48.8424 53.4834C48.9842 56.4996 48.9842 56.4996 48.0739 57.8895C47.9471 57.763 47.8203 57.6366 47.6897 57.5063C47.7808 57.4115 47.872 57.3167 47.9659 57.219C48.3707 56.5732 48.3973 55.9482 48.4582 55.2075C48.4934 54.8881 48.5295 54.5689 48.5663 54.2497C48.5944 53.9943 48.6224 53.7388 48.6503 53.4834Z" fill="#251509"/>
<path d="M30.783 35.093C31.2753 35.4881 31.2753 35.4881 31.7436 36.0509C31.7436 36.7573 31.7436 36.7573 31.5514 37.3918C31.3612 37.5183 31.171 37.6447 30.9751 37.775C30.9784 37.6049 30.9784 37.6049 30.9818 37.4315C30.9911 36.6251 30.9866 35.8799 30.783 35.093Z" fill="#241508"/>
<path d="M92.8386 29.7291C92.902 29.7291 92.9654 29.7291 93.0307 29.7291C93.2274 30.3026 93.3854 30.8458 93.4149 31.4532C92.9586 32.0399 92.9586 32.0399 92.4543 32.4111C92.3275 32.3479 92.2007 32.2846 92.0701 32.2195C92.3237 31.3977 92.5773 30.5759 92.8386 29.7291Z" fill="#BB9483"/>
<path d="M93.4148 109.804C93.0119 110.066 92.6077 110.325 92.202 110.583C92.0877 110.657 91.9734 110.732 91.8557 110.809C91.5519 111 91.235 111.17 90.9172 111.337C90.727 111.274 90.5368 111.21 90.3408 111.145C90.3408 111.019 90.3408 110.892 90.3408 110.762C91.2918 110.478 91.2918 110.478 92.262 110.187C92.262 110.061 92.262 109.935 92.262 109.804C92.7406 109.566 92.9173 109.655 93.4148 109.804Z" fill="#C6A191"/>
<path d="M11.9548 95.8198C12.2718 95.8198 12.5888 95.8198 12.9154 95.8198C13.3105 96.5719 13.6243 97.3075 13.8761 98.1186C13.1219 97.4097 12.5416 96.6724 11.9548 95.8198Z" fill="#C8A190"/>
<path d="M100.716 78.9619C100.906 79.0251 101.096 79.0883 101.292 79.1535C101.283 79.2691 101.274 79.3846 101.265 79.5037C101.2 80.5106 101.2 80.5106 101.676 81.3685C101.803 81.4594 101.93 81.5502 102.06 81.6439C101.743 81.6439 101.426 81.6439 101.1 81.6439C100.734 81.0286 100.673 80.5828 100.691 79.8719C100.697 79.6155 100.697 79.6155 100.702 79.354C100.706 79.2246 100.711 79.0952 100.716 78.9619Z" fill="#E1C58A"/>
<path d="M115.509 37.5834C116.142 37.8991 116.231 38.478 116.47 39.1159C116.47 39.3688 116.47 39.6217 116.47 39.8822C116.28 39.8822 116.089 39.8822 115.893 39.8822C115.791 39.6438 115.691 39.4041 115.593 39.1638C115.537 39.0305 115.482 38.8971 115.424 38.7597C115.302 38.2921 115.355 38.0354 115.509 37.5834Z" fill="#CD9E91"/>
<path d="M91.1093 33.9436C91.3629 33.9436 91.6165 33.9436 91.8778 33.9436C91.8144 34.3229 91.751 34.7022 91.6857 35.093C91.8759 35.2194 92.0661 35.3459 92.2621 35.4761C92.0719 35.5394 91.8817 35.6026 91.6857 35.6677C91.1694 35.3923 91.1694 35.3923 90.7251 35.093C90.8223 34.6775 90.9172 34.3268 91.1093 33.9436Z" fill="#B69282"/>
<path d="M107.824 23.9821C108.393 24.52 108.87 24.975 109.169 25.7062C108.785 25.7062 108.4 25.7062 108.016 25.7062C107.953 25.1372 107.889 24.5683 107.824 23.9821Z" fill="#C99F8D"/>
<path d="M39.1117 4.03811C39.2685 4.14331 39.2685 4.14331 39.4284 4.25063C38.327 4.70991 37.3526 4.93724 36.1624 5.01691C36.6126 4.56792 36.9859 4.42799 37.5793 4.20274C37.763 4.13064 37.9468 4.05853 38.1361 3.98424C38.6599 3.8675 38.6599 3.8675 39.1117 4.03811Z" fill="#C8A393"/>
<path d="M79.1979 58.4642C79.2613 58.4642 79.3247 58.4642 79.39 58.4642C79.5555 61.3135 79.5555 61.3135 78.9097 62.1878C78.7512 62.3498 78.5927 62.5118 78.4294 62.6787C78.3026 62.6155 78.1758 62.5523 78.0452 62.4872C78.1123 62.3733 78.1794 62.2595 78.2485 62.1422C78.9284 60.9074 79.1684 59.8686 79.1979 58.4642Z" fill="#E0C68E"/>
<path d="M41.3496 58.2727C41.6666 58.2727 41.9836 58.2727 42.3102 58.2727C42.3102 58.3991 42.3102 58.5256 42.3102 58.6558C43.1661 58.8455 43.1661 58.8455 44.0393 59.039C44.0393 59.1654 44.0393 59.2918 44.0393 59.4221C42.9141 59.5624 42.2134 59.131 41.3496 58.4643C41.3496 58.4011 41.3496 58.3378 41.3496 58.2727Z" fill="#250D06"/>
<path d="M74.2026 28.005C74.266 28.005 74.3294 28.005 74.3947 28.005C74.4424 28.5676 74.4858 29.1301 74.5268 29.6932C74.5408 29.8528 74.5547 30.0125 74.5692 30.177C74.5797 30.3307 74.5902 30.4844 74.6011 30.6428C74.6121 30.7843 74.6232 30.9257 74.6346 31.0714C74.5731 31.5624 74.3852 31.7192 74.0104 32.0279C73.7568 31.9015 73.5032 31.7751 73.2419 31.6448C73.3658 31.549 73.4896 31.4532 73.6172 31.3544C74.1356 30.7271 74.1383 30.1738 74.1545 29.3939C74.1602 29.2603 74.1659 29.1267 74.1718 28.989C74.1853 28.6611 74.1944 28.3331 74.2026 28.005Z" fill="#CEB57E"/>
<path d="M27.1325 20.917C27.3861 21.0434 27.6397 21.1699 27.901 21.3001C27.7227 21.4463 27.5444 21.5925 27.3606 21.7431C26.9437 22.0891 26.5454 22.4395 26.1719 22.8327C26.2665 21.5831 26.2665 21.5831 26.7603 21.1205C26.9445 21.0198 26.9445 21.0198 27.1325 20.917Z" fill="#BE9381"/>
<path d="M80.5427 3.6759C80.9711 3.82733 81.3993 3.97903 81.8275 4.13088C82.066 4.21533 82.3045 4.29979 82.5502 4.3868C83.1028 4.58681 83.6491 4.79494 84.193 5.01688C84.193 5.08009 84.193 5.14331 84.193 5.20844C83.313 5.32167 82.706 5.00259 81.9311 4.63823C81.4165 4.40238 80.8915 4.225 80.3506 4.05904C80.414 3.9326 80.4774 3.80617 80.5427 3.6759Z" fill="#C39E8E"/>
<path d="M98.6021 105.015C98.7924 105.015 98.9826 105.015 99.1785 105.015C98.9364 105.739 98.6145 105.929 98.0138 106.392C97.8372 106.529 97.6606 106.666 97.4787 106.807C97.3422 106.911 97.2058 107.015 97.0652 107.122C97.0018 106.996 96.9384 106.87 96.873 106.739C96.9364 106.55 96.9998 106.36 97.0652 106.165C97.2157 106.105 97.3663 106.046 97.5215 105.985C98.1007 105.751 98.2418 105.505 98.6021 105.015Z" fill="#C5A091"/>
<path d="M105.326 98.885C105.049 99.5054 104.701 99.9616 104.246 100.465C104.124 100.601 104.003 100.736 103.878 100.876C103.785 100.977 103.693 101.079 103.597 101.184C103.471 101.121 103.344 101.057 103.213 100.992C103.34 100.739 103.467 100.487 103.597 100.226C103.724 100.226 103.851 100.226 103.982 100.226C103.982 100.1 103.982 99.9731 103.982 99.8428C104.851 98.885 104.851 98.885 105.326 98.885Z" fill="#C6A195"/>
<path d="M84.385 99.0765C83.0599 100.046 83.0599 100.046 82.1756 99.9984C81.9379 99.9214 81.9379 99.9214 81.6953 99.8428C82.1591 99.5345 82.5292 99.3342 83.0402 99.1364C83.2363 99.0582 83.2363 99.0582 83.4364 98.9785C83.8087 98.8849 83.8087 98.8849 84.385 99.0765Z" fill="#B48F80"/>
<path d="M25.4035 91.4138C26.0039 91.4857 26.0039 91.4857 26.5563 91.6054C26.5563 91.7318 26.5563 91.8583 26.5563 91.9885C26.4096 92.0004 26.263 92.0122 26.112 92.0244C25.5512 92.1347 25.5512 92.1347 25.2594 92.671C25.1802 92.8251 25.1009 92.9792 25.0193 93.1379C24.9559 93.1379 24.8925 93.1379 24.8271 93.1379C24.9712 91.8448 24.9712 91.8448 25.4035 91.4138Z" fill="#1E110F"/>
<path d="M22.9058 86.2416C23.3981 86.5289 23.3981 86.5289 23.6743 86.8163C23.4841 86.9111 23.4841 86.9111 23.2901 87.0079C23.1633 86.9446 23.0365 86.8814 22.9058 86.8163C21.8286 86.7753 21.8286 86.7753 20.7925 87.0079C20.7925 86.8182 20.7925 86.6286 20.7925 86.4332C21.4516 86.1045 22.1836 86.1648 22.9058 86.2416Z" fill="#D0B682"/>
<path d="M103.981 69.9583C104.427 70.6247 104.374 70.9227 104.255 71.6936C104.162 72.1165 104.02 72.4645 103.789 72.8318C103.595 72.212 103.599 71.715 103.669 71.0717C103.687 70.9031 103.704 70.7344 103.722 70.5606C103.789 70.1498 103.789 70.1498 103.981 69.9583Z" fill="#EDD093"/>
<path d="M104.174 58.6558C104.237 58.6558 104.3 58.6558 104.366 58.6558C104.44 59.1903 104.512 59.725 104.582 60.2601C104.603 60.4123 104.625 60.5644 104.647 60.7211C104.698 61.1165 104.725 61.5146 104.75 61.9124C104.623 62.0388 104.496 62.1653 104.366 62.2955C104.296 61.7968 104.228 61.298 104.162 60.7989C104.132 60.5869 104.132 60.5869 104.101 60.3705C104.016 59.7225 103.964 59.284 104.174 58.6558Z" fill="#E6CB8B"/>
<path d="M111.474 90.6476C111.601 90.7108 111.728 90.774 111.859 90.8392C111.547 91.9407 111.547 91.9407 110.898 92.3717C110.835 92.5613 110.771 92.751 110.706 92.9464C110.31 93.1739 110.31 93.1739 109.938 93.3295C110.192 92.6355 110.503 92.0585 110.922 91.4498C111.026 91.2984 111.129 91.147 111.236 90.9911C111.315 90.8777 111.393 90.7644 111.474 90.6476Z" fill="#FCF1EB"/>
<path d="M20.6004 87.1993C20.6004 87.774 20.6004 87.774 20.1562 88.2769C19.6398 88.7319 19.6398 88.7319 19.0635 88.9234C19.0635 89.3028 19.0635 89.6821 19.0635 90.0729C19.0001 90.0729 18.9367 90.0729 18.8713 90.0729C18.7684 89.5254 18.7206 89.2573 18.8713 88.7319C19.3926 88.1493 19.9792 87.6725 20.6004 87.1993Z" fill="#26140D"/>
<path d="M104.174 77.2378C104.726 77.2139 104.726 77.2139 105.327 77.2378C105.453 77.3642 105.58 77.4907 105.711 77.6209C105.521 77.9054 105.521 77.9054 105.327 78.1956C105.263 78.3853 105.2 78.5749 105.134 78.7703C104.754 78.8336 104.374 78.8968 103.982 78.9619C104.299 78.4562 104.616 77.9504 104.942 77.4294C104.689 77.3662 104.435 77.3029 104.174 77.2378Z" fill="#B78D71"/>
<path d="M99.5627 47.3533C100.146 47.8511 100.42 48.43 100.752 49.1133C100.853 49.3215 100.955 49.5296 101.06 49.7441C101.136 49.9034 101.213 50.0627 101.292 50.2268C101.165 50.2268 101.038 50.2268 100.908 50.2268C100.844 49.9739 100.781 49.721 100.715 49.4605C100.525 49.4605 100.335 49.4605 100.139 49.4605C100.076 49.018 100.012 48.5755 99.947 48.1195C99.8202 48.1195 99.6934 48.1195 99.5627 48.1195C99.5627 47.8667 99.5627 47.6138 99.5627 47.3533Z" fill="#E3C892"/>
<path d="M75.3553 20.1508C74.7847 20.7197 74.2141 21.2887 73.6262 21.8749C73.4994 21.7484 73.3726 21.622 73.2419 21.4917C73.3291 21.4127 73.4163 21.3337 73.5061 21.2523C73.8381 20.9325 73.8381 20.9325 73.9984 20.5099C74.2026 20.1508 74.2026 20.1508 74.5868 19.9951C74.971 19.9592 74.971 19.9592 75.3553 20.1508Z" fill="#C29B8B"/>
<path d="M26.3642 90.4561C26.816 90.6813 27.2177 90.9536 27.637 91.2343C27.7941 91.3392 27.9511 91.4442 28.1128 91.5523C28.2332 91.6331 28.3536 91.7138 28.4776 91.797C28.3508 91.9235 28.224 92.0499 28.0933 92.1802C27.9229 92.0577 27.7526 91.9352 27.577 91.809C26.9997 91.4506 26.6426 91.3001 25.98 91.2223C25.98 91.0959 25.98 90.9695 25.98 90.8392C26.1068 90.8392 26.2336 90.8392 26.3642 90.8392C26.3642 90.7128 26.3642 90.5863 26.3642 90.4561Z" fill="#EBCE90"/>
<path d="M25.7877 59.422C25.9145 59.4852 26.0413 59.5484 26.1719 59.6136C25.8131 60.7097 25.4317 61.793 25.0192 62.8702C24.7902 62.2084 24.8663 61.8061 25.0792 61.1461C25.13 60.9841 25.1807 60.8221 25.2331 60.6552C25.3904 60.224 25.5723 59.827 25.7877 59.422Z" fill="#F7B777"/>
<path d="M59.217 52.9088C58.1892 53.5386 57.3566 53.981 56.1431 54.0582C56.6991 53.6095 57.2327 53.3171 57.8962 53.0525C58.0631 52.9843 58.23 52.9162 58.402 52.8459C58.8328 52.7172 58.8328 52.7172 59.217 52.9088Z" fill="#27180A"/>
<path d="M16.1817 46.2039C16.3719 46.3935 16.5621 46.5832 16.758 46.7786C16.441 47.3475 16.124 47.9165 15.7974 48.5027C15.5781 47.6278 15.704 47.2339 15.9896 46.3954C16.053 46.3322 16.1164 46.269 16.1817 46.2039Z" fill="#BE9481"/>
<path d="M37.3152 27.2387C37.749 27.4325 37.749 27.4325 38.0837 27.6218C35.8701 27.8417 35.8701 27.8417 34.8176 27.8134C35.6636 27.251 36.3028 27.1263 37.3152 27.2387Z" fill="#E78348"/>
<path d="M84.1931 17.6603C84.2565 17.85 84.3199 18.0396 84.3852 18.235C83.1806 18.1718 81.976 18.1086 80.7349 18.0434C80.7349 17.9802 80.7349 17.917 80.7349 17.8519C81.095 17.8193 81.4553 17.7876 81.8156 17.7561C82.0162 17.7383 82.2168 17.7205 82.4234 17.7022C83.0156 17.662 83.5997 17.6532 84.1931 17.6603Z" fill="#AF8B7C"/>
<path d="M19.832 84.3258C20.0785 85.0633 20.0369 85.6567 20.0241 86.433C19.5438 86.0858 19.5438 86.0858 19.0635 85.6668C19.0635 85.0921 19.0635 85.0921 19.4477 84.673C19.5745 84.5584 19.7013 84.4439 19.832 84.3258Z" fill="#EBC88C"/>
<path d="M15.0289 57.8895C15.0923 57.8895 15.1557 57.8895 15.221 57.8895C15.2314 58.2606 15.2388 58.6318 15.245 59.003C15.2494 59.2097 15.2539 59.4164 15.2585 59.6293C15.221 60.1883 15.221 60.1883 14.8367 60.763C14.6089 59.6724 14.7094 58.9574 15.0289 57.8895Z" fill="#D4B882"/>
<path d="M103.213 46.3955C103.467 46.3955 103.72 46.3955 103.982 46.3955C103.918 47.0277 103.855 47.6599 103.789 48.3112C103.388 47.7768 103.103 47.3663 102.829 46.7786C102.956 46.6522 103.082 46.5258 103.213 46.3955Z" fill="#BD9482"/>
<path d="M102.637 44.4797C102.7 45.1751 102.763 45.8705 102.829 46.587C102.368 46.0351 101.969 45.5211 101.676 44.8629C102.421 44.4797 102.421 44.4797 102.637 44.4797Z" fill="#C3988B"/>
<path d="M79.7741 26.2809C79.9643 26.4073 80.1545 26.5338 80.3505 26.664C80.2316 26.7707 80.1127 26.8774 79.9902 26.9873C79.5702 27.443 79.3922 27.8064 79.1977 28.3881C78.9816 28.0649 78.9816 28.0649 78.8135 27.6219C78.9816 27.095 78.9816 27.095 79.1977 26.664C79.3245 26.664 79.4513 26.664 79.582 26.664C79.6454 26.5376 79.7088 26.4111 79.7741 26.2809Z" fill="#FEC781"/>
<path d="M41.926 101.184C44.3602 101.078 44.3602 101.078 45.3842 101.759C44.6206 102.049 44 101.854 43.2229 101.675C42.9801 101.62 42.7374 101.565 42.4874 101.508C42.3021 101.464 42.1169 101.42 41.926 101.375C41.926 101.312 41.926 101.249 41.926 101.184Z" fill="#2C1914"/>
<path d="M88.0355 93.5211C88.1623 93.5843 88.2891 93.6476 88.4197 93.7127C87.2929 94.649 87.2929 94.649 86.6906 94.8621C86.4325 94.8066 86.1758 94.7436 85.9221 94.6705C86.2653 94.4731 86.6097 94.278 86.9548 94.0838C87.1465 93.9749 87.3382 93.866 87.5356 93.7538C87.7006 93.677 87.8655 93.6002 88.0355 93.5211Z" fill="#27190C"/>
<path d="M17.3343 82.0271C16.7606 82.4085 16.259 82.5905 15.6052 82.7933C15.6686 82.4773 15.732 82.1612 15.7973 81.8355C16.4935 81.6041 16.6891 81.7315 17.3343 82.0271Z" fill="#C29D85"/>
<path d="M18.2951 43.3303C18.4853 43.3935 18.6755 43.4568 18.8714 43.5219C18.5296 44.2966 18.027 44.9511 17.5266 45.6291C17.3998 45.5659 17.273 45.5027 17.1423 45.4376C17.1423 45.3111 17.1423 45.1847 17.1423 45.0544C17.2691 45.0544 17.3959 45.0544 17.5266 45.0544C17.5266 44.928 17.5266 44.8016 17.5266 44.6713C17.6534 44.6713 17.7802 44.6713 17.9108 44.6713C18.0376 44.2288 18.1644 43.7863 18.2951 43.3303Z" fill="#BE9A8A"/>
<path d="M22.5216 44.0967C22.6484 44.1599 22.7752 44.2231 22.9059 44.2882C22.8386 44.9093 22.7979 45.1724 22.3175 45.5933C22.1947 45.6684 22.0718 45.7434 21.9453 45.8208C21.9453 45.6311 21.9453 45.4415 21.9453 45.2461C21.8185 45.1829 21.6917 45.1197 21.561 45.0545C21.878 44.7384 22.195 44.4223 22.5216 44.0967Z" fill="#F1D390"/>
<path d="M2.34883 42.9473C2.41223 42.9473 2.47563 42.9473 2.54095 42.9473C2.60435 43.5794 2.66775 44.2116 2.73307 44.8629C2.41607 44.9894 2.09907 45.1158 1.77246 45.2461C1.96266 44.4875 2.15286 43.7289 2.34883 42.9473Z" fill="#CAA294"/>
<path d="M88.804 37.3917C89.7518 37.8427 90.6329 38.3235 91.4937 38.9243C90.9173 39.1158 90.9173 39.1158 90.497 38.9362C90.3821 38.8691 90.2672 38.8019 90.1488 38.7327C90.1488 38.6063 90.1488 38.4798 90.1488 38.3496C89.8952 38.3496 89.6416 38.3496 89.3803 38.3496C89.3803 38.2231 89.3803 38.0967 89.3803 37.9664C89.1901 37.9032 88.9999 37.84 88.804 37.7749C88.804 37.6484 88.804 37.522 88.804 37.3917Z" fill="#E7C993"/>
<path d="M5.23053 34.5183C5.35733 34.5815 5.48413 34.6447 5.61477 34.7099C5.04417 36.0374 5.04417 36.0374 4.46204 37.3918C4.27082 36.6292 4.24893 36.5172 4.52208 35.8473C4.57285 35.7187 4.62362 35.59 4.67593 35.4574C4.84628 35.093 4.84628 35.093 5.23053 34.5183Z" fill="#FDF3EA"/>
<path d="M24.635 31.2616C25.2628 31.5746 25.3491 32.1637 25.5956 32.7941C25.6673 33.0475 25.736 33.3022 25.7877 33.5604C25.5975 33.6236 25.4073 33.6868 25.2114 33.752C25.1139 33.4811 25.0182 33.2096 24.9232 32.9378C24.843 32.7111 24.843 32.7111 24.7611 32.4798C24.635 32.0279 24.635 32.0279 24.635 31.2616Z" fill="#B89386"/>
<path d="M89.1881 92.1801C89.4417 92.1801 89.6953 92.1801 89.9566 92.1801C89.9566 92.3065 89.9566 92.4329 89.9566 92.5632C89.7186 92.7026 89.4779 92.8374 89.2361 92.9703C89.0355 93.0836 89.0355 93.0836 88.8309 93.1993C88.4196 93.3295 88.4196 93.3295 87.9843 93.1603C87.8744 93.0897 87.7644 93.0191 87.6511 92.9463C87.9047 92.9463 88.1583 92.9463 88.4196 92.9463C88.4196 92.8199 88.4196 92.6935 88.4196 92.5632C88.6732 92.5632 88.9268 92.5632 89.1881 92.5632C89.1881 92.4368 89.1881 92.3103 89.1881 92.1801Z" fill="#EDCF91"/>
<path d="M3.50146 79.7283C3.69167 79.8231 3.69167 79.8231 3.88571 79.9198C3.88571 80.1095 3.88571 80.2991 3.88571 80.4945C4.01251 80.4945 4.13931 80.4945 4.26995 80.4945C4.33336 81.1267 4.39676 81.7589 4.46208 82.4102C3.92632 81.6979 3.79883 81.4617 3.65756 80.6382C3.6271 80.4673 3.59664 80.2964 3.56526 80.1204C3.5442 79.991 3.52315 79.8616 3.50146 79.7283Z" fill="#C8A091"/>
<path d="M30.5909 37.9664C30.5909 38.5411 30.5909 38.5411 30.2067 39.1158C29.5102 39.1518 29.5102 39.1518 28.8618 39.1158C29.3507 38.5471 29.9166 38.2802 30.5909 37.9664Z" fill="#E5CA8F"/>
<path d="M88.0354 30.6869C88.289 30.6869 88.5426 30.6869 88.8039 30.6869C88.9307 30.8133 89.0575 30.9398 89.1881 31.07C89.1444 31.6364 89.0705 31.9417 88.6958 32.3751C88.6047 32.4501 88.5135 32.5252 88.4196 32.6026C88.4276 32.4287 88.4355 32.2549 88.4437 32.0758C88.4205 31.4765 88.3444 31.1876 88.0354 30.6869Z" fill="#F0CF90"/>
<path d="M76.1238 98.5019C75.9197 98.7892 75.9197 98.7892 75.5475 99.0766C74.863 99.1365 74.863 99.1365 74.2026 99.0766C74.0758 98.9502 73.949 98.8237 73.8184 98.6935C74.1302 98.624 74.4425 98.5566 74.755 98.4899C74.9288 98.4521 75.1027 98.4144 75.2818 98.3754C75.7396 98.3103 75.7396 98.3103 76.1238 98.5019Z" fill="#221309"/>
<path d="M97.6415 85.2837C97.7049 85.4733 97.7683 85.663 97.8336 85.8584C97.4016 86.4965 96.9339 86.9597 96.2966 87.3909C96.1698 87.3277 96.043 87.2645 95.9124 87.1994C96.483 86.5672 97.0536 85.935 97.6415 85.2837Z" fill="#281808"/>
<path d="M19.6397 81.6439C19.7665 81.8968 19.8933 82.1496 20.024 82.4102C19.4864 82.4102 19.0674 82.3389 18.547 82.2186C18.3141 82.1653 18.3141 82.1653 18.0765 82.1108C17.9584 82.0832 17.8402 82.0555 17.7185 82.027C17.7185 81.9638 17.7185 81.9006 17.7185 81.8355C18.3728 81.6863 18.9688 81.6248 19.6397 81.6439Z" fill="#D7BA81"/>
<path d="M117.814 75.5137C117.998 76.2471 118.004 76.5477 117.862 77.2617C117.816 77.5114 117.816 77.5114 117.769 77.7661C117.622 78.1956 117.622 78.1956 117.046 78.5788C117.3 77.5673 117.553 76.5558 117.814 75.5137Z" fill="#F6E7DC"/>
<path d="M104.942 50.61C105.196 50.6732 105.449 50.7364 105.711 50.8016C105.837 51.4969 105.964 52.1923 106.095 52.9088C105.968 52.9088 105.841 52.9088 105.711 52.9088C105.582 52.5978 105.454 52.2865 105.326 51.9749C105.255 51.8016 105.184 51.6282 105.11 51.4496C104.942 50.9931 104.942 50.9931 104.942 50.61Z" fill="#C09A8A"/>
<path d="M42.3104 51.1846C42.1714 51.3024 42.1714 51.3024 42.0297 51.4226C41.9084 51.5258 41.787 51.6291 41.662 51.7354C41.5416 51.8376 41.4212 51.9399 41.2972 52.0452C41.0504 52.2602 40.813 52.4861 40.5813 52.7172C40.5179 52.4643 40.4545 52.2115 40.3892 51.9509C40.5794 51.9509 40.7696 51.9509 40.9655 51.9509C40.9893 51.8284 41.0131 51.706 41.0376 51.5798C41.0772 51.4494 41.1168 51.319 41.1577 51.1846C41.6362 50.9461 41.8129 51.0358 42.3104 51.1846Z" fill="#DDC38D"/>
<path d="M85.7419 46.8384C85.8647 46.9451 85.9876 47.0518 86.1141 47.1617C86.3043 47.2881 86.4945 47.4145 86.6905 47.5448C86.6271 47.7345 86.5637 47.9241 86.4984 48.1195C86.408 48.0548 86.3176 47.9901 86.2244 47.9234C86.1048 47.838 85.9852 47.7526 85.862 47.6645C85.7438 47.5801 85.6257 47.4956 85.504 47.4086C85.1986 47.1934 84.8883 46.9853 84.5771 46.7785C85.0969 46.5749 85.2581 46.5314 85.7419 46.8384Z" fill="#DFC38B"/>
<path d="M23.8666 42.181C24.0568 42.2442 24.247 42.3075 24.443 42.3726C24.1814 42.586 24.1814 42.586 23.9146 42.8036C23.4234 43.211 22.9653 43.6374 22.5217 44.0967C22.5217 43.522 22.5217 43.522 22.7859 43.1987C23.0981 42.9473 23.0981 42.9473 23.4823 42.9473C23.6091 42.6944 23.7359 42.4416 23.8666 42.181Z" fill="#2D2012"/>
<path d="M88.4198 32.6025C88.4832 32.729 88.5466 32.8554 88.6119 32.9857C88.5448 33.0714 88.4777 33.1571 88.4085 33.2453C87.9032 33.9148 87.5376 34.4249 87.4592 35.2845C87.269 35.2213 87.0788 35.1581 86.8828 35.0929C87.1884 34.118 87.7944 33.3928 88.4198 32.6025Z" fill="#291C0D"/>
<path d="M43.463 29.9207C43.5264 29.9207 43.5898 29.9207 43.6551 29.9207C44.0668 31.3437 44.0668 31.3437 44.2315 32.0279C44.0413 32.1227 44.0413 32.1227 43.8473 32.2195C43.8473 32.093 43.8473 31.9666 43.8473 31.8363C43.7205 31.7731 43.5937 31.7099 43.463 31.6448C43.272 31.004 43.251 30.5548 43.463 29.9207Z" fill="#F3D498"/>
<path d="M10.61 25.7062C10.7368 25.8326 10.8636 25.959 10.9943 26.0893C10.7407 26.5951 10.4871 27.1008 10.2258 27.6219C9.97216 27.5586 9.71856 27.4954 9.45728 27.4303C9.83768 26.8613 10.2181 26.2924 10.61 25.7062Z" fill="#C8A18F"/>
<path d="M88.4196 18.8097C88.5464 18.9361 88.6732 19.0626 88.8039 19.1928C88.7405 19.3193 88.6771 19.4457 88.6117 19.576C88.8019 19.6392 88.9921 19.7024 89.1881 19.7675C89.1247 19.894 89.0613 20.0204 88.996 20.1507C88.0834 19.7915 88.0834 19.7915 87.6511 19.576C87.6511 19.4495 87.6511 19.3231 87.6511 19.1928C87.9047 19.0664 88.1583 18.94 88.4196 18.8097Z" fill="#B9907E"/>
<path d="M74.9712 1.95178C75.7954 2.14143 76.6196 2.33109 77.4688 2.52648C77.4688 2.5897 77.4688 2.65292 77.4688 2.71805C77.1609 2.73879 76.8526 2.75363 76.5442 2.76594C76.3726 2.77483 76.2009 2.78372 76.0241 2.79288C75.5476 2.71805 75.5476 2.71805 74.9712 1.95178Z" fill="#C8A495"/>
<path d="M14.4526 70.3414C14.7385 70.5607 14.7385 70.5607 15.029 70.9161C15.0853 71.4332 15.0853 71.4332 15.065 72.0057C15.0598 72.1961 15.0546 72.3865 15.0492 72.5826C15.0426 72.7281 15.0359 72.8735 15.029 73.0234C14.9656 73.0234 14.9022 73.0234 14.8369 73.0234C14.3957 71.2207 14.3957 71.2207 14.4526 70.3414Z" fill="#E2C98E"/>
<path d="M38.852 115.168C39.169 115.231 39.486 115.295 39.8126 115.36C39.7492 115.486 39.6858 115.613 39.6205 115.743C39.7473 115.806 39.8741 115.869 40.0048 115.934C40.0048 116.061 40.0048 116.187 40.0048 116.318C39.3564 116.213 39.0283 116.116 38.4678 115.743C38.5946 115.616 38.7214 115.49 38.852 115.36C38.852 115.297 38.852 115.233 38.852 115.168Z" fill="#CEA191"/>
<path d="M45.3843 98.6934C46.0183 98.6934 46.6523 98.6934 47.3055 98.6934C47.3055 98.883 47.3055 99.0727 47.3055 99.2681C47.0211 99.2463 46.737 99.2219 46.453 99.1962C46.2947 99.1829 46.1365 99.1696 45.9734 99.1558C45.8424 99.1296 45.7114 99.1035 45.5764 99.0765C45.513 98.9501 45.4496 98.8236 45.3843 98.6934Z" fill="#DABC83"/>
<path d="M14.8367 82.9849C14.9635 82.9849 15.0903 82.9849 15.2209 82.9849C15.0941 83.6803 14.9673 84.3756 14.8367 85.0921C14.7099 85.0289 14.5831 84.9657 14.4525 84.9005C14.4149 83.7407 14.4149 83.7407 14.4525 83.368C14.5793 83.2416 14.7061 83.1151 14.8367 82.9849Z" fill="#BE9789"/>
<path d="M54.6062 64.5944C55.367 64.9737 55.367 64.9737 56.1432 65.3606C55.7589 65.7438 55.7589 65.7438 55.1826 65.9353C54.7292 65.4833 54.7039 65.2114 54.6062 64.5944Z" fill="#EACC92"/>
<path d="M99.5627 41.6063C100.139 41.7979 100.139 41.7979 100.379 42.2529C100.523 42.7557 100.523 42.7557 100.331 43.3304C99.562 42.4886 99.562 42.4886 99.3706 42.181C99.434 41.9914 99.4974 41.8017 99.5627 41.6063Z" fill="#BE9988"/>
<path d="M94.9519 37.5834C95.8885 37.9186 95.8885 37.9186 96.1046 38.3496C96.2948 38.4129 96.485 38.4761 96.681 38.5412C96.6176 38.7309 96.5542 38.9205 96.4889 39.1159C96.2316 38.9338 95.9757 38.7499 95.7204 38.5652C95.5777 38.4629 95.4351 38.3607 95.2881 38.2554C95.1772 38.16 95.0662 38.0647 94.9519 37.9665C94.9519 37.8401 94.9519 37.7136 94.9519 37.5834Z" fill="#B39182"/>
<path d="M114.933 35.8593C115.268 36.361 115.391 36.6329 115.509 37.2002C115.319 37.2951 115.319 37.2951 115.125 37.3918C115.125 37.2021 115.125 37.0125 115.125 36.8171C114.871 36.8171 114.617 36.8171 114.356 36.8171C114.428 36.4459 114.428 36.4459 114.548 36.0508C114.675 35.9876 114.802 35.9244 114.933 35.8593Z" fill="#CA9F8C"/>
<path d="M25.2115 24.1736C25.2749 24.1736 25.3383 24.1736 25.4036 24.1736C25.4422 24.8854 25.4328 25.0878 25.0193 25.7061C24.8845 26.087 24.7554 26.4699 24.6351 26.8555C24.3717 26.1486 24.5198 25.7619 24.8152 25.0835C24.8883 24.9126 24.9613 24.7418 25.0366 24.5657C25.0943 24.4363 25.152 24.3069 25.2115 24.1736Z" fill="#2B1814"/>
<path d="M26.7484 9.99756C26.7484 10.1872 26.7484 10.3769 26.7484 10.5723C26.6216 10.5723 26.4948 10.5723 26.3641 10.5723C26.3007 10.7619 26.2373 10.9516 26.172 11.147C25.7916 11.2102 25.4112 11.2734 25.0193 11.3385C25.5486 10.7716 26.0695 10.3736 26.7484 9.99756Z" fill="#CAA493"/>
<path d="M45.8645 1.92787C45.9596 1.99899 46.0547 2.07011 46.1526 2.14339C45.4181 2.41591 44.8245 2.57258 44.0393 2.52652C43.9759 2.40009 43.9125 2.27365 43.8472 2.14339C45.2659 1.71899 45.2659 1.71899 45.8645 1.92787Z" fill="#C5A092"/>
<path d="M34.8176 114.019C35.5012 114.136 36.1016 114.321 36.7389 114.594C36.6755 114.72 36.6121 114.846 36.5467 114.977C35.9761 114.787 35.4055 114.597 34.8176 114.402C34.8176 114.275 34.8176 114.149 34.8176 114.019Z" fill="#C9A696"/>
<path d="M81.119 100.034C80.9922 100.287 80.8654 100.54 80.7347 100.801C80.2275 100.737 79.7203 100.674 79.1978 100.609C79.8519 100.272 80.3685 100.034 81.119 100.034Z" fill="#B18E7D"/>
<path d="M64.5966 63.2534C64.66 63.4431 64.7234 63.6327 64.7887 63.8281C63.684 64.5944 63.684 64.5944 63.2517 64.5944C63.3785 64.2783 63.5053 63.9622 63.636 63.6366C63.8896 63.6998 64.1432 63.763 64.4044 63.8281C64.4678 63.6385 64.5312 63.4488 64.5966 63.2534Z" fill="#240D06"/>
<path d="M66.9021 63.0619C66.9655 63.1883 67.0289 63.3148 67.0942 63.445C67.2844 63.445 67.4746 63.445 67.6706 63.445C67.6706 63.5715 67.6706 63.6979 67.6706 63.8282C67.9876 63.8282 68.3046 63.8282 68.6312 63.8282C68.6312 64.0178 68.6312 64.2075 68.6312 64.4029C67.7651 64.1619 67.1919 63.8465 66.5178 63.2535C66.6446 63.1902 66.7714 63.127 66.9021 63.0619Z" fill="#33190D"/>
<path d="M42.1182 59.2305C43.0692 59.2937 44.0202 59.3569 45 59.422C45 59.4853 45 59.5485 45 59.6136C44.5919 59.6509 44.1836 59.6865 43.7752 59.7214C43.5479 59.7414 43.3205 59.7614 43.0863 59.782C42.5024 59.8052 42.5024 59.8052 42.1182 59.6136C42.1182 59.4872 42.1182 59.3607 42.1182 59.2305Z" fill="#C89666"/>
<path d="M43.8472 31.0701C44.9884 31.3545 44.9884 31.3545 46.1526 31.6448C46.1526 31.708 46.1526 31.7712 46.1526 31.8363C45.0269 31.9112 45.0269 31.9112 44.6157 31.8363C44.3621 31.5835 44.1085 31.3306 43.8472 31.0701Z" fill="#2C1C0F"/>
<path d="M84.9615 31.07C84.4755 31.6623 83.9578 31.8189 83.2324 32.0279C83.2324 31.9014 83.2324 31.775 83.2324 31.6447C83.3592 31.6447 83.486 31.6447 83.6167 31.6447C83.6801 31.4551 83.7435 31.2654 83.8088 31.07C84.2874 30.8314 84.4641 30.9212 84.9615 31.07Z" fill="#E57B40"/>
<path d="M42.1181 23.2158C42.3083 23.279 42.4985 23.3423 42.6945 23.4074C42.6945 23.597 42.6945 23.7867 42.6945 23.9821C42.7579 24.1085 42.8213 24.235 42.8866 24.3652C42.6964 24.3652 42.5062 24.3652 42.3103 24.3652C42.2469 24.4917 42.1835 24.6181 42.1181 24.7484C41.902 24.4131 41.902 24.4131 41.7339 23.9821C41.902 23.5511 41.902 23.5511 42.1181 23.2158Z" fill="#0F0908"/>
<path d="M99.5627 14.9784C99.8118 15.1568 100.06 15.3367 100.307 15.5172C100.445 15.6172 100.584 15.7172 100.726 15.8202C101.1 16.1278 101.1 16.1278 101.484 16.7025C100.715 16.7025 100.715 16.7025 100.388 16.4226C100.29 16.3016 100.192 16.1806 100.091 16.056C99.991 15.9359 99.891 15.8159 99.7879 15.6923C99.5627 15.3615 99.5627 15.3615 99.5627 14.9784Z" fill="#C29F92"/>
<path d="M36.9309 96.3945C37.5015 96.4577 38.0721 96.521 38.66 96.5861C38.66 96.7758 38.66 96.9654 38.66 97.1608C38.0176 97.054 37.5009 96.9019 36.9309 96.5861C36.9309 96.5229 36.9309 96.4597 36.9309 96.3945Z" fill="#DDC48B"/>
<path d="M94.3754 93.1379C94.0963 93.8715 93.7166 94.1189 93.0305 94.4789C93.0305 94.2893 93.0305 94.0996 93.0305 93.9042C93.8649 93.1379 93.8649 93.1379 94.3754 93.1379Z" fill="#C69A8E"/>
<path d="M8.30467 89.8813C8.36807 90.0078 8.43147 90.1342 8.49679 90.2645C8.62359 90.2645 8.7504 90.2645 8.88104 90.2645C9.45741 91.366 9.45741 91.366 9.45741 91.797C9.33061 91.797 9.2038 91.797 9.07316 91.797C8.75616 91.2281 8.43916 90.6591 8.11255 90.0729C8.17595 90.0097 8.23935 89.9465 8.30467 89.8813Z" fill="#C6A190"/>
<path d="M16.3737 79.3451C16.5005 79.3451 16.6273 79.3451 16.758 79.3451C16.758 79.8508 16.758 80.3566 16.758 80.8776C16.5678 80.8144 16.3776 80.7512 16.1816 80.6861C16.0255 80.3269 16.0255 80.3269 15.9895 79.9198C16.1163 79.7301 16.2431 79.5405 16.3737 79.3451Z" fill="#EFD297"/>
<path d="M64.5965 63.8281C64.6599 64.0178 64.7233 64.2074 64.7887 64.4028C64.5985 64.466 64.4083 64.5293 64.2123 64.5944C64.1489 64.7208 64.0855 64.8473 64.0202 64.9775C63.6398 64.9775 63.2594 64.9775 62.8674 64.9775C63.4208 64.5484 63.9911 64.1803 64.5965 63.8281Z" fill="#DDA17A"/>
<path d="M78.6215 60.9546C78.8136 61.5293 78.8136 61.5293 78.6223 61.9207C78.5309 62.0562 78.4395 62.1918 78.3453 62.3315C78.2544 62.4685 78.1635 62.6056 78.0699 62.7468C77.9983 62.8508 77.9268 62.9547 77.853 63.0618C77.7344 62.7101 77.7344 62.7101 77.6609 62.2956C78.0211 61.7927 78.0211 61.7927 78.4294 61.3377C78.4928 61.2113 78.5562 61.0849 78.6215 60.9546Z" fill="#211309"/>
<path d="M100.715 103.291C100.842 103.417 100.969 103.544 101.1 103.674C100.593 104.053 100.085 104.433 99.5627 104.824C99.5627 104.249 99.5627 104.249 99.8149 103.983C100.115 103.752 100.415 103.522 100.715 103.291Z" fill="#C6A397"/>
<path d="M92.6464 90.2644C92.7732 90.3276 92.9 90.3908 93.0306 90.456C92.7664 90.8391 92.7664 90.8391 92.4542 91.2222C92.3274 91.2222 92.2006 91.2222 92.07 91.2222C92.07 91.3487 92.07 91.4751 92.07 91.6054C91.8164 91.6686 91.5628 91.7318 91.3015 91.7969C91.588 91.0699 92.0233 90.7222 92.6464 90.2644Z" fill="#221409"/>
<path d="M16.3738 77.0463C16.6619 77.2378 16.6619 77.2378 16.9501 77.621C17.0027 78.1417 16.9761 78.628 16.9501 79.1535C16.6165 78.5357 16.3948 77.9058 16.1816 77.2378C16.245 77.1746 16.3084 77.1114 16.3738 77.0463Z" fill="#F2D396"/>
<path d="M106.864 73.598C107.054 73.6612 107.244 73.7245 107.44 73.7896C107.313 74.2321 107.186 74.6746 107.056 75.1306C106.929 75.0041 106.802 74.8777 106.671 74.7474C106.743 74.1488 106.743 74.1488 106.864 73.598Z" fill="#C69C8B"/>
<path d="M86.3063 53.675C86.4331 53.7383 86.5599 53.8015 86.6905 53.8666C85.9941 54.8005 85.9941 54.8005 85.3457 55.016C85.2823 54.8264 85.2189 54.6367 85.1536 54.4413C85.534 54.3149 85.9144 54.1884 86.3063 54.0582C86.3063 53.9317 86.3063 53.8053 86.3063 53.675Z" fill="#281008"/>
<path d="M56.3352 52.9087C56.9116 53.1003 56.9116 53.1003 57.2958 53.4834C56.9154 53.6098 56.535 53.7363 56.1431 53.8665C56.1431 53.1003 56.1431 53.1003 56.3352 52.9087Z" fill="#EFCE87"/>
<path d="M26.9406 35.8593C27.1942 35.9225 27.4478 35.9857 27.7091 36.0508C27.3003 36.4992 26.9184 36.761 26.3642 37.0087C26.2374 36.8822 26.1106 36.7558 25.98 36.6255C26.297 36.4991 26.614 36.3727 26.9406 36.2424C26.9406 36.116 26.9406 35.9895 26.9406 35.8593Z" fill="#B79584"/>
<path d="M101.484 16.894C102.091 17.1565 102.251 17.2751 102.637 17.8519C102.51 17.9783 102.383 18.1048 102.252 18.235C101.868 17.8878 101.868 17.8878 101.484 17.4687C101.484 17.2791 101.484 17.0894 101.484 16.894Z" fill="#C7A091"/>
<path d="M51.1479 118.616C52.2892 118.806 52.2892 118.806 53.4534 119C53.4534 119.063 53.4534 119.126 53.4534 119.191C53.1412 119.196 52.829 119.2 52.5168 119.203C52.256 119.206 52.256 119.206 51.99 119.21C51.5322 119.191 51.5322 119.191 51.1479 119C51.1479 118.873 51.1479 118.747 51.1479 118.616Z" fill="#C4998B"/>
<path d="M73.6263 101.95C73.6263 102.077 73.6263 102.203 73.6263 102.333C72.8613 102.535 72.2849 102.494 71.5129 102.333C71.5129 102.27 71.5129 102.207 71.5129 102.142C72.2285 102.009 72.8983 101.929 73.6263 101.95Z" fill="#B2897E"/>
<path d="M35.5859 99.4597C36.3035 99.5551 36.7026 99.6273 37.315 100.034C36.4591 100.129 36.4591 100.129 35.5859 100.226C35.5859 99.9731 35.5859 99.7202 35.5859 99.4597Z" fill="#BE9787"/>
<path d="M107.632 95.6283C107.759 95.6283 107.886 95.6283 108.016 95.6283C107.788 96.2748 107.579 96.7101 107.056 97.1608C106.929 97.0976 106.802 97.0344 106.671 96.9693C106.936 96.4903 106.936 96.4903 107.248 96.0114C107.375 96.0114 107.501 96.0114 107.632 96.0114C107.632 95.885 107.632 95.7586 107.632 95.6283Z" fill="#C7A393"/>
<path d="M103.021 87.5825C103.148 87.7089 103.274 87.8353 103.405 87.9656C102.874 88.2302 102.455 88.1937 101.868 88.1572C101.741 88.0307 101.615 87.9043 101.484 87.774C102.015 87.5094 102.434 87.5459 103.021 87.5825Z" fill="#20120B"/>
<path d="M13.1077 77.8125C13.5284 78.4417 13.6837 79.0016 13.8762 79.7282C13.686 79.7282 13.4958 79.7282 13.2998 79.7282C13.2364 79.096 13.173 78.4638 13.1077 77.8125Z" fill="#AE8A7C"/>
<path d="M40.5812 52.7172C40.7714 52.7804 40.9616 52.8436 41.1576 52.9087C40.904 53.3513 40.6504 53.7938 40.3891 54.2497C40.2103 53.7505 40.1683 53.552 40.3771 53.0524C40.4445 52.9418 40.5118 52.8311 40.5812 52.7172Z" fill="#221508"/>
<path d="M46.729 50.993C47.3773 51.0979 47.7054 51.1951 48.266 51.5677C48.2026 51.8206 48.1392 52.0735 48.0739 52.334C48.0085 52.1562 48.0085 52.1562 47.9418 51.9748C47.6167 51.4501 47.3068 51.3666 46.729 51.1846C46.729 51.1214 46.729 51.0582 46.729 50.993Z" fill="#D7BD8B"/>
<path d="M25.2114 41.4147C25.4016 41.4779 25.5918 41.5411 25.7878 41.6062C25.7878 41.7959 25.7878 41.9855 25.7878 42.1809C25.4708 42.3074 25.1538 42.4338 24.8271 42.5641C24.9953 41.6302 24.9953 41.6302 25.2114 41.4147Z" fill="#EFCE8B"/>
<path d="M33.8569 32.2195C34.0471 32.3143 34.0471 32.3143 34.2412 32.411C34.2412 32.5375 34.2412 32.6639 34.2412 32.7942C34.368 32.7942 34.4948 32.7942 34.6254 32.7942C34.7522 33.1735 34.879 33.5528 35.0097 33.9436C34.4333 33.752 34.4333 33.752 34.1091 33.297C33.8569 32.7942 33.8569 32.7942 33.8569 32.2195Z" fill="#E37C3F"/>
<path d="M42.3103 24.9399C42.7241 25.4422 42.9636 25.8296 43.0788 26.4725C42.8252 26.4093 42.5716 26.346 42.3103 26.2809C42.237 25.8994 42.1733 25.516 42.1182 25.1315C42.1816 25.0683 42.245 25.0051 42.3103 24.9399Z" fill="#DEC48D"/>
<path d="M11.5707 23.7905C11.6975 23.7905 11.8243 23.7905 11.955 23.7905C11.7029 24.5447 11.3942 24.9835 10.8022 25.5146C10.9033 24.789 11.0676 24.3324 11.5707 23.7905Z" fill="#FCF0E6"/>
<path d="M76.8923 22.6411C77.0191 22.7043 77.1459 22.7675 77.2765 22.8327C77.1497 23.1488 77.0229 23.4649 76.8923 23.7905C76.6387 23.6641 76.3851 23.5376 76.1238 23.4074C76.3774 23.1545 76.631 22.9016 76.8923 22.6411Z" fill="#E3C88A"/>
<path d="M38.0835 21.8748C38.9961 22.0424 38.9961 22.0424 39.4284 22.2579C39.4284 22.3843 39.4284 22.5108 39.4284 22.641C39.0681 22.7608 39.0681 22.7608 38.6599 22.8326C38.2756 22.4495 38.2756 22.4495 38.0835 21.8748Z" fill="#EAD190"/>
<path d="M84.1929 5.20837C84.9445 5.4298 85.5136 5.65958 86.1141 6.16621C85.1535 5.97464 85.1535 5.97464 84.1929 5.78308C84.1929 5.59342 84.1929 5.40377 84.1929 5.20837Z" fill="#C49D8D"/>
<path d="M46.7291 117.85C46.9193 117.977 47.1095 118.103 47.3055 118.233C46.5447 118.17 45.7839 118.107 45 118.042C45.8053 117.64 45.9226 117.603 46.7291 117.85Z" fill="#C9A193"/>
<path d="M78.6215 96.7777C78.8117 96.8409 79.0019 96.9041 79.1979 96.9693C79.1345 97.1589 79.0711 97.3486 79.0058 97.544C78.6888 97.6072 78.3718 97.6704 78.0452 97.7355C78.1172 97.3644 78.1172 97.3644 78.2373 96.9693C78.3641 96.9061 78.4909 96.8428 78.6215 96.7777Z" fill="#EED28F"/>
<path d="M91.3015 90.4561C91.4917 90.5193 91.6819 90.5825 91.8778 90.6476C91.7217 91.0188 91.7217 91.0188 91.4936 91.4139C91.3034 91.4771 91.1132 91.5403 90.9172 91.6055C91.0853 90.6716 91.0853 90.6716 91.3015 90.4561Z" fill="#F0D099"/>
<path d="M19.0635 85.6667C19.3805 85.9196 19.6975 86.1725 20.0241 86.433C19.8973 86.6859 19.7705 86.9388 19.6398 87.1993C19.5764 86.9464 19.513 86.6936 19.4477 86.433C19.3209 86.433 19.1941 86.433 19.0635 86.433C19.0635 86.1801 19.0635 85.9273 19.0635 85.6667Z" fill="#D29E7B"/>
<path d="M52.4927 61.5293C52.8286 62.0317 52.9759 62.2946 53.069 62.8703C53.0056 62.9967 52.9422 63.1231 52.8769 63.2534C52.7501 63.2534 52.6233 63.2534 52.4927 63.2534C52.3238 62.0748 52.3238 62.0748 52.3005 61.7209C52.3639 61.6576 52.4273 61.5944 52.4927 61.5293Z" fill="#E1C386"/>
<path d="M12.9155 52.7172C13.1057 52.7172 13.2959 52.7172 13.4919 52.7172C13.3478 53.8187 13.3478 53.8187 12.9155 54.2497C12.6994 53.1482 12.6994 53.1482 12.9155 52.7172Z" fill="#C59C8C"/>
<path d="M18.6792 49.6521C18.8694 49.7153 19.0596 49.7785 19.2555 49.8437C19.1921 49.9701 19.1287 50.0965 19.0634 50.2268C18.9366 50.2268 18.8098 50.2268 18.6792 50.2268C18.6792 50.3532 18.6792 50.4797 18.6792 50.6099C18.5523 50.6099 18.4255 50.6099 18.2949 50.6099C18.2315 50.7996 18.1681 50.9892 18.1028 51.1846C18.1028 50.8686 18.1028 50.5525 18.1028 50.2268C18.293 50.1636 18.4832 50.1004 18.6792 50.0352C18.6792 49.9088 18.6792 49.7824 18.6792 49.6521Z" fill="#F8D892"/>
<path d="M16.3737 47.1617C16.5298 47.473 16.5298 47.473 16.5658 47.928C16.2838 48.3583 15.959 48.6988 15.6052 49.0774C15.6052 48.2639 15.9544 47.8542 16.3737 47.1617Z" fill="#210F0B"/>
<path d="M74.0104 29.1544C74.0738 29.1544 74.1373 29.1544 74.2026 29.1544C74.2182 29.4296 74.2293 29.7051 74.2386 29.9806C74.2453 30.1339 74.252 30.2873 74.2589 30.4453C74.1907 30.9702 74.0309 31.126 73.6262 31.4532C73.5628 31.2636 73.4994 31.0739 73.4341 30.8785C73.5609 30.7521 73.6877 30.6257 73.8183 30.4954C73.8953 30.0504 73.9604 29.6032 74.0104 29.1544Z" fill="#1B0F01"/>
<path d="M16.3737 18.8097C16.5005 18.8097 16.6273 18.8097 16.758 18.8097C16.7099 19.1689 16.7099 19.1689 16.5659 19.576C16.1696 19.8154 16.1696 19.8154 15.7974 19.9591C16.1576 19.0252 16.1576 19.0252 16.3737 18.8097Z" fill="#C39A8A"/>
<path d="M35.2017 5.40002C35.0096 5.97473 35.0096 5.97473 34.5653 6.21419C34.0171 6.36674 33.8092 6.32366 33.2805 6.16629C33.5282 6.03765 33.7765 5.91015 34.025 5.78316C34.1632 5.71204 34.3014 5.64092 34.4438 5.56765C34.8175 5.40002 34.8175 5.40002 35.2017 5.40002Z" fill="#CBA798"/>
<path d="M20.7925 105.015C21.3688 105.015 21.3688 105.015 21.6353 105.267C21.8667 105.566 22.0981 105.865 22.3295 106.165C21.5741 106.165 21.3373 105.897 20.7925 105.398C20.7925 105.272 20.7925 105.145 20.7925 105.015Z" fill="#C8A396"/>
<path d="M109.553 92.9464C109.68 93.0728 109.807 93.1993 109.937 93.3295C109.62 93.7721 109.303 94.2146 108.977 94.6705C108.85 94.4809 108.723 94.2912 108.593 94.0958C108.783 94.0326 108.973 93.9694 109.169 93.9042C109.403 93.4245 109.403 93.4245 109.553 92.9464Z" fill="#C49F8E"/>
<path d="M111.474 89.8813C111.601 90.0078 111.728 90.1342 111.859 90.2645C111.542 90.707 111.225 91.1495 110.898 91.6055C110.835 91.4158 110.771 91.2262 110.706 91.0308C111.078 90.4201 111.078 90.4201 111.474 89.8813Z" fill="#C5A291"/>
<path d="M24.8271 90.8391C25.2076 90.8391 25.588 90.8391 25.9799 90.8391C25.9165 91.0288 25.8531 91.2184 25.7878 91.4138C25.3915 91.5455 25.3915 91.5455 25.0193 91.6054C24.9559 91.3525 24.8925 91.0996 24.8271 90.8391Z" fill="#F5D494"/>
<path d="M102.252 82.027C102.443 82.1534 102.633 82.2798 102.829 82.4101C102.639 82.663 102.448 82.9159 102.252 83.1764C101.999 83.1132 101.745 83.0499 101.484 82.9848C101.737 82.6687 101.991 82.3526 102.252 82.027Z" fill="#D1A17A"/>
<path d="M105.326 78.7704C105.39 78.8968 105.453 79.0233 105.518 79.1535C105.645 79.2167 105.772 79.28 105.903 79.3451C105.903 79.5347 105.903 79.7244 105.903 79.9198C105.237 79.5405 105.237 79.5405 104.558 79.1535C104.811 79.0271 105.065 78.9007 105.326 78.7704Z" fill="#B18D7F"/>
<path d="M0.811768 69.7667C1.00197 69.8299 1.19217 69.8932 1.38813 69.9583C1.41215 70.509 1.41215 70.509 1.38813 71.1077C1.26133 71.2341 1.13453 71.3606 1.00389 71.4908C0.94049 70.9219 0.877089 70.3529 0.811768 69.7667Z" fill="#CAA190"/>
<path d="M75.7395 64.4028C76.2137 64.6235 76.5172 64.7951 76.8922 65.1691C76.7654 65.2955 76.6386 65.422 76.508 65.5522C76.3178 65.5522 76.1276 65.5522 75.9316 65.5522C75.8682 65.1729 75.8048 64.7936 75.7395 64.4028Z" fill="#F6D183"/>
<path d="M46.345 50.8015C47.6658 51.4959 47.6658 51.4959 47.882 52.1425C47.2408 51.9179 46.7726 51.7232 46.345 51.1846C46.345 51.0582 46.345 50.9318 46.345 50.8015Z" fill="#221208"/>
<path d="M117.622 43.3303C118.007 43.905 118.007 43.905 117.934 44.4199C117.895 44.5661 117.855 44.7122 117.814 44.8629C117.624 44.61 117.434 44.3571 117.238 44.0966C117.365 43.8437 117.492 43.5909 117.622 43.3303Z" fill="#CBA697"/>
<path d="M97.6416 39.8822C98.022 40.0719 98.022 40.0719 98.4101 40.2653C98.4101 40.3918 98.4101 40.5182 98.4101 40.6485C98.6003 40.7117 98.7905 40.7749 98.9865 40.84C98.9231 40.9665 98.8597 41.0929 98.7943 41.2232C98.4022 40.9136 98.018 40.5938 97.6416 40.2653C97.6416 40.1389 97.6416 40.0125 97.6416 39.8822Z" fill="#C69B8C"/>
<path d="M113.78 33.3689C114.162 33.941 114.345 34.4411 114.548 35.093C114.358 35.1878 114.358 35.1878 114.164 35.2846C113.856 34.6126 113.737 34.1077 113.78 33.3689Z" fill="#C6A292"/>
<path d="M29.6303 23.0242C29.7571 23.1506 29.8839 23.277 30.0145 23.4073C29.6975 23.6602 29.3805 23.913 29.0539 24.1736C28.9271 24.0471 28.8003 23.9207 28.6697 23.7904C28.9867 23.5376 29.3037 23.2847 29.6303 23.0242Z" fill="#22150C"/>
<path d="M89.7646 20.3423C90.1609 20.4261 90.1609 20.4261 90.5331 20.5339C90.5965 20.7867 90.6599 21.0396 90.7252 21.3001C90.535 21.3001 90.3448 21.3001 90.1489 21.3001C89.8247 20.917 89.8247 20.917 89.5725 20.5339C89.6359 20.4706 89.6993 20.4074 89.7646 20.3423Z" fill="#BB9485"/>
<path d="M24.0587 11.9133C24.0587 12.103 24.0587 12.2926 24.0587 12.488C23.4823 12.9071 23.4823 12.9071 22.906 13.2543C22.7792 13.1911 22.6524 13.1279 22.5217 13.0627C23.0289 12.6834 23.5361 12.3041 24.0587 11.9133Z" fill="#C9A799"/>
<path d="M33.2806 6.35779C33.2172 6.54744 33.1538 6.73709 33.0885 6.93249C32.5962 7.15998 32.5962 7.15998 32.1279 7.31563C32.0011 7.18919 31.8743 7.06276 31.7437 6.93249C32.8484 6.35779 32.8484 6.35779 33.2806 6.35779Z" fill="#CDA49A"/>
</svg>
