<svg width="120" height="120" viewBox="0 0 120 120" fill="none" xmlns="http://www.w3.org/2000/svg">
<path d="M70.182 1.0146C70.3876 1.0535 70.5933 1.09239 70.8052 1.13246C71.9722 1.35587 73.1332 1.59936 74.2921 1.86057C74.7502 1.96228 75.2091 2.05692 75.6692 2.14892C77.7015 2.56888 79.5683 3.28366 81.4765 4.08967C82.0362 4.32584 82.5991 4.55379 83.1616 4.7832C84.9979 5.55484 86.7862 6.40058 88.5528 7.31952C88.7395 7.41514 88.9262 7.51076 89.1186 7.60927C90.2881 8.21616 91.3837 8.88096 92.4671 9.62853C92.7112 9.79066 92.9556 9.95244 93.2003 10.1138C94.9744 11.3007 96.6388 12.5842 98.2794 13.9476C98.5627 14.1799 98.8518 14.4051 99.1423 14.6287C102.12 16.9293 104.732 19.8023 107.08 22.7289C107.18 22.8538 107.28 22.9787 107.383 23.1074C108 23.8824 108.581 24.6669 109.115 25.5015C109.398 25.9374 109.703 26.3531 110.009 26.7727C110.844 27.9549 111.528 29.215 112.225 30.4799C112.437 30.8583 112.654 31.2326 112.874 31.606C116.084 37.0833 118.103 43.1517 119.219 49.3842C119.248 49.5451 119.277 49.706 119.307 49.8718C119.865 53.2037 120.012 56.5276 119.999 59.9004C119.999 60.1023 119.998 60.3042 119.998 60.5121C119.95 75.2364 114.462 89.5628 104.34 100.358C103.898 100.83 103.469 101.31 103.045 101.798C95.9658 109.915 84.6846 115.916 74.2297 118.266C73.9648 118.326 73.7002 118.387 73.4361 118.45C64.6025 120.531 54.984 120.533 46.1679 118.356C45.9212 118.296 45.9212 118.296 45.6696 118.235C39.4691 116.706 33.2627 114.211 27.9171 110.699C27.799 110.622 27.681 110.545 27.5593 110.466C26.1749 109.565 24.7941 108.661 23.4985 107.636C23.34 107.511 23.1815 107.386 23.0182 107.258C21.9209 106.379 20.8698 105.461 19.8429 104.502C19.4105 104.1 18.9976 103.753 18.5036 103.425C18.5036 103.298 18.5036 103.172 18.5036 103.042C18.3134 102.979 18.1232 102.916 17.9272 102.85C17.6308 102.551 17.6308 102.551 17.3149 102.169C16.8442 101.614 16.3622 101.094 15.838 100.589C14.2737 99.0486 12.9656 97.2568 11.6388 95.513C11.4659 95.2861 11.2919 95.0601 11.1171 94.8346C10.4256 93.9337 9.80919 93.0064 9.22212 92.0352C9.08626 91.8117 9.08626 91.8117 8.94765 91.5837C7.08034 88.4953 5.33642 85.3827 4.0951 81.9856C4.00156 81.736 3.90774 81.4865 3.81369 81.2371C3.74028 81.042 3.74028 81.042 3.66538 80.843C3.52763 80.4777 3.38927 80.1127 3.25086 79.7476C2.14184 76.762 1.34051 73.6938 0.781155 70.5602C0.752149 70.3994 0.723144 70.2386 0.693259 70.0729C0.133662 66.7369 -0.0115106 63.409 0.00069572 60.032C0.001221 59.7292 0.001221 59.7292 0.00175689 59.4203C0.0104516 56.4404 0.09374 53.5306 0.63707 50.5926C0.674124 50.3883 0.711178 50.1841 0.749355 49.9736C1.25219 47.2504 1.79374 44.5204 2.69028 41.8949C2.73883 41.7517 2.78739 41.6085 2.83741 41.461C4.60592 36.3112 6.86959 31.6022 9.82369 27.023C9.98838 26.7631 10.1489 26.5007 10.3068 26.2367C10.3914 26.0963 10.476 25.9558 10.5632 25.8111C10.6397 25.6817 10.7163 25.5523 10.7952 25.419C10.9021 25.2777 10.9021 25.2777 11.0112 25.1336C11.138 25.1336 11.2648 25.1336 11.3954 25.1336C11.4368 25.0018 11.4781 24.8701 11.5207 24.7343C11.8555 24.0131 12.3202 23.4975 12.8483 22.9083C13.0601 22.668 13.2717 22.4275 13.4831 22.1868C13.6387 22.01 13.6387 22.01 13.7974 21.8296C14.1762 21.391 14.532 20.9357 14.8895 20.4797C15.7099 19.4715 16.6134 18.5528 17.531 17.6323C17.6768 17.4853 17.8226 17.3383 17.9728 17.1868C18.1101 17.0508 18.2473 16.9148 18.3888 16.7747C18.5126 16.6517 18.6364 16.5288 18.7639 16.4021C19.0799 16.1368 19.0799 16.1368 19.4641 16.1368C19.4641 16.0105 19.4641 15.8842 19.4641 15.754C19.9377 15.2663 20.4769 14.8466 21.001 14.4141C21.1425 14.2971 21.2839 14.1801 21.4296 14.0596C24.2333 11.7854 27.2019 9.68083 30.3425 7.89378C30.4699 7.82059 30.5973 7.7474 30.7286 7.67199C31.3871 7.30543 31.9682 7.04192 32.7199 6.94864C32.7199 6.82231 32.7199 6.69597 32.7199 6.5658C33.2251 6.337 33.7304 6.1083 34.2358 5.88013C34.599 5.71513 34.9614 5.54855 35.3225 5.37914C37.6538 4.29341 40.0441 3.35865 42.5335 2.70374C43.0797 2.5626 43.0797 2.5626 43.5247 2.36408C44.1461 2.12842 44.758 1.99073 45.4084 1.85281C45.5388 1.82512 45.6691 1.79743 45.8035 1.7689C47.3939 1.43416 48.9889 1.12233 50.5865 0.82318C50.8973 0.7647 50.8973 0.7647 51.2144 0.705038C57.3141 -0.378404 64.1176 -0.164729 70.182 1.0146Z" fill="#FD99CA"/>
<path d="M39.3682 13.7919C42.6581 13.637 45.497 15.1832 47.897 17.2854C48.0367 17.4063 48.1763 17.5272 48.3203 17.6518C51.8551 20.9331 54.3531 25.9486 55.7736 30.4934C55.7736 30.7461 55.7736 30.9988 55.7736 31.2591C55.8886 31.2562 56.0036 31.2533 56.1221 31.2503C57.349 31.2329 58.5229 31.3343 59.736 31.5103C59.9215 31.5365 60.1071 31.5627 60.2982 31.5897C62.0763 31.8459 63.8364 32.1733 65.5968 32.5293C66.0449 32.6197 66.4931 32.7094 66.9415 32.7984C67.39 32.8874 67.8381 32.9781 68.2859 33.0704C68.5956 33.1317 68.5956 33.1317 68.9116 33.1942C69.0963 33.2317 69.2809 33.2691 69.4712 33.3077C70.0315 33.3693 70.4141 33.3447 70.9506 33.1733C71.3 32.9095 71.3 32.9095 71.5937 32.5587C71.7087 32.4319 71.8237 32.3051 71.9422 32.1746C72.0627 32.0383 72.1832 31.902 72.3074 31.7616C72.5656 31.4791 72.8246 31.1972 73.0841 30.9159C73.2114 30.7776 73.3388 30.6393 73.4701 30.4969C77.5417 26.1541 83.2285 22.2103 89.3049 21.6223C91.7817 21.5516 94.0903 22.2207 96.0168 23.8012C97.0383 24.7645 97.7864 25.8013 98.4227 27.0478C98.5286 27.2518 98.5286 27.2518 98.6366 27.4598C101.07 32.7863 100.232 39.9036 98.8069 45.4242C98.706 46.2874 98.7233 46.6451 99.2302 47.3668C99.4226 47.5752 99.618 47.781 99.8155 47.9845C103.996 52.566 106.705 58.0998 107.836 64.1835C107.876 64.3967 107.916 64.6098 107.957 64.8295C108.812 70.1678 108.125 75.5908 106.299 80.6456C106.203 80.9262 106.203 80.9262 106.105 81.2124C105.097 84.0101 103.619 86.6589 101.881 89.0682C101.805 89.1776 101.73 89.2871 101.652 89.3999C99.3433 92.748 96.3785 95.725 93.0436 98.0649C92.9301 98.1451 92.8167 98.2253 92.6998 98.3079C91.8691 98.8898 91.0229 99.4431 90.1619 99.9791C90.0457 100.052 89.9295 100.124 89.8098 100.199C80.6284 105.835 68.6812 107.559 58.0882 106.156C57.723 106.108 57.3569 106.068 56.9908 106.028C45.8965 104.741 34.3914 100.739 25.804 93.4708C25.5802 93.2853 25.3563 93.0999 25.1324 92.9145C24.8918 92.7133 24.6514 92.5119 24.4112 92.3103C24.2999 92.2179 24.1886 92.1255 24.074 92.0303C23.3059 91.378 22.5093 90.6859 21.9617 89.8338C21.9501 89.138 22.0242 88.7296 22.358 88.123C22.9714 87.7878 23.5952 87.7971 24.2671 87.9196C24.7553 88.2111 25.1158 88.5969 25.5038 89.0083C25.7373 89.2391 25.972 89.4686 26.2077 89.697C26.3906 89.8743 26.3906 89.8743 26.5771 90.0553C34.6685 97.5775 47.459 102.482 58.4632 102.85C58.4216 102.652 58.38 102.454 58.3371 102.25C57.4677 97.7361 57.4205 92.6656 59.0396 88.3025C59.102 88.1339 59.1644 87.9654 59.2287 87.7918C60.2146 85.2988 61.4948 82.9992 63.0619 80.8251C63.171 80.6734 63.2801 80.5218 63.3925 80.3655C63.9788 79.5729 63.9788 79.5729 64.2266 79.3057C64.3534 79.3057 64.4802 79.3057 64.6108 79.3057C64.6591 79.1956 64.7074 79.0856 64.7572 78.9722C66.6842 75.4712 71.9338 73.0825 75.5493 71.9958C80.9328 70.5572 86.4623 70.9668 91.3378 73.7089C91.8558 74.0274 92.3553 74.3603 92.8514 74.7116C93.0821 74.8741 93.0821 74.8741 93.3175 75.0399C94.3259 75.7846 95.1513 76.5997 95.9252 77.5829C96.0335 77.7199 96.1417 77.8568 96.2532 77.9979C98.1516 80.547 99.3571 83.4316 99.7675 86.5797C103.246 81.279 105.006 75.4861 105.039 69.1484C105.041 68.9074 105.043 68.6663 105.045 68.418C105.028 66.6819 104.772 65.1024 104.378 63.4178C104.345 63.2697 104.312 63.1216 104.278 62.9691C103.051 57.6747 100.304 53.0769 96.5736 49.1666C96.4231 49.0055 96.2725 48.8444 96.1174 48.6784C95.8975 48.4515 95.8975 48.4515 95.6731 48.22C95.0323 47.2342 95.3816 46.0475 95.5943 44.9494C95.632 44.7501 95.632 44.7501 95.6705 44.5468C95.7502 44.1252 95.8315 43.7039 95.9132 43.2827C96.8699 38.3488 97.8171 32.0693 95.0637 27.5354C94.0879 26.1821 92.943 25.3574 91.3145 24.9422C86.589 24.4155 82.2858 27.1472 78.7311 29.967C76.4762 31.8617 74.3712 33.8788 72.4995 36.1523C72.1032 36.6189 72.1032 36.6189 71.719 36.8103C70.7476 36.7478 69.8607 36.5952 68.9214 36.3437C67.5026 35.9706 66.0664 35.8182 64.6108 35.6618C64.6153 35.8291 64.6197 35.9964 64.6243 36.1687C64.6533 38.1319 64.5107 40.0361 64.2266 41.9787C64.2049 42.1299 64.1832 42.2812 64.1609 42.4371C63.7767 44.9779 62.9664 47.2352 61.9237 49.5795C61.7542 49.9617 61.5914 50.3459 61.4305 50.7317C60.6187 52.5636 59.5254 54.2288 58.3337 55.8339C58.0203 56.2568 57.7231 56.659 57.4951 57.1345C57.254 57.5907 56.9404 57.8396 56.5421 58.1657C56.0507 58.5698 55.7481 58.8619 55.3894 59.3979C55.2626 59.3979 55.1358 59.3979 55.0052 59.3979C55.0052 59.5243 55.0052 59.6506 55.0052 59.7808C54.1463 60.5465 54.1463 60.5465 53.6604 60.5465C53.7988 61.93 53.7988 61.93 54.5369 63.0589C55.387 63.5209 55.9803 63.6343 56.9263 63.4178C57.9454 62.95 58.6634 62.2937 59.3637 61.4318C59.9268 60.7554 59.9268 60.7554 60.6005 60.5943C61.6579 60.8692 62.1133 61.4784 62.6777 62.365C63.2998 63.3364 63.8834 63.8142 64.9951 64.1835C66.2376 64.2902 67.1911 64.079 68.261 63.4178C68.7145 62.7399 68.7552 62.4937 68.6452 61.695C68.4867 61.5094 68.3282 61.3239 68.1649 61.1327C67.6846 60.5465 67.6846 60.5465 67.5766 59.8526C67.6846 59.2065 67.6846 59.2065 67.9848 58.7399C68.637 58.3234 69.0365 58.3344 69.7979 58.4408C70.8624 59.0469 71.5298 60.1723 71.9111 61.3121C72.0746 62.9 71.7425 64.1179 70.7464 65.3679C69.6565 66.5417 68.2016 67.1863 66.6138 67.2918C65.0827 67.3326 63.8344 67.3151 62.4976 66.4805C62.2915 66.3542 62.0855 66.2278 61.8732 66.0977C61.3641 65.7288 60.8702 65.3478 60.3843 64.9491C60.0991 65.1683 60.0991 65.1683 59.808 65.3918C58.1058 66.574 56.4429 66.6665 54.4288 66.4805C52.6539 65.9932 51.6386 64.4355 50.5866 63.0349C50.4098 63.1228 50.2329 63.2106 50.0508 63.3011C48.4097 64.1007 46.804 64.7332 45.0153 65.1406C44.8273 65.1835 44.8273 65.1835 44.6355 65.2273C41.0342 66.0173 37.3987 66.0473 33.8728 64.9491C33.5206 64.869 33.1684 64.7892 32.8161 64.7099C31.065 64.2326 29.226 63.2855 27.7251 62.2692C27.7251 62.1429 27.7251 62.0166 27.7251 61.8864C27.3448 61.7601 26.9644 61.6337 26.5725 61.5036C26.5725 61.3772 26.5725 61.2509 26.5725 61.1207C26.3689 61.0556 26.3689 61.0556 26.1612 60.9891C25.5024 60.6878 25.0273 60.2717 24.5072 59.7808C24.4065 59.6867 24.3058 59.5927 24.202 59.4958C21.6398 57.0755 19.1035 53.9635 17.9274 50.5926C17.9274 50.4031 17.9274 50.2136 17.9274 50.0183C15.5302 52.0667 14.8666 56.475 14.2772 59.3979C14.2433 59.5387 14.2094 59.6795 14.1745 59.8245C14.0558 60.5293 14.0465 61.2275 14.0393 61.9402C14.0375 62.0938 14.0356 62.2474 14.0337 62.4057C14.0289 62.9026 14.0265 63.3994 14.0251 63.8963C14.0246 64.065 14.0241 64.2336 14.0236 64.4074C14.0225 67.6297 14.2893 70.6364 15.4809 73.664C15.6497 74.2303 15.6647 74.6978 15.622 75.2859C15.3218 75.8362 15.3218 75.8362 14.8536 76.243C14.1812 76.3506 14.1812 76.3506 13.5088 76.243C12.0449 75.0965 11.7432 72.5621 11.3475 70.8234C11.3005 70.6179 11.3005 70.6179 11.2526 70.4083C10.2326 65.687 10.5514 60.3968 11.7798 55.7609C11.8219 55.6014 11.864 55.4418 11.9074 55.2773C13.2875 50.2736 16.1996 46.0117 19.6684 42.2179C19.7588 42.1186 19.8491 42.0192 19.9422 41.9169C21.2353 40.525 22.708 39.3838 24.2431 38.2699C24.489 38.0896 24.489 38.0896 24.7399 37.9057C25.9401 37.0296 25.9401 37.0296 26.3803 36.8103C26.3831 36.6602 26.3859 36.5101 26.3888 36.3554C26.5106 30.5015 26.5106 30.5015 27.1488 27.8135C27.1857 27.6569 27.2225 27.5002 27.2605 27.3388C28.0844 23.9559 29.3388 20.765 31.5674 18.0511C31.7932 17.749 31.7932 17.749 32.0237 17.4409C34.0597 15.2673 36.4155 14.0742 39.3682 13.7919Z" fill="#CC9983"/>
<path d="M93.6198 25.7079C95.3627 26.9307 96.2764 29.2345 96.6936 31.2591C97.3773 35.7173 96.7356 40.2252 95.8631 44.6012C95.4083 46.3894 95.4083 46.3894 95.7675 48.1131C95.9287 48.2744 95.9287 48.2744 96.0932 48.4391C96.2782 48.633 96.2782 48.633 96.4669 48.8309C96.6051 48.9701 96.7433 49.1092 96.8857 49.2526C102.035 54.575 105.229 61.6793 105.219 69.1125C105.218 69.2412 105.218 69.3699 105.218 69.5025C105.193 75.3722 103.617 81.8347 99.9595 86.5797C99.8327 86.6428 99.7059 86.706 99.5753 86.7711C99.5564 86.6341 99.5376 86.4972 99.5182 86.3561C98.897 82.2311 97.0528 78.0471 93.6198 75.4773C93.4338 75.3376 93.2478 75.1979 93.0562 75.054C89.7425 72.6367 85.8872 71.3742 81.7808 71.3976C81.5797 71.3987 81.3786 71.3998 81.1713 71.4009C75.0229 71.4957 69.7084 74.0667 65.3792 78.3486C65.1216 78.6665 64.8654 78.9855 64.6107 79.3057C64.4906 79.4216 64.3705 79.5376 64.2467 79.6571C59.8927 84.1161 58.0456 90.4622 58.0188 96.5216C58.0177 96.7552 58.0167 96.9888 58.0155 97.2295C58.0256 98.4755 58.1146 99.6465 58.3788 100.865C58.5034 101.536 58.4888 102.17 58.4631 102.85C56.4107 102.938 54.5663 102.695 52.5676 102.276C52.4222 102.246 52.2768 102.217 52.127 102.186C47.9542 101.329 43.9361 100.128 40.0202 98.4477C39.7258 98.3246 39.4314 98.2015 39.137 98.0784C34.0863 95.9355 29.2886 92.9295 25.3979 89.0457C24.5606 88.2358 24.5606 88.2358 23.4505 88.0153C22.771 88.0775 22.771 88.0775 22.3218 88.2666C21.9616 88.3024 21.9616 88.3024 21.6599 88.1021C21.3671 87.8605 21.0871 87.6036 20.8089 87.3453C20.9053 86.9131 21.0189 86.5409 21.2052 86.137C21.4358 85.4783 21.4625 84.9753 21.3853 84.2826C20.9603 83.7777 20.6948 83.7181 20.0405 83.6366C19.4022 83.7161 19.1804 83.8829 18.6957 84.2826C18.5055 84.2826 18.3153 84.2826 18.1194 84.2826C17.6088 83.6197 17.2454 82.9638 16.9667 82.177C17.1529 82.0862 17.3391 81.9954 17.531 81.9018C18.0818 81.6598 18.0818 81.6598 18.3115 81.4113C18.3572 81.0157 18.3572 81.0157 18.3595 80.5619C18.3644 80.4081 18.3694 80.2544 18.3745 80.096C18.3537 79.9615 18.3329 79.8271 18.3115 79.6885C17.4689 79.1288 16.6312 79.2256 15.6684 79.4036C15.5263 79.4345 15.3841 79.4653 15.2377 79.4971C15.0809 79.1305 14.925 78.7635 14.7694 78.3964C14.6825 78.1921 14.5955 77.9878 14.506 77.7773C14.3271 77.3261 14.1852 76.9072 14.085 76.4344C14.2712 76.3159 14.4574 76.1975 14.6493 76.0754C15.2431 75.7344 15.2431 75.7344 15.4298 75.2858C15.4324 74.9197 15.4324 74.9197 15.3817 74.5082C15.3689 74.3717 15.356 74.2353 15.3427 74.0947C15.2493 73.6218 15.1226 73.2007 14.9667 72.7458C13.9856 69.8787 13.8161 67.0345 13.8088 64.0279C13.8077 63.8694 13.8065 63.7109 13.8053 63.5476C13.7915 60.6798 14.137 58.0096 15.0816 55.2824C15.1671 55.0315 15.1671 55.0315 15.2544 54.7756C15.6497 53.6527 16.1036 52.5696 16.6305 51.5018C16.6937 51.3729 16.7569 51.2439 16.822 51.1111C17.277 50.2343 17.277 50.2343 17.9272 50.0183C18.0045 50.2237 18.0045 50.2237 18.0833 50.4333C19.5813 54.2284 22.603 58.8698 26.2887 60.933C26.4291 61.0259 26.4291 61.0259 26.5723 61.1207C26.5723 61.247 26.5723 61.3734 26.5723 61.5035C26.9527 61.6299 27.3331 61.7562 27.725 61.8864C27.725 62.0127 27.725 62.1391 27.725 62.2692C27.8644 62.3213 28.0039 62.3734 28.1475 62.427C28.669 62.6451 29.1251 62.902 29.6101 63.1904C30.8463 63.869 32.1284 64.2711 33.4797 64.646C33.8524 64.7519 34.2217 64.8693 34.5908 64.9872C37.9663 65.9826 41.6146 65.7257 45.0152 64.9491C45.3662 64.8692 45.3662 64.8692 45.7243 64.7876C47.446 64.3429 49.0016 63.6308 50.5865 62.8435C51.2813 63.5082 51.8166 64.2237 52.1234 65.1405C52.4831 65.3517 52.4831 65.3517 52.8918 65.5234C53.0978 65.6576 53.3039 65.7918 53.5162 65.9301C54.825 66.581 56.6486 66.5226 58.0383 66.1425C58.4585 65.9612 58.8404 65.7598 59.2315 65.5234C59.3643 65.4503 59.497 65.3773 59.6338 65.302C59.9512 65.1263 60.2643 64.9429 60.5763 64.7577C60.6694 64.8455 60.7626 64.9334 60.8585 65.0239C62.6088 66.6203 64.1475 67.1505 66.5011 67.1078C68.0315 67.0382 69.3673 66.5083 70.4829 65.4553C71.4454 64.3552 71.7902 63.2022 71.7737 61.7667C71.6361 60.625 70.9431 59.6579 70.182 58.8236C69.5961 58.5317 69.098 58.5871 68.453 58.6322C68.0527 58.8077 68.0527 58.8077 67.8766 59.2065C67.7484 59.8521 67.7484 59.8521 67.8766 60.5464C68.1929 60.9325 68.513 61.3154 68.8372 61.695C68.9697 62.414 68.9058 62.7209 68.549 63.3579C67.7378 64.1056 66.8386 64.3984 65.7394 64.4466C64.4959 64.3267 63.5436 63.7426 62.6896 62.8435C62.3701 62.3993 62.0736 61.9479 61.786 61.4826C61.562 61.0946 61.562 61.0946 61.1527 60.9293C60.5961 60.8374 60.5961 60.8374 60 60.9293C59.5352 61.3166 59.5352 61.3166 59.1475 61.8385C58.3496 62.7755 57.7595 63.4431 56.5059 63.6929C55.6197 63.7645 55.1149 63.6305 54.4287 63.0588C53.6733 62.3375 53.6733 62.3375 53.6415 61.7054C53.6478 61.3191 53.654 60.9328 53.6603 60.5464C53.7831 60.5267 53.9059 60.507 54.0325 60.4866C54.1632 60.4432 54.294 60.3998 54.4287 60.355C54.4921 60.1655 54.5555 59.976 54.6208 59.7808C54.7476 59.7808 54.8744 59.7808 55.0051 59.7808C55.0051 59.6544 55.0051 59.5281 55.0051 59.3979C55.1318 59.3979 55.2586 59.3979 55.3893 59.3979C55.4408 59.2755 55.4923 59.1531 55.5454 59.027C55.7735 58.6322 55.7735 58.6322 56.3498 58.4408C56.4132 58.3145 56.4766 58.1881 56.542 58.058C56.7341 57.6751 56.7341 57.6751 57.3104 57.4837C57.3774 57.2292 57.4408 56.9738 57.5025 56.718C57.7274 56.3832 57.9652 56.0569 58.2109 55.737C58.8336 54.9042 59.3954 54.0638 59.9174 53.1655C60.0973 52.8596 60.2842 52.5576 60.4788 52.2608C61.3227 50.9559 61.8324 49.5821 62.3465 48.1266C62.5122 47.6817 62.6986 47.248 62.8847 46.8113C63.3175 45.738 63.5567 44.6564 63.7702 43.522C63.8109 43.3101 63.8515 43.0983 63.8934 42.8801C64.3264 40.4908 64.488 38.0839 64.6107 35.6617C66.475 35.7106 68.1454 35.911 69.9313 36.4581C70.5792 36.6221 71.0557 36.7039 71.7189 36.6188C72.4505 36.1499 72.9426 35.5649 73.4719 34.8841C77.5352 29.8385 86.8091 21.6895 93.6198 25.7079Z" fill="#FEFDFD"/>
<path d="M43.909 17.9629C46.9835 19.8956 48.9536 22.9324 50.5864 26.0908C50.6522 26.218 50.7181 26.3453 50.7859 26.4764C51.7292 28.3273 52.4762 30.2235 53.1413 32.1905C53.2009 32.3626 53.2604 32.5347 53.3218 32.712C53.3734 32.8657 53.4249 33.0194 53.4781 33.1778C53.6517 33.6211 53.6517 33.6211 54.2366 33.939C54.6447 34.0139 55.0564 34.0706 55.4688 34.117C55.8456 34.1611 55.8456 34.1611 56.2301 34.2062C56.43 34.2286 56.43 34.2286 56.6339 34.2515C57.3286 34.3297 58.0226 34.4131 58.7167 34.4968C58.8567 34.5137 58.9966 34.5305 59.1409 34.5479C61.1652 34.7954 63.1766 35.13 65.187 35.4704C64.9968 35.5336 64.8066 35.5967 64.6107 35.6618C64.6151 35.8291 64.6196 35.9964 64.6242 36.1688C64.6531 38.1319 64.5106 40.0361 64.2264 41.9787C64.2047 42.13 64.183 42.2813 64.1607 42.4371C63.7766 44.978 62.9662 47.2352 61.9236 49.5796C61.7541 49.9618 61.5912 50.3459 61.4303 50.7317C60.6185 52.5637 59.5252 54.2288 58.3335 55.8339C58.0201 56.2568 57.7229 56.6591 57.495 57.1346C57.2538 57.5908 56.9402 57.8396 56.5419 58.1657C56.0505 58.5698 55.7479 58.8619 55.3892 59.398C55.2624 59.398 55.1356 59.398 55.005 59.398C55.005 59.5243 55.005 59.6507 55.005 59.7808C54.1461 60.5465 54.1461 60.5465 53.6602 60.5465C53.7986 61.93 53.7986 61.93 54.5367 63.0589C55.3868 63.5209 55.9801 63.6344 56.9261 63.4178C57.9452 62.9501 58.6632 62.2938 59.3636 61.4318C59.9267 60.7555 59.9267 60.7555 60.6003 60.5944C61.6577 60.8692 62.1132 61.4784 62.6775 62.365C63.2997 63.3364 63.8832 63.8143 64.9949 64.1835C66.2374 64.2902 67.191 64.0791 68.2608 63.4178C68.7144 62.7399 68.7551 62.4937 68.645 61.695C68.4865 61.5095 68.328 61.3239 68.1647 61.1327C67.6845 60.5465 67.6845 60.5465 67.5764 59.8526C67.6845 59.2066 67.6845 59.2066 67.9846 58.74C68.6368 58.3234 69.0363 58.3344 69.7977 58.4409C70.8622 59.047 71.5296 60.1724 71.9109 61.3122C72.0744 62.9001 71.7423 64.118 70.7463 65.3679C69.6563 66.5417 68.2014 67.1864 66.6136 67.2918C65.0825 67.3326 63.8342 67.3152 62.4974 66.4805C62.2914 66.3542 62.0853 66.2279 61.873 66.0977C61.364 65.7288 60.8701 65.3479 60.3842 64.9492C60.194 65.0953 60.0038 65.2413 59.8078 65.3918C58.1056 66.5741 56.4427 66.6666 54.4287 66.4805C52.6538 65.9932 51.6384 64.4356 50.5864 63.035C50.4096 63.1228 50.2328 63.2107 50.0506 63.3012C48.4096 64.1007 46.8039 64.7332 45.0151 65.1406C44.8271 65.1835 44.8271 65.1835 44.6353 65.2273C41.034 66.0174 37.3985 66.0473 33.8726 64.9492C33.5205 64.869 33.1683 64.7892 32.816 64.7099C31.0648 64.2326 29.2259 63.2855 27.725 62.2693C27.725 62.143 27.725 62.0166 27.725 61.8865C27.1544 61.6969 27.1544 61.6969 26.5723 61.5036C26.5723 61.3773 26.5723 61.2509 26.5723 61.1208C26.3687 61.0556 26.3687 61.0556 26.161 60.9892C25.5022 60.6879 25.0271 60.2717 24.5071 59.7808C24.4063 59.6868 24.3056 59.5927 24.2018 59.4958C21.6396 57.0755 19.1033 53.9636 17.9272 50.5926C17.9272 50.4031 17.9272 50.2136 17.9272 50.0184C17.8004 49.9552 17.6736 49.892 17.543 49.8269C18.7862 47.9274 20.079 46.1872 21.6754 44.5685C21.9547 44.2828 22.2268 43.9916 22.4981 43.6985C24.166 41.929 26.121 40.5885 28.1215 39.2187C28.7957 38.7815 28.7957 38.7815 29.2619 38.1503C29.2847 37.7946 29.2963 37.4381 29.3024 37.0818C29.3074 36.8617 29.3124 36.6417 29.3176 36.415C29.323 36.1783 29.3284 35.9416 29.3339 35.6977C29.5152 29.6306 30.5048 23.2671 35.0253 18.8168C37.6519 16.4393 40.8975 16.2189 43.909 17.9629Z" fill="#FDAF80"/>
<path d="M39.3682 13.7919C42.6581 13.637 45.497 15.1832 47.897 17.2854C48.0367 17.4063 48.1763 17.5272 48.3203 17.6518C51.8551 20.9331 54.3531 25.9486 55.7736 30.4934C55.7736 30.7461 55.7736 30.9988 55.7736 31.2591C55.8886 31.2562 56.0036 31.2533 56.1221 31.2503C57.349 31.2329 58.5229 31.3343 59.736 31.5103C59.9215 31.5365 60.1071 31.5627 60.2982 31.5897C62.0763 31.8459 63.8364 32.1733 65.5968 32.5293C66.0449 32.6197 66.4931 32.7094 66.9415 32.7984C67.39 32.8874 67.8381 32.9781 68.2859 33.0704C68.5956 33.1317 68.5956 33.1317 68.9116 33.1942C69.0963 33.2317 69.2809 33.2691 69.4712 33.3077C70.0315 33.3693 70.4141 33.3447 70.9506 33.1733C71.3 32.9095 71.3 32.9095 71.5937 32.5587C71.7087 32.4319 71.8237 32.3051 71.9422 32.1746C72.0627 32.0383 72.1832 31.902 72.3074 31.7616C72.5656 31.4791 72.8246 31.1972 73.0841 30.9159C73.2114 30.7776 73.3388 30.6393 73.4701 30.4969C77.5417 26.1541 83.2285 22.2103 89.3049 21.6223C91.7817 21.5516 94.0903 22.2207 96.0168 23.8012C97.0383 24.7645 97.7864 25.8013 98.4227 27.0478C98.5286 27.2518 98.5286 27.2518 98.6366 27.4598C101.07 32.7863 100.232 39.9036 98.8069 45.4242C98.706 46.2874 98.7233 46.6451 99.2302 47.3668C99.4226 47.5752 99.618 47.781 99.8155 47.9845C103.996 52.566 106.705 58.0998 107.836 64.1835C107.876 64.3967 107.916 64.6098 107.957 64.8295C108.812 70.1678 108.125 75.5908 106.299 80.6456C106.203 80.9262 106.203 80.9262 106.105 81.2124C105.097 84.0101 103.619 86.6589 101.881 89.0682C101.805 89.1776 101.73 89.2871 101.652 89.3999C99.3433 92.748 96.3785 95.725 93.0436 98.0649C92.9301 98.1451 92.8167 98.2253 92.6998 98.3079C91.8691 98.8898 91.0229 99.4431 90.1619 99.9791C90.0457 100.052 89.9295 100.124 89.8098 100.199C80.6284 105.835 68.6812 107.559 58.0882 106.156C57.723 106.108 57.3569 106.068 56.9908 106.028C45.8965 104.741 34.3914 100.739 25.804 93.4708C25.5802 93.2853 25.3563 93.0999 25.1324 92.9145C24.8918 92.7133 24.6514 92.5119 24.4112 92.3103C24.2999 92.2179 24.1886 92.1255 24.074 92.0303C23.3059 91.378 22.5093 90.6859 21.9617 89.8338C21.9501 89.138 22.0242 88.7296 22.358 88.123C22.9714 87.7878 23.5952 87.7971 24.2671 87.9196C24.7553 88.2111 25.1158 88.5969 25.5038 89.0083C25.7373 89.2391 25.972 89.4686 26.2077 89.697C26.3906 89.8743 26.3906 89.8743 26.5771 90.0553C34.1208 97.0683 44.4921 100.545 54.4168 102.42C54.6166 102.458 54.8164 102.496 55.0223 102.535C58.2778 103.126 61.4855 103.311 64.7909 103.305C64.9891 103.305 65.1873 103.305 65.3915 103.305C68.5303 103.299 71.5204 103.106 74.6007 102.468C74.9566 102.402 75.3126 102.336 75.6686 102.271C85.0912 100.442 94.0149 94.9954 99.4613 87.0635C101.135 84.563 102.463 81.9662 103.418 79.1143C103.483 78.9196 103.483 78.9196 103.55 78.7211C104.596 75.571 105.005 72.5242 105.027 69.2083C105.029 68.9636 105.032 68.7189 105.035 68.4668C105.026 66.7093 104.779 65.1221 104.378 63.4178C104.345 63.2698 104.312 63.1218 104.277 62.9693C103.052 57.675 100.303 53.0764 96.5736 49.1666C96.4231 49.0055 96.2725 48.8444 96.1174 48.6784C95.8975 48.4515 95.8975 48.4515 95.6731 48.22C95.0323 47.2342 95.3816 46.0475 95.5943 44.9494C95.632 44.7501 95.632 44.7501 95.6705 44.5468C95.7502 44.1252 95.8315 43.7039 95.9132 43.2827C96.8699 38.3488 97.8171 32.0693 95.0637 27.5354C94.0879 26.1821 92.943 25.3574 91.3145 24.9422C86.589 24.4155 82.2858 27.1472 78.7311 29.967C76.4762 31.8617 74.3712 33.8788 72.4995 36.1523C72.1032 36.6189 72.1032 36.6189 71.719 36.8103C70.7841 36.7502 69.9313 36.6124 69.0294 36.3646C67.2509 35.9145 65.4375 35.6575 63.6263 35.3746C63.248 35.3145 62.8698 35.2543 62.4915 35.1941C60.8647 34.9381 59.2399 34.6891 57.601 34.5237C57.3706 34.5004 57.1402 34.4771 56.9028 34.453C56.4916 34.4147 56.08 34.3802 55.6681 34.3506C54.855 34.2783 54.3596 34.2126 53.6731 33.7535C53.1386 32.9722 52.8706 32.1782 52.5798 31.283C50.9797 26.6531 48.5866 21.1603 44.2469 18.4339C44.0497 18.3093 43.8526 18.1847 43.6495 18.0563C41.7691 16.9902 40.0453 16.7214 37.9161 17.2293C34.882 18.3189 33.0703 20.9781 31.7522 23.7655C30.8356 25.8043 30.3848 27.9192 30.0305 30.1106C29.9931 30.3087 29.9557 30.5068 29.9172 30.711C29.7201 31.8535 29.6351 32.9578 29.6072 34.1162C29.6013 34.3559 29.5954 34.5955 29.5893 34.8424C29.5794 35.327 29.573 35.8117 29.5704 36.2964C29.5662 36.5215 29.562 36.7466 29.5577 36.9785C29.5561 37.181 29.5546 37.3835 29.5529 37.5921C29.4009 38.4511 28.9436 38.9253 28.2429 39.4199C28.08 39.5142 27.917 39.6084 27.7492 39.7055C23.1044 42.5705 19.5056 46.5718 16.9668 51.3583C16.872 51.5317 16.7771 51.7052 16.6794 51.8839C15.4214 54.262 14.8043 56.7838 14.2772 59.3979C14.2433 59.5387 14.2094 59.6795 14.1745 59.8245C14.0558 60.5293 14.0465 61.2275 14.0393 61.9402C14.0375 62.0938 14.0356 62.2474 14.0337 62.4057C14.0289 62.9026 14.0265 63.3994 14.0251 63.8963C14.0246 64.065 14.0241 64.2336 14.0236 64.4074C14.0225 67.6297 14.2893 70.6364 15.4809 73.664C15.6497 74.2303 15.6647 74.6978 15.622 75.2859C15.3218 75.8362 15.3218 75.8362 14.8536 76.243C14.1812 76.3506 14.1812 76.3506 13.5088 76.243C12.0449 75.0965 11.7432 72.5621 11.3475 70.8234C11.3005 70.6179 11.3005 70.6179 11.2526 70.4083C10.2326 65.687 10.5514 60.3968 11.7798 55.7609C11.8219 55.6014 11.864 55.4418 11.9074 55.2773C13.2875 50.2736 16.1996 46.0117 19.6684 42.2179C19.7588 42.1186 19.8491 42.0192 19.9422 41.9169C21.2353 40.525 22.708 39.3838 24.2431 38.2699C24.489 38.0896 24.489 38.0896 24.7399 37.9057C25.9401 37.0296 25.9401 37.0296 26.3803 36.8103C26.3831 36.6602 26.3859 36.5101 26.3888 36.3554C26.5106 30.5015 26.5106 30.5015 27.1488 27.8135C27.1857 27.6569 27.2225 27.5002 27.2605 27.3388C28.0844 23.9559 29.3388 20.765 31.5674 18.0511C31.7932 17.749 31.7932 17.749 32.0237 17.4409C34.0597 15.2673 36.4155 14.0742 39.3682 13.7919Z" fill="#070405"/>
<path d="M41.9631 24.288C43.7635 25.0752 44.9529 26.6741 45.7836 28.3878C45.8619 28.5329 45.9401 28.678 46.0208 28.8275C48.0014 32.5552 48.0014 32.5552 47.7047 34.5133C47.046 35.5497 45.3843 35.6715 44.2707 35.925C43.0435 36.2075 41.8301 36.5084 40.6206 36.8582C39.2258 37.2355 37.8184 37.4401 36.3701 37.3846C35.7937 37.0017 35.7937 37.0017 35.6016 36.4275C35.4147 33.5354 35.3384 30.5569 36.3701 27.8135C36.4397 27.6285 36.5093 27.4434 36.581 27.2527C37.5527 25.0406 39.5121 23.6153 41.9631 24.288Z" fill="#ED7677"/>
<path d="M89.0813 33.1853C90.2543 34.0479 90.9354 35.0251 91.3146 36.4275C91.3906 37.0085 91.3971 37.5769 91.3866 38.1622C91.3848 38.3205 91.383 38.4789 91.3811 38.642C91.3131 41.4465 90.5515 44.1075 89.2013 46.5728C88.6058 46.8695 88.1318 46.8135 87.4723 46.7642C86.8202 46.4763 86.8202 46.4763 86.1635 46.0823C85.9868 45.9773 85.9868 45.9773 85.8065 45.8701C84.9842 45.3752 84.1992 44.8371 83.4222 44.2742C82.5049 43.6502 81.5451 43.093 80.5861 42.5351C80.4418 42.4495 80.2974 42.3638 80.1488 42.2755C80.0191 42.1998 79.8895 42.1242 79.7559 42.0462C79.3463 41.7451 79.0975 41.4507 78.8272 41.0216C78.7122 40.1941 78.7585 39.7979 79.1867 39.0737C79.3475 38.8707 79.512 38.6706 79.6797 38.4733C79.8109 38.3125 79.8109 38.3125 79.9447 38.1486C80.2093 37.8272 80.4785 37.5101 80.7484 37.1932C80.8908 37.0197 81.0332 36.8462 81.1799 36.6675C83.2062 34.2928 85.8052 32.1576 89.0813 33.1853Z" fill="#ED7678"/>
<path d="M52.7718 57.3881C53.4682 57.4838 53.4682 57.4838 54.0446 57.8786C54.4288 58.4409 54.4288 58.4409 54.4168 59.1348C54.2367 59.7808 54.2367 59.7808 53.8525 60.3551C53.7122 61.223 53.7338 61.8863 54.2007 62.6402C54.9596 63.3532 55.4401 63.5277 56.452 63.5016C57.7123 63.279 58.5869 62.3878 59.3637 61.4318C59.9268 60.7555 59.9268 60.7555 60.6004 60.5944C61.6579 60.8692 62.1133 61.4784 62.6776 62.365C63.2998 63.3364 63.8834 63.8143 64.995 64.1835C66.2376 64.2902 67.1911 64.0791 68.2609 63.4178C68.7145 62.7399 68.7552 62.4937 68.6452 61.695C68.4867 61.5095 68.3282 61.3239 68.1649 61.1327C67.6846 60.5465 67.6846 60.5465 67.5765 59.8526C67.6846 59.2066 67.6846 59.2066 67.9848 58.74C68.6369 58.3234 69.0364 58.3344 69.7978 58.4409C70.8623 59.047 71.5298 60.1724 71.9111 61.3122C72.0745 62.9001 71.7425 64.118 70.7464 65.3679C69.6564 66.5417 68.2016 67.1864 66.6137 67.2918C65.0826 67.3326 63.8343 67.3152 62.4975 66.4805C62.2915 66.3542 62.0855 66.2279 61.8732 66.0977C61.3641 65.7288 60.8702 65.3479 60.3843 64.9492C60.1941 65.0953 60.0039 65.2413 59.808 65.3918C58.1057 66.5741 56.4429 66.6666 54.4288 66.4805C52.8152 66.0375 51.6804 64.6796 50.8582 63.2832C50.3247 62.0439 50.3296 60.5018 50.7824 59.2312C51.2758 58.3268 51.7053 57.5455 52.7718 57.3881Z" fill="#060505"/>
<path d="M82.7189 58.4588C83.7667 59.1846 84.3928 60.0582 84.8667 61.2284C85.1168 62.7511 85.0288 63.8178 84.2063 65.1406C83.1546 66.4771 81.9998 67.3091 80.2935 67.5162C78.8029 67.5785 77.6984 67.4254 76.5218 66.4806C75.2816 65.2985 74.957 64.008 74.9128 62.3411C74.9533 60.9531 75.2092 60.1246 76.1496 59.075C78.0777 57.2867 80.4825 57.2318 82.7189 58.4588Z" fill="#040404"/>
<path d="M44.0307 50.4969C45.1798 51.1035 46.2089 52.0281 46.7443 53.2246C47.0849 54.3587 47.1875 55.6529 46.7743 56.7756C46.081 57.9775 44.847 59.2105 43.5257 59.697C42.252 59.9442 40.6178 60.0949 39.432 59.4817C38.2845 58.5329 37.3048 57.4675 37.0808 55.9408C37.0548 55.5243 37.0505 55.1134 37.0546 54.6962C37.0508 54.5566 37.0469 54.4171 37.043 54.2733C37.044 53.1088 37.422 52.4391 38.2358 51.5893C38.3413 51.5012 38.4468 51.4131 38.5555 51.3224C38.66 51.2328 38.7645 51.1432 38.8722 51.0509C40.3978 49.9784 42.2801 49.8143 44.0307 50.4969Z" fill="#050202"/>
<path d="M60.3843 64.7577C60.5666 64.9275 60.7489 65.0972 60.9367 65.2721C62.3045 66.4459 63.8214 67.0481 65.6074 67.1624C65.9741 67.1865 65.9741 67.1865 66.3481 67.211C66.6293 67.2284 66.6293 67.2284 66.9162 67.2462C66.9162 67.3093 66.9162 67.3725 66.9162 67.4376C66.1554 67.4376 65.3946 67.4376 64.6108 67.4376C64.5672 67.6034 64.5237 67.7692 64.4788 67.9401C64.0176 69.1217 63.3215 69.8501 62.1734 70.368C61.1033 70.6867 60.044 70.621 58.9795 70.3209C57.9732 69.5514 57.3372 68.4319 56.9263 67.2462C56.9263 67.0567 56.9263 66.8671 56.9263 66.6719C56.4191 66.6719 55.912 66.6719 55.3894 66.6719C55.3894 66.6087 55.3894 66.5456 55.3894 66.4805C55.5219 66.4755 55.6544 66.4706 55.7909 66.4655C57.6044 66.3565 58.9208 65.8046 60.3843 64.7577Z" fill="#EA777A"/>
<path d="M81.1327 85.1321C81.6569 85.1707 81.874 85.222 82.3214 85.5149C82.7128 86.0663 83.0147 86.6399 83.3285 87.2377C83.6831 87.8143 84.1048 88.2872 84.5547 88.793C85.4747 89.8754 85.4747 89.8754 85.4792 90.7072C85.3591 91.3652 85.3591 91.3652 85.167 91.7481C85.0402 91.7481 84.9134 91.7481 84.7828 91.7481C84.7828 91.8744 84.7828 92.0007 84.7828 92.1309C84.1031 92.2384 83.7097 92.2911 83.0538 92.1309C81.9585 91.2557 80.9543 89.9646 80.3642 88.6853C80.3642 88.4958 80.3642 88.3063 80.3642 88.1111C80.2374 88.1111 80.1106 88.1111 79.98 88.1111C79.6743 87.4447 79.4854 86.9301 79.5958 86.1969C79.9918 85.457 80.3023 85.1753 81.1327 85.1321Z" fill="#AE6A54"/>
<path d="M76.3297 88.8768C76.786 89.0921 76.786 89.0921 77.0982 89.451C77.2821 90.2912 77.3328 91.117 77.3503 91.9754C77.3575 92.2071 77.3647 92.4388 77.3721 92.6775C77.2903 93.2794 77.2903 93.2794 76.9503 93.6413C76.517 93.8561 76.2344 93.9473 75.7534 93.9614C75.6266 93.9695 75.4998 93.9777 75.3692 93.986C74.7073 93.758 74.5277 93.307 74.2165 92.7052C74.1279 91.9918 74.1279 91.9918 74.1444 91.2456C74.1469 90.9983 74.1494 90.7511 74.1519 90.4964C74.2101 89.8992 74.2637 89.5563 74.6007 89.0682C75.188 88.7756 75.6823 88.8323 76.3297 88.8768Z" fill="#AD6953"/>
<path d="M18.2156 79.2937C18.6246 79.8541 18.6233 80.3179 18.5878 80.9993C18.5037 81.4113 18.5037 81.4113 18.1315 81.8659C17.169 82.3748 16.2789 82.7513 15.1778 82.7513C14.4953 82.4982 14.256 82.2287 13.893 81.6027C13.773 81.0285 13.773 81.0285 13.893 80.4542C15.0371 79.26 16.5976 78.6892 18.2156 79.2937Z" fill="#070606"/>
<path d="M20.6168 83.517C21.1691 83.816 21.1691 83.816 21.5773 84.2826C21.7214 84.9048 21.7214 84.9048 21.5773 85.6226C21.0209 86.4557 20.4067 87.1536 19.4641 87.5368C18.8878 87.6205 18.8878 87.6205 18.3114 87.5368C17.7267 87.0308 17.5653 86.689 17.4109 85.9336C17.5968 84.9567 18.131 84.5117 18.8878 83.8998C19.5626 83.4515 19.8223 83.422 20.6168 83.517Z" fill="#060506"/>
<path d="M25.2276 11.1599C25.3544 11.2231 25.4812 11.2862 25.6118 11.3513C25.207 11.9564 24.8575 12.1585 24.2197 12.4879C23.8746 12.6778 23.8746 12.6778 23.6134 12.9612C23.0831 13.487 22.43 13.8538 21.8041 14.2578C21.3397 14.6434 21.2982 14.8007 21.1932 15.3712C20.7369 15.6703 20.7369 15.6703 20.2326 15.9454C20.1257 16.052 20.0187 16.1586 19.9085 16.2685C19.8252 16.3514 19.742 16.4343 19.6563 16.5197C19.5295 16.5197 19.4027 16.5197 19.2721 16.5197C19.2721 16.646 19.2721 16.7724 19.2721 16.9025C19.1492 16.9578 19.0264 17.0131 18.8999 17.07C18.4744 17.2525 18.4744 17.2525 18.3115 17.6682C18.1847 17.6682 18.0579 17.6682 17.9273 17.6682C17.8758 17.7827 17.8243 17.8972 17.7712 18.0152C17.546 18.4286 17.3137 18.6938 16.9667 19.0082C16.7765 18.945 16.5863 18.8818 16.3904 18.8167C16.8291 18.3686 17.2699 17.9225 17.7112 17.4768C17.8362 17.349 17.9613 17.2212 18.0901 17.0895C18.2102 16.9686 18.3303 16.8477 18.4541 16.7231C18.5648 16.6108 18.6754 16.4985 18.7894 16.3829C19.08 16.1369 19.08 16.1369 19.4642 16.1369C19.4642 16.0105 19.4642 15.8842 19.4642 15.754C21.1555 14.0123 23.2782 12.6016 25.2276 11.1599Z" fill="#F3A5CB"/>
<path d="M23.6907 42.5529C23.8175 42.616 23.9443 42.6792 24.0749 42.7443C23.9521 42.8943 23.8292 43.0443 23.7027 43.1989C23.31 43.6622 23.31 43.6622 23.1143 44.0842C22.9875 44.0842 22.8607 44.0842 22.7301 44.0842C22.6667 44.2737 22.6033 44.4632 22.538 44.6585C22.1575 44.9192 21.7732 45.1745 21.3853 45.4242C21.3219 45.5505 21.2585 45.6768 21.1932 45.807C21.0664 45.807 20.9396 45.807 20.809 45.807C20.7614 46.0478 20.7139 46.2887 20.6649 46.5368C20.5255 47.0974 20.4602 47.303 20.0405 47.7212C19.6563 47.9126 19.6563 47.9126 19.2721 47.9126C19.2602 48.0627 19.2483 48.2127 19.236 48.3673C19.1588 48.616 19.1588 48.616 19.0799 48.8697C18.5877 49.121 18.5877 49.121 18.1194 49.2526C19.268 46.627 21.6761 44.5224 23.6907 42.5529Z" fill="#E5AD88"/>
<path d="M68.6451 75.2859C68.7719 75.3491 68.8987 75.4122 69.0294 75.4773C68.824 75.7348 68.6152 75.9895 68.405 76.243C68.2891 76.3851 68.1732 76.5273 68.0538 76.6737C67.6846 77.0087 67.6846 77.0087 66.9161 77.0087C66.9122 77.1429 66.9082 77.2771 66.9041 77.4154C66.6427 78.2142 66.0836 78.6684 65.3792 79.1143C65.189 79.1143 64.9988 79.1143 64.8029 79.1143C64.8029 79.2406 64.8029 79.367 64.8029 79.4971C64.4225 79.6867 64.4225 79.6867 64.0344 79.88C64.1295 79.5957 64.1295 79.5957 64.2265 79.3057C64.3533 79.3057 64.4801 79.3057 64.6108 79.3057C64.6583 79.1962 64.7059 79.0866 64.7548 78.9737C65.5979 77.4513 67.285 76.3243 68.6451 75.2859Z" fill="#C9A596"/>
<path d="M89.1532 33.269C89.3671 33.4112 89.3671 33.4112 89.5854 33.5562C89.5854 33.7457 89.5854 33.9352 89.5854 34.1304C89.4784 34.0396 89.3715 33.9488 89.2612 33.8553C88.4078 33.2807 87.3282 33.2147 86.3195 33.3648C85.6975 33.7194 85.6975 33.7194 85.1668 34.1304C85.0361 34.1581 84.9053 34.1857 84.7706 34.2142C84.0561 34.4209 83.6016 35.0831 83.1376 35.6379C83.0009 35.7445 83.0009 35.7445 82.8615 35.8532C82.46 35.771 82.46 35.771 82.093 35.6618C84.0344 33.9738 86.4275 31.9368 89.1532 33.269Z" fill="#DE8487"/>
<path d="M64.2264 39.4901C64.2898 39.4901 64.3532 39.4901 64.4185 39.4901C64.362 41.0324 64.1525 42.5122 63.8542 44.0244C63.8052 44.2786 63.8052 44.2786 63.7553 44.5379C63.7228 44.6969 63.6903 44.8558 63.6568 45.0196C63.6279 45.1622 63.5989 45.3047 63.5691 45.4516C63.458 45.807 63.458 45.807 63.0737 46.1898C63.2005 45.1791 63.3273 44.1684 63.458 43.1271C63.3312 43.1271 63.2044 43.1271 63.0737 43.1271C63.0737 42.6218 63.0737 42.1164 63.0737 41.5957C63.3907 41.5957 63.7077 41.5957 64.0343 41.5957C64.0321 41.4598 64.0298 41.3238 64.0275 41.1837C64.0249 40.9198 64.0249 40.9198 64.0223 40.6506C64.0201 40.4752 64.0178 40.2997 64.0155 40.119C64.0343 39.6815 64.0343 39.6815 64.2264 39.4901Z" fill="#F6B690"/>
<path d="M79.4036 71.266C81.9693 71.2041 84.4033 71.1716 86.896 71.8403C86.896 71.9034 86.896 71.9666 86.896 72.0317C85.2422 72.0623 83.6095 71.9663 81.9611 71.8403C81.5905 71.8129 81.5905 71.8129 81.2125 71.7849C80.6095 71.7403 80.0065 71.6949 79.4036 71.6489C79.4036 71.5225 79.4036 71.3962 79.4036 71.266Z" fill="#CEADA0"/>
<path d="M31.9517 64.3749C32.496 64.4943 33.0403 64.6139 33.5846 64.7338C33.8127 64.7838 33.8127 64.7838 34.0454 64.8347C34.272 64.8847 34.272 64.8847 34.5032 64.9357C34.6566 64.9693 34.81 65.003 34.9681 65.0377C35.3625 65.1296 35.7528 65.2386 36.1421 65.3499C37.1934 65.6155 38.2691 65.6122 39.348 65.643C39.561 65.6504 39.774 65.6578 39.9934 65.6655C40.5147 65.6834 41.0359 65.6998 41.5573 65.7148C41.5573 65.778 41.5573 65.8412 41.5573 65.9062C40.785 65.9158 40.0127 65.9227 39.2403 65.9273C38.978 65.9292 38.7156 65.9318 38.4533 65.9351C38.0747 65.9398 37.696 65.9417 37.3173 65.9436C36.9763 65.9466 36.9763 65.9466 36.6283 65.9497C35.9663 65.9049 35.4537 65.7493 34.8334 65.5234C34.6194 65.4958 34.4054 65.4681 34.185 65.4397C33.3728 65.3141 32.7125 65.0636 31.9517 64.7577C31.9517 64.6314 31.9517 64.505 31.9517 64.3749Z" fill="#FEFBED"/>
<path d="M90.1619 34.3218C90.9222 35.0145 91.2544 35.8683 91.3629 36.8771C91.3778 37.3467 91.3745 37.8121 91.3626 38.2818C91.3616 38.4403 91.3606 38.5989 91.3596 38.7622C91.3496 39.5376 91.3141 40.2654 91.1224 41.0215C91.059 41.0215 90.9956 41.0215 90.9303 41.0215C90.9275 40.9138 90.9247 40.806 90.9218 40.695C90.8585 38.5074 90.7314 36.4453 90.1619 34.3218Z" fill="#DF858A"/>
<path d="M80.1719 41.7872C80.2987 41.7872 80.4255 41.7872 80.5561 41.7872C80.5561 41.9136 80.5561 42.0399 80.5561 42.1701C80.9365 42.2964 81.3169 42.4227 81.7088 42.5529C81.7722 42.3634 81.8356 42.1739 81.9009 41.9787C82.0911 41.9787 82.2813 41.9787 82.4772 41.9787C82.4138 42.4208 82.3504 42.863 82.2851 43.3186C82.4032 43.3235 82.5214 43.3285 82.6431 43.3336C83.9271 43.4233 83.9271 43.4233 84.4104 43.9048C84.4995 44.0884 84.4995 44.0884 84.5905 44.2757C84.5271 44.402 84.4637 44.5284 84.3984 44.6585C83.4733 44.3374 82.6796 43.8439 81.8529 43.3306C81.7122 43.2458 81.5715 43.161 81.4266 43.0737C81.2929 42.9909 81.1592 42.9081 81.0214 42.8228C80.8997 42.7481 80.7781 42.6733 80.6527 42.5963C80.364 42.3615 80.364 42.3615 80.1719 41.7872Z" fill="#E28083"/>
<path d="M99.1911 29.9192C100.109 31.5853 100.011 33.5643 99.9836 35.4106C99.9819 35.6384 99.9801 35.8663 99.9784 36.1011C99.9739 36.6566 99.9676 37.212 99.9596 37.7674C99.8962 37.7674 99.8328 37.7674 99.7675 37.7674C99.7041 36.5041 99.6407 35.2407 99.5754 33.939C99.512 33.939 99.4486 33.939 99.3833 33.939C99.3509 33.4485 99.3189 32.958 99.2872 32.4675C99.278 32.3294 99.2689 32.1914 99.2594 32.0491C99.2138 31.3379 99.1799 30.6319 99.1911 29.9192Z" fill="#442536"/>
<path d="M77.6745 26.8564C77.6745 27.6896 77.2785 27.9912 76.714 28.5792C76.2817 28.7228 76.2817 28.7228 75.9455 28.7707C75.8821 28.897 75.8187 29.0233 75.7534 29.1535C75.4332 29.4087 75.113 29.6639 74.7928 29.9192C74.7294 30.0455 74.666 30.1719 74.6007 30.302C74.3471 30.2388 74.0935 30.1757 73.8323 30.1106C75.0686 28.9567 76.2916 27.8369 77.6745 26.8564Z" fill="#190711"/>
<path d="M78.4429 116.824C77.2246 117.633 75.9967 117.931 74.5767 118.2C74.4075 118.234 74.2384 118.268 74.0641 118.303C73.2665 118.458 72.5345 118.565 71.719 118.547C72.2501 118.194 72.4861 118.096 73.0848 117.98C74.1583 117.759 75.2024 117.455 76.2532 117.146C77.0021 116.932 77.6547 116.764 78.4429 116.824Z" fill="#F1A9CB"/>
<path d="M36.9465 53.4639C37.0099 53.4639 37.0732 53.4639 37.1386 53.4639C37.1413 53.6489 37.144 53.834 37.1468 54.0247C37.2206 56.0326 37.6144 57.3976 38.8676 59.0151C38.614 59.0151 38.3604 59.0151 38.0991 59.0151C38.0357 58.8256 37.9723 58.6361 37.907 58.4408C37.7802 58.4408 37.6534 58.4408 37.5228 58.4408C36.9446 57.3263 36.8734 56.4415 36.9104 55.1986C36.913 55.0312 36.9156 54.8638 36.9183 54.6913C36.925 54.2821 36.9354 53.873 36.9465 53.4639Z" fill="#E3A783"/>
<path d="M28.1092 39.2987C28.1726 39.4882 28.236 39.6777 28.3013 39.873C27.921 40.0625 27.921 40.0625 27.5329 40.2558C27.5963 40.4453 27.6597 40.6348 27.725 40.8301C27.6616 40.9564 27.5982 41.0827 27.5329 41.2129C27.3427 41.2129 27.1525 41.2129 26.9566 41.2129C26.9566 41.0866 26.9566 40.9602 26.9566 40.8301C26.7783 40.9288 26.5999 41.0275 26.4162 41.1292C25.8039 41.4043 25.8039 41.4043 25.2275 41.2129C25.6356 40.9295 26.0438 40.6464 26.4523 40.3635C26.5682 40.2829 26.6841 40.2024 26.8035 40.1193C27.6815 39.5118 27.6815 39.5118 28.1092 39.2987Z" fill="#F2AE85"/>
<path d="M63.8423 43.1272C63.9057 43.3167 63.9691 43.5062 64.0344 43.7015C64.1612 43.7646 64.288 43.8278 64.4187 43.8929C64.2938 44.1594 64.2938 44.1594 64.1665 44.4313C63.901 45.0424 63.7212 45.653 63.5542 46.2976C63.3457 47.0954 63.0973 47.7713 62.6896 48.487C62.5629 48.487 62.4361 48.487 62.3054 48.487C62.3931 48.2197 62.4812 47.9525 62.5696 47.6854C62.6186 47.5366 62.6676 47.3878 62.7182 47.2345C62.8261 46.9243 62.9446 46.6175 63.0739 46.3155C63.3108 45.6885 63.4428 45.0634 63.5782 44.4073C63.6282 44.1672 63.6782 43.9271 63.7298 43.6798C63.7669 43.4974 63.8041 43.3151 63.8423 43.1272Z" fill="#FEF0E1"/>
<path d="M13.8928 76.4343C14.4944 76.7341 14.5568 77.2341 14.7934 77.8461C14.8813 78.0686 14.9692 78.2912 15.0598 78.5205C15.2376 79.1142 15.2376 79.1142 15.0455 79.6885C14.5532 80.0115 14.5532 80.0115 14.0849 80.2627C14.0215 80.0732 13.9581 79.8837 13.8928 79.6885C13.9562 79.5621 14.0196 79.4358 14.0849 79.3056C14.2751 79.3056 14.4653 79.3056 14.6613 79.3056C14.6613 79.1161 14.6613 78.9266 14.6613 78.7314C14.4711 78.6682 14.2809 78.605 14.0849 78.54C14.2117 78.54 14.3385 78.54 14.4692 78.54C14.279 77.8451 14.0888 77.1502 13.8928 76.4343Z" fill="#ED9FC4"/>
<path d="M53.2685 57.0754C53.4216 57.0759 53.5746 57.0764 53.7323 57.0769C53.8844 57.0764 54.0364 57.0759 54.1931 57.0754C54.6208 57.1009 54.6208 57.1009 55.1972 57.2923C55.1338 57.6081 55.0704 57.924 55.0051 58.2494C54.6689 58.393 54.6689 58.393 54.2366 58.4408C53.8524 58.0939 53.8524 58.0939 53.4682 57.6751C53.0584 57.4387 53.0584 57.4387 52.6997 57.2923C52.8918 57.1009 52.8918 57.1009 53.2685 57.0754Z" fill="#E9A87F"/>
<path d="M118.979 49.2527C119.042 49.2527 119.106 49.2527 119.171 49.2527C119.268 49.8985 119.364 50.5446 119.459 51.1908C119.487 51.3729 119.514 51.555 119.542 51.7427C119.674 52.6431 119.784 53.5081 119.747 54.421C119.29 53.7382 119.289 53.2969 119.237 52.4994C119.215 52.3755 119.193 52.2516 119.171 52.124C119.044 52.0608 118.917 51.9977 118.787 51.9326C118.85 51.0482 118.913 50.1638 118.979 49.2527Z" fill="#F3A7CD"/>
<path d="M49.626 24.5593C50.1157 25.1678 50.4735 25.8022 50.8267 26.4975C50.9827 26.8002 50.9827 26.8002 51.1418 27.1091C51.2122 27.2784 51.2825 27.4477 51.355 27.6221C51.2916 27.7484 51.2282 27.8747 51.1629 28.0049C50.7786 27.8135 50.7786 27.8135 50.5145 27.1435C50.2838 26.4532 50.2838 26.4532 49.782 26.2941C49.6671 26.2901 49.5522 26.2862 49.4338 26.2821C49.4972 26.0926 49.5606 25.9031 49.626 25.7079C49.6335 25.3251 49.6345 24.9421 49.626 24.5593Z" fill="#E4A986"/>
<path d="M102.841 87.3453C103.032 87.4085 103.222 87.4717 103.418 87.5368C103.331 87.671 103.243 87.8052 103.154 87.9435C102.838 88.4996 102.642 89.0325 102.457 89.6424C102.073 89.6424 101.689 89.6424 101.304 89.6424C101.812 88.8844 102.319 88.1263 102.841 87.3453Z" fill="#E693BB"/>
<path d="M92.6593 98.0649C92.7861 98.0649 92.9129 98.0649 93.0435 98.0649C93.0075 98.4239 93.0075 98.4239 92.8514 98.8306C92.5325 98.9615 92.212 99.0883 91.8908 99.2135C91.4216 99.5736 90.9826 99.9634 90.546 100.362C90.2925 100.236 90.0389 100.109 89.7776 99.9791C89.9695 99.857 90.1614 99.7349 90.3592 99.609C90.6096 99.4493 90.86 99.2895 91.1104 99.1297C91.237 99.0492 91.3637 98.9686 91.4942 98.8856C92.1082 98.5159 92.1082 98.5159 92.6593 98.0649Z" fill="#E796BD"/>
<path d="M57.8869 66.4805C57.8116 66.5792 57.7363 66.6779 57.6587 66.7796C57.4183 67.4984 57.759 67.9249 58.079 68.5862C58.1507 68.8394 58.2193 69.0939 58.2711 69.3519C57.5575 68.7389 57.2467 68.1241 56.9263 67.2462C56.9263 67.0567 56.9263 66.8672 56.9263 66.672C56.4191 66.672 55.912 66.672 55.3894 66.672C55.3894 66.6088 55.3894 66.5456 55.3894 66.4805C55.7335 66.4433 56.0777 66.4077 56.422 66.3729C56.7095 66.3429 56.7095 66.3429 57.0029 66.3123C57.5026 66.2891 57.5026 66.2891 57.8869 66.4805Z" fill="#C4777C"/>
<path d="M13.7007 49.4441C13.8909 49.5073 14.0811 49.5704 14.2771 49.6355C14.0056 50.5596 13.6182 51.304 13.1244 52.124C13.061 52.124 12.9976 52.124 12.9323 52.124C12.871 51.086 13.124 50.3061 13.7007 49.4441Z" fill="#ED98C1"/>
<path d="M22.1537 39.873C22.2171 40.0626 22.2805 40.2521 22.3458 40.4473C22.219 40.4473 22.0922 40.4473 21.9616 40.4473C21.8982 40.6368 21.8348 40.8263 21.7694 41.0216C21.428 41.3573 21.428 41.3573 21.013 41.7035C20.6103 42.0421 20.221 42.373 19.8483 42.7444C19.6581 42.6812 19.4679 42.618 19.272 42.5529C20.1964 41.6103 21.1374 40.7169 22.1537 39.873Z" fill="#24111C"/>
<path d="M79.4035 38.9159C79.4669 39.1054 79.5303 39.2949 79.5956 39.4902C79.4676 39.7454 79.3395 40.0006 79.2114 40.2558C79.1792 40.7664 79.1792 40.7664 79.2114 41.2129C79.3382 41.1498 79.465 41.0866 79.5956 41.0215C79.5956 40.7057 79.5956 40.3898 79.5956 40.0644C79.7224 40.0644 79.8492 40.0644 79.9799 40.0644C79.9799 40.6961 79.9799 41.3278 79.9799 41.9786C79.0433 41.4522 79.0433 41.4522 78.8272 41.0215C78.7383 39.8255 78.7383 39.8255 79.1154 39.215C79.2105 39.1163 79.3056 39.0176 79.4035 38.9159Z" fill="#E18084"/>
<path d="M39.2519 3.88586C39.2519 4.0122 39.2519 4.13854 39.2519 4.26871C35.7368 5.89755 35.7368 5.89755 34.8333 5.60865C38.5606 3.88586 38.5606 3.88586 39.2519 3.88586Z" fill="#F2ABCD"/>
<path d="M98.8067 83.7084C99.5915 84.6603 99.5987 85.3594 99.5752 86.5797C99.385 86.5797 99.1948 86.5797 98.9989 86.5797C98.7998 85.613 98.787 84.6896 98.8067 83.7084Z" fill="#CDA294"/>
<path d="M5.0557 35.8531C5.28391 36.5353 5.20523 36.6416 4.92363 37.2768C4.45517 38.3779 4.07966 39.5012 3.71091 40.6387C3.64751 40.6387 3.58412 40.6387 3.5188 40.6387C3.5681 39.2386 4.00868 36.8964 5.0557 35.8531Z" fill="#F1A5C9"/>
<path d="M24.6514 59.9722C25.306 60.3414 25.9465 60.7049 26.5725 61.1207C26.5725 61.247 26.5725 61.3734 26.5725 61.5035C26.9529 61.6299 27.3333 61.7562 27.7252 61.8864C27.7252 62.0127 27.7252 62.1391 27.7252 62.2692C27.852 62.3324 27.9788 62.3956 28.1094 62.4606C27.1784 62.3763 26.48 61.9352 25.804 61.3121C25.804 61.1858 25.804 61.0594 25.804 60.9293C25.6139 60.9293 25.4237 60.9293 25.2277 60.9293C24.9035 60.6661 24.9035 60.6661 24.6514 60.355C24.6514 60.2287 24.6514 60.1023 24.6514 59.9722Z" fill="#FEEFDF"/>
<path d="M62.3055 81.9856C62.4323 82.2383 62.5591 82.4909 62.6897 82.7513C62.4437 83.0781 62.1868 83.3971 61.9213 83.7084C61.7945 83.7084 61.6677 83.7084 61.537 83.7084C61.4736 83.9611 61.4102 84.2137 61.3449 84.4741C61.2181 84.4741 61.0913 84.4741 60.9607 84.4741C61.2319 83.4669 61.6808 82.8045 62.3055 81.9856Z" fill="#CCA293"/>
<path d="M29.8384 63.2263C30.6062 63.1915 31.095 63.221 31.7595 63.6091C31.9497 63.6723 32.1399 63.7355 32.3358 63.8006C32.3992 63.9269 32.4626 64.0532 32.528 64.1834C32.7182 64.3097 32.9083 64.4361 33.1043 64.5662C31.8572 64.4852 30.9267 64.009 29.8384 63.4177C29.8384 63.3545 29.8384 63.2914 29.8384 63.2263Z" fill="#F4BE9D"/>
<path d="M41.7494 14.0312C41.4708 14.0278 41.4708 14.0278 41.1865 14.0244C39.7589 14.0146 38.3649 14.0364 36.9465 14.2226C36.9465 14.0963 36.9465 13.9699 36.9465 13.8398C38.422 13.3399 40.4097 13.1413 41.7494 14.0312Z" fill="#DE95BA"/>
<path d="M89.2011 95.9592C89.4547 96.0856 89.7083 96.2119 89.9696 96.3421C88.2286 97.7794 88.2286 97.7794 87.0879 97.682C87.5077 97.2215 87.9061 96.9555 88.4687 96.689C88.6749 96.5902 88.6749 96.5902 88.8852 96.4894C88.9895 96.4408 89.0937 96.3922 89.2011 96.3421C89.2011 96.2157 89.2011 96.0894 89.2011 95.9592Z" fill="#C09687"/>
<path d="M17.5431 85.2397C17.6065 85.2397 17.6699 85.2397 17.7352 85.2397C17.7907 85.4529 17.8462 85.6661 17.9033 85.8858C18.0603 86.5802 18.0603 86.5802 18.5037 86.9625C18.9284 87.009 18.9284 87.009 19.3922 86.9865C19.5492 86.983 19.7062 86.9796 19.868 86.976C19.9883 86.9716 20.1087 86.9671 20.2327 86.9625C20.1693 87.0889 20.1059 87.2152 20.0406 87.3454C19.4654 87.5209 18.9111 87.5775 18.3116 87.5368C17.8193 87.154 17.8193 87.154 17.5431 86.5797C17.4951 85.8499 17.4951 85.8499 17.5431 85.2397Z" fill="#311221"/>
<path d="M17.543 43.7014C17.6698 43.9541 17.7966 44.2068 17.9272 44.4671C17.4835 45.0356 17.0397 45.6041 16.5824 46.1899C16.3923 46.1267 16.2021 46.0635 16.0061 45.9985C16.0061 45.8721 16.0061 45.7458 16.0061 45.6156C16.1963 45.6156 16.3865 45.6156 16.5824 45.6156C16.4556 45.2998 16.3289 44.9839 16.1982 44.6585C16.325 44.6585 16.4518 44.6585 16.5824 44.6585C16.5824 44.7849 16.5824 44.9112 16.5824 45.0414C17.1613 44.753 17.2761 44.2696 17.543 43.7014Z" fill="#F09BC6"/>
<path d="M72.6795 73.1802C72.5715 73.5511 72.5715 73.5511 72.2953 73.9459C71.5989 74.0894 71.5989 74.0894 70.9505 74.1373C70.8871 74.3268 70.8237 74.5163 70.7584 74.7115C70.378 74.7747 69.9976 74.8379 69.6057 74.903C70.2727 74.0874 71.5866 73.1802 72.6795 73.1802Z" fill="#CEAA9C"/>
<path d="M62.6897 69.9261C62.0702 70.5434 61.4986 70.5307 60.6605 70.5362C60.3808 70.5403 60.3808 70.5403 60.0954 70.5445C59.6159 70.5003 59.6159 70.5003 59.2317 70.1175C60.3912 69.9849 61.5225 69.9045 62.6897 69.9261Z" fill="#DF8589"/>
<path d="M17.9272 49.8269C18.054 49.8269 18.1808 49.8269 18.3115 49.8269C18.3486 49.9629 18.3858 50.0988 18.424 50.2389C18.4741 50.4148 18.5241 50.5908 18.5756 50.772C18.6247 50.9475 18.6737 51.1229 18.7242 51.3037C18.843 51.7732 18.843 51.7732 19.272 51.9325C19.3503 52.3769 19.415 52.824 19.4642 53.2725C18.5709 52.2871 17.9272 51.1665 17.9272 49.8269Z" fill="#F3B894"/>
<path d="M62.6896 46.1899C62.8164 46.2531 62.9432 46.3163 63.0738 46.3814C62.7537 47.3385 62.4335 48.2956 62.1133 49.2527C62.0499 49.2527 61.9865 49.2527 61.9212 49.2527C61.8319 48.0078 62.0507 47.2586 62.6896 46.1899Z" fill="#F3B592"/>
<path d="M23.6906 42.5529C23.8174 42.616 23.9442 42.6792 24.0749 42.7443C23.952 42.8943 23.8292 43.0443 23.7026 43.1989C23.31 43.6622 23.31 43.6622 23.1143 44.0842C22.9875 44.0842 22.8607 44.0842 22.7301 44.0842C22.6667 44.2737 22.6033 44.4632 22.538 44.6585C22.221 44.7217 21.904 44.7848 21.5774 44.8499C22.2515 44.049 22.9377 43.281 23.6906 42.5529Z" fill="#F0B491"/>
<path d="M94.1963 93.088C93.6482 93.6492 93.1107 94.1682 92.4672 94.6193C92.3404 94.4298 92.2136 94.2403 92.083 94.0451C92.7565 93.3421 93.2026 93.0345 94.1963 93.088Z" fill="#BF9182"/>
<path d="M50.5865 62.8435C50.7133 62.9067 50.8401 62.9698 50.9708 63.0349C50.6282 63.7176 49.7552 63.8817 49.0594 64.1206C48.1457 64.4031 48.1457 64.4031 47.7048 64.1835C48.1763 63.9543 48.6486 63.7273 49.1217 63.5015C49.323 63.4032 49.323 63.4032 49.5284 63.303C49.8758 63.1382 50.2308 62.9897 50.5865 62.8435Z" fill="#FBEADA"/>
<path d="M81.5168 24.1765C81.6436 24.2397 81.7704 24.3029 81.901 24.3679C80.8917 25.6896 80.8917 25.6896 79.9799 25.8993C79.7263 25.8361 79.4727 25.773 79.2114 25.7079C79.9722 25.2025 80.733 24.6972 81.5168 24.1765Z" fill="#270E19"/>
<path d="M103.226 19.0082C104.114 19.1681 104.527 19.7065 105.099 20.3601C105.196 20.4688 105.293 20.5775 105.394 20.6895C105.633 20.9572 105.87 21.2268 106.107 21.4966C105.917 21.5914 105.917 21.5914 105.723 21.6881C104.808 20.8243 104.808 20.8243 104.558 20.3122C104.324 19.8605 104.063 19.7941 103.61 19.5824C103.483 19.3929 103.356 19.2034 103.226 19.0082Z" fill="#F2A7CC"/>
<path d="M38.8677 59.0151C39.1232 59.1513 39.1232 59.1513 39.384 59.2903C40.4347 59.7489 41.5795 59.7317 42.7099 59.7808C42.7099 59.844 42.7099 59.9072 42.7099 59.9722C40.0272 60.3091 40.0272 60.3091 39.2759 59.8167C38.8677 59.398 38.8677 59.398 38.8677 59.0151Z" fill="#DDA480"/>
<path d="M18.888 43.1272C19.0147 43.2535 19.1415 43.3799 19.2722 43.51C19.1454 43.51 19.0186 43.51 18.888 43.51C18.8444 43.6482 18.8008 43.7864 18.7559 43.9288C18.4531 44.5752 18.0794 44.9567 17.5432 45.4242C17.4164 45.4242 17.2896 45.4242 17.1589 45.4242C17.4364 44.8043 17.7848 44.3485 18.2396 43.845C18.3609 43.7098 18.4823 43.5746 18.6073 43.4353C18.6999 43.3336 18.7925 43.2319 18.888 43.1272Z" fill="#1D0A16"/>
<path d="M13.1244 22.6451C13.1878 22.7715 13.2512 22.8978 13.3166 23.028C13.2056 23.1583 13.0947 23.2886 12.9804 23.4228C12.51 24.0347 12.1515 24.6502 11.7797 25.325C11.5895 25.325 11.3993 25.325 11.2033 25.325C11.2033 25.4514 11.2033 25.5777 11.2033 25.7079C11.0765 25.6447 10.9497 25.5815 10.8191 25.5165C10.8825 25.3901 10.9459 25.2638 11.0112 25.1336C11.138 25.1336 11.2648 25.1336 11.3954 25.1336C11.4311 25.0073 11.4668 24.8809 11.5035 24.7508C11.9006 23.9251 12.503 23.3123 13.1244 22.6451Z" fill="#F3ACCE"/>
<path d="M79.9799 100.553C80.1067 100.617 80.2335 100.68 80.3641 100.745C80.3641 100.871 80.3641 100.997 80.3641 101.128C79.9561 101.256 79.5478 101.383 79.1394 101.51C78.9121 101.582 78.6847 101.653 78.4505 101.726C77.8666 101.893 77.8666 101.893 77.4824 101.893C77.4824 101.767 77.4824 101.641 77.4824 101.51C77.6466 101.457 77.8108 101.404 77.98 101.35C78.1922 101.28 78.4044 101.211 78.6231 101.14C78.8348 101.071 79.0466 101.002 79.2647 100.931C79.765 100.795 79.765 100.795 79.9799 100.553Z" fill="#B99382"/>
<path d="M100.536 90.5995C100.726 90.5995 100.916 90.5995 101.112 90.5995C101.006 91.2884 100.776 91.5564 100.236 91.9873C100.113 92.087 99.9896 92.1867 99.8628 92.2894C99.768 92.3634 99.6731 92.4374 99.5754 92.5137C99.4486 92.4505 99.3218 92.3874 99.1912 92.3223C99.401 92.0335 99.6137 91.7467 99.8275 91.4609C99.9457 91.301 100.064 91.1411 100.185 90.9763C100.301 90.852 100.417 90.7276 100.536 90.5995Z" fill="#E897BE"/>
<path d="M53.4682 57.4837C53.6584 57.6732 53.8486 57.8627 54.0446 58.058C53.3472 58.058 52.6498 58.058 51.9313 58.058C51.8046 58.3107 51.6778 58.5633 51.5471 58.8237C51.5471 58.058 51.5471 58.058 51.7512 57.723C52.331 57.3503 52.7966 57.412 53.4682 57.4837Z" fill="#1C0803"/>
<path d="M41.3291 49.9825C41.5288 49.9864 41.5288 49.9864 41.7325 49.9903C42.0583 49.997 42.3841 50.0073 42.7099 50.0184C42.7099 50.0815 42.7099 50.1447 42.7099 50.2098C42.5636 50.2147 42.4172 50.2197 42.2664 50.2247C40.914 50.2988 39.8678 50.5219 38.6755 51.1669C38.8677 50.5926 38.8677 50.5926 39.2661 50.2719C39.9666 49.956 40.5772 49.9545 41.3291 49.9825Z" fill="#DDA885"/>
<path d="M17.5431 50.0183C17.6699 50.0183 17.7967 50.0183 17.9273 50.0183C18.1175 50.5868 18.3077 51.1553 18.5037 51.7411C18.3135 51.6779 18.1233 51.6148 17.9273 51.5497C17.9273 51.3602 17.9273 51.1707 17.9273 50.9754C17.3523 51.1664 17.1689 51.3108 16.7747 51.7411C16.9781 51.0897 17.1606 50.59 17.5431 50.0183Z" fill="#F5EADF"/>
<path d="M14.2771 81.9856C14.5812 81.9752 14.8854 81.9678 15.1896 81.9617C15.359 81.9573 15.5284 81.9528 15.7029 81.9482C16.2201 81.9873 16.5246 82.1071 16.9667 82.3685C15.4282 82.8327 15.4282 82.8327 14.6493 82.5001C14.5265 82.3935 14.4037 82.2869 14.2771 82.177C14.2771 82.1139 14.2771 82.0507 14.2771 81.9856Z" fill="#2E1120"/>
<path d="M116.289 79.8799C116.512 80.4285 116.48 80.6487 116.29 81.2228C116.153 81.5293 116.153 81.5293 116.013 81.8419C115.922 82.0482 115.831 82.2545 115.738 82.4671C115.666 82.624 115.594 82.7809 115.521 82.9426C115.457 82.9426 115.394 82.9426 115.329 82.9426C115.427 81.9914 115.566 81.1643 115.905 80.2627C116.032 80.2627 116.159 80.2627 116.289 80.2627C116.289 80.1364 116.289 80.01 116.289 79.8799Z" fill="#F0A2C8"/>
<path d="M31.9517 64.3749C33.6634 64.7539 33.6634 64.7539 35.4097 65.1406C35.4097 65.2037 35.4097 65.2669 35.4097 65.332C34.1029 65.404 33.151 65.2889 31.9517 64.7577C31.9517 64.6314 31.9517 64.505 31.9517 64.3749Z" fill="#FEEEDD"/>
<path d="M46.7443 53.6553C46.8711 53.6553 46.9979 53.6553 47.1286 53.6553C47.1338 54.1498 47.1376 54.6443 47.1406 55.1388C47.1422 55.2784 47.1438 55.4181 47.1454 55.562C47.1485 56.2369 47.1195 56.8348 46.9364 57.4837C46.7463 57.4837 46.5561 57.4837 46.3601 57.4837C46.423 57.3233 46.4859 57.1629 46.5507 56.9977C46.7629 56.2717 46.7826 55.6775 46.7683 54.9234C46.7649 54.6851 46.7614 54.4467 46.7578 54.2011C46.7534 54.021 46.7489 53.8409 46.7443 53.6553Z" fill="#D8A282"/>
<path d="M23.4985 37.5759C23.8789 37.7023 24.2593 37.8286 24.6512 37.9588C23.7626 38.8919 23.7626 38.8919 23.1143 39.1073C23.2824 37.7913 23.2824 37.7913 23.4985 37.5759Z" fill="#E494BB"/>
<path d="M81.5165 35.6617C81.6599 35.9878 81.6599 35.9878 81.7086 36.4274C81.3912 36.8791 81.3912 36.8791 80.9522 37.3367C80.7356 37.5662 80.7356 37.5662 80.5147 37.8003C80.4015 37.9158 80.2883 38.0312 80.1717 38.1502C79.9796 37.576 79.9796 37.576 80.1507 37.2268C80.2369 37.1091 80.3231 36.9914 80.4119 36.8701C80.4961 36.7509 80.5803 36.6317 80.667 36.5089C80.7572 36.4189 80.8473 36.3288 80.9402 36.236C81.1304 36.236 81.3206 36.236 81.5165 36.236C81.5165 36.0465 81.5165 35.857 81.5165 35.6617Z" fill="#FDECE9"/>
<path d="M73.6401 30.302C73.6401 30.9131 73.5947 31.1435 73.2559 31.6419C72.9357 31.7696 72.6155 31.8972 72.2953 32.0248C72.0371 32.411 72.0371 32.411 71.9111 32.7905C71.7843 32.7273 71.6575 32.6641 71.5269 32.5991C72.2242 31.841 72.9216 31.083 73.6401 30.302Z" fill="#2F1321"/>
<path d="M31.3751 24.1765C31.4385 24.1765 31.5019 24.1765 31.5673 24.1765C31.5776 24.4556 31.5851 24.7348 31.5913 25.014C31.5957 25.1694 31.6002 25.3249 31.6048 25.4851C31.5673 25.8993 31.5673 25.8993 31.183 26.2821C31.0596 26.6781 31.0596 26.6781 30.9909 27.0478C30.8641 27.0478 30.7373 27.0478 30.6067 27.0478C30.8119 26.069 31.0353 25.1198 31.3751 24.1765Z" fill="#DBA381"/>
<path d="M42.71 17.4768C43.8581 18.0081 44.85 18.5341 45.7838 19.391C45.5936 19.4542 45.4034 19.5174 45.2074 19.5824C45.1321 19.4995 45.0569 19.4166 44.9793 19.3312C44.4302 18.8218 43.7833 18.4964 43.1302 18.1348C42.9915 18.044 42.8528 17.9532 42.71 17.8596C42.71 17.7333 42.71 17.607 42.71 17.4768Z" fill="#E0AB8B"/>
<path d="M92.2751 74.5201C92.8589 74.79 93.3498 75.1114 93.8601 75.5012C93.9958 75.6043 94.1315 75.7075 94.2713 75.8137C94.3733 75.8922 94.4754 75.9707 94.5805 76.0515C94.1963 76.2429 94.1963 76.2429 93.728 76.0994C93.2514 75.8677 93.0047 75.6768 92.6593 75.2858C92.5524 75.1792 92.4454 75.0726 92.3352 74.9628C92.2519 74.8799 92.1687 74.797 92.083 74.7116C92.1464 74.6484 92.2098 74.5852 92.2751 74.5201Z" fill="#C6A292"/>
<path d="M53.8525 34.1304C54.899 34.1118 55.8964 34.1058 56.9263 34.3218C56.9263 34.385 56.9263 34.4481 56.9263 34.5132C56.5584 34.5559 56.1901 34.5951 55.8217 34.6329C55.6166 34.6551 55.4116 34.6773 55.2003 34.7001C54.6137 34.7047 54.3402 34.6308 53.8525 34.3218C53.8525 34.2586 53.8525 34.1955 53.8525 34.1304Z" fill="#E5AD88"/>
<path d="M84.9746 98.4478C85.4789 98.5195 85.4789 98.5195 85.9352 98.6392C85.3332 99.1236 84.7354 99.5032 84.0141 99.7877C83.5578 99.6322 83.5578 99.6322 83.2456 99.4049C83.4596 99.318 83.6735 99.2311 83.894 99.1417C84.5831 98.8833 84.5831 98.8833 84.9746 98.4478Z" fill="#BE9787"/>
<path d="M45.9758 57.6752C45.9758 58.2494 45.9758 58.2494 45.7837 58.8237C45.4663 58.9581 45.146 59.0859 44.8231 59.2065C44.7597 59.3329 44.6963 59.4592 44.631 59.5894C44.314 59.5894 43.997 59.5894 43.6704 59.5894C43.8012 59.4867 43.9319 59.3841 44.0666 59.2783C44.7143 58.7566 45.3458 58.2179 45.9758 57.6752Z" fill="#D9A37E"/>
<path d="M42.5177 36.0445C41.6846 36.6412 41.0185 36.7259 40.0203 36.8102C40.0203 36.6839 40.0203 36.5575 40.0203 36.4274C40.8405 35.9559 41.6055 35.7415 42.5177 36.0445Z" fill="#E97D70"/>
<path d="M97.8463 92.8966C98.0364 92.9598 98.2266 93.0229 98.4226 93.088C97.241 94.5204 97.241 94.5204 96.5015 95.0022C96.6067 94.2685 96.9305 93.9684 97.462 93.4709C97.5888 93.2814 97.7156 93.0919 97.8463 92.8966Z" fill="#15040D"/>
<path d="M3.5188 79.8799C3.64559 79.8799 3.77239 79.8799 3.90302 79.8799C4.27279 80.9018 4.556 81.861 4.67148 82.9426C4.2166 82.4894 4.09534 82.1201 3.87901 81.5189C3.81116 81.3336 3.7433 81.1483 3.67339 80.9574C3.5188 80.4541 3.5188 80.4541 3.5188 79.8799Z" fill="#F1A5C9"/>
<path d="M21.5774 56.5266C21.831 56.5898 22.0846 56.6529 22.3458 56.718C22.3458 56.8444 22.3458 56.9707 22.3458 57.1009C22.4726 57.1009 22.5994 57.1009 22.7301 57.1009C23.3064 57.7635 23.3064 57.7635 23.3064 58.2494C23.4966 58.3126 23.6868 58.3757 23.8827 58.4408C23.756 58.5672 23.6292 58.6935 23.4985 58.8237C23.1778 58.4772 22.8577 58.1302 22.538 57.7828C22.4005 57.6346 22.4005 57.6346 22.2603 57.4833C21.5774 56.7397 21.5774 56.7397 21.5774 56.5266Z" fill="#F4B798"/>
<path d="M101.112 49.6355C101.588 49.7303 101.588 49.7303 102.073 49.8269C102.136 50.1428 102.2 50.4586 102.265 50.784C102.392 50.784 102.519 50.784 102.649 50.784C102.713 51.163 102.776 51.542 102.841 51.9325C102.23 51.1885 101.668 50.4204 101.112 49.6355Z" fill="#D895B7"/>
<path d="M74.2165 28.1963C74.7871 28.291 74.7871 28.291 75.3692 28.3877C75.3692 28.5772 75.3692 28.7667 75.3692 28.962C75.179 29.0883 74.9888 29.2146 74.7929 29.3448C74.5393 29.2185 74.2857 29.0921 74.0244 28.962C74.0878 28.7093 74.1512 28.4566 74.2165 28.1963Z" fill="#EC92C0"/>
<path d="M38.8677 24.5593C39.0579 24.6225 39.2481 24.6857 39.4441 24.7507C39.3291 24.7942 39.2142 24.8376 39.0958 24.8823C38.5646 25.2 38.4094 25.5628 38.0993 26.0907C37.679 26.4376 37.679 26.4376 37.3308 26.665C37.5827 25.5857 37.9703 25.1615 38.8677 24.5593Z" fill="#E77B6E"/>
<path d="M89.9336 21.6761C90.1568 21.6778 90.3799 21.6796 90.6098 21.6813C90.7789 21.6836 90.9481 21.6858 91.1223 21.6881C91.1223 21.7512 91.1223 21.8144 91.1223 21.8795C90.7626 21.9497 90.4023 22.0169 90.0417 22.0829C89.8411 22.1206 89.6405 22.1584 89.4338 22.1973C88.7969 22.2645 88.2879 22.2043 87.6643 22.0709C87.6643 22.0077 87.6643 21.9446 87.6643 21.8795C88.4324 21.6965 89.1451 21.6682 89.9336 21.6761Z" fill="#532F41"/>
<path d="M34.8333 19.0082C35.0235 19.0713 35.2137 19.1345 35.4097 19.1996C35.0293 19.6418 34.6489 20.084 34.257 20.5395C34.0668 20.4132 33.8766 20.2869 33.6807 20.1567C34.061 19.7777 34.4414 19.3987 34.8333 19.0082Z" fill="#E8AF89"/>
<path d="M16.1983 19.0082C16.2617 19.2609 16.3251 19.5135 16.3904 19.7739C16.2636 19.7739 16.1368 19.7739 16.0062 19.7739C15.9626 19.8923 15.919 20.0107 15.8741 20.1328C15.5491 20.6571 15.2392 20.7406 14.6614 20.9224C14.8451 20.6749 15.0293 20.4277 15.2137 20.1806C15.3162 20.0429 15.4188 19.9053 15.5244 19.7634C15.8141 19.391 15.8141 19.391 16.1983 19.0082Z" fill="#F2A6CD"/>
<path d="M76.5218 105.148C76.5218 105.211 76.5218 105.274 76.5218 105.339C76.1577 105.404 75.7935 105.467 75.4291 105.53C75.2263 105.566 75.0235 105.601 74.8145 105.638C74.2838 105.712 73.7904 105.738 73.2559 105.722C74.2132 104.844 75.3068 104.882 76.5218 105.148Z" fill="#190510"/>
<path d="M6.2085 86.5797C6.78484 86.7711 6.78484 86.7711 7.08501 87.3215C7.17615 87.5189 7.26728 87.7163 7.36117 87.9197C7.55137 88.2039 7.55137 88.2039 7.7454 88.4939C7.682 88.7466 7.61861 88.9993 7.55329 89.2596C7.10951 88.3752 6.66573 87.4909 6.2085 86.5797Z" fill="#F0A6CA"/>
<path d="M63.8423 79.8799C64.0345 80.6456 64.0345 80.6456 63.8423 81.2198C63.4461 81.3514 63.4461 81.3514 63.0739 81.4112C63.0739 81.5376 63.0739 81.6639 63.0739 81.7941C62.8837 81.7309 62.6935 81.6678 62.4976 81.6027C62.9413 81.0341 63.3851 80.4656 63.8423 79.8799Z" fill="#CAA393"/>
<path d="M86.896 72.0317C85.5961 72.0535 84.3431 72.0088 83.0537 71.8403C83.0537 71.7771 83.0537 71.7139 83.0537 71.6488C84.3394 71.3454 85.7302 71.3759 86.896 72.0317Z" fill="#CAA594"/>
<path d="M54.4289 58.4408C54.4804 58.5632 54.5319 58.6856 54.5849 58.8117C54.7913 59.2699 54.7913 59.2699 55.3894 59.3979C55.2626 59.3979 55.1358 59.3979 55.0052 59.3979C55.0052 59.5242 55.0052 59.6506 55.0052 59.7807C54.6928 60.0453 54.3727 60.3013 54.0446 60.5464C53.9178 60.4833 53.791 60.4201 53.6604 60.355C53.7515 60.2168 53.8427 60.0786 53.9366 59.9363C54.2255 59.418 54.3455 59.0223 54.4289 58.4408Z" fill="#E8B799"/>
<path d="M36.9465 53.4639C37.0099 53.4639 37.0733 53.4639 37.1386 53.4639C37.1503 53.66 37.1619 53.8562 37.1739 54.0583C37.1901 54.3188 37.2064 54.5792 37.2227 54.8397C37.2302 54.9686 37.2378 55.0976 37.2456 55.2304C37.2903 55.9326 37.3638 56.6064 37.5229 57.2923C37.3327 57.2291 37.1425 57.1659 36.9465 57.1009C36.9465 55.9007 36.9465 54.7004 36.9465 53.4639Z" fill="#AA7A62"/>
<path d="M89.7775 44.85C89.9839 45.6723 89.9657 45.8529 89.5854 46.5728C88.8853 47.0378 88.488 46.9866 87.6643 46.9556C87.6643 46.8924 87.6643 46.8293 87.6643 46.7642C88.1715 46.701 88.6787 46.6378 89.2012 46.5728C89.3914 46.0042 89.5816 45.4357 89.7775 44.85Z" fill="#FDDADA"/>
<path d="M47.5127 33.3647C47.5761 33.3647 47.6395 33.3647 47.7048 33.3647C47.7742 34.4019 47.7742 34.4019 47.4887 34.8602C47.0004 35.1684 46.5445 35.216 45.9758 35.279C45.9758 35.1526 45.9758 35.0263 45.9758 34.8961C46.1224 34.8566 46.269 34.8172 46.4201 34.7765C47.0944 34.4327 47.2296 34.0479 47.5127 33.3647Z" fill="#E67D6D"/>
<path d="M43.094 25.1337C43.3159 25.3069 43.5356 25.4829 43.7544 25.6601C43.877 25.7578 43.9996 25.8555 44.1259 25.9562C44.4749 26.3198 44.5549 26.557 44.6309 27.0479C44.4407 26.9847 44.2505 26.9215 44.0546 26.8565C43.8264 26.3659 43.8264 26.3659 43.6703 25.8993C43.4801 25.8993 43.2899 25.8993 43.094 25.8993C43.094 25.6467 43.094 25.394 43.094 25.1337Z" fill="#E77C6E"/>
<path d="M75.369 102.659C75.2464 102.684 75.1238 102.71 74.9975 102.736C74.7594 102.787 74.7594 102.787 74.5165 102.838C74.3582 102.872 74.2 102.905 74.0369 102.939C73.6445 103.005 73.6445 103.005 73.4478 103.233C73.0637 103.241 72.6793 103.241 72.2952 103.233C72.2952 103.107 72.2952 102.981 72.2952 102.85C72.663 102.781 73.0313 102.713 73.3998 102.647C73.6049 102.609 73.8099 102.571 74.0212 102.533C74.5521 102.473 74.8713 102.487 75.369 102.659Z" fill="#291913"/>
<path d="M41.365 102.085C41.9356 102.085 42.5061 102.085 43.094 102.085C43.1574 102.211 43.2208 102.337 43.2861 102.468C43.6751 102.592 43.6751 102.592 44.0546 102.659C44.0546 102.785 44.0546 102.912 44.0546 103.042C43.714 102.955 43.3739 102.867 43.034 102.779C42.7498 102.705 42.7498 102.705 42.4599 102.631C41.9413 102.468 41.9413 102.468 41.365 102.085Z" fill="#2E1523"/>
<path d="M105.147 83.134C105.273 83.1972 105.4 83.2604 105.531 83.3255C105.225 84.0979 104.9 84.8603 104.57 85.6225C104.443 85.5593 104.317 85.4962 104.186 85.4311C104.438 84.6205 104.752 83.8855 105.147 83.134Z" fill="#DC96B8"/>
<path d="M60.3843 64.7577C60.7646 65.0735 61.145 65.3894 61.5369 65.7148C61.4735 65.8411 61.4101 65.9675 61.3448 66.0976C61.0278 66.0345 60.7108 65.9713 60.3843 65.9062C60.3108 65.5892 60.2471 65.2698 60.1921 64.9491C60.2555 64.8859 60.3189 64.8228 60.3843 64.7577Z" fill="#DB7980"/>
<path d="M51.3549 57.2922C51.6085 57.4186 51.8621 57.5449 52.1233 57.6751C51.7534 58.142 51.3931 58.5941 50.9706 59.015C50.9466 58.369 50.9466 58.369 50.9706 57.6751C51.0974 57.5487 51.2242 57.4224 51.3549 57.2922Z" fill="#E8A981"/>
<path d="M35.6018 35.6617C35.89 35.913 35.89 35.913 36.1781 36.236C36.1781 36.4255 36.1781 36.615 36.1781 36.8103C36.6853 36.9366 37.1925 37.0629 37.715 37.1931C37.715 37.2563 37.715 37.3194 37.715 37.3845C36.4423 37.4324 36.4423 37.4324 35.7939 37.0017C35.6618 36.3078 35.6618 36.3078 35.6018 35.6617Z" fill="#E77C6D"/>
<path d="M45.0153 35.0875C45.2055 35.0875 45.3957 35.0875 45.5917 35.0875C45.5917 35.2139 45.5917 35.3402 45.5917 35.4704C43.7839 36.1297 43.7839 36.1297 42.9021 36.0446C43.5212 35.499 44.013 35.3866 44.8232 35.2789C44.8866 35.2158 44.95 35.1526 45.0153 35.0875Z" fill="#E87E6E"/>
<path d="M54.6208 26.0907C54.8744 26.2802 55.128 26.4697 55.3892 26.665C55.0722 26.9808 54.7553 27.2966 54.4287 27.6221C54.3019 27.2431 54.1751 26.864 54.0444 26.4735C54.2346 26.4735 54.4248 26.4735 54.6208 26.4735C54.6208 26.3472 54.6208 26.2209 54.6208 26.0907Z" fill="#F198C3"/>
<path d="M37.907 17.6682C37.5948 18.063 37.5948 18.063 37.1385 18.4339C36.5142 18.3861 36.5142 18.3861 35.9858 18.2425C36.6642 17.5358 36.9413 17.4404 37.907 17.6682Z" fill="#EFAC82"/>
<path d="M33.8726 15.754C33.9994 15.8172 34.1262 15.8804 34.2568 15.9454C34.0647 16.5197 34.0647 16.5197 33.7165 16.6992C33.5778 16.7663 33.4391 16.8334 33.2962 16.9026C33.0329 17.1504 32.775 17.4044 32.5278 17.6682C32.401 17.6051 32.2742 17.5419 32.1436 17.4768C32.7199 16.9026 33.2962 16.3283 33.8726 15.754Z" fill="#260F1B"/>
<path d="M95.3488 95.9592C95.539 96.0224 95.7292 96.0856 95.9251 96.1506C95.9251 96.277 95.9251 96.4033 95.9251 96.5335C95.4813 96.7862 95.0376 97.0388 94.5803 97.2992C94.5803 96.7249 94.5803 96.7249 94.9645 96.3062C95.0913 96.1917 95.2181 96.0772 95.3488 95.9592Z" fill="#EA99C0"/>
<path d="M17.7353 83.8998C17.8621 83.8998 17.9889 83.8998 18.1195 83.8998C18.1195 84.0261 18.1195 84.1525 18.1195 84.2826C18.2463 84.3458 18.3731 84.409 18.5037 84.474C18.1555 84.8569 18.1555 84.8569 17.7353 85.2397C17.5451 85.2397 17.3549 85.2397 17.1589 85.2397C17.5191 84.3305 17.5191 84.3305 17.7353 83.8998Z" fill="#E396BB"/>
<path d="M86.8958 32.9819C87.9856 32.9257 88.623 32.9808 89.5853 33.5561C89.5853 33.7457 89.5853 33.9352 89.5853 34.1304C89.4793 34.0403 89.3733 33.9503 89.2641 33.8575C88.7657 33.5217 88.3978 33.4293 87.8083 33.3288C87.6369 33.2985 87.4655 33.2681 87.289 33.2369C87.1592 33.2159 87.0295 33.1949 86.8958 33.1733C86.8958 33.1101 86.8958 33.047 86.8958 32.9819Z" fill="#DF7D84"/>
<path d="M75.5613 28.5792C75.6247 28.7056 75.6881 28.8319 75.7534 28.9621C75.373 29.4042 74.9926 29.8464 74.6007 30.302C74.3471 30.2388 74.0935 30.1757 73.8323 30.1106C74.4029 29.6052 74.9734 29.0999 75.5613 28.5792Z" fill="#260E1B"/>
<path d="M30.2225 19.9652C30.6068 20.5395 30.6068 20.5395 30.6068 20.9223C30.2945 21.249 29.9745 21.5687 29.6462 21.8794C29.5194 21.8162 29.3926 21.7531 29.262 21.688C29.5789 21.1195 29.8959 20.551 30.2225 19.9652Z" fill="#1E0B14"/>
<path d="M22.7302 106.87C23.2057 106.965 23.2057 106.965 23.6908 107.062C23.6908 107.188 23.6908 107.314 23.6908 107.445C24.0078 107.508 24.3248 107.571 24.6514 107.636C24.4612 107.92 24.4612 107.92 24.2671 108.21C24.0104 108.023 23.7544 107.836 23.4987 107.648C23.356 107.544 23.2134 107.439 23.0664 107.332C22.9555 107.243 22.8445 107.153 22.7302 107.062C22.7302 106.998 22.7302 106.935 22.7302 106.87Z" fill="#F4A8CE"/>
<path d="M96.6937 90.5995C96.7571 90.8522 96.8205 91.1048 96.8858 91.3652C96.5616 91.8078 96.5616 91.8078 96.1173 92.1309C95.8637 92.0677 95.6102 92.0045 95.3489 91.9394C95.7927 91.4973 96.2364 91.0551 96.6937 90.5995Z" fill="#190A06"/>
<path d="M99.7673 48.1041C100.276 48.5976 100.717 49.0452 101.112 49.6355C100.383 49.5317 100.061 49.2141 99.5752 48.6784C99.6386 48.4889 99.702 48.2994 99.7673 48.1041Z" fill="#230C16"/>
<path d="M80.556 37.3845C80.6828 37.4477 80.8096 37.5109 80.9402 37.5759C80.709 38.0533 80.4687 38.4721 80.1718 38.9159C79.9816 38.9159 79.7914 38.9159 79.5955 38.9159C79.859 38.3504 80.1696 37.8745 80.556 37.3845Z" fill="#E4868E"/>
<path d="M49.626 19.391C50.7406 20.4716 50.7406 20.4716 51.1629 21.1138C51.1629 21.2401 51.1629 21.3665 51.1629 21.4966C51.0361 21.4966 50.9093 21.4966 50.7787 21.4966C50.7787 21.3703 50.7787 21.2439 50.7787 21.1138C50.6519 21.1138 50.5251 21.1138 50.3944 21.1138C49.626 19.8217 49.626 19.8217 49.626 19.391Z" fill="#210813"/>
<path d="M25.2275 11.1599C25.3543 11.2231 25.4811 11.2862 25.6118 11.3513C25.2379 11.91 25.1071 12.0306 24.5431 12.3204C23.8769 12.6137 23.8769 12.6137 23.6906 13.0741C23.5638 13.011 23.437 12.9478 23.3064 12.8827C23.9153 12.2587 24.5358 11.6916 25.2275 11.1599Z" fill="#F0A1C8"/>
<path d="M86.1274 113.953C85.8204 114.119 85.5119 114.282 85.2028 114.443C85.0312 114.534 84.8596 114.625 84.6828 114.719C84.2062 114.91 84.2062 114.91 83.6299 114.718C84.3412 114.01 85.1554 113.635 86.1274 113.953Z" fill="#EFA5C8"/>
<path d="M94.1961 93.088C94.1961 93.9283 93.7873 94.1923 93.2355 94.8108C93.0453 94.6845 92.8551 94.5581 92.6592 94.428C93.1664 93.9858 93.6735 93.5436 94.1961 93.088Z" fill="#170906"/>
<path d="M15.4298 79.4971C15.3664 79.6866 15.303 79.8761 15.2377 80.0713C15.1109 80.0713 14.9841 80.0713 14.8535 80.0713C14.6633 80.3556 14.6633 80.3556 14.4692 80.6456C14.3424 80.6456 14.2156 80.6456 14.085 80.6456C14.085 80.9614 14.085 81.2773 14.085 81.6027C14.0216 81.6027 13.9582 81.6027 13.8929 81.6027C13.8209 81.0883 13.8209 81.0883 13.8929 80.4542C14.3015 79.9679 14.7639 79.4971 15.4298 79.4971Z" fill="#3A192A"/>
<path d="M106.299 59.0151C106.665 59.5616 106.772 59.8611 106.9 60.4867C106.932 60.6414 106.964 60.7961 106.997 60.9555C107.021 61.0732 107.044 61.1909 107.068 61.3122C106.814 61.249 106.561 61.1858 106.299 61.1208C106.299 60.4259 106.299 59.7311 106.299 59.0151Z" fill="#331826"/>
<path d="M44.6311 50.7839C45.0754 50.8198 45.0754 50.8198 45.5917 50.9754C45.9399 51.4659 45.9399 51.4659 46.168 51.9325C45.5917 51.9325 45.5917 51.9325 45.3253 51.6812C45.0939 51.3821 44.8625 51.083 44.6311 50.7839Z" fill="#DAA480"/>
<path d="M77.2902 26.2821C77.4803 26.3453 77.6705 26.4084 77.8665 26.4735C77.652 27.1148 77.5309 27.1997 76.99 27.5622C76.8669 27.6459 76.7438 27.7295 76.617 27.8157C76.5222 27.8781 76.4273 27.9406 76.3296 28.0049C76.393 27.7522 76.4564 27.4995 76.5217 27.2392C76.6485 27.2392 76.7753 27.2392 76.9059 27.2392C76.9059 27.1129 76.9059 26.9865 76.9059 26.8564C77.0327 26.8564 77.1595 26.8564 77.2902 26.8564C77.2902 26.6669 77.2902 26.4774 77.2902 26.2821Z" fill="#E195BB"/>
<path d="M46.7441 20.3481C47.2965 20.5949 47.7143 20.8253 48.0889 21.3052C48.221 21.8197 48.221 21.8197 48.281 22.2624C47.6494 21.667 47.1596 21.1107 46.7441 20.3481Z" fill="#250F07"/>
<path d="M62.6895 68.7776C63.0699 68.8723 63.0699 68.8723 63.458 68.969C63.458 69.0953 63.458 69.2217 63.458 69.3519C63.141 69.2887 62.824 69.2255 62.4974 69.1604C62.5608 69.0341 62.6242 68.9078 62.6895 68.7776ZM61.5369 69.3519C61.7905 69.3519 62.044 69.3519 62.3053 69.3519C62.3053 69.4782 62.3053 69.6045 62.3053 69.7347C62.0517 69.7347 61.7981 69.7347 61.5369 69.7347C61.5369 69.6084 61.5369 69.482 61.5369 69.3519Z" fill="#F37277"/>
<path d="M56.9263 57.4838C56.9897 57.6733 57.0531 57.8628 57.1184 58.058C56.7021 58.4936 56.2623 58.8539 55.7736 59.2066C55.6468 59.1434 55.52 59.0802 55.3894 59.0151C55.6536 58.728 55.6536 58.728 55.9657 58.4409C56.0925 58.4409 56.2193 58.4409 56.35 58.4409C56.4094 58.3185 56.4688 58.1961 56.5301 58.07C56.7342 57.6752 56.7342 57.6752 56.9263 57.4838Z" fill="#FEE9D6"/>
<path d="M98.6147 45.9985C99.1911 46.3814 99.1911 46.3814 99.3232 46.8839C99.3529 47.1089 99.3529 47.1089 99.3832 47.3385C99.5734 47.4016 99.7636 47.4648 99.9595 47.5299C99.8327 47.6562 99.7059 47.7826 99.5753 47.9127C98.6147 46.8599 98.6147 46.8599 98.6147 45.9985Z" fill="#E69BBF"/>
<path d="M22.538 43.1272C22.7281 43.1904 22.9183 43.2535 23.1143 43.3186C22.6705 43.7608 22.2267 44.203 21.7695 44.6586C21.7061 44.4691 21.6427 44.2796 21.5774 44.0843C21.8944 43.7685 22.2114 43.4526 22.538 43.1272Z" fill="#3B2217"/>
<path d="M28.1094 9.24573C28.1728 9.37207 28.2362 9.4984 28.3015 9.62857C27.7943 10.0076 27.2871 10.3866 26.7646 10.7771C26.6378 10.6508 26.511 10.5244 26.3804 10.3943C26.9509 10.0152 27.5215 9.63623 28.1094 9.24573Z" fill="#F3A9CC"/>
<path d="M31.9516 6.94861C32.0784 7.01178 32.2052 7.07495 32.3359 7.14003C31.8071 7.72549 31.3739 8.073 30.6069 8.28855C30.4167 8.22538 30.2265 8.16222 30.0305 8.09713C30.3415 7.89988 30.654 7.70488 30.9671 7.51091C31.1409 7.40209 31.3148 7.29327 31.4939 7.18115C31.7205 7.06604 31.7205 7.06604 31.9516 6.94861Z" fill="#F0AACA"/>
<path d="M33.8726 64.7577C34.1485 64.7422 34.4248 64.7311 34.701 64.7218C34.9317 64.7119 34.9317 64.7119 35.1671 64.7017C35.6935 64.7696 35.8497 64.9288 36.1779 65.332C35.9016 65.3101 35.6255 65.2857 35.3494 65.2602C35.1956 65.2469 35.0419 65.2336 34.8834 65.2198C34.4489 65.1406 34.4489 65.1406 33.8726 64.7577Z" fill="#F3B792"/>
<path d="M12.9323 52.3153C12.9957 52.3153 13.0591 52.3153 13.1244 52.3153C13.1244 52.8207 13.1244 53.326 13.1244 53.8467C12.744 54.0362 12.744 54.0362 12.356 54.2295C12.5461 53.5978 12.7363 52.9661 12.9323 52.3153Z" fill="#371926"/>
<path d="M51.355 28.0049C52.149 29.1917 52.149 29.1917 52.0514 29.7755C52.0118 29.8861 51.9721 29.9966 51.9313 30.1105C51.8045 30.0473 51.6777 29.9842 51.5471 29.9191C51.4675 29.4817 51.4675 29.4817 51.427 28.95C51.4127 28.7741 51.3983 28.5982 51.3835 28.4169C51.3741 28.2809 51.3647 28.145 51.355 28.0049Z" fill="#DAA482"/>
<path d="M31.9515 17.6682C32.0149 17.7946 32.0783 17.9209 32.1436 18.0511C31.8915 18.5535 31.8915 18.5535 31.5673 19.0082C31.4405 19.0082 31.3137 19.0082 31.1831 19.0082C31.1197 19.1977 31.0563 19.3872 30.9909 19.5824C30.9275 19.3929 30.8641 19.2034 30.7988 19.0082C31.0322 18.659 31.0322 18.659 31.3632 18.3023C31.4719 18.1831 31.5806 18.0639 31.6926 17.9411C31.778 17.8511 31.8635 17.761 31.9515 17.6682Z" fill="#210B18"/>
<path d="M35.9859 14.6054C35.5325 15.0069 35.3046 15.1738 34.6891 15.2156C34.4751 15.1978 34.4751 15.1978 34.2568 15.1797C34.3202 14.9902 34.3836 14.8007 34.4489 14.6054C35.081 14.3955 35.3544 14.4524 35.9859 14.6054Z" fill="#EE96C1"/>
<path d="M95.3489 108.21C95.4757 108.273 95.6025 108.337 95.7331 108.402C95.5232 108.599 95.3105 108.794 95.0968 108.988C94.9786 109.097 94.8605 109.205 94.7388 109.318C94.6232 109.394 94.5075 109.471 94.3884 109.55C94.1982 109.487 94.008 109.424 93.812 109.359C94.3192 108.98 94.8264 108.601 95.3489 108.21Z" fill="#FFE8F6"/>
<path d="M99.191 105.147C99.3178 105.211 99.4446 105.274 99.5752 105.339C99.2582 105.718 98.9412 106.097 98.6146 106.487C98.3611 106.424 98.1075 106.361 97.8462 106.296C98.29 105.917 98.7338 105.538 99.191 105.147Z" fill="#FDE8F8"/>
<path d="M43.4783 103.042C43.9854 103.105 44.4926 103.168 45.0152 103.233C44.5223 103.724 44.1551 103.72 43.4783 103.808C43.4783 103.555 43.4783 103.302 43.4783 103.042Z" fill="#EE94BE"/>
<path d="M22.1538 88.4939C22.5612 89.1704 22.6402 89.8231 22.7301 90.5995C22.3339 90.3004 22.3339 90.3004 21.9617 89.8338C22.0097 89.116 22.0097 89.116 22.1538 88.4939Z" fill="#391425"/>
<path d="M59.0395 88.3025C59.2297 88.492 59.4199 88.6815 59.6158 88.8768C59.3757 89.576 59.2948 89.7919 58.6553 90.2167C58.7585 89.5703 58.8686 88.9348 59.0395 88.3025Z" fill="#CAA795"/>
<path d="M59.2317 65.7148C58.5977 65.9675 57.9637 66.2202 57.3105 66.4805C57.3105 66.3542 57.3105 66.2279 57.3105 66.0977C58.3672 65.4995 58.3672 65.4995 59.2317 65.7148Z" fill="#1E0404"/>
<path d="M55.0052 59.3979C55.132 59.3979 55.2588 59.3979 55.3894 59.3979C55.1445 59.9423 54.9185 60.3814 54.4289 60.7379C54.0086 60.6781 54.0086 60.6781 53.6604 60.5465C53.7832 60.5267 53.9061 60.507 54.0326 60.4867C54.1634 60.4432 54.2941 60.3998 54.4289 60.3551C54.4922 60.1655 54.5556 59.976 54.621 59.7808C54.7478 59.7808 54.8746 59.7808 55.0052 59.7808C55.0052 59.6545 55.0052 59.5281 55.0052 59.3979Z" fill="#FDEDE0"/>
<path d="M93.8119 21.8795C94.1289 22.1322 94.4459 22.3849 94.7725 22.6452C94.1961 22.8366 94.1961 22.8366 93.5838 22.5615C93.4055 22.4628 93.2272 22.3641 93.0435 22.2624C93.297 22.136 93.5506 22.0097 93.8119 21.8795Z" fill="#E394BA"/>
<path d="M44.2827 17.6562C44.3976 17.7233 44.5125 17.7904 44.6309 17.8596C44.6309 18.0491 44.6309 18.2386 44.6309 18.4339C44.0709 18.2283 43.713 18.0935 43.2861 17.6682C43.8625 17.4767 43.8625 17.4767 44.2827 17.6562Z" fill="#210F09"/>
<path d="M43.4783 14.6055C44.2298 14.8267 44.799 15.0563 45.3994 15.5626C44.5674 15.5626 44.1948 15.3777 43.4783 14.9883C43.4783 14.862 43.4783 14.7356 43.4783 14.6055Z" fill="#260C19"/>
<path d="M77.2903 105.339C77.1635 105.339 77.0367 105.339 76.906 105.339C76.906 105.465 76.906 105.592 76.906 105.722C76.3537 105.746 76.3537 105.746 75.7534 105.722C75.6266 105.595 75.4998 105.469 75.3691 105.339C76.0729 105.195 76.6032 105.102 77.2903 105.339Z" fill="#D491B2"/>
<path d="M84.3985 99.4049C84.5253 99.4681 84.6521 99.5312 84.7827 99.5963C84.3226 100.151 83.9542 100.267 83.2458 100.362C83.1824 100.236 83.119 100.109 83.0537 99.9792C83.4963 99.775 83.9452 99.584 84.3985 99.4049Z" fill="#1F0E0C"/>
<path d="M24.267 92.1309C24.5206 92.3835 24.7742 92.6362 25.0355 92.8965C24.7185 93.0229 24.4015 93.1492 24.0749 93.2794C24.0115 93.0267 23.9481 92.774 23.8828 92.5137C24.0096 92.5137 24.1364 92.5137 24.267 92.5137C24.267 92.3874 24.267 92.261 24.267 92.1309Z" fill="#ED96C2"/>
<path d="M59.2316 86.9625C59.3584 86.9625 59.4852 86.9625 59.6159 86.9625C59.51 87.7185 59.3489 88.3693 59.0395 89.0682C58.9761 89.0682 58.9127 89.0682 58.8474 89.0682C58.8097 88.2606 58.8854 87.6956 59.2316 86.9625Z" fill="#F5E5DC"/>
<path d="M20.6169 55.3781C21.5535 56.2634 21.5535 56.2634 21.7696 56.9094C21.3013 56.7898 21.3013 56.7898 20.8091 56.5266C20.653 55.9284 20.653 55.9284 20.6169 55.3781Z" fill="#FEF0DF"/>
<path d="M11.9719 54.0381C12.0987 54.0381 12.2255 54.0381 12.3561 54.0381C12.2927 54.4803 12.2293 54.9224 12.164 55.378C11.9738 55.378 11.7836 55.378 11.5876 55.378C11.5876 55.0622 11.5876 54.7463 11.5876 54.4209C11.7144 54.4209 11.8412 54.4209 11.9719 54.4209C11.9719 54.2946 11.9719 54.1683 11.9719 54.0381Z" fill="#E493BD"/>
<path d="M17.5431 43.7014C17.6699 43.9541 17.7967 44.2068 17.9274 44.4671C17.6104 44.7829 17.2934 45.0988 16.9668 45.4242C17.0625 44.7093 17.1349 44.3116 17.5431 43.7014Z" fill="#E595BC"/>
<path d="M26.5723 40.2559C26.6357 40.3822 26.6991 40.5085 26.7644 40.6387C26.8912 40.7019 27.018 40.765 27.1487 40.8301C25.8759 41.4283 25.8759 41.4283 25.2275 41.213C25.6713 40.8971 26.1151 40.5813 26.5723 40.2559Z" fill="#E0AA87"/>
<path d="M21.0012 87.3453C21.445 87.6612 21.8888 87.977 22.346 88.3024C22.1558 88.5867 22.1558 88.5867 21.9618 88.8767C21.8984 88.6872 21.835 88.4977 21.7697 88.3024C21.5795 88.2393 21.3893 88.1761 21.1933 88.111C21.1299 87.8583 21.0665 87.6057 21.0012 87.3453Z" fill="#E5A8C7"/>
<path d="M17.5431 85.2397C17.6065 85.2397 17.6699 85.2397 17.7352 85.2397C18.1469 86.6617 18.1469 86.6617 18.3116 87.3454C17.9273 87.0463 17.9273 87.0463 17.5431 86.5797C17.4951 85.8619 17.4951 85.8619 17.5431 85.2397Z" fill="#250813"/>
<path d="M107.068 61.5035C107.131 61.5035 107.195 61.5035 107.26 61.5035C107.697 63.0417 107.697 63.0417 107.452 63.8006C107.042 63.1873 107.023 63.0312 107.044 62.329C107.047 62.1743 107.051 62.0196 107.054 61.8602C107.059 61.7425 107.063 61.6248 107.068 61.5035Z" fill="#3E1D2C"/>
<path d="M103.226 52.5068C104.09 52.9375 104.09 52.9375 104.378 53.6554C104.251 53.7817 104.125 53.908 103.994 54.0382C103.74 53.5329 103.487 53.0275 103.226 52.5068Z" fill="#E898BF"/>
<path d="M15.2377 47.9127C15.4298 48.487 15.4298 48.487 15.2857 48.9895C15.0456 49.4441 15.0456 49.4441 14.4692 49.6355C14.6726 48.9841 14.8552 48.4844 15.2377 47.9127Z" fill="#250D19"/>
<path d="M100.152 48.2955C100.469 48.2955 100.786 48.2955 101.112 48.2955C101.176 48.485 101.239 48.6745 101.304 48.8698C101.114 48.9961 100.924 49.1225 100.728 49.2526C100.538 48.9368 100.348 48.6209 100.152 48.2955Z" fill="#E897BF"/>
<path d="M71.3347 32.0248C71.5883 32.0879 71.8418 32.1511 72.1031 32.2162C71.5325 32.69 71.5325 32.69 70.9504 33.1733C70.9504 32.9206 70.9504 32.668 70.9504 32.4076C71.0772 32.4076 71.204 32.4076 71.3347 32.4076C71.3347 32.2813 71.3347 32.1549 71.3347 32.0248Z" fill="#DE92B8"/>
<path d="M46.7441 30.8762C47.1284 31.2591 47.1284 31.2591 47.1524 31.8573C47.1444 32.0389 47.1365 32.2205 47.1284 32.4076C47.0016 32.4076 46.8748 32.4076 46.7441 32.4076C46.528 31.3069 46.528 31.3069 46.7441 30.8762Z" fill="#E97B70"/>
<path d="M7.55312 30.8762C7.61652 30.8762 7.67991 30.8762 7.74523 30.8762C7.81617 31.7479 7.81617 31.7479 7.45706 32.1803C7.36197 32.2553 7.26687 32.3303 7.16889 32.4076C7.0421 32.3444 6.9153 32.2812 6.78467 32.2162C7.03826 31.774 7.29185 31.3318 7.55312 30.8762Z" fill="#F3A2C7"/>
<path d="M36.1781 17.4768C36.4317 17.54 36.6853 17.6031 36.9465 17.6682C36.376 17.9841 35.8054 18.2999 35.2175 18.6253C35.6018 17.8596 35.6018 17.8596 36.1781 17.4768Z" fill="#240F06"/>
<path d="M45.7837 15.754C46.2909 16.0699 46.798 16.3857 47.3206 16.7111C47.067 16.7743 46.8134 16.8375 46.5521 16.9026C46.1199 16.5556 46.1199 16.5556 45.7837 16.1369C45.7837 16.0105 45.7837 15.8842 45.7837 15.754Z" fill="#240E1B"/>
</svg>
