<svg width="120" height="120" viewBox="0 0 120 120" fill="none" xmlns="http://www.w3.org/2000/svg">
<path d="M55.0504 0.0168273C62.399 -0.0937869 69.3645 0.301296 76.4605 2.39536C76.7969 2.49188 77.1361 2.57867 77.4755 2.66433C79.5842 3.20692 81.5532 4.09175 83.5493 4.94972C84.2229 5.233 84.9037 5.49534 85.5877 5.75233C86.033 5.95651 86.378 6.21794 86.7655 6.51537C87.1758 6.65015 87.1758 6.65015 87.5298 6.7065C87.5298 6.83265 87.5298 6.9588 87.5298 7.08877C87.6894 7.13608 87.8489 7.18338 88.0134 7.23212C88.7607 7.50156 89.4198 7.84415 90.109 8.23557C90.3086 8.34845 90.3086 8.34845 90.5122 8.46362C91.7695 9.18879 92.941 10.0118 94.1042 10.8778C94.5632 11.2177 95.0296 11.5471 95.4944 11.8791C98.0627 13.7612 100.384 15.9146 102.623 18.1745C102.735 18.2842 102.847 18.3938 102.962 18.5068C103.662 19.1947 104.321 19.9064 104.961 20.6503C105.191 20.9174 105.424 21.1821 105.659 21.4447C105.776 21.5758 105.894 21.7069 106.014 21.8419C106.12 21.9589 106.225 22.076 106.334 22.1965C106.635 22.5706 106.635 22.5706 106.916 23.0387C107.216 23.5389 107.551 23.963 107.925 24.4103C108.73 25.4043 109.411 26.4474 110.074 27.5401C110.173 27.7019 110.271 27.8638 110.372 28.0306C110.563 28.348 110.753 28.6661 110.942 28.9848C111.123 29.2877 111.306 29.5889 111.493 29.8882C115.134 35.7687 117.4 42.5616 118.672 49.3293C118.706 49.4991 118.741 49.6688 118.776 49.8437C119.831 55.4619 119.71 61.4184 119.102 67.0808C119.087 67.2244 119.072 67.3681 119.056 67.516C118.84 69.5344 118.436 71.454 117.908 73.4121C117.828 73.7293 117.749 74.0465 117.671 74.3641C116.772 77.9202 115.575 81.3103 114.079 84.6584C113.931 84.9914 113.788 85.3266 113.648 85.6626C112.53 88.2872 110.935 90.7649 109.31 93.0989C109.136 93.3547 108.961 93.6106 108.787 93.8664C107.67 95.4916 106.49 97.0203 105.183 98.4969C104.714 99.0138 104.714 99.0138 104.343 99.5974C104.217 99.5974 104.09 99.5974 103.96 99.5974C103.908 99.7105 103.855 99.8236 103.801 99.9401C103.132 101.208 101.985 102.13 100.904 103.038C100.668 103.237 100.434 103.436 100.199 103.635C100.1 103.718 100.001 103.802 99.8983 103.887C99.6312 104.127 99.3751 104.378 99.1229 104.633C98.5796 105.171 98.0129 105.674 97.4288 106.168C97.32 106.26 97.2112 106.352 97.0991 106.446C96.1764 107.217 95.2136 107.909 94.2167 108.581C93.8981 108.807 93.5796 109.034 93.2614 109.262C92.3316 109.911 91.3774 110.498 90.3956 111.065C90.1781 111.193 89.9607 111.321 89.7366 111.452C81.6102 116.169 72.1413 119.335 62.6926 119.475C62.4432 119.48 62.1938 119.485 61.9368 119.49C58.2014 119.56 54.5466 119.494 50.8472 118.902C50.5873 118.86 50.5873 118.86 50.3223 118.818C45.915 118.09 41.2695 117.108 37.2345 115.132C36.78 114.921 36.3267 114.738 35.8598 114.558C34.7084 114.101 33.6023 113.561 32.4948 113.007C32.1503 112.835 31.8046 112.665 31.4588 112.496C29.9431 111.74 28.5418 110.892 27.1564 109.919C27.003 109.812 26.8497 109.705 26.6917 109.595C26.2799 109.307 25.87 109.016 25.4608 108.724C25.1907 108.532 24.9205 108.34 24.6503 108.148C24.525 108.058 24.3997 107.969 24.2706 107.877C23.9317 107.641 23.5869 107.419 23.2382 107.198C23.0026 107.031 23.0026 107.031 22.7621 106.861C22.7621 106.734 22.7621 106.608 22.7621 106.478C22.6495 106.427 22.537 106.375 22.421 106.321C21.6736 105.923 21.0927 105.326 20.4694 104.758C20.2855 104.592 20.1015 104.425 19.9119 104.254C16.3846 101.045 13.2083 97.6323 10.5346 93.6723C10.3884 93.461 10.2421 93.2497 10.0957 93.0384C8.92529 91.3323 7.90406 89.5656 6.92197 87.7453C6.72802 87.3914 6.5266 87.0432 6.32241 86.6952C2.62489 80.2535 0.882246 72.306 0.217601 65.0023C0.199315 64.832 0.181029 64.6617 0.162188 64.4862C-0.00984376 62.7596 -0.00242994 61.034 0.00163838 59.3007C0.00267417 58.7736 0.00163719 58.2465 0.000425629 57.7194C0.000551685 57.3833 0.000796062 57.0472 0.00117194 56.7111C0.000785199 56.554 0.000398459 56.3969 0 56.2351C0.00260726 55.6047 0.0169247 55.0922 0.217601 54.4899C0.2745 53.9962 0.325096 53.5032 0.372834 53.0086C0.904092 48.0122 2.04037 43.1263 3.84765 38.4347C3.91685 38.2524 3.98606 38.07 4.05736 37.8822C5.23328 34.9306 6.67002 32.0208 8.24191 29.2603C8.34043 29.0814 8.43894 28.9025 8.54044 28.7182C8.63107 28.5817 8.7217 28.4452 8.81508 28.3046C8.94118 28.3046 9.06727 28.3046 9.19719 28.3046C9.21394 28.2031 9.23068 28.1016 9.24794 27.997C9.90491 25.8575 11.8382 23.8989 13.2533 22.2141C13.4963 21.9209 13.7355 21.6246 13.9722 21.3264C15.0054 20.0313 16.11 18.8447 17.2843 17.6796C17.5795 17.3863 17.8726 17.091 18.1656 16.7955C19.381 15.5779 20.646 14.4632 21.9979 13.3962C22.2213 13.2141 22.4445 13.0317 22.6673 12.8489C27.2001 9.21769 32.2792 6.31018 37.6761 4.17753C38.008 4.04589 38.3386 3.91081 38.6689 3.77529C43.7508 1.73391 49.5483 0.208191 55.0504 0.399095C55.0504 0.272946 55.0504 0.146798 55.0504 0.0168273Z" fill="#FBA972"/>
<path d="M62.788 25.2106C62.9145 25.2106 63.041 25.2107 63.1714 25.2107C65.2023 25.2146 67.1815 25.3175 69.1883 25.6287C69.3299 25.6492 69.4715 25.6697 69.6174 25.6908C78.8615 27.032 87.8678 31.1272 94.7472 37.4723C95.1314 37.8243 95.5249 38.1596 95.9241 38.4944C101.236 43.1585 104.644 49.7978 106.253 56.5923C106.298 56.7821 106.344 56.9718 106.39 57.1672C107.801 63.6205 106.654 71.2532 103.96 77.2348C103.889 77.3929 103.818 77.5511 103.745 77.7141C100.016 85.9462 94.2028 92.2257 86.3833 96.7304C86.2562 96.8045 86.1291 96.8785 85.9982 96.9548C82.433 99.0119 78.5339 100.541 74.5379 101.509C74.3539 101.56 74.1699 101.612 73.9804 101.665C70.7496 102.556 67.2806 103.066 63.9291 103.07C63.646 103.071 63.646 103.071 63.3572 103.072C62.9592 103.073 62.5611 103.073 62.1631 103.073C61.5657 103.074 60.9684 103.077 60.3711 103.081C57.3703 103.089 54.453 102.891 51.5038 102.309C51.3365 102.276 51.1691 102.244 50.9967 102.21C49.3848 101.884 47.824 101.446 46.2617 100.935C46.1143 100.888 45.967 100.841 45.8151 100.793C40.1201 98.9638 34.8036 96.0474 30.4258 91.9401C30.0168 91.5559 30.0168 91.5559 29.531 91.1815C28.8384 90.6201 28.3038 89.955 27.7294 89.2762C27.5853 89.1151 27.4412 88.9539 27.2928 88.7879C25.1889 86.3797 23.6236 83.6133 22.3798 80.6752C22.3189 80.5362 22.258 80.3973 22.1952 80.2541C21.6471 78.9593 21.3125 77.6492 21.0066 76.2791C20.957 76.0667 20.9074 75.8543 20.8562 75.6355C18.898 67.03 20.7105 57.0424 25.2263 49.5077C25.7277 48.7807 25.7277 48.7807 26.4069 48.5953C27.1023 48.7953 27.3893 49.0696 27.8727 49.604C28.658 50.4864 28.658 50.4864 29.7832 50.7389C30.417 50.7331 30.7578 50.6238 31.252 50.2252C31.9326 49.5111 32.0466 48.8609 32.0341 47.9032C31.7498 46.5438 30.5517 45.5568 29.4489 44.8137C29.1961 44.6591 28.9421 44.5064 28.6846 44.3598C28.9238 43.6874 29.1864 43.205 29.6638 42.6754C29.8182 42.5021 29.8182 42.5021 29.9758 42.3253C30.0541 42.2398 30.1324 42.1543 30.2131 42.0662C30.7462 42.1632 31.2431 42.282 31.7587 42.4522C32.6108 42.6973 33.4393 42.7028 34.3208 42.6993C34.5546 42.7039 34.5546 42.7039 34.7932 42.7086C35.9788 42.7096 36.9557 42.5755 37.8381 41.7071C38.2204 40.9628 38.1673 40.2032 38.0463 39.3903C37.6442 38.7105 37.4571 38.493 36.709 38.2435C36.2519 38.2004 35.7939 38.1654 35.3358 38.136C34.9711 38.112 34.9711 38.112 34.5991 38.0875C34.4127 38.0759 34.2263 38.0643 34.0342 38.0524C35.4978 36.2321 37.2416 34.8011 39.1091 33.4174C39.2579 33.3069 39.4067 33.1963 39.56 33.0825C40.6115 32.315 41.6972 31.6335 42.8227 30.9804C42.9595 30.8999 43.0963 30.8193 43.2373 30.7363C44.8669 29.7824 46.5153 28.9198 48.2559 28.1851C48.4107 28.1196 48.5656 28.0541 48.7252 27.9866C49.8147 27.54 49.8147 27.54 50.4649 27.54C50.8355 28.0968 51.1655 28.6602 51.4836 29.2479C51.9013 29.9576 52.0465 30.1775 52.874 30.4078C53.5201 30.4411 53.5201 30.4411 54.095 30.2159C54.4317 29.7612 54.478 29.4932 54.4651 28.9257C54.2598 28.2137 53.9369 27.7095 53.5143 27.107C53.4538 26.9976 53.3932 26.8882 53.3308 26.7755C53.3938 26.6493 53.4568 26.5232 53.5218 26.3932C53.9341 26.2651 53.9341 26.2651 54.4763 26.1536C54.674 26.1125 54.8716 26.0715 55.0752 26.0292C55.2837 25.9877 55.4922 25.9462 55.707 25.9034C55.9088 25.8612 56.1107 25.8189 56.3186 25.7754C58.4896 25.3325 60.5734 25.209 62.788 25.2106Z" fill="#FDFDFD"/>
<path d="M58.6208 5.65528C58.7863 5.65411 58.9518 5.65294 59.1224 5.65173C61.5617 5.69896 63.6322 6.60152 65.3316 8.35504C66.6924 9.97232 67.2545 11.5888 67.166 13.7031C66.9542 15.4401 66.3138 16.8286 64.9853 17.9834C63.302 19.199 61.7114 19.702 59.6357 19.5125C58.2986 19.2296 57.3811 18.7269 56.543 17.625C55.9369 16.5795 55.6091 15.5662 55.8146 14.3519C56.2771 12.999 56.8714 12.1947 58.1073 11.4849C59.1876 11.1246 60.3625 11.088 61.3911 11.5924C61.7373 12.0583 61.7373 12.0583 61.8448 12.7272C61.7373 13.3962 61.7373 13.3962 61.4508 13.8501C60.784 14.2837 60.2342 14.2754 59.4447 14.3519C58.984 14.7258 58.984 14.7258 59.0387 15.427C59.0466 15.6399 59.0544 15.8527 59.0626 16.0721C60.1148 16.423 61.1801 16.4164 62.203 15.9884C62.3646 15.8899 62.5262 15.7913 62.6926 15.6898C62.8818 15.6267 63.0709 15.5636 63.2658 15.4987C63.484 15.158 63.484 15.158 63.6479 14.7341C63.7543 14.5153 63.7543 14.5153 63.8628 14.2921C64.1766 13.3279 64.1294 12.5592 63.6957 11.6521C63.5565 11.4029 63.4134 11.1557 63.2658 10.9115C63.1121 10.6572 63.1121 10.6572 62.9553 10.3978C61.7834 9.25625 60.2618 8.79479 58.6566 8.74926C56.5398 8.77764 54.4159 9.80963 52.9354 11.3131C51.3673 13.235 50.5799 15.3337 50.5845 17.8042C50.5845 17.9612 50.5846 18.1182 50.5846 18.2799C50.6187 20.1358 51.0911 21.8145 51.8025 23.5263C52.9444 23.4173 54.0213 23.2366 55.134 22.9648C59.7644 21.9018 64.4928 21.9804 69.1885 22.5706C69.3364 22.588 69.4844 22.6055 69.6368 22.6234C72.3664 22.9536 74.9687 23.6838 77.5949 24.4819C77.7543 24.53 77.9138 24.5781 78.0781 24.6276C84.8094 26.6839 91.3166 30.1793 96.4825 34.9965C96.8483 35.3364 97.2239 35.655 97.6079 35.9739C101.475 39.3567 104.496 43.7271 106.635 48.3736C106.739 48.5976 106.843 48.8216 106.95 49.0523C108.566 52.674 109.696 56.7004 109.738 60.6824C109.74 60.8322 109.741 60.9821 109.743 61.1365C109.79 65.886 109.472 70.3977 107.973 74.9412C107.894 75.1818 107.894 75.1818 107.815 75.4273C106.616 79.0574 105.049 82.5319 102.814 85.6447C102.686 85.8389 102.558 86.033 102.425 86.233C100.151 89.6522 97.2599 92.6803 94.0256 95.2014C93.8446 95.3497 93.6636 95.498 93.4771 95.6508C87.1147 100.759 79.0443 103.893 71.0752 105.367C70.916 105.397 70.7568 105.426 70.5929 105.457C67.6286 105.98 64.7199 106.174 61.7135 106.168C61.4397 106.168 61.4397 106.168 61.1604 106.168C57.8579 106.162 54.675 105.911 51.4204 105.331C51.255 105.303 51.0897 105.274 50.9193 105.245C49.9254 105.067 48.9549 104.834 47.9814 104.567C47.8048 104.52 47.6282 104.473 47.4463 104.424C42.8004 103.161 38.2611 101.29 34.2254 98.6418C34.0948 98.5566 33.9643 98.4714 33.8298 98.3836C26.0538 93.2661 19.8664 85.7814 17.9312 76.4957C16.4688 68.9166 16.6144 58.6048 20.8516 51.814C21.2449 51.664 21.2449 51.664 21.6994 51.611C22.9113 51.3293 23.5184 50.5296 24.286 49.6104C24.5326 49.3171 24.7928 49.0355 25.0548 48.7559C25.2439 48.7559 25.4331 48.7559 25.6279 48.7559C25.3597 49.6436 24.9844 50.436 24.5532 51.2526C23.1975 53.8969 22.098 56.7547 21.4247 59.6505C21.3841 59.8161 21.3434 59.9816 21.3015 60.1522C20.6328 62.9454 20.3797 65.6294 20.3859 68.4905C20.3859 68.6385 20.3858 68.7865 20.3858 68.9389C20.4093 76.6803 22.9998 83.9079 28.2945 89.61C28.566 89.9096 28.8264 90.2195 29.0774 90.5365C29.6376 91.2298 30.2938 91.7656 30.9775 92.3344C31.1265 92.4598 31.1265 92.4598 31.2785 92.5879C33.0581 94.0801 34.9007 95.3609 36.9002 96.5393C37.0215 96.6124 37.1428 96.6855 37.2677 96.7609C42.0613 99.6456 47.4944 101.462 52.9966 102.405C53.1296 102.428 53.2627 102.45 53.3998 102.474C55.8335 102.866 58.2699 102.888 60.729 102.893C61.3108 102.894 61.8925 102.9 62.4743 102.906C65.1365 102.921 67.7061 102.686 70.3348 102.273C70.4786 102.251 70.6224 102.229 70.7706 102.206C74.7389 101.593 78.5206 100.263 82.1802 98.6418C82.3386 98.5723 82.4969 98.5028 82.66 98.4312C88.7161 95.7498 94.3413 91.6601 98.4199 86.4092C98.5032 86.3023 98.5865 86.1953 98.6723 86.0851C100.88 83.2284 102.476 80.1345 103.961 76.8526C104.081 76.5883 104.081 76.5883 104.205 76.3187C107.462 68.7151 107.59 59.2665 104.618 51.576C104.039 50.1479 103.348 48.7762 102.623 47.418C102.519 47.2219 102.416 47.0257 102.309 46.8237C98.6256 40.1892 92.7132 35.234 86.1924 31.5539C86.0564 31.4756 85.9204 31.3974 85.7802 31.3167C76.2628 25.8641 64.1783 23.7956 53.522 26.5844C53.7993 27.1524 54.0666 27.6904 54.4295 28.209C54.7428 28.836 54.6651 29.1687 54.4772 29.8337C54.0951 30.4071 54.0951 30.4071 53.3667 30.5982C52.729 30.6511 52.6109 30.6298 52.0652 30.2398C50.4651 28.1336 50.4651 28.1336 50.4651 27.5401C47.8171 28.5935 45.2513 29.6731 42.8229 31.1716C42.6556 31.2731 42.6556 31.2731 42.485 31.3766C39.8276 32.995 37.3654 34.8495 35.118 37.0019C33.994 38.0524 33.994 38.0524 33.2701 38.0524C32.5438 37.8102 32.3139 37.5657 31.9327 36.9056C31.8253 36.3322 31.8253 36.3322 31.9327 35.7588C32.3268 35.2929 32.3268 35.2929 32.888 34.8032C33.0756 34.6045 33.2626 34.4054 33.4492 34.2059C37.2194 30.4504 42.0345 27.8041 46.835 25.6287C47.0237 25.5415 47.2123 25.4543 47.4067 25.3644C48.5012 24.8642 48.5012 24.8642 48.9366 24.8642C48.8583 24.638 48.78 24.4118 48.6993 24.1788C47.3372 20.2059 46.718 16.4191 48.4247 12.4234C49.678 9.98077 51.5916 7.89236 54.0951 6.70651C54.2579 6.62151 54.4207 6.53651 54.5884 6.44893C55.9522 5.82018 57.1307 5.66107 58.6208 5.65528Z" fill="#070404"/>
<path d="M72.6871 46.0203C73.8938 47.0019 74.5698 48.2076 74.92 49.7115C75.0966 51.8339 74.9094 53.6314 73.7737 55.4455C74.0268 55.5084 74.0268 55.5084 74.2849 55.5725C77.039 56.3005 79.229 57.3722 80.751 59.8864C81.6374 61.5431 81.6101 63.2925 81.1293 65.0739C79.9109 68.7179 77.0445 70.8519 73.7517 72.5038C71.3671 73.6692 69.0139 74.2856 66.3465 74.2602C66.1282 74.2585 65.9099 74.2568 65.6849 74.255C64.0515 74.2215 62.6788 74.0613 61.1641 73.4121C60.982 73.3367 60.982 73.3367 60.7962 73.2597C57.3574 71.8068 54.759 69.2645 53.3308 65.7667C53.0435 64.9464 52.7972 64.1199 52.5666 63.282C52.523 63.1391 52.4794 62.9962 52.4345 62.849C51.624 59.8777 52.2712 56.4554 53.6532 53.7492C56.1403 49.6554 59.6098 47.0258 64.0299 45.3155C64.2058 45.2462 64.3816 45.177 64.5628 45.1057C67.2217 44.2203 70.3579 44.4537 72.6871 46.0203Z" fill="#FAA972"/>
<path d="M46.5243 49.3412C47.8185 50.0865 48.7419 50.9988 49.3185 52.3874C49.5063 53.7111 49.5678 55.057 48.8409 56.222C48.039 57.2243 47.0831 57.9676 45.8915 58.444C45.6984 58.5267 45.5053 58.6095 45.3064 58.6948C45.2433 58.884 45.1803 59.0733 45.1153 59.2682C45.2414 59.2682 45.3675 59.2682 45.4974 59.2682C45.931 59.873 46.2794 60.5313 46.6438 61.1796C46.7157 61.2983 46.7876 61.4171 46.8617 61.5394C48.5414 64.5136 48.8908 69.1016 48.1364 72.3848C47.8282 73.4253 47.3636 74.3783 46.8348 75.3234C46.7087 75.3234 46.5826 75.3234 46.4527 75.3234C46.4527 75.4496 46.4527 75.5757 46.4527 75.7057C46.3266 75.7057 46.2005 75.7057 46.0706 75.7057C45.9445 76.0211 45.8184 76.3365 45.6885 76.6614C45.5624 76.6614 45.4363 76.6614 45.3064 76.6614C45.3064 76.7875 45.3064 76.9137 45.3064 77.0436C44.9705 77.305 44.9705 77.305 44.5183 77.5932C44.372 77.6873 44.2257 77.7814 44.075 77.8784C43.9139 77.9814 43.7528 78.0843 43.5869 78.1905C43.3072 78.3848 43.3072 78.3848 43.0219 78.5832C41.1477 79.7818 39.1196 79.7928 36.9597 79.8031C36.7237 79.8051 36.4877 79.807 36.2446 79.8089C33.0034 79.7785 30.5865 78.7674 28.3025 76.4702C27.3472 75.4566 27.3472 75.4566 27.3472 74.9412C27.2211 74.9412 27.095 74.9412 26.9651 74.9412C26.575 74.3858 26.3919 74.0999 26.3919 73.4121C26.2658 73.4121 26.1397 73.4121 26.0098 73.4121C25.9468 73.1598 25.8837 72.9075 25.8188 72.6476C25.6927 72.6476 25.5666 72.6476 25.4366 72.6476C24.7277 70.5197 24.7277 70.5197 24.6022 70.1359C24.4997 69.8345 24.383 69.538 24.2634 69.243C24.0222 68.3477 24.0262 67.4788 24.0276 66.5552C24.0278 66.3609 24.028 66.1667 24.0281 65.9665C24.0611 63.8436 24.4319 61.9249 25.4366 60.0328C25.5627 60.0328 25.6888 60.0328 25.8188 60.0328C25.8621 59.8632 25.9054 59.6937 25.9501 59.5191C26.243 58.7796 26.5704 58.4642 27.1561 57.9303C27.281 57.7802 27.281 57.7802 27.4084 57.6272C28.8316 55.9797 31.5097 54.7448 33.652 54.4899C35.5962 54.3808 37.504 54.3175 39.3837 54.8722C39.3726 54.7127 39.3615 54.5533 39.3501 54.3891C39.2907 52.9071 39.3613 51.826 40.3389 50.6672C42.0921 49.0148 44.2118 48.2642 46.5243 49.3412Z" fill="#FBCDAF"/>
<path d="M88.879 36.0694C89.0379 36.0691 89.1968 36.0689 89.3606 36.0686C90.7648 36.0924 91.9535 36.3794 93.2613 36.9056C93.3243 36.7794 93.3874 36.6533 93.4523 36.5233C94.3349 36.9261 94.95 37.5352 95.6495 38.1957C95.7838 38.3224 95.9182 38.4492 96.0566 38.5798C96.944 39.4291 97.7922 40.3035 98.5989 41.23C98.6947 41.3383 98.7905 41.4467 98.8892 41.5583C99.4096 42.1734 99.6397 42.6144 99.7572 43.4041C99.9317 43.7549 100.116 44.1011 100.306 44.4434C101.584 46.975 101.97 50.237 101.331 53.022C101.155 53.4767 100.96 53.8797 100.712 54.2987C100.603 54.5012 100.603 54.5012 100.492 54.7079C100.318 55.022 100.135 55.3302 99.9482 55.6367C99.8221 55.6367 99.696 55.6367 99.5661 55.6367C99.5154 55.751 99.4646 55.8653 99.4124 55.9831C98.7891 57.1241 97.5101 57.8769 96.3182 58.3125C95.4317 58.5615 94.5412 58.7818 93.6437 58.9864C93.3869 59.0473 93.1312 59.1125 92.8767 59.1819C90.6159 59.7955 88.1472 59.6439 86.0012 58.6948C84.9656 58.0785 83.9257 57.3135 83.1354 56.4012C83.1354 56.275 83.1354 56.1489 83.1354 56.0189C82.9462 55.9558 82.7571 55.8928 82.5622 55.8278C82.3174 55.4731 82.3174 55.4731 82.0846 55.0274C82.0023 54.8707 81.92 54.714 81.8353 54.5526C81.7223 54.3323 81.7223 54.3323 81.6069 54.1076C81.5045 53.9223 81.402 53.737 81.2965 53.5461C80.4443 51.6474 80.2358 49.7626 80.2576 47.7046C80.2585 47.5474 80.2593 47.3902 80.2602 47.2283C80.2624 46.8455 80.2659 46.4627 80.2695 46.08C80.1532 46.1106 80.0369 46.1412 79.917 46.1727C78.5727 46.494 77.2796 46.3603 76.0536 45.735C74.9877 45.0758 74.2442 44.0609 73.852 42.871C73.6272 41.6586 73.4864 40.1076 74.0961 38.9961C75.034 37.8041 76.0554 36.8178 77.5948 36.5233C79.9335 36.3194 81.1632 37.013 82.9443 38.4346C83.0529 38.3447 83.1615 38.2548 83.2734 38.1621C84.1572 37.4492 84.9324 36.9066 86.0012 36.5233C86.1677 36.457 86.3342 36.3907 86.5057 36.3225C87.3109 36.0948 88.046 36.068 88.879 36.0694Z" fill="#FBCCAF"/>
<path d="M72.6871 46.0203C73.8938 47.0019 74.5698 48.2076 74.92 49.7115C75.0966 51.8339 74.9094 53.6314 73.7737 55.4455C74.0268 55.5084 74.0268 55.5084 74.2849 55.5725C77.039 56.3005 79.229 57.3722 80.751 59.8864C81.6374 61.5431 81.6101 63.2925 81.1293 65.0739C79.9109 68.7179 77.0445 70.8519 73.7517 72.5038C71.3671 73.6692 69.0139 74.2856 66.3465 74.2602C66.1282 74.2585 65.9099 74.2568 65.6849 74.255C64.0515 74.2215 62.6788 74.0613 61.1641 73.4121C60.982 73.3367 60.982 73.3367 60.7962 73.2597C57.3574 71.8068 54.759 69.2645 53.3308 65.7667C53.0435 64.9464 52.7972 64.1199 52.5666 63.282C52.523 63.1391 52.4794 62.9962 52.4345 62.849C51.624 59.8777 52.2712 56.4554 53.6532 53.7492C56.1403 49.6554 59.6098 47.0258 64.0299 45.3155C64.2058 45.2462 64.3816 45.177 64.5628 45.1057C67.2217 44.2203 70.3579 44.4537 72.6871 46.0203ZM59.4446 51.4317C59.2045 51.6176 59.2045 51.6176 58.9595 51.8073C57.1057 53.341 55.767 55.7911 55.2414 58.1214C55.1863 58.7119 55.1776 59.2966 55.1817 59.8894C55.1826 60.05 55.1836 60.2107 55.1845 60.3762C55.2377 63.2055 56.3865 66.0589 58.3401 68.1268C61.136 70.7779 64.0704 71.2241 67.7712 71.17C69.0473 71.1255 70.1215 70.8701 71.29 70.354C71.4106 70.3016 71.5311 70.2493 71.6553 70.1954C74.4769 68.9495 77.0098 67.2571 78.2269 64.3071C78.5297 63.2719 78.4941 62.321 78.1322 61.3109C77.1311 59.8259 75.85 59.1302 74.1558 58.6948C73.5322 58.6192 72.9206 58.6129 72.293 58.6231C72.1268 58.6241 71.9605 58.6251 71.7891 58.6261C70.5821 58.6494 69.5223 58.8348 68.357 59.151C67.6555 59.3135 67.1991 59.2904 66.5136 59.0771C66.0689 58.4098 66.0354 58.142 66.1315 57.3569C66.6917 56.6546 67.2349 56.4323 68.0779 56.1623C69.6259 55.5933 70.8073 54.7732 71.5766 53.2833C72.0863 52.0298 72.2436 51.0644 71.8273 49.7713C71.2715 48.7549 70.6761 48.1504 69.5705 47.8002C65.6333 47.4217 62.4042 48.9035 59.4446 51.4317Z" fill="#060404"/>
<path d="M31.1684 30.7894C31.7957 31.1351 32.0322 31.3883 32.3745 32.0078C32.5707 32.7574 32.6268 33.3759 32.3155 34.0976C32.0969 34.684 32.0664 35.1464 32.064 35.7708C32.0592 36.0638 32.0592 36.0638 32.0543 36.3628C32.1327 36.9758 32.2653 37.2343 32.6969 37.6702C33.3651 37.8336 33.9957 37.8594 34.6828 37.8934C34.918 37.9065 35.1532 37.9195 35.3955 37.933C35.6206 37.9423 35.8457 37.9517 36.0777 37.9613C36.9299 38.0843 37.4162 38.3645 38.0054 38.985C38.426 39.7196 38.3545 40.4826 38.2375 41.3017C37.8234 42.0804 37.3354 42.3796 36.529 42.7119C35.8077 42.93 35.0926 42.9132 34.3447 42.9024C34.192 42.9047 34.0393 42.9069 33.882 42.9092C32.8881 42.9043 32.0934 42.7378 31.1725 42.3616C30.7107 42.2369 30.4662 42.2803 30.0221 42.4485C29.6838 42.7856 29.6838 42.7856 29.4012 43.2011C29.3017 43.3369 29.2022 43.4726 29.0997 43.6125C28.8425 43.9605 28.8425 43.9605 28.8758 44.3598C29.1589 44.5656 29.4514 44.7585 29.7475 44.9452C30.8263 45.6867 31.9285 46.5363 32.2252 47.8764C32.2604 48.758 32.1248 49.4006 31.5506 50.0939C30.9908 50.6858 30.6753 50.8439 29.8669 50.9898C28.828 50.9425 28.2252 50.2319 27.5384 49.5205C27.448 49.4138 27.3576 49.3071 27.2645 49.1972C26.7403 48.7591 26.2026 48.8234 25.545 48.8425C24.6771 49.0275 24.2448 49.608 23.7173 50.285C22.9288 51.2863 22.4447 51.7328 21.15 51.8977C20.2307 51.7847 19.9661 51.5167 19.323 50.8584C18.8104 50.1824 18.854 49.3804 18.9409 48.5648C19.132 48.0869 19.132 48.0869 19.323 47.8002C19.4491 47.8002 19.5752 47.8002 19.7051 47.8002C19.7559 47.6894 19.8066 47.5785 19.8589 47.4643C20.5786 46.1136 21.9172 44.7525 23.3628 44.2045C24.0063 44.0326 24.5787 43.9776 25.2457 43.9776C25.3108 43.7799 25.3108 43.7799 25.3771 43.5781C25.6854 42.8943 26.1163 42.3474 26.5831 41.7676C27.3829 40.8441 27.3829 40.8441 27.9205 39.7726C27.7951 39.3603 27.7951 39.3603 27.5623 38.9245C27.1251 37.8222 27.0688 36.8103 27.0608 35.6394C27.0573 35.4707 27.0539 35.3021 27.0504 35.1284C27.0611 33.9092 27.3516 33.0084 27.9205 31.9362C27.9836 31.81 28.0466 31.6839 28.1116 31.5539C28.2377 31.5539 28.3638 31.5539 28.4937 31.5539C28.4937 31.4277 28.4937 31.3016 28.4937 31.1716C29.3457 30.6034 30.1694 30.6708 31.1684 30.7894Z" fill="#E84244"/>
<path d="M81.0712 37.049C81.185 37.1278 81.2987 37.2067 81.416 37.2879C81.5337 37.3668 81.6514 37.4456 81.7727 37.5268C82.8684 38.3548 83.5567 39.4755 83.7937 40.8336C83.86 42.2544 83.3585 43.3267 82.6101 44.5032C81.4587 45.6551 80.1155 46.2729 78.4904 46.3429C77.1524 46.3156 76.1749 45.9102 75.147 45.0647C73.7978 43.4064 73.6005 41.8819 73.7738 39.7727C74.1498 38.5706 75.1156 37.6802 76.1739 37.049C77.6828 36.2805 79.585 36.1607 81.0712 37.049Z" fill="#040404"/>
<path d="M46.5246 49.3413C47.8187 50.0865 48.7421 50.9989 49.3187 52.3875C49.5065 53.7111 49.568 55.057 48.8411 56.2221C48.2227 56.999 47.4866 57.601 46.644 58.1215C46.5331 58.1932 46.4223 58.2649 46.3081 58.3387C45.1739 58.7756 43.484 58.6686 42.3228 58.379C41.0425 57.7984 40.2155 56.7108 39.6912 55.4312C39.4948 54.8099 39.4732 54.1914 39.4794 53.5462C39.4806 53.4117 39.4819 53.2772 39.4831 53.1386C39.5228 52.0138 39.7298 51.2691 40.5302 50.4761C42.2467 48.9389 44.3318 48.32 46.5246 49.3413Z" fill="#030303"/>
<path d="M25.2457 43.5953C27.8682 43.8269 29.6286 44.4616 31.4632 46.3899C32.0876 47.1475 32.2531 47.7623 32.1916 48.7418C32.0552 49.538 31.6742 49.9631 31.1326 50.5359C30.5657 50.8762 30.1379 51.0021 29.4728 50.9719C28.5492 50.7137 27.8691 49.9108 27.2645 49.1972C26.7403 48.7591 26.2026 48.8234 25.545 48.8426C24.6771 49.0276 24.2448 49.608 23.7173 50.285C22.9288 51.2863 22.4447 51.7329 21.15 51.8977C20.2307 51.7848 19.9661 51.5167 19.323 50.8584C18.8104 50.1824 18.854 49.3805 18.9409 48.5648C19.132 48.087 19.132 48.087 19.323 47.8003C19.4491 47.8003 19.5752 47.8003 19.7051 47.8003C19.7559 47.6894 19.8066 47.5785 19.8589 47.4643C20.5786 46.1136 21.9172 44.7525 23.3628 44.2046C24.0063 44.0326 24.5787 43.9776 25.2457 43.9776C25.2457 43.8515 25.2457 43.7253 25.2457 43.5953Z" fill="#E64245"/>
<path d="M22.5678 32.862C23.291 33.2528 23.6693 33.5771 24.0993 34.2895C24.6476 36.1985 24.4769 38.2776 23.6164 40.0497C22.6893 41.6562 21.3195 42.7619 19.5139 43.2847C17.8349 43.6119 16.0608 43.5118 14.5674 42.6135C13.942 42.1321 13.5583 41.6927 13.4002 40.9195C13.351 40.14 13.3916 39.4896 13.8427 38.8334C14.4627 38.2261 14.9647 37.9811 15.8361 37.9569C16.4835 37.9841 16.6542 38.0565 17.2213 38.4347C17.7782 38.5463 17.7782 38.5463 18.3676 38.4347C18.9115 38.0591 18.9115 38.0591 19.3229 37.4791C19.3731 36.9337 19.3811 36.498 19.3348 35.9619C19.2434 34.8365 19.3387 34.1685 20.0871 33.2741C20.9447 32.7265 21.6033 32.4517 22.5678 32.862Z" fill="#E94243"/>
<path d="M72.8183 29.4514C73.3795 29.8218 73.3795 29.8218 73.7736 30.4071C73.8378 31.5936 73.4382 32.5899 72.9019 33.6205C72.1993 35.0278 71.6095 36.458 71.0756 37.9377C70.7304 38.8492 70.4529 39.4579 69.5704 39.9638C68.8548 39.9638 68.4261 39.9284 67.8628 39.474C67.352 38.3017 67.6775 37.3302 68.1211 36.1911C68.2699 35.8298 68.4218 35.47 68.5764 35.111C68.7328 34.7474 68.8851 34.3823 69.0368 34.0166C71.0534 29.2042 71.0534 29.2042 72.8183 29.4514Z" fill="#080808"/>
<path d="M43.9694 41.4928C44.6088 41.6227 45.2232 41.8071 45.8441 42.0065C46.0105 42.0584 46.1768 42.1104 46.3482 42.1639C49.985 43.3206 49.985 43.3206 50.8474 44.3598C50.9531 45.1001 50.955 45.5152 50.5727 46.1636C49.833 46.6149 49.1918 46.6034 48.3636 46.4623C47.7571 46.2614 47.1738 46.026 46.5844 45.7791C45.6573 45.4205 44.7095 45.1641 43.7447 44.9264C42.8214 44.6779 42.2994 44.3583 41.6767 43.5953C41.4737 43.0219 41.4737 43.0219 41.4857 42.4485C42.0447 41.279 42.82 41.3833 43.9694 41.4928Z" fill="#060606"/>
<path d="M38.966 63.9988C39.4688 64.0096 39.7706 64.0484 40.2436 64.2377C40.6037 64.718 40.6701 65.1212 40.6437 65.7175C40.415 66.5874 39.7738 67.2071 39.1928 67.8692C39.0995 68.0104 39.0062 68.1516 38.91 68.297C38.6197 68.6338 38.6197 68.6338 38.2495 68.7286C37.1821 68.6983 37.1821 68.6983 36.7211 68.371C36.2653 67.6737 36.2513 67.1739 36.327 66.3402C36.6964 65.7563 36.6964 65.7563 37.1748 65.2173C37.3322 65.0364 37.4896 64.8556 37.6517 64.6692C38.2203 64.0477 38.2203 64.0477 38.966 63.9988Z" fill="#E78871"/>
<path d="M35.1806 60.0328C35.7589 60.4439 35.9207 60.6558 36.0403 61.3588C35.8828 62.3241 35.3736 62.7445 34.6313 63.3418C33.9581 63.7055 33.6385 63.8082 32.8879 63.6644C32.2671 63.2053 31.9819 62.9151 31.8013 62.1592C31.9898 61.3019 32.4357 60.8048 33.079 60.2239C33.8227 59.7775 34.3536 59.7864 35.1806 60.0328Z" fill="#E9876E"/>
<path d="M87.3006 47.5142C88.2509 47.7287 88.9603 48.4668 89.6314 49.1381C89.6043 49.8684 89.5369 50.3366 89.1179 50.9419C88.5162 51.3487 88.2472 51.3648 87.5298 51.2406C86.8166 50.8799 86.1847 50.4684 85.6192 49.9027C85.5617 49.5092 85.5617 49.5092 85.5595 49.0545C85.5563 48.905 85.5531 48.7554 85.5498 48.6013C85.7117 47.624 86.3845 47.4854 87.3006 47.5142Z" fill="#E8886F"/>
<path d="M89.8223 41.3017C90.4728 41.5503 91.0034 41.8622 91.4343 42.4246C91.6264 43.1505 91.6399 43.7288 91.3627 44.4315C90.8148 44.8633 90.3979 44.8616 89.7126 44.8257C88.9048 44.6799 88.2784 44.3979 87.7207 43.7864C87.4889 43.1941 87.4417 42.695 87.5296 42.0662C88.0431 41.1506 88.8598 41.1224 89.8223 41.3017Z" fill="#E88770"/>
<path d="M27.9205 40.1549C28.5392 40.431 28.9942 40.7776 29.4967 41.23C29.6317 41.3508 29.7666 41.4715 29.9057 41.5959C30.0071 41.688 30.1086 41.7802 30.2131 41.8751C30.1308 42.0385 30.1308 42.0385 30.0467 42.2051C29.9072 42.4862 29.7766 42.772 29.6571 43.0622C29.3777 43.5873 29.1933 43.8483 28.6847 44.1687C27.597 44.2611 26.4973 44.0038 25.4368 43.7864C25.7191 42.9561 26.1475 42.3425 26.6786 41.6481C26.8303 41.4483 26.982 41.2485 27.1384 41.0426C27.5384 40.5372 27.5384 40.5372 27.9205 40.1549Z" fill="#0C0403"/>
<path d="M48.9365 118.328C50.0454 118.308 51.0853 118.36 52.1845 118.52C52.7581 118.535 53.3303 118.531 53.904 118.52C53.904 118.709 53.904 118.898 53.904 119.093C55.47 119.072 57.0361 119.051 58.6021 119.028C59.3292 119.018 60.0564 119.007 60.7835 118.998C61.4846 118.989 62.1858 118.979 62.8869 118.968C63.155 118.964 63.423 118.961 63.6911 118.957C64.0654 118.953 64.4396 118.947 64.8138 118.941C65.0272 118.938 65.2406 118.935 65.4605 118.932C65.9287 118.956 65.9287 118.956 66.1315 118.711C66.3875 118.681 66.645 118.663 66.9024 118.65C67.057 118.642 67.2115 118.634 67.3707 118.626C67.6144 118.615 67.6144 118.615 67.8629 118.603C68.0261 118.595 68.1892 118.587 68.3573 118.578C68.7617 118.558 69.1661 118.539 69.5705 118.52C64.4491 121.178 54.3397 119.67 48.9365 118.52C48.9365 118.457 48.9365 118.393 48.9365 118.328Z" fill="#EFB289"/>
<path d="M46.4528 61.1796C47.2831 62.0102 47.5488 63.0995 47.814 64.2138C47.8463 64.3417 47.8786 64.4696 47.9118 64.6013C48.8036 68.2473 48.6862 72.0146 46.8349 75.3235C46.7088 75.3235 46.5827 75.3235 46.4528 75.3235C46.3582 75.5127 46.3582 75.5127 46.2617 75.7057C46.3248 75.3273 46.3878 74.9488 46.4528 74.5589C46.5789 74.5589 46.705 74.5589 46.8349 74.5589C46.87 74.3996 46.87 74.3996 46.9058 74.2371C47.0259 73.7944 47.0259 73.7944 47.2118 73.3576C47.8249 71.7944 47.8626 70.3234 47.8618 68.6577C47.8621 68.4327 47.8623 68.2077 47.8626 67.976C47.8483 66.8447 47.7837 65.8783 47.408 64.8111C47.2656 64.2668 47.1241 63.7224 46.9841 63.1775C46.8455 62.6674 46.8455 62.6674 46.4528 62.1352C46.4289 61.6216 46.4289 61.6216 46.4528 61.1796Z" fill="#F6D7C5"/>
<path d="M61.3551 9.19128C62.6609 9.7778 63.3083 10.6456 64.0299 11.8672C64.2511 12.531 64.2341 13.0829 64.221 13.7785C64.1579 13.7785 64.0949 13.7785 64.0299 13.7785C63.9826 13.5696 63.9353 13.3606 63.8866 13.1454C63.7056 12.4456 63.7056 12.4456 63.2776 12.0583C62.8622 11.8001 62.8622 11.8001 62.3104 12.0583C62.3104 11.9321 62.3104 11.806 62.3104 11.676C62.1843 11.676 62.0582 11.676 61.9283 11.676C61.9635 11.7854 61.9987 11.8948 62.035 12.0075C62.1732 12.7169 61.9323 13.2811 61.7373 13.9696C61.4851 14.0327 61.2329 14.0958 60.973 14.1608C61.0676 14.0622 61.1622 13.9637 61.2596 13.8621C61.6548 13.2196 61.6389 12.8 61.5462 12.0583C61.1919 11.5917 61.1919 11.5917 60.782 11.2938C61.2864 11.2938 61.7908 11.2938 62.3104 11.2938C62.3104 10.9784 62.3104 10.663 62.3104 10.3381C62.0582 10.275 61.806 10.2119 61.5462 10.147C61.4832 9.83158 61.4201 9.51621 61.3551 9.19128Z" fill="#E2A172"/>
<path d="M45.6886 76.088C45.6886 76.2772 45.6886 76.4665 45.6886 76.6614C45.5625 76.6614 45.4364 76.6614 45.3065 76.6614C45.3065 76.7876 45.3065 76.9137 45.3065 77.0437C44.9706 77.305 44.9706 77.305 44.5184 77.5932C44.2989 77.7344 44.2989 77.7344 44.0751 77.8784C43.914 77.9814 43.7529 78.0844 43.587 78.1905C43.4006 78.3201 43.2141 78.4497 43.022 78.5832C40.4876 80.2041 36.5468 80.1324 33.672 79.6211C33.5393 79.5905 33.4067 79.5599 33.27 79.5284C33.27 79.4653 33.27 79.4023 33.27 79.3373C35.6658 79.3373 38.0617 79.3373 40.5301 79.3373C40.5301 79.1481 40.5301 78.9588 40.5301 78.7639C41.0975 78.7639 41.665 78.7639 42.2496 78.7639C42.2496 78.6377 42.2496 78.5116 42.2496 78.3816C42.5156 78.2634 42.5156 78.2634 42.787 78.1427C43.4018 77.863 43.4018 77.863 43.6825 77.4021C43.9691 77.0437 43.9691 77.0437 44.5781 76.9003C44.7554 76.8846 44.9327 76.8688 45.1154 76.8525C45.1785 76.6633 45.2415 76.4741 45.3065 76.2791C45.4326 76.2161 45.5587 76.153 45.6886 76.088Z" fill="#F4D2BC"/>
<path d="M94.7898 33.4652C95.4517 33.6979 95.8289 33.9313 96.3182 34.4209C96.5133 34.4623 96.5133 34.4623 96.7123 34.5045C96.8344 34.54 96.9566 34.5755 97.0825 34.612C97.2131 34.8652 97.3403 35.1202 97.4646 35.3765C98.0067 35.7319 98.5496 35.8442 99.1841 35.9499C99.058 36.2653 98.9319 36.5807 98.802 36.9056C99.1802 36.9687 99.5585 37.0318 99.9483 37.0967C100.011 37.5383 100.074 37.9798 100.139 38.4347C100.289 38.482 100.439 38.5293 100.593 38.578C101.095 38.817 101.095 38.817 101.357 39.1873C101.477 39.5815 101.477 39.5815 101.286 40.1549C101.035 39.8762 100.784 39.5974 100.533 39.3187C100.376 39.1437 100.218 38.9688 100.055 38.7886C99.7488 38.4471 99.4444 38.1039 99.143 37.7583C98.2325 36.7206 97.2715 35.78 96.2376 34.8651C95.7376 34.4141 95.2619 33.9452 94.7898 33.4652Z" fill="#EBA679"/>
<path d="M22.1889 32.7006C21.6831 32.9798 21.4448 33.0829 20.8515 33.0829C20.8003 33.1972 20.7491 33.3116 20.6963 33.4293C20.4694 33.8474 20.4694 33.8474 20.1686 34.0602C19.6656 34.7261 19.8776 35.6564 19.9186 36.4591C19.9462 37.3369 19.9351 37.9343 19.3231 38.6258C18.8693 38.8094 18.8693 38.8095 18.3678 38.8886C18.2023 38.9177 18.0368 38.9467 17.8663 38.9767C17.4125 39.008 17.4125 39.008 16.8394 38.8169C16.8394 38.6908 16.8394 38.5646 16.8394 38.4346C17.2063 38.4658 17.5732 38.4969 17.9402 38.528C18.6356 38.3762 18.9024 38.0396 19.3231 37.479C19.3732 36.9336 19.3813 36.4979 19.335 35.9619C19.2436 34.8364 19.3389 34.1685 20.0873 33.274C20.8089 32.8132 21.3336 32.6251 22.1889 32.7006Z" fill="#DD4B3E"/>
<path d="M99.3752 42.6396C100.554 43.7087 101.769 45.115 102.241 46.6535C102.074 47.0955 102.074 47.0955 101.859 47.418C101.507 47.3067 101.507 47.3067 101.095 47.0357C100.838 46.4601 100.838 46.4601 100.617 45.7575C100.294 44.7687 99.9189 43.9082 99.3752 43.0219C99.3752 42.8958 99.3752 42.7696 99.3752 42.6396Z" fill="#F5F2EE"/>
<path d="M35.7537 60.415C35.6907 60.5412 35.6276 60.6673 35.5627 60.7973C35.4287 60.7303 35.2947 60.6633 35.1567 60.5942C34.4861 60.3755 34.136 60.4092 33.4611 60.6062C32.9048 60.8921 32.9048 60.8921 32.5058 61.3707C32.3356 62.0668 32.3356 62.0668 32.3147 62.7086C32.8216 63.0402 33.0493 63.0939 33.6641 63.0312C34.2322 62.9072 34.2322 62.9072 34.7984 62.7086C34.4641 63.4493 34.4641 63.4493 34.0342 63.6643C33.2599 63.7676 32.9763 63.7297 32.3386 63.2581C31.9326 62.7086 31.9326 62.7086 31.8013 62.1591C31.9898 61.3018 32.4357 60.8048 33.079 60.2239C34.0349 59.6501 34.8486 59.8114 35.7537 60.415Z" fill="#E39278"/>
<path d="M101.095 52.3875C101.359 53.1817 101.08 53.5245 100.735 54.2547C100.495 54.7348 100.259 55.1982 99.9483 55.6367C99.8222 55.6367 99.6961 55.6367 99.5661 55.6367C99.5154 55.751 99.4647 55.8654 99.4124 55.9832C98.7859 57.1302 97.5065 57.8539 96.3182 58.3126C95.6495 58.4559 95.6495 58.4559 95.1719 58.5037C95.564 58.0741 95.7463 57.9299 96.3182 57.7392C96.3813 57.613 96.4443 57.4869 96.5093 57.3569C96.9528 57.2791 97.399 57.2146 97.8466 57.1658C97.9097 56.9766 97.9727 56.7873 98.0377 56.5924C98.3666 56.2827 98.7158 56.0116 99.0706 55.7323C99.4264 55.4427 99.4264 55.4427 99.5661 54.8722C99.7908 54.6652 99.7908 54.6652 100.02 54.4541C100.641 53.7879 100.817 53.2484 101.095 52.3875Z" fill="#F3D2BC"/>
<path d="M23.9084 11.8671C24.0345 11.9301 24.1606 11.9932 24.2905 12.0582C23.8184 12.5555 23.3123 12.9869 22.7621 13.3961C22.636 13.3961 22.5099 13.3961 22.38 13.3961C22.317 13.5854 22.2539 13.7746 22.1889 13.9695C21.9998 14.0326 21.8107 14.0957 21.6158 14.1607C21.5567 14.2789 21.4976 14.3972 21.4367 14.519C21.192 15.0086 20.9296 15.2109 20.4694 15.4986C20.3434 15.4986 20.2173 15.4986 20.0873 15.4986C20.0405 15.6119 19.9938 15.7253 19.9455 15.842C19.6652 16.3333 19.3761 16.5585 18.9171 16.8843C18.7787 16.9839 18.6403 17.0834 18.4977 17.186C18.3918 17.2599 18.2859 17.3338 18.1768 17.4099C18.0507 17.3469 17.9246 17.2838 17.7947 17.2188C19.1266 15.84 20.4906 14.5843 21.9979 13.3961C22.3602 13.1056 22.7224 12.8149 23.0845 12.5241C23.3591 12.305 23.6337 12.0859 23.9084 11.8671Z" fill="#EFB088"/>
<path d="M62.5015 6.32422C63.279 6.41397 63.9251 6.49568 64.6031 6.89762C64.7292 6.96069 64.8553 7.02377 64.9852 7.08875C64.9852 6.83646 64.9852 6.58416 64.9852 6.32422C65.2374 6.32422 65.4896 6.32422 65.7494 6.32422C65.6864 6.95496 65.6233 7.5857 65.5583 8.23556C65.7475 8.3617 65.9366 8.48785 66.1315 8.61782C66.1315 8.80704 66.1315 8.99627 66.1315 9.19122C65.4809 8.97425 65.3711 8.81018 64.9613 8.28334C64.2563 7.44368 63.4845 6.97918 62.5015 6.51535C62.5015 6.45228 62.5015 6.3892 62.5015 6.32422Z" fill="#ECA777"/>
<path d="M46.453 61.1796C48.0927 62.8199 48.2128 65.6533 48.2249 67.8251C48.2181 68.8595 48.202 69.8933 48.1725 70.9274C48.1094 70.9274 48.0464 70.9274 47.9814 70.9274C47.9776 70.7896 47.9738 70.6519 47.9699 70.51C47.9516 69.8805 47.9307 69.2512 47.9098 68.6218C47.9039 68.4051 47.8979 68.1884 47.8919 67.9652C47.8526 66.8438 47.7748 65.8717 47.4082 64.8111C47.2658 64.2668 47.1243 63.7224 46.9843 63.1775C46.8457 62.6674 46.8457 62.6674 46.453 62.1352C46.4291 61.6216 46.4291 61.6216 46.453 61.1796Z" fill="#F2D1BC"/>
<path d="M92.8792 10.1469C93.2143 10.3526 93.5485 10.56 93.8822 10.768C94.1615 10.941 94.1615 10.941 94.4464 11.1175C94.942 11.4581 95.3369 11.8099 95.745 12.2493C95.5559 12.2493 95.3667 12.2493 95.1718 12.2493C95.1718 12.1232 95.1718 11.997 95.1718 11.8671C94.8566 11.804 94.5414 11.7409 94.2166 11.6759C94.2166 11.8021 94.2166 11.9282 94.2166 12.0582C93.6491 11.869 93.0817 11.6797 92.4971 11.4848C92.4971 10.9114 92.4971 10.9114 92.8792 10.5291C92.8792 10.403 92.8792 10.2768 92.8792 10.1469Z" fill="#F7AA77"/>
<path d="M60.9731 14.1607C60.9731 14.2868 60.9731 14.413 60.9731 14.543C60.7209 14.606 60.4687 14.6691 60.2089 14.7341C60.335 14.9864 60.4611 15.2387 60.591 15.4986C60.0866 15.6879 59.5822 15.8771 59.0625 16.072C58.8109 14.8593 58.8109 14.8593 59.0506 14.3638C59.6844 14.0371 60.267 14.126 60.9731 14.1607Z" fill="#E4A171"/>
<path d="M51.8025 12.6316C52.0287 13.3106 51.9353 13.5296 51.7189 14.1965C51.664 14.3687 51.609 14.5409 51.5525 14.7184C51.5089 14.8497 51.4653 14.981 51.4204 15.1163C51.5465 15.1794 51.6726 15.2425 51.8025 15.3075C51.1099 16.4065 51.1099 16.4065 50.4651 16.8365C50.5654 15.2807 50.9308 13.9396 51.8025 12.6316Z" fill="#EDA777"/>
<path d="M55.0503 105.905C57.8875 105.968 60.7246 106.031 63.6478 106.096C63.6478 106.159 63.6478 106.222 63.6478 106.287C61.8194 106.287 59.991 106.287 58.1072 106.287C58.1072 106.413 58.1072 106.539 58.1072 106.669C57.6658 106.669 57.2245 106.669 56.7698 106.669C56.7067 106.48 56.6437 106.291 56.5787 106.096C56.0743 106.096 55.57 106.096 55.0503 106.096C55.0503 106.033 55.0503 105.97 55.0503 105.905Z" fill="#E6A77C"/>
<path d="M59.6356 8.61786C59.8248 8.744 60.0139 8.87015 60.2088 9.00012C60.0268 9.00727 59.8448 9.01441 59.6573 9.02178C59.4177 9.03434 59.178 9.04691 58.9311 9.05985C58.694 9.07094 58.4568 9.08203 58.2124 9.09345C57.5083 9.19497 57.1697 9.39127 56.5788 9.76466C56.0675 9.86246 56.0675 9.86246 55.5638 9.89606C55.3951 9.90863 55.2264 9.92119 55.0526 9.93414C54.9257 9.94128 54.7989 9.94843 54.6682 9.95579C56.073 8.81781 57.8477 8.35801 59.6356 8.61786Z" fill="#DB9E76"/>
<path d="M57.2951 5.04601C57.5079 5.11106 57.5079 5.11106 57.725 5.17742C57.725 5.24049 57.725 5.30356 57.725 5.36855C58.5446 5.43162 59.3643 5.4947 60.2087 5.55968C60.2087 5.62276 60.2087 5.68583 60.2087 5.75082C59.9733 5.75574 59.7378 5.76067 59.4953 5.76575C57.6247 5.82345 56.0243 5.9602 54.286 6.70649C54.223 6.51726 54.1599 6.32804 54.095 6.13308C54.224 6.09834 54.3531 6.0636 54.486 6.02781C54.6565 5.97977 54.8269 5.93172 55.0025 5.88222C55.1709 5.83565 55.3394 5.78909 55.513 5.74111C56.0163 5.58264 56.0163 5.58264 56.4175 5.24909C56.7697 4.98628 56.7697 4.98628 57.2951 5.04601Z" fill="#D4966A"/>
<path d="M119.436 57.5481C119.884 57.996 119.873 58.1057 119.904 58.7151C119.912 58.8716 119.92 59.0282 119.929 59.1895C119.936 59.3535 119.943 59.5175 119.949 59.6864C119.958 59.8467 119.967 60.0069 119.977 60.1721C120.021 61.1086 120.019 61.9813 119.818 62.8998C119.692 62.9629 119.566 63.026 119.436 63.091C119.436 61.2618 119.436 59.4327 119.436 57.5481Z" fill="#FFF7EA"/>
<path d="M23.1441 39.5815C23.2702 39.6446 23.3963 39.7077 23.5262 39.7727C23.0338 41.2954 22.0783 42.0052 20.7559 42.7927C20.2738 43.0241 19.8497 43.1331 19.323 43.2131C19.323 43.0869 19.323 42.9608 19.323 42.8308C19.7013 42.7677 20.0796 42.7047 20.4693 42.6397C20.5324 42.4505 20.5954 42.2612 20.6604 42.0663C21.3185 41.4929 21.3185 41.4929 21.8067 41.4929C22.3895 41.3672 22.3895 41.3672 22.5829 40.9673C22.7746 40.507 22.9635 40.0462 23.1441 39.5815Z" fill="#DD4C3E"/>
<path d="M19.5141 33.4652C19.6402 33.5283 19.7663 33.5914 19.8963 33.6563C19.8327 33.7512 19.7692 33.8461 19.7037 33.9438C19.3964 34.7172 19.5132 35.5275 19.5627 36.3453C19.5852 37.0535 19.5371 37.4411 19.1664 38.0532C18.7499 38.4347 18.7499 38.4347 18.1768 38.4347C18.1768 38.3085 18.1768 38.1824 18.1768 38.0524C18.3127 37.9223 18.3127 37.9223 18.4514 37.7896C19.1667 37.0454 19.002 35.8397 19.0399 34.8629C19.0909 33.8887 19.0909 33.8887 19.5141 33.4652Z" fill="#FEA078"/>
<path d="M27.1563 57.9303C27.2194 58.0564 27.2824 58.1826 27.3474 58.3126C27.1086 58.8023 27.1086 58.8023 26.7742 59.2682C26.5851 59.3313 26.3959 59.3944 26.201 59.4594C26.0627 59.8378 25.9379 60.2212 25.8189 60.6062C25.1727 62.0762 25.1727 62.0762 24.6726 62.3264C24.7764 61.4539 25.0155 60.8025 25.4368 60.0328C25.5629 60.0328 25.689 60.0328 25.8189 60.0328C25.8623 59.8633 25.9056 59.6937 25.9503 59.5191C26.2339 58.8031 26.5877 58.4392 27.1563 57.9303Z" fill="#F3D3BE"/>
<path d="M73.7737 23.144C74.2206 23.1999 74.6665 23.2637 75.1111 23.3352C75.2372 23.2721 75.3633 23.209 75.4932 23.144C75.4932 23.2702 75.4932 23.3963 75.4932 23.5263C76.1865 23.5553 76.1865 23.5553 76.8306 23.3352C76.9567 23.3983 77.0828 23.4613 77.2127 23.5263C77.3321 23.9205 77.3321 23.9205 77.4038 24.2908C76.0213 24.1756 74.7302 23.8866 73.3916 23.5263C73.5177 23.4002 73.6438 23.274 73.7737 23.144Z" fill="#EAA577"/>
<path d="M31.5505 48.7559C31.9326 49.1381 31.9326 49.1381 31.9326 49.4846C31.64 50.1249 31.2045 50.5287 30.5953 50.8583C30.0274 50.9741 29.6583 50.9359 29.0668 50.8583C28.6847 50.5716 28.6847 50.5716 28.4937 50.2849C28.6592 50.2928 28.8247 50.3007 28.9952 50.3088C29.6661 50.284 30.1577 50.1262 30.7863 49.9027C30.9755 49.9027 31.1646 49.9027 31.3595 49.9027C31.4225 49.5242 31.4856 49.1458 31.5505 48.7559Z" fill="#DC565E"/>
<path d="M32.8879 34.8031C33.0789 35.3765 33.0789 35.3765 32.8879 35.9499C32.6987 35.9499 32.5096 35.9499 32.3147 35.9499C32.3147 36.2653 32.3147 36.5806 32.3147 36.9056C32.4408 36.9056 32.5669 36.9056 32.6968 36.9056C32.7599 37.1579 32.8229 37.4102 32.8879 37.6701C33.3292 37.6701 33.7705 37.6701 34.2252 37.6701C34.0992 37.7963 33.9731 37.9224 33.8431 38.0524C33.1098 38.0364 32.787 37.9443 32.2431 37.4431C31.8704 36.798 31.7953 36.4914 31.9326 35.7588C32.4102 35.2093 32.4102 35.2093 32.8879 34.8031Z" fill="#350706"/>
<path d="M31.7418 35.3766C31.8679 35.5027 31.994 35.6289 32.1239 35.7589C32.1199 35.9402 32.116 36.1215 32.1119 36.3084C32.084 36.8962 32.084 36.8962 32.3269 37.3477C32.8598 37.812 33.3558 37.819 34.0344 37.8613C34.2595 37.8786 34.4846 37.8958 34.7166 37.9136C35.3806 37.9632 36.0447 38.0091 36.7092 38.0525C36.7092 38.1155 36.7092 38.1786 36.7092 38.2436C36.1241 38.2539 35.5391 38.2615 34.9539 38.2675C34.7888 38.2707 34.6236 38.2739 34.4535 38.2772C33.4104 38.2852 32.5992 38.2576 31.7657 37.5627C31.4291 36.8331 31.6047 36.1499 31.7418 35.3766Z" fill="#C75255"/>
<path d="M104.152 20.0858C105.023 20.7763 105.683 21.4215 106.253 22.3794C106.131 22.4031 106.009 22.4267 105.883 22.4511C105.753 22.4905 105.623 22.5299 105.489 22.5706C105.426 22.6967 105.363 22.8228 105.298 22.9528C105.046 22.8897 104.794 22.8267 104.534 22.7617C104.534 22.5725 104.534 22.3832 104.534 22.1883C104.786 22.1883 105.038 22.1883 105.298 22.1883C105.149 21.7113 105.149 21.7113 104.916 21.2326C104.727 21.1695 104.538 21.1065 104.343 21.0415C104.28 20.7261 104.217 20.4107 104.152 20.0858Z" fill="#F7AA7E"/>
<path d="M38.2374 39.7726C38.3005 39.7726 38.3635 39.7726 38.4285 39.7726C38.5009 40.6778 38.5129 41.3206 38.1061 42.1498C37.6194 42.6893 37.3965 42.8191 36.709 43.0219C36.1721 43.0482 35.6563 43.0582 35.1208 43.0457C34.9793 43.044 34.8379 43.0423 34.6921 43.0405C34.3454 43.036 33.9987 43.0292 33.6521 43.0219C33.6521 42.9588 33.6521 42.8957 33.6521 42.8307C33.8159 42.8236 33.9797 42.8164 34.1484 42.8091C36.1462 42.7214 36.1462 42.7214 37.8314 41.7436C38.1473 41.0942 38.1776 40.4911 38.2374 39.7726Z" fill="#F9D2D0"/>
<path d="M47.7903 21.4238C48.1242 22.0497 48.362 22.6879 48.5903 23.3591C48.66 23.5606 48.7297 23.7621 48.8015 23.9698C48.9366 24.482 48.9366 24.482 48.7456 24.8642C48.5564 24.6119 48.3673 24.3596 48.1724 24.0997C47.9832 24.1628 47.7941 24.2258 47.5992 24.2908C47.5941 23.8488 47.5904 23.4068 47.5873 22.9648C47.5851 22.7187 47.5829 22.4726 47.5806 22.219C47.5992 21.615 47.5992 21.615 47.7903 21.4238Z" fill="#E1A073"/>
<path d="M65.7495 0.399048C67.4337 0.478483 69.0731 0.565275 70.7169 0.972449C70.3348 1.35472 70.3348 1.35472 69.9632 1.39205C69.5776 1.3796 69.192 1.36716 68.8064 1.35472C68.8064 1.22857 68.8064 1.10242 68.8064 0.972449C68.239 0.972449 67.6715 0.972449 67.0869 0.972449C67.0869 0.846301 67.0869 0.720152 67.0869 0.590181C66.6456 0.590181 66.2042 0.590181 65.7495 0.590181C65.7495 0.527107 65.7495 0.464033 65.7495 0.399048Z" fill="#F2B188"/>
<path d="M14.5467 20.6593C14.6098 20.8485 14.6728 21.0377 14.7378 21.2327C14.5486 21.2958 14.3595 21.3589 14.1646 21.4238C14.1095 21.6012 14.0543 21.7786 13.9975 21.9614C13.7404 22.69 13.426 22.8709 12.8272 23.3352C12.7602 23.5047 12.6933 23.6742 12.6242 23.8488C12.5651 23.9947 12.506 24.1406 12.4451 24.2908C12.0391 24.4461 12.0391 24.4461 11.6809 24.482C11.9249 23.9633 12.1912 23.5201 12.5466 23.0709C12.6385 22.9543 12.7304 22.8378 12.825 22.7177C12.9203 22.5982 13.0156 22.4787 13.1138 22.3556C13.2091 22.2346 13.3044 22.1137 13.4026 21.989C13.7703 21.5246 14.1276 21.0786 14.5467 20.6593Z" fill="#F0B28D"/>
<path d="M96.7003 39.9637C97.5909 40.2302 98.082 40.7337 98.6706 41.4211C98.7574 41.5197 98.8442 41.6182 98.9337 41.7198C99.146 41.9613 99.3563 42.2047 99.5662 42.4485C99.4401 42.5746 99.314 42.7008 99.184 42.8307C98.8296 42.3921 98.8296 42.3921 98.4751 41.9535C98.2351 41.6586 98.2351 41.6586 97.8467 41.4928C97.8467 41.3036 97.8467 41.1144 97.8467 40.9194C97.5314 40.9825 97.2162 41.0456 96.8914 41.1105C96.7653 40.7952 96.6392 40.4798 96.5093 40.1549C96.5723 40.0918 96.6354 40.0287 96.7003 39.9637Z" fill="#E9D1C1"/>
<path d="M87.9119 27.7312C88.1011 27.7943 88.2902 27.8573 88.4851 27.9223C88.4851 28.0485 88.4851 28.1746 88.4851 28.3046C88.359 28.3046 88.2329 28.3046 88.103 28.3046C88.4319 28.9293 88.4319 28.9293 89.0702 29.0572C89.348 29.1577 89.348 29.1577 89.6314 29.2603C89.7986 29.6664 89.7986 29.6664 89.8225 30.0248C88.8725 29.6876 88.02 29.185 87.1477 28.6869C87.3999 28.3715 87.6521 28.0561 87.9119 27.7312Z" fill="#E5A374"/>
<path d="M36.518 4.79517C36.518 4.92131 36.518 5.04746 36.518 5.17743C35.9628 5.41762 35.6017 5.5597 34.9896 5.5597C34.9266 5.74892 34.8635 5.93815 34.7985 6.1331C34.146 6.47765 33.62 6.55721 32.888 6.51537C32.888 6.64152 32.888 6.76767 32.888 6.89764C32.6358 6.83456 32.3836 6.77149 32.1238 6.7065C32.6131 6.45914 33.1027 6.21234 33.5925 5.96586C33.7303 5.89613 33.8681 5.82641 34.0101 5.75457C35.9194 4.79517 35.9194 4.79517 36.518 4.79517Z" fill="#F2B28A"/>
<path d="M66.1315 58.886C66.2261 58.953 66.3206 59.02 66.4181 59.0891C67.1083 59.348 67.7172 59.1941 68.4241 59.0771C68.7106 59.0401 68.9972 59.0042 69.2839 58.9696C69.5046 58.942 69.7252 58.9144 69.9526 58.886C69.9526 59.0121 69.9526 59.1383 69.9526 59.2683C69.2186 59.759 68.4597 59.6939 67.6122 59.6744C67.4698 59.6727 67.3275 59.671 67.1808 59.6692C66.831 59.6647 66.4812 59.6578 66.1315 59.6505C66.0684 59.5244 66.0054 59.3982 65.9404 59.2683C66.0035 59.1421 66.0665 59.016 66.1315 58.886Z" fill="#E5A67B"/>
<path d="M80.4606 49.5204C80.9786 50.0386 80.9909 50.5809 81.1055 51.2764C81.2993 52.367 81.5872 53.1755 82.1801 54.1076C82.1171 54.2968 82.054 54.486 81.9891 54.681C80.8391 53.2429 80.3176 51.3454 80.4606 49.5204Z" fill="#F2D1BE"/>
<path d="M17.0305 17.9834C17.0935 18.1726 17.1565 18.3618 17.2215 18.5568C16.9707 18.9749 16.9707 18.9749 16.6483 19.3213C16.5222 19.3213 16.3962 19.3213 16.2662 19.3213C16.2662 19.5106 16.2662 19.6998 16.2662 19.8947C16.1441 19.9144 16.0219 19.9342 15.8961 19.9545C15.701 20.0195 15.701 20.0195 15.502 20.0859C15.439 20.2751 15.3759 20.4643 15.311 20.6593C15.1218 20.5962 14.9327 20.5331 14.7378 20.4681C15.476 19.6105 16.2181 18.7715 17.0305 17.9834Z" fill="#F1B087"/>
<path d="M104.725 98.8329C104.788 98.959 104.851 99.0852 104.916 99.2152C104.55 99.9491 104.07 100.5 103.495 101.079C103.349 101.228 103.204 101.376 103.054 101.53C102.633 101.883 102.395 102.009 101.859 102.082C101.922 101.956 101.985 101.83 102.05 101.7C102.176 101.7 102.302 101.7 102.432 101.7C102.484 101.588 102.535 101.475 102.589 101.359C103.103 100.392 103.94 99.5875 104.725 98.8329Z" fill="#FEEEDE"/>
<path d="M99.3752 42.6396C100.243 43.431 100.85 44.3262 101.477 45.3155C101.099 45.5047 101.099 45.5047 100.713 45.6978C100.489 45.2602 100.266 44.8222 100.044 44.3837C99.9801 44.2593 99.9164 44.1349 99.8506 44.0067C99.3752 43.0652 99.3752 43.0652 99.3752 42.6396Z" fill="#F4EEEB"/>
<path d="M55.2414 6.32422C55.1784 6.51344 55.1153 6.70266 55.0504 6.89762C54.6789 7.04249 54.3066 7.18581 53.9294 7.31498C53.2165 7.58798 52.6055 7.99642 52.0771 8.54615C51.7114 8.89611 51.32 9.02503 50.8472 9.19122C51.8739 8.1347 53.6405 6.32422 55.2414 6.32422Z" fill="#2B130A"/>
<path d="M1.74591 45.1244C1.80896 45.1244 1.87201 45.1244 1.93696 45.1244C1.87392 46.0074 1.81087 46.8905 1.74591 47.8003C1.61981 47.8003 1.49372 47.8003 1.3638 47.8003C1.3638 48.5571 1.3638 49.314 1.3638 50.0939C1.2377 50.0939 1.11161 50.0939 0.981689 50.0939C1.05556 48.3713 1.2636 46.7813 1.74591 45.1244Z" fill="#F2B388"/>
<path d="M36.1358 35.7588C36.2619 35.8219 36.388 35.8849 36.5179 35.9499C36.0135 36.4545 35.5091 36.9591 34.9895 37.479C35.573 37.6948 35.573 37.6948 36.2552 37.7537C36.468 37.7892 36.6808 37.8247 36.9 37.8613C36.9631 37.9874 37.0261 38.1136 37.0911 38.2435C36.0823 38.1805 35.0735 38.1174 34.0342 38.0524C34.7078 37.2531 35.386 36.4868 36.1358 35.7588Z" fill="#F2E0E0"/>
<path d="M101.286 47.418C101.886 48.4178 101.738 49.5357 101.739 50.6672C101.744 50.8944 101.749 51.1216 101.754 51.3556C101.754 51.5739 101.755 51.7922 101.756 52.0171C101.757 52.2164 101.759 52.4158 101.761 52.6211C101.646 53.276 101.407 53.5 100.904 53.9165C100.966 53.7174 101.029 53.5184 101.093 53.3132C101.382 52.1562 101.326 50.992 101.31 49.8071C101.308 49.577 101.306 49.3469 101.304 49.1098C101.3 48.5458 101.294 47.9819 101.286 47.418Z" fill="#FBEADD"/>
<path d="M48.5544 12.2494C48.6174 12.2494 48.6805 12.2494 48.7455 12.2494C48.6662 13.4298 48.4649 14.4147 47.9812 15.4987C47.8551 15.5617 47.729 15.6248 47.5991 15.6898C47.6927 14.4262 48.0451 13.4058 48.5544 12.2494Z" fill="#2E180D"/>
<path d="M90.7776 97.6862C90.5575 98.1579 90.3863 98.4598 90.0134 98.833C89.4163 98.8569 89.4163 98.8569 88.867 98.833C88.867 98.9591 88.867 99.0853 88.867 99.2152C88.6779 99.2152 88.4887 99.2152 88.2939 99.2152C88.2308 99.3414 88.1678 99.4675 88.1028 99.5975C87.9767 99.4713 87.8506 99.3452 87.7207 99.2152C88.158 98.9594 88.5959 98.7047 89.0342 98.4507C89.1586 98.3778 89.283 98.3048 89.4111 98.2297C90.3522 97.6862 90.3522 97.6862 90.7776 97.6862Z" fill="#E0A177"/>
<path d="M74.347 68.825C74.2275 69.1953 74.2275 69.1953 73.9648 69.5895C73.3678 69.7328 73.3678 69.7328 72.8185 69.7806C72.8185 69.9068 72.8185 70.0329 72.8185 70.1629C72.3141 70.3521 71.8097 70.5413 71.2901 70.7363C71.164 70.6101 71.0379 70.484 70.908 70.354C71.409 70.0982 71.9106 69.8436 72.4125 69.5895C72.6264 69.4801 72.6264 69.4801 72.8446 69.3685C72.9813 69.2995 73.118 69.2305 73.2588 69.1594C73.3849 69.0954 73.511 69.0313 73.6408 68.9653C73.9648 68.825 73.9648 68.825 74.347 68.825Z" fill="#260F06"/>
<path d="M19.1321 48.1825C19.5375 48.8416 19.5142 49.3336 19.5142 50.0938C19.6858 50.5339 19.6858 50.5339 19.8963 50.8584C20.0224 50.7953 20.1485 50.7322 20.2784 50.6672C20.3415 50.9195 20.4045 51.1718 20.4695 51.4318C19.8487 51.3874 19.6946 51.2285 19.2754 50.7509C18.8542 49.9233 18.8647 49.4815 18.941 48.5648C19.0041 48.4386 19.0671 48.3125 19.1321 48.1825Z" fill="#DE4D3F"/>
<path d="M69.5704 47.8002C69.5704 47.8633 69.5704 47.9264 69.5704 47.9914C66.5623 48.395 66.5623 48.395 65.1762 48.5648C65.1131 48.4386 65.0501 48.3125 64.9851 48.1825C66.4956 47.6788 67.9978 47.7658 69.5704 47.8002Z" fill="#E1A67D"/>
<path d="M30.1535 30.7655C30.4383 30.7706 30.4383 30.7706 30.7289 30.7759C30.8739 30.7804 31.019 30.7848 31.1685 30.7894C31.1685 30.9786 31.1685 31.1678 31.1685 31.3628C30.936 31.3549 30.7035 31.347 30.4639 31.3389C29.781 31.3353 29.3145 31.475 28.6847 31.745C28.4956 31.682 28.3064 31.6189 28.1116 31.5539C28.2377 31.5539 28.3638 31.5539 28.4937 31.5539C28.4937 31.4278 28.4937 31.3016 28.4937 31.1716C29.1473 30.7357 29.3882 30.7475 30.1535 30.7655Z" fill="#DF4F40"/>
<path d="M50.4651 18.9391C50.8478 19.5133 50.9413 19.8393 51.0621 20.504C51.1102 20.7623 51.1102 20.7623 51.1592 21.0259C51.1823 21.1572 51.2055 21.2885 51.2293 21.4238C51.3554 21.4238 51.4815 21.4238 51.6114 21.4238C51.6114 21.8653 51.6114 22.3069 51.6114 22.7618C50.9754 22.2609 50.8817 21.7315 50.7158 20.9579C50.6678 20.7414 50.6198 20.5248 50.5703 20.3017C50.4651 19.7036 50.4651 19.7036 50.4651 18.9391Z" fill="#D59B75"/>
<path d="M56.1967 12.8228C56.3878 13.3962 56.3878 13.3962 56.2087 13.8143C55.7636 14.993 56.0041 16.0673 56.3878 17.2188C56.2617 17.2188 56.1356 17.2188 56.0057 17.2188C55.1999 15.9935 55.4862 14.9243 55.731 13.5634C55.7586 13.4451 55.7862 13.3269 55.8146 13.205C55.9407 13.205 56.0668 13.205 56.1967 13.205C56.1967 13.0789 56.1967 12.9527 56.1967 12.8228Z" fill="#E3A881"/>
<path d="M52.7577 0.590168C52.1464 1.20167 51.5457 1.16032 50.7001 1.18223C50.4426 1.18098 50.1851 1.17872 49.9277 1.17551C49.7953 1.17465 49.6629 1.17379 49.5265 1.1729C49.2025 1.17067 48.8785 1.16724 48.5544 1.16357C48.5544 1.10049 48.5544 1.03742 48.5544 0.972435C51.3432 0.533568 51.3432 0.533568 52.7577 0.590168Z" fill="#F2AE88"/>
<path d="M25.8188 91.761C26.8503 92.6392 27.8657 93.5341 28.8757 94.4369C28.7496 94.563 28.6235 94.6892 28.4936 94.8191C28.4306 94.6299 28.3675 94.4407 28.3026 94.2457C27.9588 94.0418 27.9588 94.0418 27.5383 93.8635C26.6875 93.3973 26.3561 92.9494 25.8188 92.1433C25.8188 92.0171 25.8188 91.891 25.8188 91.761Z" fill="#EAAC81"/>
<path d="M89.2493 48.947C89.3754 49.0101 89.5015 49.0732 89.6314 49.1382C89.5765 49.8518 89.5297 50.3469 89.1179 50.942C88.5568 51.3213 88.1934 51.301 87.5298 51.2406C87.5298 51.1145 87.5298 50.9883 87.5298 50.8584C88.1918 50.7637 88.1918 50.7637 88.8672 50.6672C88.9933 50.0996 89.1194 49.5319 89.2493 48.947Z" fill="#E49177"/>
<path d="M89.8224 41.3017C89.8224 41.3647 89.8224 41.4278 89.8224 41.4928C89.6451 41.544 89.4678 41.5953 89.2851 41.6481C88.5754 41.9053 88.5754 41.9053 88.103 42.4485C88.0551 42.9503 88.0551 42.9503 88.103 43.4041C87.9138 43.3411 87.7247 43.278 87.5298 43.213C87.4697 42.5523 87.4573 42.1811 87.8164 41.6123C88.5104 41.161 89.0044 41.2471 89.8224 41.3017Z" fill="#E08F76"/>
<path d="M41.2944 3.26606C41.1683 3.26606 41.0422 3.26606 40.9123 3.26606C40.9123 3.39221 40.9123 3.51836 40.9123 3.64833C40.8015 3.66927 40.6906 3.69022 40.5765 3.71179C39.8516 3.85898 39.2475 4.00273 38.5838 4.34119C37.9763 4.63835 37.5677 4.6517 36.9001 4.604C37.5624 4.16231 38.2508 3.8938 38.9898 3.61249C39.1266 3.55792 39.2634 3.50335 39.4044 3.44712C40.1217 3.17378 40.5624 3.02871 41.2944 3.26606Z" fill="#EFB389"/>
<path d="M69.5704 118.52C68.2172 119.287 66.5095 119.343 64.9851 119.284C64.9851 119.221 64.9851 119.158 64.9851 119.093C66.4349 118.505 68.0239 118.485 69.5704 118.52Z" fill="#F0B994"/>
<path d="M62.3105 70.5452C62.5056 70.5832 62.5056 70.5832 62.7046 70.6221C64.3545 70.9228 65.9883 71.0379 67.6601 71.1186C67.6601 71.1816 67.6601 71.2447 67.6601 71.3097C64.0644 71.345 64.0644 71.345 62.3105 71.1186C62.3105 70.9293 62.3105 70.7401 62.3105 70.5452Z" fill="#4A2D1F"/>
<path d="M27.9206 31.9362C28.052 32.2467 28.052 32.2467 28.1117 32.7007C28.0238 32.8707 27.9358 33.0407 27.8452 33.2159C27.459 34.0112 27.433 34.6719 27.4072 35.5438C27.4006 35.6936 27.3941 35.8434 27.3874 35.9977C27.3718 36.364 27.3593 36.7304 27.3475 37.0968C27.2844 37.0968 27.2214 37.0968 27.1564 37.0968C27.0154 33.4644 27.0154 33.4644 27.9206 31.9362Z" fill="#E05141"/>
<path d="M69.7018 22.26C69.8359 22.2709 69.97 22.2817 70.1082 22.2929C70.4386 22.3198 70.7688 22.3494 71.0989 22.3795C71.0989 22.5687 71.0989 22.7579 71.0989 22.9529C69.964 22.8267 68.8292 22.7006 67.6599 22.5706C68.3793 22.0908 68.8816 22.1834 69.7018 22.26Z" fill="#DC9B72"/>
<path d="M79.3143 115.653C79.6926 115.653 80.0709 115.653 80.4606 115.653C79.2723 116.445 77.8655 116.865 76.4485 116.991C76.7348 116.418 77.1751 116.358 77.7583 116.149C78.2871 116.002 78.769 115.994 79.3143 116.035C79.3143 115.909 79.3143 115.783 79.3143 115.653Z" fill="#EEAF86"/>
<path d="M99.9483 55.2544C100.074 55.5926 100.074 55.5926 100.139 56.0189C99.8538 56.5558 99.4573 56.9673 98.993 57.3569C98.3482 57.5361 98.3482 57.5361 97.8467 57.548C97.9885 57.41 98.1304 57.272 98.2766 57.1299C98.8044 56.6101 98.8044 56.6101 99.2199 56.0548C99.3342 55.9168 99.4484 55.7788 99.5662 55.6367C99.6923 55.6367 99.8184 55.6367 99.9483 55.6367C99.9483 55.5105 99.9483 55.3844 99.9483 55.2544Z" fill="#FEF6EB"/>
<path d="M61.9282 0.208008C63 0.208008 64.0719 0.208008 65.1762 0.208008C65.1762 0.271082 65.1762 0.334156 65.1762 0.399141C64.8609 0.399141 64.5457 0.399141 64.2209 0.399141C64.2209 0.52529 64.2209 0.651438 64.2209 0.781409C63.4643 0.718335 62.7077 0.655261 61.9282 0.590275C61.9282 0.464127 61.9282 0.337979 61.9282 0.208008Z" fill="#F1AD81"/>
<path d="M21.2335 45.6978C21.2966 45.8239 21.3596 45.9501 21.4246 46.08C21.2455 46.4862 21.2455 46.4862 21.0425 46.8446C20.9164 46.8446 20.7903 46.8446 20.6604 46.8446C20.6092 46.9589 20.5579 47.0732 20.5052 47.191C20.2784 47.6088 20.0689 47.8792 19.7051 48.1825C19.579 48.1825 19.4529 48.1825 19.323 48.1825C19.323 48.0563 19.323 47.9302 19.323 47.8002C19.4491 47.8002 19.5752 47.8002 19.7051 47.8002C19.7558 47.6889 19.8066 47.5775 19.8588 47.4628C20.0935 47.0239 20.3553 46.691 20.6843 46.3189C20.7872 46.2017 20.8902 46.0844 20.9962 45.9635C21.1137 45.832 21.1137 45.832 21.2335 45.6978Z" fill="#E05041"/>
<path d="M27.9206 39.9637C27.6247 40.6035 27.2536 41.1577 26.8459 41.7317C26.7252 41.9022 26.6045 42.0727 26.4802 42.2484C26.3881 42.3775 26.296 42.5066 26.2011 42.6396C26.0831 42.2872 26.0831 42.2872 26.01 41.8751C26.2547 41.5487 26.5101 41.2302 26.7742 40.9194C26.8274 40.7065 26.8274 40.7065 26.8817 40.4894C26.9093 40.379 26.9369 40.2686 26.9653 40.1549C27.5385 39.9637 27.5385 39.9637 27.9206 39.9637Z" fill="#E0A87F"/>
<path d="M36.9001 38.2435C37.5488 38.5121 37.869 38.7925 38.2375 39.3903C38.3069 39.8697 38.3069 39.8697 38.2972 40.3699C38.2965 40.536 38.2958 40.702 38.295 40.8731C38.2375 41.3017 38.2375 41.3017 37.8554 41.6839C37.9185 40.9901 37.9815 40.2963 38.0465 39.5815C37.8573 39.5184 37.6682 39.4553 37.4733 39.3903C36.9001 38.732 36.9001 38.732 36.9001 38.2435Z" fill="#D65961"/>
<path d="M88.676 29.4514C89.0113 29.6249 89.3454 29.8005 89.6791 29.977C89.8653 30.0746 90.0514 30.1722 90.2433 30.2727C90.7614 30.5883 91.1345 30.9164 91.5419 31.3628C90.3727 31.1957 89.5496 30.6078 88.676 29.8337C88.676 29.7075 88.676 29.5814 88.676 29.4514Z" fill="#200903"/>
<path d="M39.1928 29.8337C38.4363 30.4014 37.6797 30.9691 36.9002 31.5539C36.7741 31.4908 36.648 31.4278 36.5181 31.3628C36.5181 31.2366 36.5181 31.1105 36.5181 30.9805C36.6678 30.9293 36.8175 30.878 36.9718 30.8252C37.5271 30.6273 37.5271 30.6273 37.8555 30.0249C38.4267 29.6561 38.5217 29.6099 39.1928 29.8337Z" fill="#E4A67E"/>
<path d="M43.587 2.11928C42.9033 2.48704 42.1917 2.74247 41.4615 3.00327C41.1061 3.13115 41.1061 3.13115 40.7435 3.2616C40.148 3.45722 40.148 3.45722 39.7659 3.45722C39.7659 3.26799 39.7659 3.07877 39.7659 2.88381C40.2232 2.75489 40.681 2.62774 41.1391 2.50155C41.2678 2.46508 41.3964 2.42862 41.529 2.39105C42.2315 2.19906 42.8581 2.07397 43.587 2.11928Z" fill="#FFF2E1"/>
<path d="M28.6848 110.683C29.2102 110.635 29.2102 110.635 29.8311 110.683C30.2371 111.053 30.2371 111.053 30.5954 111.448C31.0039 111.598 31.0039 111.598 31.3596 111.639C31.3596 111.828 31.3596 112.017 31.3596 112.212C30.3594 111.937 29.5197 111.483 28.6848 110.874C28.6848 110.811 28.6848 110.748 28.6848 110.683Z" fill="#F2B690"/>
<path d="M100.331 88.8939C100.331 89.8749 99.6962 90.4782 99.0409 91.1636C98.899 91.2977 98.7572 91.4317 98.611 91.5698C98.4219 91.5067 98.2327 91.4436 98.0378 91.3787C98.7944 90.5587 99.551 89.7387 100.331 88.8939Z" fill="#E9A87F"/>
<path d="M95.554 38.4347C96.1673 38.6988 96.5187 38.9936 96.9391 39.5098C97.0884 39.6909 97.0884 39.6909 97.2406 39.8757C97.3514 40.0139 97.3514 40.0139 97.4645 40.1549C96.8971 40.0603 96.8971 40.0603 96.3182 39.9638C96.3182 39.8376 96.3182 39.7115 96.3182 39.5815C96.1921 39.5815 96.066 39.5815 95.9361 39.5815C95.9361 39.3923 95.9361 39.203 95.9361 39.0081C95.81 39.0081 95.6839 39.0081 95.554 39.0081C95.554 38.8189 95.554 38.6296 95.554 38.4347Z" fill="#DEC2B2"/>
<path d="M35.1805 32.1273C35.3697 32.1273 35.5588 32.1273 35.7537 32.1273C35.7537 32.2535 35.7537 32.3796 35.7537 32.5096C35.4194 32.7978 35.4194 32.7978 34.9895 33.1069C34.8476 33.2099 34.7058 33.3129 34.5596 33.419C34.4493 33.4973 34.3389 33.5757 34.2253 33.6564C34.1622 33.5302 34.0992 33.4041 34.0342 33.2741C33.9081 33.2741 33.782 33.2741 33.6521 33.2741C33.6521 33.0218 33.6521 32.7695 33.6521 32.5096C33.8708 32.5746 33.8708 32.5746 34.0939 32.641C34.2634 32.6607 34.4328 32.6804 34.6074 32.7007C34.9218 32.4339 34.9218 32.4339 35.1805 32.1273Z" fill="#E8A77A"/>
<path d="M76.8305 103.994C76.7066 104.367 76.7066 104.367 76.4484 104.758C75.9514 104.875 75.9514 104.875 75.3737 104.901C75.1821 104.912 74.9905 104.923 74.7931 104.934C74.6458 104.939 74.4986 104.944 74.3468 104.949C74.2838 104.823 74.2207 104.697 74.1558 104.567C74.4578 104.47 74.7605 104.375 75.0633 104.28C75.316 104.2 75.316 104.2 75.5737 104.119C76.0663 103.994 76.0663 103.994 76.8305 103.994Z" fill="#DC9F74"/>
<path d="M36.9001 100.171C37.5993 100.445 38.2834 100.742 38.9659 101.055C39.2456 101.183 39.2456 101.183 39.5309 101.313C39.6715 101.378 39.8121 101.442 39.957 101.509C39.957 101.572 39.957 101.635 39.957 101.7C39.5157 101.7 39.0744 101.7 38.6196 101.7C38.6196 101.574 38.6196 101.448 38.6196 101.318C38.4778 101.263 38.3359 101.207 38.1898 101.15C37.747 100.969 37.3244 100.773 36.9001 100.553C36.9001 100.427 36.9001 100.301 36.9001 100.171Z" fill="#DDA37B"/>
<path d="M114.659 36.5233C115.152 37.0164 115.297 37.4968 115.543 38.148C115.671 38.482 115.671 38.482 115.801 38.8229C115.997 39.3903 115.997 39.3903 115.997 39.7726C115.808 39.7095 115.619 39.6464 115.424 39.5815C115.2 39.0879 115.2 39.0879 115.006 38.4705C114.94 38.2682 114.874 38.0659 114.806 37.8575C114.659 37.2878 114.659 37.2878 114.659 36.5233Z" fill="#F2B18C"/>
<path d="M22.1889 32.7007C21.6831 32.9798 21.4449 33.0829 20.8515 33.0829C20.8003 33.1973 20.7491 33.3116 20.6963 33.4294C20.4696 33.8472 20.26 34.1176 19.8963 34.4209C19.7702 34.4209 19.6441 34.4209 19.5142 34.4209C19.7566 33.673 19.9846 33.3016 20.6605 32.8918C21.2199 32.7052 21.6074 32.6849 22.1889 32.7007Z" fill="#E35B48"/>
<path d="M80.4606 25.0553C81.0911 25.1184 81.7215 25.1814 82.3711 25.2464C82.1801 25.8198 82.1801 25.8198 81.8577 25.9871C81.2188 26.0216 80.8156 25.7479 80.2695 25.4376C80.3326 25.3114 80.3956 25.1853 80.4606 25.0553Z" fill="#E7A472"/>
<path d="M22.38 104.567C22.5691 104.567 22.7583 104.567 22.9531 104.567C22.8495 105.292 22.5326 105.613 21.9979 106.096C21.7457 105.844 21.4935 105.591 21.2336 105.331C21.3519 105.312 21.4701 105.292 21.5919 105.272C22.0676 105.164 22.0676 105.164 22.38 104.567Z" fill="#F4AE81"/>
<path d="M101.668 102.082C101.731 102.208 101.794 102.334 101.859 102.464C100.535 104.149 100.535 104.149 99.3752 104.376C100.139 103.611 100.904 102.847 101.668 102.082Z" fill="#FEEBD9"/>
<path d="M18.3679 77.9994C18.6441 78.5303 18.8742 79.0593 19.0724 79.624C19.1244 79.7679 19.1763 79.9118 19.2299 80.06C19.3331 80.5292 19.2845 80.7984 19.1321 81.2487C18.5205 80.6369 18.3947 79.7843 18.344 78.9394C18.344 78.6259 18.3548 78.3125 18.3679 77.9994Z" fill="#D49D76"/>
<path d="M57.9162 52.9608C58.0768 53.4106 58.1233 53.665 57.9998 54.1315C57.6106 54.6395 57.1842 54.7142 56.5789 54.8722C56.7657 54.5893 56.9528 54.3066 57.1401 54.024C57.2443 53.8666 57.3484 53.7091 57.4558 53.5469C57.7252 53.1519 57.7252 53.1519 57.9162 52.9608Z" fill="#DFA177"/>
<path d="M60.5909 50.4761C60.717 50.6022 60.8431 50.7284 60.973 50.8583C59.6929 52.1389 59.6929 52.1389 59.0624 52.3874C58.8733 52.3243 58.6841 52.2613 58.4893 52.1963C59.1828 51.6286 59.8763 51.0609 60.5909 50.4761Z" fill="#E2A378"/>
<path d="M93.4524 36.5233C94.0711 36.7994 94.5261 37.146 95.0286 37.5984C95.1636 37.7192 95.2985 37.8399 95.4376 37.9643C95.539 38.0564 95.6405 38.1486 95.7451 38.2435C95.5559 38.3066 95.3668 38.3697 95.1719 38.4347C94.7819 38.1258 94.3999 37.8067 94.0256 37.479C93.8364 37.4159 93.6473 37.3528 93.4524 37.2878C93.4524 37.0356 93.4524 36.7833 93.4524 36.5233Z" fill="#EBE1D7"/>
<path d="M10.3435 26.011C10.4066 26.1371 10.4696 26.2633 10.5346 26.3933C10.352 26.727 10.1677 27.06 9.96962 27.3848C9.74526 27.7508 9.74526 27.7508 9.5793 28.2688C9.38824 28.6869 9.38824 28.6869 8.98225 28.9377C8.80493 29.0028 8.80493 29.0028 8.62402 29.0691C8.68707 28.8168 8.75012 28.5645 8.81508 28.3046C8.94117 28.3046 9.06727 28.3046 9.19719 28.3046C9.21862 28.1952 9.24004 28.0858 9.26212 27.9731C9.40204 27.4927 9.60577 27.1465 9.87782 26.7277C9.96476 26.5927 10.0517 26.4577 10.1413 26.3186C10.208 26.2171 10.2748 26.1156 10.3435 26.011Z" fill="#F3B28B"/>
<path d="M38.2375 100.744C39.3407 100.836 40.1402 101.162 41.1034 101.7C41.1034 101.826 41.1034 101.952 41.1034 102.082C40.1106 101.777 39.1802 101.367 38.2375 100.935C38.2375 100.872 38.2375 100.809 38.2375 100.744Z" fill="#271007"/>
<path d="M109.501 67.8693C109.564 67.8693 109.627 67.8693 109.692 67.8693C109.692 68.6892 109.692 69.5092 109.692 70.354C109.503 70.354 109.314 70.354 109.119 70.354C109.146 70.0115 109.174 69.669 109.202 69.3267C109.218 69.136 109.234 68.9453 109.25 68.7488C109.31 68.2515 109.31 68.2515 109.501 67.8693Z" fill="#DC9E77"/>
<path d="M45.3066 58.6949C45.2436 58.8841 45.1805 59.0733 45.1156 59.2683C45.2416 59.2683 45.3677 59.2683 45.4977 59.2683C45.4346 59.3944 45.3716 59.5206 45.3066 59.6505C44.3752 59.2922 44.3752 59.2922 44.1603 59.0771C43.9028 59.033 43.6437 58.9985 43.3841 58.9696C43.1359 58.942 42.8876 58.9144 42.6318 58.886C42.6318 58.8229 42.6318 58.7599 42.6318 58.6949C43.0059 58.6577 43.38 58.6222 43.7543 58.5874C44.0668 58.5574 44.0668 58.5574 44.3857 58.5269C44.9245 58.5037 44.9245 58.5037 45.3066 58.6949Z" fill="#F2D4C3"/>
<path d="M58.1072 52.1963C58.2333 52.1963 58.3594 52.1963 58.4893 52.1963C58.2045 52.8237 57.8423 53.3299 57.4146 53.8687C57.2336 54.0978 57.2336 54.0978 57.0489 54.3316C56.9568 54.4469 56.8647 54.5622 56.7698 54.681C56.6437 54.4918 56.5176 54.3026 56.3877 54.1076C56.5768 54.0446 56.766 53.9815 56.9609 53.9165C57.0954 53.6653 57.2214 53.4096 57.343 53.152C57.7251 52.6263 57.7251 52.6263 58.1072 52.1963Z" fill="#230C06"/>
<path d="M13.9734 38.8169C14.0808 39.1872 14.0808 39.1872 14.1644 39.5814C14.1014 39.6445 14.0383 39.7076 13.9734 39.7726C13.9474 40.4728 13.9419 41.0161 14.1644 41.6839C14.0383 41.6839 13.9122 41.6839 13.7823 41.6839C13.43 41.0902 13.3612 40.7181 13.448 40.0354C13.4647 39.887 13.4815 39.7387 13.4987 39.5859C13.5913 39.1992 13.5913 39.1992 13.9734 38.8169Z" fill="#DF503E"/>
<path d="M94.7898 33.4652C95.4517 33.6979 95.8289 33.9313 96.3182 34.4209C96.7201 34.5574 96.7201 34.5574 97.0825 34.612C97.1455 34.8643 97.2086 35.1166 97.2735 35.3765C96.4859 35.3765 96.2794 35.056 95.7092 34.5284C95.5371 34.371 95.3649 34.2135 95.1876 34.0513C95.0563 33.921 94.925 33.7906 94.7898 33.6563C94.7898 33.5933 94.7898 33.5302 94.7898 33.4652Z" fill="#DDA378"/>
<path d="M96.7003 106.478C96.8264 106.541 96.9525 106.604 97.0825 106.669C96.883 106.927 96.6791 107.181 96.4735 107.434C96.3604 107.576 96.2474 107.718 96.1309 107.864C95.7451 108.198 95.7451 108.198 95.2219 108.246C95.0793 108.23 94.9367 108.215 94.7898 108.198C95.3953 107.575 96.0124 107.009 96.7003 106.478Z" fill="#FEF0DF"/>
<path d="M103.96 82.9689C104.087 82.9689 104.213 82.9689 104.343 82.9689C104.029 83.8817 103.528 84.6497 103.005 85.4536C102.79 84.7369 102.79 84.7369 103.005 84.3068C103.131 84.3068 103.257 84.3068 103.387 84.3068C103.411 84.157 103.435 84.0072 103.459 83.8529C103.578 83.3511 103.578 83.3511 103.96 82.9689Z" fill="#200B04"/>
<path d="M84.8549 26.9667C84.981 26.9667 85.1071 26.9667 85.237 26.9667C85.237 27.0928 85.237 27.219 85.237 27.3489C85.6035 27.3844 85.6035 27.3844 85.9773 27.4206C86.7177 27.4923 86.7177 27.4923 87.1475 27.9223C87.0845 28.1116 87.0214 28.3008 86.9565 28.4957C86.1999 28.1173 85.4433 27.7389 84.6638 27.3489C84.7269 27.2228 84.7899 27.0966 84.8549 26.9667Z" fill="#E4A378"/>
<path d="M97.2735 105.523C97.4626 105.586 97.6517 105.649 97.8466 105.714C97.573 105.966 97.2981 106.216 97.0227 106.466C96.8697 106.606 96.7168 106.746 96.5592 106.89C96.1271 107.243 96.1271 107.243 95.554 107.434C95.554 107.245 95.554 107.055 95.554 106.861C95.7431 106.861 95.9322 106.861 96.1271 106.861C96.1271 106.734 96.1271 106.608 96.1271 106.478C96.3793 106.415 96.6315 106.352 96.8913 106.287C96.8913 106.098 96.8913 105.909 96.8913 105.714C97.0174 105.651 97.1435 105.588 97.2735 105.523Z" fill="#EDAE86"/>
<path d="M3.08331 39.7726C3.20941 39.7726 3.3355 39.7726 3.46542 39.7726C3.16179 40.7972 2.85601 41.8193 2.51015 42.8307C2.4471 42.8307 2.38405 42.8307 2.31909 42.8307C2.41919 41.7091 2.65556 40.8145 3.08331 39.7726Z" fill="#FFF1E0"/>
<path d="M19.5141 33.4652C19.6402 33.5283 19.7663 33.5914 19.8962 33.6563C19.8023 33.7968 19.8023 33.7968 19.7066 33.9401C19.4343 34.6202 19.4736 35.2775 19.4902 35.9977C19.4919 36.1401 19.4936 36.2825 19.4954 36.4293C19.4999 36.7792 19.5067 37.1291 19.5141 37.479C19.451 37.479 19.388 37.479 19.323 37.479C19.0034 35.0008 19.0034 35.0008 19.132 33.8475C19.258 33.7213 19.3841 33.5952 19.5141 33.4652Z" fill="#FC916F"/>
<path d="M48.3635 24.4819C48.4896 24.6081 48.6157 24.7342 48.7456 24.8642C48.4446 25.0303 48.1417 25.1929 47.8381 25.354C47.6696 25.4449 47.5011 25.5358 47.3276 25.6295C46.7955 25.8352 46.5924 25.8323 46.0708 25.6287C46.835 25.2465 47.5992 24.8642 48.3635 24.4819Z" fill="#ECA979"/>
<path d="M51.0382 13.9696C51.1013 13.9696 51.1643 13.9696 51.2293 13.9696C51.2962 15.0862 51.2612 15.8529 50.6561 16.8366C50.4048 16.1373 50.531 15.6745 50.7397 14.9731C50.7946 14.7848 50.8495 14.5966 50.9061 14.4026C50.9497 14.2597 50.9933 14.1168 51.0382 13.9696Z" fill="#D6976B"/>
<path d="M66.5137 10.5292C67.0977 11.4055 67.1083 12.0145 67.0988 13.0497C67.0971 13.2929 67.0954 13.5361 67.0936 13.7867C67.0914 13.9732 67.0892 14.1597 67.0869 14.3518C67.0239 14.3518 66.9608 14.3518 66.8959 14.3518C66.4572 11.7461 66.4572 11.7461 66.5137 10.5292Z" fill="#2A1007"/>
<path d="M107.017 95.5836C107.143 95.6467 107.269 95.7098 107.399 95.7748C106.832 96.4686 106.264 97.1624 105.68 97.8772C105.617 97.688 105.554 97.4988 105.489 97.3038C105.552 97.1777 105.615 97.0515 105.68 96.9216C105.806 96.9216 105.932 96.9216 106.062 96.9216C106.062 96.7954 106.062 96.6693 106.062 96.5393C106.188 96.5393 106.314 96.5393 106.444 96.5393C106.444 96.4131 106.444 96.287 106.444 96.157C106.731 95.8464 106.731 95.8464 107.017 95.5836Z" fill="#EEAE86"/>
<path d="M68.8063 58.5037C69.3204 58.5374 69.8243 58.6219 70.3347 58.6948C70.3347 58.7579 70.3347 58.8209 70.3347 58.8859C69.941 58.9828 69.5469 59.0781 69.1526 59.1726C68.8234 59.2525 68.8234 59.2525 68.4876 59.3339C67.9335 59.4431 67.4573 59.4847 66.8958 59.4593C67.4083 58.9466 67.9249 58.8831 68.6152 58.6948C68.6783 58.6317 68.7413 58.5686 68.8063 58.5037Z" fill="#30170D"/>
<path d="M29.0669 43.4042C29.4006 43.9048 29.523 44.176 29.6401 44.7421C29.8923 44.8052 30.1445 44.8683 30.4043 44.9332C30.4043 45.0594 30.4043 45.1855 30.4043 45.3155C29.7434 45.0768 29.2299 44.8042 28.6848 44.3598C28.8109 44.0445 28.937 43.7291 29.0669 43.4042Z" fill="#F8E3DF"/>
<path d="M28.8759 43.213C29.002 43.2761 29.1281 43.3392 29.258 43.4041C29.0789 43.7984 29.0789 43.7984 28.6849 44.1687C28.094 44.2001 27.5363 44.1315 26.9654 43.9775C26.8393 43.8514 26.7132 43.7253 26.5833 43.5953C26.7167 43.5997 26.8502 43.6041 26.9878 43.6087C27.2486 43.6139 27.2486 43.6139 27.5146 43.6192C27.6875 43.6236 27.8604 43.628 28.0386 43.6326C28.5297 43.6418 28.5297 43.6418 28.8759 43.213Z" fill="#200909"/>
<path d="M29.449 8.42676C29.449 8.55291 29.449 8.67905 29.449 8.80903C28.6459 9.4361 27.9371 9.7225 26.9653 9.95583C27.5735 9.27443 28.4868 8.42676 29.449 8.42676Z" fill="#F3AF87"/>
<path d="M55.0503 0.208008C55.7438 0.208008 56.4374 0.208008 57.1519 0.208008C57.0889 0.334156 57.0258 0.460304 56.9608 0.590275C56.3174 0.769078 55.7155 0.800421 55.0503 0.781409C55.0503 0.592186 55.0503 0.402964 55.0503 0.208008Z" fill="#F0AB7C"/>
<path d="M93.0704 108.581C93.2595 108.644 93.4487 108.707 93.6436 108.772C93.1138 109.361 92.6762 109.668 91.9241 109.919C91.9241 109.729 91.9241 109.54 91.9241 109.345C92.1132 109.345 92.3024 109.345 92.4972 109.345C92.5603 109.156 92.6233 108.967 92.6883 108.772C92.8144 108.709 92.9405 108.646 93.0704 108.581Z" fill="#F1B081"/>
<path d="M61.1641 69.9717C61.4428 69.9986 61.7214 70.0267 61.9999 70.0553C62.2327 70.0786 62.2327 70.0786 62.4701 70.1023C62.8836 70.1628 62.8836 70.1628 63.2657 70.3539C63.2657 70.4801 63.2657 70.6062 63.2657 70.7362C63.4548 70.7993 63.644 70.8624 63.8388 70.9273C62.8735 70.8066 62.0628 70.5194 61.1641 70.1628C61.1641 70.0997 61.1641 70.0367 61.1641 69.9717Z" fill="#D89C74"/>
<path d="M41.8674 58.1215C42.8762 58.2476 43.885 58.3738 44.9243 58.5037C44.9243 58.5668 44.9243 58.6299 44.9243 58.6949C43.9786 58.7579 43.0329 58.821 42.0585 58.886C41.9954 58.6337 41.9324 58.3814 41.8674 58.1215Z" fill="#C0A491"/>
<path d="M28.8759 56.4012C28.8759 57.0112 28.8506 57.2523 28.4937 57.7392C27.8967 57.8825 27.8967 57.8825 27.3474 57.9303C27.5297 57.7107 27.713 57.4918 27.8967 57.2733C27.9987 57.1513 28.1006 57.0294 28.2057 56.9037C28.4937 56.5924 28.4937 56.5924 28.8759 56.4012Z" fill="#F5D2BC"/>
<path d="M23.5263 50.2849C23.5894 50.4741 23.6524 50.6634 23.7174 50.8583C23.2669 51.4442 23.0085 51.7605 22.2733 51.92C21.7984 51.9645 21.3283 51.9949 20.8516 52.0051C20.8516 51.942 20.8516 51.879 20.8516 51.814C20.9806 51.7837 21.1097 51.7534 21.2426 51.7221C22.2901 51.4481 22.944 51.2647 23.5263 50.2849Z" fill="#2A0605"/>
<path d="M8.62396 27.9224C8.8131 27.9224 9.00225 27.9224 9.19712 27.9224C9.19712 28.0485 9.19712 28.1747 9.19712 28.3046C9.07103 28.3046 8.94493 28.3046 8.81501 28.3046C8.76379 28.4387 8.71256 28.5727 8.65978 28.7108C8.41988 29.2918 8.14587 29.8476 7.85974 30.4071C7.79669 30.4071 7.73364 30.4071 7.66868 30.4071C7.63031 29.6968 7.63965 29.495 8.05079 28.878C8.17689 28.878 8.30298 28.878 8.4329 28.878C8.49595 28.5627 8.559 28.2473 8.62396 27.9224Z" fill="#FDF4E2"/>
<path d="M56.5789 21.806C57.0832 21.8691 57.5876 21.9322 58.1073 21.9972C58.1073 22.1233 58.1073 22.2495 58.1073 22.3794C58.3595 22.4425 58.6117 22.5056 58.8715 22.5706C58.1149 22.5075 57.3584 22.4444 56.5789 22.3794C56.5789 22.1902 56.5789 22.001 56.5789 21.806Z" fill="#ED9F66"/>
<path d="M18.9408 56.7834C19.1153 57.3627 19.1444 57.8308 19.0841 58.432C19.0713 58.5803 19.0585 58.7286 19.0453 58.8814C18.9408 59.2682 18.9408 59.2682 18.3677 59.6505C18.473 58.6491 18.6407 57.7442 18.9408 56.7834Z" fill="#351A10"/>
<path d="M19.5141 43.213C19.5772 43.4022 19.6402 43.5915 19.7052 43.7864C18.7595 43.7233 17.8137 43.6603 16.8394 43.5953C16.8394 43.5322 16.8394 43.4691 16.8394 43.4041C17.1418 43.3718 17.4443 43.3401 17.7469 43.3086C17.9153 43.2908 18.0838 43.2731 18.2573 43.2548C18.7499 43.213 18.7499 43.213 19.5141 43.213Z" fill="#FD9874"/>
<path d="M44.1601 26.7755C43.6729 27.3442 43.1278 27.6359 42.4406 27.9224C42.2515 27.8593 42.0623 27.7962 41.8674 27.7312C41.9935 27.7312 42.1196 27.7312 42.2495 27.7312C42.2495 27.6051 42.2495 27.4789 42.2495 27.349C42.4387 27.349 42.6278 27.349 42.8227 27.349C42.8227 27.2228 42.8227 27.0967 42.8227 26.9667C43.5153 26.5605 43.5153 26.5605 44.1601 26.7755Z" fill="#E5A87C"/>
<path d="M24.6725 11.4848C23.8214 12.1471 23.8214 12.1471 22.953 12.8227C22.89 12.6335 22.8269 12.4443 22.762 12.2493C22.9511 12.2493 23.1403 12.2493 23.3351 12.2493C23.3588 12.1271 23.3824 12.0049 23.4068 11.879C23.4462 11.7489 23.4856 11.6188 23.5262 11.4848C23.9083 11.2936 23.9083 11.2936 24.6725 11.4848Z" fill="#FEF0DF"/>
<path d="M11.2988 94.8191C11.927 95.4135 12.4141 95.969 12.8273 96.7304C12.2703 96.5251 11.9144 96.3906 11.4899 95.9659C11.4139 95.5859 11.3489 95.2034 11.2988 94.8191Z" fill="#FEF2E1"/>
<path d="M2.70117 76.8525C3.14062 77.2922 3.16458 77.4859 3.27434 78.083C3.38984 78.7092 3.48201 78.9799 3.8475 79.5284C3.72141 79.6546 3.59531 79.7807 3.46539 79.9107C3.09767 78.8903 2.81601 77.9325 2.70117 76.8525Z" fill="#F0B38A"/>
<path d="M57.7252 65.1934C57.8513 65.1934 57.9774 65.1934 58.1073 65.1934C58.1073 65.5718 58.1073 65.9502 58.1073 66.3402C57.9812 66.3402 57.8551 66.3402 57.7252 66.3402C57.6621 66.5294 57.5991 66.7186 57.5341 66.9136C57.345 66.7243 57.1558 66.5351 56.9609 66.3402C57.1501 66.214 57.3392 66.0879 57.5341 65.9579C57.6724 65.5643 57.6724 65.5643 57.7252 65.1934Z" fill="#EAA779"/>
<path d="M40.7212 56.9746C41.366 57.106 41.366 57.106 42.0586 57.3569C42.3332 57.8586 42.3332 57.8586 42.4407 58.3125C41.6694 57.9696 41.1712 57.6999 40.7212 56.9746Z" fill="#1C0E09"/>
<path d="M68.9973 55.8278C68.1146 56.1432 67.2319 56.4586 66.3225 56.7835C66.7046 56.019 66.7046 56.019 67.0494 55.854C67.2452 55.8115 67.2452 55.8115 67.445 55.7681C67.5745 55.7373 67.704 55.7065 67.8375 55.6748C68.2331 55.6367 68.2331 55.6367 68.9973 55.8278Z" fill="#E5AA82"/>
<path d="M103.578 42.8308C103.704 42.8308 103.831 42.8308 103.96 42.8308C103.96 42.957 103.96 43.0831 103.96 43.2131C104.087 43.2131 104.213 43.2131 104.343 43.2131C104.406 43.0869 104.469 42.9608 104.534 42.8308C104.725 43.0219 104.725 43.0219 104.737 43.6073C104.733 43.7926 104.729 43.9779 104.725 44.1687C104.153 43.959 103.99 43.8482 103.722 43.2848C103.674 43.135 103.627 42.9852 103.578 42.8308Z" fill="#EFAA79"/>
<path d="M28.1115 39.5815C28.3277 39.7551 28.5424 39.9307 28.7563 40.1072C28.876 40.2047 28.9957 40.3023 29.119 40.4028C29.4647 40.744 29.6401 41.0494 29.831 41.4929C29.0779 41.1742 28.5338 40.6849 27.9204 40.1549C27.9835 39.9657 28.0465 39.7765 28.1115 39.5815Z" fill="#BF4246"/>
<path d="M32.8879 34.8031C33.079 35.3765 33.079 35.3765 32.8879 35.9499C32.6988 35.9499 32.5096 35.9499 32.3148 35.9499C32.2517 36.2022 32.1887 36.4545 32.1237 36.7144C32.0759 36.0813 32.0759 36.0813 32.1237 35.3765C32.5058 35.0062 32.5058 35.0062 32.8879 34.8031Z" fill="#1F0B08"/>
<path d="M55.4324 22.1884C56.189 22.2514 56.9455 22.3145 57.725 22.3795C56.8847 22.7998 56.3522 22.8609 55.4324 22.9529C55.4324 22.7006 55.4324 22.4483 55.4324 22.1884Z" fill="#F0AA7C"/>
<path d="M104.152 20.0858C104.942 20.7166 105.601 21.2657 106.062 22.1883C105.936 22.1883 105.81 22.1883 105.68 22.1883C105.68 22.0621 105.68 21.936 105.68 21.806C105.554 21.806 105.428 21.806 105.298 21.806C105.172 21.6168 105.046 21.4276 104.916 21.2326C104.727 21.1695 104.538 21.1065 104.343 21.0415C104.28 20.7261 104.217 20.4107 104.152 20.0858Z" fill="#F1B285"/>
<path d="M64.221 18.3656C64.3471 18.4917 64.4732 18.6179 64.6031 18.7479C63.8776 19.2879 63.4213 19.6207 62.5015 19.5124C62.9876 18.945 63.5503 18.6787 64.221 18.3656Z" fill="#EAA97C"/>
<path d="M25.4369 10.7203C25.563 10.7834 25.6891 10.8465 25.819 10.9115C25.7559 11.2268 25.6929 11.5422 25.6279 11.8671C25.5136 11.8356 25.3994 11.8041 25.2816 11.7716C24.842 11.6547 24.842 11.6547 24.2905 11.676C24.6688 11.3606 25.0471 11.0453 25.4369 10.7203Z" fill="#F6B186"/>
<path d="M92.3061 96.3481C92.3692 96.6004 92.4322 96.8527 92.4972 97.1127C91.8805 97.524 91.6787 97.5333 90.9688 97.4949C91.8763 96.5632 91.8763 96.5632 92.3061 96.3481Z" fill="#E5A67B"/>
<path d="M77.4038 64.8112C77.5299 64.8112 77.656 64.8112 77.7859 64.8112C77.5419 65.7654 77.1796 66.2592 76.4485 66.9136C76.5115 66.5983 76.5746 66.2829 76.6395 65.958C76.7656 65.958 76.8917 65.958 77.0217 65.958C77.1477 65.5795 77.2738 65.2011 77.4038 64.8112Z" fill="#E2A782"/>
<path d="M16.2662 38.0524C16.3292 38.1785 16.3923 38.3047 16.4572 38.4346C16.3154 38.4622 16.1735 38.4898 16.0273 38.5183C15.5186 38.6147 15.5186 38.6147 15.0959 38.7452C14.7377 38.8169 14.7377 38.8169 14.1646 38.6258C14.836 37.9809 15.3607 38.0001 16.2662 38.0524Z" fill="#DF4C3D"/>
<path d="M14.5946 38.1002C14.7601 38.1711 14.7601 38.1711 14.9289 38.2435C14.6429 38.4737 14.3568 38.7039 14.0707 38.9341C13.7343 39.2226 13.7343 39.2226 13.4005 39.7726C13.3298 39.1359 13.348 38.8881 13.7349 38.363C14.1647 38.0524 14.1647 38.0524 14.5946 38.1002Z" fill="#FE9571"/>
<path d="M84.6639 37.0968C84.79 37.1599 84.9161 37.2229 85.046 37.2879C84.5634 38.1117 83.9965 38.3008 83.1355 38.6259C83.4225 37.8219 83.9543 37.529 84.6639 37.0968Z" fill="#F8D8C7"/>
<path d="M50.656 20.6593C51.0572 21.408 51.2279 22.1283 51.4203 22.9529C51.2311 23.016 51.042 23.0791 50.8471 23.144C50.6804 22.5716 50.6353 22.0669 50.6441 21.4716C50.6458 21.3189 50.6475 21.1661 50.6493 21.0087C50.6515 20.8934 50.6538 20.7781 50.656 20.6593Z" fill="#1A0A05"/>
<path d="M65.7494 17.0277C65.8755 17.0277 66.0016 17.0277 66.1315 17.0277C66.0684 17.3431 66.0054 17.6585 65.9404 17.9834C65.4991 18.0465 65.0577 18.1095 64.603 18.1745C64.9851 17.7922 65.3672 17.41 65.7494 17.0277Z" fill="#EBA979"/>
<path d="M56.1966 13.3961C56.2597 13.3961 56.3227 13.3961 56.3877 13.3961C56.4195 14.3367 56.4351 15.0214 56.0056 15.8809C55.9425 15.8809 55.8795 15.8809 55.8145 15.8809C55.7826 14.9402 55.7671 14.2556 56.1966 13.3961Z" fill="#412519"/>
<path d="M20.8515 13.7784C21.0407 13.8415 21.2298 13.9046 21.4247 13.9696C21.2428 14.1618 21.0594 14.3527 20.8754 14.543C20.7734 14.6494 20.6715 14.7559 20.5664 14.8655C20.2784 15.1164 20.2784 15.1164 19.8962 15.1164C19.9593 14.8641 20.0223 14.6118 20.0873 14.3518C20.2134 14.3518 20.3395 14.3518 20.4694 14.3518C20.4694 14.2257 20.4694 14.0995 20.4694 13.9696C20.5955 13.9065 20.7216 13.8434 20.8515 13.7784Z" fill="#FEF3E3"/>
<path d="M33.6522 112.021C33.6522 112.21 33.6522 112.4 33.6522 112.595C33.2701 112.977 33.2701 112.977 32.888 113.168C32.6358 112.979 32.3836 112.789 32.1238 112.595C33.2223 112.021 33.2223 112.021 33.6522 112.021Z" fill="#F2AC7E"/>
<path d="M84.0907 101.126C84.2168 101.19 84.3429 101.253 84.4728 101.318C84.1496 101.708 83.969 101.875 83.4676 101.989C83.3146 102 83.1617 102.011 83.0041 102.022C82.8497 102.035 82.6953 102.048 82.5362 102.06C82.36 102.071 82.36 102.071 82.1802 102.082C82.7982 101.67 83.3975 101.391 84.0907 101.126Z" fill="#D19972"/>
<path d="M13.2092 97.1127C13.5794 97.1724 13.5794 97.1724 13.9734 97.3038C14.0365 97.493 14.0995 97.6822 14.1645 97.8772C14.546 98.1993 14.546 98.1993 14.9287 98.4506C14.8657 98.6398 14.8026 98.8291 14.7377 99.024C14.4824 98.7418 14.2277 98.459 13.9734 98.1759C13.8316 98.0184 13.6897 97.861 13.5436 97.6988C13.2092 97.3038 13.2092 97.3038 13.2092 97.1127Z" fill="#EEB289"/>
<path d="M112.558 86.4092C112.747 86.4092 112.936 86.4092 113.131 86.4092C113.003 87.2107 112.586 87.8242 112.176 88.5116C111.994 88.097 111.957 87.8306 112.1 87.3984C112.244 87.0651 112.401 86.7367 112.558 86.4092Z" fill="#EDB68D"/>
<path d="M5.94922 85.6447C6.07532 85.6447 6.20141 85.6447 6.33133 85.6447C6.33133 85.7708 6.33133 85.8969 6.33133 86.0269C6.45743 86.0269 6.58352 86.0269 6.71344 86.0269C6.71344 85.9008 6.71344 85.7746 6.71344 85.6447C6.83954 85.7077 6.96563 85.7708 7.09555 85.8358C6.96945 86.2773 6.84336 86.7188 6.71344 87.1737C6.15951 86.7159 6.04442 86.3495 5.94922 85.6447Z" fill="#F5BA91"/>
<path d="M99.375 36.9056C99.9482 37.2879 99.9482 37.2879 100.08 37.7896C100.099 37.9394 100.119 38.0892 100.139 38.2436C99.781 38.2077 99.781 38.2077 99.375 38.0524C99.1362 37.5627 99.1362 37.5627 98.9929 37.0968C99.119 37.0337 99.2451 36.9706 99.375 36.9056Z" fill="#E8A579"/>
<path d="M75.1111 23.3351C75.4813 23.6337 75.4813 23.6337 75.6843 23.9085C74.0466 23.7447 74.0466 23.7447 73.3916 23.3351C73.9934 23.034 74.4683 23.1997 75.1111 23.3351Z" fill="#CE966F"/>
<path d="M94.0255 10.9115C94.8767 11.4792 94.8767 11.4792 95.745 12.0583C95.6189 12.1844 95.4928 12.3106 95.3629 12.4406C95.2999 12.2513 95.2368 12.0621 95.1719 11.8672C94.8566 11.8041 94.5414 11.741 94.2166 11.676C94.1535 11.4237 94.0905 11.1714 94.0255 10.9115ZM94.0255 11.676C94.0886 11.8022 94.1516 11.9283 94.2166 12.0583C94.0905 11.9952 93.9644 11.9322 93.8345 11.8672C93.8975 11.8041 93.9606 11.741 94.0255 11.676Z" fill="#F2B184"/>
<path d="M28.6848 110.874C29.4414 111.253 30.198 111.631 30.9775 112.021C30.2133 112.212 30.2133 112.212 29.8043 112.035C29.6713 111.948 29.5383 111.86 29.4013 111.77C29.2663 111.684 29.1313 111.598 28.9923 111.51C28.8908 111.426 28.7894 111.343 28.6848 111.257C28.6848 111.13 28.6848 111.004 28.6848 110.874Z" fill="#FEF6E4"/>
<path d="M51.9934 105.331C52.75 105.394 53.5066 105.458 54.2861 105.523C53.3331 105.999 53.0118 105.883 51.9934 105.714C51.9934 105.588 51.9934 105.461 51.9934 105.331Z" fill="#D6976F"/>
<path d="M107.973 94.8191C108.036 94.8191 108.099 94.8191 108.164 94.8191C108.211 95.2611 108.211 95.2611 108.164 95.7748C107.782 96.1212 107.782 96.1212 107.399 96.3482C107.273 96.2851 107.147 96.222 107.017 96.157C107.172 95.9335 107.327 95.7106 107.483 95.4881C107.569 95.3639 107.656 95.2397 107.745 95.1118C107.82 95.0152 107.895 94.9186 107.973 94.8191Z" fill="#FEF2E3"/>
<path d="M18.75 48.1825C18.8761 48.1825 19.0022 48.1825 19.1321 48.1825C19.1299 48.3116 19.1277 48.4407 19.1254 48.5737C19.1237 48.7442 19.1219 48.9147 19.1202 49.0904C19.118 49.2589 19.1157 49.4274 19.1135 49.6011C19.1305 50.0521 19.1953 50.4274 19.3232 50.8584C19.134 50.7953 18.9449 50.7322 18.75 50.6672C18.75 49.8473 18.75 49.0273 18.75 48.1825Z" fill="#FD9671"/>
<path d="M99.3752 42.6396C99.8811 43.1324 100.32 43.5794 100.713 44.1687C100.46 44.1687 100.208 44.1687 99.9484 44.1687C99.3752 43.0697 99.3752 43.0697 99.3752 42.6396Z" fill="#F1E8E0"/>
<path d="M3.65666 39.0081C3.71971 39.0081 3.78276 39.0081 3.84772 39.0081C3.91132 39.8194 3.93156 40.2228 3.46561 40.9074C3.33951 41.0375 3.21341 41.1676 3.0835 41.3017C3.19798 40.4999 3.38441 39.7707 3.65666 39.0081Z" fill="#F0B289"/>
<path d="M106.635 22.7617C107.196 22.9767 107.196 22.9767 107.782 23.3351C107.949 23.9444 107.949 23.9444 107.973 24.4819C107.406 23.9452 106.932 23.4912 106.635 22.7617Z" fill="#FEEAD6"/>
<path d="M42.6318 102.656C43.2623 102.719 43.8928 102.782 44.5424 102.847C44.6054 103.036 44.6685 103.225 44.7334 103.42C44.4545 103.366 44.1759 103.31 43.8976 103.253C43.7424 103.222 43.5873 103.191 43.4274 103.159C43.0139 103.038 43.0139 103.038 42.6318 102.656Z" fill="#32180D"/>
<path d="M33.0791 97.8772C33.552 98.0664 33.552 98.0664 34.0344 98.2595C33.8453 98.5118 33.6561 98.7641 33.4612 99.024C33.209 98.8979 32.9569 98.7717 32.697 98.6417C32.8231 98.3894 32.9492 98.1371 33.0791 97.8772Z" fill="#EDA674"/>
<path d="M18.3677 77.8082C18.5568 77.8713 18.746 77.9344 18.9408 77.9994C19.162 78.6632 19.145 79.2151 19.1319 79.9107C18.6622 79.2059 18.5564 78.6307 18.3677 77.8082Z" fill="#1F0803"/>
<path d="M78.168 63.8555C78.2311 63.8555 78.2941 63.8555 78.3591 63.8555C78.3591 64.297 78.3591 64.7385 78.3591 65.1934C78.1699 65.2565 77.9808 65.3196 77.7859 65.3845C77.7859 65.5738 77.7859 65.763 77.7859 65.9579C77.6598 65.9579 77.5337 65.9579 77.4038 65.9579C77.459 65.8239 77.5141 65.6899 77.571 65.5518C77.79 64.9918 77.982 64.4271 78.168 63.8555Z" fill="#291209"/>
<path d="M21.4247 45.1244C21.6138 45.1875 21.8029 45.2505 21.9978 45.3155C21.2412 45.9778 21.2412 45.9778 20.4694 46.6535C20.4063 46.4642 20.3433 46.275 20.2783 46.0801C20.5305 45.9539 20.7827 45.8278 21.0425 45.6978C21.0425 45.5716 21.0425 45.4455 21.0425 45.3155C21.1686 45.2524 21.2947 45.1894 21.4247 45.1244Z" fill="#FD9D75"/>
<path d="M24.0995 43.7864C24.0995 43.9125 24.0995 44.0387 24.0995 44.1686C23.469 44.4209 22.8386 44.6732 22.189 44.9332C22.38 44.3598 22.38 44.3598 22.8218 44.0372C23.3353 43.7864 23.3353 43.7864 24.0995 43.7864Z" fill="#FE9D78"/>
<path d="M49.701 9.57349C49.8901 9.63656 50.0792 9.69963 50.2741 9.76462C50.1197 10.02 49.9643 10.2747 49.8084 10.5292C49.722 10.6711 49.6355 10.813 49.5465 10.9592C49.4714 11.0696 49.3962 11.18 49.3188 11.2937C49.2558 11.2937 49.1927 11.2937 49.1278 11.2937C49.0777 10.6923 49.0805 10.411 49.4144 9.89602C49.5089 9.78959 49.6035 9.68315 49.701 9.57349Z" fill="#E3A274"/>
<path d="M45.8798 1.73706C45.8798 1.86321 45.8798 1.98936 45.8798 2.11933C45.5015 2.11933 45.1232 2.11933 44.7335 2.11933C44.7335 2.24548 44.7335 2.37162 44.7335 2.5016C44.1661 2.40698 44.1661 2.40698 43.5872 2.31046C44.3887 1.88091 44.9643 1.73706 45.8798 1.73706Z" fill="#F2B58E"/>
<path d="M39.957 64.62C40.1462 64.62 40.3353 64.62 40.5302 64.62C40.5302 65.1246 40.5302 65.6292 40.5302 66.1491C40.3411 66.2437 40.3411 66.2437 40.1481 66.3402C40.085 65.7725 40.022 65.2049 39.957 64.62Z" fill="#E49078"/>
<path d="M83.5176 56.5924C84.1066 56.8216 84.6759 57.0658 85.2371 57.3569C85.174 57.5462 85.111 57.7354 85.046 57.9303C84.7907 57.7439 84.5361 57.5566 84.2818 57.3689C84.1399 57.2647 83.9981 57.1604 83.8519 57.0531C83.7416 56.9641 83.6313 56.8752 83.5176 56.7835C83.5176 56.7205 83.5176 56.6574 83.5176 56.5924Z" fill="#F3D2BE"/>
<path d="M61.9283 49.5204C62.0544 49.5204 62.1805 49.5204 62.3104 49.5204C62.3735 49.7727 62.4365 50.025 62.5015 50.2849C61.6503 50.3795 61.6503 50.3795 60.782 50.4761C60.9357 50.3538 61.0893 50.2316 61.2477 50.1057C61.5988 49.825 61.5988 49.825 61.9283 49.5204Z" fill="#DA9E77"/>
<path d="M31.5506 48.7559C31.6767 48.882 31.8028 49.0082 31.9327 49.1381C31.9088 49.5204 31.9088 49.5204 31.7417 49.9027C31.3476 50.1416 31.3476 50.1416 30.9774 50.2849C30.9144 50.1588 30.8513 50.0326 30.7864 49.9027C30.9755 49.9027 31.1647 49.9027 31.3595 49.9027C31.4226 49.5242 31.4856 49.1458 31.5506 48.7559Z" fill="#D94A4F"/>
<path d="M96.7003 39.9637C97.6317 40.2982 97.6317 40.2982 97.8467 40.7283C97.6575 40.7283 97.4684 40.7283 97.2735 40.7283C97.2735 40.8544 97.2735 40.9806 97.2735 41.1105C96.7938 40.8706 96.7249 40.6326 96.5093 40.1549C96.5723 40.0918 96.6354 40.0287 96.7003 39.9637Z" fill="#F6D4BD"/>
<path d="M27.3473 37.2878C27.7971 37.9628 28.0472 38.6238 28.3026 39.3903C28.1134 39.3903 27.9243 39.3903 27.7294 39.3903C27.4576 38.6596 27.3014 38.069 27.3473 37.2878Z" fill="#DD493C"/>
<path d="M8.43281 29.0691C8.67077 29.5452 8.58122 29.721 8.43281 30.2159C8.30672 30.2159 8.18062 30.2159 8.0507 30.2159C7.98766 30.4682 7.92461 30.7205 7.85965 30.9804C7.73355 30.9804 7.60746 30.9804 7.47754 30.9804C7.69837 30.2327 7.92754 29.6665 8.43281 29.0691Z" fill="#F5B792"/>
<path d="M72.8184 1.35474C74.2527 1.28417 74.2527 1.28417 74.7289 1.64144C74.8235 1.78336 74.8235 1.78336 74.92 1.92814C74.6796 1.90449 74.4392 1.88084 74.1916 1.85647C73.9888 1.83651 73.9888 1.83651 73.7818 1.81615C73.3915 1.73701 73.3915 1.73701 72.8184 1.35474Z" fill="#FEEDDA"/>
<path d="M41.6765 102.464C42.4065 102.566 42.8346 102.751 43.396 103.229C42.8286 103.166 42.2611 103.103 41.6765 103.038C41.6765 102.849 41.6765 102.659 41.6765 102.464Z" fill="#E6AA7F"/>
<path d="M109.119 91.761C109.371 91.8241 109.623 91.8871 109.883 91.9521C109.549 92.8839 109.549 92.8839 109.119 93.0989C109.119 92.6574 109.119 92.2159 109.119 91.761Z" fill="#F2AE7E"/>
<path d="M111.22 88.8939C111.41 88.957 111.599 89.0201 111.794 89.0851C111.541 89.5266 111.289 89.9681 111.029 90.423C110.799 89.7305 110.926 89.5359 111.22 88.8939Z" fill="#F1AE84"/>
<path d="M113.704 85.0713C113.767 85.0713 113.83 85.0713 113.895 85.0713C113.895 85.5128 113.895 85.9543 113.895 86.4092C113.643 86.4723 113.391 86.5354 113.131 86.6004C113.489 85.5013 113.489 85.5013 113.704 85.0713Z" fill="#FEEEDE"/>
<path d="M17.7945 60.0328C17.9206 60.0328 18.0467 60.0328 18.1766 60.0328C18.1136 60.5374 18.0505 61.042 17.9856 61.5619C17.8595 61.5619 17.7334 61.5619 17.6035 61.5619C17.5796 60.4629 17.5796 60.4629 17.7945 60.0328Z" fill="#DCA17A"/>
<path d="M68.9974 55.8279C68.9343 56.0171 68.8713 56.2063 68.8063 56.4013C68.1758 56.4644 67.5453 56.5274 66.8958 56.5924C67.5432 56.1606 68.2041 55.8279 68.9974 55.8279Z" fill="#351C11"/>
<path d="M70.7169 54.2988C70.7799 54.4881 70.843 54.6773 70.9079 54.8722C70.7188 54.9353 70.5297 54.9984 70.3348 55.0634C70.1947 55.4485 70.1947 55.4485 70.1437 55.8279C70.0807 55.7017 70.0176 55.5756 69.9527 55.4456C69.8266 55.3826 69.7005 55.3195 69.5706 55.2545C69.9488 54.9391 70.3271 54.6238 70.7169 54.2988Z" fill="#281108"/>
<path d="M25.0546 48.7559C25.2438 48.7559 25.4329 48.7559 25.6278 48.7559C25.2934 49.8549 25.2934 49.8549 24.8636 50.2849C24.8636 50.1588 24.8636 50.0326 24.8636 49.9027C24.7375 49.8396 24.6114 49.7765 24.4814 49.7115C24.6706 49.6485 24.8597 49.5854 25.0546 49.5204C25.0546 49.2681 25.0546 49.0158 25.0546 48.7559Z" fill="#291C18"/>
<path d="M103.196 42.6396C103.679 43.0913 103.939 43.3401 104.152 43.9776C103.962 44.0722 103.962 44.0722 103.769 44.1687C103.643 44.0426 103.517 43.9164 103.387 43.7865C103.324 43.7865 103.261 43.7865 103.196 43.7865C103.196 43.408 103.196 43.0296 103.196 42.6396Z" fill="#2B130B"/>
<path d="M30.7864 41.8751C31.1016 41.8751 31.4169 41.8751 31.7417 41.8751C31.7417 42.0013 31.7417 42.1274 31.7417 42.2574C31.9308 42.3205 32.1199 42.3835 32.3148 42.4485C31.6226 42.6794 31.428 42.5523 30.7864 42.2574C30.7864 42.1312 30.7864 42.0051 30.7864 41.8751Z" fill="#DC595F"/>
<path d="M12.8272 21.9972C13.0163 22.0603 13.2054 22.1233 13.4003 22.1883C12.9275 22.8506 12.9275 22.8506 12.445 23.5263C12.254 22.7617 12.254 22.7617 12.445 22.3795C12.5711 22.3795 12.6972 22.3795 12.8272 22.3795C12.8272 22.2533 12.8272 22.1272 12.8272 21.9972Z" fill="#FEF0E2"/>
<path d="M101.286 17.0277C102.408 17.7206 102.408 17.7206 102.623 18.3656C102.497 18.3656 102.371 18.3656 102.241 18.3656C102.178 18.2395 102.115 18.1133 102.05 17.9834C101.798 17.9834 101.545 17.9834 101.286 17.9834C101.286 17.668 101.286 17.3526 101.286 17.0277Z" fill="#F2B285"/>
<path d="M32.1238 6.89758C32.1238 7.02373 32.1238 7.14988 32.1238 7.27985C31.3304 7.87514 31.3304 7.87514 30.7267 7.79352C30.6203 7.75016 30.5139 7.7068 30.4043 7.66212C31.6939 6.89758 31.6939 6.89758 32.1238 6.89758Z" fill="#F1B28B"/>
<path d="M72.6273 118.329C72.2452 118.711 72.2452 118.711 71.6482 118.735C71.3763 118.723 71.3763 118.723 71.0989 118.711C71.0989 118.585 71.0989 118.458 71.0989 118.329C71.6821 118.141 72.0441 118.141 72.6273 118.329Z" fill="#FEF3E4"/>
<path d="M104.152 98.0684C104.341 98.1314 104.53 98.1945 104.725 98.2595C104.788 98.4487 104.851 98.6379 104.916 98.8329C104.664 99.0852 104.411 99.3375 104.152 99.5974C104.152 99.0928 104.152 98.5882 104.152 98.0684Z" fill="#F4AF81"/>
<path d="M108.355 72.8387C108.481 72.8387 108.607 72.8387 108.737 72.8387C108.856 73.1852 108.856 73.1852 108.928 73.6033C108.739 73.8871 108.739 73.8871 108.546 74.1767C108.42 74.1767 108.293 74.1767 108.164 74.1767C108.227 73.7352 108.29 73.2936 108.355 72.8387Z" fill="#D59B71"/>
<path d="M27.1564 49.1382C27.5347 49.4536 27.913 49.7689 28.3027 50.0939C28.1136 50.1569 27.9244 50.22 27.7296 50.285C27.6035 50.2219 27.4774 50.1588 27.3474 50.0939C27.3474 49.9677 27.3474 49.8416 27.3474 49.7116C27.2213 49.6485 27.0952 49.5854 26.9653 49.5205C27.0284 49.3943 27.0914 49.2682 27.1564 49.1382Z" fill="#FBDDDA"/>
<path d="M69.3794 47.6091C69.7577 47.6091 70.136 47.6091 70.5257 47.6091C70.5888 47.8614 70.6518 48.1137 70.7168 48.3737C70.2754 48.1844 69.8341 47.9952 69.3794 47.8003C69.3794 47.7372 69.3794 47.6741 69.3794 47.6091Z" fill="#260F07"/>
<path d="M36.709 41.684C37.0873 41.684 37.4656 41.684 37.8553 41.684C37.5409 42.0065 37.2224 42.325 36.9 42.6396C36.837 42.6396 36.7739 42.6396 36.709 42.6396C36.709 42.3243 36.709 42.0089 36.709 41.684Z" fill="#DC4F5A"/>
<path d="M23.9084 38.8169C23.9714 38.8169 24.0345 38.8169 24.0994 38.8169C24.1472 39.892 24.1472 39.892 23.7173 40.5371C23.5912 40.5371 23.4651 40.5371 23.3352 40.5371C23.5243 39.9694 23.7135 39.4018 23.9084 38.8169Z" fill="#FB8F6E"/>
<path d="M19.1319 15.3075C19.321 15.3706 19.5102 15.4336 19.7051 15.4986C19.0431 16.0663 19.0431 16.0663 18.3677 16.6454C18.4307 16.3931 18.4938 16.1408 18.5587 15.8809C18.6848 15.8809 18.8109 15.8809 18.9408 15.8809C19.0039 15.6917 19.0669 15.5025 19.1319 15.3075Z" fill="#FFF1DD"/>
</svg>
