<svg width="120" height="120" viewBox="0 0 120 120" fill="none" xmlns="http://www.w3.org/2000/svg">
<path d="M57.431 0.009385C57.6192 0.00803934 57.8075 0.00669368 58.0015 0.00530724C58.6057 0.00196881 59.2099 0.000731285 59.8141 0.000392262C60.0207 0.000262816 60.2274 0.000133369 60.4403 0C63.5327 0.00307881 66.5488 0.0877063 69.6017 0.623889C69.8006 0.657831 69.9994 0.691773 70.2043 0.726743C74.8165 1.5325 79.1008 2.90208 83.4365 4.65264C83.6304 4.73038 83.8244 4.80813 84.0241 4.88823C89.5518 7.1397 94.3932 10.5035 99.0007 14.2449C99.1565 14.3656 99.3123 14.4863 99.4728 14.6106C99.9924 15.0377 100.451 15.4911 100.922 15.9715C101.204 16.2508 101.485 16.5298 101.767 16.8086C102.086 17.125 102.405 17.4415 102.724 17.7581C102.882 17.9147 103.041 18.0714 103.204 18.2328C104.15 19.1737 105.056 20.1328 105.918 21.1513C106.019 21.2704 106.121 21.3894 106.225 21.5121C107.729 23.2948 109.088 25.1301 110.338 27.0985C110.525 27.3886 110.525 27.3886 110.717 27.6845C114.063 32.9665 116.509 38.5046 118.107 44.535C118.207 44.908 118.313 45.2793 118.419 45.6505C119.441 49.384 119.958 53.4144 119.991 57.2856C119.993 57.4707 119.995 57.6558 119.997 57.8465C120.046 63.9761 119.58 69.678 118.024 75.6353C117.99 75.7689 117.956 75.9025 117.922 76.0402C116.143 83.094 112.611 90.31 108.032 95.9709C107.909 96.1277 107.786 96.2845 107.659 96.446C107.276 96.9317 106.887 97.4114 106.495 97.8893C106.415 97.9866 106.335 98.0838 106.253 98.1839C105.058 99.6345 103.811 100.993 102.459 102.302C102.017 102.741 101.576 103.181 101.143 103.63C97.2249 107.662 92.217 110.799 87.2795 113.429C87.1461 113.5 87.0128 113.571 86.8753 113.644C85.145 114.557 83.3948 115.319 81.5489 115.967C81.1018 116.125 80.6565 116.287 80.2113 116.45C76.7457 117.706 73.2395 118.59 69.6017 119.184C69.4312 119.213 69.2607 119.243 69.0849 119.273C61.9238 120.456 54.0087 120.19 46.9554 118.513C46.55 118.418 46.1435 118.33 45.7361 118.244C39.3651 116.872 33.1524 114.105 27.713 110.551C27.5141 110.424 27.3152 110.296 27.1103 110.165C21.7988 106.681 17.0758 102.396 13.1096 97.4337C13.0099 97.309 12.9101 97.1843 12.8074 97.0559C12.1444 96.2212 11.5108 95.3731 10.9112 94.4916C10.7146 94.2033 10.513 93.9183 10.3062 93.6373C7.78512 90.1904 5.92868 86.2675 4.27072 82.3499C4.19789 82.179 4.12507 82.0081 4.05004 81.8321C3.52086 80.5535 3.09157 79.2412 2.66437 77.9259C2.58003 77.6708 2.49314 77.4164 2.4041 77.1629C1.98317 75.9524 1.67611 74.7252 1.38847 73.4771C1.31316 73.1504 1.31316 73.1504 1.23633 72.8171C0.789896 70.8292 0.456325 68.8355 0.235565 66.8104C0.208187 66.5795 0.208187 66.5795 0.180256 66.3439C-0.0163245 64.4249 0.00766178 62.4958 0.00780911 60.5689C0.00738971 59.9561 0.00389308 59.3433 0.000256338 58.7305C-0.00580578 56.5256 0.0944672 54.4101 0.427715 52.2302C0.468192 51.8857 0.507163 51.541 0.544056 51.196C1.20327 45.5195 2.87823 39.8895 5.42362 34.7723C5.53928 34.5185 5.65383 34.2642 5.76738 34.0094C7.0782 31.0894 8.71924 28.3378 10.6117 25.7556C10.7548 25.5501 10.898 25.3446 11.0455 25.1328C13.8691 21.0836 17.3393 17.1417 21.2295 14.0875C21.6175 13.7795 21.9938 13.4679 22.3673 13.1433C23.4691 12.1862 24.5584 11.3159 25.8118 10.5586C26.3229 10.2439 26.8149 9.9092 27.3077 9.56674C31.6583 6.5696 36.6964 4.13276 41.794 2.69072C42.2079 2.57316 42.6198 2.44879 43.031 2.32202C47.6737 0.895709 52.5667 0.0328282 57.431 0.009385Z" fill="#CC9882"/>
<path d="M57.431 0.009385C57.6192 0.00803934 57.8075 0.00669368 58.0015 0.00530724C58.6057 0.00196881 59.2099 0.000731285 59.8141 0.000392262C60.0207 0.000262816 60.2274 0.000133369 60.4403 0C63.5327 0.00307881 66.5488 0.0877063 69.6017 0.623889C69.8006 0.657831 69.9994 0.691773 70.2043 0.726743C74.8165 1.5325 79.1008 2.90208 83.4365 4.65264C83.6304 4.73038 83.8244 4.80813 84.0241 4.88823C89.5518 7.1397 94.3932 10.5035 99.0007 14.2449C99.1565 14.3656 99.3123 14.4863 99.4728 14.6106C99.9924 15.0377 100.451 15.4911 100.922 15.9715C101.204 16.2508 101.485 16.5298 101.767 16.8086C102.086 17.125 102.405 17.4415 102.724 17.7581C102.882 17.9147 103.041 18.0714 103.204 18.2328C104.15 19.1737 105.056 20.1328 105.918 21.1513C106.019 21.2704 106.121 21.3894 106.225 21.5121C107.729 23.2948 109.088 25.1301 110.338 27.0985C110.525 27.3886 110.525 27.3886 110.717 27.6845C114.063 32.9665 116.509 38.5046 118.107 44.535C118.207 44.908 118.313 45.2793 118.419 45.6505C119.441 49.384 119.958 53.4144 119.991 57.2856C119.993 57.4707 119.995 57.6558 119.997 57.8465C120.046 63.9761 119.58 69.678 118.024 75.6353C117.99 75.7689 117.956 75.9025 117.922 76.0402C116.143 83.094 112.611 90.31 108.032 95.9709C107.909 96.1277 107.786 96.2845 107.659 96.446C107.276 96.9317 106.887 97.4114 106.495 97.8893C106.415 97.9866 106.335 98.0838 106.253 98.1839C105.058 99.6345 103.811 100.993 102.459 102.302C102.017 102.741 101.576 103.181 101.143 103.63C97.2249 107.662 92.217 110.799 87.2795 113.429C87.1461 113.5 87.0128 113.571 86.8753 113.644C85.145 114.557 83.3948 115.319 81.5489 115.967C81.1018 116.125 80.6565 116.287 80.2113 116.45C76.7457 117.706 73.2395 118.59 69.6017 119.184C69.4312 119.213 69.2607 119.243 69.0849 119.273C61.9238 120.456 54.0087 120.19 46.9554 118.513C46.55 118.418 46.1435 118.33 45.7361 118.244C39.3651 116.872 33.1524 114.105 27.713 110.551C27.5141 110.424 27.3152 110.296 27.1103 110.165C21.7988 106.681 17.0758 102.396 13.1096 97.4337C13.0099 97.309 12.9101 97.1843 12.8074 97.0559C12.1444 96.2212 11.5108 95.3731 10.9112 94.4916C10.7146 94.2033 10.513 93.9183 10.3062 93.6373C7.78512 90.1904 5.92868 86.2675 4.27072 82.3499C4.19789 82.179 4.12507 82.0081 4.05004 81.8321C3.52086 80.5535 3.09157 79.2412 2.66437 77.9259C2.58003 77.6708 2.49314 77.4164 2.4041 77.1629C1.98317 75.9524 1.67611 74.7252 1.38847 73.4771C1.31316 73.1504 1.31316 73.1504 1.23633 72.8171C0.789896 70.8292 0.456325 68.8355 0.235565 66.8104C0.208187 66.5795 0.208187 66.5795 0.180256 66.3439C-0.0163245 64.4249 0.00766178 62.4958 0.00780911 60.5689C0.00738971 59.9561 0.00389308 59.3433 0.000256338 58.7305C-0.00580578 56.5256 0.0944672 54.4101 0.427715 52.2302C0.468192 51.8857 0.507163 51.541 0.544056 51.196C1.20327 45.5195 2.87823 39.8895 5.42362 34.7723C5.53928 34.5185 5.65383 34.2642 5.76738 34.0094C7.0782 31.0894 8.71924 28.3378 10.6117 25.7556C10.7548 25.5501 10.898 25.3446 11.0455 25.1328C13.8691 21.0836 17.3393 17.1417 21.2295 14.0875C21.6175 13.7795 21.9938 13.4679 22.3673 13.1433C23.4691 12.1862 24.5584 11.3159 25.8118 10.5586C26.3229 10.2439 26.8149 9.9092 27.3077 9.56674C31.6583 6.5696 36.6964 4.13276 41.794 2.69072C42.2079 2.57316 42.6198 2.44879 43.031 2.32202C47.6737 0.895709 52.5667 0.0328282 57.431 0.009385ZM54.6253 9.37157C51.893 12.5551 50.8122 16.473 51.0899 20.5983C51.3934 23.165 52.5553 26.1942 54.4219 28.0577C52.8561 27.7343 51.3188 27.3115 49.7772 26.8911C49.2967 26.7603 48.816 26.6303 48.3352 26.5006C47.0237 26.1466 45.7122 25.7927 44.4038 25.4274C36.112 22.7595 36.112 22.7595 27.9052 23.6453C23.8345 26.8936 21.7889 33.9781 19.9795 38.6223C19.8277 39.0113 19.6749 39.3999 19.522 39.7885C17.8755 43.9812 16.4133 48.2168 15.0485 52.5087C14.6709 53.6951 14.2782 54.876 13.8782 56.0551C12.7725 59.3434 11.8832 62.6904 10.996 66.0431C10.9576 66.1871 10.9192 66.3312 10.8796 66.4797C10.6878 67.203 10.5069 67.9282 10.3357 68.6567C10.2536 69.0023 10.1692 69.3473 10.0837 69.6921C9.49041 72.1039 8.96815 74.4611 8.95437 76.9542C8.95233 77.1342 8.95029 77.3141 8.94818 77.4995C8.97066 78.5679 9.11633 79.2154 9.84307 80.0477C16.9861 86.6361 31.3528 89.3357 40.4051 92.1496C41.0395 92.347 41.673 92.5467 42.3067 92.7462C44.8874 93.5558 47.4761 94.3278 50.0794 95.0623C51.1998 95.3788 52.3156 95.702 53.4251 96.0548C56.8297 97.1354 60.274 98.1172 63.7336 99.0059C64.9083 99.3081 66.0771 99.632 67.2461 99.9556C79.3371 103.348 79.3371 103.348 91.735 104.712C91.9221 104.717 92.1092 104.722 92.3019 104.727C93.5576 104.721 94.3826 104.454 95.3498 103.645C96.6237 102.322 97.3273 100.515 98.0399 98.8486C98.1172 98.6682 98.1945 98.4878 98.2742 98.302C100.467 93.145 102.184 87.8425 103.843 82.4971C104.063 81.791 104.286 81.0865 104.517 80.3842C105.898 76.1904 106.946 71.8721 107.942 67.5732C108.06 67.0731 108.19 66.5762 108.32 66.079C108.762 64.3403 109.097 62.5752 109.457 60.8183C109.558 60.3392 109.666 59.8624 109.777 59.3854C110.284 57.1166 110.376 54.7752 110.398 52.458C110.401 52.2624 110.404 52.0668 110.408 51.8652C110.407 50.5924 110.321 49.7484 109.408 48.7897C108.387 47.8268 107.3 47.1494 106.05 46.5228C105.86 46.426 105.671 46.3292 105.475 46.2295C101.392 44.1826 97.1109 42.5498 92.8519 40.9114C92.5721 40.803 92.5721 40.803 92.2866 40.6925C90.0126 39.8123 87.7247 38.9825 85.4195 38.1877C84.7456 37.9549 84.0729 37.7189 83.4005 37.4821C83.2736 37.4375 83.1466 37.3929 83.0158 37.347C82.1653 37.0472 81.3171 36.7416 80.4695 36.4337C80.1454 36.3163 80.1454 36.3163 79.8147 36.1964C79.3862 36.041 78.9579 35.8849 78.5298 35.7283C78.3329 35.6569 78.1361 35.5855 77.9332 35.512C77.6701 35.416 77.6701 35.416 77.4016 35.318C76.9175 35.1606 76.4436 35.0529 75.9427 34.9642C76.008 34.773 76.008 34.773 76.0746 34.578C76.2758 33.9876 76.4755 33.3968 76.6752 32.8059C76.7437 32.6056 76.8122 32.4053 76.8828 32.1989C79.1185 25.5638 79.8733 18.5797 76.8119 12.1106C75.2287 9.0676 72.876 6.96951 69.682 5.72802C64.2749 4.12823 58.5456 5.29006 54.6253 9.37157Z" fill="#48D3AE"/>
<path d="M72.9995 7.51463C76.4508 10.1617 78.1068 14.235 78.746 18.4446C79.3136 23.5206 78.273 28.6079 76.4964 33.3511C76.3004 33.8853 76.1208 34.424 75.9426 34.9642C76.0955 35.0103 76.2483 35.0564 76.4058 35.1038C77.8831 35.5528 79.3478 36.0287 80.8064 36.5349C81.0207 36.6091 81.2349 36.6833 81.4557 36.7597C83.1113 37.3365 84.7541 37.9438 86.3934 38.5649C87.5633 39.0072 88.738 39.4279 89.9215 39.8323C107.472 45.8761 107.472 45.8761 110.145 49.7363C111.479 53.7298 109.815 59.4121 108.931 63.3407C108.77 64.0676 108.627 64.7963 108.488 65.5275C108.316 66.4034 108.111 67.2616 107.876 68.1227C107.588 69.1828 107.311 70.2449 107.042 71.3099C105.669 76.7386 105.669 76.7386 104.981 78.8011C104.676 79.7188 104.396 80.6406 104.129 81.5698C103.63 83.2792 103.076 84.9674 102.507 86.6545C102.457 86.8036 102.407 86.9527 102.355 87.1064C102.1 87.8637 101.845 88.6208 101.589 89.3777C101.341 90.1119 101.097 90.8475 100.853 91.5832C100.119 93.7776 99.3057 95.9284 98.4001 98.0573C98.2621 98.3839 98.2621 98.3839 98.1213 98.7171C96.1516 103.254 96.1516 103.254 94.4881 104.34C93.5641 104.701 92.7431 104.698 91.7589 104.688C91.5583 104.687 91.3576 104.686 91.1508 104.684C87.7108 104.618 84.2973 103.958 80.9492 103.201C80.3544 103.067 79.7589 102.938 79.1632 102.809C73.2812 101.535 73.2812 101.535 70.702 100.782C69.9623 100.568 69.2201 100.376 68.4727 100.192C68.348 100.161 68.2232 100.13 68.0946 100.098C67.5561 99.9651 67.0174 99.8334 66.4783 99.7032C64.4142 99.2045 62.3709 98.6581 60.3346 98.0559C59.2072 97.7229 58.078 97.3976 56.9452 97.083C56.8155 97.047 56.6858 97.011 56.5521 96.9738C56.2873 96.9003 56.0225 96.8268 55.7577 96.7533C53.6769 96.1752 51.6079 95.5738 49.5536 94.9064C48.4088 94.5356 47.2583 94.1963 46.0993 93.8726C44.0432 93.2952 42.0122 92.649 39.9812 91.9896C39.3017 91.7693 38.6215 91.5515 37.9413 91.3338C11.989 83.0271 11.989 83.0271 9.26652 79.2804C7.97976 76.711 9.44133 72.3252 10.0737 69.7419C10.2137 69.1682 10.3471 68.5937 10.4772 68.0178C11.0119 65.6716 11.6515 63.3603 12.3409 61.0551C12.393 60.8803 12.4451 60.7055 12.4988 60.5254C12.9453 59.0352 13.4086 57.5503 13.8781 56.0672C13.9239 55.9224 13.9697 55.7777 14.0169 55.6286C23.1993 26.6373 23.1993 26.6373 28.4815 23.2617C34.9506 21.3222 44.4751 25.4226 50.7472 27.1766C50.9861 27.2432 50.9861 27.2432 51.2298 27.311C51.5278 27.394 51.8257 27.4776 52.1234 27.5617C52.8857 27.7738 53.6385 27.9442 54.4218 28.0578C54.3358 27.9416 54.2499 27.8253 54.1613 27.7056C51.5939 24.1529 50.5741 20.4359 51.2761 16.0802C51.7813 13.543 53.0919 11.1804 54.8061 9.25698C54.9101 9.13976 55.0141 9.02254 55.1213 8.90176C59.5737 4.18643 67.8135 3.81404 72.9995 7.51463ZM28.3266 27.8358C28.2509 27.9724 28.1752 28.1089 28.0972 28.2496C28.0104 28.403 27.9235 28.5564 27.8341 28.7145C24.2896 35.0453 21.8425 41.95 19.4505 48.7771C19.3771 48.9861 19.3037 49.1952 19.228 49.4106C17.2096 55.1633 15.341 60.9793 13.8999 66.9057C13.7172 67.6544 13.5118 68.3951 13.3017 69.1366C12.9433 70.4727 12.6601 71.8211 12.389 73.1774C12.3461 73.3848 12.3033 73.5921 12.2591 73.8058C12.141 74.4145 12.0421 75.0213 11.9566 75.6354C11.9278 75.8418 11.8989 76.0482 11.8692 76.2608C11.8217 76.8662 11.8116 77.3475 11.9566 77.9375C12.447 78.5006 13.014 78.7787 13.686 79.0886C13.8352 79.1651 13.9845 79.2416 14.1383 79.3204C14.6107 79.5566 15.0885 79.774 15.5714 79.9879C15.7518 80.0686 15.9322 80.1493 16.118 80.2325C21.1513 82.4549 26.3543 84.2808 31.5764 86.0038C32.9321 86.4511 34.2852 86.905 35.6354 87.3686C35.7849 87.42 35.9344 87.4713 36.0885 87.5242C36.8156 87.7742 37.5424 88.0248 38.2691 88.276C39.8655 88.8267 41.4681 89.3435 43.0849 89.8319C43.5344 89.9711 43.9838 90.1108 44.433 90.2508C44.6616 90.3219 44.8902 90.393 45.1258 90.4663C45.5877 90.61 46.0495 90.7539 46.5114 90.8979C47.8854 91.3249 49.2624 91.7385 50.6436 92.1415C51.6851 92.4461 52.7239 92.7587 53.762 93.0745C56.8973 94.0267 60.0244 94.9608 63.2126 95.7229C64.2428 95.9707 65.2583 96.2609 66.275 96.5585C68.1151 97.0953 69.9701 97.542 71.8371 97.9744C72.4831 98.1262 73.1257 98.2894 73.7689 98.4529C77.3676 99.3548 80.9863 100.164 84.6313 100.856C85.1129 100.949 85.593 101.047 86.0732 101.146C88.456 101.617 90.8143 101.594 93.2361 101.534C97.3763 94.7953 99.5022 86.6475 101.696 79.1186C102.063 77.8587 102.44 76.6028 102.831 75.35C103.454 73.3516 103.978 71.3466 104.441 69.3056C104.59 68.656 104.743 68.0075 104.897 67.3591C106.448 60.9966 106.448 60.9966 107.455 54.5324C107.472 54.3744 107.489 54.2164 107.506 54.0536C107.549 53.5856 107.577 53.1194 107.599 52.6499C107.618 52.4419 107.618 52.4419 107.637 52.2296C107.649 51.5853 107.579 51.2223 107.15 50.7279C105.96 49.7393 104.552 49.1112 103.156 48.4653C102.934 48.3605 102.712 48.2556 102.483 48.1476C101.836 47.8427 101.187 47.5418 100.538 47.2423C100.247 47.1078 100.247 47.1078 99.9511 46.9706C99.0004 46.534 98.051 46.125 97.0671 45.7675C96.8005 45.6696 96.5341 45.5714 96.2677 45.473C96.1223 45.4193 95.9768 45.3656 95.827 45.3103C95.104 45.0402 94.3843 44.762 93.6643 44.4841C92.5616 44.0586 91.4577 43.6361 90.3538 43.2136C90.123 43.125 89.8921 43.0364 89.6542 42.9451C86.4574 41.7215 83.2421 40.5642 80.0017 39.4606C79.832 39.4027 79.6622 39.3448 79.4873 39.2852C77.8014 38.7115 76.1171 38.1431 74.4054 37.65C74.2825 37.8123 74.1597 37.9745 74.0331 38.1416C73.4446 38.6093 73.4446 38.6093 72.7241 38.6452C70.4709 38.2509 68.22 37.2282 66.1429 36.3071C66.0201 36.2533 65.8973 36.1994 65.7708 36.1439C64.2751 35.4836 62.8594 34.7952 61.5073 33.8731C60.1838 32.9866 58.8339 32.5022 57.304 32.0865C57.1062 32.0326 56.9083 31.9787 56.7045 31.9231C55.8114 31.6808 54.918 31.4397 54.0227 31.2059C53.815 31.1515 53.6074 31.0972 53.3935 31.0411C53.2076 30.993 53.0216 30.9448 52.8301 30.8952C52.3193 30.7469 51.8407 30.5572 51.3474 30.3599C50.9522 30.2745 50.557 30.1893 50.1615 30.1059C49.5224 29.9534 48.901 29.7615 48.273 29.5686C44.2176 28.346 40.0372 27.4384 35.884 26.6197C35.4288 26.529 34.9747 26.4338 34.5207 26.3372C33.7917 26.1847 33.0611 26.0593 32.3245 25.9475C31.9872 25.8904 31.9872 25.8904 31.643 25.8321C29.8504 25.6548 29.191 26.3199 28.3266 27.8358Z" fill="#040504"/>
<path d="M72.0815 10.6006C74.718 13.11 75.6776 16.8783 75.7744 20.3959C75.8706 25.5768 74.6753 30.7391 72.2917 35.3478C71.3147 35.2387 70.4482 35.0194 69.5295 34.6644C69.397 34.6135 69.2644 34.5625 69.1278 34.5101C63.0948 32.1486 57.4415 28.6406 54.6875 22.5744C53.8048 20.3961 53.8723 17.2996 54.6019 15.0842C55.808 12.2799 57.7731 9.9915 60.5735 8.71059C64.3952 7.23731 68.9407 8.0334 72.0815 10.6006Z" fill="#57AE46"/>
<path d="M55.98 57.1807C56.7673 57.2201 57.3739 57.3778 58.1207 57.6258C58.3936 57.7148 58.6666 57.8037 58.9395 57.8926C59.0811 57.9395 59.2226 57.9863 59.3684 58.0346C60.0913 58.2726 60.8174 58.5003 61.5433 58.7289C61.6923 58.7763 61.8413 58.8236 61.9948 58.8724C62.8672 59.1487 63.7419 59.4152 64.62 59.6732C64.8173 59.7315 65.0145 59.7899 65.2178 59.8501C65.6008 59.9631 65.9843 60.0748 66.3681 60.1849C67.4121 60.494 68.3068 60.8368 69.2173 61.4387C70.0085 63.0186 68.8185 66.4231 68.2997 68.043C67.9437 69.0573 67.5343 70.0462 67.1037 71.031C66.9673 71.3511 66.9673 71.3511 66.8282 71.6777C65.6791 74.177 64.0274 75.9908 61.4713 77.0501C59.059 77.4583 57.1567 77.0507 55.1183 75.6952C53.6193 74.478 52.6804 72.3522 52.4234 70.4674C52.3902 69.8737 52.3839 69.2874 52.3922 68.6929C52.3939 68.4779 52.3956 68.2629 52.3973 68.0414C52.4464 65.9797 53.1349 57.3591 55.98 57.1807Z" fill="#060202"/>
<path d="M63.2607 8.1059C66.5977 7.99932 69.4131 8.41952 72.0816 10.6006C74.7181 13.1101 75.6777 16.8784 75.7745 20.396C75.8489 24.402 75.1092 28.2602 73.793 32.0386C73.745 32.1769 73.697 32.3153 73.6475 32.4578C73.3021 33.4047 73.3021 33.4047 72.8682 33.6213C72.2248 32.3052 71.7021 30.9695 71.2244 29.5875C70.6506 27.9339 70.0198 26.3024 69.3901 24.6692C69.2416 24.2837 69.0939 23.8979 68.9464 23.512C68.526 22.4133 68.095 21.3195 67.6562 20.2281C67.1221 18.8984 66.6108 17.5739 66.167 16.2114C65.8503 15.2545 65.4817 14.3339 65.0869 13.4071C64.6996 12.4729 64.3329 11.5315 63.9693 10.5879C63.8998 10.4096 63.8302 10.2313 63.7586 10.0476C63.6941 9.87945 63.6296 9.71127 63.5632 9.53799C63.5049 9.38688 63.4467 9.23576 63.3866 9.08007C63.2607 8.68144 63.2607 8.68144 63.2607 8.1059Z" fill="#95D770"/>
<path d="M56.9198 60.6714C58.387 60.7789 59.7084 61.2299 61.0991 61.6906C61.3295 61.7656 61.5598 61.8407 61.7971 61.918C63.2478 62.3916 64.6956 62.874 66.143 63.3572C65.7151 67.1393 64.497 71.1353 61.4804 73.6569C60.5897 74.3299 59.5277 74.2211 58.457 74.1005C57.865 73.863 57.4081 73.5474 56.9198 73.1413C56.7732 73.0305 56.6266 72.9197 56.4755 72.8056C55.1734 71.0722 55.1621 68.4038 55.4465 66.3488C55.7705 64.4056 56.2147 62.5138 56.9198 60.6714Z" fill="#BD554B"/>
<path d="M54.6139 21.3431C55.3985 21.5367 56.177 21.7511 56.9557 21.9666C57.1091 22.0086 57.2624 22.0506 57.4204 22.0939C58.172 22.3013 58.9189 22.5153 59.6601 22.7572C61.7436 23.4287 63.7693 23.6862 65.9508 23.8371C66.073 24.1925 66.073 24.1925 66.1977 24.555C66.7688 26.2053 67.3515 27.8479 67.9923 29.4726C68.4081 30.5277 68.8183 31.584 69.2053 32.65C69.2823 32.8615 69.3594 33.0729 69.4387 33.2907C69.6016 33.8131 69.6016 33.8131 69.6016 34.3886C68.6645 34.2795 67.8953 33.9832 67.0556 33.5733C66.9284 33.5123 66.8013 33.4513 66.6702 33.3884C66.4165 33.2664 66.163 33.1437 65.9099 33.0204C65.6235 32.8815 65.3351 32.7465 65.0463 32.6125C60.578 30.4966 56.3192 27.061 54.6139 22.3024C54.5831 21.7486 54.5831 21.7486 54.6139 21.3431Z" fill="#95D870"/>
<path d="M48.5851 46.0313C48.9251 46.2448 48.9251 46.2448 49.2336 46.4749C49.3414 46.5488 49.4491 46.6228 49.5601 46.699C50.2787 47.2358 50.628 47.7649 50.963 48.5852C51.018 49.1046 51.0457 49.5672 51.035 50.084C51.0332 50.2192 51.0314 50.3544 51.0295 50.4938C50.9904 51.8468 50.8084 52.869 49.9422 53.9209C48.3147 55.2435 47.085 55.4889 45.0063 55.2998C43.356 54.839 42.2279 53.6683 41.3179 52.258C40.884 51.1033 40.9454 49.4522 41.4395 48.3214C42.8825 45.934 45.9829 44.7852 48.5851 46.0313Z" fill="#040202"/>
<path d="M83.1601 58.5731C84.3313 59.2599 85.1241 60.1461 85.55 61.4388C85.8075 63.2807 85.4328 64.6991 84.3971 66.2349C83.5883 67.1865 82.5391 67.7027 81.3122 67.8311C79.9707 67.8775 78.9694 67.782 77.864 67.0023C77.7458 66.9232 77.6277 66.844 77.5059 66.7625C76.3833 65.9177 75.6934 64.7843 75.4726 63.394C75.4034 61.7344 75.9817 60.5414 77.0954 59.3285C78.6861 57.8657 81.2158 57.6776 83.1601 58.5731Z" fill="#030101"/>
<path d="M60.3785 9.06506C60.5068 9.44943 60.635 9.83383 60.7628 10.2184C60.9092 10.6552 61.0575 11.0911 61.2071 11.5268C61.2952 11.7854 61.3833 12.0439 61.4713 12.3024C61.5149 12.428 61.5584 12.5535 61.6032 12.6828C61.7886 13.2297 61.9157 13.663 61.9157 14.2449C62.0425 14.2449 62.1693 14.2449 62.3 14.2449C62.6022 15.0536 62.9032 15.8627 63.203 16.6722C63.3052 16.9476 63.4077 17.2228 63.5106 17.4979C63.6584 17.8933 63.8049 18.2891 63.9513 18.685C63.9975 18.808 64.0438 18.9309 64.0914 19.0575C64.2886 19.5942 64.4136 19.9986 64.4136 20.5758C62.847 20.4841 61.3868 20.1399 59.8741 19.7364C59.6482 19.6781 59.4223 19.6197 59.1896 19.5596C58.0191 19.2523 56.8904 18.9144 55.7669 18.4655C55.6064 18.4054 55.4459 18.3453 55.2805 18.2834C54.9302 18.1522 54.58 18.0211 54.2297 17.8899C54.1309 15.3764 55.358 13.2517 56.9198 11.3672C59.159 9.06506 59.159 9.06506 60.3785 9.06506Z" fill="#94D86F"/>
<path d="M85.358 48.9688C86.0723 49.4178 86.4513 49.6684 86.643 50.5036C86.4645 51.2812 86.1605 51.5265 85.5501 52.0383C85.034 52.2904 84.5036 52.4535 83.9529 52.6139C83.7969 52.6614 83.641 52.709 83.4803 52.7579C81.9496 53.2075 80.3926 53.5304 78.8269 53.8324C78.6404 53.8685 78.454 53.9046 78.2619 53.9418C78.097 53.9726 77.9321 54.0035 77.7621 54.0353C77.2759 54.1392 77.2759 54.1392 76.7884 54.3489C76.1479 54.6034 75.6652 54.6054 74.9819 54.5323C74.4174 54.2445 74.4174 54.2445 74.0211 53.7649C73.8958 53.2294 73.8706 52.7607 74.0211 52.2302C74.5794 51.5107 75.0945 51.3152 75.9666 51.1031C76.0868 51.0731 76.2069 51.043 76.3307 51.0121C77.1907 50.8005 78.0551 50.6077 78.9187 50.4114C79.1385 50.3613 79.3583 50.3112 79.5847 50.2595C80.0236 50.1601 80.4627 50.0619 80.9022 49.9652C85.3524 48.9678 85.3524 48.9678 85.358 48.9688Z" fill="#070303"/>
<path d="M48.3983 37.5189C49.4352 37.8203 50.1895 38.6572 50.9631 39.3766C51.076 39.4804 51.1889 39.5842 51.3053 39.6911C51.9206 40.257 52.5311 40.8275 53.1375 41.403C53.5807 41.8213 54.0305 42.2244 54.4991 42.614C54.6916 42.7762 54.884 42.9385 55.0823 43.1056C55.2525 43.2439 55.4226 43.3821 55.5979 43.5245C55.959 43.9809 55.959 43.9809 56.0385 44.6778C55.959 45.3238 55.959 45.3238 55.5627 45.7914C54.8506 46.1696 54.4508 46.203 53.6532 46.0912C52.7775 45.6358 52.1384 44.9928 51.4652 44.2852C51.1332 43.9402 51.1332 43.9402 50.5788 43.5972C50.5788 43.4706 50.5788 43.344 50.5788 43.2135C50.4664 43.1628 50.354 43.1121 50.2382 43.0599C49.7939 42.8211 49.4788 42.5621 49.1114 42.2183C48.9847 42.1001 48.858 41.9819 48.7275 41.8601C48.5322 41.6754 48.5322 41.6754 48.333 41.4869C48.2006 41.3638 48.0682 41.2406 47.9318 41.1137C46.7542 40.0085 46.7542 40.0085 46.6877 39.1128C46.7358 38.4174 46.7358 38.4174 46.9279 37.9498C47.4057 37.5771 47.7936 37.4827 48.3983 37.5189Z" fill="#080404"/>
<path d="M92.0832 19.2329C92.5636 19.5446 92.5636 19.5446 92.8518 20.0002C92.9797 20.9083 92.7702 21.3896 92.2273 22.1195C92.1401 22.2313 92.0529 22.3431 91.9631 22.4583C91.7843 22.6972 91.6056 22.9362 91.4272 23.1754C91.3407 23.2898 91.2542 23.4042 91.165 23.5221C90.8794 23.9055 90.6144 24.2997 90.3538 24.7005C89.8454 25.4713 89.3157 26.226 88.7806 26.9786C88.6983 27.0952 88.6159 27.2118 88.531 27.332C87.4993 28.776 87.4993 28.776 86.9071 28.9083C85.856 28.9103 85.856 28.9103 85.3579 28.5374C85.0885 27.8649 85.0738 27.2326 85.1658 26.523C85.4765 25.88 85.4765 25.88 85.9104 25.252C85.9876 25.1384 86.0649 25.0249 86.1445 24.9079C86.3909 24.5482 86.6425 24.1925 86.8951 23.8371C87.0603 23.6006 87.2255 23.3641 87.3905 23.1275C90.303 18.9835 90.303 18.9835 92.0832 19.2329Z" fill="#F5FDFC"/>
<path d="M47.6967 80.4315C48.503 80.5616 49.2851 80.7512 50.0745 80.959C50.2744 81.0075 50.4743 81.056 50.6802 81.1059C51.9678 81.4343 52.8943 81.7839 53.8455 82.7336C53.883 83.1488 53.883 83.1488 53.8695 83.6209C53.866 83.7777 53.8626 83.9345 53.859 84.096C53.8545 84.2162 53.8501 84.3364 53.8455 84.4602C52.9311 85.0445 51.9661 84.9063 50.9452 84.703C50.6626 84.6398 50.3804 84.5748 50.0985 84.5082C49.949 84.4735 49.7995 84.4389 49.6455 84.4033C49.1876 84.2961 48.7304 84.1863 48.2731 84.0765C48.1317 84.0438 47.9904 84.011 47.8447 83.9772C47.4503 83.8855 47.057 83.7899 46.6639 83.6928C46.3228 83.6097 46.3228 83.6097 45.9748 83.525C45.3414 83.2909 45.0371 83.069 44.6223 82.5418C44.5044 81.8503 44.583 81.481 44.8625 80.8391C45.7171 80.1798 46.651 80.3553 47.6967 80.4315Z" fill="#B57662"/>
<path d="M20.7955 70.0718C21.4545 70.3318 21.4545 70.3318 22.1165 70.6833C22.233 70.7443 22.3496 70.8053 22.4696 70.8682C22.8098 71.0474 23.1478 71.231 23.4856 71.4147C23.7453 71.5545 23.7453 71.5545 24.0102 71.6972C24.2953 71.8531 24.5792 72.0113 24.8614 72.1723C25.1673 72.3468 25.4789 72.5112 25.7914 72.6737C26.1757 72.9495 26.1757 72.9495 26.3318 73.3691C26.3437 73.4839 26.3556 73.5986 26.3678 73.7168C26.4946 73.7168 26.6215 73.7168 26.7521 73.7168C26.7521 74.0967 26.7521 74.4765 26.7521 74.8679C26.6253 74.8679 26.4985 74.8679 26.3678 74.8679C26.241 75.1845 26.1142 75.501 25.9835 75.8271C24.6554 75.9534 24.0386 75.7824 22.9737 74.9953C22.018 74.3156 20.9717 73.8057 19.8347 73.525C19.5465 73.2732 19.5465 73.2732 19.2583 72.9495C19.1196 72.8347 18.9809 72.72 18.8379 72.6017C18.4897 72.1821 18.4897 72.1821 18.3816 71.6185C18.638 70.2248 19.5054 69.9576 20.7955 70.0718Z" fill="#B67662"/>
<path d="M77.5365 76.3114C77.6961 76.3534 77.8557 76.3953 78.0201 76.4386C78.187 76.4815 78.3539 76.5243 78.5259 76.5685C79.8161 76.9109 81.1085 77.2907 82.2834 77.9374C82.6366 78.6427 82.5319 79.2875 82.3075 80.0237C81.835 80.4955 81.7162 80.5086 81.0705 80.5393C79.9792 80.4868 78.9811 80.1791 77.9421 79.8589C77.3717 79.6891 76.8151 79.5571 76.2307 79.4482C75.3886 79.2894 74.5963 79.1262 73.8529 78.6808C73.4909 78.0785 73.5205 77.4567 73.6367 76.7863C74.4077 75.4477 76.2752 76.0015 77.5365 76.3114Z" fill="#B57662"/>
<path d="M85.3578 92.9014C85.554 93.0023 85.554 93.0023 85.7542 93.1052C86.1787 93.3104 86.5778 93.4061 87.0392 93.5009C87.2695 93.5491 87.2695 93.5491 87.5045 93.5983C87.6204 93.6216 87.7364 93.6448 87.8558 93.6688C87.8558 93.7954 87.8558 93.922 87.8558 94.0525C88.1094 94.1791 88.3631 94.3057 88.6244 94.4362C88.6244 94.5628 88.6244 94.6894 88.6244 94.8199C88.7512 94.8199 88.878 94.8199 89.0087 94.8199C88.9763 95.6603 88.9382 96.0442 88.3242 96.6424C87.0644 97.1912 85.7424 96.659 84.4932 96.2467C84.3535 96.2018 84.2138 96.1569 84.0698 96.1107C83.7302 96.0014 83.3911 95.8904 83.052 95.7791C83.052 95.6525 83.052 95.5258 83.052 95.3954C82.8143 95.3835 82.5765 95.3717 82.3315 95.3594C81.7136 95.2785 81.5343 95.2196 81.0345 94.8079C80.6333 94.0235 80.633 93.5855 80.7462 92.7096C81.7928 91.3164 84.0809 92.4024 85.3578 92.9014Z" fill="#B57662"/>
<path d="M103.42 31.5109C103.997 32.0145 103.997 32.0145 104.381 32.662C104.417 33.2495 104.417 33.2495 104.189 33.813C103.408 34.5412 102.652 35 101.679 35.4557C100.819 35.8594 100.111 36.2711 99.385 36.8826C98.7838 37.1827 98.3174 37.1427 97.6556 37.0744C97.1146 36.6035 96.9269 36.2646 96.7429 35.5756C97.0513 34.2672 98.2775 33.4837 99.373 32.8058C99.6947 32.6255 100.019 32.4495 100.346 32.2783C100.497 32.1986 100.649 32.119 100.805 32.037C101.688 31.608 102.424 31.3197 103.42 31.5109Z" fill="#F6FDFC"/>
<path d="M37.3203 60.4796C37.705 60.6706 38.0893 60.8625 38.4732 61.0551C38.9425 61.2051 39.4151 61.345 39.8903 61.4748C40.1296 61.5408 40.3689 61.6068 40.6154 61.6749C40.7962 61.7236 40.977 61.7723 41.1633 61.8225C41.1633 61.9491 41.1633 62.0757 41.1633 62.2062C41.3952 62.2893 41.3952 62.2893 41.6317 62.374C42.1241 62.5899 42.1241 62.5899 42.3162 62.9736C42.3905 63.6563 42.405 63.9985 42.004 64.5683C41.4186 64.9836 41.1181 65.0445 40.3947 65.0839C39.6994 64.9283 39.0363 64.6975 38.3651 64.4604C38.1859 64.4003 38.0067 64.3402 37.8221 64.2783C36.0357 63.6655 36.0357 63.6655 35.3988 63.1654C35.3988 62.9755 35.3988 62.7856 35.3988 62.5899C35.272 62.5899 35.1452 62.5899 35.0145 62.5899C34.9225 61.3962 34.9225 61.3962 35.3027 60.7793C35.962 60.368 36.5736 60.3323 37.3203 60.4796Z" fill="#B57662"/>
<path d="M96.2623 56.5828C96.4781 56.5797 96.6938 56.5766 96.9161 56.5734C97.1234 56.5733 97.3307 56.5731 97.5443 56.573C97.7318 56.5725 97.9192 56.5719 98.1123 56.5713C98.6967 56.6541 98.9602 56.8155 99.3848 57.2183C99.5179 57.7375 99.4781 58.2271 99.3848 58.753C99.1206 59.1367 99.1206 59.1367 98.8083 59.3285C98.6815 59.3285 98.5547 59.3285 98.424 59.3285C98.424 59.4552 98.424 59.5818 98.424 59.7122C97.2197 59.8858 96.0375 59.9512 94.8212 59.964C94.6421 59.9696 94.463 59.9752 94.2785 59.9809C92.9813 59.993 92.9813 59.993 92.348 59.5586C91.9672 58.9522 92.0203 58.4959 92.0831 57.7938C92.1433 57.5371 92.2064 57.281 92.2752 57.0264C93.6133 56.6175 94.8685 56.5787 96.2623 56.5828Z" fill="#B57662"/>
<path d="M34.0726 32.3878C35.8549 32.6512 37.7026 33.0443 39.2179 34.0529C39.5878 34.6274 39.5255 35.0699 39.4341 35.7316C39.0378 36.2951 39.0378 36.2951 38.4733 36.6908C37.5493 36.8275 36.9928 36.6341 36.1577 36.2632C35.3971 35.9627 34.5862 35.8224 33.7867 35.66C33.1814 35.5232 32.7786 35.4172 32.3328 34.9747C32.0476 34.4138 32.0435 34.0506 32.1324 33.4294C32.5903 32.515 33.0592 32.3305 34.0726 32.3878Z" fill="#B57662"/>
<path d="M52.6925 25.3719C53.1588 25.9737 53.5709 26.5991 53.9775 27.2424C54.1569 27.5258 54.1569 27.5258 54.34 27.815C54.4756 28.0301 54.4756 28.0301 54.614 28.2496C53.4241 28.1176 52.3044 27.8121 51.1553 27.4822C51.1553 27.4189 51.1553 27.3556 51.1553 27.2904C51.5991 27.2904 52.043 27.2904 52.5003 27.2904C52.4964 27.0451 52.4924 26.7998 52.4883 26.547C52.4763 25.8036 52.4763 25.8036 52.6925 25.3719Z" fill="#49C8A5"/>
<path d="M1.19629 72.1821C1.38652 72.2454 1.57675 72.3087 1.77274 72.374C1.77274 72.8171 1.77274 73.2603 1.77274 73.7169C1.96297 73.7169 2.1532 73.7169 2.34919 73.7169C2.34919 74.1601 2.34919 74.6032 2.34919 75.0598C2.47601 75.1231 2.60283 75.1864 2.73349 75.2517C2.7216 75.402 2.70971 75.5524 2.69746 75.7073C2.7378 76.486 2.93305 77.1145 3.18384 77.8483C3.31642 78.3455 3.33188 78.7683 3.30994 79.2804C2.95152 78.7436 2.8083 78.3797 2.63741 77.7696C2.50096 77.2854 2.36579 76.8245 2.16454 76.363C1.87128 75.576 1.72231 74.7666 1.55657 73.9447C1.50418 73.6904 1.50418 73.6904 1.45074 73.431C1.36513 73.0149 1.28034 72.5986 1.19629 72.1821Z" fill="#5DCEAF"/>
<path d="M62.8765 4.84445C68.2261 4.79695 68.2261 4.79695 69.7939 5.22814C69.7305 5.41807 69.6671 5.608 69.6017 5.80368C69.4323 5.76547 69.4323 5.76547 69.2595 5.72649C67.0918 5.30048 64.8865 5.29375 62.6843 5.22814C62.7477 5.10153 62.8111 4.97491 62.8765 4.84445Z" fill="#4EAE94"/>
<path d="M57.6064 0.0296646C57.909 0.0300717 57.909 0.0300717 58.2177 0.0304871C58.8539 0.0315499 59.49 0.0339558 60.1262 0.0364091C60.5609 0.0373727 60.9956 0.0382478 61.4303 0.039032C62.4888 0.0411325 63.5472 0.0443318 64.6056 0.0483994C64.6056 0.111708 64.6056 0.175017 64.6056 0.240245C61.6888 0.303553 58.772 0.366862 55.7667 0.43209C55.7667 0.558707 55.7667 0.685325 55.7667 0.81578C55.6399 0.81578 55.5131 0.81578 55.3824 0.81578C55.3824 0.689162 55.3824 0.562544 55.3824 0.43209C54.6849 0.43209 53.9874 0.43209 53.2688 0.43209C53.2688 0.368781 53.2688 0.305472 53.2688 0.240245C54.7193 0.0842833 56.1481 0.022098 57.6064 0.0296646Z" fill="#60CCAF"/>
<path d="M110.145 54.916C110.209 54.916 110.272 54.916 110.338 54.916C110.375 55.3276 110.411 55.7393 110.446 56.151C110.466 56.3803 110.486 56.6095 110.506 56.8457C110.514 57.0319 110.522 57.2181 110.53 57.41C110.466 57.4733 110.403 57.5366 110.338 57.6018C110.331 58.2855 110.351 58.9672 110.368 59.6507C110.338 60.2877 110.338 60.2877 109.953 60.8632C109.826 60.8632 109.7 60.8632 109.569 60.8632C109.527 59.6226 109.652 58.4759 109.855 57.2519C109.98 56.4751 110.066 55.6987 110.145 54.916Z" fill="#52C9A8"/>
<path d="M101.691 35.156C101.818 35.2193 101.944 35.2826 102.075 35.3479C101.669 35.976 101.449 36.15 100.73 36.3071C100.434 36.5708 100.434 36.5708 100.153 36.8826C99.5512 37.4241 99.1816 37.5259 98.3761 37.4941C98.2047 37.4889 98.0333 37.4837 97.8567 37.4784C97.7269 37.4717 97.5971 37.465 97.4634 37.4581C97.4 37.2049 97.3366 36.9517 97.2712 36.6908C97.4615 36.7857 97.4615 36.7857 97.6555 36.8826C98.7744 36.99 99.2675 36.7832 100.153 36.1152C100.424 35.9321 100.696 35.7523 100.97 35.5757C101.098 35.4913 101.226 35.407 101.357 35.3201C101.467 35.266 101.577 35.2118 101.691 35.156Z" fill="#63D0B3"/>
<path d="M78.0561 58.5612C78.1829 58.6245 78.3098 58.6878 78.4404 58.753C77.4797 59.7122 77.4797 59.7122 77.1434 59.988C76.8518 60.3001 76.8518 60.3001 76.8192 60.8633C76.7111 61.4388 76.7111 61.4388 76.329 61.7004C75.8988 61.9854 75.8988 61.9854 75.8254 62.4902C75.8165 62.6616 75.8075 62.833 75.7984 63.0096C75.7875 63.1824 75.7766 63.3553 75.7653 63.5334C75.7579 63.7311 75.7579 63.7311 75.7503 63.9328C75.6869 63.9328 75.6235 63.9328 75.5582 63.9328C75.4428 62.1914 75.7022 61.1729 76.6991 59.7602C77.1179 59.304 77.5608 58.9321 78.0561 58.5612Z" fill="#2A1713"/>
<path d="M21.7563 85.6112C23.0245 86.0544 24.2927 86.4975 25.5993 86.9541C25.215 87.3378 25.215 87.3378 24.7572 87.3753C24.5833 87.3708 24.4094 87.3664 24.2303 87.3618C23.968 87.3566 23.968 87.3566 23.7004 87.3513C23.5661 87.3468 23.4319 87.3424 23.2935 87.3378C23.2737 87.2154 23.2539 87.093 23.2335 86.9669C23.1899 86.836 23.1463 86.7052 23.1014 86.5704C22.7196 86.4354 22.3351 86.3074 21.9485 86.1867C21.8851 85.9968 21.8217 85.8069 21.7563 85.6112Z" fill="#4BCCA6"/>
<path d="M75.9427 51.4628C75.8158 51.4628 75.689 51.4628 75.5584 51.4628C75.495 51.6527 75.4315 51.8427 75.3662 52.0384C75.176 51.975 74.9858 51.9117 74.7898 51.8465C74.4368 52.572 74.375 52.9872 74.5976 53.765C75.1683 53.9549 75.739 54.1448 76.327 54.3405C76.327 54.4038 76.327 54.4671 76.327 54.5323C75.5727 54.5914 75.098 54.5915 74.4175 54.2446C73.9346 53.6602 73.8923 53.3348 73.9379 52.5952C74.0641 52.0421 74.3412 51.7921 74.7898 51.4628C75.2684 51.2239 75.4452 51.3138 75.9427 51.4628Z" fill="#22120E"/>
<path d="M11.9568 75.6353C12.0836 75.6353 12.2105 75.6353 12.3411 75.6353C12.3416 75.7809 12.3421 75.9266 12.3426 76.0766C12.3651 76.654 12.401 77.1825 12.5333 77.7455C13.085 78.1898 13.085 78.1898 13.6862 78.3211C13.6862 78.4477 13.6862 78.5743 13.6862 78.7048C13.9398 78.6415 14.1934 78.5782 14.4548 78.5129C14.4548 78.7662 14.4548 79.0194 14.4548 79.2803C13.5268 79.0317 12.5425 78.7357 11.9568 77.9374C11.8418 77.1579 11.8781 76.4172 11.9568 75.6353Z" fill="#B08C7F"/>
<path d="M41.9322 53.1895C42.0159 53.2659 42.0996 53.3423 42.1858 53.421C42.8948 54.0507 43.5521 54.5312 44.4301 54.9161C43.6346 55.1808 42.9349 55.118 42.1243 54.9161C41.728 54.5204 41.728 54.5204 41.5479 54.1487C41.6113 54.0221 41.6747 53.8954 41.74 53.765C41.8034 53.5751 41.8668 53.3851 41.9322 53.1895Z" fill="#BE9280"/>
<path d="M63.8372 62.5899C64.1452 62.5743 64.4535 62.5632 64.7619 62.5539C65.0194 62.5439 65.0194 62.5439 65.282 62.5337C65.7587 62.5899 65.7587 62.5899 66.1107 62.7892C66.4619 63.3779 66.3684 63.9588 66.3111 64.6163C66.3042 64.7477 66.2972 64.8791 66.2901 65.0146C66.2616 65.3964 66.2616 65.3964 66.143 66.0431C65.9527 66.1697 65.7625 66.2963 65.5665 66.4268C65.6799 65.3701 65.8675 64.3839 66.143 63.3573C65.0016 63.0724 65.0016 63.0724 63.8372 62.7817C63.8372 62.7184 63.8372 62.6551 63.8372 62.5899Z" fill="#1D0301"/>
<path d="M54.6141 21.3431C54.9984 21.535 54.9984 21.535 55.135 21.9179C55.2198 22.2295 55.3039 22.5412 55.3872 22.8532C55.6188 23.3573 55.8338 23.4537 56.3434 23.6453C56.3395 23.8194 56.3355 23.9935 56.3314 24.1729C56.3413 24.6864 56.386 25.0783 56.5356 25.5637C55.8636 24.9672 55.5155 24.3748 55.1425 23.5613C54.9924 23.2412 54.9924 23.2412 54.8392 22.9146C54.6259 22.3346 54.5639 21.9523 54.6141 21.3431Z" fill="#9AD07F"/>
<path d="M34.2461 23.0698C34.5864 23.0969 34.9267 23.1251 35.2669 23.1538C35.4564 23.1693 35.6459 23.1849 35.8411 23.201C36.3597 23.2617 36.3597 23.2617 36.9362 23.4535C37.3318 23.4963 37.7283 23.5316 38.1251 23.5614C38.3339 23.5775 38.5427 23.5936 38.7579 23.6101C38.9975 23.6276 38.9975 23.6276 39.242 23.6454C39.1786 23.8353 39.1152 24.0252 39.0498 24.2209C37.4411 24.0005 35.8409 23.759 34.2461 23.4535C34.2461 23.3269 34.2461 23.2003 34.2461 23.0698Z" fill="#4FB599"/>
<path d="M72.2917 1.19946C72.8645 1.31406 73.4368 1.43019 74.0091 1.54718C74.1687 1.57896 74.3284 1.61074 74.4928 1.64348C75.5834 1.86802 76.6239 2.16702 77.6719 2.54238C76.9702 2.74799 76.4683 2.68897 75.7504 2.54238C75.7504 2.41576 75.7504 2.28914 75.7504 2.15869C74.8944 2.25365 74.8944 2.25365 74.0211 2.35053C73.9577 2.22392 73.8943 2.0973 73.8289 1.96684C73.3829 1.88871 72.9341 1.82404 72.4839 1.775C72.4205 1.58507 72.3571 1.39514 72.2917 1.19946Z" fill="#65D1B3"/>
<path d="M106.494 22.3024C107.25 22.5539 107.526 23.0362 107.972 23.6573C108.051 23.7662 108.131 23.8751 108.214 23.9874C108.41 24.2561 108.605 24.5261 108.8 24.7964C108.737 24.923 108.673 25.0496 108.608 25.18C108.493 25.0218 108.378 24.8635 108.26 24.7004C108.121 24.5422 107.982 24.3839 107.839 24.2208C107.649 24.2208 107.459 24.2208 107.263 24.2208C107.136 24.2208 107.009 24.2208 106.879 24.2208C106.412 23.5217 106.463 23.1249 106.494 22.3024Z" fill="#59D0AF"/>
<path d="M72.676 33.2375C72.8028 33.4275 72.9296 33.6174 73.0603 33.8131C72.8066 34.3196 72.553 34.826 72.2917 35.3478C71.4133 35.2426 70.6249 35.0759 69.7937 34.7723C69.8571 34.6457 69.9205 34.5191 69.9859 34.3886C70.6199 34.5152 71.254 34.6419 71.9074 34.7723C71.9708 34.5191 72.0342 34.2658 72.0995 34.0049C72.2263 33.9416 72.3531 33.8783 72.4838 33.8131C72.5472 33.6232 72.6106 33.4332 72.676 33.2375Z" fill="#5B974A"/>
<path d="M18.2977 41.6787C18.4879 41.6787 18.6781 41.6787 18.8741 41.6787C18.4825 43.0442 18.028 44.3774 17.5291 45.7075C17.4657 45.7075 17.4022 45.7075 17.3369 45.7075C17.4081 44.4896 17.5767 43.5459 18.1055 42.4461C18.1772 42.1923 18.2459 41.9373 18.2977 41.6787Z" fill="#54C5A6"/>
<path d="M32.3247 25.9474C32.3247 26.0107 32.3247 26.074 32.3247 26.1392C32.1855 26.1513 32.0463 26.1635 31.9028 26.1759C30.8785 26.3055 30.1864 26.4039 29.5025 27.2184C29.3487 27.4302 29.1984 27.6448 29.0581 27.8658C28.9425 27.5211 28.9425 27.5211 28.866 27.0985C29.6202 25.5923 30.7913 25.8263 32.3247 25.9474Z" fill="#AD8979"/>
<path d="M100.346 92.5177C100.536 92.581 100.726 92.6443 100.922 92.7095C100.989 93.2725 101.021 93.6963 100.722 94.1933C100.466 94.5081 100.466 94.5081 99.9614 95.0117C99.8346 95.0117 99.7078 95.0117 99.5771 95.0117C99.6687 94.6678 99.7609 94.3241 99.8534 93.9805C99.9046 93.7891 99.9559 93.5977 100.009 93.4005C100.154 92.9014 100.154 92.9014 100.346 92.5177Z" fill="#4BC7A6"/>
<path d="M85.7422 114.004C85.869 114.068 85.9958 114.131 86.1265 114.196C85.6952 114.691 85.4081 114.812 84.7814 114.964C84.615 115.1 84.615 115.1 84.4452 115.239C83.843 115.657 83.2025 115.838 82.4756 115.923C82.0433 115.836 82.0433 115.836 81.707 115.731C81.9017 115.655 82.0964 115.578 82.297 115.499C82.5567 115.397 82.8164 115.294 83.0761 115.191C83.2039 115.141 83.3317 115.091 83.4634 115.04C84.0744 114.797 84.6523 114.547 85.2363 114.242C85.4032 114.164 85.5702 114.085 85.7422 114.004Z" fill="#DEFCF7"/>
<path d="M16.9526 80.2396C17.4599 80.3029 17.9672 80.3662 18.4898 80.4315C18.4898 80.5581 18.4898 80.6847 18.4898 80.8152C18.6285 80.8389 18.7673 80.8626 18.9102 80.8871C19.4424 81.0052 19.9112 81.1767 20.4113 81.3907C20.4113 81.5173 20.4113 81.6439 20.4113 81.7744C19.5486 81.6619 18.8308 81.4359 18.0335 81.0909C17.8299 81.0036 17.6263 80.9163 17.4165 80.8264C17.2634 80.7594 17.1103 80.6924 16.9526 80.6233C16.9526 80.4967 16.9526 80.3701 16.9526 80.2396Z" fill="#B49080"/>
<path d="M99.0005 33.0457C99.1273 33.109 99.2541 33.1723 99.3848 33.2375C98.972 33.8557 98.6685 34.0211 98.0397 34.3886C97.6592 34.5926 97.6592 34.5926 97.4633 34.9641C97.4749 35.4941 97.5606 35.9738 97.6554 36.4989C97.4652 36.4989 97.275 36.4989 97.079 36.4989C96.7848 35.9114 96.777 35.6218 96.8868 34.9641C97.4957 34.2035 98.1906 33.5847 99.0005 33.0457Z" fill="#D6FBF5"/>
<path d="M93.4282 10.0243C94.6245 10.3574 95.5524 10.7487 96.5026 11.5591C96.6347 11.9735 96.6347 11.9735 96.6948 12.3264C96.0687 12.0349 95.5186 11.679 94.9534 11.2833C94.7887 11.1688 94.624 11.0543 94.4543 10.9363C94.0752 10.6526 93.7504 10.3692 93.4282 10.0243Z" fill="#DCFCF7"/>
<path d="M28.0971 9.25696C27.965 9.62866 27.965 9.62866 27.7128 10.0243C27.2084 10.1682 27.2084 10.1682 26.7521 10.2162C26.7521 10.3428 26.7521 10.4694 26.7521 10.5999C26.4984 10.6632 26.2448 10.7265 25.9835 10.7917C25.9835 10.9183 25.9835 11.045 25.9835 11.1754C25.5992 11.5591 25.5992 11.5591 25.2149 11.7509C25.0246 11.6243 24.8344 11.4977 24.6384 11.3673C25.1418 11.0141 25.6466 10.6629 26.1516 10.3121C26.295 10.2115 26.4384 10.1108 26.5862 10.0071C26.7237 9.91189 26.8611 9.81668 27.0028 9.71859C27.1296 9.63018 27.2563 9.54177 27.387 9.45068C27.7128 9.25696 27.7128 9.25696 28.0971 9.25696Z" fill="#5ECDAE"/>
<path d="M56.7277 11.5591C56.7911 11.749 56.8545 11.9389 56.9198 12.1346C56.793 12.2612 56.6662 12.3879 56.5355 12.5183C56.3983 12.8988 56.2691 13.2825 56.1512 13.6694C56.0244 13.6694 55.8976 13.6694 55.7669 13.6694C55.6896 13.9958 55.6896 13.9958 55.6108 14.3288C55.5355 14.5544 55.4602 14.7799 55.3826 15.0123C55.1924 15.0756 55.0021 15.1389 54.8062 15.2041C55.0654 13.7807 55.9043 12.7233 56.7277 11.5591Z" fill="#92C379"/>
<path d="M64.0292 75.4435C64.0292 76.019 64.0292 76.019 63.8371 76.4027C62.7777 77.1174 62.0327 77.1945 60.7627 77.1701C61.1766 76.963 61.5911 76.757 62.0064 76.5526C62.1706 76.4715 62.3349 76.3904 62.5041 76.3068C62.6688 76.2257 62.8335 76.1446 63.0032 76.061C63.4849 75.8207 63.4849 75.8207 64.0292 75.4435Z" fill="#BA9282"/>
<path d="M107.071 51.0791C107.198 51.0791 107.324 51.0791 107.455 51.0791C107.455 52.2187 107.455 53.3582 107.455 54.5323C107.328 54.5956 107.201 54.6589 107.071 54.7242C107.033 54.1887 106.998 53.6531 106.963 53.1175C106.952 52.9651 106.941 52.8128 106.93 52.6558C106.857 51.5063 106.857 51.5063 107.071 51.0791Z" fill="#AD8A7C"/>
<path d="M105.342 99.0404C105.405 99.2303 105.468 99.4203 105.534 99.6159C105.327 99.9876 105.327 99.9876 105.017 100.383C104.918 100.514 104.818 100.644 104.715 100.779C104.376 101.156 104.027 101.438 103.612 101.726C103.549 101.536 103.485 101.346 103.42 101.151C103.527 101.047 103.633 100.942 103.743 100.835C103.952 100.629 103.952 100.629 104.165 100.419C104.303 100.284 104.441 100.148 104.584 100.008C104.987 99.6075 104.987 99.6075 105.342 99.0404Z" fill="#E0FBF7"/>
<path d="M103.804 30.8395C104.392 31.2796 104.43 31.7681 104.573 32.4701C104.597 33.0337 104.597 33.0337 104.573 33.4294C104.525 33.3225 104.478 33.2157 104.429 33.1056C104.136 32.5656 103.85 32.1442 103.42 31.7028C102.817 31.5328 102.817 31.5328 102.267 31.5109C103.307 30.7152 103.307 30.7152 103.804 30.8395Z" fill="#5DD2B2"/>
<path d="M27.3287 29.5925C27.5774 30.2814 27.4662 30.6728 27.1966 31.3431C27.1324 31.5098 27.0683 31.6765 27.0022 31.8482C26.7178 32.3377 26.5064 32.4665 25.9836 32.6621C26.2999 31.5714 26.808 30.5965 27.3287 29.5925Z" fill="#B89281"/>
<path d="M56.3434 62.2062C56.4702 62.3328 56.5971 62.4594 56.7277 62.5899C56.6684 63.0178 56.6684 63.0178 56.5356 63.5491C56.4661 63.9525 56.3981 64.3562 56.3314 64.7601C56.2975 64.9651 56.2635 65.1701 56.2286 65.3814C56.2031 65.5364 56.1776 65.6915 56.1513 65.8512C55.6488 65.0987 55.7963 64.5835 55.9591 63.7409C56.0757 63.2253 56.2064 62.717 56.3434 62.2062Z" fill="#A14F4B"/>
<path d="M69.0251 8.87329C69.9093 9.1255 70.6054 9.45522 71.3309 10.0244C71.3309 10.2143 71.3309 10.4042 71.3309 10.5999C70.5792 10.3782 70.01 10.148 69.4094 9.64067C69.4729 9.51405 69.5363 9.38744 69.6016 9.25698C69.4114 9.25698 69.2211 9.25698 69.0251 9.25698C69.0251 9.13036 69.0251 9.00375 69.0251 8.87329Z" fill="#9BCE7D"/>
<path d="M90.3538 104.604C91.4951 104.604 92.6365 104.604 93.8125 104.604C92.9684 105.236 92.8532 105.246 91.8669 105.143C91.6643 105.125 91.4617 105.106 91.253 105.087C90.7381 104.988 90.7381 104.988 90.3538 104.604Z" fill="#58C2A7"/>
<path d="M66.9116 60.0958C67.09 60.1492 67.09 60.1492 67.2719 60.2037C67.6882 60.3331 67.6882 60.3331 68.0645 60.0958C68.1914 60.1591 68.3182 60.2224 68.4488 60.2877C68.4488 60.4143 68.4488 60.5409 68.4488 60.6714C68.5757 60.6714 68.7025 60.6714 68.8331 60.6714C68.8331 60.5447 68.8331 60.4181 68.8331 60.2877C68.96 60.351 69.0868 60.4143 69.2174 60.4795C69.2174 60.7961 69.2174 61.1126 69.2174 61.4387C68.3931 61.1222 67.5688 60.8057 66.7195 60.4795C66.7829 60.3529 66.8463 60.2263 66.9116 60.0958Z" fill="#BE9685"/>
<path d="M50.9632 49.1606C51.0266 49.1606 51.09 49.1606 51.1553 49.1606C51.2088 49.6762 51.2558 50.191 51.2995 50.7074C51.3151 50.8517 51.3307 50.996 51.3467 51.1447C51.4339 52.2615 51.2127 52.8414 50.5789 53.7649C50.3887 53.7016 50.1984 53.6383 50.0024 53.5731C50.0928 53.4517 50.1833 53.3302 50.2764 53.2051C50.6786 52.419 50.732 51.698 50.8071 50.8273C50.8228 50.6669 50.8385 50.5066 50.8547 50.3413C50.893 49.948 50.9284 49.5543 50.9632 49.1606Z" fill="#9F7F70"/>
<path d="M85.9344 24.7964C85.9978 24.923 86.0612 25.0496 86.1265 25.1801C85.9348 25.4991 85.7428 25.818 85.5486 26.1356C85.2388 26.7651 85.2147 27.3626 85.1658 28.0578C85.1024 28.0578 85.039 28.0578 84.9736 28.0578C84.9759 27.9143 84.9781 27.7709 84.9804 27.6231C84.9821 27.4342 84.9839 27.2452 84.9857 27.0506C84.9879 26.8636 84.9901 26.6766 84.9924 26.484C84.9759 26.0131 84.9174 25.6287 84.7815 25.1801C85.162 25.0535 85.5424 24.9268 85.9344 24.7964Z" fill="#5FD1B1"/>
<path d="M59.4176 9.25696C59.6078 9.32027 59.7981 9.38358 59.9941 9.4488C59.8038 9.73369 59.8038 9.73369 59.6098 10.0243C59.4195 10.0243 59.2293 10.0243 59.0333 10.0243C59.0333 10.151 59.0333 10.2776 59.0333 10.408C58.8431 10.4713 58.6528 10.5346 58.4569 10.5999C58.1365 10.8876 58.1365 10.8876 57.8804 11.1754C57.6902 11.1121 57.4999 11.0488 57.304 10.9836C57.6422 10.6894 57.9829 10.3982 58.3248 10.1083C58.5142 9.94579 58.7037 9.78332 58.899 9.61592C59.0701 9.49746 59.2413 9.379 59.4176 9.25696Z" fill="#96CA79"/>
<path d="M114.949 83.6927C115.012 83.6927 115.076 83.6927 115.141 83.6927C115.088 84.8781 114.92 85.6017 114.18 86.5704C114.117 86.7604 114.054 86.9503 113.988 87.146C113.861 87.146 113.735 87.146 113.604 87.146C113.976 85.9556 114.422 84.8231 114.949 83.6927Z" fill="#DAF9F4"/>
<path d="M21.5642 81.7744C22.0322 81.9487 22.4792 82.1328 22.9333 82.338C23.0599 82.3937 23.1864 82.4495 23.3169 82.5069C23.6299 82.6451 23.9422 82.7851 24.2543 82.9255C24.2543 83.0521 24.2543 83.1787 24.2543 83.3092C23.2242 83.0043 22.1967 82.6972 21.1799 82.3499C21.1799 82.2233 21.1799 82.0967 21.1799 81.9663C21.3068 81.903 21.4336 81.8396 21.5642 81.7744Z" fill="#B18C7E"/>
<path d="M103.804 69.3044C103.931 69.3044 104.058 69.3044 104.189 69.3044C104.097 70.3728 103.939 71.3516 103.612 72.374C103.486 72.374 103.359 72.374 103.228 72.374C103.287 71.8982 103.347 71.4226 103.408 70.9471C103.425 70.8115 103.442 70.6758 103.459 70.5361C103.591 69.518 103.591 69.518 103.804 69.3044Z" fill="#BF9989"/>
<path d="M60.5706 61.6306C61.9022 62.0105 63.2338 62.3903 64.6057 62.7817C64.0293 63.1654 64.0293 63.1654 63.6463 63.1209C63.5044 63.0787 63.3626 63.0365 63.2164 62.993C63.0622 62.9485 62.908 62.904 62.7491 62.8581C62.589 62.8092 62.4289 62.7602 62.2639 62.7097C62.1015 62.6623 61.9392 62.6148 61.7719 62.5659C61.3707 62.4482 60.9704 62.3282 60.5706 62.2062C60.5706 62.0162 60.5706 61.8263 60.5706 61.6306Z" fill="#A75552"/>
<path d="M10.8037 94.4362C11.5579 95.1462 12.1383 95.8845 12.7252 96.7383C12.535 96.8333 12.535 96.8333 12.3409 96.9301C12.2775 96.8035 12.2141 96.6769 12.1488 96.5465C11.9942 96.4752 11.8396 96.404 11.6804 96.3306C10.9565 95.8018 10.9601 95.3022 10.8037 94.4362Z" fill="#D6FAF4"/>
<path d="M52.3083 118.609C52.118 118.672 51.9278 118.735 51.7318 118.801C51.7318 118.927 51.7318 119.054 51.7318 119.184C52.1123 119.184 52.4927 119.184 52.8847 119.184C52.8847 119.248 52.8847 119.311 52.8847 119.376C51.7723 119.416 50.8807 119.298 49.8103 118.992C49.8103 118.929 49.8103 118.866 49.8103 118.801C50.6547 118.636 51.4485 118.591 52.3083 118.609Z" fill="#63D2B2"/>
<path d="M94.7733 108.249C94.9001 108.312 95.027 108.376 95.1576 108.441C94.3717 109.158 93.6458 109.735 92.6597 110.167C92.7231 109.914 92.7865 109.661 92.8518 109.4C93.042 109.4 93.2323 109.4 93.4283 109.4C93.4917 109.147 93.5551 108.894 93.6204 108.633C93.8741 108.696 94.1277 108.759 94.389 108.825C94.389 108.698 94.389 108.571 94.389 108.441C94.5158 108.378 94.6427 108.314 94.7733 108.249Z" fill="#5ACEAD"/>
<path d="M113.412 87.146C113.539 87.3359 113.666 87.5258 113.796 87.7215C113.268 88.8486 113.268 88.8486 112.836 89.0644C112.776 89.2227 112.717 89.381 112.655 89.5441C112.554 89.7815 112.554 89.7815 112.451 90.0237C112.261 90.087 112.071 90.1503 111.875 90.2155C112.149 89.4883 112.482 88.8206 112.86 88.1412C112.963 87.954 113.067 87.7668 113.173 87.5739C113.252 87.4327 113.331 87.2915 113.412 87.146Z" fill="#D6FAF3"/>
<path d="M67.8724 68.5371C67.9992 68.6637 68.126 68.7903 68.2567 68.9208C68.1887 69.3549 68.0692 69.6788 67.8724 70.0719C67.9992 70.1352 68.126 70.1985 68.2567 70.2637C68.1338 70.3824 68.011 70.5011 67.8844 70.6234C67.4806 70.9977 67.4806 70.9977 67.2959 71.4148C67.1691 71.4148 67.0423 71.4148 66.9116 71.4148C67.2319 70.4556 67.5521 69.4963 67.8724 68.5371Z" fill="#B88D80"/>
<path d="M101.691 43.4054C101.564 43.6586 101.437 43.9118 101.306 44.1727C101.497 44.236 101.687 44.2994 101.883 44.3646C101.499 44.5564 101.499 44.5564 101.041 44.4073C100.867 44.3338 100.693 44.2604 100.514 44.1847C100.339 44.1118 100.164 44.0388 99.984 43.9637C99.8497 43.906 99.7155 43.8484 99.5771 43.789C99.5771 43.7257 99.5771 43.6624 99.5771 43.5972C101.042 43.1895 101.042 43.1895 101.691 43.4054Z" fill="#51C4A5"/>
<path d="M49.4259 37.0745C49.7429 37.2644 50.06 37.4543 50.3866 37.65C50.133 37.9032 49.8794 38.1565 49.618 38.4174C49.515 38.3264 49.412 38.2354 49.3058 38.1416C48.7671 37.7878 48.3314 37.722 47.6965 37.65C47.6965 37.5867 47.6965 37.5234 47.6965 37.4582C48.0906 37.4144 48.4846 37.3707 48.8787 37.327C49.2359 37.3011 49.2359 37.3011 49.4259 37.0745Z" fill="#B78C7B"/>
<path d="M109.761 92.3258C109.951 92.3258 110.142 92.3258 110.337 92.3258C110.059 93.1142 109.663 93.7517 109.185 94.4361C109.058 94.1829 108.931 93.9296 108.8 93.6687C108.927 93.4788 109.054 93.2889 109.185 93.0932C109.311 93.0932 109.438 93.0932 109.569 93.0932C109.632 92.84 109.696 92.5867 109.761 92.3258Z" fill="#58CFAD"/>
<path d="M2.73342 78.3212C3.20669 78.7937 3.26523 79.141 3.42996 79.784C3.48 79.9764 3.53003 80.1688 3.58158 80.367C3.61874 80.5149 3.65589 80.6628 3.69417 80.8152C3.56735 80.9418 3.44053 81.0684 3.30987 81.1988C3.18305 80.7557 3.05623 80.3125 2.92557 79.8559C2.73534 79.8559 2.54511 79.8559 2.34912 79.8559C2.47722 79.3443 2.60532 78.8328 2.73342 78.3212Z" fill="#DAFBF5"/>
<path d="M106.302 73.3331C106.687 73.7168 106.687 73.7168 106.735 74.3643C106.691 74.9898 106.634 75.3103 106.302 75.8271C106.175 75.8271 106.049 75.8271 105.918 75.8271C105.945 75.5553 105.974 75.2835 106.002 75.0118C106.018 74.8604 106.033 74.7091 106.049 74.5531C106.106 74.1343 106.191 73.7404 106.302 73.3331Z" fill="#51BEA0"/>
<path d="M62.4921 72.5658C62.4921 73.1413 62.4921 73.1413 62.1919 73.6329C61.6019 74.222 61.1974 74.3457 60.3785 74.4842C59.6219 74.4123 59.6219 74.4123 59.0334 74.2924C59.0334 74.2291 59.0334 74.1658 59.0334 74.1006C59.2006 74.0931 59.2006 74.0931 59.3712 74.0856C60.7069 73.9887 61.5809 73.5767 62.4921 72.5658Z" fill="#2A0D0A"/>
<path d="M58.8413 28.0577C58.9681 28.0577 59.0949 28.0577 59.2256 28.0577C59.5459 28.3775 59.8661 28.6972 60.1864 29.017C60.4395 29.1508 60.6954 29.2797 60.955 29.4007C61.2912 29.6884 61.2912 29.6884 61.5314 29.9762C61.5314 30.1028 61.5314 30.2294 61.5314 30.3599C60.9152 30.0769 60.3995 29.7291 59.8621 29.3167C59.7108 29.2022 59.5594 29.0877 59.4035 28.9698C59.0335 28.6333 59.0335 28.6333 58.8413 28.0577Z" fill="#95C27A"/>
<path d="M46.1594 118.033C46.6667 118.033 47.174 118.033 47.6966 118.033C47.6966 118.16 47.6966 118.286 47.6966 118.417C48.2039 118.417 48.7112 118.417 49.2338 118.417C49.2338 118.543 49.2338 118.67 49.2338 118.8C48.9014 118.778 48.5692 118.754 48.237 118.729C48.052 118.715 47.867 118.702 47.6764 118.688C47.1173 118.608 46.6727 118.455 46.1594 118.225C46.1594 118.162 46.1594 118.098 46.1594 118.033Z" fill="#63CEB1"/>
<path d="M64.6058 68.1533C64.8523 68.8915 64.6898 69.092 64.3656 69.784C64.2393 70.06 64.2393 70.06 64.1104 70.3416C63.8642 70.79 63.6436 71.0819 63.2607 71.4147C63.3418 71.0663 63.4266 70.7187 63.5129 70.3715C63.5598 70.1779 63.6066 69.9843 63.6548 69.7848C63.715 69.6262 63.7752 69.4677 63.8372 69.3044C64.0274 69.2411 64.2176 69.1778 64.4136 69.1125C64.4771 68.796 64.5405 68.4795 64.6058 68.1533Z" fill="#AC5B57"/>
<path d="M47.1201 45.5156C47.1201 45.5789 47.1201 45.6422 47.1201 45.7074C46.9554 45.7146 46.7907 45.7218 46.621 45.7292C45.3808 45.8004 44.3781 45.8868 43.2771 46.4748C43.2771 46.2849 43.2771 46.095 43.2771 45.8993C44.5546 45.1577 45.6884 45.3372 47.1201 45.5156Z" fill="#A48375"/>
<path d="M45.1985 29.017C46.3058 28.9297 47.2364 29.249 48.2729 29.5925C48.2729 29.6559 48.2729 29.7192 48.2729 29.7844C47.8324 29.7677 47.3921 29.747 46.9519 29.7244C46.7066 29.7133 46.4614 29.7022 46.2088 29.6907C45.8989 29.6421 45.8989 29.6421 45.5828 29.5925C45.456 29.4026 45.3291 29.2127 45.1985 29.017Z" fill="#BA9583"/>
<path d="M89.0089 20.3839C89.1357 20.4472 89.2625 20.5105 89.3932 20.5758C88.8225 21.3988 88.2518 22.2218 87.6638 23.0697C87.6004 22.8165 87.537 22.5633 87.4717 22.3024C87.5985 22.3024 87.7253 22.3024 87.856 22.3024C87.9194 21.9858 87.9828 21.6693 88.0481 21.3431C88.1749 21.3431 88.3018 21.3431 88.4324 21.3431C88.4324 21.1532 88.4324 20.9633 88.4324 20.7676C88.6227 20.7676 88.8129 20.7676 89.0089 20.7676C89.0089 20.641 89.0089 20.5144 89.0089 20.3839Z" fill="#64CCB1"/>
<path d="M51.7317 0.432089C51.7317 0.495398 51.7317 0.558707 51.7317 0.623935C51.2075 0.720883 50.683 0.816631 50.1585 0.911702C50.0107 0.939152 49.863 0.966603 49.7107 0.994885C48.9658 1.12894 48.265 1.236 47.5044 1.19947C48.0685 0.717636 48.4467 0.54491 49.1857 0.492041C49.4361 0.473494 49.4361 0.473494 49.6916 0.454571C50.3734 0.424093 51.0494 0.419474 51.7317 0.432089Z" fill="#D2FCF5"/>
<path d="M105.534 76.4027C105.687 76.9619 105.775 77.505 105.834 78.0814C105.85 78.2347 105.866 78.388 105.883 78.546C105.894 78.6617 105.906 78.7775 105.918 78.8967C105.342 78.8967 105.342 78.8967 104.957 78.7049C105.017 78.393 105.077 78.0813 105.137 77.7696C105.171 77.596 105.204 77.4224 105.239 77.2435C105.342 76.7864 105.342 76.7864 105.534 76.4027Z" fill="#4AC4A2"/>
<path d="M84.9737 64.892C85.2273 64.9553 85.481 65.0186 85.7423 65.0838C85.0217 66.1869 85.0217 66.1869 84.5894 66.6186C84.3992 66.5553 84.2089 66.492 84.0129 66.4267C84.33 65.9203 84.647 65.4138 84.9737 64.892Z" fill="#BA9383"/>
<path d="M54.8062 57.0264C54.933 57.0264 55.0598 57.0264 55.1905 57.0264C55.0514 57.6967 54.7941 58.2772 54.5059 58.8969C54.4185 59.0858 54.3311 59.2747 54.241 59.4694C54.1739 59.6128 54.1067 59.7563 54.0376 59.904C53.8188 59.2487 53.8756 59.0955 54.0976 58.4652C54.1484 58.3168 54.1992 58.1684 54.2515 58.0156C54.4219 57.6019 54.4219 57.6019 54.8062 57.0264Z" fill="#C09788"/>
<path d="M74.0212 51.6547C74.2133 52.2302 74.2133 52.2302 74.1773 52.9856C74.1644 53.6206 74.1779 53.7208 74.5976 54.2446C74.7244 54.3395 74.8513 54.4345 74.9819 54.5323C74.7917 54.5956 74.6015 54.659 74.4055 54.7242C74.0226 54.4084 73.8434 54.1917 73.6849 53.717C73.6254 53.0636 73.7052 52.4893 73.829 51.8465C73.8924 51.7832 73.9558 51.7199 74.0212 51.6547Z" fill="#B49080"/>
<path d="M92.2754 40.5277C92.9095 40.591 93.5436 40.6543 94.1969 40.7196C94.2603 40.9095 94.3237 41.0994 94.389 41.2951C93.7339 41.5131 93.6198 41.4615 93.008 41.2112C92.8705 41.156 92.733 41.1009 92.5914 41.044C92.4871 41.0003 92.3828 40.9565 92.2754 40.9114C92.2754 40.7848 92.2754 40.6582 92.2754 40.5277Z" fill="#4EC3A3"/>
<path d="M10.0353 26.5229C9.78055 27.218 9.46967 27.7959 9.05049 28.4054C8.94695 28.557 8.84342 28.7086 8.73674 28.8648C8.61859 29.0351 8.61859 29.0351 8.49806 29.2088C8.43465 29.0822 8.37124 28.9555 8.30591 28.8251C8.48761 28.4364 8.68133 28.0531 8.88236 27.674C8.94973 27.496 9.0171 27.3179 9.08652 27.1345C9.31399 26.6045 9.46251 26.5229 10.0353 26.5229Z" fill="#DEFCF7"/>
<path d="M15.4153 83.1173C15.8241 83.2679 16.2323 83.4201 16.6402 83.5729C16.8676 83.6575 17.095 83.7421 17.3293 83.8292C17.9132 84.0765 17.9132 84.0765 18.2975 84.4602C17.8412 84.4842 17.8412 84.4842 17.3368 84.4602C17.21 84.3336 17.0831 84.207 16.9525 84.0765C16.7266 84.0172 16.5007 83.9578 16.2679 83.8967C16.05 83.8294 15.832 83.7621 15.6074 83.6928C15.544 83.5029 15.4806 83.313 15.4153 83.1173Z" fill="#56C4A7"/>
<path d="M0.619655 67.9615C0.809883 67.9615 1.00011 67.9615 1.1961 67.9615C1.1327 68.8479 1.06929 69.7342 1.00395 70.6474C1.13077 70.6474 1.25759 70.6474 1.38825 70.6474C1.26144 70.9006 1.13462 71.1538 1.00395 71.4148C0.9387 71.0553 0.874948 70.6955 0.811805 70.3356C0.758303 70.0352 0.758303 70.0352 0.70372 69.7286C0.622122 69.1307 0.605157 68.5641 0.619655 67.9615Z" fill="#61D0B0"/>
<path d="M103.228 84.652C103.465 85.1245 103.434 85.473 103.42 85.9949C103.23 86.0899 103.23 86.0899 103.036 86.1867C102.836 86.5016 102.643 86.8212 102.459 87.146C102.267 86.7623 102.267 86.7623 102.41 86.3119C102.482 86.14 102.553 85.9681 102.627 85.7911C102.698 85.6187 102.769 85.4463 102.842 85.2687C103.036 84.8438 103.036 84.8438 103.228 84.652Z" fill="#4BB298"/>
<path d="M53.4609 73.525C53.8938 74.0408 54.2069 74.4164 54.4217 75.0598C54.806 75.2917 54.806 75.2917 55.1903 75.4435C54.9367 75.5068 54.683 75.5701 54.4217 75.6353C54.3583 75.3821 54.2949 75.1288 54.2295 74.8679C54.0393 74.8679 53.8491 74.8679 53.6531 74.8679C53.4489 74.4123 53.4489 74.4123 53.2688 73.9087C53.3322 73.7821 53.3956 73.6555 53.4609 73.525Z" fill="#B28E80"/>
<path d="M3.11772 40.3358C3.3253 40.9724 3.29473 41.4328 3.16576 42.0864C3.11969 42.3364 3.11969 42.3364 3.07269 42.5915C2.92557 43.0216 2.92557 43.0216 2.34912 43.4053C2.46462 42.3214 2.74789 41.36 3.11772 40.3358Z" fill="#6BD2B7"/>
<path d="M53.2688 26.5229C53.8375 27.0515 54.2367 27.5716 54.6139 28.2496C53.3409 28.1057 53.3409 28.1057 52.6924 27.674C53.0094 27.674 53.3265 27.674 53.6531 27.674C53.5263 27.2942 53.3995 26.9143 53.2688 26.5229Z" fill="#55B194"/>
<path d="M118.6 71.031C118.663 71.031 118.727 71.031 118.792 71.031C118.866 72.3397 118.601 73.4283 118.215 74.6761C118.03 74.0772 118.025 73.6169 118.107 72.9974C118.127 72.8441 118.146 72.6908 118.167 72.5328C118.183 72.4171 118.199 72.3013 118.215 72.1821C118.342 72.1821 118.469 72.1821 118.6 72.1821C118.6 71.8022 118.6 71.4224 118.6 71.031Z" fill="#5BCBAC"/>
<path d="M56.5356 60.6714C56.6624 60.6714 56.7892 60.6714 56.9199 60.6714C56.6662 61.6843 56.4126 62.6973 56.1513 63.7409C55.767 62.9735 55.767 62.9735 55.8976 62.395C56.0113 62.0878 56.0113 62.0878 56.1273 61.7745C56.2021 61.5678 56.2769 61.361 56.3539 61.148C56.4139 60.9907 56.4738 60.8334 56.5356 60.6714Z" fill="#1A0201"/>
<path d="M78.0563 54.1487C77.866 54.1487 77.6758 54.1487 77.4798 54.1487C77.4798 54.2753 77.4798 54.402 77.4798 54.5324C77.67 54.5957 77.8603 54.659 78.0563 54.7243C77.9928 54.8509 77.9294 54.9775 77.8641 55.1079C77.2193 54.993 76.8307 54.7538 76.3269 54.3406C76.9853 54.0302 77.3608 53.8915 78.0563 54.1487Z" fill="#B88D7B"/>
<path d="M23.4856 38.0337C23.6125 38.0337 23.7393 38.0337 23.8699 38.0337C24.002 38.3814 24.002 38.3814 24.0621 38.8011C23.8099 39.0768 23.8099 39.0768 23.4856 39.3766C23.2569 39.8752 23.2569 39.8752 23.1013 40.3358C22.9745 40.3358 22.8477 40.3358 22.717 40.3358C22.8087 40.024 22.9009 39.7122 22.9933 39.4006C23.0445 39.227 23.0958 39.0534 23.1486 38.8745C23.2935 38.4174 23.2935 38.4174 23.4856 38.0337Z" fill="#BA9282"/>
<path d="M92.6597 21.1514C92.7866 21.3413 92.9134 21.5312 93.044 21.7269C92.8259 22.3584 92.6611 22.4935 92.0593 22.83C91.7858 22.9487 91.7858 22.9487 91.5068 23.0698C91.8242 22.3833 92.2337 21.7752 92.6597 21.1514Z" fill="#67D4B6"/>
<path d="M97.0792 106.906C97.206 106.969 97.3328 107.033 97.4635 107.098C96.6594 108.208 96.6594 108.208 95.8663 108.417C95.6106 108.429 95.6106 108.429 95.3499 108.441C95.898 107.878 96.4357 107.358 97.0792 106.906Z" fill="#D6FAF4"/>
<path d="M101.114 79.856C101.342 80.5375 101.248 80.7573 101.03 81.4267C100.975 81.5996 100.92 81.7724 100.863 81.9505C100.819 82.0823 100.775 82.2141 100.73 82.3499C100.603 82.3499 100.476 82.3499 100.346 82.3499C100.409 81.7802 100.473 81.2104 100.538 80.6233C100.665 80.6233 100.791 80.6233 100.922 80.6233C100.986 80.3701 101.049 80.1169 101.114 79.856Z" fill="#C39C8C"/>
<path d="M13.1096 69.6881C13.2365 69.6881 13.3633 69.6881 13.4939 69.6881C13.49 69.8622 13.486 70.0363 13.4819 70.2157C13.4918 70.7292 13.5365 71.1212 13.6861 71.6066C13.4959 71.6699 13.3056 71.7332 13.1096 71.7984C12.948 71.0276 12.9071 70.452 13.1096 69.6881Z" fill="#BA8D7E"/>
<path d="M78.0563 58.5612C78.1831 58.6245 78.3099 58.6878 78.4406 58.753C77.7693 59.4429 77.0742 60.0642 76.3269 60.6715C76.6265 59.9373 77.1016 59.4858 77.672 58.9448C77.7988 58.8182 77.9256 58.6916 78.0563 58.5612Z" fill="#1F100C"/>
<path d="M1.58042 45.5156C1.64383 45.5156 1.70724 45.5156 1.77257 45.5156C1.87893 47.726 1.87893 47.726 1.19612 48.777C0.918049 48.0342 1.09155 47.468 1.28019 46.7147C1.33542 46.4901 1.39066 46.2656 1.44757 46.0342C1.49141 45.8631 1.53525 45.6919 1.58042 45.5156Z" fill="#6CD1B7"/>
<path d="M54.2297 41.8706C54.2931 41.9972 54.3566 42.1238 54.4219 42.2543C54.6755 42.1277 54.9292 42.0011 55.1905 41.8706C55.3912 42.4718 55.37 42.636 55.1905 43.2135C54.7101 42.9737 54.7101 42.9737 54.2297 42.638C54.2297 42.3848 54.2297 42.1315 54.2297 41.8706Z" fill="#BE9483"/>
<path d="M107.647 23.4535C108.092 23.4655 108.092 23.4655 108.608 23.6453C108.968 24.3048 108.968 24.3048 109.185 24.9883C109.121 25.1149 109.058 25.2415 108.993 25.3719C108.768 25.0886 108.544 24.8047 108.32 24.5206C108.195 24.3626 108.07 24.2046 107.942 24.0418C107.647 23.6453 107.647 23.6453 107.647 23.4535Z" fill="#DBFCF8"/>
<path d="M57.6883 10.0243C57.8785 10.1509 58.0688 10.2775 58.2648 10.408C58.1258 10.5259 58.1258 10.5259 57.984 10.6463C57.8627 10.7497 57.7413 10.853 57.6162 10.9595C57.4959 11.0619 57.3755 11.1643 57.2515 11.2698C57.0046 11.4851 56.7672 11.7113 56.5354 11.9427C56.5354 11.1754 56.5354 11.1754 56.7876 10.8486C56.8946 10.7507 57.0016 10.6528 57.1119 10.5519C57.2724 10.402 57.2724 10.402 57.4361 10.2491C57.5193 10.1749 57.6026 10.1007 57.6883 10.0243Z" fill="#071604"/>
<path d="M87.2795 6.57104C87.9602 6.83309 88.6104 7.12918 89.2611 7.45833C89.5156 7.58668 89.5156 7.58668 89.7752 7.71762C89.9028 7.78241 90.0304 7.8472 90.1618 7.91396C89.3526 8.18325 88.9945 7.88696 88.2403 7.53027C88.0897 7.46696 87.9391 7.40365 87.7839 7.33843C87.4717 7.14658 87.4717 7.14658 87.2795 6.57104Z" fill="#64CFB1"/>
<path d="M72.4838 118.609C72.4838 118.735 72.4838 118.862 72.4838 118.992C71.8526 119.202 71.3815 119.203 70.7184 119.196C70.4052 119.194 70.4052 119.194 70.0857 119.191C69.9259 119.189 69.7662 119.186 69.6016 119.184C69.6016 119.121 69.6016 119.058 69.6016 118.992C69.9377 118.928 70.274 118.864 70.6104 118.8C70.7976 118.765 70.9849 118.729 71.1778 118.693C71.7152 118.609 71.7152 118.609 72.4838 118.609Z" fill="#D8FAF4"/>
<path d="M89.7775 112.086C89.7775 112.213 89.7775 112.339 89.7775 112.47C89.5873 112.47 89.397 112.47 89.201 112.47C89.1376 112.66 89.0742 112.849 89.0089 113.045C88.5025 113.318 88.203 113.461 87.6316 113.342C87.4573 113.29 87.4573 113.29 87.2795 113.237C87.6233 113.044 87.9677 112.853 88.3123 112.661C88.5041 112.555 88.6958 112.448 88.8933 112.338C89.3932 112.086 89.3932 112.086 89.7775 112.086Z" fill="#DCFCF7"/>
<path d="M8.69019 90.9829C8.817 90.9829 8.94382 90.9829 9.07449 90.9829C9.07449 91.1095 9.07449 91.2361 9.07449 91.3666C9.2013 91.3666 9.32812 91.3666 9.45879 91.3666C9.5222 91.5565 9.5856 91.7465 9.65094 91.9421C9.84116 92.0688 10.0314 92.1954 10.2274 92.3258C10.2634 92.8294 10.2634 92.8294 10.2274 93.2851C9.73907 92.8433 9.44512 92.3885 9.13453 91.8102C9.05056 91.6552 8.9666 91.5001 8.88008 91.3404C8.81742 91.2224 8.75475 91.1044 8.69019 90.9829Z" fill="#63CDB0"/>
<path d="M35.2068 87.146C36.0311 87.3992 36.8554 87.6525 37.7047 87.9134C37.6413 88.04 37.5779 88.1666 37.5126 88.2971C37.1636 88.2161 36.8155 88.1315 36.4678 88.0453C36.2738 87.9985 36.0799 87.9518 35.8801 87.9036C35.6419 87.8135 35.6419 87.8135 35.3989 87.7215C35.3355 87.5316 35.2721 87.3417 35.2068 87.146Z" fill="#1D0D09"/>
<path d="M90.1617 39.3766C90.0349 39.5032 89.9081 39.6299 89.7774 39.7603C89.3616 39.7139 89.3616 39.7139 88.8888 39.5925C88.7317 39.5534 88.5747 39.5143 88.4129 39.474C88.2925 39.4419 88.1721 39.4098 88.0481 39.3766C88.0481 39.25 88.0481 39.1234 88.0481 38.9929C88.8649 38.6341 89.4106 39.0161 90.1617 39.3766Z" fill="#50BEA1"/>
<path d="M73.4446 31.7028C73.7121 32.5039 73.4107 32.8797 73.0603 33.6212C72.8442 33.2975 72.8442 33.2975 72.676 32.8538C72.8201 32.3382 72.8201 32.3382 73.0603 31.8946C73.1871 31.8313 73.314 31.768 73.4446 31.7028Z" fill="#9BD07F"/>
<path d="M69.7938 5.22818C69.7304 5.41811 69.667 5.60803 69.6017 5.80372C68.4603 5.61379 68.4603 5.61379 67.2959 5.42003C67.2959 5.35672 67.2959 5.29341 67.2959 5.22818C67.5679 5.19047 67.8402 5.15492 68.1125 5.12027C68.2641 5.10024 68.4157 5.08021 68.5719 5.05957C69.0263 5.03628 69.3617 5.09459 69.7938 5.22818Z" fill="#45B595"/>
<path d="M119.176 69.4962C119.24 69.4962 119.303 69.4962 119.368 69.4962C119.374 69.8719 119.377 70.2476 119.38 70.6233C119.383 70.8325 119.385 71.0417 119.387 71.2573C119.368 71.7984 119.368 71.7984 119.176 72.182C119.049 72.182 118.923 72.182 118.792 72.182C118.901 71.2822 119.02 70.3893 119.176 69.4962Z" fill="#D4FAF4"/>
<path d="M84.5894 65.0839C84.7162 65.1472 84.8431 65.2105 84.9737 65.2757C84.5288 65.9896 84.1502 66.5442 83.4365 67.0023C83.5468 66.3638 83.7428 66.1009 84.2051 65.6594C84.2051 65.5328 84.2051 65.4062 84.2051 65.2757C84.3319 65.2124 84.4588 65.1491 84.5894 65.0839Z" fill="#200E0A"/>
<path d="M75.3662 63.741C75.85 63.9825 75.9287 64.1996 76.1708 64.6762C76.2409 64.8102 76.311 64.9443 76.3833 65.0824C76.5191 65.4676 76.5191 65.4676 76.327 66.0431C76.2001 65.9798 76.0733 65.9165 75.9427 65.8513C75.9427 65.6613 75.9427 65.4714 75.9427 65.2757C75.8158 65.2124 75.689 65.1491 75.5584 65.0839C75.4801 64.6385 75.4153 64.1905 75.3662 63.741Z" fill="#B58E81"/>
<path d="M69.6016 62.5898C69.665 62.5898 69.7284 62.5898 69.7937 62.5898C69.6256 64.0527 69.6256 64.0527 69.4094 64.7001C69.2826 64.7001 69.1558 64.7001 69.0251 64.7001C69.0886 64.1304 69.152 63.5606 69.2173 62.9735C69.3441 62.9735 69.4709 62.9735 69.6016 62.9735C69.6016 62.8469 69.6016 62.7203 69.6016 62.5898Z" fill="#BB9181"/>
<path d="M105.726 60.8633C105.853 60.9266 105.979 60.9899 106.11 61.0551C106.088 61.367 106.064 61.6788 106.038 61.9904C106.018 62.2508 106.018 62.2508 105.998 62.5164C105.918 62.9736 105.918 62.9736 105.534 63.3573C105.426 62.9856 105.426 62.9856 105.342 62.5899C105.405 62.5266 105.468 62.4633 105.534 62.398C105.578 62.1395 105.613 61.8793 105.642 61.6187C105.67 61.3694 105.697 61.1201 105.726 60.8633Z" fill="#C69B8C"/>
<path d="M83.6287 58.7529C84.1978 58.8705 84.4704 58.9935 84.9737 59.3285C85.1058 59.928 85.1058 59.928 85.1659 60.4795C85.0192 60.3292 84.8726 60.1788 84.7215 60.0239C84.2226 59.5064 84.2226 59.5064 83.6287 59.1366C83.6287 59.01 83.6287 58.8834 83.6287 58.7529Z" fill="#BC9486"/>
<path d="M13.4939 55.2997C13.6207 55.2997 13.7475 55.2997 13.8782 55.2997C14.1601 56.0316 13.9615 56.5064 13.6861 57.2181C13.6226 57.2181 13.5592 57.2181 13.4939 57.2181C13.4566 56.9345 13.4209 56.6507 13.3858 56.3668C13.3658 56.2088 13.3457 56.0508 13.325 55.888C13.3173 55.7571 13.3097 55.6263 13.3018 55.4915C13.3652 55.4282 13.4286 55.3649 13.4939 55.2997Z" fill="#4CC4A5"/>
<path d="M74.4055 53.1895C74.4689 53.3794 74.5323 53.5693 74.5977 53.765C75.0007 53.9612 75.0007 53.9612 75.4744 54.0887C75.6331 54.137 75.7919 54.1852 75.9555 54.2349C76.1394 54.2872 76.1394 54.2872 76.327 54.3405C76.327 54.4038 76.327 54.4671 76.327 54.5324C75.0973 54.6032 75.0973 54.6032 74.5136 54.2446C74.4145 54.1496 74.3155 54.0547 74.2134 53.9568C74.2768 53.7036 74.3402 53.4504 74.4055 53.1895Z" fill="#291812"/>
<path d="M108.608 48.0096C109.208 48.0743 109.496 48.1288 109.929 48.5612C110.001 48.6957 110.072 48.8303 110.145 48.9689C110.082 49.1588 110.019 49.3487 109.953 49.5444C109.728 49.3252 109.504 49.1052 109.281 48.8849C109.156 48.7625 109.031 48.6401 108.902 48.514C108.608 48.2015 108.608 48.2015 108.608 48.0096Z" fill="#52C2A2"/>
<path d="M89.7773 43.0216C90.0497 43.0437 90.3219 43.0681 90.594 43.0935C90.7456 43.1069 90.8972 43.1203 91.0533 43.134C91.5232 43.2163 91.8619 43.3642 92.2753 43.5971C92.2753 43.7238 92.2753 43.8504 92.2753 43.9808C91.9667 43.8941 91.6585 43.8059 91.3506 43.717C91.0931 43.6436 91.0931 43.6436 90.8304 43.5687C90.3538 43.4053 90.3538 43.4053 89.7773 43.0216Z" fill="#271510"/>
<path d="M25.215 11.1754C24.5809 11.6185 23.9468 12.0617 23.2935 12.5183C23.2301 12.3917 23.1666 12.2651 23.1013 12.1346C23.2281 12.1346 23.355 12.1346 23.4856 12.1346C23.4856 11.9447 23.4856 11.7548 23.4856 11.5591C23.6758 11.5591 23.8661 11.5591 24.0621 11.5591C24.0621 11.4325 24.0621 11.3058 24.0621 11.1754C24.4464 10.9835 24.4464 10.9835 25.215 11.1754Z" fill="#DEFDFA"/>
<path d="M73.6367 7.91406C74.7416 8.24979 74.7416 8.24979 75.1739 8.68144C75.1019 9.08911 75.1019 9.08911 74.9818 9.44882C74.757 9.22958 74.533 9.00963 74.3092 8.78936C74.1844 8.66694 74.0596 8.54453 73.9309 8.41841C73.6367 8.10591 73.6367 8.10591 73.6367 7.91406Z" fill="#5DCFAE"/>
<path d="M56.9196 0.0483385C56.9196 0.111647 56.9196 0.174956 56.9196 0.240184C56.5392 0.303492 56.1587 0.366801 55.7667 0.432029C55.7667 0.558646 55.7667 0.685264 55.7667 0.815719C55.6399 0.815719 55.5131 0.815719 55.3824 0.815719C55.3824 0.689101 55.3824 0.562483 55.3824 0.432029C54.6849 0.432029 53.9874 0.432029 53.2688 0.432029C53.2688 0.36872 53.2688 0.305411 53.2688 0.240184C54.4912 0.114552 55.6906 0.0251858 56.9196 0.0483385Z" fill="#6ED4B8"/>
<path d="M22.9092 107.098C23.6284 107.555 24.2499 108.008 24.8307 108.633C24.3868 108.506 23.9429 108.379 23.4856 108.249C23.4856 108.059 23.4856 107.869 23.4856 107.673C23.2954 107.673 23.1052 107.673 22.9092 107.673C22.9092 107.484 22.9092 107.294 22.9092 107.098Z" fill="#DAFCF7"/>
<path d="M36.1675 90.791C36.8821 90.8883 37.4615 91.0051 38.089 91.3666C37.32 91.6737 36.7352 91.4227 35.9753 91.1747C36.0388 91.0481 36.1022 90.9215 36.1675 90.791Z" fill="#4FC8A5"/>
<path d="M102.075 87.5297C102.202 87.5297 102.329 87.5297 102.459 87.5297C102.459 87.9095 102.459 88.2894 102.459 88.6807C102.332 88.6807 102.206 88.6807 102.075 88.6807C102.075 88.8707 102.075 89.0606 102.075 89.2563C101.885 89.3196 101.695 89.3829 101.499 89.4481C101.689 88.815 101.879 88.1819 102.075 87.5297Z" fill="#4EBB9D"/>
<path d="M102.267 76.7864C102.651 77.3619 102.651 77.3619 102.519 78.0574C102.436 78.271 102.353 78.4847 102.267 78.7048C102.077 78.7681 101.887 78.8314 101.691 78.8967C101.881 78.2003 102.071 77.5039 102.267 76.7864Z" fill="#291712"/>
<path d="M53.0767 61.6306C53.2036 61.6939 53.3304 61.7572 53.461 61.8225C53.3342 62.5189 53.2074 63.2153 53.0767 63.9328C52.6924 63.5491 52.6924 63.5491 52.6902 63.1406C52.7107 62.9866 52.7313 62.8325 52.7525 62.6738C52.7716 62.5192 52.7906 62.3646 52.8103 62.2054C52.8846 61.8225 52.8846 61.8225 53.0767 61.6306Z" fill="#B69283"/>
<path d="M47.6964 45.3238C47.8233 45.4504 47.9501 45.577 48.0807 45.7075C47.1296 45.6442 46.1785 45.5809 45.1985 45.5156C45.1985 45.4523 45.1985 45.389 45.1985 45.3238C46.0869 45.1291 46.8053 45.1356 47.6964 45.3238Z" fill="#C59F8F"/>
<path d="M72.484 38.2256C72.932 38.2916 73.3803 38.3559 73.829 38.4174C73.4447 38.8011 73.4447 38.8011 73.0492 38.8101C72.8983 38.7913 72.7475 38.7725 72.5921 38.7531C72.3665 38.7279 72.3665 38.7279 72.1364 38.7022C71.7154 38.6093 71.7154 38.6093 71.1389 38.2256C71.6624 37.9642 71.915 38.0993 72.484 38.2256Z" fill="#26110D"/>
<path d="M72.6761 33.2375C72.8029 33.4275 72.9297 33.6174 73.0604 33.8131C72.8067 34.3196 72.5531 34.826 72.2918 35.3478C72.165 35.2845 72.0381 35.2212 71.9075 35.156C71.9795 34.5925 71.9795 34.5925 72.0996 34.0049C72.2264 33.9416 72.3533 33.8783 72.4839 33.8131C72.5473 33.6232 72.6107 33.4332 72.6761 33.2375Z" fill="#66A657"/>
<path d="M77.2876 30.3599C77.4144 30.3599 77.5412 30.3599 77.6719 30.3599C77.7901 31.3337 77.406 31.862 76.9033 32.662C76.6325 32.1214 76.8055 31.8615 76.9873 31.2951C77.0426 31.1205 77.0978 30.9459 77.1547 30.766C77.1986 30.632 77.2424 30.498 77.2876 30.3599Z" fill="#52BA9F"/>
<path d="M26.9444 24.6045C27.1365 25.18 27.1365 25.18 27.1365 25.9474C26.7561 26.074 26.3756 26.2006 25.9836 26.3311C26.2237 25.6675 26.4977 25.1518 26.9444 24.6045Z" fill="#071C17"/>
<path d="M37.1284 23.6453C37.8259 23.6453 38.5234 23.6453 39.2421 23.6453C39.1787 23.8352 39.1152 24.0251 39.0499 24.2208C38.7655 24.199 38.4813 24.1745 38.1973 24.1489C38.039 24.1355 37.8807 24.1221 37.7176 24.1084C37.5866 24.0822 37.4556 24.056 37.3206 24.029C37.2572 23.9023 37.1937 23.7757 37.1284 23.6453Z" fill="#51C0A0"/>
<path d="M89.0089 20.9595C89.0723 21.2127 89.1357 21.4659 89.201 21.7269C89.0742 21.7269 88.9474 21.7269 88.8167 21.7269C88.7692 21.8456 88.7216 21.9643 88.6726 22.0866C88.3901 22.5661 88.1607 22.6541 87.6638 22.8779C87.8517 22.594 88.0399 22.3102 88.2283 22.0266C88.333 21.8686 88.4378 21.7106 88.5458 21.5477C88.8167 21.1513 88.8167 21.1513 89.0089 20.9595Z" fill="#D9FAF6"/>
<path d="M55.5748 7.72217C55.7016 7.72217 55.8284 7.72217 55.9591 7.72217C55.8523 8.41263 55.623 8.68122 55.0824 9.11304C54.9593 9.21295 54.8362 9.31286 54.7093 9.4158C54.6145 9.48999 54.5196 9.56418 54.4219 9.64062C54.4853 9.32407 54.5487 9.00753 54.614 8.68139C54.8043 8.68139 54.9945 8.68139 55.1905 8.68139C55.1905 8.55478 55.1905 8.42816 55.1905 8.2977C55.3173 8.2977 55.4441 8.2977 55.5748 8.2977C55.5748 8.10778 55.5748 7.91785 55.5748 7.72217Z" fill="#59C4A8"/>
<path d="M58.457 5.42004C59.0911 5.48335 59.7252 5.54666 60.3785 5.61189C59.8625 6.1271 59.3455 6.19903 58.6492 6.37927C58.5858 6.06272 58.5224 5.74618 58.457 5.42004Z" fill="#50C2A3"/>
<path d="M79.9776 2.35046C80.0054 2.46917 80.0331 2.58787 80.0617 2.71017C80.1566 3.1241 80.1566 3.1241 80.3619 3.50153C79.7278 3.31161 79.0937 3.12168 78.4404 2.926C78.4404 2.86269 78.4404 2.79938 78.4404 2.73415C79.5453 2.35046 79.5453 2.35046 79.9776 2.35046Z" fill="#D8FBF5"/>
<path d="M98.4241 97.5056C98.4875 97.5056 98.5509 97.5056 98.6163 97.5056C98.5263 98.2838 98.4473 98.9379 98.0398 99.6159C97.913 99.6159 97.7862 99.6159 97.6555 99.6159C97.7472 99.336 97.8394 99.0563 97.9317 98.7766C97.983 98.6208 98.0343 98.465 98.0871 98.3045C98.232 97.8893 98.232 97.8893 98.4241 97.5056Z" fill="#4AB597"/>
<path d="M67.488 96.5464C67.7684 96.5683 68.0486 96.5927 68.3287 96.6183C68.5628 96.6384 68.5628 96.6384 68.8016 96.6588C69.2174 96.7382 69.2174 96.7382 69.6017 97.1219C68.1743 97.1493 68.1743 97.1493 67.488 96.9301C67.488 96.8035 67.488 96.6768 67.488 96.5464Z" fill="#B49181"/>
<path d="M111.682 90.2156C111.746 90.4688 111.809 90.722 111.875 90.983C111.811 91.0463 111.748 91.1096 111.682 91.1748C111.682 91.3647 111.682 91.5547 111.682 91.7503C111.365 91.8136 111.048 91.877 110.722 91.9422C111.039 91.3724 111.356 90.8026 111.682 90.2156Z" fill="#DAF9F3"/>
<path d="M64.4136 69.3044C64.6605 70.2904 64.4563 70.5281 64.0293 71.4147C63.8391 71.3514 63.6489 71.2881 63.4529 71.2229C63.7699 70.5898 64.087 69.9567 64.4136 69.3044Z" fill="#2C0909"/>
<path d="M19.2583 49.5444C19.3852 49.6077 19.512 49.6711 19.6426 49.7363C19.5469 50.4437 19.4311 50.8116 18.874 51.271C18.8106 51.1444 18.7472 51.0178 18.6819 50.8873C18.8617 50.4346 19.0534 49.9864 19.2583 49.5444Z" fill="#B28F7F"/>
<path d="M20.219 46.4749C20.3458 46.6015 20.4727 46.7281 20.6033 46.8585C20.535 47.507 20.3426 48.0178 20.0269 48.5851C19.9001 48.5851 19.7732 48.5851 19.6426 48.5851C19.8328 47.8888 20.023 47.1924 20.219 46.4749Z" fill="#AB8979"/>
<path d="M46.7358 39.3766C46.8627 39.3766 46.9895 39.3766 47.1201 39.3766C47.1201 39.5032 47.1201 39.6298 47.1201 39.7603C47.247 39.7603 47.3738 39.7603 47.5044 39.7603C47.8287 40.108 47.8287 40.108 48.0809 40.5277C48.0175 40.7176 47.9541 40.9075 47.8887 41.1032C47.6955 40.8884 47.5036 40.6723 47.3123 40.4557C47.2053 40.3355 47.0983 40.2153 46.988 40.0915C46.7358 39.7603 46.7358 39.7603 46.7358 39.3766Z" fill="#1C0C08"/>
<path d="M96.6949 100.575C96.8217 100.575 96.9485 100.575 97.0792 100.575C96.8374 101.44 96.5212 102.012 95.9263 102.685C95.8629 102.496 95.7995 102.306 95.7341 102.11C95.9802 101.782 96.2371 101.463 96.5027 101.151C96.5661 100.961 96.6295 100.771 96.6949 100.575Z" fill="#032015"/>
<path d="M9.07446 91.7502C9.58341 92.3635 10.0237 92.9771 10.4195 93.6687C10.0352 93.4768 9.65091 93.285 9.26661 93.0932C9.18835 92.6478 9.12358 92.1998 9.07446 91.7502Z" fill="#D7FBF5"/>
<path d="M98.6162 87.3379C98.7431 87.3379 98.8699 87.3379 99.0005 87.3379C98.7152 88.3825 98.7152 88.3825 98.4241 89.4482C98.3607 89.4482 98.2973 89.4482 98.2319 89.4482C98.2589 89.1324 98.2872 88.8166 98.316 88.501C98.3316 88.3251 98.3472 88.1493 98.3633 87.9681C98.4241 87.5297 98.4241 87.5297 98.6162 87.3379Z" fill="#BA9686"/>
<path d="M21.7563 85.6112C22.7075 85.9911 22.7075 85.9911 23.6778 86.3786C23.6144 86.5052 23.551 86.6318 23.4857 86.7623C22.8933 86.5323 22.3207 86.2871 21.7563 85.9949C21.7563 85.8683 21.7563 85.7417 21.7563 85.6112Z" fill="#54C6A8"/>
<path d="M9.07431 77.7456C9.13772 77.7456 9.20113 77.7456 9.26646 77.7456C9.32195 77.9276 9.37743 78.1096 9.43459 78.2972C9.60623 78.9067 9.60623 78.9067 10.0351 79.2804C9.96301 79.688 9.96301 79.688 9.84291 80.0477C9.2301 79.2447 8.97742 78.7613 9.07431 77.7456Z" fill="#01180F"/>
<path d="M110.145 54.916C110.209 54.916 110.272 54.916 110.337 54.916C110.401 55.739 110.464 56.562 110.53 57.41C110.339 57.5366 110.149 57.6632 109.953 57.7937C110.017 56.8441 110.08 55.8944 110.145 54.916Z" fill="#479F87"/>
<path d="M85.5502 52.0383C85.4233 52.2916 85.2965 52.5448 85.1659 52.8057C84.722 52.7424 84.2781 52.6791 83.8208 52.6139C84.4213 52.2142 84.8337 52.0383 85.5502 52.0383ZM84.5894 52.8057C84.7162 52.869 84.843 52.9323 84.9737 52.9976C84.7835 52.9976 84.5932 52.9976 84.3973 52.9976C84.4607 52.9342 84.5241 52.8709 84.5894 52.8057Z" fill="#B58B7A"/>
<path d="M85.358 48.9688C85.0298 49.3729 84.8735 49.5325 84.347 49.6006C84.1932 49.5939 84.0394 49.5872 83.8809 49.5803C83.6479 49.5725 83.6479 49.5725 83.4103 49.5646C83.2331 49.5546 83.2331 49.5546 83.0522 49.5444C83.8624 49.0051 84.403 48.9476 85.358 48.9688Z" fill="#342019"/>
<path d="M100.73 47.4341C101.237 47.624 101.745 47.8139 102.267 48.0096C102.204 48.1362 102.14 48.2629 102.075 48.3933C101.631 48.33 101.187 48.2667 100.73 48.2015C100.73 47.9482 100.73 47.695 100.73 47.4341Z" fill="#BE9784"/>
<path d="M96.3106 106.522C96.911 106.594 96.911 106.594 97.4635 106.714C97.2157 106.978 96.9587 107.234 96.6949 107.482C96.5681 107.482 96.4412 107.482 96.3106 107.482C96.3106 107.355 96.3106 107.228 96.3106 107.098C96.1838 107.035 96.0569 106.971 95.9263 106.906C96.0531 106.779 96.1799 106.653 96.3106 106.522Z" fill="#56D0AE"/>
<path d="M15.7996 100.383C16.2439 100.419 16.2439 100.419 16.7603 100.575C17.1849 101.131 17.3368 101.406 17.3368 102.11C17.08 101.859 16.8239 101.607 16.5682 101.355C16.4255 101.214 16.2828 101.074 16.1358 100.93C15.7996 100.575 15.7996 100.575 15.7996 100.383Z" fill="#5EC9AB"/>
<path d="M37.3206 87.7216C38.748 87.6667 38.748 87.6667 39.4342 88.1052C39.4342 88.2319 39.4342 88.3585 39.4342 88.4889C39.1536 88.4348 38.8735 88.3784 38.5936 88.3211C38.4375 88.2899 38.2815 88.2587 38.1207 88.2266C37.7049 88.1052 37.7049 88.1052 37.3206 87.7216Z" fill="#B78F80"/>
<path d="M9.07446 78.8967C9.53307 79.4651 9.98436 80.0368 10.4195 80.6233C10.2293 80.6233 10.0391 80.6233 9.84306 80.6233C9.23237 79.9962 9.07446 79.7942 9.07446 78.8967Z" fill="#54BEA1"/>
<path d="M56.9197 60.6714C57.1733 60.6714 57.427 60.6714 57.6883 60.6714C57.6883 60.798 57.6883 60.9246 57.6883 61.0551C57.4981 61.1817 57.3078 61.3083 57.1119 61.4388C56.9728 61.8338 56.9728 61.8338 56.9197 62.2061C56.7929 62.2061 56.6661 62.2061 56.5354 62.2061C56.7035 61.103 56.7035 61.103 56.9197 60.6714Z" fill="#9E554D"/>
<path d="M89.7774 25.1801C89.8408 25.37 89.9042 25.5599 89.9696 25.7556C89.6284 26.4251 89.3467 26.953 88.8167 27.4822C88.8167 26.688 88.8789 26.5257 89.297 25.8995C89.3862 25.764 89.4754 25.6284 89.5672 25.4888C89.6366 25.3869 89.7059 25.285 89.7774 25.1801Z" fill="#64CFB0"/>
<path d="M76.5191 1.77502C76.5825 1.90164 76.6459 2.02826 76.7112 2.15871C77.1551 2.15871 77.599 2.15871 78.0563 2.15871C78.0563 2.34864 78.0563 2.53857 78.0563 2.73425C77.3588 2.54432 76.6613 2.3544 75.9426 2.15871C76.1329 2.0321 76.3231 1.90548 76.5191 1.77502Z" fill="#D8FBF6"/>
<path d="M68.833 0.623901C69.6238 0.715007 70.248 0.81978 70.9467 1.19944C70.6665 1.20462 70.3862 1.20834 70.106 1.21143C69.95 1.21365 69.7939 1.21588 69.6331 1.21817C69.2173 1.19944 69.2173 1.19944 68.833 1.00759C68.833 0.880974 68.833 0.754356 68.833 0.623901Z" fill="#5CCEAD"/>
<path d="M100.346 92.5177C100.536 92.581 100.726 92.6443 100.922 92.7095C100.795 93.1527 100.669 93.5959 100.538 94.0525C100.411 93.9258 100.284 93.7992 100.154 93.6688C100.226 93.0693 100.226 93.0693 100.346 92.5177Z" fill="#51C1A1"/>
<path d="M62.6841 71.6066C62.811 71.6066 62.9378 71.6066 63.0684 71.6066C63.0346 72.0631 62.9345 72.3168 62.6068 72.6385C62.3178 72.8768 62.021 73.1056 61.7234 73.3332C62.0115 72.7358 62.3155 72.1586 62.6841 71.6066Z" fill="#B35A5B"/>
<path d="M65.9507 64.7002C66.0141 64.7002 66.0775 64.7002 66.1429 64.7002C66.1789 65.3477 66.1789 65.3477 66.1429 66.0431C65.9526 66.1697 65.7624 66.2963 65.5664 66.4268C65.7345 64.916 65.7345 64.916 65.9507 64.7002Z" fill="#2C0C0A"/>
<path d="M65.3743 60.0958C66.6713 60.2397 66.6713 60.2397 67.1036 60.6714C66.7232 60.7347 66.3427 60.798 65.9507 60.8632C65.9507 60.6733 65.9507 60.4834 65.9507 60.2877C65.7605 60.351 65.5703 60.4143 65.3743 60.4795C65.3743 60.3529 65.3743 60.2263 65.3743 60.0958Z" fill="#251410"/>
<path d="M84.013 52.8058C83.8228 53.0907 83.8228 53.0907 83.6287 53.3813C83.2564 53.3094 83.2564 53.3094 82.8601 53.1895C82.7967 53.0628 82.7333 52.9362 82.668 52.8058C83.1804 52.55 83.4686 52.677 84.013 52.8058Z" fill="#B89182"/>
<path d="M100.154 46.6667C100.534 46.8567 100.915 47.0466 101.306 47.2423C101.306 47.3689 101.306 47.4955 101.306 47.626C100.736 47.436 100.165 47.2461 99.5771 47.0504C99.7674 46.9238 99.9576 46.7972 100.154 46.6667Z" fill="#20100C"/>
<path d="M55.1905 43.4054C55.5748 43.6092 55.5748 43.6092 55.9591 43.9809C56.0071 44.6884 56.0071 44.6884 55.9591 45.3238C55.8956 45.3238 55.8322 45.3238 55.7669 45.3238C55.7431 45.1695 55.7193 45.0152 55.6948 44.8562C55.6552 44.694 55.6156 44.5318 55.5748 44.3646C55.4479 44.3013 55.3211 44.238 55.1905 44.1728C55.1905 44.0462 55.1905 43.9195 55.1905 43.7891C55.0636 43.7258 54.9368 43.6625 54.8062 43.5972C54.933 43.5339 55.0598 43.4706 55.1905 43.4054Z" fill="#2B1A16"/>
<path d="M103.42 31.5109C103.42 31.5742 103.42 31.6375 103.42 31.7027C103.076 31.8043 102.732 31.9039 102.387 32.0025C102.1 32.086 102.1 32.086 101.806 32.1711C101.306 32.2783 101.306 32.2783 100.922 32.0864C101.797 31.575 102.409 31.4503 103.42 31.5109Z" fill="#BDF1E6"/>
<path d="M16.9525 18.0818C17.0159 18.2717 17.0793 18.4616 17.1446 18.6573C16.5739 19.1321 16.5739 19.1321 15.9917 19.6165C15.8649 19.5532 15.7381 19.4899 15.6074 19.4247C16.0513 18.9815 16.4952 18.5384 16.9525 18.0818Z" fill="#61CDAE"/>
<path d="M55.1905 8.87329C55.2539 8.99991 55.3173 9.12653 55.3827 9.25698C55.1185 9.64067 55.1185 9.64067 54.8062 10.0244C54.6794 10.0244 54.5526 10.0244 54.4219 10.0244C54.3585 10.2143 54.2951 10.4042 54.2298 10.5999C54.1029 10.5366 53.9761 10.4733 53.8455 10.4081C54.2893 9.90158 54.7332 9.39511 55.1905 8.87329Z" fill="#022117"/>
<path d="M87.2795 6.37927C87.5332 6.37927 87.7868 6.37927 88.0481 6.37927C88.0481 6.50589 88.0481 6.63251 88.0481 6.76296C88.2384 6.69965 88.4286 6.63634 88.6246 6.57112C88.7514 6.63443 88.8782 6.69774 89.0089 6.76296C89.0089 6.95289 89.0089 7.14282 89.0089 7.3385C88.2834 7.12925 87.7656 6.9724 87.2795 6.37927Z" fill="#D9F9F4"/>
<path d="M59.0334 94.4362C59.6041 94.4362 60.1748 94.4362 60.7628 94.4362C60.8262 94.6261 60.8896 94.816 60.9549 95.0117C60.3209 94.8851 59.6868 94.7585 59.0334 94.628C59.0334 94.5647 59.0334 94.5014 59.0334 94.4362Z" fill="#A38375"/>
<path d="M99.1928 86.5704C99.383 86.8237 99.5732 87.0769 99.7692 87.3378C99.5156 87.5911 99.262 87.8443 99.0006 88.1052C98.8085 87.7215 98.8085 87.7215 98.9886 87.122C99.0897 86.849 99.0897 86.849 99.1928 86.5704Z" fill="#271511"/>
<path d="M65.5665 73.525C65.6299 73.7783 65.6933 74.0315 65.7586 74.2924C65.5684 74.3874 65.5684 74.3874 65.3743 74.4842C65.1565 74.8711 65.1565 74.8711 64.99 75.2516C64.8632 75.1883 64.7364 75.125 64.6057 75.0598C64.8693 74.4931 65.18 74.0161 65.5665 73.525Z" fill="#B49083"/>
<path d="M12.7254 72.1821C12.7888 72.1821 12.8522 72.1821 12.9175 72.1821C12.9175 72.6886 12.9175 73.1951 12.9175 73.7169C12.7907 73.7169 12.6639 73.7169 12.5332 73.7169C12.4698 73.8435 12.4064 73.9701 12.3411 74.1006C12.5092 72.6138 12.5092 72.6138 12.7254 72.1821Z" fill="#B68F80"/>
<path d="M52.6924 71.7985C53.2084 72.3137 53.2805 72.8299 53.461 73.5251C53.2708 73.5251 53.0805 73.5251 52.8845 73.5251C52.8211 72.9553 52.7577 72.3855 52.6924 71.7985Z" fill="#B58C81"/>
<path d="M76.1349 51.0791C76.1349 51.1425 76.1349 51.2058 76.1349 51.271C75.9209 51.3303 75.7069 51.3897 75.4864 51.4508C74.8293 51.6208 74.8293 51.6208 74.4055 51.8465C74.4776 51.4748 74.4776 51.4748 74.5977 51.0791C75.1476 50.8046 75.5457 50.9641 76.1349 51.0791Z" fill="#B98F83"/>
<path d="M78.0562 38.801C78.5634 38.801 79.0707 38.801 79.5934 38.801C79.7202 39.0543 79.847 39.3075 79.9777 39.5684C79.3436 39.3785 78.7095 39.1886 78.0562 38.9929C78.0562 38.9296 78.0562 38.8663 78.0562 38.801Z" fill="#311D17"/>
<path d="M49.8103 38.4174C50.475 38.657 50.9914 38.9306 51.5397 39.3766C51.4762 39.5665 51.4128 39.7564 51.3475 39.9521C51.0907 39.733 50.8347 39.513 50.5789 39.2927C50.4362 39.1702 50.2936 39.0478 50.1466 38.9217C50.0356 38.8186 49.9246 38.7155 49.8103 38.6092C49.8103 38.5459 49.8103 38.4826 49.8103 38.4174Z" fill="#B29182"/>
<path d="M29.25 26.1393C29.3769 26.2026 29.5037 26.2659 29.6343 26.3311C29.1588 26.9959 29.1588 26.9959 28.6736 27.674C28.6102 27.4208 28.5468 27.1676 28.4814 26.9067C28.8537 26.475 28.8537 26.475 29.25 26.1393Z" fill="#210F0C"/>
<path d="M91.8911 9.06506C92.335 9.12837 92.7788 9.19168 93.2362 9.25691C93.2996 9.51014 93.363 9.76338 93.4283 10.0243C92.7798 9.79679 92.3432 9.5877 91.8911 9.06506Z" fill="#D8FAF4"/>
<path d="M71.9075 6.76294C72.9717 6.85739 72.9717 6.85739 73.4207 7.35046C73.5277 7.53446 73.5277 7.53446 73.6368 7.72216C73.5734 7.84878 73.51 7.9754 73.4447 8.10585C73.1879 7.91875 72.9318 7.73073 72.6761 7.54231C72.5334 7.4377 72.3907 7.33309 72.2437 7.22532C72.1328 7.13604 72.0218 7.04677 71.9075 6.95478C71.9075 6.89148 71.9075 6.82817 71.9075 6.76294Z" fill="#4DBC9C"/>
<path d="M30.9795 112.278C31.8545 112.207 31.8545 112.207 32.2885 112.565C32.3638 112.66 32.4391 112.755 32.5167 112.853C32.3265 112.917 32.1362 112.98 31.9402 113.045C31.4238 112.781 31.4238 112.781 30.9795 112.47C30.9795 112.406 30.9795 112.343 30.9795 112.278Z" fill="#67D0B4"/>
<path d="M25.023 108.633C25.5302 108.949 26.0375 109.266 26.5602 109.592C26.3065 109.655 26.0529 109.719 25.7916 109.784C25.7916 109.657 25.7916 109.531 25.7916 109.4C25.4745 109.337 25.1575 109.273 24.8308 109.208C24.8942 109.018 24.9576 108.828 25.023 108.633Z" fill="#DCFCF5"/>
<path d="M69.6016 97.3138C70.5527 97.5038 70.5527 97.5038 71.5231 97.6975C70.7545 98.0812 70.7545 98.0812 70.13 97.9134C69.9556 97.8421 69.7812 97.7709 69.6016 97.6975C69.6016 97.5709 69.6016 97.4443 69.6016 97.3138Z" fill="#2B1A15"/>
<path d="M7.34498 88.1052C7.4718 88.1685 7.59862 88.2318 7.72928 88.2971C7.72928 88.5503 7.72928 88.8035 7.72928 89.0644C7.8561 89.0644 7.98292 89.0644 8.11358 89.0644C8.05017 89.3177 7.98676 89.5709 7.92143 89.8318C7.66779 89.3254 7.41416 88.8189 7.15283 88.2971C7.21624 88.2338 7.27965 88.1705 7.34498 88.1052Z" fill="#5FCFAF"/>
<path d="M86.5108 50.1199C86.8463 50.6224 86.9695 50.8946 87.0872 51.4628C86.8336 51.5261 86.5799 51.5894 86.3186 51.6546C86.382 51.1482 86.4454 50.6417 86.5108 50.1199Z" fill="#C09A87"/>
<path d="M50.3867 43.5972C51.0887 43.8369 51.3053 43.9177 51.7318 44.5564C51.1553 44.5564 51.1553 44.5564 50.735 44.1847C50.3867 43.789 50.3867 43.789 50.3867 43.5972Z" fill="#B79284"/>
<path d="M21.3721 43.4054C21.4989 43.532 21.6257 43.6586 21.7564 43.7891C21.6885 44.2232 21.569 44.547 21.3721 44.9402C21.2453 44.9402 21.1185 44.9402 20.9878 44.9402C21.1146 44.4337 21.2414 43.9272 21.3721 43.4054Z" fill="#AC8C7D"/>
<path d="M21.9485 41.8706C22.0753 41.8706 22.2021 41.8706 22.3328 41.8706C22.2694 42.3138 22.206 42.7569 22.1407 43.2135C21.9504 43.2768 21.7602 43.3401 21.5642 43.4054C21.691 42.8989 21.8178 42.3924 21.9485 41.8706Z" fill="#B99281"/>
<path d="M20.219 38.0337C20.3458 38.2236 20.4727 38.4135 20.6033 38.6092C20.0749 39.7363 20.0749 39.7363 19.6426 39.9521C19.8328 39.3191 20.023 38.686 20.219 38.0337Z" fill="#09291D"/>
<path d="M76.3269 33.6212C76.4538 33.6212 76.5806 33.6212 76.7112 33.6212C76.7112 33.8111 76.7112 34.0011 76.7112 34.1968C76.5844 34.1968 76.4576 34.1968 76.3269 34.1968C76.3269 34.5133 76.3269 34.8298 76.3269 35.156C76.1367 35.0927 75.9465 35.0294 75.7505 34.9641C75.9407 34.521 76.1309 34.0778 76.3269 33.6212Z" fill="#56AE97"/>
<path d="M24.0621 28.8251C24.1889 28.8884 24.3158 28.9517 24.4464 29.0169C24.1928 29.5234 23.9391 30.0299 23.6778 30.5517C23.6144 30.5517 23.551 30.5517 23.4857 30.5517C23.4147 29.4892 23.4147 29.4892 23.7739 29.0409C23.869 28.9697 23.9641 28.8985 24.0621 28.8251Z" fill="#57C0A3"/>
<path d="M28.0972 28.2496C28.4815 28.6333 28.4815 28.6333 28.4815 29.2089C28.1645 29.3355 27.8474 29.4621 27.5208 29.5925C27.881 28.6813 27.881 28.6813 28.0972 28.2496Z" fill="#B79283"/>
<path d="M11.3801 24.6045C11.7644 25.18 11.7644 25.18 11.7644 25.5637C11.5742 25.5637 11.384 25.5637 11.188 25.5637C11.1246 25.6903 11.0612 25.817 10.9958 25.9474C10.9958 25.18 10.9958 25.18 11.3801 24.6045Z" fill="#5ED0B0"/>
<path d="M101.883 16.9307C102.136 16.9307 102.39 16.9307 102.651 16.9307C102.651 17.0573 102.651 17.1839 102.651 17.3144C102.778 17.3144 102.905 17.3144 103.036 17.3144C102.972 17.5676 102.909 17.8208 102.844 18.0817C102.527 17.7019 102.209 17.322 101.883 16.9307Z" fill="#D3F8F2"/>
<path d="M28.0973 9.25697C26.9924 10.0243 26.9924 10.0243 26.5601 10.0243C26.6235 9.77111 26.6869 9.51788 26.7522 9.25697C27.3306 9.07774 27.4952 9.05658 28.0973 9.25697Z" fill="#DCFBF7"/>
</svg>
