<svg width="120" height="120" viewBox="0 0 120 120" fill="none" xmlns="http://www.w3.org/2000/svg">
<path d="M72.3963 7.21376C74.1897 8.58045 75.5411 10.3712 76.1414 12.5733C76.3887 15.1037 75.7389 17.1699 74.2527 19.2009C72.4445 21.3982 69.7165 22.7119 66.9209 23.1379C64.7466 23.3255 62.5186 23.2567 60.3897 22.7537C60.5022 25.3046 60.5022 25.3046 61.3502 27.5558C61.7686 27.5818 62.1879 27.5949 62.6071 27.603C62.8736 27.6091 63.1402 27.6152 63.4068 27.6214C63.5474 27.6243 63.6879 27.6273 63.8327 27.6303C67.3125 27.7062 70.7971 27.8373 74.2205 28.5162C74.2762 28.4003 74.3319 28.2844 74.3893 28.165C75.4118 26.1843 77.6725 24.7986 79.7409 24.117C83.1396 23.1605 86.4332 23.9479 89.4724 25.6072C90.4286 26.1594 91.2703 26.8123 92.0852 27.5558C92.2021 27.655 92.319 27.7543 92.4394 27.8566C94.7151 29.9202 96.6151 33.5405 96.8876 36.5836C96.8925 36.965 96.8928 37.3465 96.8898 37.7279C96.7668 40.401 96.7668 40.401 98.0041 42.6222C98.2973 42.8781 98.5906 43.1339 98.8851 43.3882C99.492 43.9851 99.9329 44.7077 100.393 45.4194C100.491 45.57 100.589 45.7206 100.689 45.8757C100.961 46.2985 101.23 46.7231 101.498 47.1482C101.624 47.3435 101.751 47.5389 101.881 47.7402C106.871 55.7942 108.807 67.2591 106.961 76.495C106.878 76.9116 106.806 77.3291 106.735 77.7478C105.895 82.3336 103.825 86.7889 101.114 90.5588C100.893 90.8652 100.893 90.8652 100.669 91.1779C96.86 96.3121 91.6987 100.001 85.9382 102.66C85.7129 102.765 85.7129 102.765 85.4831 102.872C71.2902 109.397 52.5359 110.116 37.86 104.797C32.4011 102.735 27.5337 99.5646 23.3156 95.553C23.194 95.4416 23.0725 95.3301 22.9472 95.2153C17.8343 90.382 14.2714 82.9066 13.5188 75.9606C13.4927 75.7241 13.4927 75.7241 13.4661 75.4829C12.6618 67.5264 14.4626 58.973 19.6036 52.6428C20.05 52.1423 20.05 52.1423 20.4342 51.9502C20.8776 51.937 21.3175 51.9507 21.7609 51.9622C22.1746 51.9781 22.1746 51.9781 22.5473 51.7582C22.6106 51.568 22.674 51.3778 22.7393 51.1819C22.8661 51.1819 22.9929 51.1819 23.1235 51.1819C23.4808 50.4298 23.5353 50.1165 23.2796 49.3091C23.1639 49.0368 23.0479 48.7647 22.9314 48.4928C21.4917 44.607 21.438 39.7281 22.7393 35.8153C22.8292 35.5271 22.8292 35.5271 22.9209 35.2331C24.2655 31.2108 27.0897 27.8675 30.8634 25.9389C32.958 24.934 34.8908 24.6103 37.1944 24.5905C37.4808 24.5875 37.4808 24.5875 37.7729 24.5845C41.0187 24.6233 43.5963 26.0038 45.8941 28.2183C46.2849 28.6233 46.6122 29.0241 46.9432 29.4766C48.1006 29.2845 49.2578 29.0912 50.4144 28.8936C50.802 28.8278 51.1897 28.762 51.5774 28.6962C51.7708 28.6629 51.9642 28.6296 52.1635 28.5953C53.7205 28.3325 55.2769 28.0974 56.86 28.12C57.021 28.1217 57.1819 28.1235 57.3477 28.1252C57.4641 28.1275 57.5805 28.1297 57.7004 28.132C57.6588 27.9391 57.6172 27.7462 57.5744 27.5475C57.2265 25.8646 57.0443 24.2889 57.1241 22.5616C56.9661 22.6243 56.8082 22.6869 56.6454 22.7514C52.9893 24.1825 52.9893 24.1825 51.1692 24.2903C50.9835 24.3027 50.7978 24.3151 50.6064 24.3279C47.8791 24.426 45.4562 23.5261 43.4495 21.6732C41.421 19.5255 40.8445 17.2495 40.917 14.3958C41.0366 12.371 42.0333 10.8572 43.4855 9.49999C45.4161 7.78887 47.8658 7.40359 50.3668 7.53734C52.7188 7.77258 54.8828 8.98269 56.932 10.0762C57.0588 10.1396 57.1856 10.203 57.3162 10.2683C57.364 10.1586 57.4118 10.0489 57.461 9.93593C58.6378 7.79284 61.2091 6.37993 63.449 5.63583C66.5214 4.86409 69.8027 5.43329 72.3963 7.21376Z" fill="#95D870"/>
<path d="M59.7775 0.00391012C59.9826 0.00274173 60.1876 0.00157334 60.399 0.000369536C66.0208 -0.0205708 71.5104 0.849302 76.9098 2.39294C77.0401 2.42977 77.1704 2.4666 77.3047 2.50455C79.5395 3.1438 81.6812 3.99687 83.8252 4.89001C83.9618 4.9469 84.0983 5.00379 84.239 5.0624C86.3669 5.95323 88.363 6.99792 90.3564 8.15541C90.4901 8.23254 90.6238 8.30967 90.7615 8.38914C91.1637 8.62178 91.5646 8.85648 91.9652 9.09182C92.0921 9.16501 92.219 9.23821 92.3497 9.31363C92.6524 9.49306 92.9462 9.6873 93.2378 9.88416C93.2378 10.0109 93.2378 10.1377 93.2378 10.2683C93.3772 10.3198 93.5166 10.3713 93.6603 10.4244C94.1922 10.6499 94.6418 10.9098 95.1227 11.2287C95.2745 11.3278 95.4263 11.4268 95.5827 11.5289C95.7532 11.6655 95.7532 11.6655 95.9271 11.805C95.9271 11.9318 95.9271 12.0585 95.9271 12.1891C96.1281 12.2541 96.1281 12.2541 96.3331 12.3205C97.0096 12.629 97.5225 13.0602 98.0762 13.5457C98.1854 13.6399 98.2947 13.7341 98.4073 13.8311C99.2334 14.5458 100.049 15.2727 100.856 16.0083C101.155 16.2786 101.457 16.5458 101.761 16.8096C102.583 17.5219 103.329 18.2497 104.032 19.0801C104.422 19.5381 104.826 19.9808 105.232 20.4247C109.575 25.2464 113.414 31.2573 115.713 37.352C115.785 37.534 115.857 37.7159 115.932 37.9035C117.249 41.2416 118.203 44.6056 118.978 48.1086C119.028 48.3292 119.028 48.3292 119.078 48.5544C119.903 52.3046 120.013 56.144 119.999 59.9697C119.998 60.1713 119.998 60.3729 119.998 60.5806C119.988 63.6339 119.886 66.6074 119.363 69.6218C119.327 69.8394 119.292 70.0571 119.256 70.2813C118.778 73.1968 118.079 75.985 117.141 78.7818C117.097 78.9146 117.053 79.0474 117.007 79.1843C116.527 80.6055 116.002 81.9912 115.361 83.3487C115.139 83.8304 114.943 84.3161 114.752 84.8106C114.366 85.7872 113.909 86.7134 113.42 87.6416C113.285 87.8976 113.285 87.8976 113.148 88.1588C112.177 89.9833 111.087 91.7324 109.975 93.4743C109.751 93.8236 109.751 93.8236 109.566 94.2084C109.439 94.2084 109.312 94.2084 109.182 94.2084C109.107 94.37 109.107 94.37 109.03 94.5348C108.248 96.0209 107.074 97.3463 106.036 98.6623C105.935 98.7914 105.835 98.9205 105.731 99.0535C105.482 99.3667 105.22 99.6699 104.956 99.9709C104.829 99.9709 104.702 99.9709 104.571 99.9709C104.52 100.083 104.469 100.194 104.417 100.309C103.773 101.514 102.693 102.441 101.663 103.311C101.341 103.59 101.047 103.878 100.753 104.185C100.345 104.581 100.345 104.581 99.9611 104.581C99.9611 104.708 99.9611 104.834 99.9611 104.965C99.2994 105.589 98.5642 106.133 97.8481 106.694C97.7236 106.792 97.5991 106.89 97.4708 106.991C95.6722 108.405 93.851 109.735 91.8931 110.92C91.7674 110.996 91.6417 111.072 91.5122 111.151C89.6221 112.295 87.6981 113.369 85.7325 114.378C85.4915 114.502 85.2518 114.629 85.0135 114.758C83.8316 115.384 82.5814 115.79 81.316 116.214C79.6831 116.748 79.6831 116.748 78.0894 117.386C77.0219 117.84 75.8847 118.043 74.7555 118.292C74.1561 118.425 73.5581 118.564 72.9599 118.703C72.5037 118.806 72.0475 118.908 71.5912 119.011C71.3831 119.06 71.1749 119.109 70.9604 119.159C67.5427 119.912 64.0563 120.012 60.5686 119.998C59.9805 119.995 59.3924 119.998 58.8042 120C55.5159 120.003 52.2948 119.779 49.0682 119.119C48.8579 119.077 48.6476 119.035 48.4308 118.991C47.8063 118.865 47.1826 118.734 46.559 118.603C46.3814 118.567 46.2038 118.53 46.0208 118.493C39.2826 117.098 32.4436 114.105 26.8416 110.089C26.4168 109.787 25.9855 109.499 25.5487 109.215C23.8778 108.102 22.3246 106.894 20.8636 105.52C20.3304 105.02 19.7912 104.562 19.1976 104.137C18.5212 103.65 18.068 103.122 17.5528 102.468C17.1344 102.039 16.7092 101.619 16.2757 101.205C15.9904 100.929 15.7144 100.642 15.4398 100.355C15.4398 100.228 15.4398 100.101 15.4398 99.9709C15.313 99.9709 15.1862 99.9709 15.0556 99.9709C14.7869 99.6819 14.5335 99.3788 14.2872 99.0705C14.0566 98.7819 14.0566 98.7819 13.8213 98.4875C13.6563 98.2778 13.4914 98.0679 13.3268 97.858C13.2442 97.7533 13.1617 97.6486 13.0766 97.5407C10.2533 93.9517 10.2533 93.9517 10.2533 93.248C10.1265 93.248 9.99971 93.248 9.86909 93.248C9.65284 92.9495 9.65284 92.9495 9.41662 92.5307C9.32935 92.3777 9.24208 92.2248 9.15216 92.0672C9.01378 91.8197 9.01378 91.8197 8.8726 91.5673C8.68154 91.2311 8.49045 90.895 8.29932 90.5588C8.20634 90.3942 8.11336 90.2295 8.01756 90.0599C7.68363 89.4706 7.34245 88.886 6.99969 88.3019C6.89544 88.1223 6.79119 87.9428 6.68379 87.7579C6.52338 87.4844 6.36074 87.2121 6.19305 86.943C5.59725 85.9705 5.22714 84.9166 4.83216 83.8502C4.66527 83.4057 4.49303 82.9635 4.32013 82.5214C2.80673 78.6364 1.59082 74.7298 0.816671 70.6303C0.786183 70.4728 0.755695 70.3154 0.724283 70.1532C0.105145 66.7358 -0.00638003 63.3027 0.000272758 59.8376C0.000441063 59.6223 0.000609367 59.4069 0.000782772 59.1851C0.00946901 55.8073 0.169947 52.5794 0.840683 49.2611C0.908701 48.9069 0.908701 48.9069 0.978094 48.5456C1.89991 43.8174 3.24471 39.1555 5.45093 34.8549C5.57025 34.611 5.68904 34.3669 5.80736 34.1226C7.01763 31.6378 8.26511 29.0967 9.91411 26.8707C10.2184 26.4513 10.5033 26.0253 10.7875 25.5922C11.3883 24.6873 12.0337 23.8253 12.7025 22.9698C12.8193 22.8199 12.9362 22.6701 13.0566 22.5157C14.2745 20.9678 15.5817 19.5344 16.9766 18.1437C17.1996 17.9165 17.4224 17.6892 17.6451 17.4617C17.8825 17.2208 18.1199 16.9799 18.3572 16.7391C18.478 16.6152 18.5987 16.4912 18.723 16.3636C18.8388 16.2466 18.9546 16.1296 19.0738 16.009C19.1784 15.9025 19.2829 15.7959 19.3906 15.6862C19.6659 15.4546 19.6659 15.4546 20.0501 15.4546C20.0501 15.3278 20.0501 15.201 20.0501 15.0704C20.7117 14.446 21.4467 13.9018 22.1631 13.3416C22.2998 13.2343 22.4366 13.127 22.5775 13.0164C23.0185 12.6712 23.4609 12.3278 23.9039 11.9851C24.048 11.8728 24.1921 11.7606 24.3406 11.6449C24.4761 11.541 24.6115 11.4371 24.7511 11.33C24.9331 11.1896 24.9331 11.1896 25.1188 11.0464C25.4287 10.8446 25.4287 10.8446 25.8129 10.8446C25.8129 10.7178 25.8129 10.591 25.8129 10.4604C25.9633 10.3798 25.9633 10.3798 26.1168 10.2976C27.1591 9.72988 28.1538 9.11269 29.1408 8.45329C29.6832 8.13894 30.2077 7.94945 30.8073 7.77125C30.8073 7.64447 30.8073 7.5177 30.8073 7.38708C31.4193 7.0783 32.0317 6.77042 32.6442 6.46269C32.8162 6.3759 32.9882 6.28911 33.1653 6.1997C34.0978 5.7318 35.0296 5.28813 35.9938 4.89001C36.2051 4.80161 36.4163 4.71322 36.6339 4.62215C38.5078 3.85874 40.4041 3.1958 42.3329 2.58502C42.4692 2.54166 42.6054 2.4983 42.7457 2.45362C44.7127 1.8336 46.6928 1.32368 48.7219 0.952599C49.0803 0.887021 49.4382 0.818954 49.7957 0.748699C53.1209 0.111635 56.4007 0.0111586 59.7775 0.00391012ZM57.3163 9.88416C57.3163 10.0109 57.3163 10.1377 57.3163 10.2683C57.1167 10.1663 56.9171 10.0643 56.7115 9.95919C53.5301 8.34338 50.3005 6.78665 46.6551 7.81927C46.3645 7.92484 46.076 8.03651 45.7906 8.15541C45.6619 8.20444 45.5331 8.25347 45.4004 8.30398C43.33 9.19947 41.9883 10.8645 41.1601 12.9042C40.5834 15.0172 40.8225 17.5242 41.8482 19.4425C43.2925 21.8594 45.2161 23.3627 47.9157 24.1823C51.0954 24.6365 54.2351 23.9053 57.1242 22.5616C57.1175 22.7062 57.1108 22.8508 57.1039 22.9998C57.0586 24.7794 57.3275 26.4028 57.7004 28.132C57.5848 28.1292 57.4691 28.1264 57.3499 28.1236C56.1446 28.1073 54.9906 28.2002 53.7985 28.3721C53.6186 28.397 53.4386 28.422 53.2531 28.4477C51.7605 28.6617 50.2818 28.9364 48.8069 29.2494C48.57 29.298 48.57 29.298 48.3284 29.3475C48.1903 29.377 48.0522 29.4066 47.9099 29.437C47.4697 29.4816 47.1677 29.4298 46.7511 29.2845C46.4495 28.9836 46.4495 28.9836 46.1508 28.6002C44.3004 26.3988 41.7784 24.9183 38.8952 24.6162C38.3269 24.5907 37.7632 24.5846 37.1944 24.5905C36.9928 24.5922 36.7911 24.5939 36.5833 24.5957C32.4447 24.6874 29.0314 26.5224 26.1971 29.4766C24.0513 31.9054 22.8645 34.7986 22.1631 37.9282C22.1122 38.1544 22.1122 38.1544 22.0603 38.3852C21.4659 41.7346 21.9626 45.561 22.9935 48.7654C23.2778 49.65 23.425 50.2776 23.1236 51.1819C22.9968 51.1819 22.87 51.1819 22.7394 51.1819C22.676 51.3721 22.6126 51.5622 22.5473 51.7582C22.0062 51.8854 21.5688 51.9491 21.0105 51.9142C20.2522 51.9616 20.029 52.2071 19.4738 52.7186C16.6844 56.4392 15.0493 60.739 13.9031 65.2039C13.8678 65.3405 13.8325 65.4771 13.7961 65.6178C12.6256 70.3685 13.1027 75.9137 14.4793 80.5705C14.519 80.7088 14.5587 80.8471 14.5996 80.9896C15.6084 84.4305 17.1075 87.8835 19.2817 90.7509C19.3598 90.8554 19.438 90.9598 19.5185 91.0675C20.756 92.7147 22.0889 94.2524 23.5077 95.7451C23.6189 95.8664 23.7301 95.9877 23.8447 96.1127C28.1532 100.669 34.4686 103.772 40.3756 105.603C40.7838 105.73 41.1907 105.86 41.5976 105.991C52.3223 109.367 64.7487 108.623 75.5652 106.118C75.6951 106.088 75.8251 106.058 75.9589 106.028C81.1543 104.831 86.1797 102.945 90.7406 100.163C90.9436 100.04 91.1467 99.9163 91.3559 99.7893C97.7352 95.7129 102.455 89.9032 105.191 82.8722C105.313 82.5601 105.441 82.2504 105.571 81.9414C107.876 76.2073 107.912 69.507 107.069 63.4752C107.05 63.335 107.031 63.1948 107.012 63.0504C106.768 61.2453 106.383 59.4882 105.928 57.7247C105.882 57.5451 105.836 57.3655 105.788 57.1805C105.312 55.3954 104.684 53.6745 103.935 51.9863C103.877 51.8563 103.82 51.7263 103.76 51.5924C102.376 48.4978 100.723 45.1123 98.222 42.7404C97.4248 41.9638 96.9843 41.4062 96.9146 40.2745C96.9154 39.8725 96.9226 39.4705 96.9356 39.0687C96.9329 38.6402 96.9279 38.2118 96.9206 37.7834C96.9173 37.5771 96.9139 37.3708 96.9105 37.1583C96.7795 33.8707 95.0311 30.7146 92.8536 28.3241C92.705 28.1491 92.705 28.1491 92.5535 27.9707C90.2275 25.4064 86.6029 23.9669 83.2234 23.6593C80.409 23.5748 77.8674 24.587 75.7453 26.4273C75.1853 26.9583 74.6545 27.4904 74.2205 28.132C74.2205 28.2588 74.2205 28.3855 74.2205 28.5162C74.0445 28.4813 74.0445 28.4813 73.8648 28.4456C69.7375 27.69 65.5327 27.6495 61.3502 27.5558C60.7168 26.0065 60.524 24.4142 60.3898 22.7537C60.5071 22.7814 60.6245 22.8092 60.7454 22.8377C64.5479 23.6089 68.4495 23.3559 71.8336 21.3431C73.8738 19.9502 75.466 18.0128 76.0612 15.5724C76.4088 13.3992 76.0615 11.6491 74.8786 9.79412C73.185 7.48882 71.0353 6.11832 68.2656 5.46626C63.8762 4.88072 60.1669 6.49175 57.3163 9.88416Z" fill="#FD99CA"/>
<path d="M65.3831 48.5703C65.7684 48.6848 65.7684 48.6848 66.4452 48.9797C67.4668 49.3683 68.4688 49.3527 69.5502 49.3451C69.746 49.3489 69.9417 49.3527 70.1434 49.3567C71.2669 49.356 71.8469 49.3027 72.6837 48.4927C74.2102 48.1213 75.8618 48.7851 77.294 49.261C77.4185 49.3012 77.543 49.3413 77.6712 49.3827C79.6729 50.036 81.3403 50.9296 83.0568 52.1423C83.3287 52.3328 83.3287 52.3328 83.6061 52.5272C84.133 52.9041 84.6523 53.2892 85.1698 53.6789C85.2747 53.7575 85.3796 53.8362 85.4877 53.9171C86.5923 54.7467 87.6634 55.5655 88.6275 56.5602C88.7999 56.7303 88.9722 56.9004 89.1498 57.0756C91.0696 58.9765 91.0696 58.9765 91.701 59.8256C91.701 59.9523 91.701 60.0791 91.701 60.2097C91.8278 60.2097 91.9546 60.2097 92.0852 60.2097C92.3337 60.4875 92.3337 60.4875 92.615 60.8783C92.7703 61.093 92.7703 61.093 92.9289 61.312C93.0387 61.4673 93.1486 61.6225 93.2618 61.7824C93.3745 61.9406 93.4872 62.0988 93.6033 62.2618C95.5865 65.0676 97.2629 67.9642 98.3883 71.2185C98.4417 71.3683 98.495 71.5181 98.55 71.6724C99.5107 74.59 99.6685 77.6121 99.6414 80.6594C99.6369 81.2097 99.6375 81.7598 99.6388 82.3101C99.6312 87.926 99.6312 87.926 97.6559 90.1746C97.5247 90.3296 97.3935 90.4846 97.2582 90.6443C96.8261 91.1402 96.3801 91.6186 95.9271 92.0954C95.7916 92.2403 95.7916 92.2403 95.6533 92.3882C88.5653 99.9301 78.0327 103.033 68.0735 104.389C67.8117 104.425 67.8117 104.425 67.5447 104.462C64.5306 104.873 61.5651 105.057 58.5237 105.04C57.8672 105.037 57.211 105.04 56.5546 105.044C52.6852 105.048 48.9024 104.665 45.1303 103.788C45.0075 103.76 44.8846 103.732 44.7581 103.703C41.0331 102.844 37.4729 101.524 34.0729 99.7787C33.8797 99.6871 33.6866 99.5955 33.4876 99.5011C32.122 98.7941 31.6276 97.8831 30.9994 96.5133C30.8549 96.2455 30.8549 96.2455 30.7075 95.9724C29.8728 94.4192 29.3634 92.8231 28.8864 91.135C28.8289 90.9414 28.7715 90.7478 28.7123 90.5483C28.3083 89.0899 28.1536 87.6244 28.0084 86.1229C27.9522 85.4319 27.9522 85.4319 27.8271 85.0113C27.2202 82.3642 27.2516 77.501 28.5022 75.0001C28.5588 74.6607 28.61 74.3203 28.6582 73.9796C28.8699 72.6725 29.2432 71.4541 29.6547 70.198C29.7171 69.9814 29.7795 69.7647 29.8438 69.5415C30.9557 65.8475 32.9468 62.542 35.5579 59.722C35.8439 59.4118 36.1249 59.0967 36.3998 58.7766C37.2132 57.8338 38.0712 56.992 39.0193 56.188C39.1236 56.0995 39.2279 56.011 39.3354 55.9198C40.8784 54.6393 40.8784 54.6393 41.5645 54.6393C41.5645 54.5126 41.5645 54.3858 41.5645 54.2552C41.6782 54.1925 41.7919 54.1299 41.909 54.0653C42.1367 53.9394 42.1367 53.9394 42.3689 53.811C42.5284 53.7228 42.6879 53.6347 42.8522 53.5439C43.1606 53.3698 43.4635 53.1857 43.7616 52.9946C44.365 52.6562 44.9841 52.41 45.6293 52.1618C45.9974 52.019 46.3632 51.8697 46.7263 51.7146C49.0624 50.7445 52.2703 49.7132 54.819 50.2214C55.3188 50.5876 55.3188 50.5876 55.7795 50.9898C56.7647 51.6159 57.9229 51.4777 59.0451 51.3739C60.7099 50.9536 62.2641 49.9657 63.5833 48.8889C64.2697 48.4694 64.5986 48.4162 65.3831 48.5703Z" fill="#FEFEFE"/>
<path d="M72.3963 7.21376C74.1897 8.58045 75.5411 10.3712 76.1414 12.5733C76.3887 15.1037 75.7389 17.1699 74.2527 19.2009C72.4445 21.3982 69.7165 22.7119 66.9209 23.1379C64.7466 23.3255 62.5186 23.2567 60.3897 22.7537C60.5022 25.3046 60.5022 25.3046 61.3502 27.5558C61.7686 27.5818 62.1879 27.5949 62.6071 27.603C62.8736 27.6091 63.1402 27.6152 63.4068 27.6214C63.5474 27.6243 63.6879 27.6273 63.8327 27.6303C67.3125 27.7062 70.7971 27.8373 74.2205 28.5162C74.2762 28.4003 74.3319 28.2844 74.3893 28.165C75.4118 26.1843 77.6725 24.7986 79.7409 24.117C83.1396 23.1605 86.4332 23.9479 89.4724 25.6072C90.4286 26.1594 91.2703 26.8123 92.0852 27.5558C92.2021 27.655 92.319 27.7543 92.4394 27.8566C94.7151 29.9202 96.6151 33.5405 96.8876 36.5836C96.8925 36.965 96.8928 37.3465 96.8898 37.7279C96.7668 40.401 96.7668 40.401 98.0041 42.6222C98.2973 42.8781 98.5906 43.1339 98.8851 43.3882C99.492 43.9851 99.9329 44.7077 100.393 45.4194C100.491 45.57 100.589 45.7206 100.689 45.8757C100.961 46.2985 101.23 46.7231 101.498 47.1482C101.624 47.3435 101.751 47.5389 101.881 47.7402C106.871 55.7942 108.807 67.2591 106.961 76.495C106.878 76.9116 106.806 77.3291 106.735 77.7478C105.895 82.3336 103.825 86.7889 101.114 90.5588C100.893 90.8652 100.893 90.8652 100.669 91.1779C96.86 96.3121 91.6987 100.001 85.9382 102.66C85.7129 102.765 85.7129 102.765 85.4831 102.872C71.2902 109.397 52.5359 110.116 37.86 104.797C32.4011 102.735 27.5337 99.5646 23.3156 95.553C23.194 95.4416 23.0725 95.3301 22.9472 95.2153C17.8343 90.382 14.2714 82.9066 13.5188 75.9606C13.4927 75.7241 13.4927 75.7241 13.4661 75.4829C12.6618 67.5264 14.4626 58.973 19.6036 52.6428C20.1122 52.0726 20.2402 51.9713 20.9865 51.8902C21.5868 51.9502 21.5868 51.9502 22.043 52.2504C22.3746 52.7477 22.4534 53.0666 22.4383 53.6609C22.2575 54.5357 21.6803 55.2529 21.1906 55.984C18.1093 60.7709 16.549 65.8265 16.5443 71.5067C16.5442 71.648 16.5441 71.7894 16.5439 71.9351C16.5488 75.3076 16.9813 78.3569 18.1291 81.531C18.214 81.7674 18.299 82.0039 18.3865 82.2475C19.7477 85.8256 21.6446 89.0602 24.2641 91.8614C24.617 92.241 24.9442 92.6313 25.2726 93.0319C30.2133 98.6798 37.9706 101.941 45.1063 103.584C45.3344 103.638 45.5624 103.691 45.7974 103.746C49.7361 104.613 53.6758 104.885 57.7004 104.869C57.9236 104.869 58.1469 104.869 58.3769 104.868C63.9413 104.853 69.4418 104.285 74.8579 102.976C75.3877 102.849 75.9189 102.729 76.4506 102.61C83.264 101.018 89.9412 97.7752 94.9666 92.8638C95.1437 92.6987 95.3207 92.5335 95.5031 92.3634C101.034 87.0823 104.08 78.9512 104.258 71.3806C104.268 70.7623 104.271 70.1442 104.271 69.5258C104.271 69.3628 104.271 69.1997 104.271 69.0318C104.255 62.8753 102.897 56.9015 100.153 51.374C100.093 51.2502 100.032 51.1264 99.9703 50.9989C98.5184 48.0448 96.6689 45.1847 94.1982 42.9824C93.6843 42.3882 93.6492 41.9706 93.622 41.1936C93.6519 41.0148 93.6819 40.8361 93.7127 40.6519C94.275 37.2617 93.2187 34.2517 91.3536 31.4522C89.7226 29.2516 87.2209 27.5311 84.4975 27.035C82.0977 26.7576 80.2446 27.0854 78.2184 28.4321C77.3611 29.1169 76.7513 30.0104 76.1189 30.8962C75.7572 31.3974 75.7572 31.3974 75.373 31.7816C74.3179 31.844 73.3568 31.7254 72.3236 31.5055C70.4821 31.1198 68.6629 30.9827 66.7828 30.9675C66.4936 30.9647 66.4936 30.9647 66.1984 30.9618C65.5748 30.957 64.9513 30.9546 64.3276 30.9532C64.1142 30.9527 63.9007 30.9522 63.6807 30.9517C59.967 30.9508 56.3714 31.1877 52.706 31.7816C52.4891 31.8164 52.2723 31.8513 52.0488 31.8872C50.5677 32.1308 49.0928 32.3902 47.6372 32.7592C46.9629 32.9291 46.4776 33.0409 45.7906 32.9341C45.1753 32.4418 44.747 31.8627 44.2899 31.2293C42.9662 29.4455 41.1471 28.2656 38.9533 27.8026C35.49 27.3922 32.584 28.288 29.7988 30.401C27.3354 32.4679 25.5935 35.6861 25.2366 38.8886C25.0051 42.1009 25.174 45.2316 26.197 48.3007C26.2922 49.2999 26.2922 49.2999 26.197 49.8373C25.7026 50.4189 25.3994 50.5791 24.6483 50.7017C23.9305 50.5795 23.7707 50.4009 23.3156 49.8373C23.1152 49.3347 22.9538 48.8669 22.8114 48.3487C22.7504 48.1307 22.7504 48.1307 22.6882 47.9083C21.6467 44.0222 21.4618 39.6565 22.7393 35.8153C22.8292 35.5271 22.8292 35.5271 22.9209 35.2331C24.2655 31.2108 27.0897 27.8675 30.8634 25.9389C32.958 24.934 34.8908 24.6103 37.1944 24.5905C37.4808 24.5875 37.4808 24.5875 37.7729 24.5845C41.0187 24.6233 43.5963 26.0038 45.8941 28.2183C46.2849 28.6233 46.6122 29.0241 46.9432 29.4766C48.1006 29.2845 49.2578 29.0912 50.4144 28.8936C50.802 28.8278 51.1897 28.762 51.5774 28.6962C51.7708 28.6629 51.9642 28.6296 52.1635 28.5953C53.7205 28.3325 55.2769 28.0974 56.86 28.12C57.021 28.1217 57.1819 28.1235 57.3477 28.1252C57.4641 28.1275 57.5805 28.1297 57.7004 28.132C57.6588 27.9391 57.6172 27.7462 57.5744 27.5475C57.2265 25.8646 57.0443 24.2889 57.1241 22.5616C56.9661 22.6243 56.8082 22.6869 56.6454 22.7514C52.9893 24.1825 52.9893 24.1825 51.1692 24.2903C50.9835 24.3027 50.7978 24.3151 50.6064 24.3279C47.8791 24.426 45.4562 23.5261 43.4495 21.6732C41.421 19.5255 40.8445 17.2495 40.917 14.3958C41.0366 12.371 42.0333 10.8572 43.4855 9.49999C45.4161 7.78887 47.8658 7.40359 50.3668 7.53734C52.7188 7.77258 54.8828 8.98269 56.932 10.0762C57.0588 10.1396 57.1856 10.203 57.3162 10.2683C57.364 10.1586 57.4118 10.0489 57.461 9.93593C58.6378 7.79284 61.2091 6.37993 63.449 5.63583C66.5214 4.86409 69.8027 5.43329 72.3963 7.21376Z" fill="#060504"/>
<path d="M70.9549 9.88408C72.1795 11.0443 73.0708 12.1211 73.176 13.8458C73.1323 15.3734 72.5547 16.6452 71.5507 17.7917C69.2706 19.905 66.3905 20.22 63.3994 20.1477C62.113 20.0789 59.622 19.873 58.6609 18.912C57.5581 18.8071 56.8802 19.0741 55.9595 19.6323C53.5292 21.0018 50.8792 21.7103 48.1047 21.0901C46.5385 20.5353 45.2241 19.4213 44.4459 17.9515C43.9055 16.5853 43.5633 15.2366 44.0317 13.8075C44.5658 12.6005 45.2351 11.8919 46.3669 11.2287C46.6699 11.0504 46.6699 11.0504 46.9792 10.8685C49.9088 10.0041 52.6787 11.1767 55.2282 12.5517C55.6066 12.7767 55.9541 13.0261 56.307 13.289C57.0398 13.801 57.401 13.8605 58.2767 13.7257C58.7822 13.3106 59.0991 12.794 59.4532 12.2491C60.8483 10.2429 62.7325 8.8437 65.165 8.40145C67.2102 8.13276 69.2871 8.64931 70.9549 9.88408Z" fill="#95D770"/>
<path d="M72.4916 43.1144C73.3143 43.6005 73.7128 44.1384 74.0284 45.0352C74.1532 45.9697 74.145 46.7083 73.7402 47.5683C72.0028 49.5228 72.0028 49.5228 70.6607 49.6047C70.2784 49.6012 69.8961 49.5905 69.5142 49.5732C69.2278 49.5713 69.2278 49.5713 68.9356 49.5694C67.7519 49.5429 66.8511 49.3514 65.7683 48.8769C64.9968 48.6051 64.9968 48.6051 64.2316 48.6848C63.5627 49.0734 62.9523 49.5093 62.3339 49.9724C60.5721 51.2688 58.7304 51.8272 56.5478 51.566C55.4014 51.1292 54.6486 50.3397 54.0349 49.2896C53.6163 48.31 53.7738 47.2235 54.0866 46.2358C54.5119 45.4732 54.9751 44.669 55.7795 44.2669C56.558 44.1631 56.8431 44.2012 57.4843 44.6751C57.8925 45.2273 57.8925 45.2273 58.0005 45.8156C57.869 46.5026 57.6078 46.6645 57.1241 47.1481C57.0439 47.7487 57.0439 47.7487 57.1241 48.3006C57.1875 48.364 57.2509 48.4274 57.3162 48.4927C59.0958 48.4927 60.464 47.6833 61.8229 46.5681C63.0137 45.597 63.9308 45.4443 65.4622 45.5132C66.25 45.6254 66.8452 45.8668 67.5557 46.2087C68.6343 46.5651 69.8331 46.4337 70.9549 46.3798C70.8598 46.1461 70.7647 45.9123 70.6667 45.6715C70.2504 44.5421 70.2504 44.5421 70.3786 43.8827C70.9557 43.0287 71.501 42.9754 72.4916 43.1144Z" fill="#050604"/>
<path d="M65.3817 48.5705C65.7682 48.6848 65.7682 48.6848 66.4653 48.9767C67.3796 49.3258 68.2552 49.367 69.2259 49.3931C69.393 49.3997 69.5602 49.4062 69.7324 49.413C70.1398 49.4287 70.5472 49.4412 70.9547 49.4531C70.7646 49.5165 70.5744 49.5799 70.3785 49.6452C70.3874 49.8842 70.3963 50.1231 70.4055 50.3693C70.4756 53.0104 70.2848 54.8237 68.42 56.8326C68.0733 57.1364 68.0733 57.1364 67.6891 57.1364C67.6436 57.2583 67.598 57.3801 67.5511 57.5056C67.305 57.9048 67.305 57.9048 66.9148 58.0638C65.1377 58.3675 63.7007 58.5976 62.1139 57.6024C61.2496 56.9789 60.7198 56.4219 60.3896 55.4077C60.2866 55.1819 60.1836 54.9561 60.0774 54.7234C59.6855 53.6973 59.7646 52.6475 59.8133 51.566C59.5597 51.5027 59.3062 51.4393 59.0449 51.374C59.1613 51.3319 59.2777 51.2898 59.3976 51.2464C60.9323 50.6656 62.3098 49.9283 63.5831 48.8889C64.269 48.4698 64.5977 48.4157 65.3817 48.5705Z" fill="#FACCAF"/>
<path d="M54.9398 12.3932C55.446 12.6841 55.7971 12.899 56.1636 13.3416C55.7833 13.5318 55.7833 13.5318 55.3953 13.7258C55.522 13.8526 55.6488 13.9793 55.7794 14.11C55.5893 14.5537 55.3991 14.9974 55.2032 15.4545C54.8789 15.4322 54.5547 15.4078 54.2307 15.3825C54.0502 15.3691 53.8697 15.3558 53.6837 15.342C53.0901 15.2624 53.0901 15.2624 52.4598 15.0704C51.6086 14.8415 50.8097 14.7922 49.9326 14.7582C49.7737 14.7508 49.6149 14.7434 49.4512 14.7357C49.0635 14.7178 48.6756 14.7018 48.2878 14.6862C48.2878 14.813 48.2878 14.9397 48.2878 15.0704C48.161 15.0704 48.0342 15.0704 47.9036 15.0704C47.9036 15.7042 47.9036 16.3381 47.9036 16.9912C48.6959 17.3873 49.3581 17.4902 50.2207 17.5794C51.6792 17.7374 51.6792 17.7374 52.3218 17.9516C52.6852 17.9942 53.0496 18.0296 53.4143 18.0596C53.6052 18.0757 53.7961 18.0918 53.9928 18.1084C54.2116 18.1259 54.2116 18.1259 54.4348 18.1437C54.308 18.524 54.1812 18.9043 54.0506 19.2962C54.2408 19.3913 54.2408 19.3913 54.4348 19.4883C53.911 20.2302 53.4819 20.7478 52.6339 21.109C50.6845 21.4426 48.4798 21.5051 46.751 20.4487C45.1443 19.2927 44.2802 17.9634 43.8696 16.0308C43.6508 14.6347 44.0206 13.5309 44.8301 12.3812C45.3012 11.9121 45.7945 11.5641 46.3668 11.2287C46.5689 11.1099 46.771 10.991 46.9791 10.8686C49.8073 10.0341 52.4519 11.1067 54.9398 12.3932Z" fill="#95D770"/>
<path d="M47.4721 42.4031C47.861 42.9346 47.757 43.4384 47.7115 44.0748C47.6481 44.2649 47.5847 44.4551 47.5194 44.651C47.6145 44.7461 47.6145 44.7461 47.7115 44.8431C47.7835 45.4674 47.7835 45.4674 47.7115 46.1877C46.9247 47.1614 45.8699 47.7263 44.8061 48.3606C43.6629 49.0512 42.5498 49.7409 41.4925 50.5576C40.3212 51.4369 39.3377 51.3739 37.9147 51.3739C37.7245 51.469 37.7245 51.469 37.5305 51.566C36.8576 51.6391 36.5004 51.6433 35.9217 51.2779C35.5713 50.7388 35.4778 50.3306 35.509 49.6872C35.7071 48.8476 36.2384 48.2013 36.7622 47.5323C36.8763 47.3778 36.9905 47.2233 37.1081 47.0641C37.6068 46.483 38.1641 46.0177 38.7671 45.5514C38.8847 45.46 39.0022 45.3687 39.1233 45.2745C40.9065 43.9107 45.1382 40.6774 47.4721 42.4031Z" fill="#020502"/>
<path d="M79.4069 39.2727C80.0566 39.4182 80.669 39.6275 81.2919 39.861C81.459 39.9222 81.6262 39.9834 81.7984 40.0465C84.3118 40.9914 87.09 42.345 88.6274 44.6511C88.6751 45.2002 88.6986 45.7227 88.6995 46.2718C88.7042 46.4185 88.7089 46.5652 88.7137 46.7163C88.7175 47.4377 88.7131 47.8002 88.2755 48.3944C87.8192 48.7126 87.4799 48.8409 86.9189 48.8086C86.1598 48.5762 85.5793 48.0574 84.9589 47.5766C82.8496 45.9556 80.5029 44.5499 77.7982 44.3749C77.1877 44.3241 76.938 44.2844 76.4055 43.9548C76.0393 43.3222 76.063 42.8725 76.1413 42.154C76.2681 41.9638 76.3949 41.7737 76.5255 41.5777C76.6523 41.5777 76.7791 41.5777 76.9097 41.5777C76.903 41.4596 76.8964 41.3415 76.8895 41.2198C76.8843 41.0646 76.8791 40.9093 76.8737 40.7494C76.8637 40.5187 76.8637 40.5187 76.8534 40.2834C77.0281 38.935 78.3655 39.1609 79.4069 39.2727Z" fill="#020502"/>
<path d="M13.4826 43.8228C14.1323 44.2126 14.5272 44.7472 14.8633 45.4194C15.0644 46.7661 14.8176 47.6183 14.0379 48.7209C13.5435 49.247 13.1538 49.4261 12.4388 49.5177C10.98 49.5379 10.98 49.5379 10.253 49.129C9.42157 48.1677 9.1999 47.5424 9.23403 46.2741C9.31176 45.6493 9.53465 45.1802 9.86884 44.6511C9.99562 44.6511 10.1224 44.6511 10.253 44.6511C10.253 44.5243 10.253 44.3976 10.253 44.2669C11.2083 43.4658 12.3283 43.5406 13.4826 43.8228Z" fill="#FDFAFC"/>
<path d="M108.413 37.9281C109.068 38.1778 109.457 38.5875 109.95 39.0806C110.284 40.0952 110.315 41.192 109.878 42.166C109.775 42.2888 109.672 42.4116 109.566 42.5381C109.439 42.5381 109.312 42.5381 109.181 42.5381C109.181 42.6649 109.181 42.7917 109.181 42.9223C108.293 43.2776 107.441 43.5021 106.492 43.3065C105.609 42.8966 104.925 42.4588 104.463 41.5897C104.226 39.9311 104.226 39.9311 104.727 39.0326C104.866 38.8583 105.005 38.684 105.147 38.5044C105.224 38.4002 105.301 38.2959 105.38 38.1885C106.179 37.5834 107.466 37.827 108.413 37.9281Z" fill="#FDF9FC"/>
<path d="M88.6875 14.266C89.731 15.1153 89.731 15.1153 89.9721 15.8387C90.0501 16.8067 90.0422 17.6478 89.5879 18.5279C89.4611 18.5279 89.3344 18.5279 89.2037 18.5279C89.2037 18.6546 89.2037 18.7814 89.2037 18.912C88.4415 19.5954 87.6185 19.5962 86.642 19.5686C85.8195 19.4395 85.5207 19.1544 84.9777 18.5279C84.4949 17.5203 84.4114 16.5532 84.5935 15.4545C84.956 14.7813 85.3825 14.2324 86.1227 13.9832C87.131 13.8151 87.7935 13.7769 88.6875 14.266Z" fill="#FEFAFD"/>
<path d="M48.2879 14.6862C48.8362 14.6758 49.3843 14.6682 49.9327 14.6622C50.0863 14.659 50.24 14.6558 50.3983 14.6524C51.3698 14.6445 52.1565 14.7718 53.0902 15.0704C53.6429 15.1605 54.1955 15.237 54.7508 15.309C55.2033 15.4545 55.2033 15.4545 55.4524 15.8162C55.6407 16.3831 55.674 16.782 55.5875 17.3754C55.2513 17.8316 55.2513 17.8316 54.627 18.1437C53.4424 18.2797 52.3209 18.2017 51.1828 17.8541C50.6846 17.7356 50.2038 17.7227 49.6926 17.6995C48.9443 17.6392 48.6998 17.5865 48.0598 17.1473C47.653 16.5161 47.6133 16.1915 47.7116 15.4545C47.775 15.3278 47.8384 15.201 47.9037 15.0704C48.0305 15.0704 48.1573 15.0704 48.2879 15.0704C48.2879 14.9436 48.2879 14.8168 48.2879 14.6862Z" fill="#58AF46"/>
<path d="M66.2726 13.0175C66.4216 13.0326 66.5707 13.0477 66.7243 13.0632C67.113 13.1495 67.113 13.1495 67.4972 13.5337C67.549 14.0501 67.5139 14.5501 67.4972 15.0703C67.3704 15.0703 67.2436 15.0703 67.113 15.0703C67.113 15.1971 67.113 15.3239 67.113 15.4545C62.6612 17.7221 62.6612 17.7221 60.7739 17.5674C60.3532 17.263 60.2172 17.0888 60.1143 16.577C60.1141 16.4284 60.1138 16.2799 60.1136 16.1268C60.1098 15.9782 60.1061 15.8297 60.1023 15.6766C60.1976 15.2624 60.1976 15.2624 60.5105 14.9435C61.058 14.6342 61.5839 14.4788 62.1906 14.314C63.1474 14.0354 63.8236 13.7385 64.6157 13.1495C65.1951 12.9528 65.6676 12.9497 66.2726 13.0175Z" fill="#59AF47"/>
<path d="M31.3355 55.6357C31.9972 55.83 32.2846 55.921 32.7642 56.4281C32.9402 57.0101 32.9625 57.492 32.9203 58.0968C32.7935 58.0968 32.6667 58.0968 32.5361 58.0968C32.5361 58.2236 32.5361 58.3504 32.5361 58.481C31.6984 58.9556 30.9831 58.9702 30.0389 58.8651C29.3145 58.6622 28.509 58.3796 28.118 57.7126C27.973 56.4079 27.973 56.4079 28.4181 55.6958C29.3607 55.1158 30.3119 55.4005 31.3355 55.6357Z" fill="#59AF46"/>
<path d="M93.6218 51.266C93.7585 51.2614 93.8952 51.2568 94.036 51.2521C94.7707 51.2541 95.0937 51.3129 95.635 51.8227C95.9826 52.432 96.0037 52.7958 95.9269 53.4869C95.8635 53.6137 95.8002 53.7405 95.7348 53.8711C95.6081 53.8711 95.4813 53.8711 95.3507 53.8711C95.3507 53.9979 95.3507 54.1246 95.3507 54.2552C94.7049 54.4705 94.2052 54.4729 93.5258 54.4713C93.3059 54.4718 93.086 54.4723 92.8594 54.4728C92.2772 54.4473 92.2772 54.4473 91.7009 54.2552C91.2167 53.5928 91.2314 52.9378 91.3167 52.1423C91.9298 51.2635 92.6217 51.2506 93.6218 51.266Z" fill="#59AF46"/>
<path d="M27.3496 62.3227C27.8298 62.5147 27.8298 62.5147 28.1179 62.7068C28.1179 62.8336 28.1179 62.9604 28.1179 63.091C28.2447 63.091 28.3715 63.091 28.5021 63.091C28.8026 63.6919 28.7627 64.1582 28.6942 64.8197C28.1562 65.4754 27.8178 65.5761 26.9774 65.6961C26.3902 65.6627 26.0131 65.5377 25.5367 65.1919C24.9471 64.5161 24.8044 64.1779 24.8523 63.2831C25.5553 62.2173 26.1681 62.1914 27.3496 62.3227Z" fill="#5AB048"/>
<path d="M29.8467 94.2084C30.4961 94.5331 30.6926 95.2579 30.9993 95.8891C31.1018 96.0956 31.1018 96.0956 31.2064 96.3063C31.551 97.0058 31.8758 97.704 32.1518 98.4342C30.9226 97.8755 29.9269 97.1788 28.8862 96.3213C29.2704 95.745 29.2704 95.745 29.6786 95.613C29.7975 95.5932 29.9163 95.5734 30.0388 95.553C29.9754 95.1092 29.912 94.6655 29.8467 94.2084Z" fill="#9BD379"/>
<path d="M99.1926 74.8081C99.5768 75.0002 99.5768 75.0002 99.6942 75.3379C99.7742 75.7993 99.8011 76.2362 99.8114 76.7045C99.8158 76.8898 99.8203 77.0751 99.8248 77.2659C99.8306 77.5643 99.8306 77.5643 99.8364 77.8687C99.8408 78.0742 99.8453 78.2798 99.8499 78.4915C99.859 78.926 99.8677 79.3605 99.876 79.795C99.8889 80.4594 99.9038 81.1237 99.9189 81.788C99.9276 82.2103 99.9361 82.6326 99.9445 83.0549C99.949 83.2534 99.9536 83.4519 99.9584 83.6564C99.9616 83.8423 99.9648 84.0282 99.9682 84.2197C99.9714 84.3825 99.9747 84.5452 99.9781 84.7129C99.96 85.207 99.8784 85.6596 99.7689 86.141C99.8957 86.141 100.022 86.141 100.153 86.141C99.9384 86.884 99.7633 87.349 99.1926 87.8697C99.1874 87.5976 99.1837 87.3255 99.1806 87.0534C99.1784 86.9018 99.1761 86.7503 99.1738 86.5942C99.1926 86.141 99.1926 86.141 99.2883 85.7803C99.3893 85.3531 99.4091 84.9817 99.4095 84.5431C99.4101 84.3808 99.4107 84.2185 99.4114 84.0512C99.411 83.8769 99.4106 83.7027 99.4102 83.5231C99.4104 83.3416 99.4106 83.1601 99.4108 82.9731C99.4109 82.5887 99.4105 82.2043 99.4097 81.8198C99.4087 81.2377 99.4097 80.6556 99.4109 80.0735C99.4108 79.6987 99.4106 79.3239 99.4102 78.9491C99.4108 78.6918 99.4108 78.6918 99.4114 78.4293C99.407 77.2136 99.3198 76.0169 99.1926 74.8081Z" fill="#AFDD93"/>
<path d="M55.7795 43.6907C56.4277 43.7958 56.7558 43.8933 57.3162 44.2669C57.1909 44.2768 57.0656 44.2867 56.9365 44.2969C55.8884 44.4324 55.8884 44.4324 55.0178 44.9917C54.0778 46.2281 53.9096 47.3419 54.0506 48.8769C54.1997 49.3667 54.3887 49.7649 54.6269 50.2215C53.8662 50.2215 53.1055 50.2215 52.3218 50.2215C52.3218 50.1581 52.3218 50.0947 52.3218 50.0294C52.8923 49.9343 52.8923 49.9343 53.4743 49.8373C53.4677 49.6655 53.461 49.4936 53.4541 49.3166C53.415 47.5716 53.4152 45.8342 54.6269 44.459C55.1432 44.3149 55.1432 44.3149 55.5874 44.2669C55.6508 44.0768 55.7142 43.8866 55.7795 43.6907Z" fill="#97CA7B"/>
<path d="M87.2228 13.6777C87.5508 13.6822 87.5508 13.6822 87.8854 13.6867C88.4354 13.7257 88.4354 13.7257 88.8196 13.9178C88.8196 14.0446 88.8196 14.1714 88.8196 14.302C88.7245 14.2703 88.6294 14.2386 88.5314 14.2059C87.5081 14.0013 86.472 13.9586 85.554 14.4941C85.026 14.9364 84.8122 15.2609 84.7181 15.9467C84.6867 16.9967 84.7231 17.8469 85.3619 18.7199C85.9474 19.1745 85.9474 19.1745 86.5144 19.4882C86.3243 19.5516 86.1341 19.615 85.9382 19.6803C85.2145 19.2661 84.6881 18.717 84.3174 17.9756C84.0821 16.6687 84.1341 15.8205 84.7158 14.6404C85.3985 13.7582 86.1554 13.6534 87.2228 13.6777Z" fill="#F0A8CB"/>
<path d="M27.7336 32.3578C27.9238 32.3578 28.114 32.3578 28.3099 32.3578C28.0939 32.9286 27.8829 33.3824 27.5415 33.8944C27.4148 33.8944 27.288 33.8944 27.1574 33.8944C27.1296 34.0727 27.1019 34.251 27.0733 34.4347C26.9653 35.0469 26.9653 35.0469 26.7732 35.6232C26.8366 35.8134 26.9 36.0035 26.9653 36.1994C26.6171 36.5836 26.6171 36.5836 26.1969 36.9678C26.0067 36.9678 25.8165 36.9678 25.6206 36.9678C25.7184 35.8729 26.1569 35.0671 26.6771 34.1225C26.7571 33.9736 26.8371 33.8247 26.9195 33.6712C27.5073 32.5841 27.5073 32.5841 27.7336 32.3578Z" fill="#94CA72"/>
<path d="M83.8252 52.7185C84.3957 52.8136 84.3957 52.8136 84.9778 52.9106C84.9778 53.1008 84.9778 53.2909 84.9778 53.4868C85.1164 53.5066 85.2551 53.5265 85.398 53.5469C85.9916 53.692 86.4026 53.9008 86.8987 54.2552C86.8987 54.3819 86.8987 54.5087 86.8987 54.6393C87.0889 54.6393 87.279 54.6393 87.475 54.6393C87.475 54.8929 87.475 55.1464 87.475 55.4077C87.7484 55.4909 87.7484 55.4909 88.0272 55.5757C88.6275 55.7918 88.6275 55.7918 89.0117 56.176C88.9397 56.5842 88.9397 56.5842 88.8196 56.9443C88.4275 56.6339 88.0434 56.3132 87.6671 55.9839C87.6671 55.8571 87.6671 55.7304 87.6671 55.5997C87.5574 55.5495 87.4477 55.4992 87.3347 55.4474C86.8667 55.1986 86.4838 54.9105 86.0703 54.5793C85.5197 54.1427 84.9659 53.7206 84.3895 53.3188C84.2033 53.1841 84.017 53.0494 83.8252 52.9106C83.8252 52.8472 83.8252 52.7838 83.8252 52.7185Z" fill="#A7D589"/>
<path d="M44.2537 8.92371C44.3805 8.98709 44.5073 9.05048 44.6379 9.11579C44.2537 9.69204 44.2537 9.69204 43.9055 9.8361C43.3402 10.1591 43.0925 10.5987 42.7455 11.1402C42.6727 11.2328 42.5999 11.3254 42.5249 11.4208C42.3981 11.4208 42.2713 11.4208 42.1407 11.4208C42.2061 11.5931 42.2061 11.5931 42.2727 11.7689C42.2926 11.9076 42.3124 12.0462 42.3328 12.1891C42.2456 12.2683 42.1585 12.3476 42.0686 12.4292C41.6355 12.8957 41.5715 13.3377 41.4323 13.9539C41.3841 14.1626 41.3358 14.3713 41.286 14.5864C41.2511 14.7461 41.2162 14.9058 41.1802 15.0703C41.1168 15.0703 41.0534 15.0703 40.9881 15.0703C40.8314 13.4404 41.3555 12.0296 42.3275 10.717C42.9212 10.0356 43.5176 9.44991 44.2537 8.92371Z" fill="#240C18"/>
<path d="M67.6893 57.3285C67.3051 57.9048 67.3051 57.9048 66.9149 58.0451C63.9067 58.6019 63.9067 58.6019 62.6948 57.9048C62.6948 57.8414 62.6948 57.778 62.6948 57.7127C62.8577 57.7055 62.8577 57.7055 63.0238 57.6981C63.5145 57.6758 64.0051 57.6523 64.4957 57.6286C64.752 57.6173 64.752 57.6173 65.0135 57.6058C65.1769 57.5977 65.3403 57.5897 65.5087 57.5814C65.6596 57.5743 65.8105 57.5673 65.966 57.56C66.5826 57.4958 67.0357 57.3113 67.6893 57.3285Z" fill="#F5D8C5"/>
<path d="M67.6892 31.0132C69.8176 30.9368 71.7579 31.1252 73.8362 31.5895C73.1634 32.038 72.9817 32.0004 72.2034 31.9136C72.0192 31.8945 71.835 31.8755 71.6451 31.8558C71.1469 31.7815 71.1469 31.7815 70.5706 31.5895C70.2675 31.5954 70.2675 31.5954 69.9583 31.6015C69.1321 31.5879 68.4821 31.4278 67.6892 31.2053C67.6892 31.1419 67.6892 31.0785 67.6892 31.0132Z" fill="#96C875"/>
<path d="M40.9882 12.3812C41.115 12.3812 41.2418 12.3812 41.3724 12.3812C41.3417 12.537 41.311 12.6927 41.2793 12.8532C40.9749 14.9452 41.0187 17.1102 41.7566 19.1041C41.5664 19.1992 41.5664 19.1992 41.3724 19.2962C41.333 19.1459 41.2937 18.9956 41.2531 18.8408C41.2013 18.6464 41.1496 18.452 41.0963 18.2517C41.045 18.0579 40.9937 17.864 40.9409 17.6642C40.8423 17.1991 40.8423 17.1991 40.604 16.9912C40.5794 16.5044 40.5676 16.0255 40.568 15.5386C40.5679 15.3991 40.5678 15.2595 40.5676 15.1158C40.5772 14.1479 40.6804 13.3045 40.9882 12.3812Z" fill="#DB95B7"/>
<path d="M54.819 50.2215C54.301 50.7395 53.9279 50.7179 53.2057 50.818C52.9591 50.8523 52.7124 50.8866 52.4583 50.9219C52.3295 50.9389 52.2007 50.9559 52.068 50.9735C51.676 51.0255 51.2845 51.0808 50.8931 51.1365C48.7932 51.4216 48.7932 51.4216 48.0957 51.1819C52.6257 50.0353 52.6257 50.0353 54.819 50.2215Z" fill="#DDF5D0"/>
<path d="M23.6997 50.2214C24.1435 50.3482 24.5872 50.475 25.0444 50.6056C24.3157 51.2239 23.5733 51.6844 22.7393 52.1423C22.7393 52.3958 22.7393 52.6494 22.7393 52.9106C21.9949 52.5744 21.9949 52.5744 21.7788 52.1423C21.963 52.065 21.963 52.065 22.151 51.9862C22.6108 51.7799 22.6108 51.7799 22.7393 51.1818C22.8661 51.1818 22.9928 51.1818 23.1235 51.1818C23.1829 51.059 23.2423 50.9362 23.3036 50.8097C23.5077 50.4135 23.5077 50.4135 23.6997 50.2214Z" fill="#9FCC7F"/>
<path d="M45.4064 11.8049C45.5332 11.8683 45.6599 11.9317 45.7906 11.997C45.7906 12.3773 45.7906 12.7577 45.7906 13.1495C45.537 13.1495 45.2834 13.1495 45.0222 13.1495C44.832 13.5932 44.6418 14.0369 44.4459 14.4941C44.3191 14.4941 44.1923 14.4941 44.0617 14.4941C44.0617 15.0012 44.0617 15.5083 44.0617 16.0307C43.9983 16.0307 43.9349 16.0307 43.8696 16.0307C43.7523 14.5757 44.0412 13.6123 44.8301 12.3812C45.1505 12.0375 45.1505 12.0375 45.4064 11.8049Z" fill="#94C976"/>
<path d="M37.3386 45.9956C37.6555 45.9956 37.9725 45.9956 38.299 45.9956C38.1089 46.2808 38.1089 46.2808 37.9148 46.5719C37.7881 46.5719 37.6613 46.5719 37.5307 46.5719C37.4871 46.6749 37.4435 46.7779 37.3986 46.884C37.0631 47.491 36.6393 47.9679 36.186 48.4927C35.7726 47.8727 35.7632 47.6698 35.8018 46.956C35.9286 46.956 36.0554 46.956 36.186 46.956C36.2494 46.7659 36.3128 46.5757 36.3781 46.3798C36.5049 46.3798 36.6317 46.3798 36.7623 46.3798C36.7623 46.5065 36.7623 46.6333 36.7623 46.7639C36.9525 46.7639 37.1426 46.7639 37.3386 46.7639C37.3386 46.5104 37.3386 46.2568 37.3386 45.9956Z" fill="#96D373"/>
<path d="M72.6837 7.00293C73.0919 7.18301 73.0919 7.18301 73.4521 7.38709C73.4521 7.57726 73.4521 7.76742 73.4521 7.96334C73.6304 8.01088 73.8087 8.05842 73.9924 8.1074C74.644 8.36291 74.8779 8.49184 75.181 9.11584C75.1209 9.64406 75.1209 9.64406 74.9889 10.0763C74.8898 9.94551 74.7908 9.81478 74.6887 9.68008C74.124 8.99959 73.5071 8.38928 72.8758 7.77126C72.6835 7.5794 72.4914 7.38739 72.2996 7.19501C72.4263 7.13162 72.5531 7.06824 72.6837 7.00293ZM74.9889 7.77126C75.1157 7.96142 75.2424 8.15158 75.3731 8.34751C75.1829 8.41089 74.9927 8.47428 74.7968 8.53959C74.8602 8.28604 74.9236 8.03249 74.9889 7.77126Z" fill="#DF95BA"/>
<path d="M60.3896 22.7537C60.5204 22.7653 60.6511 22.7769 60.7858 22.7889C62.4452 22.9323 64.1058 23.0387 65.7683 23.1378C65.7683 23.2012 65.7683 23.2646 65.7683 23.3299C65.0479 23.3355 64.3276 23.3389 63.6072 23.3419C63.3008 23.3443 63.3008 23.3443 62.9882 23.3468C62.7913 23.3474 62.5944 23.348 62.3916 23.3487C62.12 23.3502 62.12 23.3502 61.8429 23.3517C61.3921 23.3318 61.0127 23.266 60.5817 23.1378C60.6139 23.272 60.6461 23.4062 60.6793 23.5445C60.7184 23.7193 60.7575 23.8941 60.7978 24.0742C60.838 24.248 60.8781 24.4219 60.9194 24.601C60.9348 24.752 60.9501 24.903 60.9659 25.0587C60.8391 25.1854 60.7124 25.3122 60.5817 25.4428C60.4019 24.8368 60.3693 24.2969 60.3776 23.6661C60.3794 23.4947 60.3811 23.3234 60.3829 23.1468C60.3851 23.0171 60.3873 22.8873 60.3896 22.7537Z" fill="#DE98BB"/>
<path d="M37.0262 27.5077C37.1633 27.506 37.3005 27.5042 37.4419 27.5024C38.4433 27.5082 38.4433 27.5082 38.8751 27.9399C37.734 27.9399 36.593 27.9399 35.4174 27.9399C35.4174 28.0667 35.4174 28.1934 35.4174 28.324C35.1638 28.3874 34.9102 28.4508 34.649 28.5161C34.649 28.3894 34.649 28.2626 34.649 28.132C34.3954 28.0686 34.1419 28.0052 33.8806 27.9399C34.938 27.5874 35.9202 27.5136 37.0262 27.5077Z" fill="#8BBB73"/>
<path d="M9.29272 47.7244C9.40366 47.8709 9.51459 48.0175 9.62889 48.1686C10.3298 49.0085 10.3298 49.0085 11.3397 49.3241C11.52 49.3191 11.7003 49.3141 11.886 49.309C12.0663 49.3061 12.2465 49.3031 12.4323 49.3C12.8832 49.2656 13.2781 49.1955 13.7109 49.0689C13.7109 49.1957 13.7109 49.3225 13.7109 49.4531C12.7931 49.9939 11.8662 49.9405 10.8295 49.8373C10.1211 49.5491 10.1211 49.5491 9.67691 49.261C9.67691 49.0075 9.67691 48.7539 9.67691 48.4927C9.55013 48.4927 9.42335 48.4927 9.29272 48.4927C9.29272 48.2391 9.29272 47.9856 9.29272 47.7244Z" fill="#F3AFD1"/>
<path d="M23.1235 49.8373C23.3136 49.9007 23.5038 49.9641 23.6997 50.0294C23.5076 50.4135 23.3156 50.7977 23.1235 51.1819C22.9967 51.1819 22.8699 51.1819 22.7393 51.1819C22.6759 51.4354 22.6125 51.689 22.5472 51.9502C22.0109 52.0764 21.5517 52.1416 20.9984 52.1303C20.4281 52.1424 20.1446 52.2318 19.6658 52.5264C19.6658 52.2729 19.6658 52.0193 19.6658 51.7581C20.6166 51.6947 21.5675 51.6313 22.5472 51.566C22.6106 51.3125 22.674 51.0589 22.7393 50.7977C22.8644 50.5401 22.9919 50.2837 23.1235 50.0294C23.1235 49.966 23.1235 49.9026 23.1235 49.8373Z" fill="#E4A5B8"/>
<path d="M39.0672 56.176C39.194 56.2394 39.3208 56.3028 39.4514 56.3681C39.1475 56.7045 38.8433 57.0406 38.5389 57.3765C38.3696 57.5637 38.2002 57.7509 38.0257 57.9438C37.614 58.3904 37.1955 58.824 36.7621 59.2493C36.5719 59.186 36.3817 59.1226 36.1858 59.0573C37.0697 57.9939 38.0038 57.0599 39.0672 56.176Z" fill="#E7FADB"/>
<path d="M25.6206 30.2449C25.8127 30.8211 25.8127 30.8211 25.6634 31.2135C25.5898 31.3495 25.5163 31.4854 25.4405 31.6255C25.3675 31.7629 25.2944 31.9003 25.2192 32.0419C25.1615 32.1461 25.1038 32.2504 25.0443 32.3578C24.9175 32.3578 24.7908 32.3578 24.6601 32.3578C24.6126 32.54 24.565 32.7223 24.5161 32.91C24.2759 33.5103 24.2759 33.5103 23.8767 33.7399C23.7549 33.7909 23.6331 33.8419 23.5076 33.8944C24.1261 32.6001 24.7419 31.382 25.6206 30.2449Z" fill="#1F0812"/>
<path d="M16.7844 66.1643C17.2176 66.8141 17.203 66.9376 17.1221 67.6792C17.1035 67.8593 17.0849 68.0395 17.0658 68.2251C17.0443 68.4126 17.0227 68.6002 17.0005 68.7934C16.9805 68.9832 16.9604 69.173 16.9397 69.3686C16.8899 69.8374 16.8381 70.3059 16.7844 70.7743C16.6576 70.7743 16.5308 70.7743 16.4002 70.7743C16.3497 69.191 16.4759 67.7179 16.7844 66.1643Z" fill="#94C475"/>
<path d="M73.4521 48.1085C74.5931 48.2353 75.7342 48.3621 76.9098 48.4927C76.9732 48.6828 77.0366 48.873 77.1019 49.0689C77.3337 49.1046 77.3337 49.1046 77.5701 49.141C77.7326 49.1806 77.895 49.2202 78.0624 49.261C78.1257 49.3878 78.1891 49.5146 78.2544 49.6452C78.0758 49.5928 78.0758 49.5928 77.8935 49.5394C76.3626 49.1049 74.8224 48.79 73.26 48.4927C73.3234 48.3659 73.3868 48.2391 73.4521 48.1085Z" fill="#A6D68A"/>
<path d="M57.7003 46.3799C57.8067 46.7786 57.8924 47.1182 57.8924 47.5324C57.7023 47.6275 57.7023 47.6275 57.5083 47.7245C57.5083 47.8512 57.5083 47.978 57.5083 48.1086C57.8886 48.1086 58.2689 48.1086 58.6608 48.1086C58.7242 48.2354 58.7876 48.3622 58.8529 48.4928C58.3222 48.7581 57.9026 48.7215 57.3162 48.6849C56.932 48.3007 56.932 48.3007 56.908 47.7005C56.9159 47.5182 56.9238 47.336 56.932 47.1482C57.1221 47.0848 57.3123 47.0214 57.5083 46.9561C57.5716 46.766 57.635 46.5758 57.7003 46.3799Z" fill="#91C478"/>
<path d="M61.1581 18.912C61.4117 18.912 61.6652 18.912 61.9265 18.912C61.9265 19.1021 61.9265 19.2923 61.9265 19.4882C62.7506 19.5516 63.5747 19.615 64.4237 19.6803C63.5994 20.2298 62.8112 20.163 61.8687 19.9774C61.5018 19.8862 61.1375 19.7842 60.7739 19.6803C60.9007 19.4268 61.0275 19.1732 61.1581 18.912Z" fill="#90C670"/>
<path d="M108.413 95.3608C108.605 95.9371 108.605 95.9371 108.413 96.5133C108.203 96.7296 107.992 96.9445 107.775 97.1526C107.058 97.8678 106.397 98.6389 105.724 99.3946C105.597 99.3312 105.47 99.2678 105.34 99.2025C105.552 98.9555 105.552 98.9555 105.768 98.7035C107.155 97.0822 107.155 97.0822 108.413 95.3608Z" fill="#FEE7F7"/>
<path d="M46.1747 47.7244C46.1747 48.0413 46.1747 48.3582 46.1747 48.6848C45.9845 48.6848 45.7943 48.6848 45.5984 48.6848C45.4716 48.558 45.3448 48.4312 45.2142 48.3006C45.2142 48.4274 45.2142 48.5542 45.2142 48.6848C44.1972 49.4531 44.1972 49.4531 43.4854 49.4531C43.7605 48.7571 44.0668 48.5051 44.722 48.1566C44.8723 48.0743 45.0226 47.9921 45.1774 47.9074C45.5984 47.7244 45.5984 47.7244 46.1747 47.7244Z" fill="#98CE7B"/>
<path d="M109.758 38.3124C109.631 38.4392 109.504 38.5659 109.374 38.6965C109.244 38.6042 109.115 38.5118 108.981 38.4167C108.296 38.0592 107.777 38.0242 107.009 37.9882C106.647 37.9693 106.647 37.9693 106.278 37.95C106.095 37.9428 105.912 37.9356 105.724 37.9282C105.787 37.8014 105.851 37.6747 105.916 37.5441C106.328 37.4578 106.328 37.4578 106.84 37.412C107.008 37.3954 107.176 37.3788 107.348 37.3617C108.368 37.3414 108.931 37.7299 109.758 38.3124Z" fill="#F2AACD"/>
<path d="M94.0061 97.4738C93.7163 98.3635 93.0102 98.6943 92.2532 99.1545C92.1267 99.2335 92.0001 99.3124 91.8698 99.3938C91.5584 99.5879 91.2456 99.7796 90.9326 99.9708C90.8692 99.8441 90.8058 99.7173 90.7405 99.5867C91.0338 99 91.4996 98.8839 92.0851 98.6263C92.2753 98.6263 92.4655 98.6263 92.6614 98.6263C92.7129 98.4717 92.7644 98.3172 92.8175 98.158C92.8928 97.9956 92.968 97.8332 93.0456 97.6658C93.6219 97.4738 93.6219 97.4738 94.0061 97.4738Z" fill="#1D0510"/>
<path d="M60.9659 10.4603C61.0927 10.5237 61.2195 10.5871 61.3501 10.6524C61.0965 10.9693 60.843 11.2863 60.5817 11.6128C60.6451 11.7396 60.7085 11.8664 60.7738 11.997C60.6193 12.1475 60.4648 12.2981 60.3056 12.4532C59.8159 12.9036 59.8159 12.9036 59.6212 13.3416C59.4945 13.3416 59.3677 13.3416 59.2371 13.3416C59.2371 12.0455 60.1164 11.3311 60.9659 10.4603Z" fill="#9ACE7B"/>
<path d="M105.724 79.8022C105.851 79.8022 105.977 79.8022 106.108 79.8022C105.962 80.7273 105.645 81.5783 105.328 82.4554C105.274 82.6068 105.219 82.7582 105.164 82.9142C105.031 83.2857 104.897 83.6569 104.763 84.0281C104.7 84.0281 104.637 84.0281 104.571 84.0281C104.662 82.5222 105.192 81.2005 105.724 79.8022Z" fill="#1F0814"/>
<path d="M75.5651 26.5953C75.7091 26.9315 75.7091 26.9315 75.7572 27.3637C75.409 27.7959 75.409 27.7959 74.9888 28.132C74.862 28.132 74.7352 28.132 74.6046 28.132C74.5412 28.3222 74.4778 28.5123 74.4125 28.7082C74.0684 28.7186 73.7242 28.7261 73.38 28.7323C73.1883 28.7367 72.9967 28.7412 72.7992 28.7458C72.2995 28.7082 72.2995 28.7082 71.9153 28.3241C72.676 28.3875 73.4367 28.4509 74.2204 28.5162C74.3472 28.2626 74.474 28.0091 74.6046 27.7478C74.9079 27.3471 75.2362 26.9761 75.5651 26.5953Z" fill="#280F1C"/>
<path d="M55.7794 18.912C55.7794 19.0388 55.7794 19.1655 55.7794 19.2962C56.033 19.2328 56.2866 19.1694 56.5478 19.1041C56.0736 19.6488 55.5682 19.91 54.915 20.2085C54.7308 20.2947 54.5466 20.3809 54.3568 20.4697C53.8585 20.6407 53.8585 20.6407 53.2822 20.4486C53.8826 19.9407 54.4517 19.7103 55.2032 19.4882C55.1398 19.3615 55.0764 19.2347 55.0111 19.1041C55.3953 18.912 55.3953 18.912 55.7794 18.912Z" fill="#9ACE79"/>
<path d="M35.2253 49.2611C35.3521 49.2611 35.4789 49.2611 35.6095 49.2611C35.6293 49.5028 35.6491 49.7444 35.6695 49.9934C35.7318 50.4634 35.7783 50.7576 36.0177 51.1699C36.5618 51.4782 37.1072 51.5081 37.7225 51.5661C37.5324 51.7563 37.3422 51.9464 37.1462 52.1423C35.5698 51.5475 35.5698 51.5475 35.2253 50.7978C35.1812 50.2753 35.199 49.7874 35.2253 49.2611Z" fill="#9BCF7D"/>
<path d="M71.5312 17.7596C71.2603 17.9813 70.9878 18.201 70.7148 18.4199C70.4874 18.6037 70.4874 18.6037 70.2555 18.7913C69.8287 19.0859 69.5396 19.2139 69.0339 19.2963C69.563 18.2382 70.1802 17.3093 71.5312 17.7596Z" fill="#93C775"/>
<path d="M94.3904 63.4752C94.6439 63.5386 94.8975 63.602 95.1588 63.6673C95.2855 64.111 95.4123 64.5547 95.5429 65.0119C95.6697 65.0119 95.7965 65.0119 95.9271 65.0119C96.062 65.2504 96.1934 65.4909 96.3233 65.7322C96.3969 65.8659 96.4704 65.9996 96.5462 66.1374C96.7207 66.618 96.6731 66.843 96.5034 67.3169C96.4153 67.1522 96.3271 66.9876 96.2363 66.8179C95.6341 65.6959 95.0305 64.5762 94.3904 63.4752Z" fill="#A3D286"/>
<path d="M84.9777 23.9061C84.9777 23.9695 84.9777 24.0329 84.9777 24.0982C84.3536 24.1417 83.7292 24.1804 83.1048 24.2182C82.928 24.2306 82.7512 24.243 82.569 24.2558C82.3127 24.2706 82.3127 24.2706 82.0513 24.2858C81.8159 24.3009 81.8159 24.3009 81.5757 24.3163C81.0842 24.2872 80.7884 24.1538 80.3674 23.9061C81.8483 23.577 83.4968 23.577 84.9777 23.9061Z" fill="#381B2C"/>
<path d="M94.1981 97.4738C94.3249 97.5371 94.4517 97.6005 94.5823 97.6658C93.8882 98.5662 93.8882 98.5662 93.6218 98.8183C93.4316 98.8183 93.2415 98.8183 93.0455 98.8183C92.9821 99.0085 92.9188 99.1987 92.8534 99.3946C92.4097 99.458 91.966 99.5214 91.5088 99.5867C92.3964 98.8709 93.2971 98.1725 94.1981 97.4738Z" fill="#E097BC"/>
<path d="M106.876 61.5543C107.067 61.6494 107.067 61.6494 107.261 61.7464C107.528 62.9486 107.471 64.1704 107.453 65.396C106.697 64.2621 106.853 62.8728 106.876 61.5543Z" fill="#DE95BA"/>
<path d="M43.1013 53.6789C41.9968 54.2552 41.9968 54.2552 41.5646 54.2552C41.5646 54.382 41.5646 54.5087 41.5646 54.6394C40.8039 55.0197 40.8039 55.0197 40.0278 55.4077C40.2199 54.6394 40.2199 54.6394 40.7482 54.2312C42.2512 53.3641 42.2512 53.3641 43.1013 53.6789Z" fill="#A1D484"/>
<path d="M81.52 39.849C82.8407 40.0171 82.8407 40.0171 83.0568 40.2332C83.3471 40.3084 83.6397 40.3753 83.9332 40.4373C84.0919 40.4712 84.2506 40.5051 84.4142 40.54C84.5368 40.5655 84.6593 40.5911 84.7856 40.6173C84.5954 40.9026 84.5954 40.9026 84.4014 41.1936C83.4032 40.8865 82.4678 40.4749 81.52 40.0411C81.52 39.9777 81.52 39.9143 81.52 39.849Z" fill="#8EC275"/>
<path d="M34.6491 28.132C34.7125 28.3221 34.7759 28.5123 34.8412 28.7082C34.457 28.9003 34.0728 29.0924 33.6887 29.2844C33.6887 29.0943 33.6887 28.9041 33.6887 28.7082C33.2449 28.7716 32.8012 28.835 32.344 28.9003C33.044 28.1337 33.638 28.1095 34.6491 28.132Z" fill="#9AD079"/>
<path d="M29.6546 70.198C29.8754 70.9395 29.7496 71.2093 29.4625 71.9267C29.4238 72.214 29.3924 72.5024 29.3665 72.7911C29.305 73.4612 29.1825 74.0037 28.8863 74.6159C28.8229 74.6159 28.7595 74.6159 28.6942 74.6159C28.637 73.5274 28.8266 72.6781 29.1744 71.6506C29.2202 71.5101 29.266 71.3696 29.3132 71.2248C29.4253 70.882 29.5397 70.5399 29.6546 70.198Z" fill="#E0F8CF"/>
<path d="M30.2309 67.7009C30.4461 68.3464 30.4042 68.4726 30.1897 69.0898C30.137 69.2439 30.0844 69.398 30.0302 69.5569C29.9453 69.797 29.9453 69.797 29.8588 70.0419C29.8029 70.2042 29.7471 70.3665 29.6895 70.5338C29.5514 70.9346 29.4116 71.3349 29.2705 71.7347C29.2071 71.7347 29.1437 71.7347 29.0784 71.7347C29.1533 70.2358 29.6081 69.0591 30.2309 67.7009Z" fill="#A2D382"/>
<path d="M14.2871 44.267C14.4138 44.267 14.5406 44.267 14.6713 44.267C15.0313 45.0314 15.1074 45.6459 15.1035 46.4879C15.1049 46.8092 15.1049 46.8092 15.1065 47.137C15.0571 47.7055 14.9983 48.0295 14.6713 48.4928C14.4811 48.5562 14.2909 48.6196 14.095 48.6849C14.4551 47.7725 14.4551 47.7725 14.6713 47.3403C14.7556 46.2493 14.7168 45.2876 14.2871 44.267Z" fill="#F1A5CA"/>
<path d="M21.971 13.7258C21.971 14.11 21.971 14.11 21.6551 14.4281C21.4489 14.6034 21.4489 14.6034 21.2386 14.7823C21.0347 14.9576 21.0347 14.9576 20.8267 15.1364C20.4342 15.4546 20.4342 15.4546 19.8579 15.8387C19.7945 16.0289 19.7311 16.2191 19.6658 16.415C19.4123 16.3516 19.1587 16.2882 18.8975 16.2229C19.1452 15.9587 19.4021 15.7028 19.6658 15.4546C19.7926 15.4546 19.9194 15.4546 20.05 15.4546C20.05 15.3278 20.05 15.201 20.05 15.0704C20.3727 14.7388 20.3727 14.7388 20.7944 14.3741C20.9326 14.2528 21.0707 14.1315 21.2131 14.0065C21.5868 13.7258 21.5868 13.7258 21.971 13.7258Z" fill="#F1A8CC"/>
<path d="M103.227 50.7977C103.678 51.3541 103.963 51.8837 104.223 52.5505C104.289 52.7174 104.355 52.8843 104.423 53.0562C104.571 53.4869 104.571 53.4869 104.571 53.8711C104.444 53.8711 104.318 53.8711 104.187 53.8711C103.685 52.8411 103.324 51.9436 103.227 50.7977Z" fill="#2B111E"/>
<path d="M55.7795 43.6907C56.4277 43.7958 56.7558 43.8933 57.3162 44.2669C57.1887 44.2857 57.0612 44.3046 56.9298 44.3239C55.8999 44.4983 55.1993 44.655 54.4348 45.4194C54.4982 45.1025 54.5616 44.7855 54.6269 44.459C54.9439 44.3956 55.2608 44.3322 55.5874 44.2669C55.6508 44.0768 55.7142 43.8866 55.7795 43.6907Z" fill="#9FD37F"/>
<path d="M12.9424 43.6907C12.694 43.9803 12.694 43.9803 12.3661 44.2669C12.1561 44.259 11.9462 44.2511 11.7298 44.2429C10.7787 44.2751 10.5355 44.577 9.8689 45.2273C9.8689 45.0372 9.8689 44.847 9.8689 44.6511C9.99568 44.6511 10.1225 44.6511 10.2531 44.6511C10.2531 44.5243 10.2531 44.3975 10.2531 44.2669C11.0928 43.5626 11.9056 43.6297 12.9424 43.6907Z" fill="#FEE2F5"/>
<path d="M78.0623 38.6965C78.4947 38.7509 78.9268 38.8073 79.3589 38.8646C79.7199 38.9114 79.7199 38.9114 80.0882 38.9591C80.6529 39.0626 81.0342 39.1729 81.5199 39.4649C80.2143 39.7308 79.3069 39.5321 78.0623 39.0807C78.0623 38.9539 78.0623 38.8271 78.0623 38.6965Z" fill="#9BD17D"/>
<path d="M13.3268 22.1774C13.3902 22.3041 13.4536 22.4309 13.5189 22.5615C13.2742 23.2288 12.8618 23.6028 12.3663 24.0982C11.9709 24.6022 11.5909 25.117 11.2138 25.6349C11.087 25.5715 10.9602 25.5081 10.8296 25.4428C10.9616 25.2714 11.0936 25.1001 11.2295 24.9235C11.4044 24.6965 11.5792 24.4694 11.754 24.2423C11.8408 24.1296 11.9276 24.0169 12.017 23.9009C12.4572 23.329 12.8956 22.7561 13.3268 22.1774Z" fill="#F2A8CD"/>
<path d="M60.5819 21.9854C61.2782 22.0574 61.2782 22.0574 61.9265 22.1774C61.9265 22.3042 61.9265 22.431 61.9265 22.5616C62.0533 22.6884 62.1801 22.8151 62.3107 22.9458C61.6768 22.8824 61.0429 22.819 60.3898 22.7537C60.3898 23.0706 60.3898 23.3876 60.3898 23.7141C60.3264 23.7141 60.263 23.7141 60.1977 23.7141C60.1737 23.0658 60.1737 23.0658 60.1977 22.3695C60.3245 22.2427 60.4513 22.116 60.5819 21.9854Z" fill="#331924"/>
<path d="M103.995 67.7009C104.466 68.408 104.423 68.9386 104.403 69.7538C104.402 69.8886 104.4 70.0235 104.398 70.1624C104.394 70.4944 104.387 70.8264 104.379 71.1584C103.971 70.4843 103.916 69.8847 103.863 69.1055C103.846 68.8829 103.83 68.6603 103.813 68.431C103.81 68.2535 103.806 68.0759 103.803 67.893C103.866 67.8296 103.93 67.7662 103.995 67.7009Z" fill="#9FD682"/>
<path d="M91.5088 59.6335C91.6356 59.6335 91.7624 59.6335 91.893 59.6335C91.893 59.7603 91.893 59.8871 91.893 60.0177C92.1465 60.0811 92.4001 60.1445 92.6614 60.2098C92.6614 60.3366 92.6614 60.4633 92.6614 60.594C92.9149 60.7207 93.1685 60.8475 93.4297 60.9781C93.4297 61.3584 93.4297 61.7388 93.4297 62.1306C93.2574 61.9107 93.2574 61.9107 93.0816 61.6864C92.6921 61.1868 92.6921 61.1868 92.3252 60.8461C92.0851 60.594 92.0851 60.594 92.0851 60.2098C91.9583 60.2098 91.8315 60.2098 91.7009 60.2098C91.6375 60.0196 91.5741 59.8295 91.5088 59.6335Z" fill="#A2D383"/>
<path d="M41.9487 41.7699C42.5192 41.865 42.5192 41.865 43.1013 41.962C43.0379 42.2155 42.9745 42.4691 42.9092 42.7303C43.0994 42.7937 43.2895 42.8571 43.4855 42.9224C42.9784 43.1126 42.4712 43.3027 41.9487 43.4986C41.9487 42.9282 41.9487 42.3577 41.9487 41.7699Z" fill="#90CD6F"/>
<path d="M44.4458 31.5895C44.5546 31.7109 44.5546 31.7109 44.6657 31.8348C45.6575 32.822 46.5331 32.9291 47.9035 32.9341C47.9035 32.9974 47.9035 33.0608 47.9035 33.1261C47.4997 33.1739 47.0954 33.2171 46.6909 33.2582C46.4658 33.2827 46.2407 33.3072 46.0088 33.3325C45.4063 33.3182 45.4063 33.3182 45.0521 33.0721C44.7403 32.6087 44.6 32.1231 44.4458 31.5895Z" fill="#9DCE7E"/>
<path d="M60.0055 22.5616C60.0688 22.5616 60.1322 22.5616 60.1975 22.5616C60.2945 23.0257 60.3904 23.4899 60.4857 23.9542C60.5132 24.0852 60.5407 24.2162 60.569 24.3512C60.6994 24.9908 60.7738 25.5549 60.7738 26.2112C60.647 26.2112 60.5203 26.2112 60.3896 26.2112C60.015 24.9703 59.9627 23.854 60.0055 22.5616Z" fill="#210913"/>
<path d="M16.4003 18.5278C16.6395 19.0063 16.5495 19.183 16.4003 19.6803C16.222 19.7041 16.222 19.7041 16.0401 19.7283C15.6061 19.83 15.6061 19.83 15.4518 20.2086C15.3845 20.3512 15.3171 20.4938 15.2477 20.6407C14.9351 20.9682 14.616 21.2898 14.2873 21.6012C14.1605 21.5378 14.0337 21.4744 13.9031 21.4091C14.0286 21.2902 14.0286 21.2902 14.1567 21.169C15.0021 20.3493 15.7195 19.4878 16.4003 18.5278Z" fill="#F1A8CC"/>
<path d="M50.7851 7.57916C50.7851 7.64255 50.7851 7.70594 50.7851 7.77125C50.6226 7.78066 50.4602 7.79007 50.2928 7.79976C48.8293 7.88973 48.8293 7.88973 47.3994 8.19143C47.0785 8.26868 47.0785 8.26868 46.7511 8.3475C46.5609 8.22072 46.3707 8.09395 46.1748 7.96333C47.6935 7.45712 49.2039 7.54463 50.7851 7.57916Z" fill="#532D40"/>
<path d="M101.882 89.2142C102.009 89.4678 102.136 89.7213 102.266 89.9826C102.143 90.0975 102.021 90.2123 101.894 90.3307C101.459 90.7332 101.459 90.7332 101.306 91.3271C101.052 91.2638 100.799 91.2004 100.537 91.1351C101.203 90.1843 101.203 90.1843 101.882 89.2142Z" fill="#E897BF"/>
<path d="M101.69 55.2156C102.269 55.5052 102.293 55.9219 102.494 56.5241C102.564 56.7274 102.634 56.9307 102.707 57.1402C102.839 57.6968 102.85 57.9558 102.65 58.481C102.294 57.947 102.135 57.5623 101.954 56.9563C101.904 56.7922 101.854 56.628 101.802 56.4589C101.69 55.9839 101.69 55.9839 101.69 55.2156Z" fill="#8FBF73"/>
<path d="M95.3508 32.1658C95.7312 32.2925 96.1115 32.4193 96.5034 32.5499C96.5668 33.2472 96.6302 33.9445 96.6955 34.6628C96.5687 34.6628 96.4419 34.6628 96.3113 34.6628C95.9943 33.8388 95.6774 33.0148 95.3508 32.1658Z" fill="#E89BC1"/>
<path d="M91.3168 99.5867C91.3168 100.163 91.3168 100.163 90.8126 100.679C90.3235 101.068 90.1712 101.123 89.516 101.183C89.3496 101.164 89.1832 101.144 89.0117 101.123C89.7404 100.505 90.4828 100.045 91.3168 99.5867Z" fill="#E094B9"/>
<path d="M23.1235 48.877C23.2662 48.9958 23.4088 49.1147 23.5557 49.2371C24.0455 49.6443 24.0455 49.6443 24.5042 49.8494C24.8524 50.0294 24.8524 50.0294 25.2366 50.6057C24.5537 50.6678 24.2039 50.6932 23.6398 50.2816C23.2882 49.7997 23.1888 49.4646 23.1235 48.877Z" fill="#19180F"/>
<path d="M9.10072 28.132C9.2275 28.132 9.35428 28.132 9.4849 28.132C9.4334 28.231 9.38189 28.33 9.32883 28.4321C9.14446 28.8105 8.97593 29.1966 8.81257 29.5846C8.52443 30.2449 8.52443 30.2449 8.14025 30.8211C7.95007 30.8211 7.7599 30.8211 7.56396 30.8211C7.74772 30.4808 7.93189 30.1407 8.11623 29.8007C8.21875 29.6113 8.32126 29.4218 8.42689 29.2267C8.71653 28.7082 8.71653 28.7082 9.10072 28.132Z" fill="#F2A3C7"/>
<path d="M102.074 79.418C102.201 79.418 102.328 79.418 102.458 79.418C102.458 79.6081 102.458 79.7983 102.458 79.9942C102.585 79.9942 102.712 79.9942 102.842 79.9942C102.652 80.6281 102.462 81.262 102.266 81.915C102.203 81.915 102.139 81.915 102.074 81.915C102.074 81.091 102.074 80.267 102.074 79.418Z" fill="#B2E294"/>
<path d="M103.611 62.7068C103.995 63.091 103.995 63.091 104.031 63.8113C104.015 64.4811 103.934 65.1222 103.803 65.7801C103.676 65.7801 103.549 65.7801 103.419 65.7801C103.231 64.9564 103.221 64.5934 103.611 63.8593C103.643 63.251 103.643 63.251 103.611 62.7068Z" fill="#98D47C"/>
<path d="M87.0908 54.6394C87.2176 54.6394 87.3444 54.6394 87.475 54.6394C87.475 54.893 87.475 55.1465 87.475 55.4077C87.6573 55.4632 87.8395 55.5187 88.0273 55.5758C88.6276 55.7919 88.6276 55.7919 89.0118 56.1761C88.9397 56.5842 88.9397 56.5842 88.8197 56.9444C88.4276 56.634 88.0435 56.3133 87.6671 55.984C87.6671 55.8572 87.6671 55.7304 87.6671 55.5998C87.5403 55.5998 87.4135 55.5998 87.2829 55.5998C87.2195 55.2829 87.1561 54.9659 87.0908 54.6394Z" fill="#A1D57E"/>
<path d="M77.9249 39.254C78.189 39.2574 78.189 39.2574 78.4584 39.2608C78.635 39.2625 78.8115 39.2642 78.9934 39.266C79.1299 39.2683 79.2663 39.2705 79.4069 39.2728C78.8306 39.657 78.8306 39.657 78.3384 39.849C77.846 40.0158 77.846 40.0158 77.4859 40.4253C77.4859 40.2985 77.4859 40.1717 77.4859 40.0411C77.2958 40.1045 77.1056 40.1679 76.9097 40.2332C77.3721 39.2777 77.3721 39.2777 77.9249 39.254Z" fill="#10200A"/>
<path d="M45.7906 41.9619C45.3557 42.3968 45.1547 42.439 44.566 42.5622C44.4179 42.5944 44.2698 42.6266 44.1173 42.6597C43.6776 42.7303 43.6776 42.7303 42.9092 42.7303C42.9092 42.6035 42.9092 42.4767 42.9092 42.3461C43.9165 42.0103 44.7289 41.9247 45.7906 41.9619Z" fill="#9ED17C"/>
<path d="M39.2593 27.9399C40.1347 28.0241 40.7147 28.1033 41.3723 28.7083C40.9881 28.9004 40.9881 28.9004 40.5079 28.7923C40.3494 28.7646 40.1909 28.7368 40.0277 28.7083C39.9009 28.835 39.7741 28.9618 39.6435 29.0924C39.5167 28.9657 39.3899 28.8389 39.2593 28.7083C39.2593 28.4522 39.2593 28.1961 39.2593 27.9399Z" fill="#98CE7B"/>
<path d="M28.3101 27.5558C28.4368 27.6192 28.5636 27.6826 28.6942 27.7479C28.6942 27.8746 28.6942 28.0014 28.6942 28.132C28.5041 28.132 28.3139 28.132 28.118 28.132C28.0546 28.3222 27.9912 28.5124 27.9259 28.7083C27.613 28.9746 27.613 28.9746 27.2415 29.2245C27.0569 29.3504 27.0569 29.3504 26.8686 29.4789C26.7738 29.5415 26.6789 29.6042 26.5812 29.6687C26.4544 29.6053 26.3276 29.5419 26.197 29.4766C27.243 28.5258 27.243 28.5258 28.3101 27.5558Z" fill="#2B111C"/>
<path d="M69.8024 21.7932C69.9292 21.92 70.056 22.0468 70.1866 22.1774C69.7789 22.3111 69.3706 22.4428 68.962 22.5735C68.621 22.6839 68.621 22.6839 68.2731 22.7964C67.6894 22.9457 67.6894 22.9457 67.3052 22.7536C67.7688 22.1982 68.1503 22.061 68.8539 21.9253C69.0226 21.8904 69.1912 21.8554 69.3649 21.8195C69.5815 21.8065 69.5815 21.8065 69.8024 21.7932Z" fill="#1D0812"/>
<path d="M71.9153 21.0249C72.0421 21.0883 72.1688 21.1517 72.2995 21.217C71.2777 22.3239 71.2777 22.3239 70.5706 22.3695C70.3134 22.3098 70.0571 22.2463 69.8022 22.1774C70.1454 21.9795 70.4898 21.7838 70.8348 21.5891C71.0264 21.48 71.2181 21.3708 71.4155 21.2583C71.5804 21.1812 71.7454 21.1042 71.9153 21.0249Z" fill="#DD91B6"/>
<path d="M17.5527 79.6101C17.7429 79.6735 17.9331 79.7369 18.129 79.8022C18.1924 80.4361 18.2558 81.0699 18.3211 81.723C18.4479 81.723 18.5747 81.723 18.7053 81.723C18.7053 81.9132 18.7053 82.1033 18.7053 82.2993C18.5151 82.2359 18.325 82.1725 18.129 82.1072C17.9467 81.7373 17.9467 81.7373 17.8049 81.2788C17.7324 81.0541 17.7324 81.0541 17.6585 80.8249C17.5527 80.3784 17.5527 80.3784 17.5527 79.6101Z" fill="#9ED181"/>
<path d="M28.8862 71.9268C29.1215 72.6177 29.044 73.1588 28.9222 73.8716C28.8893 74.0741 28.8564 74.2767 28.8224 74.4854C28.6941 75.0001 28.6941 75.0001 28.3099 75.3842C28.2588 74.1318 28.3154 73.0684 28.8862 71.9268Z" fill="#A8D689"/>
<path d="M119.362 51.1819C119.426 51.1819 119.489 51.1819 119.554 51.1819C119.618 52.2595 119.681 53.3371 119.747 54.4473C119.375 53.8907 119.257 53.5633 119.122 52.9226C119.086 52.7585 119.049 52.5943 119.011 52.4252C118.974 51.8844 119.08 51.6362 119.362 51.1819Z" fill="#F5A8CE"/>
<path d="M87.859 28.132C88.3993 28.5041 88.3993 28.5041 88.8195 28.9003C88.8195 29.0271 88.8195 29.1539 88.8195 29.2845C88.6927 29.2845 88.5659 29.2845 88.4353 29.2845C88.364 29.1894 88.2927 29.0943 88.2192 28.9963C87.6341 28.5283 87.0546 28.6722 86.3223 28.7082C86.3857 28.5181 86.449 28.3279 86.5144 28.132C87.0477 27.8653 87.2923 27.9606 87.859 28.132Z" fill="#9CD47D"/>
<path d="M73.4521 19.2961C73.5789 19.4229 73.7057 19.5497 73.8363 19.6803C73.5971 19.8974 73.3568 20.1133 73.116 20.3286C72.9823 20.4489 72.8485 20.5693 72.7108 20.6932C72.3293 21.0009 71.977 21.2103 71.5312 21.4091C71.4678 21.2189 71.4044 21.0287 71.3391 20.8328C71.5927 20.8328 71.8462 20.8328 72.1075 20.8328C72.1075 20.706 72.1075 20.5793 72.1075 20.4486C72.2263 20.4328 72.3452 20.4169 72.4677 20.4006C72.9093 20.2938 72.9093 20.2938 73.104 19.8724C73.1555 19.7456 73.207 19.6188 73.26 19.4882C73.3234 19.4248 73.3868 19.3615 73.4521 19.2961Z" fill="#240C17"/>
<path d="M27.1574 9.69202C27.2208 9.81879 27.2842 9.94557 27.3495 10.0762C26.2689 11.0366 26.2689 11.0366 25.6206 11.0366C25.5572 11.2268 25.4938 11.4169 25.4285 11.6128C25.175 11.5495 24.9214 11.4861 24.6602 11.4208C25.3805 10.8445 25.3805 10.8445 25.8127 10.8445C25.8127 10.7177 25.8127 10.591 25.8127 10.4603C26.2565 10.2068 26.7002 9.95325 27.1574 9.69202Z" fill="#F4A9CC"/>
<path d="M74.9888 7.77124C75.1156 7.9614 75.2424 8.15156 75.373 8.34749C75.1828 8.41088 74.9927 8.47426 74.7967 8.53957C74.8601 8.28602 74.9235 8.03247 74.9888 7.77124ZM74.4126 8.34749C74.8087 8.67163 74.8087 8.67163 75.1809 9.11582C75.1329 9.64405 75.1329 9.64405 74.9888 10.0762C74.5926 9.64405 74.5926 9.64405 74.2205 9.11582C74.2685 8.67163 74.2685 8.67163 74.4126 8.34749Z" fill="#ED96C2"/>
<path d="M103.803 100.931C103.866 101.121 103.93 101.312 103.995 101.508C103.391 102.405 102.965 102.792 101.882 103.044C102.498 102.313 103.113 101.595 103.803 100.931Z" fill="#FEE7F7"/>
<path d="M100.537 52.5265C100.664 52.5265 100.791 52.5265 100.922 52.5265C101.05 52.8383 101.178 53.1505 101.306 53.4629C101.413 53.7236 101.413 53.7236 101.522 53.9896C101.69 54.4473 101.69 54.4473 101.69 54.8315C101.563 54.8315 101.436 54.8315 101.306 54.8315C100.748 54.0959 100.626 53.434 100.537 52.5265Z" fill="#90C377"/>
<path d="M96.8875 37.9282C96.9508 37.9282 97.0142 37.9282 97.0795 37.9282C97.0795 38.7523 97.0795 39.5763 97.0795 40.4253C97.2063 40.4887 97.3331 40.5521 97.4637 40.6174C97.4003 40.7442 97.337 40.8709 97.2716 41.0015C97.3984 41.0015 97.5252 41.0015 97.6558 41.0015C97.6558 41.1283 97.6558 41.2551 97.6558 41.3857C97.4023 41.3857 97.1487 41.3857 96.8875 41.3857C96.8875 40.2447 96.8875 39.1038 96.8875 37.9282Z" fill="#DA8BB0"/>
<path d="M7.37176 31.0132C7.58636 31.7275 7.58636 31.7275 7.38376 32.2137C7.28273 32.3801 7.28273 32.3801 7.17966 32.5498C7.05288 32.5498 6.9261 32.5498 6.79547 32.5498C6.76774 32.7004 6.74001 32.8509 6.71143 33.006C6.60338 33.5103 6.60338 33.5103 6.41129 33.8944C6.28451 33.8944 6.15772 33.8944 6.0271 33.8944C6.32397 32.8419 6.82533 31.9516 7.37176 31.0132Z" fill="#F2A7CA"/>
<path d="M42.717 29.4766C43.5122 30.1105 44.1744 30.6623 44.638 31.5895C44.4478 31.6846 44.4478 31.6846 44.2538 31.7816C44.127 31.7182 44.0002 31.6548 43.8696 31.5895C43.8498 31.4746 43.83 31.3597 43.8096 31.2413C43.6211 30.6418 43.1995 30.4363 42.717 30.0528C42.717 29.8626 42.717 29.6725 42.717 29.4766Z" fill="#90C273"/>
<path d="M93.814 29.4766C94.2894 29.5716 94.2894 29.5716 94.7744 29.6686C94.9012 30.1124 95.028 30.5561 95.1586 31.0132C94.9684 31.1083 94.9684 31.1083 94.7744 31.2053C94.4575 30.6348 94.1405 30.0643 93.814 29.4766Z" fill="#E998BF"/>
<path d="M86.1301 24.2903C87.2086 24.5908 88.2178 24.898 89.2036 25.4428C89.2036 25.5062 89.2036 25.5696 89.2036 25.6349C88.7599 25.5715 88.3162 25.5081 87.859 25.4428C87.859 25.316 87.859 25.1892 87.859 25.0586C87.0032 24.8685 87.0032 24.8685 86.1301 24.6744C86.1301 24.5477 86.1301 24.4209 86.1301 24.2903Z" fill="#210813"/>
<path d="M88.8196 14.302C89.0731 14.302 89.3267 14.302 89.588 14.302C90.1717 15.4208 90.2323 16.3154 90.1642 17.5674C90.1008 17.5674 90.0375 17.5674 89.9721 17.5674C89.9439 17.3345 89.9439 17.3345 89.9151 17.097C89.7216 15.5435 89.7216 15.5435 88.8196 14.302Z" fill="#F1A5CC"/>
<path d="M104.187 85.1805C104.314 85.2439 104.441 85.3073 104.571 85.3726C104.451 85.9345 104.312 86.4259 103.995 86.9093C103.741 86.9727 103.488 87.0361 103.227 87.1014C103.544 86.4675 103.86 85.8336 104.187 85.1805Z" fill="#EB9AC3"/>
<path d="M115.136 83.0676C115.387 83.8198 115.198 84.0355 114.86 84.7363C114.769 84.9272 114.679 85.1182 114.585 85.3148C114.478 85.5336 114.478 85.5336 114.368 85.7568C113.984 85.0365 113.984 85.0365 113.984 84.6043C114.174 84.4775 114.364 84.3507 114.56 84.2201C114.764 83.8422 114.958 83.4583 115.136 83.0676Z" fill="#F2A5CA"/>
<path d="M54.4348 23.7141C54.3714 23.8409 54.308 23.9676 54.2427 24.0982C53.5853 24.3174 53.0735 24.3092 52.3818 24.3023C52.0419 24.2997 52.0419 24.2997 51.6952 24.2971C51.5216 24.2948 51.348 24.2926 51.1692 24.2903C51.1692 24.2269 51.1692 24.1635 51.1692 24.0982C53.3824 23.6572 53.3824 23.6572 54.4348 23.7141Z" fill="#CC8FAF"/>
<path d="M79.599 116.682C79.2594 116.843 78.9191 117.003 78.5785 117.162C78.2943 117.296 78.2943 117.296 78.0045 117.432C77.4859 117.642 77.4859 117.642 76.9097 117.642C76.9097 117.516 76.9097 117.389 76.9097 117.258C77.2852 117.124 77.6616 116.993 78.0382 116.862C78.2477 116.789 78.4572 116.715 78.673 116.639C79.2148 116.49 79.2148 116.49 79.599 116.682Z" fill="#F0A8CC"/>
<path d="M60.5817 51.1819C60.4549 51.3087 60.3281 51.4354 60.1975 51.5661C60.1508 52.0788 60.1508 52.0788 60.1735 52.6465C60.1787 52.9355 60.1787 52.9355 60.184 53.2303C60.1884 53.3783 60.1929 53.5264 60.1975 53.679C59.8133 53.2948 59.8133 53.2948 59.7758 52.8791C59.7802 52.7231 59.7847 52.5671 59.7893 52.4064C59.7928 52.2494 59.7962 52.0925 59.7998 51.9307C59.8065 51.7502 59.8065 51.7502 59.8133 51.5661C59.5597 51.5027 59.3062 51.4393 59.0449 51.374C60.1495 50.9658 60.1495 50.9658 60.5817 51.1819Z" fill="#D8BDAA"/>
<path d="M26.5813 27.7478C27.0567 27.938 27.0567 27.938 27.5417 28.132C27.3025 28.8497 27.0357 28.9363 26.3892 29.2845C26.4248 29.1656 26.4605 29.0468 26.4972 28.9243C26.6268 28.5081 26.6268 28.5081 26.3892 28.132C26.4526 28.0052 26.5159 27.8784 26.5813 27.7478Z" fill="#ED9AC2"/>
<path d="M47.7101 7.14722C47.9228 7.16381 47.9228 7.16381 48.1399 7.18075C48.294 7.19127 48.4482 7.20179 48.607 7.21264C48.7671 7.22663 48.9272 7.24062 49.0921 7.25503C49.3356 7.27267 49.3356 7.27267 49.584 7.29067C49.9845 7.32008 50.3848 7.35323 50.7849 7.38709C50.7849 7.45047 50.7849 7.51386 50.7849 7.57917C48.7881 7.67425 48.7881 7.67425 46.751 7.77125C47.3273 7.195 47.3273 7.195 47.7101 7.14722Z" fill="#F0A1CA"/>
<path d="M113.215 86.9093C113.342 86.9093 113.469 86.9093 113.6 86.9093C113.328 87.8366 112.941 88.5835 112.447 89.4064C112.315 89.0702 112.315 89.0702 112.255 88.638C112.507 88.2659 112.507 88.2659 112.831 87.8697C112.968 87.5532 113.098 87.2336 113.215 86.9093Z" fill="#F0A5CA"/>
<path d="M20.6262 86.333C21.0794 86.7862 21.1048 87.0589 21.2025 87.6776C21.3292 87.6776 21.456 87.6776 21.5866 87.6776C21.65 87.9945 21.7134 88.3115 21.7787 88.638C21.0437 87.9803 20.6794 87.4841 20.4341 86.5251C20.4975 86.4617 20.5609 86.3983 20.6262 86.333Z" fill="#9ACF7E"/>
<path d="M26.0048 49.069C26.1369 49.4171 26.1369 49.4171 26.1969 49.8373C25.9808 50.1734 25.9808 50.1734 25.6206 50.4135C25.1044 50.4496 25.1044 50.4496 24.6602 50.4135C25.1084 49.9654 25.5566 49.5172 26.0048 49.069Z" fill="#021101"/>
<path d="M65.1921 48.4928C64.8118 48.6829 64.8118 48.6829 64.4238 48.8769C64.4238 49.0037 64.4238 49.1305 64.4238 49.2611C64.0434 49.4513 64.0434 49.4513 63.6554 49.6453C63.4652 49.5185 63.275 49.3917 63.0791 49.2611C63.8085 48.7184 64.2673 48.384 65.1921 48.4928Z" fill="#DFBEA9"/>
<path d="M70.7627 45.4194C70.8895 45.4194 71.0163 45.4194 71.1469 45.4194C71.2737 45.673 71.4005 45.9265 71.5311 46.1878C71.267 46.5839 71.267 46.5839 70.7627 46.9561C70.1095 46.9674 69.4842 46.8768 68.8418 46.764C68.8418 46.7006 68.8418 46.6372 68.8418 46.5719C69.8877 46.4768 69.8877 46.4768 70.9548 46.3798C70.8914 46.0629 70.828 45.746 70.7627 45.4194Z" fill="#1C2F13"/>
<path d="M40.2198 44.459C40.2198 45.0352 40.2198 45.0352 39.8836 45.3856C39.741 45.5037 39.5983 45.6218 39.4514 45.7435C39.3088 45.8631 39.1661 45.9827 39.0192 46.1059C38.9082 46.1963 38.7973 46.2867 38.683 46.3798C38.5562 46.253 38.4295 46.1263 38.2988 45.9956C38.9327 45.4885 39.5666 44.9814 40.2198 44.459Z" fill="#0D1F07"/>
<path d="M56.3317 44.1948C57.0522 44.2813 57.2518 44.4831 57.7004 45.0352C57.5102 45.162 57.32 45.2887 57.1241 45.4194C57.0607 45.1658 56.9973 44.9123 56.932 44.651C56.4249 44.651 55.9178 44.651 55.3953 44.651C55.7795 44.2669 55.7795 44.2669 56.3317 44.1948Z" fill="#182D10"/>
<path d="M100.537 104.197C100.537 104.773 100.537 104.773 100.201 105.123C100.059 105.241 99.916 105.36 99.769 105.481C99.6264 105.601 99.4838 105.72 99.3368 105.844C99.2259 105.934 99.1149 106.024 99.0006 106.117C98.8739 106.054 98.7471 105.991 98.6165 105.925C98.9283 105.597 99.2491 105.277 99.5769 104.965C99.7037 104.965 99.8305 104.965 99.9611 104.965C99.9611 104.838 99.9611 104.711 99.9611 104.581C100.151 104.454 100.341 104.327 100.537 104.197Z" fill="#FEE7F6"/>
<path d="M49.2482 28.9003C49.2482 29.0271 49.2482 29.1539 49.2482 29.2845C48.4875 29.4113 47.7269 29.5381 46.9431 29.6687C46.9431 29.5419 46.9431 29.4151 46.9431 29.2845C47.7456 28.9788 48.3899 28.8595 49.2482 28.9003Z" fill="#E69EC2"/>
<path d="M86.1303 14.11C85.8368 14.7703 85.4576 15.2989 84.9777 15.8387C84.8509 15.8387 84.7241 15.8387 84.5935 15.8387C84.8452 15.0838 85.2177 14.11 86.1303 14.11Z" fill="#FDDDF0"/>
<path d="M16.0161 84.028C16.2062 84.028 16.3964 84.028 16.5923 84.028C16.6557 84.7252 16.7191 85.4225 16.7844 86.1409C16.2711 85.4564 16.0597 85.018 15.824 84.22C15.8874 84.1566 15.9508 84.0933 16.0161 84.028Z" fill="#18070F"/>
<path d="M68.8418 55.4077C69.032 55.4711 69.2222 55.5345 69.4181 55.5998C68.9744 56.1069 68.5306 56.614 68.0734 57.1365C68.0101 56.8829 67.9467 56.6294 67.8813 56.3681C68.1349 56.3047 68.3885 56.2414 68.6497 56.176C68.7131 55.9225 68.7765 55.6689 68.8418 55.4077Z" fill="#F3D1BB"/>
<path d="M18.1291 54.0631C18.2559 54.0631 18.3827 54.0631 18.5133 54.0631C18.2349 54.7913 17.9079 55.4821 17.5528 56.176C17.3545 55.6404 17.3521 55.4331 17.5408 54.8795C17.6082 54.7368 17.6755 54.5942 17.7449 54.4473C17.8717 54.4473 17.9985 54.4473 18.1291 54.4473C18.1291 54.3205 18.1291 54.1937 18.1291 54.0631Z" fill="#DB97B8"/>
<path d="M37.3384 45.9956C37.6554 45.9956 37.9724 45.9956 38.2989 45.9956C38.1087 46.2808 38.1087 46.2808 37.9147 46.5719C37.7879 46.5719 37.6612 46.5719 37.5305 46.5719C37.4038 46.8254 37.277 47.079 37.1463 47.3402C36.9562 47.2768 36.766 47.2134 36.5701 47.1481C36.5701 47.0213 36.5701 46.8946 36.5701 46.7639C36.8236 46.7639 37.0772 46.7639 37.3384 46.7639C37.3384 46.5104 37.3384 46.2568 37.3384 45.9956Z" fill="#8FC074"/>
<path d="M88.6275 45.0353C88.7542 45.0987 88.881 45.1621 89.0116 45.2274C89.0263 46.0948 89.0313 46.8775 88.8195 47.7244C88.7562 47.7244 88.6928 47.7244 88.6275 47.7244C88.4778 46.7599 88.4104 46.0001 88.6275 45.0353Z" fill="#7BA962"/>
<path d="M11.9219 43.4746C12.2083 43.4798 12.2083 43.4798 12.5005 43.4851C12.6463 43.4896 12.7922 43.494 12.9424 43.4986C12.9424 43.562 12.9424 43.6254 12.9424 43.6907C12.8288 43.7001 12.7151 43.7095 12.598 43.7192C11.3845 43.8325 11.3845 43.8325 10.2531 44.267C10.1897 44.3937 10.1263 44.5205 10.061 44.6511C10.1211 44.291 10.1211 44.291 10.2531 43.8828C10.9103 43.4447 11.1525 43.4565 11.9219 43.4746Z" fill="#F0A5CA"/>
<path d="M45.4062 23.33C46.212 23.4451 46.9449 23.6325 47.7114 23.9062C47.7114 24.033 47.7114 24.1598 47.7114 24.2904C47.3987 24.2413 47.0867 24.1886 46.7749 24.1343C46.6011 24.1053 46.4273 24.0764 46.2482 24.0465C45.7904 23.9062 45.7904 23.9062 45.4062 23.33Z" fill="#E59DC1"/>
<path d="M40.7961 116.682C41.8119 116.762 42.3554 116.942 43.1013 117.642C42.2244 117.538 41.5697 117.298 40.7961 116.874C40.7961 116.811 40.7961 116.747 40.7961 116.682Z" fill="#F2ADCF"/>
<path d="M100.153 86.1409C99.9436 86.8661 99.7865 87.3837 99.1926 87.8696C99.3052 86.6879 99.3052 86.6879 99.3847 86.333C99.7689 86.1409 99.7689 86.1409 100.153 86.1409Z" fill="#9BC682"/>
<path d="M30.423 67.7009C30.4864 67.7009 30.5498 67.7009 30.6151 67.7009C30.6758 68.7114 30.5509 69.3232 30.0388 70.198C29.8114 69.5156 29.9053 69.2955 30.1229 68.6253C30.1781 68.4522 30.2333 68.2792 30.2902 68.1008C30.334 67.9689 30.3779 67.8369 30.423 67.7009Z" fill="#EAFADF"/>
<path d="M90.3562 58.4811C90.9256 59.0205 91.4022 59.4767 91.7009 60.2098C91.8276 60.2098 91.9544 60.2098 92.085 60.2098C92.085 60.3366 92.085 60.4634 92.085 60.594C91.3574 60.3514 91.047 60.0189 90.5483 59.4415C90.3922 58.9013 90.3922 58.9013 90.3562 58.4811Z" fill="#E4F9D8"/>
<path d="M36.57 50.7977C37.0137 50.9245 37.4575 51.0513 37.9146 51.1819C37.5304 51.5661 37.5304 51.5661 36.9302 51.5901C36.6568 51.5782 36.6568 51.5782 36.3779 51.5661C36.3145 51.4393 36.2511 51.3125 36.1858 51.1819C36.3126 51.1819 36.4394 51.1819 36.57 51.1819C36.57 51.0551 36.57 50.9283 36.57 50.7977Z" fill="#15250E"/>
<path d="M42.3328 25.6349C42.9033 25.6983 43.4738 25.7617 44.0616 25.827C43.9982 26.0805 43.9348 26.3341 43.8695 26.5953C43.3624 26.3418 42.8553 26.0882 42.3328 25.827C42.3328 25.7636 42.3328 25.7002 42.3328 25.6349Z" fill="#E599BE"/>
<path d="M47.1352 19.8724C47.6106 20.0865 48.0339 20.3683 48.4798 20.6408C48.4798 20.7042 48.4798 20.7675 48.4798 20.8328C47.1832 20.6648 47.1832 20.6648 46.751 20.4487C46.751 20.3219 46.751 20.1951 46.751 20.0645C46.8778 20.0011 47.0045 19.9377 47.1352 19.8724Z" fill="#99CF7B"/>
<path d="M56.1636 13.5337C56.2715 13.5651 56.3795 13.5966 56.4907 13.629C56.957 13.7313 57.3678 13.7448 57.8444 13.7378C58.0747 13.7352 58.0747 13.7352 58.3096 13.7325C58.4835 13.7292 58.4835 13.7292 58.6608 13.7258C58.6608 13.8525 58.6608 13.9793 58.6608 14.1099C57.9635 14.1733 57.2662 14.2367 56.5478 14.302C56.421 14.0485 56.2942 13.7949 56.1636 13.5337Z" fill="#93C377"/>
<path d="M94.006 97.4738C93.727 98.2093 93.3474 98.4573 92.6614 98.8183C92.7586 98.4018 92.8534 98.0501 93.0456 97.6658C93.6218 97.4738 93.6218 97.4738 94.006 97.4738Z" fill="#240E1A"/>
<path d="M31.1914 96.8976C31.7147 97.3495 31.924 97.786 32.1518 98.4342C31.7715 98.2441 31.3911 98.0539 30.9993 97.858C31.0627 97.5411 31.126 97.2241 31.1914 96.8976Z" fill="#B1D498"/>
<path d="M103.227 86.1409C103.353 86.1409 103.48 86.1409 103.611 86.1409C103.369 87.0068 103.053 87.5798 102.458 88.2538C102.387 87.1878 102.387 87.1878 102.734 86.7651C102.833 86.6859 102.933 86.6067 103.035 86.525C103.098 86.3983 103.161 86.2715 103.227 86.1409Z" fill="#280C19"/>
<path d="M15.6318 84.4121C15.7586 84.4121 15.8854 84.4121 16.016 84.4121C16.0794 84.9192 16.1428 85.4263 16.2081 85.9488C16.0179 85.9488 15.8277 85.9488 15.6318 85.9488C15.4212 85.3169 15.4782 85.0435 15.6318 84.4121Z" fill="#ED97C3"/>
<path d="M100.922 84.028C101.048 84.1547 101.175 84.2815 101.306 84.4121C100.989 84.9826 100.672 85.5531 100.345 86.1409C100.153 85.5646 100.153 85.5646 100.302 85.1722C100.376 85.0363 100.45 84.9003 100.525 84.7603C100.598 84.6228 100.671 84.4854 100.747 84.3438C100.804 84.2396 100.862 84.1354 100.922 84.028Z" fill="#98C676"/>
<path d="M16.7844 66.1643C17.3196 66.9671 17.1293 67.345 16.9765 68.2772C16.8497 68.2138 16.7229 68.1504 16.5923 68.0851C16.6557 67.4513 16.7191 66.8174 16.7844 66.1643Z" fill="#8DBC6E"/>
<path d="M37.7225 57.7126C37.8493 57.776 37.9761 57.8394 38.1067 57.9047C37.8128 58.1423 37.5189 58.3799 37.225 58.6175C36.9287 58.8587 36.9287 58.8587 36.7621 59.2493C36.5719 59.1859 36.3817 59.1225 36.1858 59.0572C36.681 58.5487 37.1302 58.1075 37.7225 57.7126Z" fill="#F2FBEA"/>
<path d="M59.2371 51.566C59.4272 51.566 59.6174 51.566 59.8133 51.566C59.8133 52.1365 59.8133 52.707 59.8133 53.2948C59.6866 53.2314 59.5598 53.168 59.4292 53.1027C59.3151 52.5939 59.2866 52.0862 59.2371 51.566Z" fill="#FEF2E5"/>
<path d="M48.0958 43.1144C48.2225 43.1144 48.3493 43.1144 48.48 43.1144C48.3288 43.7694 48.1205 44.3992 47.9037 45.0352C47.7135 44.845 47.5233 44.6549 47.3274 44.459C47.581 44.0152 47.8345 43.5715 48.0958 43.1144Z" fill="#96CA78"/>
<path d="M68.6497 8.92371C69.7136 9.04191 69.7136 9.04191 70.1624 9.41592C70.2694 9.5526 70.2694 9.5526 70.3785 9.69204C70.0543 9.82409 70.0543 9.82409 69.6101 9.88412C69.0819 9.63201 69.0819 9.63201 68.6497 9.30787C68.6497 9.1811 68.6497 9.05432 68.6497 8.92371Z" fill="#9CCD80"/>
<path d="M39.4513 115.722C39.5147 115.912 39.5781 116.102 39.6434 116.298C39.8336 116.361 40.0238 116.425 40.2197 116.49C39.8355 116.682 39.8355 116.682 39.4198 116.575C39.2638 116.519 39.1078 116.463 38.9471 116.406C38.7901 116.351 38.6331 116.296 38.4714 116.239C38.351 116.195 38.2307 116.151 38.1067 116.106C38.1067 116.042 38.1067 115.979 38.1067 115.914C38.7723 115.819 38.7723 115.819 39.4513 115.722Z" fill="#F5ACCD"/>
<path d="M26.7732 98.4342C27.5018 98.6267 28.0632 98.7819 28.6941 99.2025C28.504 99.4878 28.504 99.4878 28.3099 99.7788C28.0533 99.5914 27.7973 99.4032 27.5416 99.2145C27.3989 99.1098 27.2563 99.0051 27.1094 98.8972C26.9984 98.8078 26.8875 98.7184 26.7732 98.6263C26.7732 98.5629 26.7732 98.4995 26.7732 98.4342Z" fill="#2B121E"/>
<path d="M25.8129 97.0896C25.8763 97.2164 25.9397 97.3431 26.005 97.4738C26.3924 97.6915 26.3924 97.6915 26.7734 97.8579C26.7734 98.0481 26.7734 98.2383 26.7734 98.4342C25.6448 97.7139 25.6448 97.7139 25.4287 97.2817C25.5555 97.2183 25.6823 97.1549 25.8129 97.0896Z" fill="#250D19"/>
<path d="M97.4638 94.5925C97.4638 95.1688 97.4638 95.1688 97.0195 95.685C96.5033 96.1292 96.5033 96.1292 95.927 96.1292C96.4341 95.6221 96.9413 95.115 97.4638 94.5925Z" fill="#D490B2"/>
<path d="M84.9778 53.679C85.657 54.0461 86.09 54.3755 86.5145 55.0235C86.261 55.0235 86.0074 55.0235 85.7462 55.0235C85.7462 54.8968 85.7462 54.77 85.7462 54.6394C85.6194 54.6394 85.4926 54.6394 85.362 54.6394C85.362 54.4492 85.362 54.259 85.362 54.0631C85.2352 54.0631 85.1084 54.0631 84.9778 54.0631C84.9778 53.9363 84.9778 53.8096 84.9778 53.679Z" fill="#EFFCE3"/>
<path d="M41.5645 50.2214C41.5645 50.5416 41.5645 50.8617 41.5645 51.1818C41.3743 51.2452 41.1841 51.3086 40.9882 51.3739C40.8614 51.2472 40.7346 51.1204 40.604 50.9898C40.921 50.7362 41.2379 50.4827 41.5645 50.2214ZM40.7961 51.3739C41.0814 51.5641 41.0814 51.5641 41.3724 51.7581C41.1188 51.8215 40.8653 51.8849 40.604 51.9502C40.6674 51.76 40.7308 51.5699 40.7961 51.3739Z" fill="#91CA6E"/>
<path d="M43.1012 49.4532C42.5306 49.7701 41.9601 50.087 41.3723 50.4136C41.5644 49.6452 41.5644 49.6452 41.9126 49.3931C42.3328 49.2611 42.3328 49.2611 43.1012 49.4532Z" fill="#0C1C07"/>
<path d="M62.1185 46.5718C61.6114 46.8888 61.1043 47.2057 60.5818 47.5322C60.5818 46.956 60.5818 46.956 60.7739 46.5718C61.3451 46.3624 61.52 46.3723 62.1185 46.5718Z" fill="#95C678"/>
<path d="M100.729 45.9956C101.3 46.0907 101.3 46.0907 101.882 46.1877C101.819 46.6314 101.755 47.0751 101.69 47.5323C101.257 47.0159 100.944 46.6398 100.729 45.9956Z" fill="#E797BC"/>
<path d="M45.9827 41.7699C46.7618 41.8598 47.4168 41.9388 48.0957 42.3461C48.0323 42.5997 47.9689 42.8532 47.9036 43.1145C47.7293 42.9639 47.555 42.8134 47.3753 42.6583C46.9332 42.2884 46.5175 41.9962 45.9827 41.7699Z" fill="#9ED17E"/>
<path d="M115.328 36.9678C115.873 37.5831 116.005 38.0782 116.097 38.8886C115.713 38.6845 115.713 38.6845 115.328 38.3124C115.28 37.604 115.28 37.604 115.328 36.9678Z" fill="#F2A9CD"/>
<path d="M45.2144 27.7478C45.6581 28.1281 46.1018 28.5084 46.559 28.9003C46.3688 28.9637 46.1787 29.0271 45.9827 29.0924C45.5985 28.7442 45.5985 28.7442 45.2144 28.3241C45.2144 28.1339 45.2144 27.9437 45.2144 27.7478Z" fill="#230816"/>
<path d="M32.7281 25.6349C32.0535 26.0975 31.628 26.2816 30.8071 26.2112C31.8877 25.3828 31.8877 25.3828 32.7281 25.6349Z" fill="#290C18"/>
<path d="M75.9493 15.0703C76.0127 15.0703 76.0761 15.0703 76.1414 15.0703C76.1654 16.5349 76.1654 16.5349 75.9493 17.1832C75.7592 17.2466 75.569 17.31 75.373 17.3753C75.5632 16.6147 75.7534 15.854 75.9493 15.0703Z" fill="#D78DB0"/>
<path d="M44.0617 13.7258C44.2519 13.7258 44.442 13.7258 44.638 13.7258C44.5746 13.9794 44.5112 14.2329 44.4459 14.4942C44.3191 14.4942 44.1923 14.4942 44.0617 14.4942C44.0617 15.0013 44.0617 15.5084 44.0617 16.0308C43.9983 16.0308 43.9349 16.0308 43.8696 16.0308C43.8644 15.7547 43.8607 15.4786 43.8576 15.2025C43.8554 15.0487 43.8531 14.8949 43.8508 14.7365C43.8696 14.3021 43.8696 14.3021 44.0617 13.7258Z" fill="#75A15D"/>
<path d="M58.2768 8.1554C58.685 8.22743 58.685 8.22743 59.0451 8.34748C58.4746 8.82288 58.4746 8.82288 57.8926 9.30789C57.8926 8.53956 57.8926 8.53956 58.2768 8.1554Z" fill="#DB92B9"/>
<path d="M32.7281 6.61877C32.7281 6.74555 32.7281 6.87232 32.7281 7.00294C32.0714 7.4907 31.622 7.64903 30.8071 7.57919C32.0295 6.61877 32.0295 6.61877 32.7281 6.61877Z" fill="#F5AFCF"/>
<path d="M86.7065 6.42664C87.5738 6.52866 88.1178 6.88114 88.8196 7.38705C88.6294 7.48213 88.6294 7.48213 88.4354 7.57913C88.0685 7.44332 88.0685 7.44332 87.655 7.23098C87.5181 7.16239 87.3811 7.09381 87.2401 7.02314C86.8986 6.8108 86.8986 6.8108 86.7065 6.42664Z" fill="#F0A6CA"/>
<path d="M96.1192 95.3608C96.3094 95.4242 96.4996 95.4876 96.6955 95.5529C96.0299 96.1234 96.0299 96.1234 95.3508 96.7054C95.3508 96.4519 95.3508 96.1983 95.3508 95.9371C95.699 95.5889 95.699 95.5889 96.1192 95.3608Z" fill="#270B15"/>
<path d="M110.142 92.2876C110.269 92.351 110.396 92.4144 110.526 92.4797C110.051 93.3354 110.051 93.3354 109.566 94.2084C109.374 93.4401 109.374 93.4401 109.554 93.0079C109.621 92.897 109.688 92.7861 109.758 92.6718C109.885 92.6718 110.011 92.6718 110.142 92.6718C110.142 92.545 110.142 92.4182 110.142 92.2876Z" fill="#F1A6C9"/>
<path d="M18.5132 89.4064C18.64 89.4064 18.7667 89.4064 18.8974 89.4064C18.8974 89.5331 18.8974 89.6599 18.8974 89.7905C19.0875 89.8539 19.2777 89.9173 19.4737 89.9826C19.7138 90.3428 19.7138 90.3428 19.8578 90.7509C19.7944 90.9411 19.7311 91.1313 19.6657 91.3272C19.4731 91.0434 19.2811 90.7592 19.0895 90.4748C18.9825 90.3166 18.8755 90.1584 18.7653 89.9954C18.5132 89.5985 18.5132 89.5985 18.5132 89.4064Z" fill="#2A0F1C"/>
<path d="M26.1969 48.6848C26.2603 48.875 26.3237 49.0651 26.389 49.2611C26.5158 49.2611 26.6426 49.2611 26.7732 49.2611C26.6464 49.6414 26.5196 50.0217 26.389 50.4136C26.1989 50.2868 26.0087 50.16 25.8127 50.0294C25.9395 49.5857 26.0663 49.142 26.1969 48.6848Z" fill="#8FC26F"/>
<path d="M40.7962 43.4985C41.1132 43.4985 41.4301 43.4985 41.7567 43.4985C41.2033 43.9597 40.6879 44.3577 40.0278 44.651C40.0278 44.4609 40.0278 44.2707 40.0278 44.0748C40.218 44.0114 40.4082 43.948 40.6041 43.8827C40.6675 43.7559 40.7309 43.6292 40.7962 43.4985Z" fill="#91C678"/>
<path d="M92.0852 32.7419C92.6421 33.202 92.7579 33.5703 92.8536 34.2786C92.6634 34.3737 92.6634 34.3737 92.4694 34.4707C92.1125 33.8685 92.0465 33.4383 92.0852 32.7419Z" fill="#9AD37E"/>
<path d="M57.3163 22.1774C57.2529 22.4309 57.1895 22.6845 57.1242 22.9457C57.1242 22.8189 57.1242 22.6921 57.1242 22.5615C56.6805 22.6883 56.2367 22.8151 55.7795 22.9457C55.8429 22.7555 55.9063 22.5654 55.9716 22.3695C56.5479 22.1774 56.5479 22.1774 57.3163 22.1774Z" fill="#220C14"/>
<path d="M54.0506 17.5674C54.3676 17.6308 54.6845 17.6942 55.0111 17.7595C54.6269 18.1436 54.6269 18.1436 54.0851 18.1811C53.8757 18.1767 53.6662 18.1722 53.4503 18.1676C53.2399 18.1642 53.0294 18.1607 52.8125 18.1571C52.6506 18.1527 52.4886 18.1482 52.3218 18.1436C52.3218 18.0802 52.3218 18.0169 52.3218 17.9515C53.1776 17.8565 53.1776 17.8565 54.0506 17.7595C54.0506 17.6961 54.0506 17.6327 54.0506 17.5674Z" fill="#64B64C"/>
<path d="M72.6836 15.4546C72.5879 16.1629 72.4722 16.5312 71.9152 16.9913C71.7832 16.5471 71.7832 16.5471 71.7231 16.0308C72.0303 15.6066 72.1516 15.4546 72.6836 15.4546Z" fill="#9DD07F"/>
<path d="M61.5422 107.846C62.3029 107.846 63.0636 107.846 63.8474 107.846C63.9108 107.973 63.9741 108.1 64.0395 108.23C63.6673 108.338 63.6673 108.338 63.2711 108.422C63.2077 108.359 63.1443 108.296 63.079 108.23C62.8201 108.186 62.5596 108.151 62.2986 108.122C62.049 108.095 61.7994 108.067 61.5422 108.038C61.5422 107.975 61.5422 107.911 61.5422 107.846Z" fill="#C381A4"/>
<path d="M89.3958 100.739C88.8478 101.186 88.3315 101.46 87.667 101.7C87.9835 100.75 88.4798 100.69 89.3958 100.739Z" fill="#200712"/>
<path d="M14.8634 60.594C14.9902 60.594 15.117 60.594 15.2476 60.594C15.1208 61.1645 14.994 61.735 14.8634 62.3227C14.8 62.3227 14.7366 62.3227 14.6713 62.3227C14.6525 61.141 14.6525 61.141 14.6713 60.7861C14.7347 60.7227 14.7981 60.6593 14.8634 60.594Z" fill="#D490B5"/>
<path d="M19.4736 57.7126C19.6003 57.7126 19.7271 57.7126 19.8578 57.7126C19.6357 58.4641 19.4053 59.0331 18.8973 59.6335C18.8274 58.8186 18.9858 58.3692 19.4736 57.7126Z" fill="#081803"/>
<path d="M20.6263 56.5602C20.7531 56.6236 20.8799 56.687 21.0105 56.7523C20.8837 57.1326 20.757 57.5129 20.6263 57.9048C20.4362 57.9048 20.246 57.9048 20.05 57.9048C20.4102 56.7763 20.4102 56.7763 20.6263 56.5602Z" fill="#9DD07A"/>
<path d="M97.8479 47.3402C98.038 47.5304 98.2282 47.7205 98.4241 47.9165C98.3607 48.1066 98.2974 48.2968 98.232 48.4927C98.0419 48.4927 97.8517 48.4927 97.6558 48.4927C97.7192 48.1124 97.7825 47.7321 97.8479 47.3402Z" fill="#97CD76"/>
<path d="M86.3223 42.1541C86.7026 42.2808 87.083 42.4076 87.4748 42.5382C87.348 42.7918 87.2213 43.0453 87.0906 43.3065C86.8264 43.0588 86.5705 42.802 86.3223 42.5382C86.3223 42.4114 86.3223 42.2847 86.3223 42.1541Z" fill="#92C372"/>
<path d="M105.34 37.9282C105.466 37.9916 105.593 38.055 105.724 38.1203C104.811 39.2248 104.811 39.2248 104.379 39.657C104.471 38.8283 104.715 38.4726 105.34 37.9282Z" fill="#F1A2C8"/>
<path d="M23.8918 31.2053C24.0819 31.2687 24.2721 31.3321 24.468 31.3974C24.5314 31.5876 24.5948 31.7777 24.6601 31.9737C24.47 32.1638 24.2798 32.354 24.0838 32.5499C24.0838 32.3597 24.0838 32.1696 24.0838 31.9737C23.8937 31.9103 23.7035 31.8469 23.5076 31.7816C23.6344 31.5914 23.7611 31.4012 23.8918 31.2053Z" fill="#EC96C2"/>
<path d="M30.9994 29.6687C30.9754 30.0289 30.9754 30.0289 30.8073 30.437C30.2191 30.6771 30.2191 30.6771 29.6548 30.8212C29.9381 30.1675 30.2034 29.6687 30.9994 29.6687Z" fill="#9BCE7E"/>
<path d="M31.1915 25.827C30.6997 26.2134 30.2222 26.524 29.6547 26.7874C29.5913 26.5973 29.528 26.4071 29.4626 26.2112C30.0649 25.8543 30.4951 25.7883 31.1915 25.827Z" fill="#E097BB"/>
<path d="M85.3619 13.9178C85.5521 13.9812 85.7422 14.0446 85.9382 14.1099C85.5578 14.5536 85.1775 14.9974 84.7856 15.4545C84.7222 15.2643 84.6588 15.0742 84.5935 14.8783C84.9657 14.362 84.9657 14.362 85.3619 13.9178Z" fill="#EDA0C7"/>
<path d="M60.1976 10.6525C60.3877 10.7159 60.5779 10.7792 60.7739 10.8445C60.4569 11.2249 60.1399 11.6052 59.8134 11.997C59.6866 11.9337 59.5598 11.8703 59.4292 11.805C59.6504 11.3309 59.8226 11.0274 60.1976 10.6525Z" fill="#091B05"/>
<path d="M72.4917 7.5791C73.1385 7.84674 73.4495 8.1513 73.8364 8.7316C73.3801 8.69558 73.3801 8.69558 72.8759 8.53951C72.6238 8.0473 72.6238 8.0473 72.4917 7.5791Z" fill="#1A0711"/>
<path d="M69.226 107.27C69.226 107.333 69.226 107.397 69.226 107.462C68.9145 107.537 68.6022 107.608 68.2896 107.678C68.1157 107.718 67.9419 107.758 67.7628 107.8C67.6118 107.815 67.4607 107.83 67.3051 107.846C67.1783 107.719 67.0515 107.593 66.9209 107.462C67.6857 107.207 68.4289 107.257 69.226 107.27Z" fill="#C081A0"/>
<path d="M37.9148 104.773C38.563 104.878 38.891 104.976 39.4515 105.349C38.881 105.349 38.3105 105.349 37.7227 105.349C37.786 105.159 37.8494 104.969 37.9148 104.773Z" fill="#E89AC0"/>
<path d="M89.0116 101.123C88.8195 101.7 88.8195 101.7 88.4713 101.94C87.9859 102.106 87.7587 102.062 87.2827 101.892C88.5793 101.123 88.5793 101.123 89.0116 101.123Z" fill="#D894B5"/>
<path d="M29.6547 70.9664C29.7181 70.9664 29.7815 70.9664 29.8468 70.9664C29.9177 72.2194 29.9177 72.2194 29.5586 72.6832C29.4636 72.7505 29.3685 72.8179 29.2705 72.8873C29.3585 72.2208 29.4417 71.6053 29.6547 70.9664Z" fill="#F6FEF0"/>
<path d="M96.8875 68.0852C97.4318 68.7005 97.5637 69.1956 97.6558 70.006C97.1185 69.6089 97.0744 69.402 96.9475 68.7215C96.9277 68.5115 96.9079 68.3015 96.8875 68.0852Z" fill="#E6FADC"/>
<path d="M44.4458 47.9165C44.5726 48.0433 44.6993 48.1701 44.83 48.3007C43.7254 49.069 43.7254 49.069 43.2932 49.069C43.5325 48.3513 43.7992 48.2646 44.4458 47.9165Z" fill="#0D1F07"/>
<path d="M88.4354 46.764C88.4988 46.764 88.5622 46.764 88.6275 46.764C88.6755 47.8445 88.6755 47.8445 88.2433 48.4928C88.1165 48.4928 87.9898 48.4928 87.8591 48.4928C87.9935 47.8882 88.1974 47.3353 88.4354 46.764Z" fill="#071A03"/>
<path d="M70.1864 43.6907C70.2498 43.6907 70.3132 43.6907 70.3785 43.6907C70.4419 44.1978 70.5053 44.7049 70.5706 45.2273C70.3804 45.2273 70.1902 45.2273 69.9943 45.2273C69.9861 44.7792 69.9864 44.3309 69.9943 43.8828C70.0577 43.8194 70.1211 43.756 70.1864 43.6907Z" fill="#9ACB79"/>
<path d="M54.0505 12.1891C54.526 12.3792 54.526 12.3792 55.011 12.5733C54.8208 12.6683 54.8208 12.6683 54.6268 12.7653C54.6268 12.9555 54.6268 13.1457 54.6268 13.3416C54.4366 13.2782 54.2465 13.2148 54.0505 13.1495C54.0505 12.8326 54.0505 12.5156 54.0505 12.1891Z" fill="#9ED67D"/>
<path d="M63.6552 8.34753C64.2891 8.34753 64.923 8.34753 65.5762 8.34753C65.5762 8.41092 65.5762 8.47431 65.5762 8.53962C64.8789 8.66639 64.1816 8.79317 63.4631 8.92378C63.5265 8.73362 63.5899 8.54346 63.6552 8.34753Z" fill="#081A04"/>
</svg>
